<svg id="svg2" height="450" viewBox="0 0 250 450" width="250" xmlns="http://www.w3.org/2000/svg"><g id="layer1"><rect id="rectBase" fill="#c5c7c4" fill-opacity=".8" fill-rule="evenodd" height="449" stroke="#000" stroke-linecap="square" width="249"/><g id="fasteningTop" stroke="#000" stroke-linecap="square"><rect id="fasteningTopBase" fill="none" height="449" stroke-width="1.00001" width="212" x="18.5"/><rect id="rect3-6-9-7-0" fill="none" height="25" stroke-width=".4" width="60" x="23.389" y="14"/><rect id="rect3-6-9-7-0-8" fill="none" height="25" stroke-width=".4" width="60" x="165.44" y="14"/><rect id="rect3-6-9" fill="#fff" fill-rule="evenodd" height="40" width="115" x="67" y="319"/><path id="rect3-6" d="m113.5 3.1699v315.8301h22v-315.8301zm11 222.0701c1.66 0 3 1.89 3 4.24v76.29c0 2.35-1.34 4.24-3 4.24s-3-1.89-3-4.24v-76.29c0-2.35 1.34-4.24 3-4.24z" fill="#fff" fill-rule="evenodd"/><rect id="rect3-6-9-7-8-2" fill="#fff" fill-rule="evenodd" height="192.96" stroke-width="1.00003" width="26" x="111.5" y="3.1699"/><rect id="rect3-6-9-6" fill="#fff" fill-rule="evenodd" height="4.0699" stroke-width="1.00001" width="30.284" x="109.36" y=".01288"/><rect id="rect3833" fill="#fff" fill-rule="evenodd" height="4.0699" stroke-width="1.00001" width="30.284" x="109.36" y="314.8"/><rect id="rect3-6-9-7-4" fill="#fff" fill-rule="evenodd" height="40" stroke-width="1.00003" width="70" x="89.5" y="319"/></g><g id="fasteningTopExt" stroke="#000"><rect id="rect3-6-9-7" fill="#fff" fill-rule="evenodd" height="22" stroke-linecap="square" stroke-width="1.00003" width="70" x="89.501" y="319"/><rect id="rect874" fill="#c5c7c4" fill-opacity=".8" height="180.35" ry="5" stroke-linejoin="bevel" stroke-width=".80001" width="6" x="121.5" y="9.403"/><path id="rect3-6-9-8" d="m21.699 259.31v32h205.601v-32zm124.731 6.5h69.54c2.75 0 4.95 1.34 4.95 3s-2.2 3-4.95 3h-69.54c-2.74 0-4.95-1.34-4.95-3s2.21-3 4.95-3zm-113.4.19h69.54c2.74 0 4.95 1.34 4.95 3s-2.21 3-4.95 3h-69.54c-2.742 0-4.951-1.34-4.951-3s2.209-3 4.951-3zm112.76 12.81h70.82c2.39 0 4.31 1.34 4.31 3s-1.92 3-4.31 3h-70.82c-2.39 0-4.31-1.34-4.31-3s1.92-3 4.31-3zm-113.398.19h70.818c2.39 0 4.31 1.34 4.31 3s-1.92 3-4.31 3h-70.818c-2.391 0-4.314-1.34-4.314-3s1.923-3 4.314-3z" fill="#fff" fill-rule="evenodd" stroke-linecap="square" stroke-width="1.00005"/><circle id="path4581" cx="124.5" cy="272.31" fill="#e0e0e0" r="3.824" stroke-linejoin="bevel" stroke-width=".8"/><line id="line4144" fill="none" x1="126.5" x2="122.5" y1="272.31" y2="272.31"/><line id="line1" fill="none" x1="124.5" x2="124.5" y1="270.31" y2="274.31"/></g><text id="textTop" font-family="sans-serif" letter-spacing="0" text-anchor="middle" word-spacing="0" x="125.21" y="21"><tspan id="tspan4155" font-size="20" x="125.21" y="21">Text</tspan></text><text id="textBottom" font-family="sans-serif" letter-spacing="0" text-anchor="middle" word-spacing="0" x="125.2" y="437"><tspan id="tspan4174" font-size="20" x="125.2" y="437">Text</tspan></text></g></svg>