<svg id="svg2" height="600" viewBox="0 0 750 600" width="750" xmlns="http://www.w3.org/2000/svg"><g id="layer1"><g id="edfLeftTop"><rect id="rect4262" fill="#f00" fill-rule="evenodd" height="14" stroke="#f00" stroke-linecap="round" stroke-linejoin="round" width="14" x="3" y="30.5"/><circle id="path4201" cx="10" cy="37.5" fill="#a00000" fill-rule="evenodd" r="4.5" stroke="#a00000" stroke-linecap="square"/><rect id="rect4264" fill="#f00" fill-rule="evenodd" height="10" stroke="#f00" stroke-linecap="square" stroke-linejoin="round" width="10" x="5" y="20.5"/><rect id="rect4197" fill="#c00000" fill-rule="evenodd" height="6" stroke="#c00000" stroke-linecap="square" width="6" x="7" y="22.5"/><rect id="rect4266" fill="#f00" fill-rule="evenodd" height="10" stroke="#f00" stroke-linecap="round" stroke-linejoin="round" width="10" x="5" y="44.5"/><rect id="rect4199" fill="#c00000" fill-rule="evenodd" height="6" stroke="#c00000" stroke-linecap="square" width="6" x="7" y="46.5"/></g><g id="edfRightTop"><rect id="rect4292" fill="#f00" fill-rule="evenodd" height="14" stroke="#f00" stroke-linecap="round" stroke-linejoin="round" width="14" x="733" y="30.5"/><circle id="circle4294" cx="740" cy="37.5" fill="#a00000" fill-rule="evenodd" r="4.5" stroke="#a00000" stroke-linecap="square"/><rect id="rect4296" fill="#f00" fill-rule="evenodd" height="10" stroke="#f00" stroke-linecap="square" stroke-linejoin="round" width="10" x="735" y="20.5"/><rect id="rect4298" fill="#c00000" fill-rule="evenodd" height="6" stroke="#c00000" stroke-linecap="square" width="6" x="737" y="22.5"/><rect id="rect4300" fill="#f00" fill-rule="evenodd" height="10" stroke="#f00" stroke-linecap="round" stroke-linejoin="round" width="10" x="735" y="44.5"/><rect id="rect4302" fill="#c00000" fill-rule="evenodd" height="6" stroke="#c00000" stroke-linecap="square" width="6" x="737" y="46.5"/></g><g id="edfRightBottom"><rect id="rect4320" fill="#f00" fill-rule="evenodd" height="14" stroke="#f00" stroke-linecap="round" stroke-linejoin="round" width="14" x="733" y="555.5"/><circle id="circle4322" cx="740" cy="562.5" fill="#a00000" fill-rule="evenodd" r="4.5" stroke="#a00000" stroke-linecap="square"/><rect id="rect4324" fill="#f00" fill-rule="evenodd" height="10" stroke="#f00" stroke-linecap="square" stroke-linejoin="round" width="10" x="735" y="545.5"/><rect id="rect4326" fill="#c00000" fill-rule="evenodd" height="6" stroke="#c00000" stroke-linecap="square" width="6" x="737" y="547.5"/><rect id="rect4328" fill="#f00" fill-rule="evenodd" height="10" stroke="#f00" stroke-linecap="round" stroke-linejoin="round" width="10" x="735" y="569.5"/><rect id="rect4330" fill="#c00000" fill-rule="evenodd" height="6" stroke="#c00000" stroke-linecap="square" width="6" x="737" y="571.5"/></g><g id="edfLeftBottom"><rect id="rect4334" fill="#f00" fill-rule="evenodd" height="14" stroke="#f00" stroke-linecap="round" stroke-linejoin="round" width="14" x="3" y="555.5"/><circle id="circle4336" cx="10" cy="562.5" fill="#a00000" fill-rule="evenodd" r="4.5" stroke="#a00000" stroke-linecap="square"/><rect id="rect4338" fill="#f00" fill-rule="evenodd" height="10" stroke="#f00" stroke-linecap="square" stroke-linejoin="round" width="10" x="5" y="545.5"/><rect id="rect4340" fill="#c00000" fill-rule="evenodd" height="6" stroke="#c00000" stroke-linecap="square" width="6" x="7" y="547.5"/><rect id="rect4342" fill="#f00" fill-rule="evenodd" height="10" stroke="#f00" stroke-linecap="round" stroke-linejoin="round" width="10" x="5" y="569.5"/><rect id="rect4344" fill="#c00000" fill-rule="evenodd" height="6" stroke="#c00000" stroke-linecap="square" width="6" x="7" y="571.5"/></g><path id="frontPanel600x750" d="m0 0v600h750v-600zm27.5 78h330v177h-330zm365 0h330v177h-330zm-365 250h330v177h-330zm365 0h330v177h-330z" fill="#c5c7c4" fill-opacity=".8" fill-rule="evenodd" stroke="#000" stroke-linecap="square"/><path id="frontPanel600x500" d="m0 0v600h500v-600zm21 78h218v177h-218zm240 0h218v177h-218zm-240 250h218v177h-218zm240 0h218v177h-218z" fill="#c5c7c4" fill-opacity=".8" fill-rule="evenodd" stroke="#000" stroke-linecap="square"/><path id="frontPanel600x250" d="m0 0v600h250v-600zm16 78h218v177h-218zm0 250h218v177h-218z" fill="#c5c7c4" fill-opacity=".8" fill-rule="evenodd" stroke="#000" stroke-linecap="square"/><path id="frontPanel300x750" d="m0 0v300h750v-300zm27.5 55h330v177h-330zm365 0h330v177h-330z" fill="#c5c7c4" fill-opacity=".8" fill-rule="evenodd" stroke="#000" stroke-linecap="square"/><path id="frontPanel300x500" d="m0 0v300h500v-300zm23 55h218v177h-218zm236 0h218v177h-218z" fill="#c5c7c4" fill-opacity=".8" fill-rule="evenodd" stroke="#000" stroke-linecap="square"/><path id="frontPanel300x250_x2" d="m0 0v300h250v-300zm16 55h218v177h-218z" fill="#c5c7c4" fill-opacity=".8" fill-rule="evenodd" stroke="#000" stroke-linecap="square"/><path id="frontPanel300x250_x1" d="m0 0v300h250v-300zm19 55h110v177h-110z" fill="#c5c7c4" fill-opacity=".8" fill-rule="evenodd" stroke="#000" stroke-linecap="square"/><g id="fittingLeftTop"><circle id="circle1" cx="10" cy="37.5" fill="#c5c7c4" fill-rule="evenodd" r="4.5" stroke="#000" stroke-linecap="square"/><rect id="rect4169" fill="#c5c7c4" fill-rule="evenodd" height="7" stroke="#000" stroke-linecap="square" stroke-width=".5" width="2" x="9" y="22.5"/><rect id="rect4171" fill="#c5c7c4" fill-rule="evenodd" height="7" stroke="#000" stroke-linecap="square" stroke-width=".5" width="2" x="9" y="45.5"/><path id="line4144" d="m13 37.5h-6m3-3v6" fill="#c5c7c4" stroke="#000"/></g><g id="fittingRightTop"><circle id="circle4154" cx="740" cy="37.5" fill="#c5c7c4" fill-rule="evenodd" r="4.5" stroke="#000" stroke-linecap="square"/><rect id="rect4158" fill="#c5c7c4" fill-rule="evenodd" height="7" stroke="#000" stroke-linecap="square" stroke-width=".5" width="2" x="739" y="22.5"/><rect id="rect4160" fill="#c5c7c4" fill-rule="evenodd" height="7" stroke="#000" stroke-linecap="square" stroke-width=".5" width="2" x="739" y="45.5"/><path id="line4162" d="m743 37.5h-6m3-3v6" fill="#c5c7c4" stroke="#000"/></g><g id="fittingRightBottom"><circle id="circle4164" cx="740" cy="562.5" fill="#c5c7c4" fill-rule="evenodd" r="4.5" stroke="#000" stroke-linecap="square"/><rect id="rect4168" fill="#c5c7c4" fill-rule="evenodd" height="7" stroke="#000" stroke-linecap="square" stroke-width=".5" width="2" x="739" y="547.5"/><rect id="rect4170" fill="#c5c7c4" fill-rule="evenodd" height="7" stroke="#000" stroke-linecap="square" stroke-width=".5" width="2" x="739" y="570.5"/><path id="line4172" d="m743 562.5h-6m3-3v6" fill="#c5c7c4" stroke="#000"/></g><g id="fittingLeftBottom"><circle id="circle4174" cx="10" cy="562.5" fill="#c5c7c4" fill-rule="evenodd" r="4.5" stroke="#000" stroke-linecap="square"/><rect id="rect4178" fill="#c5c7c4" fill-rule="evenodd" height="7" stroke="#000" stroke-linecap="square" stroke-width=".5" width="2" x="9" y="547.5"/><rect id="rect4180" fill="#c5c7c4" fill-rule="evenodd" height="7" stroke="#000" stroke-linecap="square" stroke-width=".5" width="2" x="9" y="570.5"/><path id="line4182" d="m13 562.5h-6m3-3v6" fill="#c5c7c4" stroke="#000"/></g><path id="dTop250" d="m124.98 20.25a61.25 19.5 0 0 1 -61.252-19.5h122.502a61.25 19.5 0 0 1 -61.25 19.5z" fill="none" stroke="#666" stroke-linecap="round" stroke-linejoin="round" stroke-width="2.5"/><path id="dBottom250" d="m124.98 579.75a61.25 19.5 0 0 0 -61.252 19.5h122.502a61.25 19.5 0 0 0 -61.25-19.5z" fill="none" stroke="#666" stroke-linecap="round" stroke-linejoin="round" stroke-width="2.5"/><path id="dTop500" d="m374.98 20.25a61.25 19.5 0 0 1 -61.25-19.5h122.5a61.25 19.5 0 0 1 -61.25 19.5z" fill="none" stroke="#666" stroke-linecap="round" stroke-linejoin="round" stroke-width="2.5"/><path id="dBottom500" d="m374.98 579.75a61.25 19.5 0 0 0 -61.25 19.5h122.5a61.25 19.5 0 0 0 -61.25-19.5z" fill="none" stroke="#666" stroke-linecap="round" stroke-linejoin="round" stroke-width="2.5"/><path id="dTop750" d="m625.02 20.25a61.25 19.5 0 0 1 -61.25-19.5h122.5a61.25 19.5 0 0 1 -61.25 19.5z" fill="none" stroke="#666" stroke-linecap="round" stroke-linejoin="round" stroke-width="2.5"/><path id="dBottom750" d="m625.02 579.75a61.25 19.5 0 0 0 -61.25 19.5h122.5a61.25 19.5 0 0 0 -61.25-19.5z" fill="none" stroke="#666" stroke-linecap="round" stroke-linejoin="round" stroke-width="2.5"/><text id="textTop" font-family="sans-serif" font-size="20" letter-spacing="0" text-anchor="middle" word-spacing="0" x="375.21" y="38.54"><tspan id="tspan4155" x="375.21" y="36">Text</tspan></text><text id="textBottom" font-family="sans-serif" font-size="20" letter-spacing="0" text-anchor="middle" word-spacing="0" x="375.21" y="575.25"><tspan id="tspan4218" x="375.21" y="578">Text</tspan></text></g></svg>