<svg id="svg2" height="450" viewBox="0 0 750 450" width="750" xmlns="http://www.w3.org/2000/svg"><path id="traverseXT4_250" d="m25.525 120.88v171h199.005v-3-165-3zm199.005 3v165h23.49v-165zm-222.5554 0v165h23.5004v-165zm44.9514 8.94h156.004v5.3h-156.004zm-36.801 2.06c1.519 0 2.75 1.23 2.75 2.75s-1.231 2.75-2.75 2.75c-1.5188 0-2.75-1.23-2.75-2.75s1.2312-2.75 2.75-2.75zm229.865 0c1.52 0 2.75 1.23 2.75 2.75s-1.23 2.75-2.75 2.75-2.75-1.23-2.75-2.75 1.23-2.75 2.75-2.75zm-229.865 137.5c1.519 0 2.75 1.23 2.75 2.75s-1.231 2.75-2.75 2.75c-1.5188 0-2.75-1.23-2.75-2.75s1.2312-2.75 2.75-2.75zm229.865 0c1.52 0 2.75 1.23 2.75 2.75s-1.23 2.75-2.75 2.75-2.75-1.23-2.75-2.75 1.23-2.75 2.75-2.75zm-193.064-.56h156.004v5.3h-156.004z" fill="#e0e0e0" stroke="#000" stroke-linejoin="bevel" stroke-width=".8"/><path id="traverseXT4_250_RCD" d="m215.5 364.5h9v-241.01h-9v-3h-181v3h-9v241.01h9v3h181zm-213.5998-241.01v241.01h23.4998v-241.01zm222.6998 0v241.01h23.5v-241.01zm-214.6002 11.75c1.5192 0 2.7502 1.23 2.7502 2.75s-1.228 2.76-2.7502 2.76c-1.5227 0-2.7555-1.24-2.75-2.76 0-1.52 1.2312-2.75 2.75-2.75zm230.0002 0c1.52 0 2.75 1.23 2.75 2.75s-1.23 2.76-2.75 2.76-2.76-1.24-2.75-2.76c0-1.52 1.23-2.75 2.75-2.75zm-192.902-2.42h156.002v5.3h-156.002zm0 139h156.002v5.3h-156.002zm0 78h156.002v5.3h-156.002zm-37.0982-2.57c1.5192 0 2.7502 1.23 2.7502 2.75s-1.231 2.75-2.7502 2.75c-1.5188 0-2.75-1.23-2.75-2.75s1.2312-2.75 2.75-2.75zm230.0002 0c1.52 0 2.75 1.23 2.75 2.75s-1.23 2.75-2.75 2.75-2.75-1.23-2.75-2.75 1.23-2.75 2.75-2.75z" fill="#e0e0e0" stroke="#000" stroke-linejoin="bevel" stroke-width=".8"/><path id="traverseXT2_750" d="m25.494 63v3h .01v143h-.01v3h698.996v-3-143-3zm698.996 3v143h23.5v-143zm-698.996 143v-143h-23.4881v143zm-15.494-136.75a2.75 2.75 0 0 1 2.75 2.75 2.75 2.75 0 0 1 -2.75 2.75 2.75 2.75 0 0 1 -2.75-2.75 2.75 2.75 0 0 1 2.75-2.75zm730 0a2.75 2.75 0 0 1 2.75 2.75 2.75 2.75 0 0 1 -2.75 2.75 2.75 2.75 0 0 1 -2.75-2.75 2.75 2.75 0 0 1 2.75-2.75zm-693.006 7.1h326.496v5.3h-326.496zm331.496 0h326.5v5.3h-326.5zm-331.496 111h326.496v5.3h-326.496zm331.496 0h326.5v5.3h-326.5zm-368.49 6.9a2.75 2.75 0 0 1 2.75 2.75 2.75 2.75 0 0 1 -2.75 2.75 2.75 2.75 0 0 1 -2.75-2.75 2.75 2.75 0 0 1 2.75-2.75zm730 0a2.75 2.75 0 0 1 2.75 2.75 2.75 2.75 0 0 1 -2.75 2.75 2.75 2.75 0 0 1 -2.75-2.75 2.75 2.75 0 0 1 2.75-2.75z" fill="#e0e0e0" stroke="#000" stroke-linejoin="bevel" stroke-width=".8"/><path id="traverseXT2_500" d="m25.4 63v149h449v-149zm21.5 16.35h406v5.3h-406zm0 111h406v5.3h-406zm427.5-124.35v143h23.5v-143zm13.85 6.25a2.75 2.75 0 0 1 2.75 2.75 2.75 2.75 0 0 1 -2.75 2.75 2.75 2.75 0 0 1 -2.75-2.75 2.75 2.75 0 0 1 2.75-2.75zm0 125a2.75 2.75 0 0 1 2.75 2.75 2.75 2.75 0 0 1 -2.75 2.75 2.75 2.75 0 0 1 -2.75-2.75 2.75 2.75 0 0 1 2.75-2.75zm-486.3398-131.25v143h23.4998v-143zm8.0898 6.25a2.75 2.75 0 0 1 2.75 2.75 2.75 2.75 0 0 1 -2.75 2.75 2.75 2.75 0 0 1 -2.75-2.75 2.75 2.75 0 0 1 2.75-2.75zm0 125a2.75 2.75 0 0 1 2.75 2.75 2.75 2.75 0 0 1 -2.75 2.75 2.75 2.75 0 0 1 -2.75-2.75 2.75 2.75 0 0 1 2.75-2.75z" fill="#e0e0e0" stroke="#000" stroke-linejoin="bevel" stroke-width=".8"/><path id="traverseXT2_250" d="m25.651 63v149h198.849v-149zm-23.676 3v143h23.476v-143zm222.625 0v143h23.55v-143zm-214.6 6.25c1.519 0 2.75 1.23 2.75 2.75s-1.231 2.75-2.75 2.75c-1.5188 0-2.75-1.23-2.75-2.75s1.2312-2.75 2.75-2.75zm230 0c1.52 0 2.75 1.23 2.75 2.75s-1.23 2.75-2.75 2.75-2.75-1.23-2.75-2.75 1.23-2.75 2.75-2.75zm-193.199 7.1h155.999v5.3h-155.999zm0 111h155.999v5.3h-155.999zm-36.801 6.9c1.519 0 2.75 1.23 2.75 2.75s-1.231 2.75-2.75 2.75c-1.5188 0-2.75-1.23-2.75-2.75s1.2312-2.75 2.75-2.75zm230 0c1.52 0 2.75 1.23 2.75 2.75s-1.23 2.75-2.75 2.75-2.75-1.23-2.75-2.75 1.23-2.75 2.75-2.75z" fill="#e0e0e0" stroke="#000" stroke-linejoin="bevel" stroke-width=".8"/><path id="traverseXT2_250_RCD" d="m25.5 112.99v224.01h199v-224.01zm-23.5996 3v218.01h23.4996v-218.01zm222.6996 0v218.01h23.5v-218.01zm-214.6 6.25a2.75 2.75 0 0 1 2.75 2.75 2.75 2.75 0 0 1 -2.75 2.76 2.75 2.75 0 0 1 -2.75-2.76 2.75 2.75 0 0 1 2.75-2.75zm230 0a2.75 2.75 0 0 1 2.75 2.75 2.75 2.75 0 0 1 -2.75 2.76 2.75 2.75 0 0 1 -2.75-2.76 2.75 2.75 0 0 1 2.75-2.75zm-192.902 7.11h156.002v5.3h-156.002zm0 111h156.002v5.3h-156.002zm0 75h156.002v5.3h-156.002zm-37.098 6.9a2.75 2.75 0 0 1 2.75 2.75 2.75 2.75 0 0 1 -2.75 2.75 2.75 2.75 0 0 1 -2.75-2.75 2.75 2.75 0 0 1 2.75-2.75zm230 0a2.75 2.75 0 0 1 2.75 2.75 2.75 2.75 0 0 1 -2.75 2.75 2.75 2.75 0 0 1 -2.75-2.75 2.75 2.75 0 0 1 2.75-2.75z" fill="#e0e0e0" stroke="#000" stroke-linejoin="bevel" stroke-width=".8"/></svg>