<svg id="svg2" height="450" viewBox="0 0 750 450" width="750" xmlns="http://www.w3.org/2000/svg"><g id="layer1"><rect id="traverseTop" fill="#c0c0c0" height="22" stroke="#000" stroke-linecap="square" width="702" x="24" y="114"/><rect id="traverseBottom" fill="#c0c0c0" height="22" stroke="#000" stroke-linecap="square" width="702" x="24" y="314"/><g id="traverseCenter"><rect id="rect5210" fill="#c0c0c0" height="218.6" stroke="#000" stroke-linecap="round" stroke-width=".5" width="16" x="367" y="115.7"/><circle id="circle4174-6" cx="375" cy="124.5" fill="#fff" fill-rule="evenodd" r="3.5" stroke="#000" stroke-linecap="square"/><line id="line4176-2" stroke="#000" x1="375" x2="375" y1="122.5" y2="126.5"/><line id="line4182-8" stroke="#000" x1="377" x2="373" y1="124.5" y2="124.5"/><circle id="circle5242" cx="375" cy="325" fill="#fff" fill-rule="evenodd" r="3.5" stroke="#000" stroke-linecap="square"/><line id="line5244" stroke="#000" x1="375" x2="375" y1="323" y2="327"/><line id="line5246" stroke="#000" x1="377" x2="373" y1="325" y2="325"/></g><path id="traverseLeft" d="m14 325a3.5 3.5 0 0 1 -3.5 3.5 3.5 3.5 0 0 1 -3.5-3.5 3.5 3.5 0 0 1 3.5-3.5 3.5 3.5 0 0 1 3.5 3.5zm0-200a3.5 3.5 0 0 1 -3.5 3.5 3.5 3.5 0 0 1 -3.5-3.5 3.5 3.5 0 0 1 3.5-3.5 3.5 3.5 0 0 1 3.5 3.5zm24 200a3.5 3.5 0 0 1 -3.5 3.5 3.5 3.5 0 0 1 -3.5-3.5 3.5 3.5 0 0 1 3.5-3.5 3.5 3.5 0 0 1 3.5 3.5zm0-200a3.5 3.5 0 0 1 -3.5 3.5 3.5 3.5 0 0 1 -3.5-3.5 3.5 3.5 0 0 1 3.5-3.5 3.5 3.5 0 0 1 3.5 3.5zm-34.17 183.2h22.84c.18 0 .33.15.33.33v27.34c0 .18-.15.33-.33.33h-22.84c-.18 0-.33-.15-.33-.33v-27.34c0-.18.15-.33.33-.33zm.13-192.5h22.58c.25 0 .46.21.46.46v27.08c0 .25-.21.46-.46.46h-22.58c-.25 0-.46-.21-.46-.46v-27.08c0-.25.21-.46.46-.46zm23.04 0h16v220.5h-16z" fill="#c0c0c0" fill-rule="evenodd" stroke="#000" stroke-linecap="square"/><path id="traverseRight" d="m743.5 325a3.5 3.5 0 0 1 -3.5 3.5 3.5 3.5 0 0 1 -3.5-3.5 3.5 3.5 0 0 1 3.5-3.5 3.5 3.5 0 0 1 3.5 3.5zm0-200a3.5 3.5 0 0 1 -3.5 3.5 3.5 3.5 0 0 1 -3.5-3.5 3.5 3.5 0 0 1 3.5-3.5 3.5 3.5 0 0 1 3.5 3.5zm-24.5 200a3.5 3.5 0 0 1 -3.5 3.5 3.5 3.5 0 0 1 -3.5-3.5 3.5 3.5 0 0 1 3.5-3.5 3.5 3.5 0 0 1 3.5 3.5zm0-200a3.5 3.5 0 0 1 -3.5 3.5 3.5 3.5 0 0 1 -3.5-3.5 3.5 3.5 0 0 1 3.5-3.5 3.5 3.5 0 0 1 3.5 3.5zm-11.5-9.3h16v220.5h-16zm17.11 0h21.28c.61 0 1.11.5 1.11 1.11v25.78c0 .61-.5 1.11-1.11 1.11h-21.28c-.61 0-1.11-.5-1.11-1.11v-25.78c0-.61.5-1.11 1.11-1.11zm-.22 192.5h21.72c.49 0 .89.4.89.89v26.22c0 .49-.4.89-.89.89h-21.72c-.49 0-.89-.4-.89-.89v-26.22c0-.49.4-.89.89-.89z" fill="#c0c0c0" fill-rule="evenodd" stroke="#000" stroke-linecap="square"/><g id="busbars"><rect id="L1" fill="#c6782e" height="30" stroke="#000" stroke-linecap="round" stroke-opacity=".27451" stroke-width=".5" width="749.5" x=".25" y="150"/><rect id="L2" fill="#c6782e" height="30" stroke="#000" stroke-linecap="round" stroke-opacity=".27451" stroke-width=".5" width="749.5" x=".25" y="210"/><rect id="L3" fill="#c6782e" height="30" stroke="#000" stroke-linecap="round" stroke-opacity=".27451" stroke-width=".5" width="749.5" x=".25" y="270"/></g><g id="holderLeft"><rect id="rect5283" fill="#c0c0c0" height="178" ry="3.3792" stroke="#000" stroke-linejoin="round" stroke-miterlimit="10" width="15" x="27.5" y="136"/><circle id="circle5291" cx="35" cy="142.35" fill="#fff" r="4" stroke="#000" stroke-linejoin="bevel" stroke-miterlimit="10" stroke-width=".99998"/><line id="line5293" stroke="#000" x1="35" x2="35" y1="139.35" y2="145.35"/><line id="line5295" stroke="#000" x1="38" x2="32" y1="142.35" y2="142.35"/><circle id="circle1044" cx="35" cy="307.65" fill="#fff" r="4" stroke="#000" stroke-linejoin="bevel" stroke-miterlimit="10" stroke-width=".99998"/><line id="line1046" stroke="#000" x1="35" x2="35" y1="304.65" y2="310.65"/><line id="line1049" stroke="#000" x1="38" x2="32" y1="307.65" y2="307.65"/><circle id="circle1071" cx="35" cy="187.5" fill="#fff" r="4" stroke="#000" stroke-linejoin="bevel" stroke-miterlimit="10" stroke-width=".99998"/><line id="line1073" stroke="#000" x1="35" x2="35" y1="184.5" y2="190.5"/><line id="line1075" stroke="#000" x1="38" x2="32" y1="187.5" y2="187.5"/><circle id="circle1079" cx="35" cy="262.5" fill="#fff" r="4" stroke="#000" stroke-linejoin="bevel" stroke-miterlimit="10" stroke-width=".99998"/><line id="line1081" stroke="#000" x1="35" x2="35" y1="259.5" y2="265.5"/><line id="line1083" stroke="#000" x1="38" x2="32" y1="262.5" y2="262.5"/></g><g id="holderCenter"><rect id="rect1000" fill="#c0c0c0" height="178" ry="3.3792" stroke="#000" stroke-linejoin="round" stroke-miterlimit="10" width="15" x="367.5" y="136"/><circle id="circle1002" cx="375" cy="142.35" fill="#fff" r="4" stroke="#000" stroke-linejoin="bevel" stroke-miterlimit="10" stroke-width=".99998"/><line id="line1004" stroke="#000" x1="375" x2="375" y1="139.35" y2="145.35"/><line id="line1006" stroke="#000" x1="378" x2="372" y1="142.35" y2="142.35"/><circle id="circle1008" cx="375" cy="307.65" fill="#fff" r="4" stroke="#000" stroke-linejoin="bevel" stroke-miterlimit="10" stroke-width=".99998"/><line id="line1010" stroke="#000" x1="375" x2="375" y1="304.65" y2="310.65"/><line id="line1012" stroke="#000" x1="378" x2="372" y1="307.65" y2="307.65"/><circle id="circle1014" cx="375" cy="187.5" fill="#fff" r="4" stroke="#000" stroke-linejoin="bevel" stroke-miterlimit="10" stroke-width=".99998"/><line id="line1016" stroke="#000" x1="375" x2="375" y1="184.5" y2="190.5"/><line id="line1018" stroke="#000" x1="378" x2="372" y1="187.5" y2="187.5"/><circle id="circle1020" cx="375" cy="262.5" fill="#fff" r="4" stroke="#000" stroke-linejoin="bevel" stroke-miterlimit="10" stroke-width=".99998"/><line id="line1022" stroke="#000" x1="375" x2="375" y1="259.5" y2="265.5"/><line id="line1024" stroke="#000" x1="378" x2="372" y1="262.5" y2="262.5"/></g><g id="holderRight"><rect id="rect1028" fill="#c0c0c0" height="178" ry="3.3792" stroke="#000" stroke-linejoin="round" stroke-miterlimit="10" width="15" x="707.75" y="136"/><circle id="circle1030" cx="715.25" cy="142.35" fill="#fff" r="4" stroke="#000" stroke-linejoin="bevel" stroke-miterlimit="10" stroke-width=".99998"/><line id="line1032" stroke="#000" x1="715.25" x2="715.25" y1="139.35" y2="145.35"/><line id="line1034" stroke="#000" x1="718.25" x2="712.25" y1="142.35" y2="142.35"/><circle id="circle1036" cx="715.25" cy="307.65" fill="#fff" r="4" stroke="#000" stroke-linejoin="bevel" stroke-miterlimit="10" stroke-width=".99998"/><line id="line1038" stroke="#000" x1="715.25" x2="715.25" y1="304.65" y2="310.65"/><line id="line1040" stroke="#000" x1="718.25" x2="712.25" y1="307.65" y2="307.65"/><circle id="circle1042" cx="715.25" cy="187.5" fill="#fff" r="4" stroke="#000" stroke-linejoin="bevel" stroke-miterlimit="10" stroke-width=".99998"/><line id="line1044" stroke="#000" x1="715.25" x2="715.25" y1="184.5" y2="190.5"/><line id="line1047" stroke="#000" x1="718.25" x2="712.25" y1="187.5" y2="187.5"/><circle id="circle1049" cx="715.25" cy="262.5" fill="#fff" r="4" stroke="#000" stroke-linejoin="bevel" stroke-miterlimit="10" stroke-width=".99998"/><line id="line1051" stroke="#000" x1="715.25" x2="715.25" y1="259.5" y2="265.5"/><line id="line1053" stroke="#000" x1="718.25" x2="712.25" y1="262.5" y2="262.5"/></g></g></svg>