<svg id="svg2" height="300" viewBox="0 0 750 300" width="750" xmlns="http://www.w3.org/2000/svg"><g id="layer1"><path id="traverseXT3_750" d="m33.5 232.8-8-8v-161.5h699v161.5l-8 8zm13.3-10.35h139.5v-5.3h-139.5zm144.9 0h138v-5.3h-138zm143 0h81v-5.3h-81zm86 0h138v-5.3h-138zm143 0h139.5v-5.3h-139.5zm-516.9-19.5h139.5v-5.3h-139.5zm144.9 0h138v-5.3h-138zm143 0h81v-5.3h-81zm86 0h138v-5.3h-138zm143 0h139.5v-5.3h-139.5zm-561.7998-19.15v-117.5h23.4998v117.5zm722.6998 0v-117.5h23.5v117.5zm-714.6-6a2.75 2.75 0 0 0 2.75-2.75 2.75 2.75 0 0 0 -2.75-2.75 2.75 2.75 0 0 0 -2.7498 2.75 2.75 2.75 0 0 0 2.7498 2.75zm730 0a2.75 2.75 0 0 0 2.75-2.75 2.75 2.75 0 0 0 -2.75-2.75 2.75 2.75 0 0 0 -2.75 2.75 2.75 2.75 0 0 0 2.75 2.75zm-730-12.5a2.75 2.75 0 0 0 2.75-2.75 2.75 2.75 0 0 0 -2.75-2.75 2.75 2.75 0 0 0 -2.7498 2.75 2.75 2.75 0 0 0 2.7498 2.75zm730 0a2.75 2.75 0 0 0 2.75-2.75 2.75 2.75 0 0 0 -2.75-2.75 2.75 2.75 0 0 0 -2.75 2.75 2.75 2.75 0 0 0 2.75 2.75zm-693.2-49.85h139.5v-5.3h-139.5zm144.9 0h138v-5.3h-138zm143 0h81v-5.3h-81zm86 0h138v-5.3h-138zm143 0h139.5v-5.3h-139.5zm-516.9-13h139.5v-5.3h-139.5zm144.9 0h138v-5.3h-138zm143 0h81v-5.3h-81zm86 0h138v-5.3h-138zm143 0h139.5v-5.3h-139.5zm-553.7-12.15a2.75 2.75 0 0 0 2.75-2.75 2.75 2.75 0 0 0 -2.75-2.75 2.75 2.75 0 0 0 -2.7498 2.75 2.75 2.75 0 0 0 2.7498 2.75zm730 0a2.75 2.75 0 0 0 2.75-2.75 2.75 2.75 0 0 0 -2.75-2.75 2.75 2.75 0 0 0 -2.75 2.75 2.75 2.75 0 0 0 2.75 2.75zm-693.2-5.35h139.5v-5.3h-139.5zm144.9 0h138v-5.3h-138zm143 0h81v-5.3h-81zm86 0h138v-5.3h-138zm143 0h139.5v-5.3h-139.5zm-553.7-7.15a2.75 2.75 0 0 0 2.75-2.75 2.75 2.75 0 0 0 -2.75-2.75 2.75 2.75 0 0 0 -2.7498 2.75 2.75 2.75 0 0 0 2.7498 2.75zm730 0a2.75 2.75 0 0 0 2.75-2.75 2.75 2.75 0 0 0 -2.75-2.75 2.75 2.75 0 0 0 -2.75 2.75 2.75 2.75 0 0 0 2.75 2.75z" fill="#e0e0e0" stroke="#000" stroke-linejoin="bevel" stroke-width=".8"/><path id="traverseXT1_750" d="m33.5 80-8 8v161.5h699v-161.5l-8-8zm13.301 10.35h139.499v5.3h-139.499zm144.899 0h138v5.3h-138zm143 0h81v5.3h-81zm86 0h138v5.3h-138zm143 0h139.5v5.3h-139.5zm-516.899 19.5h139.499v5.3h-139.499zm144.899 0h138v5.3h-138zm143 0h81v5.3h-81zm86 0h138v5.3h-138zm143 0h139.5v5.3h-139.5zm-561.7996 19.15v117.5h23.4996v-117.5zm722.6996 0v117.5h23.5v-117.5zm-714.6 6a2.75 2.75 0 0 1 2.75 2.75 2.75 2.75 0 0 1 -2.75 2.75 2.75 2.75 0 0 1 -2.75-2.75 2.75 2.75 0 0 1 2.75-2.75zm730 0a2.75 2.75 0 0 1 2.75 2.75 2.75 2.75 0 0 1 -2.75 2.75 2.75 2.75 0 0 1 -2.75-2.75 2.75 2.75 0 0 1 2.75-2.75zm-730 12.5a2.75 2.75 0 0 1 2.75 2.75 2.75 2.75 0 0 1 -2.75 2.75 2.75 2.75 0 0 1 -2.75-2.75 2.75 2.75 0 0 1 2.75-2.75zm730 0a2.75 2.75 0 0 1 2.75 2.75 2.75 2.75 0 0 1 -2.75 2.75 2.75 2.75 0 0 1 -2.75-2.75 2.75 2.75 0 0 1 2.75-2.75zm-693.199 49.85h139.499v5.3h-139.499zm144.899 0h138v5.3h-138zm143 0h81v5.3h-81zm86 0h138v5.3h-138zm143 0h139.5v5.3h-139.5zm-516.899 13h139.499v5.3h-139.499zm144.899 0h138v5.3h-138zm143 0h81v5.3h-81zm86 0h138v5.3h-138zm143 0h139.5v5.3h-139.5zm-553.7 12.15a2.75 2.75 0 0 1 2.75 2.75 2.75 2.75 0 0 1 -2.75 2.75 2.75 2.75 0 0 1 -2.75-2.75 2.75 2.75 0 0 1 2.75-2.75zm730 0a2.75 2.75 0 0 1 2.75 2.75 2.75 2.75 0 0 1 -2.75 2.75 2.75 2.75 0 0 1 -2.75-2.75 2.75 2.75 0 0 1 2.75-2.75zm-693.199 5.35h139.499v5.3h-139.499zm144.899 0h138v5.3h-138zm143 0h81v5.3h-81zm86 0h138v5.3h-138zm143 0h139.5v5.3h-139.5zm-553.7 7.15a2.75 2.75 0 0 1 2.75 2.75 2.75 2.75 0 0 1 -2.75 2.75 2.75 2.75 0 0 1 -2.75-2.75 2.75 2.75 0 0 1 2.75-2.75zm730 0a2.75 2.75 0 0 1 2.75 2.75 2.75 2.75 0 0 1 -2.75 2.75 2.75 2.75 0 0 1 -2.75-2.75 2.75 2.75 0 0 1 2.75-2.75z" fill="#e0e0e0" stroke="#000" stroke-linejoin="bevel" stroke-width=".8"/><path id="traverseXT3_500" d="m33.5 232.8-8-8v-161.5h449v161.5l-8 8zm13.5-10.35h158v-5.3h-158zm163 0h80v-5.3h-80zm85 0h158v-5.3h-158zm-248-19.5h158v-5.3h-158zm163 0h80v-5.3h-80zm85 0h158v-5.3h-158zm-293.0998-19.15v-117.5h23.4998v117.5zm472.6998 0v-117.5h23.5v117.5zm-464.6-6a2.75 2.75 0 0 0 2.75-2.75 2.75 2.75 0 0 0 -2.75-2.75 2.75 2.75 0 0 0 -2.7498 2.75 2.75 2.75 0 0 0 2.7498 2.75zm480 0a2.75 2.75 0 0 0 2.75-2.75 2.75 2.75 0 0 0 -2.75-2.75 2.75 2.75 0 0 0 -2.75 2.75 2.75 2.75 0 0 0 2.75 2.75zm-480-12.5a2.75 2.75 0 0 0 2.75-2.75 2.75 2.75 0 0 0 -2.75-2.75 2.75 2.75 0 0 0 -2.7498 2.75 2.75 2.75 0 0 0 2.7498 2.75zm480 0a2.75 2.75 0 0 0 2.75-2.75 2.75 2.75 0 0 0 -2.75-2.75 2.75 2.75 0 0 0 -2.75 2.75 2.75 2.75 0 0 0 2.75 2.75zm-443-49.85h158v-5.3h-158zm163 0h80v-5.3h-80zm85 0h158v-5.3h-158zm-248-13h158v-5.3h-158zm163 0h80v-5.3h-80zm85 0h158v-5.3h-158zm-285-12.15a2.75 2.75 0 0 0 2.75-2.75 2.75 2.75 0 0 0 -2.75-2.75 2.75 2.75 0 0 0 -2.7498 2.75 2.75 2.75 0 0 0 2.7498 2.75zm480 0a2.75 2.75 0 0 0 2.75-2.75 2.75 2.75 0 0 0 -2.75-2.75 2.75 2.75 0 0 0 -2.75 2.75 2.75 2.75 0 0 0 2.75 2.75zm-443-5.35h158v-5.3h-158zm163 0h80v-5.3h-80zm85 0h158v-5.3h-158zm-285-7.15a2.75 2.75 0 0 0 2.75-2.75 2.75 2.75 0 0 0 -2.75-2.75 2.75 2.75 0 0 0 -2.7498 2.75 2.75 2.75 0 0 0 2.7498 2.75zm480 0a2.75 2.75 0 0 0 2.75-2.75 2.75 2.75 0 0 0 -2.75-2.75 2.75 2.75 0 0 0 -2.75 2.75 2.75 2.75 0 0 0 2.75 2.75z" fill="#e0e0e0" stroke="#000" stroke-linejoin="bevel" stroke-width=".8"/><path id="traverseXT1_500" d="m33.5 80-8 8v161.5h449v-161.5l-8-8zm13.5 10.35h158v5.3h-158zm163 0h80v5.3h-80zm85 0h158v5.3h-158zm-248 19.5h158v5.3h-158zm163 0h80v5.3h-80zm85 0h158v5.3h-158zm-293.0996 19.15v117.5h23.4996v-117.5zm472.6996 0v117.5h23.5v-117.5zm-464.6 6a2.75 2.75 0 0 1 2.75 2.75 2.75 2.75 0 0 1 -2.75 2.75 2.75 2.75 0 0 1 -2.75-2.75 2.75 2.75 0 0 1 2.75-2.75zm480 0a2.75 2.75 0 0 1 2.75 2.75 2.75 2.75 0 0 1 -2.75 2.75 2.75 2.75 0 0 1 -2.75-2.75 2.75 2.75 0 0 1 2.75-2.75zm-480 12.5a2.75 2.75 0 0 1 2.75 2.75 2.75 2.75 0 0 1 -2.75 2.75 2.75 2.75 0 0 1 -2.75-2.75 2.75 2.75 0 0 1 2.75-2.75zm480 0a2.75 2.75 0 0 1 2.75 2.75 2.75 2.75 0 0 1 -2.75 2.75 2.75 2.75 0 0 1 -2.75-2.75 2.75 2.75 0 0 1 2.75-2.75zm-443 49.85h158v5.3h-158zm163 0h80v5.3h-80zm85 0h158v5.3h-158zm-248 13h158v5.3h-158zm163 0h80v5.3h-80zm85 0h158v5.3h-158zm-285 12.15a2.75 2.75 0 0 1 2.75 2.75 2.75 2.75 0 0 1 -2.75 2.75 2.75 2.75 0 0 1 -2.75-2.75 2.75 2.75 0 0 1 2.75-2.75zm480 0a2.75 2.75 0 0 1 2.75 2.75 2.75 2.75 0 0 1 -2.75 2.75 2.75 2.75 0 0 1 -2.75-2.75 2.75 2.75 0 0 1 2.75-2.75zm-443 5.35h158v5.3h-158zm163 0h80v5.3h-80zm85 0h158v5.3h-158zm-285 7.15a2.75 2.75 0 0 1 2.75 2.75 2.75 2.75 0 0 1 -2.75 2.75 2.75 2.75 0 0 1 -2.75-2.75 2.75 2.75 0 0 1 2.75-2.75zm480 0a2.75 2.75 0 0 1 2.75 2.75 2.75 2.75 0 0 1 -2.75 2.75 2.75 2.75 0 0 1 -2.75-2.75 2.75 2.75 0 0 1 2.75-2.75z" fill="#e0e0e0" stroke="#000" stroke-linejoin="bevel" stroke-width=".8"/><path id="traverseXT3_250" d="m1.8997 183.8v-117.5h23.5003v117.5zm8.1-6c1.5193 0 2.7503-1.23 2.7503-2.75s-1.231-2.75-2.7503-2.75c-1.5188 0-2.75 1.23-2.75 2.75s1.2312 2.75 2.75 2.75zm0-12.5c1.5193 0 2.7503-1.23 2.7503-2.75s-1.231-2.75-2.7503-2.75c-1.5188 0-2.75 1.23-2.75 2.75s1.2312 2.75 2.75 2.75zm0-75c1.5193 0 2.7503-1.231 2.7503-2.75s-1.231-2.75-2.7503-2.75c-1.5188 0-2.75 1.231-2.75 2.75s1.2312 2.75 2.75 2.75zm0-12.5c1.5193 0 2.7503-1.231 2.7503-2.75s-1.231-2.75-2.7503-2.75c-1.5188 0-2.75 1.231-2.75 2.75s1.2312 2.75 2.75 2.75zm238.1003 106v-117.5h-23.5v117.5zm-8.1-6c-1.52 0-2.75-1.23-2.75-2.75s1.23-2.75 2.75-2.75 2.75 1.23 2.75 2.75-1.23 2.75-2.75 2.75zm0-12.5c-1.52 0-2.75-1.23-2.75-2.75s1.23-2.75 2.75-2.75 2.75 1.23 2.75 2.75-1.23 2.75-2.75 2.75zm0-75c-1.52 0-2.75-1.231-2.75-2.75s1.23-2.75 2.75-2.75 2.75 1.231 2.75 2.75-1.23 2.75-2.75 2.75zm0-12.5c-1.52 0-2.75-1.231-2.75-2.75s1.23-2.75 2.75-2.75 2.75 1.231 2.75 2.75-1.23 2.75-2.75 2.75zm-206.5 155h182.5l8.5-8.5v-161h-199v161zm169.5-10.35h-156v-5.3h156zm0-19.5h-156v-5.3h156zm0-87.5h-156v-5.3h156zm0-13h-156v-5.3h156zm0-17.5h-156v-5.3h156z" fill="#e0e0e0" stroke="#000" stroke-linejoin="bevel" stroke-width=".8"/><path id="traverseXT1_250" d="m248.1 129v117.5h-23.5v-117.5zm-8.1 6c-1.52 0-2.75 1.23-2.75 2.75s1.23 2.75 2.75 2.75 2.75-1.23 2.75-2.75-1.23-2.75-2.75-2.75zm0 12.5c-1.52 0-2.75 1.23-2.75 2.75s1.23 2.75 2.75 2.75 2.75-1.23 2.75-2.75-1.23-2.75-2.75-2.75zm0 75c-1.52 0-2.75 1.23-2.75 2.75s1.23 2.75 2.75 2.75 2.75-1.23 2.75-2.75-1.23-2.75-2.75-2.75zm0 12.5c-1.52 0-2.75 1.23-2.75 2.75s1.23 2.75 2.75 2.75 2.75-1.23 2.75-2.75-1.23-2.75-2.75-2.75zm-238.0996-106v117.5h23.4996v-117.5zm8.0996 6c1.519 0 2.75 1.23 2.75 2.75s-1.231 2.75-2.75 2.75c-1.5188 0-2.75-1.23-2.75-2.75s1.2312-2.75 2.75-2.75zm0 12.5c1.519 0 2.75 1.23 2.75 2.75s-1.231 2.75-2.75 2.75c-1.5188 0-2.75-1.23-2.75-2.75s1.2312-2.75 2.75-2.75zm0 75c1.519 0 2.75 1.23 2.75 2.75s-1.231 2.75-2.75 2.75c-1.5188 0-2.75-1.23-2.75-2.75s1.2312-2.75 2.75-2.75zm0 12.5c1.519 0 2.75 1.23 2.75 2.75s-1.231 2.75-2.75 2.75c-1.5188 0-2.75-1.23-2.75-2.75s1.2312-2.75 2.75-2.75zm206-155h-182l-8.5 8.5v161h199v-161zm-169 10.35h156v5.3h-156zm0 19.5h156v5.3h-156zm0 87.5h156v5.3h-156zm0 13h156v5.3h-156zm0 17.5h156v5.3h-156z" fill="#e0e0e0" stroke="#000" stroke-linejoin="bevel" stroke-width=".8"/></g></svg>