<svg id="svg2" height="750" viewBox="0 0 750 750" width="750" xmlns="http://www.w3.org/2000/svg"><g id="layer1"><rect id="L1" fill="#c6782e" height="10" stroke="#000" stroke-linecap="round" stroke-opacity=".27451" stroke-width=".5" width="746" x="2" y="159.5"/><rect id="L2" fill="#c6782e" height="10" stroke="#000" stroke-linecap="round" stroke-opacity=".27451" stroke-width=".5" width="746" x="2" y="344.8"/><rect id="L3" fill="#c6782e" height="10" stroke="#000" stroke-linecap="round" stroke-opacity=".27451" stroke-width=".5" width="746" x="2" y="529.5"/><g id="busbarHolderLeft"><rect id="rect5166" fill="#e0e0e0" height="40" stroke="#000" stroke-linejoin="bevel" stroke-width=".50001" width="30" x="57.25" y="100.05"/><rect id="rect5168" fill="#e0e0e0" height="40" stroke="#000" stroke-linejoin="bevel" stroke-width=".50001" width="30" x="57.25" y="559.55"/><path id="path5170" d="m75.53 577.68a3.2822 3.2822 0 0 1 -3.28 3.28 3.2822 3.2822 0 0 1 -3.28-3.28 3.2822 3.2822 0 0 1 3.28-3.28 3.2822 3.2822 0 0 1 3.28 3.28zm2.72 0a6 6 0 0 1 -6 6 6 6 0 0 1 -6-6 6 6 0 0 1 6-6 6 6 0 0 1 6 6zm-2.72-450a3.2822 3.2822 0 0 1 -3.28 3.28 3.2822 3.2822 0 0 1 -3.28-3.28 3.2822 3.2822 0 0 1 3.28-3.28 3.2822 3.2822 0 0 1 3.28 3.28zm2.72 0a6 6 0 0 1 -6 6 6 6 0 0 1 -6-6 6 6 0 0 1 6-6 6 6 0 0 1 6 6zm-18-25.38h24v495h-24z" fill="#e0e0e0" fill-rule="evenodd" stroke="#000" stroke-linecap="square" stroke-width=".50001"/><path id="path5172" d="m75.53 397.3a3.2822 3.2822 0 0 1 -3.28 3.28 3.2822 3.2822 0 0 1 -3.28-3.28 3.2822 3.2822 0 0 1 3.28-3.28 3.2822 3.2822 0 0 1 3.28 3.28zm2.72 0a6 6 0 0 1 -6 6 6 6 0 0 1 -6-6 6 6 0 0 1 6-6 6 6 0 0 1 6 6zm-2.72-95a3.2822 3.2822 0 0 1 -3.28 3.28 3.2822 3.2822 0 0 1 -3.28-3.28 3.2822 3.2822 0 0 1 3.28-3.28 3.2822 3.2822 0 0 1 3.28 3.28zm2.72 0a6 6 0 0 1 -6 6 6 6 0 0 1 -6-6 6 6 0 0 1 6-6 6 6 0 0 1 6 6zm-18-157.5h24v410h-24z" fill="#e0e0e0" fill-rule="evenodd" stroke="#000" stroke-linecap="square" stroke-width=".50001"/></g><g id="busbarHolderCenter"><rect id="rect4573" fill="#e0e0e0" height="40" stroke="#000" stroke-linejoin="bevel" stroke-width=".50001" width="30" x="360" y="101"/><rect id="rect4601" fill="#e0e0e0" height="40" stroke="#000" stroke-linejoin="bevel" stroke-width=".50001" width="30" x="360" y="559.55"/><path id="circle4599" d="m378.28 577.68a3.2822 3.2822 0 0 1 -3.28 3.28 3.2822 3.2822 0 0 1 -3.28-3.28 3.2822 3.2822 0 0 1 3.28-3.28 3.2822 3.2822 0 0 1 3.28 3.28zm2.72 0a6 6 0 0 1 -6 6 6 6 0 0 1 -6-6 6 6 0 0 1 6-6 6 6 0 0 1 6 6zm-2.72-450a3.2822 3.2822 0 0 1 -3.28 3.28 3.2822 3.2822 0 0 1 -3.28-3.28 3.2822 3.2822 0 0 1 3.28-3.28 3.2822 3.2822 0 0 1 3.28 3.28zm2.72 0a6 6 0 0 1 -6 6 6 6 0 0 1 -6-6 6 6 0 0 1 6-6 6 6 0 0 1 6 6zm-18-25.38h24v495h-24z" fill="#e0e0e0" fill-rule="evenodd" stroke="#000" stroke-linecap="square" stroke-width=".50001"/><path id="circle4605" d="m378.28 397.3a3.2822 3.2822 0 0 1 -3.28 3.28 3.2822 3.2822 0 0 1 -3.28-3.28 3.2822 3.2822 0 0 1 3.28-3.28 3.2822 3.2822 0 0 1 3.28 3.28zm2.72 0a6 6 0 0 1 -6 6 6 6 0 0 1 -6-6 6 6 0 0 1 6-6 6 6 0 0 1 6 6zm-2.72-95a3.2822 3.2822 0 0 1 -3.28 3.28 3.2822 3.2822 0 0 1 -3.28-3.28 3.2822 3.2822 0 0 1 3.28-3.28 3.2822 3.2822 0 0 1 3.28 3.28zm2.72 0a6 6 0 0 1 -6 6 6 6 0 0 1 -6-6 6 6 0 0 1 6-6 6 6 0 0 1 6 6zm-18-157.5h24v410h-24z" fill="#e0e0e0" fill-rule="evenodd" stroke="#000" stroke-linecap="square" stroke-width=".50001"/></g><g id="busbarHolderRight"><rect id="rect5176" fill="#e0e0e0" height="40" stroke="#000" stroke-linejoin="bevel" stroke-width=".50001" width="30" x="662.25" y="100.05"/><rect id="rect5178" fill="#e0e0e0" height="40" stroke="#000" stroke-linejoin="bevel" stroke-width=".50001" width="30" x="662.25" y="559.55"/><path id="path5180" d="m680.53 577.68a3.2822 3.2822 0 0 1 -3.28 3.28 3.2822 3.2822 0 0 1 -3.28-3.28 3.2822 3.2822 0 0 1 3.28-3.28 3.2822 3.2822 0 0 1 3.28 3.28zm2.72 0a6 6 0 0 1 -6 6 6 6 0 0 1 -6-6 6 6 0 0 1 6-6 6 6 0 0 1 6 6zm-2.72-450a3.2822 3.2822 0 0 1 -3.28 3.28 3.2822 3.2822 0 0 1 -3.28-3.28 3.2822 3.2822 0 0 1 3.28-3.28 3.2822 3.2822 0 0 1 3.28 3.28zm2.72 0a6 6 0 0 1 -6 6 6 6 0 0 1 -6-6 6 6 0 0 1 6-6 6 6 0 0 1 6 6zm-18-25.38h24v495h-24z" fill="#e0e0e0" fill-rule="evenodd" stroke="#000" stroke-linecap="square" stroke-width=".50001"/><path id="path5182" d="m680.53 397.3a3.2822 3.2822 0 0 1 -3.28 3.28 3.2822 3.2822 0 0 1 -3.28-3.28 3.2822 3.2822 0 0 1 3.28-3.28 3.2822 3.2822 0 0 1 3.28 3.28zm2.72 0a6 6 0 0 1 -6 6 6 6 0 0 1 -6-6 6 6 0 0 1 6-6 6 6 0 0 1 6 6zm-2.72-95a3.2822 3.2822 0 0 1 -3.28 3.28 3.2822 3.2822 0 0 1 -3.28-3.28 3.2822 3.2822 0 0 1 3.28-3.28 3.2822 3.2822 0 0 1 3.28 3.28zm2.72 0a6 6 0 0 1 -6 6 6 6 0 0 1 -6-6 6 6 0 0 1 6-6 6 6 0 0 1 6 6zm-18-157.5h24v410h-24z" fill="#e0e0e0" fill-rule="evenodd" stroke="#000" stroke-linecap="square" stroke-width=".50001"/></g><g id="mountingKit_750"><path id="path4899" d="m689.5 75.5v548h3v-49h49.5l5-5v-440l-5-5h-49.5v-49zm3.13 8.189v7.452h3.69v-7.452zm47.37 63.561c1.52 0 2.75 1.23 2.75 2.75s-1.23 2.75-2.75 2.75-2.75-1.23-2.75-2.75 1.23-2.75 2.75-2.75zm0 200c1.52 0 2.75 1.23 2.75 2.75s-1.23 2.75-2.75 2.75-2.75-1.23-2.75-2.75 1.23-2.75 2.75-2.75zm0 200c1.52 0 2.75 1.23 2.75 2.75s-1.23 2.75-2.75 2.75-2.75-1.23-2.75-2.75 1.23-2.75 2.75-2.75zm-47.37 61.44v7.45h3.69v-7.45z" fill="#e0e0e0" stroke="#000" stroke-linejoin="bevel" stroke-width=".5"/><path id="path4912" d="m57.5 75.5v49h-49.5l-5 5v440l5 5h49.5v49h3v-548zm-3.869 8.189v7.452h3.695v-7.452zm-43.631 63.561c1.519 0 2.75 1.23 2.75 2.75s-1.231 2.75-2.75 2.75c-1.5188 0-2.75-1.23-2.75-2.75s1.2312-2.75 2.75-2.75zm0 200c1.519 0 2.75 1.23 2.75 2.75s-1.231 2.75-2.75 2.75c-1.5188 0-2.75-1.23-2.75-2.75s1.2312-2.75 2.75-2.75zm0 200c1.519 0 2.75 1.23 2.75 2.75s-1.231 2.75-2.75 2.75c-1.5188 0-2.75-1.23-2.75-2.75s1.2312-2.75 2.75-2.75zm43.631 61.44v7.45h3.691v-7.45z" fill="#e0e0e0" stroke="#000" stroke-linejoin="bevel" stroke-width=".5"/><path id="rect913" d="m687.15 75.4h2.15v18.724h-2.15zm-626.65 0h2.154v18.724h-2.154zm624.5 0-620 .1v4.701 15c0 2.77 1.23 4.999 4 4.999h612c2.77 0 4-2.229 4-4.999v-15zm-610.5 14h601c1.11 0 2 .89 2 2v1c0 1.11-.89 2-2 2h-601c-1.108 0-2-.89-2-2v-1c0-1.11.892-2 2-2zm-11-14.1h-3v-21.9c0-2.77 2.23-5 5-5h619c2.77 0 5 2.23 5 5v22z" fill="#c5c7c4" fill-opacity=".8" stroke="#000" stroke-linejoin="bevel" stroke-width=".5"/><path id="rect920" d="m687.4 605.63h1.95l.1 18.62h-2.15zm-626.9 0h2.154v18.52h-2.154zm624.5 18.57h-620v-4.8-15c0-2.77 1.23-5 4-5h611c2.77 0 5 2.23 5 5v15zm-610.5-14h601c1.11 0 2-.89 2-2v-1c0-1.11-.89-2-2-2h-601c-1.108 0-2 .89-2 2v1c0 1.11.892 2 2 2zm-14 13.9v22c0 2.77 2.23 5.1 5 5.1h619c2.77 0 5-2.23 5-5l-.2-22z" fill="#c5c7c4" fill-opacity=".8" stroke="#000" stroke-linejoin="bevel" stroke-width=".5"/></g><g id="mountingKit_500"><path id="traverseRight_500" d="m467.58 610.23h3.85v7.16h-3.85zm0-526h3.85v7.16h-3.85zm-3.08-8.23v548h3v-49h24.5l5-5v-440l-5-5h-24.5v-49zm25.5 71.25a2.75 2.75 0 0 1 2.75 2.75 2.75 2.75 0 0 1 -2.75 2.75 2.75 2.75 0 0 1 -2.75-2.75 2.75 2.75 0 0 1 2.75-2.75zm0 200a2.75 2.75 0 0 1 2.75 2.75 2.75 2.75 0 0 1 -2.75 2.75 2.75 2.75 0 0 1 -2.75-2.75 2.75 2.75 0 0 1 2.75-2.75zm0 200a2.75 2.75 0 0 1 2.75 2.75 2.75 2.75 0 0 1 -2.75 2.75 2.75 2.75 0 0 1 -2.75-2.75 2.75 2.75 0 0 1 2.75-2.75z" fill="#e0e0e0" stroke="#000" stroke-linejoin="bevel" stroke-width=".5"/><path id="traverseLeft_500" d="m28.58 610.23h3.854v7.16h-3.854zm0-526h3.854v7.16h-3.854zm3.92-8.23v49h-24.5l-5 5v440l5 5h24.5v49h3v-548zm-22.5 71.25a2.75 2.75 0 0 1 2.75 2.75 2.75 2.75 0 0 1 -2.75 2.75 2.75 2.75 0 0 1 -2.75-2.75 2.75 2.75 0 0 1 2.75-2.75zm0 200a2.75 2.75 0 0 1 2.75 2.75 2.75 2.75 0 0 1 -2.75 2.75 2.75 2.75 0 0 1 -2.75-2.75 2.75 2.75 0 0 1 2.75-2.75zm0 200a2.75 2.75 0 0 1 2.75 2.75 2.75 2.75 0 0 1 -2.75 2.75 2.75 2.75 0 0 1 -2.75-2.75 2.75 2.75 0 0 1 2.75-2.75z" fill="#e0e0e0" stroke="#000" stroke-linejoin="bevel" stroke-width=".5"/><path id="rect939" d="m462.15 76h2.4l-.1 18.123h-2.3zm-426.65 0h2.5v18.123h-2.5zm424.5-.101h-419.9v4.801 15c0 2.77 2.13 5 4.9 5h412c2.77 0 2.82-2.236 3-5v-15zm-410.5 14.001h401c1.11 0 2 .89 2 2v1c0 1.11-.89 2-2 2h-401c-1.11 0-2-.89-2-2v-1c0-1.11.89-2 2-2zm-14-14v-22c0-2.77 2.23-5 5-5h419c2.77 0 5 2.23 5 5v22z" fill="#c5c7c4" fill-opacity=".8" stroke="#000" stroke-linejoin="bevel" stroke-width=".5"/><path id="rect944" d="m461.95 605.5h2.5v18.12h-2.5zm-426.45 0h2.4l.1 18.12h-2.5zm4.6 13.4v-15c0-2.77 1.13-5 3.9-5h412c2.77 0 4 2.23 4 5v15 4.8h-419.9zm9.4-9.2h401c1.11 0 2-.89 2-2v-1c0-1.11-.89-2-2-2h-401c-1.11 0-2 .89-2 2v1c0 1.11.89 2 2 2zm-13.9 14v22c0 2.77 2.13 5 4.9 5h419c2.77 0 5-2.23 5-5v-22z" fill="#c5c7c4" fill-opacity=".8" stroke="#000" stroke-linejoin="bevel" stroke-width=".5"/></g></g></svg>