<svg id="svg2" height="300" viewBox="0 0 750 300" width="750" xmlns="http://www.w3.org/2000/svg"><g id="layer1"><rect id="traverseTop" fill="#c0c0c0" height="22" stroke="#000" stroke-linecap="square" width="702" x="24" y="32.75"/><rect id="traverseBottom" fill="#c0c0c0" height="22" stroke="#000" stroke-linecap="square" width="702" x="24" y="245.25"/><g id="busbars"><rect id="L1" fill="#c6782e" height="12" stroke="#000" stroke-linecap="round" stroke-opacity=".27451" stroke-width=".5" width="695" x="27.5" y="60"/><rect id="L2" fill="#c6782e" height="12" stroke="#000" stroke-linecap="round" stroke-opacity=".27451" stroke-width=".5" width="695" x="27.5" y="100"/><rect id="L3" fill="#c6782e" height="12" stroke="#000" stroke-linecap="round" stroke-opacity=".27451" stroke-width=".5" width="695" x="27.5" y="140"/><rect id="L4" fill="#c6782e" height="12" stroke="#000" stroke-linecap="round" stroke-opacity=".27451" stroke-width=".5" width="695" x="27.5" y="180"/></g><g id="holderLeft"><rect id="rect3798" fill="#c0c0c0" height="230" stroke="#000" stroke-linecap="round" stroke-width=".5" width="19" x="26.25" y="35"/><rect id="rect3800" fill="#c0c0c0" height="197" stroke="#000" stroke-linecap="round" stroke-width=".5" width="17" x="27.25" y="51.5"/><circle id="circle3802" cx="35.75" cy="256.25" fill="#fff" fill-rule="evenodd" r="3.5" stroke="#000" stroke-linecap="square"/><line id="line3804" stroke="#000" x1="35.75" x2="35.75" y1="254.25" y2="258.25"/><line id="line3806" stroke="#000" x1="37.75" x2="33.75" y1="256.25" y2="256.25"/><circle id="circle3808" cx="35.75" cy="43.75" fill="#fff" fill-rule="evenodd" r="3.5" stroke="#000" stroke-linecap="square"/><line id="line3810" stroke="#000" x1="35.75" x2="35.75" y1="41.75" y2="45.75"/><line id="line3812" stroke="#000" x1="37.75" x2="33.75" y1="43.75" y2="43.75"/><circle id="circle1184" cx="35.77" cy="90.004" fill="#fff" fill-rule="evenodd" r="5.8709" stroke="#000" stroke-linecap="square" stroke-width="1.00002"/><path id="path1202" d="m37.687 92.161-1.568-.461-1.258 1.043-.385-1.589-1.533-.568 1.184-1.128-.274-1.611 1.568.461 1.258-1.043.385 1.589 1.533.568-1.184 1.128z" fill="#c0c0c0" stroke="#000" stroke-linejoin="bevel" stroke-width=".5"/><circle id="circle1219" cx="35.77" cy="210" fill="#fff" fill-rule="evenodd" r="5.8709" stroke="#000" stroke-linecap="square" stroke-width="1.00002"/><path id="path1221" d="m37.687 212.16-1.568-.46-1.258 1.04-.385-1.59-1.533-.57 1.184-1.13-.274-1.61 1.568.46 1.258-1.04.385 1.59 1.533.57-1.184 1.13z" fill="#c0c0c0" stroke="#000" stroke-linejoin="bevel" stroke-width=".5"/></g><g id="holderCenter"><rect id="rect1286" fill="#c0c0c0" height="230" stroke="#000" stroke-linecap="round" stroke-width=".5" width="19" x="372.25" y="35"/><rect id="rect1288" fill="#c0c0c0" height="197" stroke="#000" stroke-linecap="round" stroke-width=".5" width="17" x="373.25" y="51.5"/><circle id="circle1290" cx="381.75" cy="256.25" fill="#fff" fill-rule="evenodd" r="3.5" stroke="#000" stroke-linecap="square"/><line id="line1292" stroke="#000" x1="381.75" x2="381.75" y1="254.25" y2="258.25"/><line id="line1294" stroke="#000" x1="383.75" x2="379.75" y1="256.25" y2="256.25"/><circle id="circle1296" cx="381.75" cy="43.75" fill="#fff" fill-rule="evenodd" r="3.5" stroke="#000" stroke-linecap="square"/><line id="line1298" stroke="#000" x1="381.75" x2="381.75" y1="41.75" y2="45.75"/><line id="line1300" stroke="#000" x1="383.75" x2="379.75" y1="43.75" y2="43.75"/><circle id="circle1302" cx="381.77" cy="90.004" fill="#fff" fill-rule="evenodd" r="5.8709" stroke="#000" stroke-linecap="square" stroke-width="1.00002"/><path id="path1304" d="m383.69 92.161-1.57-.461-1.26 1.043-.38-1.589-1.54-.568 1.19-1.128-.28-1.611 1.57.461 1.26-1.043.38 1.589 1.54.568-1.19 1.128z" fill="#c0c0c0" stroke="#000" stroke-linejoin="bevel" stroke-width=".5"/><circle id="circle1306" cx="381.77" cy="210" fill="#fff" fill-rule="evenodd" r="5.8709" stroke="#000" stroke-linecap="square" stroke-width="1.00002"/><path id="path1308" d="m383.69 212.16-1.57-.46-1.26 1.04-.38-1.59-1.54-.57 1.19-1.13-.28-1.61 1.57.46 1.26-1.04.38 1.59 1.54.57-1.19 1.13z" fill="#c0c0c0" stroke="#000" stroke-linejoin="bevel" stroke-width=".5"/></g><g id="holderRight"><rect id="rect1424" fill="#c0c0c0" height="230" stroke="#000" stroke-linecap="round" stroke-width=".5" width="19" x="704.75" y="35"/><rect id="rect1426" fill="#c0c0c0" height="197" stroke="#000" stroke-linecap="round" stroke-width=".5" width="17" x="705.75" y="51.5"/><circle id="circle1428" cx="714.25" cy="256.25" fill="#fff" fill-rule="evenodd" r="3.5" stroke="#000" stroke-linecap="square"/><line id="line1430" stroke="#000" x1="714.25" x2="714.25" y1="254.25" y2="258.25"/><line id="line1432" stroke="#000" x1="716.25" x2="712.25" y1="256.25" y2="256.25"/><circle id="circle1434" cx="714.25" cy="43.75" fill="#fff" fill-rule="evenodd" r="3.5" stroke="#000" stroke-linecap="square"/><line id="line1436" stroke="#000" x1="714.25" x2="714.25" y1="41.75" y2="45.75"/><line id="line1438" stroke="#000" x1="716.25" x2="712.25" y1="43.75" y2="43.75"/><circle id="circle1440" cx="714.27" cy="90.004" fill="#fff" fill-rule="evenodd" r="5.8709" stroke="#000" stroke-linecap="square" stroke-width="1.00002"/><path id="path1442" d="m716.19 92.161-1.57-.461-1.26 1.043-.38-1.589-1.54-.568 1.19-1.128-.28-1.611 1.57.461 1.26-1.043.38 1.589 1.54.568-1.19 1.128z" fill="#c0c0c0" stroke="#000" stroke-linejoin="bevel" stroke-width=".5"/><circle id="circle1444" cx="714.27" cy="210" fill="#fff" fill-rule="evenodd" r="5.8709" stroke="#000" stroke-linecap="square" stroke-width="1.00002"/><path id="path1446" d="m716.19 212.16-1.57-.46-1.26 1.04-.38-1.59-1.54-.57 1.19-1.13-.28-1.61 1.57.46 1.26-1.04.38 1.59 1.54.57-1.19 1.13z" fill="#c0c0c0" stroke="#000" stroke-linejoin="bevel" stroke-width=".5"/></g></g></svg>