<svg id="svg2" height="300" viewBox="0 0 750 300" width="750" xmlns="http://www.w3.org/2000/svg"><g id="layer1"><g id="edfLeftTop"><rect id="rect4262" fill="#f00" height="14" stroke="#f00" stroke-linecap="round" stroke-linejoin="round" width="14" x="3" y="30.5"/><circle id="path4201" cx="10" cy="37.5" fill="#a00000" r="4" stroke="#a00000" stroke-linecap="square"/><rect id="rect4264" fill="#f00" height="10" stroke="#f00" stroke-linecap="square" stroke-linejoin="round" width="10" x="5" y="20.5"/><rect id="rect4197" fill="#c00000" height="6" stroke="#c00000" stroke-linecap="square" width="6" x="7" y="22.5"/><rect id="rect4266" fill="#f00" height="10" stroke="#f00" stroke-linecap="round" stroke-linejoin="round" width="10" x="5" y="44.5"/><rect id="rect4199" fill="#c00000" height="6" stroke="#c00000" stroke-linecap="square" width="6" x="7" y="46.5"/></g><g id="edfRightTop"><rect id="rect4262-15" fill="#f00" height="14" stroke="#f00" stroke-linecap="round" stroke-linejoin="round" width="14" x="733" y="30.5"/><circle id="path4201-1" cx="740" cy="37.5" fill="#a00000" r="4" stroke="#a00000" stroke-linecap="square"/><rect id="rect4264-2" fill="#f00" height="10" stroke="#f00" stroke-linecap="square" stroke-linejoin="round" width="10" x="735" y="20.5"/><rect id="rect4197-2" fill="#c00000" height="6" stroke="#c00000" stroke-linecap="square" width="6" x="737" y="22.5"/><rect id="rect4266-7" fill="#f00" height="10" stroke="#f00" stroke-linecap="round" stroke-linejoin="round" width="10" x="735" y="44.5"/><rect id="rect4199-2" fill="#c00000" height="6" stroke="#c00000" stroke-linecap="square" width="6" x="737" y="46.5"/></g><g id="edfRightBottom"><rect id="rect4262-1-2" fill="#f00" height="14" stroke="#f00" stroke-linecap="round" stroke-linejoin="round" width="14" x="733" y="255.5"/><circle id="path4201-5-7" cx="740" cy="262.5" fill="#a00000" r="4" stroke="#a00000" stroke-linecap="square"/><rect id="rect4264-8-9" fill="#f00" height="10" stroke="#f00" stroke-linecap="square" stroke-linejoin="round" width="10" x="735" y="245.5"/><rect id="rect4197-1-8" fill="#c00000" height="6" stroke="#c00000" stroke-linecap="square" width="6" x="737" y="247.5"/><rect id="rect4266-3-3" fill="#f00" height="10" stroke="#f00" stroke-linecap="round" stroke-linejoin="round" width="10" x="735" y="269.5"/><rect id="rect4199-0-1" fill="#c00000" height="6" stroke="#c00000" stroke-linecap="square" width="6" x="737" y="271.5"/></g><g id="edfLeftBottom"><rect id="rect4262-1" fill="#f00" height="14" stroke="#f00" stroke-linecap="round" stroke-linejoin="round" width="14" x="3" y="255.5"/><circle id="path4201-5" cx="10" cy="262.5" fill="#a00000" r="4" stroke="#a00000" stroke-linecap="square"/><rect id="rect4264-8" fill="#f00" height="10" stroke="#f00" stroke-linecap="square" stroke-linejoin="round" width="10" x="5" y="245.5"/><rect id="rect4197-1" fill="#c00000" height="6" stroke="#c00000" stroke-linecap="square" width="6" x="7" y="247.5"/><rect id="rect4266-3" fill="#f00" height="10" stroke="#f00" stroke-linecap="round" stroke-linejoin="round" width="10" x="5" y="269.5"/><rect id="rect4199-0" fill="#c00000" height="6" stroke="#c00000" stroke-linecap="square" width="6" x="7" y="271.5"/></g><path id="frontPanelXT1_XT3_750" d="m0 0v300h750v-300zm31.5 114h687v46.5h-687z" fill="#c5c7c4" fill-opacity=".8" stroke="#000"/><path id="frontPanelXT1_XT3_500" d="m0 0v300h500v-300zm39.5 114h421v46.5h-421z" fill="#c5c7c4" fill-opacity=".8" stroke="#000"/><path id="frontPanelXT1_XT3_250" d="m0-.000135v300.000135h250v-299.999865zm17 115.000135h216v46h-216z" fill="#c5c7c4" fill-opacity=".8" stroke="#000"/><path id="frontPanelXT3_250" d="m0-.00055v300.00055h250v-300.00055zm74.6 126.50055h100.8v46h-100.8z" fill="#c5c7c4" fill-opacity=".8" stroke="#000"/><path id="frontPanelXT1_250" d="m0 0v300h250v-300zm89 127h72v46h-72z" fill="#c5c7c4" fill-opacity=".8" stroke="#000"/><g id="fittingLeftTop"><circle id="circle1-0" cx="10" cy="37.5" fill="#c5c7c4" fill-rule="evenodd" r="4.5" stroke="#000" stroke-linecap="square"/><rect id="rect4169-63" fill="#c5c7c4" fill-rule="evenodd" height="7" stroke="#000" stroke-linecap="square" stroke-width=".5" width="2" x="9" y="22.5"/><rect id="rect4171-7" fill="#c5c7c4" fill-rule="evenodd" height="7" stroke="#000" stroke-linecap="square" stroke-width=".5" width="2" x="9" y="45.5"/><path id="line4144-6" d="m13 37.5h-6m3-3v6" fill="#c5c7c4" stroke="#000"/></g><g id="fittingRightTop"><circle id="circle976" cx="740" cy="37.5" fill="#c5c7c4" fill-rule="evenodd" r="4.5" stroke="#000" stroke-linecap="square"/><rect id="rect978" fill="#c5c7c4" fill-rule="evenodd" height="7" stroke="#000" stroke-linecap="square" stroke-width=".5" width="2" x="739" y="22.5"/><rect id="rect980" fill="#c5c7c4" fill-rule="evenodd" height="7" stroke="#000" stroke-linecap="square" stroke-width=".5" width="2" x="739" y="45.5"/><path id="path982" d="m743 37.5h-6m3-3v6" fill="#c5c7c4" stroke="#000"/></g><g id="fittingRightBottom"><circle id="circle986" cx="740" cy="262.5" fill="#c5c7c4" fill-rule="evenodd" r="4.5" stroke="#000" stroke-linecap="square"/><rect id="rect988" fill="#c5c7c4" fill-rule="evenodd" height="7" stroke="#000" stroke-linecap="square" stroke-width=".5" width="2" x="739" y="247.5"/><rect id="rect990" fill="#c5c7c4" fill-rule="evenodd" height="7" stroke="#000" stroke-linecap="square" stroke-width=".5" width="2" x="739" y="270.5"/><path id="path992" d="m743 262.5h-6m3-3v6" fill="#c5c7c4" stroke="#000"/></g><g id="fittingLeftBottom"><circle id="circle996" cx="10" cy="262.5" fill="#c5c7c4" fill-rule="evenodd" r="4.5" stroke="#000" stroke-linecap="square"/><rect id="rect998" fill="#c5c7c4" fill-rule="evenodd" height="7" stroke="#000" stroke-linecap="square" stroke-width=".5" width="2" x="9" y="247.5"/><rect id="rect1000" fill="#c5c7c4" fill-rule="evenodd" height="7" stroke="#000" stroke-linecap="square" stroke-width=".5" width="2" x="9" y="270.5"/><path id="path1002" d="m13 262.5h-6m3-3v6" fill="#c5c7c4" stroke="#000"/></g><path id="dTop250" d="m125 20.25a61.25 19.5 0 0 1 -61.25-19.5h122.5a61.25 19.5 0 0 1 -61.25 19.5z" fill="none" stroke="#666" stroke-linecap="round" stroke-linejoin="round" stroke-width="2.5"/><path id="dBottom250" d="m125 279.75a61.25 19.5 0 0 0 -61.25 19.5h122.5a61.25 19.5 0 0 0 -61.25-19.5z" fill="none" stroke="#666" stroke-linecap="round" stroke-linejoin="round" stroke-width="2.5"/><path id="dTop500" d="m375 20.25a61.25 19.5 0 0 1 -61.25-19.5h122.5a61.25 19.5 0 0 1 -61.25 19.5z" fill="none" stroke="#666" stroke-linecap="round" stroke-linejoin="round" stroke-width="2.5"/><path id="dBottom500" d="m375 279.75a61.25 19.5 0 0 0 -61.25 19.5h122.5a61.25 19.5 0 0 0 -61.25-19.5z" fill="none" stroke="#666" stroke-linecap="round" stroke-linejoin="round" stroke-width="2.5"/><path id="dTop750" d="m625.04 20.25a61.25 19.5 0 0 1 -61.25-19.5h122.5a61.25 19.5 0 0 1 -61.25 19.5z" fill="none" stroke="#666" stroke-linecap="round" stroke-linejoin="round" stroke-width="2.5"/><path id="dBottom750" d="m625.04 279.75a61.25 19.5 0 0 0 -61.25 19.5h122.5a61.25 19.5 0 0 0 -61.25-19.5z" fill="none" stroke="#666" stroke-linecap="round" stroke-linejoin="round" stroke-width="2.5"/><text id="textTop" font-family="sans-serif" font-size="20" letter-spacing="0" text-anchor="middle" word-spacing="0" x="375.21" y="157.14"><tspan id="tspan4273" x="375.21" y="36">Text</tspan></text><text id="textBottom" font-family="sans-serif" font-size="20" letter-spacing="0" text-anchor="middle" word-spacing="0" x="375.21" y="278"><tspan id="tspan4155" x="375.21" y="278">Text</tspan></text></g></svg>