<svg id="svg2" height="450" viewBox="0 0 250 450" width="250" xmlns="http://www.w3.org/2000/svg"><g id="layer1"><g id="edfLeftTop"><rect id="rect4262" fill="#f00" fill-rule="evenodd" height="14" stroke="#f00" stroke-linecap="round" stroke-linejoin="round" width="14" x="3" y="30.5"/><circle id="path4201" cx="10" cy="37.5" fill="#a00000" fill-rule="evenodd" r="4.5" stroke="#a00000" stroke-linecap="square"/><rect id="rect4264" fill="#f00" fill-rule="evenodd" height="10" stroke="#f00" stroke-linecap="square" stroke-linejoin="round" width="10" x="5" y="20.5"/><rect id="rect4197" fill="#c00000" fill-rule="evenodd" height="6" stroke="#c00000" stroke-linecap="square" width="6" x="7" y="22.5"/><rect id="rect4266" fill="#f00" fill-rule="evenodd" height="10" stroke="#f00" stroke-linecap="round" stroke-linejoin="round" width="10" x="5" y="44.5"/><rect id="rect4199" fill="#c00000" fill-rule="evenodd" height="6" stroke="#c00000" stroke-linecap="square" width="6" x="7" y="46.5"/></g><g id="edfRightTop"><rect id="rect4292" fill="#f00" fill-rule="evenodd" height="14" stroke="#f00" stroke-linecap="round" stroke-linejoin="round" width="14" x="233" y="30.5"/><circle id="circle4294" cx="240" cy="37.5" fill="#a00000" fill-rule="evenodd" r="4.5" stroke="#a00000" stroke-linecap="square"/><rect id="rect4296" fill="#f00" fill-rule="evenodd" height="10" stroke="#f00" stroke-linecap="square" stroke-linejoin="round" width="10" x="235" y="20.5"/><rect id="rect4298" fill="#c00000" fill-rule="evenodd" height="6" stroke="#c00000" stroke-linecap="square" width="6" x="237" y="22.5"/><rect id="rect4300" fill="#f00" fill-rule="evenodd" height="10" stroke="#f00" stroke-linecap="round" stroke-linejoin="round" width="10" x="235" y="44.5"/><rect id="rect4302" fill="#c00000" fill-rule="evenodd" height="6" stroke="#c00000" stroke-linecap="square" width="6" x="237" y="46.5"/></g><g id="edfRightBottom"><rect id="rect4320" fill="#f00" fill-rule="evenodd" height="14" stroke="#f00" stroke-linecap="round" stroke-linejoin="round" width="14" x="233" y="405.5"/><circle id="circle4322" cx="240" cy="412.5" fill="#a00000" fill-rule="evenodd" r="4.5" stroke="#a00000" stroke-linecap="square"/><rect id="rect4324" fill="#f00" fill-rule="evenodd" height="10" stroke="#f00" stroke-linecap="square" stroke-linejoin="round" width="10" x="235" y="395.5"/><rect id="rect4326" fill="#c00000" fill-rule="evenodd" height="6" stroke="#c00000" stroke-linecap="square" width="6" x="237" y="397.5"/><rect id="rect4328" fill="#f00" fill-rule="evenodd" height="10" stroke="#f00" stroke-linecap="round" stroke-linejoin="round" width="10" x="235" y="419.5"/><rect id="rect4330" fill="#c00000" fill-rule="evenodd" height="6" stroke="#c00000" stroke-linecap="square" width="6" x="237" y="421.5"/></g><g id="edfLeftBottom"><rect id="rect4334" fill="#f00" fill-rule="evenodd" height="14" stroke="#f00" stroke-linecap="round" stroke-linejoin="round" width="14" x="3" y="405.5"/><circle id="circle4336" cx="10" cy="412.5" fill="#a00000" fill-rule="evenodd" r="4.5" stroke="#a00000" stroke-linecap="square"/><rect id="rect4338" fill="#f00" fill-rule="evenodd" height="10" stroke="#f00" stroke-linecap="square" stroke-linejoin="round" width="10" x="5" y="395.5"/><rect id="rect4340" fill="#c00000" fill-rule="evenodd" height="6" stroke="#c00000" stroke-linecap="square" width="6" x="7" y="397.5"/><rect id="rect4342" fill="#f00" fill-rule="evenodd" height="10" stroke="#f00" stroke-linecap="round" stroke-linejoin="round" width="10" x="5" y="419.5"/><rect id="rect4344" fill="#c00000" fill-rule="evenodd" height="6" stroke="#c00000" stroke-linecap="square" width="6" x="7" y="421.5"/></g><path id="frontPanel_450" d="m0 0v450h250v-450zm23.5 55h203v215h-203zm-6 272h216v46h-216z" fill="#c5c7c4" fill-opacity=".8" stroke="#000" stroke-linejoin="bevel"/><path id="frontPanel_300" d="m0 0v300h250v-300zm23.5 42.5h203v215h-203z" fill="#c5c7c4" fill-opacity=".8" stroke="#000" stroke-linejoin="bevel"/><g id="fittingLeftTop"><circle id="circle1-6" cx="10" cy="37.5" fill="#c5c7c4" fill-rule="evenodd" r="4.5" stroke="#000" stroke-linecap="square"/><rect id="rect4169-6" fill="#c5c7c4" fill-rule="evenodd" height="7" stroke="#000" stroke-linecap="square" stroke-width=".5" width="2" x="9" y="22.5"/><rect id="rect4171-7" fill="#c5c7c4" fill-rule="evenodd" height="7" stroke="#000" stroke-linecap="square" stroke-width=".5" width="2" x="9" y="45.5"/><path id="line4144-2" d="m13 37.5h-6m3-3v6" fill="#c5c7c4" stroke="#000"/></g><g id="fittingRightTop"><circle id="circle4905" cx="240" cy="37.5" fill="#c5c7c4" fill-rule="evenodd" r="4.5" stroke="#000" stroke-linecap="square"/><rect id="rect4907" fill="#c5c7c4" fill-rule="evenodd" height="7" stroke="#000" stroke-linecap="square" stroke-width=".5" width="2" x="239" y="22.5"/><rect id="rect4909" fill="#c5c7c4" fill-rule="evenodd" height="7" stroke="#000" stroke-linecap="square" stroke-width=".5" width="2" x="239" y="45.5"/><path id="path4911" d="m243 37.5h-6m3-3v6" fill="#c5c7c4" stroke="#000"/></g><g id="fittingRightBottom"><circle id="circle4953" cx="240" cy="412.5" fill="#c5c7c4" fill-rule="evenodd" r="4.5" stroke="#000" stroke-linecap="square"/><rect id="rect4955" fill="#c5c7c4" fill-rule="evenodd" height="7" stroke="#000" stroke-linecap="square" stroke-width=".5" width="2" x="239" y="397.5"/><rect id="rect4957" fill="#c5c7c4" fill-rule="evenodd" height="7" stroke="#000" stroke-linecap="square" stroke-width=".5" width="2" x="239" y="420.5"/><path id="path4959" d="m243 412.5h-6m3-3v6" fill="#c5c7c4" stroke="#000"/></g><g id="fittingLeftBottom"><circle id="circle4818" cx="10" cy="412.5" fill="#c5c7c4" fill-rule="evenodd" r="4.5" stroke="#000" stroke-linecap="square"/><rect id="rect4820" fill="#c5c7c4" fill-rule="evenodd" height="7" stroke="#000" stroke-linecap="square" stroke-width=".5" width="2" x="9" y="397.5"/><rect id="rect4822" fill="#c5c7c4" fill-rule="evenodd" height="7" stroke="#000" stroke-linecap="square" stroke-width=".5" width="2" x="9" y="420.5"/><path id="path4824" d="m13 412.5h-6m3-3v6" fill="#c5c7c4" stroke="#000"/></g><path id="dTop250" d="m125 20.25a61.25 19.5 0 0 1 -61.25-19.5h122.5a61.25 19.5 0 0 1 -61.25 19.5z" fill="none" stroke="#666" stroke-linecap="round" stroke-linejoin="round" stroke-width="2.5"/><path id="dBottom250" d="m125 429.75a61.25 19.5 0 0 0 -61.25 19.5h122.5a61.25 19.5 0 0 0 -61.25-19.5z" fill="none" stroke="#666" stroke-linecap="round" stroke-linejoin="round" stroke-width="2.5"/><text id="textTop" font-family="sans-serif" letter-spacing="0" text-anchor="middle" word-spacing="0" x="125.2" y="36"><tspan id="tspan4155" font-size="20" x="125.2" y="36">Text</tspan></text><text id="textBottom" font-family="sans-serif" letter-spacing="0" text-anchor="middle" word-spacing="0" x="125.2" y="428"><tspan id="tspan4200" font-size="20" x="125.2" y="428">Text</tspan></text></g></svg>