<svg id="svg2" height="600" viewBox="0 0 500 600" width="500" xmlns="http://www.w3.org/2000/svg"><g id="layer1"><path id="traverseT6_500-2" d="m4.1882 373.47c-2.095 0-3.78798 1.69-3.78798 3.78v55.79c0 2.09 1.69298 3.78 3.78798 3.78h17.4368c2.095 0 3.781-1.69 3.781-3.78v-55.79c0-2.09-1.686-3.78-3.781-3.78zm474.5918 0c-2.09 0-3.78 1.69-3.78 3.78v55.79c0 2.09 1.69 3.78 3.78 3.78h17.44c2.09 0 3.78-1.69 3.78-3.78v-55.79c0-2.09-1.69-3.78-3.78-3.78zm-453.073 3.93v55.5h448.993v-55.5zm463.393 3.1h3c .55 0 1 .45 1 1v20c0 .56-.45 1-1 1h-3c-.55 0-1-.44-1-1v-20c0-.55.45-1 1-1zm-480.3938 0h3.0008c.554 0 1 .45 1 1v20c0 .56-.446 1-1 1h-3.0008c-.554 0-1-.44-1-1v-20c0-.55.446-1 1-1zm26.0008 6.95h84.993v9.5h-84.993zm95.993 0h239v9.5h-239zm250 0h85v9.5h-85zm-371.9938 20.34h3.0008c.554 0 1 .45 1 1v20c0 .55-.446 1-1 1h-3.0008c-.554 0-1-.45-1-1v-20c0-.55.446-1 1-1zm480.3938 0h3c .55 0 1 .45 1 1v20c0 .55-.45 1-1 1h-3c-.55 0-1-.45-1-1v-20c0-.55.45-1 1-1zm-454.393 3.66h84.993v12.5h-84.993zm95.993 0h239v12.5h-239zm250 0h85v12.5h-85zm-376.5166-250.48c-2.0951 0-3.78318 1.69-3.78318 3.78v55.79c0 2.09 1.68808 3.78 3.78318 3.78h17.4356c2.095 0 3.781-1.69 3.781-3.78v-55.79c0-2.09-1.686-3.78-3.781-3.78zm474.5966 0c-2.09 0-3.78 1.69-3.78 3.78v55.79c0 2.09 1.69 3.78 3.78 3.78h17.44c2.09 0 3.78-1.69 3.78-3.78v-55.79c0-2.09-1.69-3.78-3.78-3.78zm-453.079 3.93v55.5h448.999v-55.5zm463.399 3.1h3c .55 0 1 .45 1 1v20c0 .56-.45 1-1 1h-3c-.55 0-1-.44-1-1v-20c0-.55.45-1 1-1zm-480.399 0h3c .554 0 1 .45 1 1v20c0 .56-.446 1-1 1h-3c-.554 0-1-.44-1-1v-20c0-.55.446-1 1-1zm26 6.95h84.999v9.5h-84.999zm95.999 0h239v9.5h-239zm250 0h85v9.5h-85zm-371.999 20.34h3c .554 0 1 .45 1 1v20c0 .55-.446 1-1 1h-3c-.554 0-1-.45-1-1v-20c0-.55.446-1 1-1zm480.399 0h3c .55 0 1 .45 1 1v20c0 .55-.45 1-1 1h-3c-.55 0-1-.45-1-1v-20c0-.55.45-1 1-1zm-454.399 3.66h84.999v12.5h-84.999zm95.999 0h239v12.5h-239zm250 0h85v12.5h-85z" fill="#e0e0e0" stroke="#000" stroke-linejoin="bevel" stroke-width=".8"/><path id="traverseT5_500-2" d="m2.4002 302c-1.108 0-1.99998.89-1.99998 2v29.5c0 1.11.89198 2 1.99998 2h20.9998c1.108 0 2-.89 2-2v-29.5c0-1.11-.892-2-2-2zm23.3008 0v33.5h448.999v-33.5zm451.299 0c-1.11 0-2 .89-2 2v29.5c0 1.11.89 2 2 2h21c1.11 0 2-.89 2-2v-29.5c0-1.11-.89-2-2-2zm-468.2988 5.75h2.9998c.554 0 1 .45 1 1v20c0 .55-.446 1-1 1h-2.9998c-.554 0-1-.45-1-1v-20c0-.55.446-1 1-1zm480.3988 0h3c .55 0 1 .45 1 1v20c0 .55-.45 1-1 1h-3c-.55 0-1-.45-1-1v-20c0-.55.45-1 1-1zm-454.399 6.25h84.999v9.5h-84.999zm95.999 0h112.5v9.5h-112.5zm126.5 0h112.5v9.5h-112.5zm123.5 0h85v9.5h-85zm-378.2998-187c-1.108 0-1.99998.89-1.99998 2v29.5c0 1.11.89198 2 1.99998 2h20.9998c1.108 0 2-.89 2-2v-29.5c0-1.11-.892-2-2-2zm23.3008 0v33.5h448.999v-33.5zm451.299 0c-1.11 0-2 .89-2 2v29.5c0 1.11.89 2 2 2h21c1.11 0 2-.89 2-2v-29.5c0-1.11-.89-2-2-2zm-468.299 5.75h3c .554 0 1 .45 1 1v20c0 .55-.446 1-1 1h-3c-.554 0-1-.45-1-1v-20c0-.55.446-1 1-1zm480.399 0h3c .55 0 1 .45 1 1v20c0 .55-.45 1-1 1h-3c-.55 0-1-.45-1-1v-20c0-.55.45-1 1-1zm-454.399 6.25h84.999v9.5h-84.999zm95.999 0h112.5v9.5h-112.5zm126.5 0h112.5v9.5h-112.5zm123.5 0h85v9.5h-85z" fill="#e0e0e0" stroke="#000" stroke-linejoin="bevel" stroke-width=".8"/><path id="traverseT5_500" d="m2 100v260h22.5v-260zm67.51 305h361l45-45v-260h-451v260zm406-45h22.49v-260h-22.49zm-465.51-242.25c1.519 0 2.75 1.23 2.75 2.75s-1.231 2.75-2.75 2.75c-1.5188 0-2.75-1.23-2.75-2.75s1.2312-2.75 2.75-2.75zm480 0c1.52 0 2.75 1.23 2.75 2.75s-1.23 2.75-2.75 2.75-2.75-1.23-2.75-2.75 1.23-2.75 2.75-2.75zm-276.49 9.75h73c4.71 0 8.5 3.79 8.5 8.5v133c0 4.71-3.79 8.5-8.5 8.5h-73c-4.71 0-8.5-3.79-8.5-8.5v-133c0-4.71 3.79-8.5 8.5-8.5zm-203.51 215.25c1.519 0 2.75 1.23 2.75 2.75s-1.231 2.75-2.75 2.75c-1.5188 0-2.75-1.23-2.75-2.75s1.2312-2.75 2.75-2.75zm480 0c1.52 0 2.75 1.23 2.75 2.75s-1.23 2.75-2.75 2.75-2.75-1.23-2.75-2.75 1.23-2.75 2.75-2.75z" fill="#e0e0e0" stroke="#000" stroke-linejoin="bevel" stroke-width=".8"/><path id="traverseT4_T5_250" d="m2 100v260h22.5v-260zm22.51 0v260l25 25h151l25-25h-.2v-260zm201 260h22.3v-260h-22.3zm-215.51-242.25a2.75 2.75 0 0 1 2.75 2.75 2.75 2.75 0 0 1 -2.75 2.75 2.75 2.75 0 0 1 -2.75-2.75 2.75 2.75 0 0 1 2.75-2.75zm230 0a2.75 2.75 0 0 1 2.75 2.75 2.75 2.75 0 0 1 -2.75 2.75 2.75 2.75 0 0 1 -2.75-2.75 2.75 2.75 0 0 1 2.75-2.75zm-151.5 9.75h73c4.71 0 8.5 3.79 8.5 8.5v133c0 4.71-3.79 8.5-8.5 8.5h-73c-4.709 0-8.5-3.79-8.5-8.5v-133c0-4.71 3.791-8.5 8.5-8.5zm-78.5 215.25a2.75 2.75 0 0 1 2.75 2.75 2.75 2.75 0 0 1 -2.75 2.75 2.75 2.75 0 0 1 -2.75-2.75 2.75 2.75 0 0 1 2.75-2.75zm230 0a2.75 2.75 0 0 1 2.75 2.75 2.75 2.75 0 0 1 -2.75 2.75 2.75 2.75 0 0 1 -2.75-2.75 2.75 2.75 0 0 1 2.75-2.75z" fill="#e0e0e0" stroke="#000" stroke-linejoin="bevel" stroke-width=".8"/></g></svg>