<svg id="svg2" height="600" viewBox="0 0 500 600" width="500" xmlns="http://www.w3.org/2000/svg"><g id="layer1"><g id="rail_250"><rect id="baseTop" fill="#e0e0e0" fill-rule="evenodd" height="35" stroke="#000" stroke-linecap="square" stroke-width=".99995" width="244" x="3" y="132.6"/><rect id="cutoutTop" fill="#c0c0c0" fill-rule="evenodd" height="24" stroke="#000" stroke-linecap="square" stroke-width="1.00003" width="244" x="3" y="138.1"/></g><g id="mountingKit_250"><rect id="mountingPlate" fill="#c0c0c0" height="346" ry="3.3792" stroke="#000" stroke-linejoin="round" stroke-miterlimit="10" width="187" x="31.5" y="52"/><path id="path3885" d="m219 55.487v39.01h30.6v-39.01zm20.6 4.06c1.66 0 3 1.34 3 3s-1.34 3-3 3-3-1.34-3-3 1.34-3 3-3zm0 25c1.66 0 3 1.33 3 3 0 1.65-1.34 3-3 3s-3-1.35-3-3c0-1.67 1.34-3 3-3z" fill="#c5c7c4" fill-opacity=".8" stroke="#000" stroke-linejoin="bevel" stroke-width=".8"/><path id="path3892" d="m .4 55.517v39h30.6v-39zm10 4c1.66 0 3 1.34 3 3s-1.34 3-3 3-3-1.34-3-3 1.34-3 3-3zm0 25c1.66 0 3 1.35 3 3 0 1.67-1.34 3-3 3s-3-1.33-3-3c0-1.65 1.34-3 3-3z" fill="#c5c7c4" fill-opacity=".8" stroke="#000" stroke-linejoin="bevel" stroke-width=".8"/><path id="path3895" d="m219 355.49v39h30.6v-39zm20.6 4.05c1.66 0 3 1.33 3 3 0 1.66-1.34 3-3 3s-3-1.34-3-3c0-1.67 1.34-3 3-3zm0 25c1.66 0 3 1.33 3 3 0 1.66-1.34 3-3 3s-3-1.34-3-3c0-1.67 1.34-3 3-3z" fill="#c5c7c4" fill-opacity=".8" stroke="#000" stroke-linejoin="bevel" stroke-width=".8"/><path id="path3897" d="m .4 355.51v39h30.6v-39zm10 4c1.66 0 3 1.34 3 3 0 1.67-1.34 3-3 3s-3-1.33-3-3c0-1.66 1.34-3 3-3zm0 25c1.66 0 3 1.34 3 3 0 1.67-1.34 3-3 3s-3-1.33-3-3c0-1.66 1.34-3 3-3z" fill="#c5c7c4" fill-opacity=".8" stroke="#000" stroke-linejoin="bevel" stroke-width=".8"/></g><path id="traverse_250" d="m24.25 85v130h200.75v-130zm178.5 23.25v83.5c.11 1.52-1.92 3.32-3.25 3.25h-149.5c-1.34-.1-3.272-1.93-3.25-3.25v-83.5c-.03-1.12 1.68-3.17 3.25-3.25h149.5c1.08 0 3.23 1.52 3.25 3.25zm43.5-23.25h-21.25v130h21.25l2.5-2v-126zm-6.25 12.25c1.52 0 2.75 1.23 2.75 2.75s-1.23 2.75-2.75 2.75-2.75-1.23-2.75-2.75 1.23-2.75 2.75-2.75zm0 100c1.52 0 2.75 1.23 2.75 2.75s-1.23 2.75-2.75 2.75-2.75-1.23-2.75-2.75 1.23-2.75 2.75-2.75zm-236.25 17.75h20.5v-130h-20.5l-2 2v126zm6.248-117.75c1.519 0 2.75 1.23 2.75 2.75s-1.231 2.75-2.75 2.75c-1.5188 0-2.75-1.23-2.75-2.75s1.2312-2.75 2.75-2.75zm0 100c1.519 0 2.75 1.23 2.75 2.75s-1.231 2.75-2.75 2.75c-1.5188 0-2.75-1.23-2.75-2.75s1.2312-2.75 2.75-2.75z" fill="#e0e0e0" stroke="#000" stroke-linejoin="bevel" stroke-width=".5"/><path id="traverse_500" d="m24 139v172h451v-172zm302 44.25v83.5c.11 1.52-1.92 3.32-3.25 3.25h-219.5c-1.34-.1-3.272-1.93-3.25-3.25v-83.5c-.03-1.12 1.68-3.17 3.25-3.25h219.5c1.08 0 3.23 1.52 3.25 3.25zm170.25-44.25h-21.25v172h21.25l2.5-2v-168zm-7.25 20.75c1.52 0 2.75 1.23 2.75 2.75s-1.23 2.75-2.75 2.75-2.75-1.23-2.75-2.75 1.23-2.75 2.75-2.75zm0 125c1.52 0 2.75 1.23 2.75 2.75s-1.23 2.75-2.75 2.75-2.75-1.23-2.75-2.75 1.23-2.75 2.75-2.75zm-485.5 26.25h20.5v-172h-20.5l-2 2v168zm6.498-151.25c1.519 0 2.75 1.23 2.75 2.75s-1.231 2.75-2.75 2.75c-1.5188 0-2.75-1.23-2.75-2.75s1.2312-2.75 2.75-2.75zm0 125c1.519 0 2.75 1.23 2.75 2.75s-1.231 2.75-2.75 2.75c-1.5188 0-2.75-1.23-2.75-2.75s1.2312-2.75 2.75-2.75z" fill="#e0e0e0" stroke="#000" stroke-linejoin="bevel" stroke-width=".5"/><path id="traverse_800" d="m4.79 328.4c-2.1 0-3.79 1.69-3.79 3.78v55.79c0 2.09 1.69 3.78 3.79 3.78h17.43c2.1 0 3.79-1.69 3.79-3.78v-55.79c0-2.09-1.69-3.78-3.79-3.78zm472.99 0c-2.09 0-3.78 1.69-3.78 3.78v55.79c0 2.09 1.69 3.78 3.78 3.78h17.44c2.09 0 3.78-1.69 3.78-3.78v-55.79c0-2.09-1.69-3.78-3.78-3.78zm-451.47 3.93v55.5h447.39v-55.5zm462.59 3.1h3c .55 0 1 .45 1 1v20c0 .56-.45 1-1 1h-3c-.55 0-1-.44-1-1v-20c0-.55.45-1 1-1zm-480.39 0h3c .55 0 1 .45 1 1v20c0 .56-.45 1-1 1h-3c-.56 0-1-.44-1-1v-20c0-.55.44-1 1-1zm26 6.95h84.99v9.5h-84.99zm95.99 0h239v9.5h-239zm250 0h85v9.5h-85zm-371.99 20.34h3c .55 0 1 .45 1 1v20c0 .55-.45 1-1 1h-3c-.56 0-1-.45-1-1v-20c0-.55.44-1 1-1zm480.39 0h3c .55 0 1 .45 1 1v20c0 .55-.45 1-1 1h-3c-.55 0-1-.45-1-1v-20c0-.55.45-1 1-1zm-454.39 3.66h84.99v12.5h-84.99zm95.99 0h239v12.5h-239zm250 0h85v12.5h-85zm-375.72-187.93c-2.09 0-3.78 1.69-3.78 3.78v55.79c0 2.09 1.69 3.78 3.78 3.78h17.44c2.09 0 3.78-1.69 3.78-3.78v-55.79c0-2.09-1.69-3.78-3.78-3.78zm473 0c-2.09 0-3.78 1.69-3.78 3.78v55.79c0 2.09 1.69 3.78 3.78 3.78h17.44c2.09 0 3.78-1.69 3.78-3.78v-55.79c0-2.09-1.69-3.78-3.78-3.78zm-451.48 3.93v55.5h447.4v-55.5zm462.6 3.1h3c .55 0 1 .45 1 1v20c0 .56-.45 1-1 1h-3c-.55 0-1-.44-1-1v-20c0-.55.45-1 1-1zm-480.4 0h3c .55 0 1 .45 1 1v20c0 .56-.45 1-1 1h-3c-.55 0-1-.44-1-1v-20c0-.55.45-1 1-1zm26 6.95h85v9.5h-85zm96 0h239v9.5h-239zm250 0h85v9.5h-85zm-372 20.34h3c .55 0 1 .45 1 1v20c0 .55-.45 1-1 1h-3c-.55 0-1-.45-1-1v-20c0-.55.45-1 1-1zm480.4 0h3c .55 0 1 .45 1 1v20c0 .55-.45 1-1 1h-3c-.55 0-1-.45-1-1v-20c0-.55.45-1 1-1zm-454.4 3.66h85v12.5h-85zm96 0h239v12.5h-239zm250 0h85v12.5h-85z" fill="#e0e0e0" stroke="#000" stroke-linejoin="bevel" stroke-width=".8"/></g></svg>