<svg id="svg2" height="300" viewBox="0 0 750 300" width="750" xmlns="http://www.w3.org/2000/svg"><g id="layer1"><rect id="traverseTop" fill="#c0c0c0" height="22" stroke="#000" stroke-linecap="square" width="702" x="24" y="27"/><rect id="traverseBottom" fill="#c0c0c0" height="22" stroke="#000" stroke-linecap="square" width="702" x="24" y="252"/><g id="traverseCenter"><rect id="rect5210" fill="#c0c0c0" height="240" stroke="#000" stroke-linecap="round" stroke-width=".5" width="16" x="387" y="30"/><circle id="circle4174-6" cx="395" cy="37.5" fill="#fff" fill-rule="evenodd" r="3.5" stroke="#000" stroke-linecap="square"/><line id="line4176-2" stroke="#000" x1="395" x2="395" y1="35.5" y2="39.5"/><line id="line4182-8" stroke="#000" x1="397" x2="393" y1="37.5" y2="37.5"/><circle id="circle5242" cx="395" cy="262.5" fill="#fff" fill-rule="evenodd" r="3.5" stroke="#000" stroke-linecap="square"/><line id="line5244" stroke="#000" x1="395" x2="395" y1="260.5" y2="264.5"/><line id="line5246" stroke="#000" x1="397" x2="393" y1="262.5" y2="262.5"/></g><g id="busbars"><rect id="L1" fill="#c6782e" height="30" stroke="#000" stroke-linecap="round" stroke-opacity=".27451" stroke-width=".5" width="749.5" x=".25" y="75"/><rect id="L2" fill="#c6782e" height="30" stroke="#000" stroke-linecap="round" stroke-opacity=".27451" stroke-width=".5" width="749.5" x=".25" y="135"/><rect id="L3" fill="#c6782e" height="30" stroke="#000" stroke-linecap="round" stroke-opacity=".27451" stroke-width=".5" width="749.5" x=".25" y="195"/></g><g id="holderLeft"><rect id="rect5283" fill="#c0c0c0" height="178" ry="3.3792" stroke="#000" stroke-linejoin="round" stroke-miterlimit="10" width="15" x="2.5" y="61"/><circle id="circle5291" cx="10" cy="67.35" fill="#fff" r="4" stroke="#000" stroke-linejoin="bevel" stroke-miterlimit="10" stroke-width=".99998"/><line id="line5293" stroke="#000" x1="10" x2="10" y1="64.35" y2="70.35"/><line id="line5295" stroke="#000" x1="13" x2="7" y1="67.35" y2="67.35"/><circle id="circle1044" cx="10" cy="232.65" fill="#fff" r="4" stroke="#000" stroke-linejoin="bevel" stroke-miterlimit="10" stroke-width=".99998"/><line id="line1046" stroke="#000" x1="10" x2="10" y1="229.65" y2="235.65"/><line id="line1049" stroke="#000" x1="13" x2="7" y1="232.65" y2="232.65"/><circle id="circle1071" cx="10" cy="112.5" fill="#fff" r="4" stroke="#000" stroke-linejoin="bevel" stroke-miterlimit="10" stroke-width=".99998"/><line id="line1073" stroke="#000" x1="10" x2="10" y1="109.5" y2="115.5"/><line id="line1075" stroke="#000" x1="13" x2="7" y1="112.5" y2="112.5"/><circle id="circle1079" cx="10" cy="187.5" fill="#fff" r="4" stroke="#000" stroke-linejoin="bevel" stroke-miterlimit="10" stroke-width=".99998"/><line id="line1081" stroke="#000" x1="10" x2="10" y1="184.5" y2="190.5"/><line id="line1083" stroke="#000" x1="13" x2="7" y1="187.5" y2="187.5"/></g><g id="holderCenter"><rect id="rect1132" fill="#c0c0c0" height="178" ry="3.3792" stroke="#000" stroke-linejoin="round" stroke-miterlimit="10" width="15" x="387.5" y="61"/><circle id="circle1134" cx="395" cy="67.35" fill="#fff" r="4" stroke="#000" stroke-linejoin="bevel" stroke-miterlimit="10" stroke-width=".99998"/><line id="line1136" stroke="#000" x1="395" x2="395" y1="64.35" y2="70.35"/><line id="line1138" stroke="#000" x1="398" x2="392" y1="67.35" y2="67.35"/><circle id="circle1140" cx="395" cy="232.65" fill="#fff" r="4" stroke="#000" stroke-linejoin="bevel" stroke-miterlimit="10" stroke-width=".99998"/><line id="line1142" stroke="#000" x1="395" x2="395" y1="229.65" y2="235.65"/><line id="line1144" stroke="#000" x1="398" x2="392" y1="232.65" y2="232.65"/><circle id="circle1146" cx="395" cy="112.5" fill="#fff" r="4" stroke="#000" stroke-linejoin="bevel" stroke-miterlimit="10" stroke-width=".99998"/><line id="line1148" stroke="#000" x1="395" x2="395" y1="109.5" y2="115.5"/><line id="line1150" stroke="#000" x1="398" x2="392" y1="112.5" y2="112.5"/><circle id="circle1152" cx="395" cy="187.5" fill="#fff" r="4" stroke="#000" stroke-linejoin="bevel" stroke-miterlimit="10" stroke-width=".99998"/><line id="line1154" stroke="#000" x1="395" x2="395" y1="184.5" y2="190.5"/><line id="line1156" stroke="#000" x1="398" x2="392" y1="187.5" y2="187.5"/></g><g id="holderRight"><rect id="rect1160" fill="#c0c0c0" height="178" ry="3.3792" stroke="#000" stroke-linejoin="round" stroke-miterlimit="10" width="15" x="732.5" y="61"/><circle id="circle1162" cx="740" cy="67.35" fill="#fff" r="4" stroke="#000" stroke-linejoin="bevel" stroke-miterlimit="10" stroke-width=".99998"/><line id="line1164" stroke="#000" x1="740" x2="740" y1="64.35" y2="70.35"/><line id="line1166" stroke="#000" x1="743" x2="737" y1="67.35" y2="67.35"/><circle id="circle1168" cx="740" cy="232.65" fill="#fff" r="4" stroke="#000" stroke-linejoin="bevel" stroke-miterlimit="10" stroke-width=".99998"/><line id="line1170" stroke="#000" x1="740" x2="740" y1="229.65" y2="235.65"/><line id="line1172" stroke="#000" x1="743" x2="737" y1="232.65" y2="232.65"/><circle id="circle1174" cx="740" cy="112.5" fill="#fff" r="4" stroke="#000" stroke-linejoin="bevel" stroke-miterlimit="10" stroke-width=".99998"/><line id="line1176" stroke="#000" x1="740" x2="740" y1="109.5" y2="115.5"/><line id="line1178" stroke="#000" x1="743" x2="737" y1="112.5" y2="112.5"/><circle id="circle1180" cx="740" cy="187.5" fill="#fff" r="4" stroke="#000" stroke-linejoin="bevel" stroke-miterlimit="10" stroke-width=".99998"/><line id="line1182" stroke="#000" x1="740" x2="740" y1="184.5" y2="190.5"/><line id="line1184" stroke="#000" x1="743" x2="737" y1="187.5" y2="187.5"/></g></g></svg>