<svg id="svg2" height="450" viewBox="0 0 250 450" width="250" xmlns="http://www.w3.org/2000/svg"><g id="layer1"><path id="mountingPlate" d="m246 256.5v-188l-2.5-2.5h-14.5v193h14.5zm-6-183.75c1.24 0 2.25 1.01 2.25 2.25s-1.01 2.25-2.25 2.25-2.25-1.01-2.25-2.25 1.01-2.25 2.25-2.25zm0 12.5c1.24 0 2.25 1.01 2.25 2.25s-1.01 2.25-2.25 2.25-2.25-1.01-2.25-2.25 1.01-2.25 2.25-2.25zm0 150c1.24 0 2.25 1.01 2.25 2.25s-1.01 2.25-2.25 2.25-2.25-1.01-2.25-2.25 1.01-2.25 2.25-2.25zm0 12.5c1.24 0 2.25 1.01 2.25 2.25s-1.01 2.25-2.25 2.25-2.25-1.01-2.25-2.25 1.01-2.25 2.25-2.25zm-233.5 11.25h14.5v-193h-14.5l-2.5 2.5v188zm3.5-186.25c1.243 0 2.25 1.01 2.25 2.25s-1.007 2.25-2.25 2.25c-1.2426 0-2.25-1.01-2.25-2.25s1.0074-2.25 2.25-2.25zm0 12.5c1.243 0 2.25 1.01 2.25 2.25s-1.007 2.25-2.25 2.25c-1.2426 0-2.25-1.01-2.25-2.25s1.0074-2.25 2.25-2.25zm0 150c1.243 0 2.25 1.01 2.25 2.25s-1.007 2.25-2.25 2.25c-1.2426 0-2.25-1.01-2.25-2.25s1.0074-2.25 2.25-2.25zm0 12.5c1.243 0 2.25 1.01 2.25 2.25s-1.007 2.25-2.25 2.25c-1.2426 0-2.25-1.01-2.25-2.25s1.0074-2.25 2.25-2.25zm11-202.75v235h208v-235zm8.002 15.5h91.998v92h-91.998zm99.998 0h92v92h-92zm-100.002 112h92.002v92h-92.002zm100.002 0h92v92h-92z" fill="#c5c7c4" fill-opacity=".8" stroke="#000" stroke-linejoin="bevel" stroke-width=".99997"/><g id="rail_450"><rect id="rect4595" fill="#e0e0e0" fill-rule="evenodd" height="35" stroke="#000" stroke-linecap="square" width="248" x="1" y="332.5"/><rect id="rect4597" fill="#c0c0c0" fill-rule="evenodd" height="29" stroke="#000" stroke-linecap="square" width="248" x="1" y="335.5"/></g></g></svg>