<svg id="svg2" enable-background="new 0 0 500 450" height="450" viewBox="0 0 500 450" width="500" xmlns="http://www.w3.org/2000/svg"><g id="layer1"><g id="mbbModule250"><rect id="traverseTop_250" fill="#c0c0c0" height="19" stroke="#000" stroke-linejoin="round" stroke-miterlimit="10" width="243" x="4" y="55.5"/><rect id="traverseBottom_250" fill="#c0c0c0" height="19" stroke="#000" stroke-linejoin="round" stroke-miterlimit="10" width="243" x="4" y="225.5"/><g id="L1_250"><path id="ellipse5374" d="m45.522 273.69a4.1399 4.8425 0 0 1 -4.14 4.84 4.1399 4.8425 0 0 1 -4.14-4.84 4.1399 4.8425 0 0 1 4.14-4.84 4.1399 4.8425 0 0 1 4.14 4.84zm0-236.004a4.1399 4.8425 0 0 1 -4.14 4.843 4.1399 4.8425 0 0 1 -4.14-4.843 4.1399 4.8425 0 0 1 4.14-4.842 4.1399 4.8425 0 0 1 4.14 4.842zm-22.522-12.186h4v259h-4zm4 0h29v259h-29z" fill="#c6782e" stroke="#000" stroke-linejoin="bevel" stroke-miterlimit="10" stroke-width="1.00002"/><ellipse id="ellipse5376" cx="40.533" cy="273.75" fill="#fff" rx="3.2972" ry="4.2504" stroke="#000" stroke-linejoin="bevel" stroke-miterlimit="10" stroke-width=".99999"/><path id="path4990" d="m22.75 67a3.75 3.75 0 0 1 -3.75 3.75 3.75 3.75 0 0 1 -3.75-3.75 3.75 3.75 0 0 1 3.75-3.75 3.75 3.75 0 0 1 3.75 3.75zm35 0a3.75 3.75 0 0 1 -3.75 3.75 3.75 3.75 0 0 1 -3.75-3.75 3.75 3.75 0 0 1 3.75-3.75 3.75 3.75 0 0 1 3.75 3.75zm-27.75-7.5h38v15h-38zm-19 0h57v15h-57z" fill="#c5c7c4" stroke="#000" stroke-linejoin="round" stroke-miterlimit="10"/><path id="path5052" d="m22.75 233.5a3.75 3.75 0 0 1 -3.75 3.75 3.75 3.75 0 0 1 -3.75-3.75 3.75 3.75 0 0 1 3.75-3.75 3.75 3.75 0 0 1 3.75 3.75zm35 0a3.75 3.75 0 0 1 -3.75 3.75 3.75 3.75 0 0 1 -3.75-3.75 3.75 3.75 0 0 1 3.75-3.75 3.75 3.75 0 0 1 3.75 3.75zm-27.75-7.5h38v15h-38zm-19 0h57v15h-57z" fill="#c5c7c4" stroke="#000" stroke-linejoin="round" stroke-miterlimit="10"/><path id="bolt1_250" d="m50.05 37.773a6.2501 7.8468 0 0 1 -6.25 7.847 6.2501 7.8468 0 0 1 -6.25-7.847 6.2501 7.8468 0 0 1 6.25-7.847 6.2501 7.8468 0 0 1 6.25 7.847zm-14.55 0 4.82-8.357h6.8l4.18 8.177-4.18 8.558h-6.8zm-2.1-.01h2.28v.109h-2.22zm-.4 0 4.81-8.36h9.06l4.28 8.365-4.28 8.375h-9.06zm19.84-.001a11.052 11.906 0 0 1 -11.03 11.896 11.052 11.906 0 0 1 -11.06-11.906 11.052 11.906 0 0 1 11.06-11.906 11.052 11.906 0 0 1 11.05 11.906z" fill="#ccc" stroke="#000" stroke-linejoin="bevel" stroke-miterlimit="10" stroke-width=".79998"/></g><g id="L2_250"><path id="path5064" d="m104.52 273.69a4.1399 4.8425 0 0 1 -4.14 4.84 4.1399 4.8425 0 0 1 -4.138-4.84 4.1399 4.8425 0 0 1 4.138-4.84 4.1399 4.8425 0 0 1 4.14 4.84zm0-236.004a4.1399 4.8425 0 0 1 -4.14 4.843 4.1399 4.8425 0 0 1 -4.138-4.843 4.1399 4.8425 0 0 1 4.138-4.842 4.1399 4.8425 0 0 1 4.14 4.842zm-22.52-12.186h4v259h-4zm4 0h29v259h-29z" fill="#c6782e" stroke="#000" stroke-linejoin="bevel" stroke-miterlimit="10" stroke-width="1.00002"/><ellipse id="ellipse5068" cx="99.533" cy="273.75" fill="#fff" rx="3.2972" ry="4.2504" stroke="#000" stroke-linejoin="bevel" stroke-miterlimit="10" stroke-width=".99999"/><path id="path5070" d="m81.75 67a3.75 3.75 0 0 1 -3.75 3.75 3.75 3.75 0 0 1 -3.75-3.75 3.75 3.75 0 0 1 3.75-3.75 3.75 3.75 0 0 1 3.75 3.75zm35 0a3.75 3.75 0 0 1 -3.75 3.75 3.75 3.75 0 0 1 -3.75-3.75 3.75 3.75 0 0 1 3.75-3.75 3.75 3.75 0 0 1 3.75 3.75zm-27.75-7.5h38v15h-38zm-19 0h57v15h-57z" fill="#c5c7c4" stroke="#000" stroke-linejoin="round" stroke-miterlimit="10"/><path id="path5072" d="m81.75 233.5a3.75 3.75 0 0 1 -3.75 3.75 3.75 3.75 0 0 1 -3.75-3.75 3.75 3.75 0 0 1 3.75-3.75 3.75 3.75 0 0 1 3.75 3.75zm35 0a3.75 3.75 0 0 1 -3.75 3.75 3.75 3.75 0 0 1 -3.75-3.75 3.75 3.75 0 0 1 3.75-3.75 3.75 3.75 0 0 1 3.75 3.75zm-27.75-7.5h38v15h-38zm-19 0h57v15h-57z" fill="#c5c7c4" stroke="#000" stroke-linejoin="round" stroke-miterlimit="10"/><path id="bolt2_250" d="m109.05 37.773a6.2501 7.8468 0 0 1 -6.25 7.847 6.2501 7.8468 0 0 1 -6.25-7.847 6.2501 7.8468 0 0 1 6.25-7.847 6.2501 7.8468 0 0 1 6.25 7.847zm-14.55 0 4.82-8.357h6.8l4.18 8.177-4.18 8.558h-6.8zm-2.1-.01h2.28v.109h-2.22zm-.4 0 4.81-8.36h9.06l4.28 8.365-4.28 8.375h-9.06zm19.84-.001a11.052 11.906 0 0 1 -11.03 11.896 11.052 11.906 0 0 1 -11.06-11.906 11.052 11.906 0 0 1 11.06-11.906 11.052 11.906 0 0 1 11.05 11.906z" fill="#ccc" stroke="#000" stroke-linejoin="bevel" stroke-miterlimit="10" stroke-width=".79998"/></g><g id="L3_250"><path id="path5076" d="m163.52 273.69a4.1399 4.8425 0 0 1 -4.14 4.84 4.1399 4.8425 0 0 1 -4.14-4.84 4.1399 4.8425 0 0 1 4.14-4.84 4.1399 4.8425 0 0 1 4.14 4.84zm0-236.004a4.1399 4.8425 0 0 1 -4.14 4.843 4.1399 4.8425 0 0 1 -4.14-4.843 4.1399 4.8425 0 0 1 4.14-4.842 4.1399 4.8425 0 0 1 4.14 4.842zm-22.52-12.186h4v259h-4zm4 0h29v259h-29z" fill="#c6782e" stroke="#000" stroke-linejoin="bevel" stroke-miterlimit="10" stroke-width="1.00002"/><ellipse id="ellipse5080" cx="158.53" cy="273.75" fill="#fff" rx="3.2972" ry="4.2504" stroke="#000" stroke-linejoin="bevel" stroke-miterlimit="10" stroke-width=".99999"/><path id="path5082" d="m140.75 67a3.75 3.75 0 0 1 -3.75 3.75 3.75 3.75 0 0 1 -3.75-3.75 3.75 3.75 0 0 1 3.75-3.75 3.75 3.75 0 0 1 3.75 3.75zm35 0a3.75 3.75 0 0 1 -3.75 3.75 3.75 3.75 0 0 1 -3.75-3.75 3.75 3.75 0 0 1 3.75-3.75 3.75 3.75 0 0 1 3.75 3.75zm-27.75-7.5h38v15h-38zm-19 0h57v15h-57z" fill="#c5c7c4" stroke="#000" stroke-linejoin="round" stroke-miterlimit="10"/><path id="path5084" d="m140.75 233.5a3.75 3.75 0 0 1 -3.75 3.75 3.75 3.75 0 0 1 -3.75-3.75 3.75 3.75 0 0 1 3.75-3.75 3.75 3.75 0 0 1 3.75 3.75zm35 0a3.75 3.75 0 0 1 -3.75 3.75 3.75 3.75 0 0 1 -3.75-3.75 3.75 3.75 0 0 1 3.75-3.75 3.75 3.75 0 0 1 3.75 3.75zm-27.75-7.5h38v15h-38zm-19 0h57v15h-57z" fill="#c5c7c4" stroke="#000" stroke-linejoin="round" stroke-miterlimit="10"/><path id="bolt3_250" d="m168.05 37.773a6.2501 7.8468 0 0 1 -6.25 7.847 6.2501 7.8468 0 0 1 -6.25-7.847 6.2501 7.8468 0 0 1 6.25-7.847 6.2501 7.8468 0 0 1 6.25 7.847zm-14.55 0 4.82-8.357h6.8l4.18 8.177-4.18 8.558h-6.8zm-2.1-.01h2.28v.109h-2.22zm-.4 0 4.81-8.36h9.06l4.28 8.365-4.28 8.375h-9.06zm19.84-.001a11.052 11.906 0 0 1 -11.03 11.896 11.052 11.906 0 0 1 -11.06-11.906 11.052 11.906 0 0 1 11.06-11.906 11.052 11.906 0 0 1 11.05 11.906z" fill="#ccc" stroke="#000" stroke-linejoin="bevel" stroke-miterlimit="10" stroke-width=".79998"/></g><g id="L4_250"><path id="path5428" d="m201.9 25.5v259h29v-259zm14.74 7.504a4.4998 4.5 0 0 1 4.5 4.5 4.4998 4.5 0 0 1 -4.5 4.5 4.4998 4.5 0 0 1 -4.5-4.5 4.4998 4.5 0 0 1 4.5-4.5zm0 235.746a4.4998 4.5 0 0 1 4.5 4.5 4.4998 4.5 0 0 1 -4.5 4.5 4.4998 4.5 0 0 1 -4.5-4.5 4.4998 4.5 0 0 1 4.5-4.5z" fill="#c6782e" stroke="#000" stroke-linecap="square" stroke-linejoin="round"/><path id="path4987" d="m241.9 233a3 3.75 0 0 1 -3 3.75 3 3.75 0 0 1 -3-3.75 3 3.75 0 0 1 3-3.75 3 3.75 0 0 1 3 3.75zm-27.53 0a3 3.75 0 0 1 -3 3.75 3 3.75 0 0 1 -3-3.75 3 3.75 0 0 1 3-3.75 3 3.75 0 0 1 3 3.75zm-26.47-7.5h45.29v15h-45.29zm0 0h57v15h-57z" fill="#c5c7c4" stroke="#000" stroke-linejoin="round" stroke-miterlimit="10"/><path id="path5121" d="m241.9 67a3 3.75 0 0 1 -3 3.75 3 3.75 0 0 1 -3-3.75 3 3.75 0 0 1 3-3.75 3 3.75 0 0 1 3 3.75zm-27.53 0a3 3.75 0 0 1 -3 3.75 3 3.75 0 0 1 -3-3.75 3 3.75 0 0 1 3-3.75 3 3.75 0 0 1 3 3.75zm-26.47-7.5h45.29v15h-45.29zm0 0h57v15h-57z" fill="#c5c7c4" stroke="#000" stroke-linejoin="round" stroke-miterlimit="10"/><path id="bolt4_250" d="m206.79 37.752 5.08-8.36h9l5.13 8.18-5.13 8.56h-9zm21.11 0a11.5 11.5 0 0 1 -11.5 11.5 11.5 11.5 0 0 1 -11.5-11.5 11.5 11.5 0 0 1 11.5-11.5 11.5 11.5 0 0 1 11.5 11.5z" fill="#ccc" stroke="#000" stroke-width=".9999"/></g></g><g id="mbbModule500"><rect id="traverseTop_500" fill="#c0c0c0" height="19" stroke="#000" stroke-linejoin="round" stroke-miterlimit="10" width="492" x="4" y="55.5"/><rect id="traverseBottom_500" fill="#c0c0c0" height="19" stroke="#000" stroke-linejoin="round" stroke-miterlimit="10" width="492" x="4" y="375.5"/><g id="L1_500"><path id="copper1" d="m45.522 423.69a4.1399 4.8425 0 0 1 -4.14 4.84 4.1399 4.8425 0 0 1 -4.14-4.84 4.1399 4.8425 0 0 1 4.14-4.84 4.1399 4.8425 0 0 1 4.14 4.84zm0-386.004a4.1399 4.8425 0 0 1 -4.14 4.843 4.1399 4.8425 0 0 1 -4.14-4.843 4.1399 4.8425 0 0 1 4.14-4.842 4.1399 4.8425 0 0 1 4.14 4.842zm-22.522-12.186h4v410h-4zm4 0h29v410h-29z" fill="#c6782e" stroke="#000" stroke-linejoin="bevel" stroke-miterlimit="10" stroke-width="1.00002"/><ellipse id="ellipse4766" cx="40.533" cy="423.75" fill="#fff" rx="3.2972" ry="4.2504" stroke="#000" stroke-linejoin="bevel" stroke-miterlimit="10" stroke-width=".99999"/><path id="circle4750" d="m22.75 67a3.75 3.75 0 0 1 -3.75 3.75 3.75 3.75 0 0 1 -3.75-3.75 3.75 3.75 0 0 1 3.75-3.75 3.75 3.75 0 0 1 3.75 3.75zm35 0a3.75 3.75 0 0 1 -3.75 3.75 3.75 3.75 0 0 1 -3.75-3.75 3.75 3.75 0 0 1 3.75-3.75 3.75 3.75 0 0 1 3.75 3.75zm-27.752-7.5h38.003v15h-38.003zm-18.999 0h57.002v15h-57.002z" fill="#c5c7c4" stroke="#000" stroke-linejoin="round" stroke-miterlimit="10"/><path id="path4807" d="m22.75 383a3.75 3.75 0 0 1 -3.75 3.75 3.75 3.75 0 0 1 -3.75-3.75 3.75 3.75 0 0 1 3.75-3.75 3.75 3.75 0 0 1 3.75 3.75zm35 0a3.75 3.75 0 0 1 -3.75 3.75 3.75 3.75 0 0 1 -3.75-3.75 3.75 3.75 0 0 1 3.75-3.75 3.75 3.75 0 0 1 3.75 3.75zm-27.752-7.5h38.003v15h-38.003zm-18.999 0h57.002v15h-57.002z" fill="#c5c7c4" stroke="#000" stroke-linejoin="round" stroke-miterlimit="10"/><path id="bolt1_500" d="m50.25 37.773a6.2501 7.8468 0 0 1 -6.25 7.847 6.2501 7.8468 0 0 1 -6.25-7.847 6.2501 7.8468 0 0 1 6.25-7.847 6.2501 7.8468 0 0 1 6.25 7.847zm-14.55 0 4.83-8.357h6.79l4.18 8.177-4.18 8.558h-6.79zm-2.09-.01h2.28v.109h-2.23zm-.41 0 4.81-8.36h9.06l4.28 8.365-4.28 8.375h-9.06zm19.84-.001a11.052 11.906 0 0 1 -11.03 11.896 11.052 11.906 0 0 1 -11.06-11.906 11.052 11.906 0 0 1 11.06-11.906 11.052 11.906 0 0 1 11.05 11.906z" fill="#ccc" stroke="#000" stroke-linejoin="bevel" stroke-miterlimit="10" stroke-width=".79998"/></g><g id="L2_500"><path id="path4866" d="m187.82 423.69a4.1399 4.8425 0 0 1 -4.14 4.84 4.1399 4.8425 0 0 1 -4.14-4.84 4.1399 4.8425 0 0 1 4.14-4.84 4.1399 4.8425 0 0 1 4.14 4.84zm0-386.004a4.1399 4.8425 0 0 1 -4.14 4.843 4.1399 4.8425 0 0 1 -4.14-4.843 4.1399 4.8425 0 0 1 4.14-4.842 4.1399 4.8425 0 0 1 4.14 4.842zm-22.52-12.186h4v410h-4zm4 0h29v410h-29z" fill="#c6782e" stroke="#000" stroke-linejoin="bevel" stroke-miterlimit="10" stroke-width="1.00002"/><ellipse id="ellipse4870" cx="182.83" cy="423.75" fill="#fff" rx="3.2972" ry="4.2504" stroke="#000" stroke-linejoin="bevel" stroke-miterlimit="10" stroke-width=".99999"/><path id="path4872" d="m165.05 67a3.75 3.75 0 0 1 -3.75 3.75 3.75 3.75 0 0 1 -3.75-3.75 3.75 3.75 0 0 1 3.75-3.75 3.75 3.75 0 0 1 3.75 3.75zm35 0a3.75 3.75 0 0 1 -3.75 3.75 3.75 3.75 0 0 1 -3.75-3.75 3.75 3.75 0 0 1 3.75-3.75 3.75 3.75 0 0 1 3.75 3.75zm-27.75-7.5h38v15h-38zm-19 0h57v15h-57z" fill="#c5c7c4" stroke="#000" stroke-linejoin="round" stroke-miterlimit="10"/><path id="path4874" d="m165.05 383a3.75 3.75 0 0 1 -3.75 3.75 3.75 3.75 0 0 1 -3.75-3.75 3.75 3.75 0 0 1 3.75-3.75 3.75 3.75 0 0 1 3.75 3.75zm35 0a3.75 3.75 0 0 1 -3.75 3.75 3.75 3.75 0 0 1 -3.75-3.75 3.75 3.75 0 0 1 3.75-3.75 3.75 3.75 0 0 1 3.75 3.75zm-27.75-7.5h38v15h-38zm-19 0h57v15h-57z" fill="#c5c7c4" stroke="#000" stroke-linejoin="round" stroke-miterlimit="10"/><path id="bolt2_500" d="m192.55 37.773a6.2501 7.8468 0 0 1 -6.25 7.847 6.2501 7.8468 0 0 1 -6.25-7.847 6.2501 7.8468 0 0 1 6.25-7.847 6.2501 7.8468 0 0 1 6.25 7.847zm-14.55 0 4.83-8.357h6.79l4.18 8.177-4.18 8.558h-6.79zm-2.09-.01h2.28v.109h-2.23zm-.41 0 4.81-8.36h9.06l4.28 8.365-4.28 8.375h-9.06zm19.84-.001a11.052 11.906 0 0 1 -11.03 11.896 11.052 11.906 0 0 1 -11.06-11.906 11.052 11.906 0 0 1 11.06-11.906 11.052 11.906 0 0 1 11.05 11.906z" fill="#ccc" stroke="#000" stroke-linejoin="bevel" stroke-miterlimit="10" stroke-width=".79998"/></g><g id="L3_500"><path id="path4878" d="m330.12 423.69a4.1399 4.8425 0 0 1 -4.14 4.84 4.1399 4.8425 0 0 1 -4.14-4.84 4.1399 4.8425 0 0 1 4.14-4.84 4.1399 4.8425 0 0 1 4.14 4.84zm0-386.004a4.1399 4.8425 0 0 1 -4.14 4.843 4.1399 4.8425 0 0 1 -4.14-4.843 4.1399 4.8425 0 0 1 4.14-4.842 4.1399 4.8425 0 0 1 4.14 4.842zm-22.52-12.186h4v410h-4zm4 0h29v410h-29z" fill="#c6782e" stroke="#000" stroke-linejoin="bevel" stroke-miterlimit="10" stroke-width="1.00002"/><ellipse id="ellipse4882" cx="325.13" cy="423.75" fill="#fff" rx="3.2972" ry="4.2504" stroke="#000" stroke-linejoin="bevel" stroke-miterlimit="10" stroke-width=".99999"/><path id="path4884" d="m307.35 67a3.75 3.75 0 0 1 -3.75 3.75 3.75 3.75 0 0 1 -3.75-3.75 3.75 3.75 0 0 1 3.75-3.75 3.75 3.75 0 0 1 3.75 3.75zm35 0a3.75 3.75 0 0 1 -3.75 3.75 3.75 3.75 0 0 1 -3.75-3.75 3.75 3.75 0 0 1 3.75-3.75 3.75 3.75 0 0 1 3.75 3.75zm-27.75-7.5h38v15h-38zm-19 0h57v15h-57z" fill="#c5c7c4" stroke="#000" stroke-linejoin="round" stroke-miterlimit="10"/><path id="path4886" d="m307.35 383a3.75 3.75 0 0 1 -3.75 3.75 3.75 3.75 0 0 1 -3.75-3.75 3.75 3.75 0 0 1 3.75-3.75 3.75 3.75 0 0 1 3.75 3.75zm35 0a3.75 3.75 0 0 1 -3.75 3.75 3.75 3.75 0 0 1 -3.75-3.75 3.75 3.75 0 0 1 3.75-3.75 3.75 3.75 0 0 1 3.75 3.75zm-27.75-7.5h38v15h-38zm-19 0h57v15h-57z" fill="#c5c7c4" stroke="#000" stroke-linejoin="round" stroke-miterlimit="10"/><path id="bolt3_500" d="m334.85 37.773a6.2501 7.8468 0 0 1 -6.25 7.847 6.2501 7.8468 0 0 1 -6.25-7.847 6.2501 7.8468 0 0 1 6.25-7.847 6.2501 7.8468 0 0 1 6.25 7.847zm-14.55 0 4.83-8.357h6.79l4.18 8.177-4.18 8.558h-6.79zm-2.09-.01h2.28v.109h-2.23zm-.41 0 4.81-8.36h9.06l4.28 8.365-4.28 8.375h-9.06zm19.84-.001a11.052 11.906 0 0 1 -11.03 11.896 11.052 11.906 0 0 1 -11.06-11.906 11.052 11.906 0 0 1 11.06-11.906 11.052 11.906 0 0 1 11.05 11.906z" fill="#ccc" stroke="#000" stroke-linejoin="bevel" stroke-miterlimit="10" stroke-width=".79998"/></g><g id="L4_500"><path id="copperN" d="m447.9 25.5v410h29v-410zm14.74 7.504a4.4998 4.5 0 0 1 4.5 4.5 4.4998 4.5 0 0 1 -4.5 4.5 4.4998 4.5 0 0 1 -4.5-4.5 4.4998 4.5 0 0 1 4.5-4.5zm0 385.746a4.4998 4.5 0 0 1 4.5 4.5 4.4998 4.5 0 0 1 -4.5 4.5 4.4998 4.5 0 0 1 -4.5-4.5 4.4998 4.5 0 0 1 4.5-4.5z" fill="#c6782e" stroke="#000" stroke-linecap="square" stroke-linejoin="round"/><path id="ellipse4899" d="m487.9 67a3 3.75 0 0 1 -3 3.75 3 3.75 0 0 1 -3-3.75 3 3.75 0 0 1 3-3.75 3 3.75 0 0 1 3 3.75zm-27.53 0a3 3.75 0 0 1 -3 3.75 3 3.75 0 0 1 -3-3.75 3 3.75 0 0 1 3-3.75 3 3.75 0 0 1 3 3.75zm-26.47-7.5h45.29v15h-45.29zm0 0h57v15h-57z" fill="#c5c7c4" stroke="#000" stroke-linejoin="round" stroke-miterlimit="10"/><path id="path4913" d="m487.9 383a3 3.75 0 0 1 -3 3.75 3 3.75 0 0 1 -3-3.75 3 3.75 0 0 1 3-3.75 3 3.75 0 0 1 3 3.75zm-27.53 0a3 3.75 0 0 1 -3 3.75 3 3.75 0 0 1 -3-3.75 3 3.75 0 0 1 3-3.75 3 3.75 0 0 1 3 3.75zm-26.47-7.5h45.29v15h-45.29zm0 0h57v15h-57z" fill="#c5c7c4" stroke="#000" stroke-linejoin="round" stroke-miterlimit="10"/><path id="bolt4_500" d="m452.79 37.752 5.08-8.36h9l5.13 8.18-5.13 8.56h-9zm21.11 0a11.5 11.5 0 0 1 -11.5 11.5 11.5 11.5 0 0 1 -11.5-11.5 11.5 11.5 0 0 1 11.5-11.5 11.5 11.5 0 0 1 11.5 11.5z" fill="#ccc" stroke="#000" stroke-width=".9999"/></g></g></g></svg>