<svg id="svg2" height="750" viewBox="0 0 750 750" width="750" xmlns="http://www.w3.org/2000/svg"><g id="layer1"><g id="railHorizontal1"><rect id="railBaseH1" fill="#e0e0e0" height="35" stroke="#000" stroke-linecap="square" width="748" x="1" y="95"/><rect id="railCutoutH1" fill="#c0c0c0" height="29" stroke="#000" stroke-linecap="square" width="748" x="1" y="98"/></g><g id="railHorizontal2"><rect id="railBaseH2" fill="#e0e0e0" height="35" stroke="#000" stroke-linecap="square" width="748" x="1" y="220"/><rect id="railCutoutH2" fill="#c0c0c0" height="29" stroke="#000" stroke-linecap="square" width="748" x="1" y="223"/></g><g id="railHorizontal3"><rect id="railBaseH3" fill="#e0e0e0" height="35" stroke="#000" stroke-linecap="square" width="748" x="1" y="345"/><rect id="railCutoutH3" fill="#c0c0c0" height="29" stroke="#000" stroke-linecap="square" width="748" x="1" y="348"/></g><g id="railHorizontal4"><rect id="railBaseH4" fill="#e0e0e0" height="35" stroke="#000" stroke-linecap="square" width="748" x="1" y="470"/><rect id="railCutoutH4" fill="#c0c0c0" height="29" stroke="#000" stroke-linecap="square" width="748" x="1" y="473"/></g><g id="railHorizontal5"><rect id="railBaseH5" fill="#e0e0e0" height="35" stroke="#000" stroke-linecap="square" width="748" x="1" y="595"/><rect id="railCutoutH5" fill="#c0c0c0" height="29" stroke="#000" stroke-linecap="square" width="748" x="1" y="598"/></g><path id="wrBracketLT" d="m2.8516 57.5c-.4715 0-.8516.38-.8516.852v37.296c0 .472.3801.852.8516.852h26.8964c.472 0 .852-.38.852-.852v-37.296c0-.472-.38-.852-.852-.852zm7.1484 4.5a2.5 2.5 0 0 1 2.5 2.5 2.5 2.5 0 0 1 -2.5 2.5 2.5 2.5 0 0 1 -2.5-2.5 2.5 2.5 0 0 1 2.5-2.5zm0 25a2.5 2.5 0 0 1 2.5 2.5 2.5 2.5 0 0 1 -2.5 2.5 2.5 2.5 0 0 1 -2.5-2.5 2.5 2.5 0 0 1 2.5-2.5z" fill="#c0c0c0" fill-rule="evenodd" stroke="#000" stroke-linecap="square" stroke-width=".99995"/><path id="wrBracketRT" d="m720.25 57.5c-.47 0-.85.38-.85.852v37.296c0 .472.38.852.85.852h26.9c.47 0 .85-.38.85-.852v-37.296c0-.472-.38-.852-.85-.852zm19.75 4.5a2.5 2.5 0 0 1 2.5 2.5 2.5 2.5 0 0 1 -2.5 2.5 2.5 2.5 0 0 1 -2.5-2.5 2.5 2.5 0 0 1 2.5-2.5zm0 25a2.5 2.5 0 0 1 2.5 2.5 2.5 2.5 0 0 1 -2.5 2.5 2.5 2.5 0 0 1 -2.5-2.5 2.5 2.5 0 0 1 2.5-2.5z" fill="#c0c0c0" fill-rule="evenodd" stroke="#000" stroke-linecap="square" stroke-width=".99995"/><path id="wrBracketRB" d="m721.25 522.5c-.47 0-.85.38-.85.85v37.3c0 .47.38.85.85.85h26.9c.47 0 .85-.38.85-.85v-37.3c0-.47-.38-.85-.85-.85zm19.75 4.5a2.5 2.5 0 0 1 2.5 2.5 2.5 2.5 0 0 1 -2.5 2.5 2.5 2.5 0 0 1 -2.5-2.5 2.5 2.5 0 0 1 2.5-2.5zm0 25a2.5 2.5 0 0 1 2.5 2.5 2.5 2.5 0 0 1 -2.5 2.5 2.5 2.5 0 0 1 -2.5-2.5 2.5 2.5 0 0 1 2.5-2.5z" fill="#c0c0c0" fill-rule="evenodd" stroke="#000" stroke-linecap="square" stroke-width=".99995"/><path id="wrBracketLB" d="m2.8516 522.5c-.4715 0-.8516.38-.8516.85v37.3c0 .47.3801.85.8516.85h26.8964c.472 0 .852-.38.852-.85v-37.3c0-.47-.38-.85-.852-.85zm7.1484 4.5a2.5 2.5 0 0 1 2.5 2.5 2.5 2.5 0 0 1 -2.5 2.5 2.5 2.5 0 0 1 -2.5-2.5 2.5 2.5 0 0 1 2.5-2.5zm0 25a2.5 2.5 0 0 1 2.5 2.5 2.5 2.5 0 0 1 -2.5 2.5 2.5 2.5 0 0 1 -2.5-2.5 2.5 2.5 0 0 1 2.5-2.5z" fill="#c0c0c0" fill-rule="evenodd" stroke="#000" stroke-linecap="square" stroke-width=".99995"/><rect id="wrFrameHorizontal1" fill="#c0c0c0" fill-rule="evenodd" height="39" stroke="#000" stroke-linecap="square" width="688" x="31" y="57.5"/><rect id="wrFrameHorizontal2" fill="#c0c0c0" fill-rule="evenodd" height="39" stroke="#000" stroke-linecap="square" width="690" x="30" y="522.5"/><g id="railVertical1"><rect id="railBaseV1" fill="#e0e0e0" fill-rule="evenodd" height="591" stroke="#000" stroke-linecap="square" width="35" x="120" y="4.5"/><rect id="railCutoutV1" fill="#c0c0c0" fill-rule="evenodd" height="591" stroke="#000" stroke-linecap="square" width="29" x="123" y="4.5"/></g><g id="railVertical2"><rect id="railBaseV2" fill="#e0e0e0" fill-rule="evenodd" height="591" stroke="#000" stroke-linecap="square" width="35" x="270" y="4.5"/><rect id="railCutoutV2" fill="#c0c0c0" fill-rule="evenodd" height="591" stroke="#000" stroke-linecap="square" width="29" x="273" y="4.5"/></g><g id="railVertical3"><rect id="railBaseV3" fill="#e0e0e0" fill-rule="evenodd" height="591" stroke="#000" stroke-linecap="square" width="35" x="445" y="4.5"/><rect id="railCutoutV3" fill="#c0c0c0" fill-rule="evenodd" height="591" stroke="#000" stroke-linecap="square" width="29" x="448" y="4.5"/></g><g id="railVertical4"><rect id="railBaseV4" fill="#e0e0e0" fill-rule="evenodd" height="591" stroke="#000" stroke-linecap="square" width="35" x="595" y="4.5"/><rect id="railCutoutV4" fill="#c0c0c0" fill-rule="evenodd" height="591" stroke="#000" stroke-linecap="square" width="29" x="598" y="4.5"/></g></g></svg>