<svg id="svg2" height="150" viewBox="0 0 750 150" width="750" xmlns="http://www.w3.org/2000/svg"><g id="layer1"><path id="mountingPlate_750" d="m569 76c0 6.213-5.04 11.25-11.25 11.25s-11.25-5.037-11.25-11.25 5.04-11.25 11.25-11.25 11.25 5.037 11.25 11.25zm160-20.5v39h18v-39zm11 4.75c1.24 0 2.25 1.007 2.25 2.25s-1.01 2.25-2.25 2.25-2.25-1.007-2.25-2.25 1.01-2.25 2.25-2.25zm0 25c1.24 0 2.25 1.007 2.25 2.25s-1.01 2.25-2.25 2.25-2.25-1.007-2.25-2.25 1.01-2.25 2.25-2.25zm-737-29.75v39h18v-39zm7 4.75c1.243 0 2.25 1.007 2.25 2.25s-1.007 2.25-2.25 2.25c-1.2426 0-2.25-1.007-2.25-2.25s1.0074-2.25 2.25-2.25zm0 25c1.243 0 2.25 1.007 2.25 2.25s-1.007 2.25-2.25 2.25c-1.2426 0-2.25-1.007-2.25-2.25s1.0074-2.25 2.25-2.25zm583 47.75v-116h-458v116-116h-114v116h708v-116h-136zm-441-104h92v92h-92zm96 0h92v92h-92zm96 0h92v92h-92zm96 0h92v92h-92z" fill="#c5c7c4" fill-opacity=".8" stroke="#000" stroke-linejoin="bevel"/><path id="mountingPlate_500" d="m455 76a11.25 11.25 0 0 1 -11.25 11.25 11.25 11.25 0 0 1 -11.25-11.25 11.25 11.25 0 0 1 11.25-11.25 11.25 11.25 0 0 1 11.25 11.25zm24-20.5v39h18v-39zm11 4.75a2.25 2.25 0 0 1 2.25 2.25 2.25 2.25 0 0 1 -2.25 2.25 2.25 2.25 0 0 1 -2.25-2.25 2.25 2.25 0 0 1 2.25-2.25zm0 25a2.25 2.25 0 0 1 2.25 2.25 2.25 2.25 0 0 1 -2.25 2.25 2.25 2.25 0 0 1 -2.25-2.25 2.25 2.25 0 0 1 2.25-2.25zm-487-29.75v39h18v-39zm7 4.75a2.25 2.25 0 0 1 2.25 2.25 2.25 2.25 0 0 1 -2.25 2.25 2.25 2.25 0 0 1 -2.25-2.25 2.25 2.25 0 0 1 2.25-2.25zm0 25a2.25 2.25 0 0 1 2.25 2.25 2.25 2.25 0 0 1 -2.25 2.25 2.25 2.25 0 0 1 -2.25-2.25 2.25 2.25 0 0 1 2.25-2.25zm11-68.25v116h458v-116zm17 12h92v92h-92zm96 0h92v92h-92zm96 0h92v92h-92zm96 0h92v92h-92z" fill="#c5c7c4" fill-opacity=".8" stroke="#000" stroke-linejoin="bevel"/><path id="mountingPlate_250" d="m229 55.5v39h18v-39zm11 4.75a2.25 2.25 0 0 1 2.25 2.25 2.25 2.25 0 0 1 -2.25 2.25 2.25 2.25 0 0 1 -2.25-2.25 2.25 2.25 0 0 1 2.25-2.25zm0 25a2.25 2.25 0 0 1 2.25 2.25 2.25 2.25 0 0 1 -2.25 2.25 2.25 2.25 0 0 1 -2.25-2.25 2.25 2.25 0 0 1 2.25-2.25zm-237-29.75v39h18v-39zm7 4.75a2.25 2.25 0 0 1 2.25 2.25 2.25 2.25 0 0 1 -2.25 2.25 2.25 2.25 0 0 1 -2.25-2.25 2.25 2.25 0 0 1 2.25-2.25zm0 25a2.25 2.25 0 0 1 2.25 2.25 2.25 2.25 0 0 1 -2.25 2.25 2.25 2.25 0 0 1 -2.25-2.25 2.25 2.25 0 0 1 2.25-2.25zm11-68.25v116h208v-116zm58 12h92v92h-92z" fill="#c5c7c4" fill-opacity=".8" stroke="#000" stroke-linejoin="bevel" stroke-width=".99997"/></g></svg>