<svg id="svg2" height="150" viewBox="0 0 750 150" width="750" xmlns="http://www.w3.org/2000/svg"><g id="layer1"><g id="rail_750" stroke="#000"><rect id="rect4731" fill="#e0e0e0" fill-rule="evenodd" height="28.816" ry=".5" stroke-linecap="square" stroke-width="1.00002" width="28.549" x="2" y="58.092"/><circle id="circle4733" cx="10" cy="78.75" fill="#c5c7c4" fill-opacity=".8" r="2.2499" stroke-linejoin="bevel" stroke-width=".49998"/><circle id="circle4735" cx="10" cy="66.25" fill="#c5c7c4" fill-opacity=".8" r="2.2499" stroke-linejoin="bevel" stroke-width=".49998"/><rect id="rect4737" fill="#e0e0e0" fill-rule="evenodd" height="28.816" ry=".5" stroke-linecap="square" stroke-width="1.00002" width="28.549" x="719.5" y="58.092"/><circle id="circle4739" cx="740" cy="78.75" fill="#c5c7c4" fill-opacity=".8" r="2.2499" stroke-linejoin="bevel" stroke-width=".49998"/><circle id="circle4741" cx="740" cy="66.25" fill="#c5c7c4" fill-opacity=".8" r="2.2499" stroke-linejoin="bevel" stroke-width=".49998"/><rect id="rect4743" fill="#e0e0e0" fill-rule="evenodd" height="28.816" ry=".5" stroke-linecap="square" stroke-width="1.00003" width="9.1145" x="21.435" y="58.092"/><rect id="rect4745" fill="#e0e0e0" fill-rule="evenodd" height="28.816" ry=".5" stroke-linecap="square" stroke-width="1.00003" width="9.1145" x="719.5" y="58.092"/><rect id="rect4747" fill="#808080" fill-rule="evenodd" height="35" stroke-linecap="square" width="688" x="31.05" y="55"/><rect id="rect4749" fill="#c0c0c0" fill-rule="evenodd" height="10" stroke-linecap="square" width="688" x="31.05" y="67.5"/></g><g id="rail_500" stroke="#000"><rect id="rect4830" fill="#e0e0e0" fill-rule="evenodd" height="28.816" ry=".5" stroke-linecap="square" stroke-width="1.00002" width="28.549" x="2" y="58.092"/><circle id="circle87-4" cx="10" cy="78.75" fill="#c5c7c4" fill-opacity=".8" r="2.2499" stroke-linejoin="bevel" stroke-width=".49998"/><circle id="circle4849" cx="10" cy="66.25" fill="#c5c7c4" fill-opacity=".8" r="2.2499" stroke-linejoin="bevel" stroke-width=".49998"/><rect id="rect4855" fill="#e0e0e0" fill-rule="evenodd" height="28.816" ry=".5" stroke-linecap="square" stroke-width="1.00002" width="28.549" x="469.5" y="58.092"/><circle id="circle4857" cx="490" cy="78.75" fill="#c5c7c4" fill-opacity=".8" r="2.2499" stroke-linejoin="bevel" stroke-width=".49998"/><circle id="circle4859" cx="490" cy="66.25" fill="#c5c7c4" fill-opacity=".8" r="2.2499" stroke-linejoin="bevel" stroke-width=".49998"/><rect id="rect4863" fill="#e0e0e0" fill-rule="evenodd" height="28.816" ry=".5" stroke-linecap="square" stroke-width="1.00003" width="9.1145" x="21.435" y="58.092"/><rect id="rect4865" fill="#e0e0e0" fill-rule="evenodd" height="28.816" ry=".5" stroke-linecap="square" stroke-width="1.00003" width="9.1145" x="469.5" y="58.092"/><rect id="rect4325" fill="#808080" fill-rule="evenodd" height="35" stroke-linecap="square" width="438" x="31.05" y="55"/><rect id="mountingPlate" fill="#c0c0c0" fill-rule="evenodd" height="10" stroke-linecap="square" width="438" x="31.05" y="67.5"/></g><g id="rail_250" stroke="#000"><rect id="rect4775" fill="#e0e0e0" fill-rule="evenodd" height="28.816" ry=".5" stroke-linecap="square" stroke-width="1.00002" width="28.549" x="2" y="58.092"/><circle id="circle4777" cx="10" cy="78.75" fill="#c5c7c4" fill-opacity=".8" r="2.2499" stroke-linejoin="bevel" stroke-width=".49998"/><circle id="circle4779" cx="10" cy="66.25" fill="#c5c7c4" fill-opacity=".8" r="2.2499" stroke-linejoin="bevel" stroke-width=".49998"/><rect id="rect4781" fill="#e0e0e0" fill-rule="evenodd" height="28.816" ry=".5" stroke-linecap="square" stroke-width="1.00002" width="28.549" x="219.5" y="58.092"/><circle id="circle4783" cx="240" cy="78.75" fill="#c5c7c4" fill-opacity=".8" r="2.2499" stroke-linejoin="bevel" stroke-width=".49998"/><circle id="circle4785" cx="240" cy="66.25" fill="#c5c7c4" fill-opacity=".8" r="2.2499" stroke-linejoin="bevel" stroke-width=".49998"/><rect id="rect4787" fill="#e0e0e0" fill-rule="evenodd" height="28.816" ry=".5" stroke-linecap="square" stroke-width="1.00003" width="9.1145" x="21.435" y="58.092"/><rect id="rect4789" fill="#e0e0e0" fill-rule="evenodd" height="28.816" ry=".5" stroke-linecap="square" stroke-width="1.00003" width="9.1145" x="219.5" y="58.092"/><rect id="rect4791" fill="#808080" fill-rule="evenodd" height="35" stroke-linecap="square" width="188" x="31.05" y="55"/><rect id="rect4793" fill="#c0c0c0" fill-rule="evenodd" height="10" stroke-linecap="square" width="188" x="31.05" y="67.5"/></g><g id="edfLeftTop" fill-rule="evenodd"><rect id="rect4262" fill="#f00" height="14" stroke="#f00" stroke-linecap="round" stroke-linejoin="round" width="14" x="3" y="30.5"/><circle id="path4201" cx="10" cy="37.5" fill="#a00000" r="4.5" stroke="#a00000" stroke-linecap="square"/><rect id="rect4264" fill="#f00" height="10" stroke="#f00" stroke-linecap="square" stroke-linejoin="round" width="10" x="5" y="20.5"/><rect id="rect4197" fill="#c00000" height="6" stroke="#c00000" stroke-linecap="square" width="6" x="7" y="22.5"/><rect id="rect4266" fill="#f00" height="10" stroke="#f00" stroke-linecap="round" stroke-linejoin="round" width="10" x="5" y="44.5"/><rect id="rect4199" fill="#c00000" height="6" stroke="#c00000" stroke-linecap="square" width="6" x="7" y="46.5"/></g><g id="edfRightTop" fill-rule="evenodd"><rect id="rect4292" fill="#f00" height="14" stroke="#f00" stroke-linecap="round" stroke-linejoin="round" width="14" x="733" y="30.5"/><circle id="circle4294" cx="740" cy="37.5" fill="#a00000" r="4.5" stroke="#a00000" stroke-linecap="square"/><rect id="rect4296" fill="#f00" height="10" stroke="#f00" stroke-linecap="square" stroke-linejoin="round" width="10" x="735" y="20.5"/><rect id="rect4298" fill="#c00000" height="6" stroke="#c00000" stroke-linecap="square" width="6" x="737" y="22.5"/><rect id="rect4300" fill="#f00" height="10" stroke="#f00" stroke-linecap="round" stroke-linejoin="round" width="10" x="735" y="44.5"/><rect id="rect4302" fill="#c00000" height="6" stroke="#c00000" stroke-linecap="square" width="6" x="737" y="46.5"/></g><g id="edfRightBottom" fill-rule="evenodd"><rect id="rect4320" fill="#f00" height="14" stroke="#f00" stroke-linecap="round" stroke-linejoin="round" width="14" x="733" y="105.5"/><circle id="circle4322" cx="740" cy="112.5" fill="#a00000" r="4.5" stroke="#a00000" stroke-linecap="square"/><rect id="rect4324" fill="#f00" height="10" stroke="#f00" stroke-linecap="square" stroke-linejoin="round" width="10" x="735" y="95.5"/><rect id="rect4326" fill="#c00000" height="6" stroke="#c00000" stroke-linecap="square" width="6" x="737" y="97.5"/><rect id="rect4328" fill="#f00" height="10" stroke="#f00" stroke-linecap="round" stroke-linejoin="round" width="10" x="735" y="119.5"/><rect id="rect4330" fill="#c00000" height="6" stroke="#c00000" stroke-linecap="square" width="6" x="737" y="121.5"/></g><g id="edfLeftBottom" fill-rule="evenodd"><rect id="rect4334" fill="#f00" height="14" stroke="#f00" stroke-linecap="round" stroke-linejoin="round" width="14" x="3" y="105.5"/><circle id="circle4336" cx="10" cy="112.5" fill="#a00000" r="4.5" stroke="#a00000" stroke-linecap="square"/><rect id="rect4338" fill="#f00" height="10" stroke="#f00" stroke-linecap="square" stroke-linejoin="round" width="10" x="5" y="95.5"/><rect id="rect4340" fill="#c00000" height="6" stroke="#c00000" stroke-linecap="square" width="6" x="7" y="97.5"/><rect id="rect4342" fill="#f00" height="10" stroke="#f00" stroke-linecap="round" stroke-linejoin="round" width="10" x="5" y="119.5"/><rect id="rect4344" fill="#c00000" height="6" stroke="#c00000" stroke-linecap="square" width="6" x="7" y="121.5"/></g><rect id="frontPanel" fill="#c5c7c4" fill-opacity=".8" height="150" stroke="#000" stroke-linejoin="bevel" stroke-width=".5" width="750"/><g id="fittingLeftTop" fill="#c5c7c4" stroke="#000"><circle id="circle1-6" cx="10" cy="37.5" fill-rule="evenodd" r="4.5" stroke-linecap="square"/><rect id="rect4169-6" fill-rule="evenodd" height="7" stroke-linecap="square" stroke-width=".5" width="2" x="9" y="22.5"/><rect id="rect4171-7" fill-rule="evenodd" height="7" stroke-linecap="square" stroke-width=".5" width="2" x="9" y="45.5"/><path id="line4144-2" d="m13 37.5h-6m3-3v6"/></g><g id="fittingLeftBottom" fill="#c5c7c4" stroke="#000"><circle id="circle4818" cx="10" cy="112.5" fill-rule="evenodd" r="4.5" stroke-linecap="square"/><rect id="rect4820" fill-rule="evenodd" height="7" stroke-linecap="square" stroke-width=".5" width="2" x="9" y="97.5"/><rect id="rect4822" fill-rule="evenodd" height="7" stroke-linecap="square" stroke-width=".5" width="2" x="9" y="120.5"/><path id="path4824" d="m13 112.5h-6m3-3v6"/></g><g id="fittingRightTop" fill="#c5c7c4" stroke="#000"><circle id="circle4905" cx="740" cy="37.5" fill-rule="evenodd" r="4.5" stroke-linecap="square"/><rect id="rect4907" fill-rule="evenodd" height="7" stroke-linecap="square" stroke-width=".5" width="2" x="739" y="22.5"/><rect id="rect4909" fill-rule="evenodd" height="7" stroke-linecap="square" stroke-width=".5" width="2" x="739" y="45.5"/><path id="path4911" d="m743 37.5h-6m3-3v6"/></g><g id="fittingRightBottom" fill="#c5c7c4" stroke="#000"><circle id="circle4953" cx="740" cy="112.5" fill-rule="evenodd" r="4.5" stroke-linecap="square"/><rect id="rect4955" fill-rule="evenodd" height="7" stroke-linecap="square" stroke-width=".5" width="2" x="739" y="97.5"/><rect id="rect4957" fill-rule="evenodd" height="7" stroke-linecap="square" stroke-width=".5" width="2" x="739" y="120.5"/><path id="path4959" d="m743 112.5h-6m3-3v6"/></g><g id="d250" fill="none" stroke="#666" stroke-linecap="round" stroke-linejoin="round" stroke-width="2.5"><path id="dTop250" d="m125 20.25a61.25 19.5 0 0 1 -61.25-19.5h122.5a61.25 19.5 0 0 1 -61.25 19.5z"/><path id="dBottom250" d="m125 129.75a61.25 19.5 0 0 0 -61.25 19.5h122.5a61.25 19.5 0 0 0 -61.25-19.5z"/></g><g id="d500" fill="none" stroke="#666" stroke-linecap="round" stroke-linejoin="round" stroke-width="2.5"><path id="dTop500" d="m375 20.25a61.25 19.5 0 0 1 -61.25-19.5h122.5a61.25 19.5 0 0 1 -61.25 19.5z"/><path id="dBottom500" d="m375 129.75a61.25 19.5 0 0 0 -61.25 19.5h122.5a61.25 19.5 0 0 0 -61.25-19.5z"/></g><g id="d750" fill="none" stroke="#666" stroke-linecap="round" stroke-linejoin="round" stroke-width="2.5"><path id="path4819" d="m625 20.25a61.25 19.5 0 0 1 -61.25-19.5h122.5a61.25 19.5 0 0 1 -61.25 19.5z"/><path id="path4821" d="m625 129.75a61.25 19.5 0 0 0 -61.25 19.5h122.5a61.25 19.5 0 0 0 -61.25-19.5z"/></g><text id="textTop" font-family="sans-serif" letter-spacing="0" text-anchor="middle" word-spacing="0" x="375.2" y="36"><tspan id="tspan4155" font-size="20" x="375.2" y="37">Text</tspan></text><text id="textBottom" font-family="sans-serif" letter-spacing="0" text-anchor="middle" word-spacing="0" x="375.2" y="128"><tspan id="tspan4200" font-size="20" x="375.2" y="128">Text</tspan></text></g></svg>