<svg id="svg2" height="750" viewBox="0 0 750 750" width="750" xmlns="http://www.w3.org/2000/svg"><g id="layer1"><g id="busbars"><g id="holderLeft"><rect id="holderL" fill="#c0c0c0" height="430" stroke="#000" stroke-linecap="round" stroke-width=".5" width="24" x="17.5" y="97.5"/><path id="path1016" d="m3.9492 378.66v55.18h21.4998v-55.18zm6 5.84c1.6598 0 2.9998 1.34 2.9998 3 0 1.67-1.34 3-2.9998 3-1.66 0-3-1.33-3-3 0-1.66 1.34-3 3-3zm0 37.5c1.6598 0 2.9998 1.34 2.9998 3 0 1.67-1.34 3-2.9998 3-1.66 0-3-1.33-3-3 0-1.66 1.34-3 3-3z" fill="#c5c7c4" stroke="#000" stroke-linejoin="bevel" stroke-width=".8"/><path id="path1036" d="m3.9492 191.16v55.18h21.4998v-55.18zm6 5.84c1.6598 0 2.9998 1.34 2.9998 3 0 1.67-1.34 3-2.9998 3-1.66 0-3-1.33-3-3 0-1.66 1.34-3 3-3zm0 37.5c1.6598 0 2.9998 1.34 2.9998 3 0 1.67-1.34 3-2.9998 3-1.66 0-3-1.33-3-3 0-1.66 1.34-3 3-3z" fill="#c5c7c4" stroke="#000" stroke-linejoin="bevel" stroke-width=".8"/></g><g id="holderRight"><rect id="holderR" fill="#c0c0c0" height="430" stroke="#000" stroke-linecap="round" stroke-width=".5" width="24" x="708.5" y="97.5"/><path id="bracketRT" d="m724.5 378.74v55.01h21.5v-55zm15.5 5.76c1.66 0 3 1.33 3 3s-1.34 3-3 3-3-1.33-3-3 1.34-3 3-3zm0 37.5c1.66 0 3 1.33 3 3s-1.34 3-3 3-3-1.33-3-3 1.34-3 3-3z" fill="#c5c7c4" stroke="#000" stroke-linejoin="bevel" stroke-width=".8"/><path id="path1040" d="m724.5 191.24v55.01h21.5v-55zm15.5 5.76c1.66 0 3 1.33 3 3s-1.34 3-3 3-3-1.33-3-3 1.34-3 3-3zm0 37.5c1.66 0 3 1.33 3 3s-1.34 3-3 3-3-1.33-3-3 1.34-3 3-3z" fill="#c5c7c4" stroke="#000" stroke-linejoin="bevel" stroke-width=".8"/></g><rect id="L1_40" fill="#c6782e" height="40" stroke="#000" stroke-linecap="round" stroke-opacity=".27451" stroke-width=".5" width="715" x="17.5" y="107.5"/><rect id="L2_40" fill="#c6782e" height="40" stroke="#000" stroke-linecap="round" stroke-opacity=".27451" stroke-width=".5" width="715" x="17.5" y="292.5"/><rect id="L3_40" fill="#c6782e" height="40" stroke="#000" stroke-linecap="round" stroke-opacity=".27451" stroke-width=".5" width="715" x="17.5" y="477.5"/><rect id="L1_30" fill="#c6782e" height="30" stroke="#000" stroke-linecap="round" stroke-opacity=".27451" stroke-width=".5" width="715" x="17.5" y="112.5"/><rect id="L2_30" fill="#c6782e" height="30" stroke="#000" stroke-linecap="round" stroke-opacity=".27451" stroke-width=".5" width="715" x="17.5" y="297.5"/><rect id="L3_30" fill="#c6782e" height="30" stroke="#000" stroke-linecap="round" stroke-opacity=".27451" stroke-width=".5" width="715" x="17.5" y="482.5"/><path id="boltsLeft" d="m22.29 497.5 3.89-6.25h6.62l3.91 6.25-3.91 6.25h-6.62zm0-185 3.89-6.25h6.62l3.91 6.25-3.91 6.25h-6.62zm0-185 3.89-6.25h6.62l3.91 6.25-3.91 6.25h-6.62z" fill="#c0c0c0" stroke="#000" stroke-width=".99992"/><path id="boltsRight" d="m713.29 497.5 3.89-6.25h6.62l3.91 6.25-3.91 6.25h-6.62zm0-185 3.89-6.25h6.62l3.91 6.25-3.91 6.25h-6.62zm0-185 3.89-6.25h6.62l3.91 6.25-3.91 6.25h-6.62z" fill="#c0c0c0" stroke="#000" stroke-width=".99992"/></g></g></svg>