<svg id="svg2" height="600" viewBox="0 0 750 600" width="750" xmlns="http://www.w3.org/2000/svg"><g id="layer1"><path id="traverseTop750" d="m3 131.25v75h744v-75zm7 3.6a2.65 2.65 0 0 1 2.65 2.65 2.65 2.65 0 0 1 -2.65 2.65 2.65 2.65 0 0 1 -2.6504-2.65 2.65 2.65 0 0 1 2.6504-2.65zm730 0a2.65 2.65 0 0 1 2.65 2.65 2.65 2.65 0 0 1 -2.65 2.65 2.65 2.65 0 0 1 -2.65-2.65 2.65 2.65 0 0 1 2.65-2.65zm-730 12.5a2.65 2.65 0 0 1 2.65 2.65 2.65 2.65 0 0 1 -2.65 2.65 2.65 2.65 0 0 1 -2.6504-2.65 2.65 2.65 0 0 1 2.6504-2.65zm730 0a2.65 2.65 0 0 1 2.65 2.65 2.65 2.65 0 0 1 -2.65 2.65 2.65 2.65 0 0 1 -2.65-2.65 2.65 2.65 0 0 1 2.65-2.65zm-707.5 16.65h105v9.5h-105zm120 0h210v9.5h-210zm235 0h210v9.5h-210zm225 0h105v9.5h-105zm-602.5 20.85a2.65 2.65 0 0 1 2.65 2.65 2.65 2.65 0 0 1 -2.65 2.65 2.65 2.65 0 0 1 -2.6504-2.65 2.65 2.65 0 0 1 2.6504-2.65zm730 0a2.65 2.65 0 0 1 2.65 2.65 2.65 2.65 0 0 1 -2.65 2.65 2.65 2.65 0 0 1 -2.65-2.65 2.65 2.65 0 0 1 2.65-2.65zm-730 12.5a2.65 2.65 0 0 1 2.65 2.65 2.65 2.65 0 0 1 -2.65 2.65 2.65 2.65 0 0 1 -2.6504-2.65 2.65 2.65 0 0 1 2.6504-2.65zm730 0a2.65 2.65 0 0 1 2.65 2.65 2.65 2.65 0 0 1 -2.65 2.65 2.65 2.65 0 0 1 -2.65-2.65 2.65 2.65 0 0 1 2.65-2.65z" fill="#c5c7c4" fill-opacity=".8" stroke="#000" stroke-linejoin="bevel" stroke-width=".8"/><path id="traverseBottom750" d="m3 381.25v75h744v-75zm7 3.6a2.65 2.65 0 0 1 2.65 2.65 2.65 2.65 0 0 1 -2.65 2.65 2.65 2.65 0 0 1 -2.6504-2.65 2.65 2.65 0 0 1 2.6504-2.65zm730 0a2.65 2.65 0 0 1 2.65 2.65 2.65 2.65 0 0 1 -2.65 2.65 2.65 2.65 0 0 1 -2.65-2.65 2.65 2.65 0 0 1 2.65-2.65zm-730 12.5a2.65 2.65 0 0 1 2.65 2.65 2.65 2.65 0 0 1 -2.65 2.65 2.65 2.65 0 0 1 -2.6504-2.65 2.65 2.65 0 0 1 2.6504-2.65zm730 0a2.65 2.65 0 0 1 2.65 2.65 2.65 2.65 0 0 1 -2.65 2.65 2.65 2.65 0 0 1 -2.65-2.65 2.65 2.65 0 0 1 2.65-2.65zm-707.5 16.65h105v9.5h-105zm120 0h210v9.5h-210zm235 0h210v9.5h-210zm225 0h105v9.5h-105zm-602.5 20.85a2.65 2.65 0 0 1 2.65 2.65 2.65 2.65 0 0 1 -2.65 2.65 2.65 2.65 0 0 1 -2.6504-2.65 2.65 2.65 0 0 1 2.6504-2.65zm730 0a2.65 2.65 0 0 1 2.65 2.65 2.65 2.65 0 0 1 -2.65 2.65 2.65 2.65 0 0 1 -2.65-2.65 2.65 2.65 0 0 1 2.65-2.65zm-730 12.5a2.65 2.65 0 0 1 2.65 2.65 2.65 2.65 0 0 1 -2.65 2.65 2.65 2.65 0 0 1 -2.6504-2.65 2.65 2.65 0 0 1 2.6504-2.65zm730 0a2.65 2.65 0 0 1 2.65 2.65 2.65 2.65 0 0 1 -2.65 2.65 2.65 2.65 0 0 1 -2.65-2.65 2.65 2.65 0 0 1 2.65-2.65z" fill="#c5c7c4" fill-opacity=".8" stroke="#000" stroke-linejoin="bevel" stroke-width=".8"/><path id="traverseTop500" d="m2 131.25v75h496v-75zm8 3.6a2.65 2.65 0 0 1 2.65 2.65 2.65 2.65 0 0 1 -2.65 2.65 2.65 2.65 0 0 1 -2.6504-2.65 2.65 2.65 0 0 1 2.6504-2.65zm480 0a2.65 2.65 0 0 1 2.65 2.65 2.65 2.65 0 0 1 -2.65 2.65 2.65 2.65 0 0 1 -2.65-2.65 2.65 2.65 0 0 1 2.65-2.65zm-480 12.5a2.65 2.65 0 0 1 2.65 2.65 2.65 2.65 0 0 1 -2.65 2.65 2.65 2.65 0 0 1 -2.6504-2.65 2.65 2.65 0 0 1 2.6504-2.65zm480 0a2.65 2.65 0 0 1 2.65 2.65 2.65 2.65 0 0 1 -2.65 2.65 2.65 2.65 0 0 1 -2.65-2.65 2.65 2.65 0 0 1 2.65-2.65zm-472.5 16.65h105v9.5h-105zm120 0h105v9.5h-105zm120 0h105v9.5h-105zm120 0h105v9.5h-105zm-367.5 20.85a2.65 2.65 0 0 1 2.65 2.65 2.65 2.65 0 0 1 -2.65 2.65 2.65 2.65 0 0 1 -2.6504-2.65 2.65 2.65 0 0 1 2.6504-2.65zm480 0a2.65 2.65 0 0 1 2.65 2.65 2.65 2.65 0 0 1 -2.65 2.65 2.65 2.65 0 0 1 -2.65-2.65 2.65 2.65 0 0 1 2.65-2.65zm-480 12.5a2.65 2.65 0 0 1 2.65 2.65 2.65 2.65 0 0 1 -2.65 2.65 2.65 2.65 0 0 1 -2.6504-2.65 2.65 2.65 0 0 1 2.6504-2.65zm480 0a2.65 2.65 0 0 1 2.65 2.65 2.65 2.65 0 0 1 -2.65 2.65 2.65 2.65 0 0 1 -2.65-2.65 2.65 2.65 0 0 1 2.65-2.65z" fill="#c5c7c4" fill-opacity=".8" stroke="#000" stroke-linejoin="bevel" stroke-width=".8"/><path id="traverseBottom500" d="m2 381.25v75h496v-75zm8 3.6a2.65 2.65 0 0 1 2.65 2.65 2.65 2.65 0 0 1 -2.65 2.65 2.65 2.65 0 0 1 -2.6504-2.65 2.65 2.65 0 0 1 2.6504-2.65zm480 0a2.65 2.65 0 0 1 2.65 2.65 2.65 2.65 0 0 1 -2.65 2.65 2.65 2.65 0 0 1 -2.65-2.65 2.65 2.65 0 0 1 2.65-2.65zm-480 12.5a2.65 2.65 0 0 1 2.65 2.65 2.65 2.65 0 0 1 -2.65 2.65 2.65 2.65 0 0 1 -2.6504-2.65 2.65 2.65 0 0 1 2.6504-2.65zm480 0a2.65 2.65 0 0 1 2.65 2.65 2.65 2.65 0 0 1 -2.65 2.65 2.65 2.65 0 0 1 -2.65-2.65 2.65 2.65 0 0 1 2.65-2.65zm-472.5 16.65h105v9.5h-105zm120 0h105v9.5h-105zm120 0h105v9.5h-105zm120 0h105v9.5h-105zm-367.5 20.85a2.65 2.65 0 0 1 2.65 2.65 2.65 2.65 0 0 1 -2.65 2.65 2.65 2.65 0 0 1 -2.6504-2.65 2.65 2.65 0 0 1 2.6504-2.65zm480 0a2.65 2.65 0 0 1 2.65 2.65 2.65 2.65 0 0 1 -2.65 2.65 2.65 2.65 0 0 1 -2.65-2.65 2.65 2.65 0 0 1 2.65-2.65zm-480 12.5a2.65 2.65 0 0 1 2.65 2.65 2.65 2.65 0 0 1 -2.65 2.65 2.65 2.65 0 0 1 -2.6504-2.65 2.65 2.65 0 0 1 2.6504-2.65zm480 0a2.65 2.65 0 0 1 2.65 2.65 2.65 2.65 0 0 1 -2.65 2.65 2.65 2.65 0 0 1 -2.65-2.65 2.65 2.65 0 0 1 2.65-2.65z" fill="#c5c7c4" fill-opacity=".8" stroke="#000" stroke-linejoin="bevel" stroke-width=".8"/><path id="traverseTop250" d="m2 131.25v75h246v-75zm8 3.6a2.65 2.65 0 0 1 2.65 2.65 2.65 2.65 0 0 1 -2.65 2.65 2.65 2.65 0 0 1 -2.6504-2.65 2.65 2.65 0 0 1 2.6504-2.65zm230 0a2.65 2.65 0 0 1 2.65 2.65 2.65 2.65 0 0 1 -2.65 2.65 2.65 2.65 0 0 1 -2.65-2.65 2.65 2.65 0 0 1 2.65-2.65zm-230 12.5a2.65 2.65 0 0 1 2.65 2.65 2.65 2.65 0 0 1 -2.65 2.65 2.65 2.65 0 0 1 -2.6504-2.65 2.65 2.65 0 0 1 2.6504-2.65zm230 0a2.65 2.65 0 0 1 2.65 2.65 2.65 2.65 0 0 1 -2.65 2.65 2.65 2.65 0 0 1 -2.65-2.65 2.65 2.65 0 0 1 2.65-2.65zm-225 16.65h105v9.5h-105zm115 0h105v9.5h-105zm-120 20.85a2.65 2.65 0 0 1 2.65 2.65 2.65 2.65 0 0 1 -2.65 2.65 2.65 2.65 0 0 1 -2.6504-2.65 2.65 2.65 0 0 1 2.6504-2.65zm230 0a2.65 2.65 0 0 1 2.65 2.65 2.65 2.65 0 0 1 -2.65 2.65 2.65 2.65 0 0 1 -2.65-2.65 2.65 2.65 0 0 1 2.65-2.65zm-230 12.5a2.65 2.65 0 0 1 2.65 2.65 2.65 2.65 0 0 1 -2.65 2.65 2.65 2.65 0 0 1 -2.6504-2.65 2.65 2.65 0 0 1 2.6504-2.65zm230 0a2.65 2.65 0 0 1 2.65 2.65 2.65 2.65 0 0 1 -2.65 2.65 2.65 2.65 0 0 1 -2.65-2.65 2.65 2.65 0 0 1 2.65-2.65z" fill="#c5c7c4" fill-opacity=".8" stroke="#000" stroke-linejoin="bevel" stroke-width=".8"/><path id="traverseBottom250" d="m2 381.25v75h246v-75zm8 3.6a2.65 2.65 0 0 1 2.65 2.65 2.65 2.65 0 0 1 -2.65 2.65 2.65 2.65 0 0 1 -2.6504-2.65 2.65 2.65 0 0 1 2.6504-2.65zm230 0a2.65 2.65 0 0 1 2.65 2.65 2.65 2.65 0 0 1 -2.65 2.65 2.65 2.65 0 0 1 -2.65-2.65 2.65 2.65 0 0 1 2.65-2.65zm-230 12.5a2.65 2.65 0 0 1 2.65 2.65 2.65 2.65 0 0 1 -2.65 2.65 2.65 2.65 0 0 1 -2.6504-2.65 2.65 2.65 0 0 1 2.6504-2.65zm230 0a2.65 2.65 0 0 1 2.65 2.65 2.65 2.65 0 0 1 -2.65 2.65 2.65 2.65 0 0 1 -2.65-2.65 2.65 2.65 0 0 1 2.65-2.65zm-225 16.65h105v9.5h-105zm115 0h105v9.5h-105zm-120 20.85a2.65 2.65 0 0 1 2.65 2.65 2.65 2.65 0 0 1 -2.65 2.65 2.65 2.65 0 0 1 -2.6504-2.65 2.65 2.65 0 0 1 2.6504-2.65zm230 0a2.65 2.65 0 0 1 2.65 2.65 2.65 2.65 0 0 1 -2.65 2.65 2.65 2.65 0 0 1 -2.65-2.65 2.65 2.65 0 0 1 2.65-2.65zm-230 12.5a2.65 2.65 0 0 1 2.65 2.65 2.65 2.65 0 0 1 -2.65 2.65 2.65 2.65 0 0 1 -2.6504-2.65 2.65 2.65 0 0 1 2.6504-2.65zm230 0a2.65 2.65 0 0 1 2.65 2.65 2.65 2.65 0 0 1 -2.65 2.65 2.65 2.65 0 0 1 -2.65-2.65 2.65 2.65 0 0 1 2.65-2.65z" fill="#c5c7c4" fill-opacity=".8" stroke="#000" stroke-linejoin="bevel" stroke-width=".8"/></g></svg>