<svg id="svg2" height="300" viewBox="0 0 250 300" width="250" xmlns="http://www.w3.org/2000/svg"><g id="layer1"><g id="frontPanel" stroke="#000" stroke-linecap="square"><rect id="rectBase" fill="#c5c7c4" fill-opacity=".8" fill-rule="evenodd" height="299" width="249"/><rect id="rectTop" fill="none" height="32" stroke-width=".99999" width="211" x="19"/><rect id="rectLeft-9" fill="none" height="299" stroke-width=".99999" width="19" x="230"/><rect id="rectBottom" fill="none" height="32" width="211" x="19" y="267"/><rect id="rectLeft" fill="none" height="299" stroke-width=".99999" width="19"/><rect id="rect4208" fill="none" height="25" stroke-width=".4" width="64" x="39.5" y="37.15"/><rect id="rect4212" fill="none" height="26.616" stroke-width=".4" width="57.718" x="95.641" y="235.67"/><rect id="rect4208-0" fill="none" height="25" stroke-width=".4" width="64" x="145.61" y="37.15"/><rect id="boxPlaceLeft" fill="none" height="165" width="98" x="22.5" y="66.5"/><rect id="boxPlaceRight" fill="none" height="165" width="98" x="128.5" y="66.5"/></g><path id="boxLeft" d="m87.42 105.31h7.1v20.88h-7.1zm-8.92-27.815h3v8h-3zm-13 0h3v8h-3zm26 114.005h2v20h-2zm-40 0h2v20h-2zm20-25h2v20h-2zm20-25h2v20h-2zm-40 0h2v20h-2zm55-28h2v20h-2zm-34 0h2v20h-2zm-42-23.005h82v2h-82zm4 5h12v45.005h-12zm-8 95.005h4v22h-4zm86 0h4v22h-4zm0-107.005h4v22.005h-4zm-86 0h4v22.005h-4zm0-12h90v155.005h-90zm-4-5h98v165.005h-98z" fill="none" stroke="#000" stroke-linecap="square" stroke-width="1.00002"/><path id="boxRight" d="m193.42 105.31h7.1v20.88h-7.1zm-8.92-27.807h3v8h-3zm-13 0h3v8h-3zm26 113.997h2v20h-2zm-40 0h2v20h-2zm20-25h2v20h-2zm20-25h2v20h-2zm-40 0h2v20h-2zm55-28h2v20h-2zm-34 0h2v20h-2zm-42-22.997h82v2h-82zm4 5h12v44.997h-12zm-8 94.997h4v22h-4zm86 0h4v22h-4zm0-106.997h4v21.997h-4zm-86 0h4v21.997h-4zm0-12h90v154.997h-90zm-4-5.005h98v165.002h-98z" fill="none" stroke="#000" stroke-linecap="square" stroke-width="1.00002"/><text id="textTop" font-family="sans-serif" font-size="20" letter-spacing="0" text-anchor="middle" word-spacing="0" x="124.5" y="22"><tspan id="tspan4273" x="124.5" y="22">Text</tspan></text><text id="textBottom" font-family="sans-serif" font-size="20" letter-spacing="0" text-anchor="middle" word-spacing="0" x="124.5" y="291"><tspan id="tspan4155" x="124.5" y="292">Text</tspan></text></g></svg>