<svg id="svg2" height="450" viewBox="0 0 250 450" width="250" xmlns="http://www.w3.org/2000/svg"><g id="layer1"><path id="traverseTop" d="m5.252 57.584c-1.2481 0-2.252 1.004-2.252 2.252v17.496c0 1.248 1.0039 2.252 2.252 2.252h239.498c1.25 0 2.25-1.004 2.25-2.252v-17.496c0-1.248-1-2.252-2.25-2.252zm4.748 2a2.75 2.75 0 0 1 2.75 2.75 2.75 2.75 0 0 1 -2.75 2.75 2.75 2.75 0 0 1 -2.75-2.75 2.75 2.75 0 0 1 2.75-2.75zm230 0a2.75 2.75 0 0 1 2.75 2.75 2.75 2.75 0 0 1 -2.75 2.75 2.75 2.75 0 0 1 -2.75-2.75 2.75 2.75 0 0 1 2.75-2.75zm-230 12.5a2.75 2.75 0 0 1 2.75 2.75 2.75 2.75 0 0 1 -2.75 2.75 2.75 2.75 0 0 1 -2.75-2.75 2.75 2.75 0 0 1 2.75-2.75zm230 0a2.75 2.75 0 0 1 2.75 2.75 2.75 2.75 0 0 1 -2.75 2.75 2.75 2.75 0 0 1 -2.75-2.75 2.75 2.75 0 0 1 2.75-2.75z" fill="#c5c7c4" fill-opacity=".8" stroke="#000" stroke-linejoin="bevel" stroke-width=".5"/><path id="traverseBottom" d="m5.252 370.08c-1.2481 0-2.252 1.01-2.252 2.26v17.49c0 1.25 1.0039 2.25 2.252 2.25h239.498c1.25 0 2.25-1 2.25-2.25v-17.49c0-1.25-1-2.26-2.25-2.26zm4.748 2a2.75 2.75 0 0 1 2.75 2.75 2.75 2.75 0 0 1 -2.75 2.75 2.75 2.75 0 0 1 -2.75-2.75 2.75 2.75 0 0 1 2.75-2.75zm230 0a2.75 2.75 0 0 1 2.75 2.75 2.75 2.75 0 0 1 -2.75 2.75 2.75 2.75 0 0 1 -2.75-2.75 2.75 2.75 0 0 1 2.75-2.75zm-230 12.5a2.75 2.75 0 0 1 2.75 2.75 2.75 2.75 0 0 1 -2.75 2.75 2.75 2.75 0 0 1 -2.75-2.75 2.75 2.75 0 0 1 2.75-2.75zm230 0a2.75 2.75 0 0 1 2.75 2.75 2.75 2.75 0 0 1 -2.75 2.75 2.75 2.75 0 0 1 -2.75-2.75 2.75 2.75 0 0 1 2.75-2.75z" fill="#c5c7c4" fill-opacity=".8" stroke="#000" stroke-linejoin="bevel" stroke-width=".5"/><g id="busbars"><rect id="L1" fill="#c6782e" height="328" stroke="#000" stroke-linecap="round" stroke-opacity=".27451" stroke-width=".49998" width="20" x="53.5" y="60.834"/><rect id="L2" fill="#c6782e" height="328" stroke="#000" stroke-linecap="round" stroke-opacity=".27451" stroke-width=".49998" width="20" x="113.5" y="60.834"/><rect id="L3" fill="#c6782e" height="328" stroke="#000" stroke-linecap="round" stroke-opacity=".27451" stroke-width=".49998" width="20" x="173.5" y="60.834"/></g><g id="holderTop"><rect id="rect5283" fill="#c0c0c0" height="15" ry="3.3792" stroke="#000" stroke-linejoin="round" stroke-miterlimit="10" width="178" x="34.5" y="61.084"/><circle id="circle5285" cx="206.15" cy="68.734" fill="#fff" r="4" stroke="#000" stroke-linejoin="bevel" stroke-miterlimit="10" stroke-width=".99998"/><circle id="circle5287" cx="161" cy="68.734" fill="#fff" r="4" stroke="#000" stroke-linejoin="bevel" stroke-miterlimit="10" stroke-width=".99998"/><circle id="circle5289" cx="86" cy="68.734" fill="#fff" r="4" stroke="#000" stroke-linejoin="bevel" stroke-miterlimit="10" stroke-width=".99998"/><circle id="circle5291" cx="40.85" cy="68.734" fill="#fff" r="4" stroke="#000" stroke-linejoin="bevel" stroke-miterlimit="10" stroke-width=".99998"/><line id="line5293" stroke="#000" x1="40.85" x2="40.85" y1="65.734" y2="71.734"/><line id="line5295" stroke="#000" x1="43.85" x2="37.85" y1="68.734" y2="68.734"/><line id="line5299" stroke="#000" x1="206.15" x2="206.15" y1="65.734" y2="71.734"/><line id="line5301" stroke="#000" x1="209.15" x2="203.15" y1="68.734" y2="68.734"/><line id="line5305" stroke="#000" x1="161" x2="161" y1="65.734" y2="71.734"/><line id="line5307" stroke="#000" x1="164" x2="158" y1="68.734" y2="68.734"/><line id="line5311" stroke="#000" x1="86" x2="86" y1="65.734" y2="71.734"/><line id="line5313" stroke="#000" x1="89" x2="83" y1="68.734" y2="68.734"/></g><g id="holderBottom"><rect id="rect1178" fill="#c0c0c0" height="15" ry="3.3792" stroke="#000" stroke-linejoin="round" stroke-miterlimit="10" width="178" x="34.5" y="373.58"/><circle id="circle1180" cx="206.15" cy="381.23" fill="#fff" r="4" stroke="#000" stroke-linejoin="bevel" stroke-miterlimit="10" stroke-width=".99998"/><circle id="circle1182" cx="161" cy="381.23" fill="#fff" r="4" stroke="#000" stroke-linejoin="bevel" stroke-miterlimit="10" stroke-width=".99998"/><circle id="circle1184" cx="86" cy="381.23" fill="#fff" r="4" stroke="#000" stroke-linejoin="bevel" stroke-miterlimit="10" stroke-width=".99998"/><circle id="circle1186" cx="40.85" cy="381.23" fill="#fff" r="4" stroke="#000" stroke-linejoin="bevel" stroke-miterlimit="10" stroke-width=".99998"/><line id="line1188" stroke="#000" x1="40.85" x2="40.85" y1="378.23" y2="384.23"/><line id="line1190" stroke="#000" x1="43.85" x2="37.85" y1="381.23" y2="381.23"/><line id="line1192" stroke="#000" x1="206.15" x2="206.15" y1="378.23" y2="384.23"/><line id="line1194" stroke="#000" x1="209.15" x2="203.15" y1="381.23" y2="381.23"/><line id="line1196" stroke="#000" x1="161" x2="161" y1="378.23" y2="384.23"/><line id="line1198" stroke="#000" x1="164" x2="158" y1="381.23" y2="381.23"/><line id="line1200" stroke="#000" x1="86" x2="86" y1="378.23" y2="384.23"/><line id="line1202" stroke="#000" x1="89" x2="83" y1="381.23" y2="381.23"/></g></g></svg>