<svg id="svg2" height="450" viewBox="0 0 750 450" width="750" xmlns="http://www.w3.org/2000/svg"><g id="layer1"><g id="edfLeftTop"><rect id="rect4262" fill="#f00" fill-rule="evenodd" height="14" stroke="#f00" stroke-linecap="round" stroke-linejoin="round" width="14" x="3" y="30.5"/><circle id="path4201" cx="10" cy="37.5" fill="#a00000" fill-rule="evenodd" r="4.5" stroke="#a00000" stroke-linecap="square"/><rect id="rect4264" fill="#f00" fill-rule="evenodd" height="10" stroke="#f00" stroke-linecap="square" stroke-linejoin="round" width="10" x="5" y="20.5"/><rect id="rect4197" fill="#c00000" fill-rule="evenodd" height="6" stroke="#c00000" stroke-linecap="square" width="6" x="7" y="22.5"/><rect id="rect4266" fill="#f00" fill-rule="evenodd" height="10" stroke="#f00" stroke-linecap="round" stroke-linejoin="round" width="10" x="5" y="44.5"/><rect id="rect4199" fill="#c00000" fill-rule="evenodd" height="6" stroke="#c00000" stroke-linecap="square" width="6" x="7" y="46.5"/></g><g id="edfRightTop"><rect id="rect4292" fill="#f00" fill-rule="evenodd" height="14" stroke="#f00" stroke-linecap="round" stroke-linejoin="round" width="14" x="733" y="30.5"/><circle id="circle4294" cx="740" cy="37.5" fill="#a00000" fill-rule="evenodd" r="4.5" stroke="#a00000" stroke-linecap="square"/><rect id="rect4296" fill="#f00" fill-rule="evenodd" height="10" stroke="#f00" stroke-linecap="square" stroke-linejoin="round" width="10" x="735" y="20.5"/><rect id="rect4298" fill="#c00000" fill-rule="evenodd" height="6" stroke="#c00000" stroke-linecap="square" width="6" x="737" y="22.5"/><rect id="rect4300" fill="#f00" fill-rule="evenodd" height="10" stroke="#f00" stroke-linecap="round" stroke-linejoin="round" width="10" x="735" y="44.5"/><rect id="rect4302" fill="#c00000" fill-rule="evenodd" height="6" stroke="#c00000" stroke-linecap="square" width="6" x="737" y="46.5"/></g><g id="edfRightBottom"><rect id="rect4320" fill="#f00" fill-rule="evenodd" height="14" stroke="#f00" stroke-linecap="round" stroke-linejoin="round" width="14" x="733" y="405.5"/><circle id="circle4322" cx="740" cy="412.5" fill="#a00000" fill-rule="evenodd" r="4.5" stroke="#a00000" stroke-linecap="square"/><rect id="rect4324" fill="#f00" fill-rule="evenodd" height="10" stroke="#f00" stroke-linecap="square" stroke-linejoin="round" width="10" x="735" y="395.5"/><rect id="rect4326" fill="#c00000" fill-rule="evenodd" height="6" stroke="#c00000" stroke-linecap="square" width="6" x="737" y="397.5"/><rect id="rect4328" fill="#f00" fill-rule="evenodd" height="10" stroke="#f00" stroke-linecap="round" stroke-linejoin="round" width="10" x="735" y="419.5"/><rect id="rect4330" fill="#c00000" fill-rule="evenodd" height="6" stroke="#c00000" stroke-linecap="square" width="6" x="737" y="421.5"/></g><g id="edfLeftBottom"><rect id="rect4334" fill="#f00" fill-rule="evenodd" height="14" stroke="#f00" stroke-linecap="round" stroke-linejoin="round" width="14" x="3" y="405.5"/><circle id="circle4336" cx="10" cy="412.5" fill="#a00000" fill-rule="evenodd" r="4.5" stroke="#a00000" stroke-linecap="square"/><rect id="rect4338" fill="#f00" fill-rule="evenodd" height="10" stroke="#f00" stroke-linecap="square" stroke-linejoin="round" width="10" x="5" y="395.5"/><rect id="rect4340" fill="#c00000" fill-rule="evenodd" height="6" stroke="#c00000" stroke-linecap="square" width="6" x="7" y="397.5"/><rect id="rect4342" fill="#f00" fill-rule="evenodd" height="10" stroke="#f00" stroke-linecap="round" stroke-linejoin="round" width="10" x="5" y="419.5"/><rect id="rect4344" fill="#c00000" fill-rule="evenodd" height="6" stroke="#c00000" stroke-linecap="square" width="6" x="7" y="421.5"/></g><rect id="frontPanel" fill="#c5c7c4" fill-opacity=".8" fill-rule="evenodd" height="450" stroke="#000" stroke-linecap="square" width="750"/><g id="fittingLeftTop"><circle id="circle1-6" cx="10" cy="37.5" fill="#c5c7c4" fill-rule="evenodd" r="4.5" stroke="#000" stroke-linecap="square"/><rect id="rect4169-6" fill="#c5c7c4" fill-rule="evenodd" height="7" stroke="#000" stroke-linecap="square" stroke-width=".5" width="2" x="9" y="22.5"/><rect id="rect4171-7" fill="#c5c7c4" fill-rule="evenodd" height="7" stroke="#000" stroke-linecap="square" stroke-width=".5" width="2" x="9" y="45.5"/><path id="line4144-2" d="m13 37.5h-6m3-3v6" fill="#c5c7c4" stroke="#000"/></g><g id="fittingRightTop"><circle id="circle4592" cx="740" cy="37.5" fill="#c5c7c4" fill-rule="evenodd" r="4.5" stroke="#000" stroke-linecap="square"/><rect id="rect4594" fill="#c5c7c4" fill-rule="evenodd" height="7" stroke="#000" stroke-linecap="square" stroke-width=".5" width="2" x="739" y="22.5"/><rect id="rect4596" fill="#c5c7c4" fill-rule="evenodd" height="7" stroke="#000" stroke-linecap="square" stroke-width=".5" width="2" x="739" y="45.5"/><path id="path4598" d="m743 37.5h-6m3-3v6" fill="#c5c7c4" stroke="#000"/></g><g id="fittingRightBottom"><circle id="circle4602" cx="740" cy="412.5" fill="#c5c7c4" fill-rule="evenodd" r="4.5" stroke="#000" stroke-linecap="square"/><rect id="rect4604" fill="#c5c7c4" fill-rule="evenodd" height="7" stroke="#000" stroke-linecap="square" stroke-width=".5" width="2" x="739" y="397.5"/><rect id="rect4606" fill="#c5c7c4" fill-rule="evenodd" height="7" stroke="#000" stroke-linecap="square" stroke-width=".5" width="2" x="739" y="420.5"/><path id="path4608" d="m743 412.5h-6m3-3v6" fill="#c5c7c4" stroke="#000"/></g><g id="fittingLeftBottom"><circle id="circle4612" cx="10" cy="412.5" fill="#c5c7c4" fill-rule="evenodd" r="4.5" stroke="#000" stroke-linecap="square"/><rect id="rect4614" fill="#c5c7c4" fill-rule="evenodd" height="7" stroke="#000" stroke-linecap="square" stroke-width=".5" width="2" x="9" y="397.5"/><rect id="rect4616" fill="#c5c7c4" fill-rule="evenodd" height="7" stroke="#000" stroke-linecap="square" stroke-width=".5" width="2" x="9" y="420.5"/><path id="path4618" d="m13 412.5h-6m3-3v6" fill="#c5c7c4" stroke="#000"/></g><path id="dTop250" d="m125 20.502a61.25 19.5 0 0 1 -61.25-19.4999h122.5a61.25 19.5 0 0 1 -61.25 19.4999z" fill="none" stroke="#666" stroke-linecap="round" stroke-linejoin="round" stroke-width="2.5"/><path id="dBottom250" d="m125 429.75a61.25 19.5 0 0 0 -61.25 19.5h122.5a61.25 19.5 0 0 0 -61.25-19.5z" fill="none" stroke="#666" stroke-linecap="round" stroke-linejoin="round" stroke-width="2.5"/><path id="dTop500" d="m375 20.502a61.25 19.5 0 0 1 -61.25-19.4999h122.5a61.25 19.5 0 0 1 -61.25 19.4999z" fill="none" stroke="#666" stroke-linecap="round" stroke-linejoin="round" stroke-width="2.5"/><path id="dBottom500" d="m375 429.75a61.25 19.5 0 0 0 -61.25 19.5h122.5a61.25 19.5 0 0 0 -61.25-19.5z" fill="none" stroke="#666" stroke-linecap="round" stroke-linejoin="round" stroke-width="2.5"/><path id="dTop750" d="m625 20.502a61.25 19.5 0 0 1 -61.25-19.4999h122.5a61.25 19.5 0 0 1 -61.25 19.4999z" fill="none" stroke="#666" stroke-linecap="round" stroke-linejoin="round" stroke-width="2.5"/><path id="dBottom750" d="m625 429.75a61.25 19.5 0 0 0 -61.25 19.5h122.5a61.25 19.5 0 0 0 -61.25-19.5z" fill="none" stroke="#666" stroke-linecap="round" stroke-linejoin="round" stroke-width="2.5"/><text id="textTop" font-family="sans-serif" font-size="20" letter-spacing="0" text-anchor="middle" word-spacing="0" x="375.21" y="36"><tspan id="tspan4155" x="375.21" y="36">Text</tspan></text><text id="textBottom" font-family="sans-serif" font-size="20" letter-spacing="0" text-anchor="middle" word-spacing="0" x="375.21" y="427.91"><tspan id="tspan4256" x="375.21" y="428">Text</tspan></text></g></svg>