<svg id="svg2" height="450" viewBox="0 0 750 450" width="750" xmlns="http://www.w3.org/2000/svg"><g id="layer1"><g id="busbars40mm"><g id="copper_40"><rect id="L1_40" fill="#c6782e" height="20" stroke="#000" stroke-linecap="round" stroke-opacity=".27451" stroke-width=".5" width="681" x="34.5" y="60.5"/><rect id="L2_40" fill="#c6782e" height="20" stroke="#000" stroke-linecap="round" stroke-opacity=".27451" stroke-width=".5" width="681" x="34.5" y="100.5"/><rect id="L3_40" fill="#c6782e" height="20" stroke="#000" stroke-linecap="round" stroke-opacity=".27451" stroke-width=".5" width="681" x="34.5" y="140.5"/><rect id="L4_40" fill="#c6782e" height="20" stroke="#000" stroke-linecap="round" stroke-opacity=".27451" stroke-width=".5" width="681" x="34.5" y="180.5"/><rect id="L5_40" fill="#c6782e" height="20" stroke="#000" stroke-linecap="round" stroke-opacity=".27451" stroke-width=".5" width="681" x="34.5" y="220.5"/></g><path id="railTop_40" d="m24 35.5h702v19h-702zm0-3h702v25h-702z" fill="#c0c0c0" stroke="#000" stroke-linecap="square"/><path id="railBottom_40" d="m24 246.5h702v19h-702zm0-3h702v25h-702z" fill="#c0c0c0" stroke="#000" stroke-linecap="square"/><g id="holderLeft_40"><rect id="rect3883" fill="#c0c0c0" height="230" stroke="#000" stroke-linecap="round" stroke-width=".5" width="19" x="35" y="35.5"/><rect id="rect3885" fill="#666" height="197" stroke="#000" stroke-linecap="round" stroke-width=".5" width="17" x="36" y="52"/><circle id="circle3887" cx="44.5" cy="256.75" fill="#fff" fill-rule="evenodd" r="3.5" stroke="#000" stroke-linecap="square"/><line id="line3889" stroke="#000" x1="44.5" x2="44.5" y1="254.75" y2="258.75"/><line id="line3891" stroke="#000" x1="46.5" x2="42.5" y1="256.75" y2="256.75"/><circle id="circle3893" cx="44.5" cy="44.25" fill="#fff" fill-rule="evenodd" r="3.5" stroke="#000" stroke-linecap="square"/><line id="line3895" stroke="#000" x1="44.5" x2="44.5" y1="42.25" y2="46.25"/><line id="line3897" stroke="#000" x1="46.5" x2="42.5" y1="44.25" y2="44.25"/></g><g id="holderCenter_40"><rect id="rect3798" fill="#c0c0c0" height="230" stroke="#000" stroke-linecap="round" stroke-width=".5" width="19" x="365.5" y="35.5"/><rect id="rect3800" fill="#666" height="197" stroke="#000" stroke-linecap="round" stroke-width=".5" width="17" x="366.5" y="52"/><circle id="circle3802" cx="375" cy="256.75" fill="#fff" fill-rule="evenodd" r="3.5" stroke="#000" stroke-linecap="square"/><line id="line3804" stroke="#000" x1="375" x2="375" y1="254.75" y2="258.75"/><line id="line3806" stroke="#000" x1="377" x2="373" y1="256.75" y2="256.75"/><circle id="circle3808" cx="375" cy="44.25" fill="#fff" fill-rule="evenodd" r="3.5" stroke="#000" stroke-linecap="square"/><line id="line3810" stroke="#000" x1="375" x2="375" y1="42.25" y2="46.25"/><line id="line3812" stroke="#000" x1="377" x2="373" y1="44.25" y2="44.25"/></g><g id="holderRight_40"><rect id="rect3901" fill="#c0c0c0" height="230" stroke="#000" stroke-linecap="round" stroke-width=".5" width="19" x="696" y="35.5"/><rect id="rect3903" fill="#666" height="197" stroke="#000" stroke-linecap="round" stroke-width=".5" width="17" x="697" y="52"/><circle id="circle3905" cx="705.5" cy="256.75" fill="#fff" fill-rule="evenodd" r="3.5" stroke="#000" stroke-linecap="square"/><line id="line3907" stroke="#000" x1="705.5" x2="705.5" y1="254.75" y2="258.75"/><line id="line3909" stroke="#000" x1="707.5" x2="703.5" y1="256.75" y2="256.75"/><circle id="circle3911" cx="705.5" cy="44.25" fill="#fff" fill-rule="evenodd" r="3.5" stroke="#000" stroke-linecap="square"/><line id="line3913" stroke="#000" x1="705.5" x2="705.5" y1="42.25" y2="46.25"/><line id="line3915" stroke="#000" x1="707.5" x2="703.5" y1="44.25" y2="44.25"/></g></g><g id="busbars60mm"><g id="copper_60"><rect id="L1_60" fill="#c6782e" height="30" stroke="#000" stroke-linecap="round" stroke-opacity=".27451" stroke-width=".5" width="684" x="33" y="74"/><rect id="L2_60" fill="#c6782e" height="30" stroke="#000" stroke-linecap="round" stroke-opacity=".27451" stroke-width=".5" width="684" x="33" y="134"/><rect id="L3_60" fill="#c6782e" height="30" stroke="#000" stroke-linecap="round" stroke-opacity=".27451" stroke-width=".5" width="684" x="33" y="194"/></g><path id="railTop_60" d="m24 40.5h702v19h-702zm0-3h702v25h-702z" fill="#c0c0c0" stroke="#000" stroke-linecap="square"/><path id="railBottom_60" d="m24 240.5h702v19h-702zm0-3h702v25h-702z" fill="#c0c0c0" stroke="#000" stroke-linecap="square"/><g id="holderLeft_60"><rect id="rect4118" fill="#c0c0c0" height="225" stroke="#000" stroke-linecap="round" stroke-width=".5" width="28" x="30.5" y="37.5"/><rect id="rect4120" fill="#666" height="180" stroke="#000" stroke-linecap="round" stroke-width=".5" width="25" x="32" y="60"/><circle id="circle4122" cx="44.5" cy="251" fill="#fff" fill-rule="evenodd" r="3.5" stroke="#000" stroke-linecap="square"/><line id="line4124" stroke="#000" x1="44.5" x2="44.5" y1="249" y2="253"/><line id="line4126" stroke="#000" x1="46.5" x2="42.5" y1="251" y2="251"/><circle id="circle4128" cx="44.5" cy="49" fill="#fff" fill-rule="evenodd" r="3.5" stroke="#000" stroke-linecap="square"/><line id="line4130" stroke="#000" x1="44.5" x2="44.5" y1="47" y2="51"/><line id="line4132" stroke="#000" x1="46.5" x2="42.5" y1="49" y2="49"/></g><g id="holderCenter_60"><rect id="rect5210" fill="#c0c0c0" height="225" stroke="#000" stroke-linecap="round" stroke-width=".5" width="28" x="361" y="37.5"/><rect id="rect5264" fill="#666" height="180" stroke="#000" stroke-linecap="round" stroke-width=".5" width="25" x="362.5" y="60"/><circle id="circle4174-6" cx="375" cy="251" fill="#fff" fill-rule="evenodd" r="3.5" stroke="#000" stroke-linecap="square"/><line id="line4176-2" stroke="#000" x1="375" x2="375" y1="249" y2="253"/><line id="line4182-8" stroke="#000" x1="377" x2="373" y1="251" y2="251"/><circle id="circle5242" cx="375" cy="49" fill="#fff" fill-rule="evenodd" r="3.5" stroke="#000" stroke-linecap="square"/><line id="line5244" stroke="#000" x1="375" x2="375" y1="47" y2="51"/><line id="line5246" stroke="#000" x1="377" x2="373" y1="49" y2="49"/></g><g id="holderRight_60"><rect id="rect4136" fill="#c0c0c0" height="225" stroke="#000" stroke-linecap="round" stroke-width=".5" width="28" x="691.5" y="37.5"/><rect id="rect4138" fill="#666" height="180" stroke="#000" stroke-linecap="round" stroke-width=".5" width="25" x="693" y="60"/><circle id="circle4140" cx="705.5" cy="251" fill="#fff" fill-rule="evenodd" r="3.5" stroke="#000" stroke-linecap="square"/><line id="line4142" stroke="#000" x1="705.5" x2="705.5" y1="249" y2="253"/><line id="line4145" stroke="#000" x1="707.5" x2="703.5" y1="251" y2="251"/><circle id="circle4147" cx="705.5" cy="49" fill="#fff" fill-rule="evenodd" r="3.5" stroke="#000" stroke-linecap="square"/><line id="line4149" stroke="#000" x1="705.5" x2="705.5" y1="47" y2="51"/><line id="line4151" stroke="#000" x1="707.5" x2="703.5" y1="49" y2="49"/></g></g><g id="busbars100mm"><rect id="holderLeft_100" fill="#c0c0c0" height="285" stroke="#000" stroke-linecap="round" stroke-width=".5" width="22" x="33" y="82.5"/><rect id="holderRight_100" fill="#c0c0c0" height="285" stroke="#000" stroke-linecap="round" stroke-width=".5" width="22" x="695" y="82.5"/><g id="copper_100"><rect id="L1_100" fill="#c6782e" height="40" stroke="#000" stroke-linecap="round" stroke-opacity=".27451" stroke-width=".5" width="684" x="33" y="105"/><rect id="L2_100" fill="#c6782e" height="40" stroke="#000" stroke-linecap="round" stroke-opacity=".27451" stroke-width=".5" width="684" x="33" y="205"/><rect id="L3_100" fill="#c6782e" height="40" stroke="#000" stroke-linecap="round" stroke-opacity=".27451" stroke-width=".5" width="684" x="33" y="305"/><path id="boltLeftL1_100" d="m36.79 125 3.89-6.25h6.62l3.91 6.25-3.91 6.25h-6.62z" fill="#c0c0c0" stroke="#000" stroke-width=".99992"/><path id="boltRightL1_100" d="m698.79 125 3.89-6.25h6.62l3.91 6.25-3.91 6.25h-6.62z" fill="#c0c0c0" stroke="#000" stroke-width=".99992"/><path id="boltLeftL2_100" d="m36.79 225 3.89-6.25h6.62l3.91 6.25-3.91 6.25h-6.62z" fill="#c0c0c0" stroke="#000" stroke-width=".99992"/><path id="boltRightL2_100" d="m698.79 225 3.89-6.25h6.62l3.91 6.25-3.91 6.25h-6.62z" fill="#c0c0c0" stroke="#000" stroke-width=".99992"/><path id="boltLeftL3_100" d="m36.79 325 3.89-6.25h6.62l3.91 6.25-3.91 6.25h-6.62z" fill="#c0c0c0" stroke="#000" stroke-width=".99992"/><path id="boltRightL3_100" d="m698.79 325 3.89-6.25h6.62l3.91 6.25-3.91 6.25h-6.62z" fill="#c0c0c0" stroke="#000" stroke-width=".99992"/></g></g></g></svg>