<svg id="ModuleDinRail" enable-background="new 0 0 750 750" height="750" viewBox="0 0 750 750" width="750" xmlns="http://www.w3.org/2000/svg"><g id="layer1"><g id="edfLeftTop"><rect id="rect4262" fill="#f00" fill-rule="evenodd" height="14" stroke="#f00" stroke-linecap="round" stroke-linejoin="round" width="14" x="3" y="30.5"/><circle id="path4201" cx="10" cy="37.5" fill="#a00000" fill-rule="evenodd" r="4.5" stroke="#a00000" stroke-linecap="square"/><rect id="rect4264" fill="#f00" fill-rule="evenodd" height="10" stroke="#f00" stroke-linecap="square" stroke-linejoin="round" width="10" x="5" y="20.5"/><rect id="rect4197" fill="#c00000" fill-rule="evenodd" height="6" stroke="#c00000" stroke-linecap="square" width="6" x="7" y="22.5"/><rect id="rect4266" fill="#f00" fill-rule="evenodd" height="10" stroke="#f00" stroke-linecap="round" stroke-linejoin="round" width="10" x="5" y="44.5"/><rect id="rect4199" fill="#c00000" fill-rule="evenodd" height="6" stroke="#c00000" stroke-linecap="square" width="6" x="7" y="46.5"/></g><g id="edfRightTop"><rect id="rect4292" fill="#f00" fill-rule="evenodd" height="14" stroke="#f00" stroke-linecap="round" stroke-linejoin="round" width="14" x="733" y="30.5"/><circle id="circle4294" cx="740" cy="37.5" fill="#a00000" fill-rule="evenodd" r="4.5" stroke="#a00000" stroke-linecap="square"/><rect id="rect4296" fill="#f00" fill-rule="evenodd" height="10" stroke="#f00" stroke-linecap="square" stroke-linejoin="round" width="10" x="735" y="20.5"/><rect id="rect4298" fill="#c00000" fill-rule="evenodd" height="6" stroke="#c00000" stroke-linecap="square" width="6" x="737" y="22.5"/><rect id="rect4300" fill="#f00" fill-rule="evenodd" height="10" stroke="#f00" stroke-linecap="round" stroke-linejoin="round" width="10" x="735" y="44.5"/><rect id="rect4302" fill="#c00000" fill-rule="evenodd" height="6" stroke="#c00000" stroke-linecap="square" width="6" x="737" y="46.5"/></g><g id="edfRightBottom"><rect id="rect4320" fill="#f00" fill-rule="evenodd" height="14" stroke="#f00" stroke-linecap="round" stroke-linejoin="round" width="14" x="733" y="705.5"/><circle id="circle4322" cx="740" cy="712.5" fill="#a00000" fill-rule="evenodd" r="4.5" stroke="#a00000" stroke-linecap="square"/><rect id="rect4324" fill="#f00" fill-rule="evenodd" height="10" stroke="#f00" stroke-linecap="square" stroke-linejoin="round" width="10" x="735" y="695.5"/><rect id="rect4326" fill="#c00000" fill-rule="evenodd" height="6" stroke="#c00000" stroke-linecap="square" width="6" x="737" y="697.5"/><rect id="rect4328" fill="#f00" fill-rule="evenodd" height="10" stroke="#f00" stroke-linecap="round" stroke-linejoin="round" width="10" x="735" y="719.5"/><rect id="rect4330" fill="#c00000" fill-rule="evenodd" height="6" stroke="#c00000" stroke-linecap="square" width="6" x="737" y="721.5"/></g><g id="edfLeftBottom"><rect id="rect4334" fill="#f00" fill-rule="evenodd" height="14" stroke="#f00" stroke-linecap="round" stroke-linejoin="round" width="14" x="3" y="705.5"/><circle id="circle4336" cx="10" cy="712.5" fill="#a00000" fill-rule="evenodd" r="4.5" stroke="#a00000" stroke-linecap="square"/><rect id="rect4338" fill="#f00" fill-rule="evenodd" height="10" stroke="#f00" stroke-linecap="square" stroke-linejoin="round" width="10" x="5" y="695.5"/><rect id="rect4340" fill="#c00000" fill-rule="evenodd" height="6" stroke="#c00000" stroke-linecap="square" width="6" x="7" y="697.5"/><rect id="rect4342" fill="#f00" fill-rule="evenodd" height="10" stroke="#f00" stroke-linecap="round" stroke-linejoin="round" width="10" x="5" y="719.5"/><rect id="rect4344" fill="#c00000" fill-rule="evenodd" height="6" stroke="#c00000" stroke-linecap="square" width="6" x="7" y="721.5"/></g><g id="rowSpacing125" fill="#c5c7c4" fill-opacity=".8" stroke="#000" stroke-linecap="square"><g id="rs125_750"><path id="frontPanel_750x750_125" d="m0 0v750h750v-750zm25 102h216v46h-216zm242 0h216v46h-216zm242 0h216v46h-216zm-484 125h216v46h-216zm242 0h216v46h-216zm242 0h216v46h-216zm-484 125h216v46h-216zm242 0h216v46h-216zm242 0h216v46h-216zm-484 125h216v46h-216zm242 0h216v46h-216zm242 0h216v46h-216zm-484 125h216v46h-216zm242 0h216v46h-216zm242 0h216v46h-216z"/><path id="frontPanel_750x600_125" d="m0 0v600h750v-600zm25 89.5h216v46h-216zm242 0h216v46h-216zm242 0h216v46h-216zm-484 125h216v46h-216zm242 0h216v46h-216zm242 0h216v46h-216zm-484 125h216v46h-216zm242 0h216v46h-216zm242 0h216v46h-216zm-484 125h216v46h-216zm242 0h216v46h-216zm242 0h216v46h-216z"/><path id="frontPanel_750x450_125" d="m0 0v450h750v-450zm25 77h216v46h-216zm242 0h216v46h-216zm242 0h216v46h-216zm-484 125h216v46h-216zm242 0h216v46h-216zm242 0h216v46h-216zm-484 125h216v46h-216zm242 0h216v46h-216zm242 0h216v46h-216z"/><path id="frontPanel_750x300_125" d="m0 0v300h750v-300zm25 64.5h216v46h-216zm242 0h216v46h-216zm242 0h216v46h-216zm-484 125h216v46h-216zm242 0h216v46h-216zm242 0h216v46h-216z"/><path id="frontPanel_750x150_125" d="m0 0v150h750v-150zm25 52h216v46h-216zm242 0h216v46h-216zm242 0h216v46h-216z"/></g><g id="rs125_500"><path id="frontPanel_500x750_125" d="m0 0v750h500v-750zm25 102h216v46h-216zm234 0h216v46h-216zm-234 125h216v46h-216zm234 0h216v46h-216zm-234 125h216v46h-216zm234 0h216v46h-216zm-234 125h216v46h-216zm234 0h216v46h-216zm-234 125h216v46h-216zm234 0h216v46h-216z"/><path id="frontPanel_500x600_125" d="m0 0v600h500v-600zm25 89.5h216v46h-216zm234 0h216v46h-216zm-234 125h216v46h-216zm234 0h216v46h-216zm-234 125h216v46h-216zm234 0h216v46h-216zm-234 125h216v46h-216zm234 0h216v46h-216z"/><path id="frontPanel_500x450_125" d="m0 0v450h500v-450zm25 77h216v46h-216zm234 0h216v46h-216zm-234 125h216v46h-216zm234 0h216v46h-216zm-234 125h216v46h-216zm234 0h216v46h-216z"/><path id="frontPanel_500x300_125" d="m0 0v300h500v-300zm25 64.5h216v46h-216zm234 0h216v46h-216zm-234 125h216v46h-216zm234 0h216v46h-216z"/><path id="frontPanel_500x150_125" d="m0 0v150h500v-150zm25 52h216v46h-216zm234 0h216v46h-216z"/></g><g id="rs125_250"><path id="frontPanel_250x750_125" d="m0 0v750h250v-750zm17 102h216v46h-216zm0 125h216v46h-216zm0 125h216v46h-216zm0 125h216v46h-216zm0 125h216v46h-216z"/><path id="frontPanel_250x600_125" d="m0 0v600h250v-600zm17 89.5h216v46h-216zm0 125h216v46h-216zm0 125h216v46h-216zm0 125h216v46h-216z"/><path id="frontPanel_250x450_125" d="m0 0v450h250v-450zm17 77h216v46h-216zm0 125h216v46h-216zm0 125h216v46h-216z"/><path id="frontPanel_250x300_125" d="m0 0v300h250v-300zm17 64.5h216v46h-216zm0 125h216v46h-216z"/><path id="frontPanel_250x150_125" d="m0 0v150h250v-150zm17 52h216v46h-216z"/></g></g><g id="rowSpacing150" fill="#c5c7c4" fill-opacity=".8" stroke="#000" stroke-linecap="square"><g id="rs150_750"><path id="frontPanel_750x750_150" d="m0 0v750h750v-750zm25 52h216v46h-216zm242 0h216v46h-216zm242 0h216v46h-216zm-484 150h216v46h-216zm242 0h216v46h-216zm242 0h216v46h-216zm-484 150h216v46h-216zm242 0h216v46h-216zm242 0h216v46h-216zm-484 150h216v46h-216zm242 0h216v46h-216zm242 0h216v46h-216zm-484 150h216v46h-216zm242 0h216v46h-216zm242 0h216v46h-216z"/><path id="frontPanel_750x600_150" d="m0 0v600h750v-600zm25 52h216v46h-216zm242 0h216v46h-216zm242 0h216v46h-216zm-484 150h216v46h-216zm242 0h216v46h-216zm242 0h216v46h-216zm-484 150h216v46h-216zm242 0h216v46h-216zm242 0h216v46h-216zm-484 150h216v46h-216zm242 0h216v46h-216zm242 0h216v46h-216z"/><path id="frontPanel_750x450_150" d="m0 0v450h750v-450zm25 52h216v46h-216zm242 0h216v46h-216zm242 0h216v46h-216zm-484 150h216v46h-216zm242 0h216v46h-216zm242 0h216v46h-216zm-484 150h216v46h-216zm242 0h216v46h-216zm242 0h216v46h-216z"/><path id="frontPanel_750x300_150" d="m0 0v300h750v-300zm25 52h216v46h-216zm242 0h216v46h-216zm242 0h216v46h-216zm-484 150h216v46h-216zm242 0h216v46h-216zm242 0h216v46h-216z"/><path id="frontPanel_750x150_150" d="m0 0v150h750v-150zm25 52h216v46h-216zm242 0h216v46h-216zm242 0h216v46h-216z"/></g><g id="rs150_500"><path id="frontPanel_500x750_150" d="m0 0v750h500v-750zm25 52h216v46h-216zm234 0h216v46h-216zm-234 150h216v46h-216zm234 0h216v46h-216zm-234 150h216v46h-216zm234 0h216v46h-216zm-234 150h216v46h-216zm234 0h216v46h-216zm-234 150h216v46h-216zm234 0h216v46h-216z"/><path id="frontPanel_500x600_150" d="m0 0v600h500v-600zm25 52h216v46h-216zm234 0h216v46h-216zm-234 150h216v46h-216zm234 0h216v46h-216zm-234 150h216v46h-216zm234 0h216v46h-216zm-234 150h216v46h-216zm234 0h216v46h-216z"/><path id="frontPanel_500x450_150" d="m0 0v450h500v-450zm25 52h216v46h-216zm234 0h216v46h-216zm-234 150h216v46h-216zm234 0h216v46h-216zm-234 150h216v46h-216zm234 0h216v46h-216z"/><path id="frontPanel_500x300_150" d="m0 0v300h500v-300zm25 52h216v46h-216zm234 0h216v46h-216zm-234 150h216v46h-216zm234 0h216v46h-216z"/><path id="frontPanel_500x150_150" d="m0 0v150h500v-150zm25 52h216v46h-216zm234 0h216v46h-216z"/></g><g id="rs150_250"><path id="frontPanel_250x750_150" d="m0 0v750h250v-750zm17 52h216v46h-216zm0 150h216v46h-216zm0 150h216v46h-216zm0 150h216v46h-216zm0 150h216v46h-216z"/><path id="frontPanel_250x600_150" d="m0 0v600h250v-600zm17 52h216v46h-216zm0 150h216v46h-216zm0 150h216v46h-216zm0 150h216v46h-216z"/><path id="frontPanel_250x450_150" d="m0 0v450h250v-450zm17 52h216v46h-216zm0 150h216v46h-216zm0 150h216v46h-216z"/><path id="frontPanel_250x300_150" d="m0 0v300h250v-300zm17 52h216v46h-216zm0 150h216v46h-216z"/><path id="frontPanel_250x150_150" d="m0 0v150h250v-150zm17 52h216v46h-216z"/></g></g><g id="fittingLeftTop"><circle id="circle1-0" cx="10" cy="37.5" fill="#c5c7c4" fill-rule="evenodd" r="4.5" stroke="#000" stroke-linecap="square"/><rect id="rect4169-63" fill="#c5c7c4" fill-rule="evenodd" height="7" stroke="#000" stroke-linecap="square" stroke-width=".5" width="2" x="9" y="22.5"/><rect id="rect4171-7" fill="#c5c7c4" fill-rule="evenodd" height="7" stroke="#000" stroke-linecap="square" stroke-width=".5" width="2" x="9" y="45.5"/><path id="line4144-6" d="m13 37.5h-6m3-3v6" fill="#c5c7c4" stroke="#000"/></g><g id="fittingRightTop"><circle id="circle3843" cx="740" cy="37.5" fill="#c5c7c4" fill-rule="evenodd" r="4.5" stroke="#000" stroke-linecap="square"/><rect id="rect3845" fill="#c5c7c4" fill-rule="evenodd" height="7" stroke="#000" stroke-linecap="square" stroke-width=".5" width="2" x="739" y="22.5"/><rect id="rect3847" fill="#c5c7c4" fill-rule="evenodd" height="7" stroke="#000" stroke-linecap="square" stroke-width=".5" width="2" x="739" y="45.5"/><path id="path3849" d="m743 37.5h-6m3-3v6" fill="#c5c7c4" stroke="#000"/></g><g id="fittingRightBottom"><circle id="circle3863" cx="740" cy="712.5" fill="#c5c7c4" fill-rule="evenodd" r="4.5" stroke="#000" stroke-linecap="square"/><rect id="rect3865" fill="#c5c7c4" fill-rule="evenodd" height="7" stroke="#000" stroke-linecap="square" stroke-width=".5" width="2" x="739" y="697.5"/><rect id="rect3867" fill="#c5c7c4" fill-rule="evenodd" height="7" stroke="#000" stroke-linecap="square" stroke-width=".5" width="2" x="739" y="720.5"/><path id="path3869" d="m743 712.5h-6m3-3v6" fill="#c5c7c4" stroke="#000"/></g><g id="fittingLeftBottom"><circle id="circle3883" cx="10" cy="712.5" fill="#c5c7c4" fill-rule="evenodd" r="4.5" stroke="#000" stroke-linecap="square"/><rect id="rect3885" fill="#c5c7c4" fill-rule="evenodd" height="7" stroke="#000" stroke-linecap="square" stroke-width=".5" width="2" x="9" y="697.5"/><rect id="rect3887" fill="#c5c7c4" fill-rule="evenodd" height="7" stroke="#000" stroke-linecap="square" stroke-width=".5" width="2" x="9" y="720.5"/><path id="path3889" d="m13 712.5h-6m3-3v6" fill="#c5c7c4" stroke="#000"/></g><path id="dTop250" d="m63.75.75a61.25 19.5 0 0 0 61.25 19.5 61.25 19.5 0 0 0 61.25-19.5z" fill="none" stroke="#666" stroke-width="2.5"/><path id="dBottom250" d="m125 729.75a61.25 19.5 0 0 0 -61.25 19.5h122.5a61.25 19.5 0 0 0 -61.25-19.5z" fill="none" stroke="#666" stroke-width="2.5"/><path id="dTop500" d="m313.75.75a61.25 19.5 0 0 0 61.25 19.5 61.25 19.5 0 0 0 61.25-19.5z" fill="none" stroke="#666" stroke-width="2.5"/><path id="dBottom500" d="m375 729.75a61.25 19.5 0 0 0 -61.25 19.5h122.5a61.25 19.5 0 0 0 -61.25-19.5z" fill="none" stroke="#666" stroke-width="2.5"/><path id="dTop750" d="m563.75.75a61.25 19.5 0 0 0 61.25 19.5 61.25 19.5 0 0 0 61.25-19.5z" fill="none" stroke="#666" stroke-width="2.5"/><path id="dBottom750" d="m625 729.75a61.25 19.5 0 0 0 -61.25 19.5h122.5a61.25 19.5 0 0 0 -61.25-19.5z" fill="none" stroke="#666" stroke-width="2.5"/><text id="textTop" font-family="sans-serif" font-size="20" letter-spacing="0" text-anchor="middle" word-spacing="0" x="375.21" y="36.041"><tspan id="tspan4155" x="375.21" y="36.041">Text</tspan></text><text id="textBottom" font-family="sans-serif" font-size="20" letter-spacing="0" text-anchor="middle" word-spacing="0" x="375.21" y="727.25"><tspan id="tspan4273" x="375.21" y="727.25">Text</tspan></text></g></svg>