<svg id="svg2" enable-background="new 0 0 500 450" height="450" viewBox="0 0 250 450" width="250" xmlns="http://www.w3.org/2000/svg"><g id="layer1"><g id="mbbModule"><g id="handels"><path id="path3885" d="m219.4 117.98v39.01h30.6v-39.01zm20.6 4.06c1.66 0 3 1.34 3 3s-1.34 3-3 3-3-1.34-3-3 1.34-3 3-3zm0 25c1.66 0 3 1.33 3 3 0 1.65-1.34 3-3 3s-3-1.35-3-3c0-1.67 1.34-3 3-3z" fill="#c5c7c4" fill-opacity=".8" stroke="#000" stroke-linejoin="bevel" stroke-width=".8"/><path id="path3892" d="m0 118.01v39h30.6v-39zm10 4c1.66 0 3 1.34 3 3s-1.34 3-3 3-3-1.34-3-3 1.34-3 3-3zm0 25c1.66 0 3 1.35 3 3 0 1.67-1.34 3-3 3s-3-1.33-3-3c0-1.65 1.34-3 3-3z" fill="#c5c7c4" fill-opacity=".8" stroke="#000" stroke-linejoin="bevel" stroke-width=".8"/><path id="path3895" d="m219.4 292.99v39h30.6v-39zm20.6 4.05c1.66 0 3 1.33 3 3 0 1.66-1.34 3-3 3s-3-1.34-3-3c0-1.67 1.34-3 3-3zm0 25c1.66 0 3 1.33 3 3 0 1.66-1.34 3-3 3s-3-1.34-3-3c0-1.67 1.34-3 3-3z" fill="#c5c7c4" fill-opacity=".8" stroke="#000" stroke-linejoin="bevel" stroke-width=".8"/><path id="path3897" d="m0 293.01v39h30.6v-39zm10 4c1.66 0 3 1.34 3 3 0 1.67-1.34 3-3 3s-3-1.33-3-3c0-1.66 1.34-3 3-3zm0 25c1.66 0 3 1.34 3 3 0 1.67-1.34 3-3 3s-3-1.33-3-3c0-1.66 1.34-3 3-3z" fill="#c5c7c4" fill-opacity=".8" stroke="#000" stroke-linejoin="bevel" stroke-width=".8"/></g><rect id="mountingPlate" fill="#c0c0c0" height="346" ry="3.3792" stroke="#000" stroke-linejoin="round" stroke-miterlimit="10" width="187" x="31.5" y="52"/><g id="L1"><path id="rect4708" d="m49.926 290v130h30v-130zm15 109.25a5.7498 5.7501 0 0 1 5.748 5.75 5.7498 5.7501 0 0 1 -5.748 5.75 5.7498 5.7501 0 0 1 -5.75-5.75 5.7498 5.7501 0 0 1 5.75-5.75z" fill="#c6782e" stroke="#000" stroke-linejoin="bevel"/><path id="rect4667" d="m49.926 30v160h30v-160zm15 9.25a5.7498 5.7501 0 0 1 5.748 5.75 5.7498 5.7501 0 0 1 -5.748 5.75 5.7498 5.7501 0 0 1 -5.75-5.75 5.7498 5.7501 0 0 1 5.75-5.75z" fill="#c6782e" stroke="#000" stroke-linejoin="bevel"/><rect id="rect4700" fill="#c6782e" height="160" stroke="#000" stroke-linejoin="bevel" width="30" x="49.93" y="160"/><path id="path4788" d="m55.32 305 5.08-8.36h9l5.13 8.18-5.13 8.56h-9zm21.11 0a11.5 11.5 0 0 1 -11.5 11.5 11.5 11.5 0 0 1 -11.5-11.5 11.5 11.5 0 0 1 11.5-11.5 11.5 11.5 0 0 1 11.5 11.5z" fill="#ccc" stroke="#000" stroke-width=".9999"/><path id="path4802" d="m55.32 175.01 5.08-8.36h9l5.13 8.18-5.13 8.56h-9zm21.11 0a11.5 11.5 0 0 1 -11.5 11.5 11.5 11.5 0 0 1 -11.5-11.5 11.5 11.5 0 0 1 11.5-11.5 11.5 11.5 0 0 1 11.5 11.5z" fill="#ccc" stroke="#000" stroke-width=".9999"/></g><g id="L2"><path id="rect4724" d="m110 260v160h30v-160zm15 139.25a5.7498 5.7501 0 0 1 5.75 5.75 5.7498 5.7501 0 0 1 -5.75 5.75 5.7498 5.7501 0 0 1 -5.75-5.75 5.7498 5.7501 0 0 1 5.75-5.75z" fill="#c6782e" stroke="#000" stroke-linejoin="bevel"/><path id="rect4740" d="m110 30v130h30v-130zm15 9.25a5.7498 5.7501 0 0 1 5.75 5.75 5.7498 5.7501 0 0 1 -5.75 5.75 5.7498 5.7501 0 0 1 -5.75-5.75 5.7498 5.7501 0 0 1 5.75-5.75z" fill="#c6782e" stroke="#000" stroke-linejoin="bevel"/><rect id="rect4732" fill="#c6782e" height="160" stroke="#000" stroke-linejoin="bevel" width="30" x="110" y="130"/><path id="path4592" d="m115.39 275 5.08-8.36h9l5.13 8.18-5.13 8.56h-9zm21.11 0a11.5 11.5 0 0 1 -11.5 11.5 11.5 11.5 0 0 1 -11.5-11.5 11.5 11.5 0 0 1 11.5-11.5 11.5 11.5 0 0 1 11.5 11.5z" fill="#ccc" stroke="#000" stroke-width=".9999"/><path id="path4786" d="m115.39 145 5.08-8.36h9l5.13 8.18-5.13 8.56h-9zm21.11 0a11.5 11.5 0 0 1 -11.5 11.5 11.5 11.5 0 0 1 -11.5-11.5 11.5 11.5 0 0 1 11.5-11.5 11.5 11.5 0 0 1 11.5 11.5z" fill="#ccc" stroke="#000" stroke-width=".9999"/></g><g id="L3"><path id="rect4748" d="m170.07 290v130h30v-130zm15 109.25a5.7498 5.7501 0 0 1 5.75 5.75 5.7498 5.7501 0 0 1 -5.75 5.75 5.7498 5.7501 0 0 1 -5.75-5.75 5.7498 5.7501 0 0 1 5.75-5.75z" fill="#c6782e" stroke="#000" stroke-linejoin="bevel"/><path id="rect4756" d="m170.07 30v160h30v-160zm15 9.25a5.7498 5.7501 0 0 1 5.75 5.75 5.7498 5.7501 0 0 1 -5.75 5.75 5.7498 5.7501 0 0 1 -5.75-5.75 5.7498 5.7501 0 0 1 5.75-5.75z" fill="#c6782e" stroke="#000" stroke-linejoin="bevel"/><rect id="rect4764" fill="#c6782e" height="160" stroke="#000" stroke-linejoin="bevel" width="30" x="170.07" y="160"/><path id="path4553" d="m175.46 305 5.08-8.36h9l5.13 8.18-5.13 8.56h-9zm21.11 0a11.5 11.5 0 0 1 -11.5 11.5 11.5 11.5 0 0 1 -11.5-11.5 11.5 11.5 0 0 1 11.5-11.5 11.5 11.5 0 0 1 11.5 11.5z" fill="#ccc" stroke="#000" stroke-width=".9999"/><path id="path4770" d="m175.46 175.01 5.08-8.36h9l5.13 8.18-5.13 8.56h-9zm21.11 0a11.5 11.5 0 0 1 -11.5 11.5 11.5 11.5 0 0 1 -11.5-11.5 11.5 11.5 0 0 1 11.5-11.5 11.5 11.5 0 0 1 11.5 11.5z" fill="#ccc" stroke="#000" stroke-width=".9999"/></g><g id="holderTop1"><rect id="rect5283" fill="#c0c0c0" height="15.3" ry="3.3792" stroke="#000" stroke-linejoin="round" stroke-miterlimit="10" width="178" x="36" y="54"/><circle id="circle5285" cx="207.65" cy="61.65" fill="#fff" r="4" stroke="#000" stroke-linejoin="bevel" stroke-miterlimit="10" stroke-width=".99998"/><circle id="circle5287" cx="162.5" cy="61.65" fill="#fff" r="4" stroke="#000" stroke-linejoin="bevel" stroke-miterlimit="10" stroke-width=".99998"/><circle id="circle5289" cx="87.5" cy="61.65" fill="#fff" r="4" stroke="#000" stroke-linejoin="bevel" stroke-miterlimit="10" stroke-width=".99998"/><circle id="circle5291" cx="42.35" cy="61.65" fill="#fff" r="4" stroke="#000" stroke-linejoin="bevel" stroke-miterlimit="10" stroke-width=".99998"/><line id="line5293" stroke="#000" x1="42.35" x2="42.35" y1="58.65" y2="64.65"/><line id="line5295" stroke="#000" x1="45.35" x2="39.35" y1="61.65" y2="61.65"/><line id="line5299" stroke="#000" x1="207.65" x2="207.65" y1="58.65" y2="64.65"/><line id="line5301" stroke="#000" x1="210.65" x2="204.65" y1="61.65" y2="61.65"/><line id="line5305" stroke="#000" x1="162.5" x2="162.5" y1="58.65" y2="64.65"/><line id="line5307" stroke="#000" x1="165.5" x2="159.5" y1="61.65" y2="61.65"/><line id="line5311" stroke="#000" x1="87.5" x2="87.5" y1="58.65" y2="64.65"/><line id="line5313" stroke="#000" x1="90.5" x2="84.5" y1="61.65" y2="61.65"/></g><g id="holderTop2"><rect id="rect4859" fill="#c0c0c0" height="15.3" ry="3.3792" stroke="#000" stroke-linejoin="round" stroke-miterlimit="10" width="178" x="36" y="114.7"/><circle id="circle4861" cx="207.65" cy="122.35" fill="#fff" r="4" stroke="#000" stroke-linejoin="bevel" stroke-miterlimit="10" stroke-width=".99998"/><circle id="circle4863" cx="162.5" cy="122.35" fill="#fff" r="4" stroke="#000" stroke-linejoin="bevel" stroke-miterlimit="10" stroke-width=".99998"/><circle id="circle4865" cx="87.5" cy="122.35" fill="#fff" r="4" stroke="#000" stroke-linejoin="bevel" stroke-miterlimit="10" stroke-width=".99998"/><circle id="circle4867" cx="42.35" cy="122.35" fill="#fff" r="4" stroke="#000" stroke-linejoin="bevel" stroke-miterlimit="10" stroke-width=".99998"/><line id="line4869" stroke="#000" x1="42.35" x2="42.35" y1="119.35" y2="125.35"/><line id="line4871" stroke="#000" x1="45.35" x2="39.35" y1="122.35" y2="122.35"/><line id="line4873" stroke="#000" x1="207.65" x2="207.65" y1="119.35" y2="125.35"/><line id="line4875" stroke="#000" x1="210.65" x2="204.65" y1="122.35" y2="122.35"/><line id="line4877" stroke="#000" x1="162.5" x2="162.5" y1="119.35" y2="125.35"/><line id="line4879" stroke="#000" x1="165.5" x2="159.5" y1="122.35" y2="122.35"/><line id="line4881" stroke="#000" x1="87.5" x2="87.5" y1="119.35" y2="125.35"/><line id="line4883" stroke="#000" x1="90.5" x2="84.5" y1="122.35" y2="122.35"/></g><g id="holderBottom1"><rect id="rect4887" fill="#c0c0c0" height="15.3" ry="3.3792" stroke="#000" stroke-linejoin="round" stroke-miterlimit="10" width="178" x="36" y="320"/><circle id="circle4889" cx="207.65" cy="327.65" fill="#fff" r="4" stroke="#000" stroke-linejoin="bevel" stroke-miterlimit="10" stroke-width=".99998"/><circle id="circle4891" cx="162.5" cy="327.65" fill="#fff" r="4" stroke="#000" stroke-linejoin="bevel" stroke-miterlimit="10" stroke-width=".99998"/><circle id="circle4893" cx="87.5" cy="327.65" fill="#fff" r="4" stroke="#000" stroke-linejoin="bevel" stroke-miterlimit="10" stroke-width=".99998"/><circle id="circle4895" cx="42.35" cy="327.65" fill="#fff" r="4" stroke="#000" stroke-linejoin="bevel" stroke-miterlimit="10" stroke-width=".99998"/><line id="line4897" stroke="#000" x1="42.35" x2="42.35" y1="324.65" y2="330.65"/><line id="line4899" stroke="#000" x1="45.35" x2="39.35" y1="327.65" y2="327.65"/><line id="line4901" stroke="#000" x1="207.65" x2="207.65" y1="324.65" y2="330.65"/><line id="line4903" stroke="#000" x1="210.65" x2="204.65" y1="327.65" y2="327.65"/><line id="line4905" stroke="#000" x1="162.5" x2="162.5" y1="324.65" y2="330.65"/><line id="line4907" stroke="#000" x1="165.5" x2="159.5" y1="327.65" y2="327.65"/><line id="line4909" stroke="#000" x1="87.5" x2="87.5" y1="324.65" y2="330.65"/><line id="line4911" stroke="#000" x1="90.5" x2="84.5" y1="327.65" y2="327.65"/></g><g id="holderBottom2"><rect id="rect4915" fill="#c0c0c0" height="15.3" ry="3.3792" stroke="#000" stroke-linejoin="round" stroke-miterlimit="10" width="178" x="36" y="380.7"/><circle id="circle4917" cx="207.65" cy="388.35" fill="#fff" r="4" stroke="#000" stroke-linejoin="bevel" stroke-miterlimit="10" stroke-width=".99998"/><circle id="circle4919" cx="162.5" cy="388.35" fill="#fff" r="4" stroke="#000" stroke-linejoin="bevel" stroke-miterlimit="10" stroke-width=".99998"/><circle id="circle4921" cx="87.5" cy="388.35" fill="#fff" r="4" stroke="#000" stroke-linejoin="bevel" stroke-miterlimit="10" stroke-width=".99998"/><circle id="circle4923" cx="42.35" cy="388.35" fill="#fff" r="4" stroke="#000" stroke-linejoin="bevel" stroke-miterlimit="10" stroke-width=".99998"/><line id="line4925" stroke="#000" x1="42.35" x2="42.35" y1="385.35" y2="391.35"/><line id="line4927" stroke="#000" x1="45.35" x2="39.35" y1="388.35" y2="388.35"/><line id="line4929" stroke="#000" x1="207.65" x2="207.65" y1="385.35" y2="391.35"/><line id="line4931" stroke="#000" x1="210.65" x2="204.65" y1="388.35" y2="388.35"/><line id="line4933" stroke="#000" x1="162.5" x2="162.5" y1="385.35" y2="391.35"/><line id="line4935" stroke="#000" x1="165.5" x2="159.5" y1="388.35" y2="388.35"/><line id="line4937" stroke="#000" x1="87.5" x2="87.5" y1="385.35" y2="391.35"/><line id="line4939" stroke="#000" x1="90.5" x2="84.5" y1="388.35" y2="388.35"/></g></g><g id="E27"><rect id="rect5522" fill="#c0c0c0" height="42" stroke="#000" stroke-linejoin="bevel" stroke-width=".5" width="194.5" x="33.9" y="336.84"/><path id="circle4495" d="m217.15 357.34a19 19 0 0 0 -19-19 19 19 0 0 0 -19 19 19 19 0 0 0 19 19 19 19 0 0 0 19-19zm-67 0a19 19 0 0 0 -19-19 19 19 0 0 0 -19 19 19 19 0 0 0 19 19 19 19 0 0 0 19-19zm-66.998 0a19 19 0 0 0 -19-19 19 19 0 0 0 -19 19 19 19 0 0 0 19 19 19 19 0 0 0 19-19z" fill="#f2f2f2" stroke="#4d4d4d" stroke-linecap="round" stroke-linejoin="round" stroke-width=".5"/><path id="circle4497" d="m213.27 357.34a15.114 15.114 0 0 0 -15.12-15.12 15.114 15.114 0 0 0 -15.11 15.12 15.114 15.114 0 0 0 15.11 15.11 15.114 15.114 0 0 0 15.12-15.11zm-67 0a15.114 15.114 0 0 0 -15.12-15.12 15.114 15.114 0 0 0 -15.11 15.12 15.114 15.114 0 0 0 15.11 15.11 15.114 15.114 0 0 0 15.12-15.11zm-67.008 0a15.114 15.114 0 0 0 -15.11-15.12 15.114 15.114 0 0 0 -15.11 15.12 15.114 15.114 0 0 0 15.11 15.11 15.114 15.114 0 0 0 15.11-15.11z" fill="#ccc" stroke="#4d4d4d" stroke-linecap="round" stroke-linejoin="round" stroke-width=".5"/></g></g></svg>