<svg id="svg2" height="150" viewBox="0 0 500 150" width="500" xmlns="http://www.w3.org/2000/svg"><g id="layer1"><g id="rail_500"><rect id="rect4192" fill="#e0e0e0" fill-rule="evenodd" height="35" stroke="#000" stroke-linecap="square" width="438" x="31" y="55"/><rect id="rect1" fill="#c0c0c0" fill-rule="evenodd" height="29" stroke="#000" stroke-linecap="square" width="438" x="31" y="58"/><rect id="rect4830" fill="#e0e0e0" fill-rule="evenodd" height="28.816" ry=".5" stroke="#000" stroke-linecap="square" stroke-width="1.00002" width="28.549" x="2" y="58.092"/><circle id="circle87-4" cx="10" cy="78.75" fill="#c5c7c4" fill-opacity=".8" r="2.2499" stroke="#000" stroke-linejoin="bevel" stroke-width=".49998"/><circle id="circle4849" cx="10" cy="66.25" fill="#c5c7c4" fill-opacity=".8" r="2.2499" stroke="#000" stroke-linejoin="bevel" stroke-width=".49998"/><rect id="rect4855" fill="#e0e0e0" fill-rule="evenodd" height="28.816" ry=".5" stroke="#000" stroke-linecap="square" stroke-width="1.00002" width="28.549" x="469.5" y="58.092"/><circle id="circle4857" cx="490" cy="78.75" fill="#c5c7c4" fill-opacity=".8" r="2.2499" stroke="#000" stroke-linejoin="bevel" stroke-width=".49998"/><circle id="circle4859" cx="490" cy="66.25" fill="#c5c7c4" fill-opacity=".8" r="2.2499" stroke="#000" stroke-linejoin="bevel" stroke-width=".49998"/><rect id="rect4863" fill="#e0e0e0" fill-rule="evenodd" height="28.816" ry=".5" stroke="#000" stroke-linecap="square" stroke-width="1.00003" width="9.1145" x="21.435" y="58.092"/><rect id="rect4865" fill="#e0e0e0" fill-rule="evenodd" height="28.816" ry=".5" stroke="#000" stroke-linecap="square" stroke-width="1.00003" width="9.1145" x="469.5" y="58.092"/></g><g id="rail_250"><rect id="rect4707" fill="#e0e0e0" fill-rule="evenodd" height="35" stroke="#000" stroke-linecap="square" width="188" x="31" y="55"/><rect id="rect4709" fill="#c0c0c0" fill-rule="evenodd" height="29" stroke="#000" stroke-linecap="square" width="188" x="31" y="58"/><rect id="rect4711" fill="#e0e0e0" fill-rule="evenodd" height="28.816" ry=".5" stroke="#000" stroke-linecap="square" stroke-width="1.00002" width="28.549" x="2" y="58.092"/><circle id="circle4713" cx="10" cy="78.75" fill="#c5c7c4" fill-opacity=".8" r="2.2499" stroke="#000" stroke-linejoin="bevel" stroke-width=".49998"/><circle id="circle4715" cx="10" cy="66.25" fill="#c5c7c4" fill-opacity=".8" r="2.2499" stroke="#000" stroke-linejoin="bevel" stroke-width=".49998"/><rect id="rect4723" fill="#e0e0e0" fill-rule="evenodd" height="28.816" ry=".5" stroke="#000" stroke-linecap="square" stroke-width="1.00003" width="9.1145" x="21.435" y="58.092"/><rect id="rect4717" fill="#e0e0e0" fill-rule="evenodd" height="28.816" ry=".5" stroke="#000" stroke-linecap="square" stroke-width="1.00002" width="28.549" x="219.5" y="58.092"/><circle id="circle4719" cx="240" cy="78.75" fill="#c5c7c4" fill-opacity=".8" r="2.2499" stroke="#000" stroke-linejoin="bevel" stroke-width=".49998"/><circle id="circle4721" cx="240" cy="66.25" fill="#c5c7c4" fill-opacity=".8" r="2.2499" stroke="#000" stroke-linejoin="bevel" stroke-width=".49998"/><rect id="rect4725" fill="#e0e0e0" fill-rule="evenodd" height="28.816" ry=".5" stroke="#000" stroke-linecap="square" stroke-width="1.00003" width="9.1145" x="219.5" y="58.092"/></g><g id="edfLeftTop"><rect id="rect4262" fill="#f00" fill-rule="evenodd" height="14" stroke="#f00" stroke-linecap="round" stroke-linejoin="round" width="14" x="3" y="30.5"/><circle id="path4201" cx="10" cy="37.5" fill="#a00000" fill-rule="evenodd" r="4.5" stroke="#a00000" stroke-linecap="square"/><rect id="rect4264" fill="#f00" fill-rule="evenodd" height="10" stroke="#f00" stroke-linecap="square" stroke-linejoin="round" width="10" x="5" y="20.5"/><rect id="rect4197" fill="#c00000" fill-rule="evenodd" height="6" stroke="#c00000" stroke-linecap="square" width="6" x="7" y="22.5"/><rect id="rect4266" fill="#f00" fill-rule="evenodd" height="10" stroke="#f00" stroke-linecap="round" stroke-linejoin="round" width="10" x="5" y="44.5"/><rect id="rect4199" fill="#c00000" fill-rule="evenodd" height="6" stroke="#c00000" stroke-linecap="square" width="6" x="7" y="46.5"/></g><g id="edfRightTop"><rect id="rect4292" fill="#f00" fill-rule="evenodd" height="14" stroke="#f00" stroke-linecap="round" stroke-linejoin="round" width="14" x="483" y="30.5"/><circle id="circle4294" cx="490" cy="37.5" fill="#a00000" fill-rule="evenodd" r="4.5" stroke="#a00000" stroke-linecap="square"/><rect id="rect4296" fill="#f00" fill-rule="evenodd" height="10" stroke="#f00" stroke-linecap="square" stroke-linejoin="round" width="10" x="485" y="20.5"/><rect id="rect4298" fill="#c00000" fill-rule="evenodd" height="6" stroke="#c00000" stroke-linecap="square" width="6" x="487" y="22.5"/><rect id="rect4300" fill="#f00" fill-rule="evenodd" height="10" stroke="#f00" stroke-linecap="round" stroke-linejoin="round" width="10" x="485" y="44.5"/><rect id="rect4302" fill="#c00000" fill-rule="evenodd" height="6" stroke="#c00000" stroke-linecap="square" width="6" x="487" y="46.5"/></g><g id="edfRightBottom"><rect id="rect4320" fill="#f00" fill-rule="evenodd" height="14" stroke="#f00" stroke-linecap="round" stroke-linejoin="round" width="14" x="483" y="105.5"/><circle id="circle4322" cx="490" cy="112.5" fill="#a00000" fill-rule="evenodd" r="4.5" stroke="#a00000" stroke-linecap="square"/><rect id="rect4324" fill="#f00" fill-rule="evenodd" height="10" stroke="#f00" stroke-linecap="square" stroke-linejoin="round" width="10" x="485" y="95.5"/><rect id="rect4326" fill="#c00000" fill-rule="evenodd" height="6" stroke="#c00000" stroke-linecap="square" width="6" x="487" y="97.5"/><rect id="rect4328" fill="#f00" fill-rule="evenodd" height="10" stroke="#f00" stroke-linecap="round" stroke-linejoin="round" width="10" x="485" y="119.5"/><rect id="rect4330" fill="#c00000" fill-rule="evenodd" height="6" stroke="#c00000" stroke-linecap="square" width="6" x="487" y="121.5"/></g><g id="edfLeftBottom"><rect id="rect4334" fill="#f00" fill-rule="evenodd" height="14" stroke="#f00" stroke-linecap="round" stroke-linejoin="round" width="14" x="3" y="105.5"/><circle id="circle4336" cx="10" cy="112.5" fill="#a00000" fill-rule="evenodd" r="4.5" stroke="#a00000" stroke-linecap="square"/><rect id="rect4338" fill="#f00" fill-rule="evenodd" height="10" stroke="#f00" stroke-linecap="square" stroke-linejoin="round" width="10" x="5" y="95.5"/><rect id="rect4340" fill="#c00000" fill-rule="evenodd" height="6" stroke="#c00000" stroke-linecap="square" width="6" x="7" y="97.5"/><rect id="rect4342" fill="#f00" fill-rule="evenodd" height="10" stroke="#f00" stroke-linecap="round" stroke-linejoin="round" width="10" x="5" y="119.5"/><rect id="rect4344" fill="#c00000" fill-rule="evenodd" height="6" stroke="#c00000" stroke-linecap="square" width="6" x="7" y="121.5"/></g><g id="connectionSleeve"><g id="sleevePlate"><rect id="rect83" fill="#e0e0e0" fill-rule="evenodd" height="126" stroke="#000" stroke-linecap="square" width="51.5" x="431.5" y="24"/><circle id="circle87" cx="438.75" cy="30.5" fill="#c5c7c4" fill-opacity=".8" r="2.2499" stroke="#000" stroke-linejoin="bevel" stroke-width=".49998"/><circle id="circle89" cx="475.75" cy="30.5" fill="#c5c7c4" fill-opacity=".8" r="2.2499" stroke="#000" stroke-linejoin="bevel" stroke-width=".49998"/></g><g id="sleeveTube40"><circle id="sleeveCircle" cx="457.25" cy="74.75" fill="#c5c7c4" r="21" stroke="#000" stroke-linejoin="bevel"/><path id="sleeveTube" d="m437.95 145h38.4v2.5h-38.4zm1.3 2.5h35.82v2.5h-35.82zm-5.48-30.34h46.95v25h-46.95zm5.48 25.34h35.82v2.5h-35.82zm-4.77-40.04h45.52v14.31h-45.52zm4.25-.21v-28.491c0-6.692 7.46-17.378 17.24-17.378h2.15c9.78 0 17.64 10.686 17.64 17.378v28.491z" fill="#c5c7c4" stroke="#000" stroke-linejoin="bevel"/></g><g id="sleeveTube32"><circle id="circle4650" cx="457.25" cy="75" fill="#c5c7c4" r="17" stroke="#000" stroke-linejoin="bevel"/><path id="path4648" d="m441.45 145.12h31.58v2.44h-31.58zm1.08 2.44h29.41v2.44h-29.41zm-5.89-29.67h41.34v24.44h-41.34zm5.89 24.78h29.41v2.45h-29.41zm-5.3-39.16h40.12v13.99h-40.12zm4.45-.21v-29.491c0-6.545 6.63-14.508 14.88-14.508h1.5c8.25 0 14.87 7.963 14.87 14.508v29.491z" fill="#c5c7c4" stroke="#000" stroke-linejoin="bevel" stroke-width="1.00007"/></g><g id="sleeveTube20"><circle id="circle4662" cx="457.25" cy="75" fill="#c5c7c4" r="14" stroke="#000" stroke-linejoin="bevel"/><path id="path4664" d="m447.6 145.1h19.2v2.46h-19.2zm.67 2.46h17.89v2.44h-17.89zm-3.59-29.86h25.14v24.59h-25.14zm3.59 24.94h17.89v2.46h-17.89zm-3.23-39.4h24.41v14.08h-24.41zm2.7-.22v-26.851c0-6.583 4.04-10.232 9.06-10.232h.9c5.02 0 9.06 3.649 9.06 10.232v26.851z" fill="#c5c7c4" stroke="#000" stroke-linejoin="bevel" stroke-width="1.00005"/></g></g><path id="frontPanel_500" d="m0 0v150h434v-126h47v126h19v-150z" fill="#c5c7c4" fill-opacity=".8" fill-rule="evenodd" stroke="#000" stroke-linecap="square"/><path id="frontPanel_250" d="m0 0v150h184v-126h47v126h19v-150z" fill="#c5c7c4" fill-opacity=".8" fill-rule="evenodd" stroke="#000" stroke-linecap="square"/><g id="fittingLeftTop"><circle id="circle1-6" cx="10" cy="37.5" fill="#c5c7c4" fill-rule="evenodd" r="4.5" stroke="#000" stroke-linecap="square"/><rect id="rect4169-6" fill="#c5c7c4" fill-rule="evenodd" height="7" stroke="#000" stroke-linecap="square" stroke-width=".5" width="2" x="9" y="22.5"/><rect id="rect4171-7" fill="#c5c7c4" fill-rule="evenodd" height="7" stroke="#000" stroke-linecap="square" stroke-width=".5" width="2" x="9" y="45.5"/><path id="line4144-2" d="m13 37.5h-6m3-3v6" fill="#c5c7c4" stroke="#000"/></g><g id="fittingLeftBottom"><circle id="circle4818" cx="10" cy="112.5" fill="#c5c7c4" fill-rule="evenodd" r="4.5" stroke="#000" stroke-linecap="square"/><rect id="rect4820" fill="#c5c7c4" fill-rule="evenodd" height="7" stroke="#000" stroke-linecap="square" stroke-width=".5" width="2" x="9" y="97.5"/><rect id="rect4822" fill="#c5c7c4" fill-rule="evenodd" height="7" stroke="#000" stroke-linecap="square" stroke-width=".5" width="2" x="9" y="120.5"/><path id="path4824" d="m13 112.5h-6m3-3v6" fill="#c5c7c4" stroke="#000"/></g><g id="fittingRightTop"><circle id="circle4905" cx="490" cy="37.5" fill="#c5c7c4" fill-rule="evenodd" r="4.5" stroke="#000" stroke-linecap="square"/><rect id="rect4907" fill="#c5c7c4" fill-rule="evenodd" height="7" stroke="#000" stroke-linecap="square" stroke-width=".5" width="2" x="489" y="22.5"/><rect id="rect4909" fill="#c5c7c4" fill-rule="evenodd" height="7" stroke="#000" stroke-linecap="square" stroke-width=".5" width="2" x="489" y="45.5"/><path id="path4911" d="m493 37.5h-6m3-3v6" fill="#c5c7c4" stroke="#000"/></g><g id="fittingRightBottom"><circle id="circle4953" cx="490" cy="112.5" fill="#c5c7c4" fill-rule="evenodd" r="4.5" stroke="#000" stroke-linecap="square"/><rect id="rect4955" fill="#c5c7c4" fill-rule="evenodd" height="7" stroke="#000" stroke-linecap="square" stroke-width=".5" width="2" x="489" y="97.5"/><rect id="rect4957" fill="#c5c7c4" fill-rule="evenodd" height="7" stroke="#000" stroke-linecap="square" stroke-width=".5" width="2" x="489" y="120.5"/><path id="path4959" d="m493 112.5h-6m3-3v6" fill="#c5c7c4" stroke="#000"/></g><g id="d250"><path id="dTop250" d="m122 20.25a61.25 19.5 0 0 1 -61.25-19.5h122.5a61.25 19.5 0 0 1 -61.25 19.5z" fill="none" stroke="#666" stroke-linecap="round" stroke-linejoin="round" stroke-width="2.5"/><path id="dBottom250" d="m122 129.75a61.25 19.5 0 0 0 -61.25 19.5h122.5a61.25 19.5 0 0 0 -61.25-19.5z" fill="none" stroke="#666" stroke-linecap="round" stroke-linejoin="round" stroke-width="2.5"/></g><g id="d500"><path id="dTop500" d="m372 20.25a61.25 19.5 0 0 1 -61.25-19.5h122.5a61.25 19.5 0 0 1 -61.25 19.5z" fill="none" stroke="#666" stroke-linecap="round" stroke-linejoin="round" stroke-width="2.5"/><path id="dBottom500" d="m372 129.75a61.25 19.5 0 0 0 -61.25 19.5h122.5a61.25 19.5 0 0 0 -61.25-19.5z" fill="none" stroke="#666" stroke-linecap="round" stroke-linejoin="round" stroke-width="2.5"/></g><text id="textTop" font-family="sans-serif" letter-spacing="0" text-anchor="middle" word-spacing="0" x="250.2" y="22"><tspan id="tspan4155" font-size="20" x="250.2" y="22">Text</tspan></text><text id="textBottom" font-family="sans-serif" letter-spacing="0" text-anchor="middle" word-spacing="0" x="250.2" y="138"><tspan id="tspan4200" font-size="20" x="250.2" y="138">Text</tspan></text></g></svg>