<svg id="svg2" height="750" viewBox="0 0 750 750" width="750" xmlns="http://www.w3.org/2000/svg"><g id="layer1"><g id="edfLeftTop" fill-rule="evenodd"><rect id="rect4262" fill="#f00" height="14" stroke="#f00" stroke-linecap="round" stroke-linejoin="round" width="14" x="3" y="30.5"/><circle id="path4201" cx="10" cy="37.5" fill="#a00000" r="4.5" stroke="#a00000" stroke-linecap="square"/><rect id="rect4264" fill="#f00" height="10" stroke="#f00" stroke-linecap="square" stroke-linejoin="round" width="10" x="5" y="20.5"/><rect id="rect4197" fill="#c00000" height="6" stroke="#c00000" stroke-linecap="square" width="6" x="7" y="22.5"/><rect id="rect4266" fill="#f00" height="10" stroke="#f00" stroke-linecap="round" stroke-linejoin="round" width="10" x="5" y="44.5"/><rect id="rect4199" fill="#c00000" height="6" stroke="#c00000" stroke-linecap="square" width="6" x="7" y="46.5"/></g><g id="edfRightTop" fill-rule="evenodd"><rect id="rect4292" fill="#f00" height="14" stroke="#f00" stroke-linecap="round" stroke-linejoin="round" width="14" x="733" y="30.5"/><circle id="circle4294" cx="740" cy="37.5" fill="#a00000" r="4.5" stroke="#a00000" stroke-linecap="square"/><rect id="rect4296" fill="#f00" height="10" stroke="#f00" stroke-linecap="square" stroke-linejoin="round" width="10" x="735" y="20.5"/><rect id="rect4298" fill="#c00000" height="6" stroke="#c00000" stroke-linecap="square" width="6" x="737" y="22.5"/><rect id="rect4300" fill="#f00" height="10" stroke="#f00" stroke-linecap="round" stroke-linejoin="round" width="10" x="735" y="44.5"/><rect id="rect4302" fill="#c00000" height="6" stroke="#c00000" stroke-linecap="square" width="6" x="737" y="46.5"/></g><g id="edfRightBottom" fill-rule="evenodd"><rect id="rect4320" fill="#f00" height="14" stroke="#f00" stroke-linecap="round" stroke-linejoin="round" width="14" x="733" y="705.5"/><circle id="circle4322" cx="740" cy="712.5" fill="#a00000" r="4.5" stroke="#a00000" stroke-linecap="square"/><rect id="rect4324" fill="#f00" height="10" stroke="#f00" stroke-linecap="square" stroke-linejoin="round" width="10" x="735" y="695.5"/><rect id="rect4326" fill="#c00000" height="6" stroke="#c00000" stroke-linecap="square" width="6" x="737" y="697.5"/><rect id="rect4328" fill="#f00" height="10" stroke="#f00" stroke-linecap="round" stroke-linejoin="round" width="10" x="735" y="719.5"/><rect id="rect4330" fill="#c00000" height="6" stroke="#c00000" stroke-linecap="square" width="6" x="737" y="721.5"/></g><g id="edfLeftBottom" fill-rule="evenodd"><rect id="rect4334" fill="#f00" height="14" stroke="#f00" stroke-linecap="round" stroke-linejoin="round" width="14" x="3" y="705.5"/><circle id="circle4336" cx="10" cy="712.5" fill="#a00000" r="4.5" stroke="#a00000" stroke-linecap="square"/><rect id="rect4338" fill="#f00" height="10" stroke="#f00" stroke-linecap="square" stroke-linejoin="round" width="10" x="5" y="695.5"/><rect id="rect4340" fill="#c00000" height="6" stroke="#c00000" stroke-linecap="square" width="6" x="7" y="697.5"/><rect id="rect4342" fill="#f00" height="10" stroke="#f00" stroke-linecap="round" stroke-linejoin="round" width="10" x="5" y="719.5"/><rect id="rect4344" fill="#c00000" height="6" stroke="#c00000" stroke-linecap="square" width="6" x="7" y="721.5"/></g><rect id="frontPanel" fill="#c5c7c4" fill-opacity=".8" fill-rule="evenodd" height="750" stroke="#000" stroke-linecap="square" width="750"/><g id="fittingLeftTop" fill="#c5c7c4" stroke="#000"><circle id="circle1-0" cx="10" cy="37.5" fill-rule="evenodd" r="4.5" stroke-linecap="square"/><rect id="rect4169-63" fill-rule="evenodd" height="7" stroke-linecap="square" stroke-width=".5" width="2" x="9" y="22.5"/><rect id="rect4171-7" fill-rule="evenodd" height="7" stroke-linecap="square" stroke-width=".5" width="2" x="9" y="45.5"/><path id="line4144-6" d="m13 37.5h-6m3-3v6"/></g><g id="fittingRightTop" fill="#c5c7c4" stroke="#000"><circle id="circle3843" cx="740" cy="37.5" fill-rule="evenodd" r="4.5" stroke-linecap="square"/><rect id="rect3845" fill-rule="evenodd" height="7" stroke-linecap="square" stroke-width=".5" width="2" x="739" y="22.5"/><rect id="rect3847" fill-rule="evenodd" height="7" stroke-linecap="square" stroke-width=".5" width="2" x="739" y="45.5"/><path id="path3849" d="m743 37.5h-6m3-3v6"/></g><g id="fittingRightBottom" fill="#c5c7c4" stroke="#000"><circle id="circle3863" cx="740" cy="712.5" fill-rule="evenodd" r="4.5" stroke-linecap="square"/><rect id="rect3865" fill-rule="evenodd" height="7" stroke-linecap="square" stroke-width=".5" width="2" x="739" y="697.5"/><rect id="rect3867" fill-rule="evenodd" height="7" stroke-linecap="square" stroke-width=".5" width="2" x="739" y="720.5"/><path id="path3869" d="m743 712.5h-6m3-3v6"/></g><g id="fittingLeftBottom" fill="#c5c7c4" stroke="#000"><circle id="circle3883" cx="10" cy="712.5" fill-rule="evenodd" r="4.5" stroke-linecap="square"/><rect id="rect3885" fill-rule="evenodd" height="7" stroke-linecap="square" stroke-width=".5" width="2" x="9" y="697.5"/><rect id="rect3887" fill-rule="evenodd" height="7" stroke-linecap="square" stroke-width=".5" width="2" x="9" y="720.5"/><path id="path3889" d="m13 712.5h-6m3-3v6"/></g><path id="dTop250" d="m65.75.75a61.25 19.5 0 0 0 61.25 19.5 61.25 19.5 0 0 0  61.25-19.5z" fill="none" stroke="#666" stroke-width="2.5"/><path id="dTop500" d="m313.75.75a61.25 19.5 0 0 0 61.25 19.5 61.25 19.5 0 0 0  61.25-19.5z" fill="none" stroke="#666" stroke-width="2.5"/><path id="dTop750" d="m561.75.75a61.25 19.5 0 0 0 61.25 19.5 61.25 19.5 0 0 0  61.25-19.5z" fill="none" stroke="#666" stroke-width="2.5"/><path id="dBottom250" d="m127 729.75a61.25 19.5 0 0 0 -61.25 19.5h122.5a61.25 19.5 0 0 0 -61.25-19.5z" fill="none" stroke="#666" stroke-width="2.5"/><path id="dBottom500" d="m375 729.75a61.25 19.5 0 0 0 -61.25 19.5h122.5a61.25 19.5 0 0 0 -61.25-19.5z" fill="none" stroke="#666" stroke-width="2.5"/><path id="dBottom750" d="m623 729.75a61.25 19.5 0 0 0 -61.25 19.5h122.5a61.25 19.5 0 0 0 -61.25-19.5z" fill="none" stroke="#666" stroke-width="2.5"/><text id="textTop" font-family="sans-serif" font-size="20" letter-spacing="0" text-anchor="middle" word-spacing="0" x="375.21" y="36.041"><tspan id="tspan4155" x="375.21" y="36">Text</tspan></text><text id="textBottom" font-family="sans-serif" font-size="20" letter-spacing="0" text-anchor="middle" word-spacing="0" x="375.21" y="728.25"><tspan id="tspan4218" x="375.21" y="728">Text</tspan></text></g></svg>