<svg id="svg2" height="600" viewBox="0 0 500 600" width="500" xmlns="http://www.w3.org/2000/svg"><g id="layer1"><g id="edfLeftTop"><rect id="rect4262" fill="#f00" height="14" stroke="#f00" stroke-linecap="round" stroke-linejoin="round" width="14" x="3" y="30.5"/><circle id="path4201" cx="10" cy="37.5" fill="#a00000" r="4" stroke="#a00000" stroke-linecap="square"/><rect id="rect4264" fill="#f00" height="10" stroke="#f00" stroke-linecap="square" stroke-linejoin="round" width="10" x="5" y="20.5"/><rect id="rect4197" fill="#c00000" height="6" stroke="#c00000" stroke-linecap="square" width="6" x="7" y="22.5"/><rect id="rect4266" fill="#f00" height="10" stroke="#f00" stroke-linecap="round" stroke-linejoin="round" width="10" x="5" y="44.5"/><rect id="rect4199" fill="#c00000" height="6" stroke="#c00000" stroke-linecap="square" width="6" x="7" y="46.5"/></g><g id="edfRightTop"><rect id="rect4262-8" fill="#f00" height="14" stroke="#f00" stroke-linecap="round" stroke-linejoin="round" width="14" x="483.4" y="30.5"/><circle id="path4201-53" cx="490.4" cy="37.5" fill="#a00000" r="4" stroke="#a00000" stroke-linecap="square"/><rect id="rect4264-3" fill="#f00" height="10" stroke="#f00" stroke-linecap="square" stroke-linejoin="round" width="10" x="485.4" y="20.5"/><rect id="rect4197-3" fill="#c00000" height="6" stroke="#c00000" stroke-linecap="square" width="6" x="487.4" y="22.5"/><rect id="rect4266-4" fill="#f00" height="10" stroke="#f00" stroke-linecap="round" stroke-linejoin="round" width="10" x="485.4" y="44.5"/><rect id="rect4199-1" fill="#c00000" height="6" stroke="#c00000" stroke-linecap="square" width="6" x="487.4" y="46.5"/></g><g id="edfRightBottom"><rect id="rect4262-8-7" fill="#f00" height="14" stroke="#f00" stroke-linecap="round" stroke-linejoin="round" width="14" x="483.4" y="555.5"/><circle id="path4201-53-9" cx="490.4" cy="562.5" fill="#a00000" r="4" stroke="#a00000" stroke-linecap="square"/><rect id="rect4264-3-2" fill="#f00" height="10" stroke="#f00" stroke-linecap="square" stroke-linejoin="round" width="10" x="485.4" y="545.5"/><rect id="rect4197-3-4" fill="#c00000" height="6" stroke="#c00000" stroke-linecap="square" width="6" x="487.4" y="547.5"/><rect id="rect4266-4-7" fill="#f00" height="10" stroke="#f00" stroke-linecap="round" stroke-linejoin="round" width="10" x="485.4" y="569.5"/><rect id="rect4199-1-0" fill="#c00000" height="6" stroke="#c00000" stroke-linecap="square" width="6" x="487.4" y="571.5"/></g><g id="edfLeftBottom"><rect id="rect4262-1" fill="#f00" height="14" stroke="#f00" stroke-linecap="round" stroke-linejoin="round" width="14" x="3" y="555.5"/><circle id="path4201-5" cx="10" cy="562.5" fill="#a00000" r="4" stroke="#a00000" stroke-linecap="square"/><rect id="rect4264-8" fill="#f00" height="10" stroke="#f00" stroke-linecap="square" stroke-linejoin="round" width="10" x="5" y="545.5"/><rect id="rect4197-1" fill="#c00000" height="6" stroke="#c00000" stroke-linecap="square" width="6" x="7" y="547.5"/><rect id="rect4266-3" fill="#f00" height="10" stroke="#f00" stroke-linecap="round" stroke-linejoin="round" width="10" x="5" y="569.5"/><rect id="rect4199-0" fill="#c00000" height="6" stroke="#c00000" stroke-linecap="square" width="6" x="7" y="571.5"/></g><path id="frontPanelT6_600x500" d="m0 .5v599h500v-599zm179 236.5h140.5v106h-140.5z" fill="#c5c7c4" fill-opacity=".8" stroke="#000"/><path id="frontPanelT5_450x500" d="m0 0v450h500v-450zm196.5 171.5h107v107h-107z" fill="#c5c7c4" fill-opacity=".8" stroke="#000" stroke-width="1.00002"/><path id="frontPanelT4_450x250" d="m .0003 0v450h249.9997v-450zm71.4997 171.5h107v107h-107z" fill="#c5c7c4" fill-opacity=".8" stroke="#000" stroke-width="1.00002"/><g id="fittingLeftTop"><circle id="circle1-65" cx="10" cy="37.5" fill="#c5c7c4" fill-rule="evenodd" r="4.5" stroke="#000" stroke-linecap="square"/><line id="line1-0" stroke="#000" x1="10" x2="10" y1="34.5" y2="40.5"/><rect id="rect4169-1" fill="#c5c7c4" fill-rule="evenodd" height="7" stroke="#000" stroke-linecap="square" stroke-width=".5" width="2" x="9" y="22.5"/><rect id="rect4171-3" fill="#c5c7c4" fill-rule="evenodd" height="7" stroke="#000" stroke-linecap="square" stroke-width=".5" width="2" x="9" y="45.5"/><line id="line4144-178" stroke="#000" x1="13" x2="7" y1="37.5" y2="37.5"/></g><g id="fittingRightTop"><circle id="circle4661" cx="490.4" cy="37.5" fill="#c5c7c4" fill-rule="evenodd" r="4.5" stroke="#000" stroke-linecap="square"/><line id="line4663" stroke="#000" x1="490.4" x2="490.4" y1="34.5" y2="40.5"/><rect id="rect4665" fill="#c5c7c4" fill-rule="evenodd" height="7" stroke="#000" stroke-linecap="square" stroke-width=".5" width="2" x="489.4" y="22.5"/><rect id="rect4667" fill="#c5c7c4" fill-rule="evenodd" height="7" stroke="#000" stroke-linecap="square" stroke-width=".5" width="2" x="489.4" y="45.5"/><line id="line4669" stroke="#000" x1="493.4" x2="487.4" y1="37.5" y2="37.5"/></g><g id="fittingRightBottom"><circle id="circle4673" cx="490.4" cy="562.5" fill="#c5c7c4" fill-rule="evenodd" r="4.5" stroke="#000" stroke-linecap="square"/><line id="line4675" stroke="#000" x1="490.4" x2="490.4" y1="559.5" y2="565.5"/><rect id="rect4677" fill="#c5c7c4" fill-rule="evenodd" height="7" stroke="#000" stroke-linecap="square" stroke-width=".5" width="2" x="489.4" y="547.5"/><rect id="rect4679" fill="#c5c7c4" fill-rule="evenodd" height="7" stroke="#000" stroke-linecap="square" stroke-width=".5" width="2" x="489.4" y="570.5"/><line id="line4681" stroke="#000" x1="493.4" x2="487.4" y1="562.5" y2="562.5"/></g><g id="fittingLeftBottom"><circle id="circle4685" cx="10" cy="562.5" fill="#c5c7c4" fill-rule="evenodd" r="4.5" stroke="#000" stroke-linecap="square"/><line id="line4687" stroke="#000" x1="10" x2="10" y1="559.5" y2="565.5"/><rect id="rect4689" fill="#c5c7c4" fill-rule="evenodd" height="7" stroke="#000" stroke-linecap="square" stroke-width=".5" width="2" x="9" y="547.5"/><rect id="rect4691" fill="#c5c7c4" fill-rule="evenodd" height="7" stroke="#000" stroke-linecap="square" stroke-width=".5" width="2" x="9" y="570.5"/><line id="line4693" stroke="#000" x1="13" x2="7" y1="562.5" y2="562.5"/></g><path id="dTop250" d="m125 20.75a61.25 19.5 0 0 1 -61.25-19.5h122.5a61.25 19.5 0 0 1 -61.25 19.5z" fill="none" stroke="#666" stroke-linecap="round" stroke-linejoin="round" stroke-width="2.5"/><path id="dBottom250" d="m125 579.75a61.25 19.5 0 0 0 -61.25 19.5h122.5a61.25 19.5 0 0 0 -61.25-19.5z" fill="none" stroke="#666" stroke-linecap="round" stroke-linejoin="round" stroke-width="2.5"/><path id="dTop500" d="m375 20.74a61.25 19.5 0 0 1 -61.25-19.5h122.5a61.25 19.5 0 0 1 -61.25 19.5z" fill="none" stroke="#666" stroke-linecap="round" stroke-linejoin="round" stroke-width="2.5"/><path id="dBottom500" d="m375 579.74a61.25 19.5 0 0 0 -61.25 19.5h122.5a61.25 19.5 0 0 0 -61.25-19.5z" fill="none" stroke="#666" stroke-linecap="round" stroke-linejoin="round" stroke-width="2.5"/><text id="textTop" font-family="sans-serif" font-size="20" letter-spacing="0" text-anchor="middle" word-spacing="0" x="245.06" y="149.79"><tspan id="tspan4273" x="245.06" y="36">Text</tspan></text><text id="textBottom" font-family="sans-serif" font-size="20" letter-spacing="0" text-anchor="middle" word-spacing="0" x="250.21" y="578"><tspan id="tspan4155" x="250.21" y="578">Text</tspan></text></g></svg>