<svg id="svg2" height="750" viewBox="0 0 750 750" width="750" xmlns="http://www.w3.org/2000/svg"><g id="layer1"><g id="edfLeftTop"><rect id="rect4262" fill="#f00" fill-rule="evenodd" height="14" stroke="#f00" stroke-linecap="round" stroke-linejoin="round" width="14" x="3" y="30.5"/><circle id="path4201" cx="10" cy="37.5" fill="#a00000" fill-rule="evenodd" r="4.5" stroke="#a00000" stroke-linecap="square"/><rect id="rect4264" fill="#f00" fill-rule="evenodd" height="10" stroke="#f00" stroke-linecap="square" stroke-linejoin="round" width="10" x="5" y="20.5"/><rect id="rect4197" fill="#c00000" fill-rule="evenodd" height="6" stroke="#c00000" stroke-linecap="square" width="6" x="7" y="22.5"/><rect id="rect4266" fill="#f00" fill-rule="evenodd" height="10" stroke="#f00" stroke-linecap="round" stroke-linejoin="round" width="10" x="5" y="44.5"/><rect id="rect4199" fill="#c00000" fill-rule="evenodd" height="6" stroke="#c00000" stroke-linecap="square" width="6" x="7" y="46.5"/></g><g id="edfRightTop"><rect id="rect4772" fill="#f00" fill-rule="evenodd" height="14" stroke="#f00" stroke-linecap="round" stroke-linejoin="round" width="14" x="733" y="30.5"/><circle id="circle4774" cx="740" cy="37.5" fill="#a00000" fill-rule="evenodd" r="4.5" stroke="#a00000" stroke-linecap="square"/><rect id="rect4776" fill="#f00" fill-rule="evenodd" height="10" stroke="#f00" stroke-linecap="square" stroke-linejoin="round" width="10" x="735" y="20.5"/><rect id="rect4778" fill="#c00000" fill-rule="evenodd" height="6" stroke="#c00000" stroke-linecap="square" width="6" x="737" y="22.5"/><rect id="rect4780" fill="#f00" fill-rule="evenodd" height="10" stroke="#f00" stroke-linecap="round" stroke-linejoin="round" width="10" x="735" y="44.5"/><rect id="rect4782" fill="#c00000" fill-rule="evenodd" height="6" stroke="#c00000" stroke-linecap="square" width="6" x="737" y="46.5"/></g><g id="edfRightBottom"><rect id="rect4820" fill="#f00" fill-rule="evenodd" height="14" stroke="#f00" stroke-linecap="round" stroke-linejoin="round" width="14" x="733" y="705.5"/><circle id="circle4822" cx="740" cy="712.5" fill="#a00000" fill-rule="evenodd" r="4.5" stroke="#a00000" stroke-linecap="square"/><rect id="rect4824" fill="#f00" fill-rule="evenodd" height="10" stroke="#f00" stroke-linecap="square" stroke-linejoin="round" width="10" x="735" y="695.5"/><rect id="rect4826" fill="#c00000" fill-rule="evenodd" height="6" stroke="#c00000" stroke-linecap="square" width="6" x="737" y="697.5"/><rect id="rect4828" fill="#f00" fill-rule="evenodd" height="10" stroke="#f00" stroke-linecap="round" stroke-linejoin="round" width="10" x="735" y="719.5"/><rect id="rect4830" fill="#c00000" fill-rule="evenodd" height="6" stroke="#c00000" stroke-linecap="square" width="6" x="737" y="721.5"/></g><g id="edfLeftBottom"><rect id="rect4868" fill="#f00" fill-rule="evenodd" height="14" stroke="#f00" stroke-linecap="round" stroke-linejoin="round" width="14" x="3" y="705.5"/><circle id="circle4870" cx="10" cy="712.5" fill="#a00000" fill-rule="evenodd" r="4.5" stroke="#a00000" stroke-linecap="square"/><rect id="rect4872" fill="#f00" fill-rule="evenodd" height="10" stroke="#f00" stroke-linecap="square" stroke-linejoin="round" width="10" x="5" y="695.5"/><rect id="rect4874" fill="#c00000" fill-rule="evenodd" height="6" stroke="#c00000" stroke-linecap="square" width="6" x="7" y="697.5"/><rect id="rect4876" fill="#f00" fill-rule="evenodd" height="10" stroke="#f00" stroke-linecap="round" stroke-linejoin="round" width="10" x="5" y="719.5"/><rect id="rect4878" fill="#c00000" fill-rule="evenodd" height="6" stroke="#c00000" stroke-linecap="square" width="6" x="7" y="721.5"/></g><rect id="frontBlindPanel" fill="#c5c7c4" fill-opacity=".8" height="750" stroke="#000" stroke-linejoin="bevel" width="750"/><path id="frontPanel_750" d="m0 0v750h750v-750zm74.5 54h601v592h-601z" fill="#c5c7c4" fill-opacity=".8" fill-rule="evenodd" stroke="#000" stroke-linecap="square"/><path id="frontPanel_500" d="m0 0v750h500v-750zm49.5 54h401v592h-401z" fill="#c5c7c4" fill-opacity=".8" fill-rule="evenodd" stroke="#000" stroke-linecap="square"/><g id="fittingLeftTop"><circle id="circle1-6" cx="10" cy="37.5" fill="#c5c7c4" fill-rule="evenodd" r="4.5" stroke="#000" stroke-linecap="square"/><rect id="rect4169-6" fill="#c5c7c4" fill-rule="evenodd" height="7" stroke="#000" stroke-linecap="square" stroke-width=".5" width="2" x="9" y="22.5"/><rect id="rect4171-7" fill="#c5c7c4" fill-rule="evenodd" height="7" stroke="#000" stroke-linecap="square" stroke-width=".5" width="2" x="9" y="45.5"/><path id="line4144-2" d="m13 37.5h-6m3-3v6" fill="#c5c7c4" stroke="#000"/></g><g id="fittingRightTop"><circle id="circle4786" cx="740" cy="37.5" fill="#c5c7c4" fill-rule="evenodd" r="4.5" stroke="#000" stroke-linecap="square"/><rect id="rect4788" fill="#c5c7c4" fill-rule="evenodd" height="7" stroke="#000" stroke-linecap="square" stroke-width=".5" width="2" x="739" y="22.5"/><rect id="rect4790" fill="#c5c7c4" fill-rule="evenodd" height="7" stroke="#000" stroke-linecap="square" stroke-width=".5" width="2" x="739" y="45.5"/><path id="path4792" d="m743 37.5h-6m3-3v6" fill="#c5c7c4" stroke="#000"/></g><g id="fittingRightBottom"><circle id="circle4834" cx="740" cy="712.5" fill="#c5c7c4" fill-rule="evenodd" r="4.5" stroke="#000" stroke-linecap="square"/><rect id="rect4836" fill="#c5c7c4" fill-rule="evenodd" height="7" stroke="#000" stroke-linecap="square" stroke-width=".5" width="2" x="739" y="697.5"/><rect id="rect4838" fill="#c5c7c4" fill-rule="evenodd" height="7" stroke="#000" stroke-linecap="square" stroke-width=".5" width="2" x="739" y="720.5"/><path id="path4840" d="m743 712.5h-6m3-3v6" fill="#c5c7c4" stroke="#000"/></g><g id="fittingLeftBottom"><circle id="circle4882" cx="10" cy="712.5" fill="#c5c7c4" fill-rule="evenodd" r="4.5" stroke="#000" stroke-linecap="square"/><rect id="rect4884" fill="#c5c7c4" fill-rule="evenodd" height="7" stroke="#000" stroke-linecap="square" stroke-width=".5" width="2" x="9" y="697.5"/><rect id="rect4886" fill="#c5c7c4" fill-rule="evenodd" height="7" stroke="#000" stroke-linecap="square" stroke-width=".5" width="2" x="9" y="720.5"/><path id="path4888" d="m13 712.5h-6m3-3v6" fill="#c5c7c4" stroke="#000"/></g><path id="d250" d="m125 729.75a61.25 19.5 0 0 0 -61.25 19.5h122.5a61.25 19.5 0 0 0 -61.25-19.5zm0-709.5a61.25 19.5 0 0 1 -61.25-19.5h122.5a61.25 19.5 0 0 1 -61.25 19.5z" fill="none" stroke="#666" stroke-linecap="round" stroke-linejoin="round" stroke-width="2.5"/><path id="d500" d="m375 729.75a61.25 19.5 0 0 0 -61.25 19.5h122.5a61.25 19.5 0 0 0 -61.25-19.5zm0-709.5a61.25 19.5 0 0 1 -61.25-19.5h122.5a61.25 19.5 0 0 1 -61.25 19.5z" fill="none" stroke="#666" stroke-linecap="round" stroke-linejoin="round" stroke-width="2.5"/><path id="d750" d="m625 729.75a61.25 19.5 0 0 0 -61.25 19.5h122.5a61.25 19.5 0 0 0 -61.25-19.5zm0-709.5a61.25 19.5 0 0 1 -61.25-19.5h122.5a61.25 19.5 0 0 1 -61.25 19.5z" fill="none" stroke="#666" stroke-linecap="round" stroke-linejoin="round" stroke-width="2.5"/><text id="textTop" font-family="sans-serif" font-size="20" letter-spacing="0" text-anchor="middle" word-spacing="0" x="375.21" y="36.041"><tspan id="tspan4155" x="375.21" y="36.041">Text</tspan></text><text id="textBottom" font-family="sans-serif" font-size="20" letter-spacing="0" text-anchor="middle" word-spacing="0" x="375.21" y="728.25"><tspan id="tspan4256" x="375.21" y="728.25">Text</tspan></text></g></svg>