<svg id="svg2" height="450" viewBox="0 0 250 450" width="250" xmlns="http://www.w3.org/2000/svg"><g id="layer1"><path id="traverseXT4" d="m25.5 197v171h199v-171zm-23.5996 3v165h23.4996v-165zm222.6996 0v165h23.5v-165zm-177.502 10.35h156.002v5.3h-156.002zm-37.098 1.9a2.75 2.75 0 0 1 2.75 2.75 2.75 2.75 0 0 1 -2.75 2.75 2.75 2.75 0 0 1 -2.75-2.75 2.75 2.75 0 0 1 2.75-2.75zm230 0a2.75 2.75 0 0 1 2.75 2.75 2.75 2.75 0 0 1 -2.75 2.75 2.75 2.75 0 0 1 -2.75-2.75 2.75 2.75 0 0 1 2.75-2.75zm-230 135a2.75 2.75 0 0 1 2.75 2.75 2.75 2.75 0 0 1 -2.75 2.75 2.75 2.75 0 0 1 -2.75-2.75 2.75 2.75 0 0 1 2.75-2.75zm230 0a2.75 2.75 0 0 1 2.75 2.75 2.75 2.75 0 0 1 -2.75 2.75 2.75 2.75 0 0 1 -2.75-2.75 2.75 2.75 0 0 1 2.75-2.75zm-192.902 2.1h156.002v5.3h-156.002z" fill="#e0e0e0" stroke="#000" stroke-linejoin="bevel" stroke-width=".8"/><path id="traverseXT2" d="m25.5 112.99v224.01h199v-224.01zm-23.5996 3v218.01h23.4996v-218.01zm222.6996 0v218.01h23.5v-218.01zm-214.6 6.25a2.75 2.75 0 0 1 2.75 2.75 2.75 2.75 0 0 1 -2.75 2.76 2.75 2.75 0 0 1 -2.75-2.76 2.75 2.75 0 0 1 2.75-2.75zm230 0a2.75 2.75 0 0 1 2.75 2.75 2.75 2.75 0 0 1 -2.75 2.76 2.75 2.75 0 0 1 -2.75-2.76 2.75 2.75 0 0 1 2.75-2.75zm-192.902 7.11h156.002v5.3h-156.002zm0 111h156.002v5.3h-156.002zm0 75h156.002v5.3h-156.002zm-37.098 6.9a2.75 2.75 0 0 1 2.75 2.75 2.75 2.75 0 0 1 -2.75 2.75 2.75 2.75 0 0 1 -2.75-2.75 2.75 2.75 0 0 1 2.75-2.75zm230 0a2.75 2.75 0 0 1 2.75 2.75 2.75 2.75 0 0 1 -2.75 2.75 2.75 2.75 0 0 1 -2.75-2.75 2.75 2.75 0 0 1 2.75-2.75z" fill="#e0e0e0" stroke="#000" stroke-linejoin="bevel" stroke-width=".8"/><g id="edfLeftTop"><rect id="rect4262" fill="#f00" height="14" stroke="#f00" stroke-linecap="round" stroke-linejoin="round" width="14" x="3" y="30.5"/><circle id="path4201" cx="10" cy="37.5" fill="#a00000" r="4" stroke="#a00000" stroke-linecap="square"/><rect id="rect4264" fill="#f00" height="10" stroke="#f00" stroke-linecap="square" stroke-linejoin="round" width="10" x="5" y="20.5"/><rect id="rect4197" fill="#c00000" height="6" stroke="#c00000" stroke-linecap="square" width="6" x="7" y="22.5"/><rect id="rect4266" fill="#f00" height="10" stroke="#f00" stroke-linecap="round" stroke-linejoin="round" width="10" x="5" y="44.5"/><rect id="rect4199" fill="#c00000" height="6" stroke="#c00000" stroke-linecap="square" width="6" x="7" y="46.5"/></g><g id="edfRightTop"><rect id="rect4262-15" fill="#f00" height="14" stroke="#f00" stroke-linecap="round" stroke-linejoin="round" width="14" x="233" y="30.5"/><circle id="path4201-1" cx="240" cy="37.5" fill="#a00000" r="4" stroke="#a00000" stroke-linecap="square"/><rect id="rect4264-2" fill="#f00" height="10" stroke="#f00" stroke-linecap="square" stroke-linejoin="round" width="10" x="235" y="20.5"/><rect id="rect4197-2" fill="#c00000" height="6" stroke="#c00000" stroke-linecap="square" width="6" x="237" y="22.5"/><rect id="rect4266-7" fill="#f00" height="10" stroke="#f00" stroke-linecap="round" stroke-linejoin="round" width="10" x="235" y="44.5"/><rect id="rect4199-2" fill="#c00000" height="6" stroke="#c00000" stroke-linecap="square" width="6" x="237" y="46.5"/></g><g id="edfRightBottom"><rect id="rect4262-1-2" fill="#f00" height="14" stroke="#f00" stroke-linecap="round" stroke-linejoin="round" width="14" x="233" y="405.5"/><circle id="path4201-5-7" cx="240" cy="412.5" fill="#a00000" r="4" stroke="#a00000" stroke-linecap="square"/><rect id="rect4264-8-9" fill="#f00" height="10" stroke="#f00" stroke-linecap="square" stroke-linejoin="round" width="10" x="235" y="395.5"/><rect id="rect4197-1-8" fill="#c00000" height="6" stroke="#c00000" stroke-linecap="square" width="6" x="237" y="397.5"/><rect id="rect4266-3-3" fill="#f00" height="10" stroke="#f00" stroke-linecap="round" stroke-linejoin="round" width="10" x="235" y="419.5"/><rect id="rect4199-0-1" fill="#c00000" height="6" stroke="#c00000" stroke-linecap="square" width="6" x="237" y="421.5"/></g><g id="edfLeftBottom"><rect id="rect4262-1" fill="#f00" height="14" stroke="#f00" stroke-linecap="round" stroke-linejoin="round" width="14" x="3" y="405.5"/><circle id="path4201-5" cx="10" cy="412.5" fill="#a00000" r="4" stroke="#a00000" stroke-linecap="square"/><rect id="rect4264-8" fill="#f00" height="10" stroke="#f00" stroke-linecap="square" stroke-linejoin="round" width="10" x="5" y="395.5"/><rect id="rect4197-1" fill="#c00000" height="6" stroke="#c00000" stroke-linecap="square" width="6" x="7" y="397.5"/><rect id="rect4266-3" fill="#f00" height="10" stroke="#f00" stroke-linecap="round" stroke-linejoin="round" width="10" x="5" y="419.5"/><rect id="rect4199-0" fill="#c00000" height="6" stroke="#c00000" stroke-linecap="square" width="6" x="7" y="421.5"/></g><path id="frontPanelXT4" d="m .0005 0v450h249.9995v-450zm56.9995 181h136v88h-136zm0 105h136v59h-136z" fill="#c5c7c4" fill-opacity=".8" stroke="#000"/><path id="frontPanelXT2" d="m0 0v450h250v-450zm67.5 163h115v74h-115zm0 89.5h115v58.5h-115z" fill="#c5c7c4" fill-opacity=".8" stroke="#000"/><g id="fittingLeftTop"><circle id="circle1-0" cx="10" cy="37.5" fill="#c5c7c4" fill-rule="evenodd" r="4.5" stroke="#000" stroke-linecap="square"/><rect id="rect4169-63" fill="#c5c7c4" fill-rule="evenodd" height="7" stroke="#000" stroke-linecap="square" stroke-width=".5" width="2" x="9" y="22.5"/><rect id="rect4171-7" fill="#c5c7c4" fill-rule="evenodd" height="7" stroke="#000" stroke-linecap="square" stroke-width=".5" width="2" x="9" y="45.5"/><path id="line4144-6" d="m13 37.5h-6m3-3v6" fill="#c5c7c4" stroke="#000"/></g><g id="fittingRightTop"><circle id="circle146" cx="240" cy="37.5" fill="#c5c7c4" fill-rule="evenodd" r="4.5" stroke="#000" stroke-linecap="square"/><rect id="rect148" fill="#c5c7c4" fill-rule="evenodd" height="7" stroke="#000" stroke-linecap="square" stroke-width=".5" width="2" x="239" y="22.5"/><rect id="rect150" fill="#c5c7c4" fill-rule="evenodd" height="7" stroke="#000" stroke-linecap="square" stroke-width=".5" width="2" x="239" y="45.5"/><path id="path152" d="m243 37.5h-6m3-3v6" fill="#c5c7c4" stroke="#000"/></g><g id="fittingRightBottom"><circle id="circle166" cx="240" cy="412.5" fill="#c5c7c4" fill-rule="evenodd" r="4.5" stroke="#000" stroke-linecap="square"/><rect id="rect168" fill="#c5c7c4" fill-rule="evenodd" height="7" stroke="#000" stroke-linecap="square" stroke-width=".5" width="2" x="239" y="397.5"/><rect id="rect170" fill="#c5c7c4" fill-rule="evenodd" height="7" stroke="#000" stroke-linecap="square" stroke-width=".5" width="2" x="239" y="420.5"/><path id="path172" d="m243 412.5h-6m3-3v6" fill="#c5c7c4" stroke="#000"/></g><g id="fittingLeftBottom"><circle id="circle176" cx="10" cy="412.5" fill="#c5c7c4" fill-rule="evenodd" r="4.5" stroke="#000" stroke-linecap="square"/><rect id="rect178" fill="#c5c7c4" fill-rule="evenodd" height="7" stroke="#000" stroke-linecap="square" stroke-width=".5" width="2" x="9" y="397.5"/><rect id="rect180" fill="#c5c7c4" fill-rule="evenodd" height="7" stroke="#000" stroke-linecap="square" stroke-width=".5" width="2" x="9" y="420.5"/><path id="path182" d="m13 412.5h-6m3-3v6" fill="#c5c7c4" stroke="#000"/></g><path id="dTop250" d="m125 20.25a61.25 19.5 0 0 1 -61.25-19.5h122.5a61.25 19.5 0 0 1 -61.25 19.5z" fill="none" stroke="#666" stroke-linecap="round" stroke-linejoin="round" stroke-width="2.5"/><path id="dBottom250" d="m125 429.75a61.25 19.5 0 0 0 -61.25 19.5h122.5a61.25 19.5 0 0 0 -61.25-19.5z" fill="none" stroke="#666" stroke-linecap="round" stroke-linejoin="round" stroke-width="2.5"/><text id="textTop" font-family="sans-serif" font-size="20" letter-spacing="0" text-anchor="middle" word-spacing="0" x="125.21" y="307.14"><tspan id="tspan4273" x="125.21" y="36">Text</tspan></text><text id="textBottom" font-family="sans-serif" font-size="20" letter-spacing="0" text-anchor="middle" word-spacing="0" x="125.21" y="428"><tspan id="tspan4155" x="125.21" y="428">Text</tspan></text></g></svg>