<svg id="svg2" height="600" viewBox="0 0 500 600" width="500" xmlns="http://www.w3.org/2000/svg"><g id="layer1"><path id="traverse_300" d="m4.68 156.4c-2.09 0-3.78 1.69-3.78 3.78v29.79c0 2.09 1.69 3.78 3.78 3.78h17.44c2.09 0 3.78-1.69 3.78-3.78v-29.79c0-2.09-1.69-3.78-3.78-3.78zm223.2 0c-2.09 0-3.78 1.69-3.78 3.78v29.79c0 2.09 1.69 3.78 3.78 3.78h17.44c2.09 0 3.78-1.69 3.78-3.78v-29.79c0-2.09-1.69-3.78-3.78-3.78zm-201.68 1.93v33.5h197.6v-33.5zm212.8 2.1h3c .55 0 1 .45 1 1v27c0 .56-.45 1-1 1h-3c-.55 0-1-.44-1-1v-27c0-.55.45-1 1-1zm-230.6 0h3c .55 0 1 .45 1 1v27c0 .56-.45 1-1 1h-3c-.55 0-1-.44-1-1v-27c0-.55.45-1 1-1zm26.1 9.95h85v9.5h-85zm96 0h85v9.5h-85zm-125.82-88.98c-2.09 0-3.78 1.69-3.78 3.78v29.79c0 2.09 1.69 3.78 3.78 3.78h17.44c2.09 0 3.78-1.69 3.78-3.78v-29.79c0-2.09-1.69-3.78-3.78-3.78zm223.2 0c-2.09 0-3.78 1.69-3.78 3.78v29.79c0 2.09 1.69 3.78 3.78 3.78h17.44c2.09 0 3.78-1.69 3.78-3.78v-29.79c0-2.09-1.69-3.78-3.78-3.78zm-201.68 1.93v33.5h197.6v-33.5zm212.8 2.1h3c .55 0 1 .45 1 1v27c0 .56-.45 1-1 1h-3c-.55 0-1-.44-1-1v-27c0-.55.45-1 1-1zm-230.6 0h3c .55 0 1 .45 1 1v27c0 .56-.45 1-1 1h-3c-.55 0-1-.44-1-1v-27c0-.55.45-1 1-1zm26.1 9.95h85v9.5h-85zm96 0h85v9.5h-85z" fill="#e0e0e0" stroke="#000" stroke-linejoin="bevel" stroke-width=".8"/><path id="traverse_450" d="m4.68 303.4c-2.09 0-3.78 1.69-3.78 3.78v29.79c0 2.09 1.69 3.78 3.78 3.78h17.44c2.09 0 3.78-1.69 3.78-3.78v-29.79c0-2.09-1.69-3.78-3.78-3.78zm473.2 0c-2.09 0-3.78 1.69-3.78 3.78v29.79c0 2.09 1.69 3.78 3.78 3.78h17.44c2.09 0 3.78-1.69 3.78-3.78v-29.79c0-2.09-1.69-3.78-3.78-3.78zm-451.68 1.93v33.5h447.6v-33.5zm462.8 2.1h3c .55 0 1 .45 1 1v27c0 .56-.45 1-1 1h-3c-.55 0-1-.44-1-1v-27c0-.55.45-1 1-1zm-480.6 0h3c .55 0 1 .45 1 1v27c0 .56-.45 1-1 1h-3c-.55 0-1-.44-1-1v-27c0-.55.45-1 1-1zm26.1 9.95h85v9.5h-85zm222.5 0h112.5v9.5h-112.5zm-14 9.5h-112.5v-9.5h112.5zm137.5-9.5h85v9.5h-85zm-375.82-188.98c-2.09 0-3.78 1.69-3.78 3.78v29.79c0 2.09 1.69 3.78 3.78 3.78h17.44c2.09 0 3.78-1.69 3.78-3.78v-29.79c0-2.09-1.69-3.78-3.78-3.78zm473.2 0c-2.09 0-3.78 1.69-3.78 3.78v29.79c0 2.09 1.69 3.78 3.78 3.78h17.44c2.09 0 3.78-1.69 3.78-3.78v-29.79c0-2.09-1.69-3.78-3.78-3.78zm-451.68 1.93v33.5h447.6v-33.5zm462.8 2.1h3c .55 0 1 .45 1 1v27c0 .56-.45 1-1 1h-3c-.55 0-1-.44-1-1v-27c0-.55.45-1 1-1zm-480.6 0h3c .55 0 1 .45 1 1v27c0 .56-.45 1-1 1h-3c-.55 0-1-.44-1-1v-27c0-.55.45-1 1-1zm26.1 9.95h85v9.5h-85zm222.5 0h112.5v9.5h-112.5zm-14 9.5h-112.5v-9.5h112.5zm137.5-9.5h85v9.5h-85z" fill="#e0e0e0" stroke="#000" stroke-linejoin="bevel" stroke-width=".8"/><path id="traverse_600" d="m4.69 375.9c-2.1 0-3.79 1.69-3.79 3.78v55.79c0 2.09 1.69 3.78 3.79 3.78h17.43c2.1 0 3.79-1.69 3.79-3.78v-55.79c0-2.09-1.69-3.78-3.79-3.78zm473.19 0c-2.09 0-3.78 1.69-3.78 3.78v55.79c0 2.09 1.69 3.78 3.78 3.78h17.44c2.09 0 3.78-1.69 3.78-3.78v-55.79c0-2.09-1.69-3.78-3.78-3.78zm-451.67 3.93v55.5h447.59v-55.5zm462.79 3.1h3c .55 0 1 .45 1 1v20c0 .56-.45 1-1 1h-3c-.55 0-1-.44-1-1v-20c0-.55.45-1 1-1zm-480.59 0h3c .55 0 1 .45 1 1v20c0 .56-.45 1-1 1h-3c-.56 0-1-.44-1-1v-20c0-.55.44-1 1-1zm26.1 6.95h84.99v9.5h-84.99zm95.99 0h239v9.5h-239zm250 0h85v9.5h-85zm-372.09 20.34h3c .55 0 1 .45 1 1v20c0 .55-.45 1-1 1h-3c-.56 0-1-.45-1-1v-20c0-.55.44-1 1-1zm480.59 0h3c .55 0 1 .45 1 1v20c0 .55-.45 1-1 1h-3c-.55 0-1-.45-1-1v-20c0-.55.45-1 1-1zm-454.49 3.66h84.99v12.5h-84.99zm95.99 0h239v12.5h-239zm250 0h85v12.5h-85zm-375.82-250.48c-2.09 0-3.78 1.69-3.78 3.78v55.79c0 2.09 1.69 3.78 3.78 3.78h17.44c2.09 0 3.78-1.69 3.78-3.78v-55.79c0-2.09-1.69-3.78-3.78-3.78zm473.2 0c-2.09 0-3.78 1.69-3.78 3.78v55.79c0 2.09 1.69 3.78 3.78 3.78h17.44c2.09 0 3.78-1.69 3.78-3.78v-55.79c0-2.09-1.69-3.78-3.78-3.78zm-451.68 3.93v55.5h447.6v-55.5zm462.8 3.1h3c .55 0 1 .45 1 1v20c0 .56-.45 1-1 1h-3c-.55 0-1-.44-1-1v-20c0-.55.45-1 1-1zm-480.6 0h3c .55 0 1 .45 1 1v20c0 .56-.45 1-1 1h-3c-.55 0-1-.44-1-1v-20c0-.55.45-1 1-1zm26.1 6.95h85v9.5h-85zm96 0h239v9.5h-239zm250 0h85v9.5h-85zm-372.1 20.34h3c .55 0 1 .45 1 1v20c0 .55-.45 1-1 1h-3c-.55 0-1-.45-1-1v-20c0-.55.45-1 1-1zm480.6 0h3c .55 0 1 .45 1 1v20c0 .55-.45 1-1 1h-3c-.55 0-1-.45-1-1v-20c0-.55.45-1 1-1zm-454.5 3.66h85v12.5h-85zm96 0h239v12.5h-239zm250 0h85v12.5h-85z" fill="#e0e0e0" stroke="#000" stroke-linejoin="bevel" stroke-width=".8"/></g></svg>