<svg id="svg2" height="450" viewBox="0 0 750 450" width="750" xmlns="http://www.w3.org/2000/svg"><g id="layer1"><g id="busbars"><g id="holderLeft"><rect id="holderL" fill="#c0c0c0" height="285" stroke="#000" stroke-linecap="round" stroke-width=".5" width="22" x="32.312" y="32.5"/><path id="bracketLB" d="m .9 205.5v39h30.6v-39zm9 4c1.66 0 3 1.34 3 3s-1.34 3-3 3-3-1.34-3-3 1.34-3 3-3zm0 25c1.66 0 3 1.35 3 3 0 1.67-1.34 3-3 3s-3-1.33-3-3c0-1.65 1.34-3 3-3z" fill="#c5c7c4" fill-opacity=".8" stroke="#000" stroke-linejoin="bevel" stroke-width=".8"/><path id="bracketLT" d="m .9 105.5v39h30.6v-39zm9 4c1.66 0 3 1.34 3 3 0 1.67-1.34 3-3 3s-3-1.33-3-3c0-1.66 1.34-3 3-3zm0 25c1.66 0 3 1.34 3 3 0 1.67-1.34 3-3 3s-3-1.33-3-3c0-1.66 1.34-3 3-3z" fill="#c5c7c4" fill-opacity=".8" stroke="#000" stroke-linejoin="bevel" stroke-width=".8"/></g><g id="holderRight"><rect id="holderR" fill="#c0c0c0" height="285" stroke="#000" stroke-linecap="round" stroke-width=".5" width="22" x="695.56" y="32.498"/><path id="bracketRT" d="m718.4 105.49v39.02h30.6v-39.01zm21.6 4.06c1.66 0 3 1.34 3 3.01 0 1.65-1.34 3-3 3s-3-1.35-3-3c0-1.67 1.34-3.01 3-3.01zm0 25.01c1.66 0 3 1.33 3 3 0 1.65-1.34 3-3 3s-3-1.35-3-3c0-1.67 1.34-3 3-3z" fill="#c5c7c4" fill-opacity=".8" stroke="#000" stroke-linejoin="bevel" stroke-width=".8"/><path id="bracketRB" d="m718.4 205.5v39h30.6v-39zm21.6 4.05c1.66 0 3 1.33 3 3 0 1.66-1.34 3-3 3s-3-1.34-3-3c0-1.67 1.34-3 3-3zm0 25c1.66 0 3 1.33 3 3 0 1.66-1.34 3-3 3s-3-1.34-3-3c0-1.67 1.34-3 3-3z" fill="#c5c7c4" fill-opacity=".8" stroke="#000" stroke-linejoin="bevel" stroke-width=".8"/></g><rect id="L1_40" fill="#c6782e" height="40" stroke="#000" stroke-linecap="round" stroke-opacity=".27451" stroke-width=".5" width="684" x="33" y="55"/><rect id="L2_40" fill="#c6782e" height="40" stroke="#000" stroke-linecap="round" stroke-opacity=".27451" stroke-width=".5" width="684" x="33" y="155"/><rect id="L3_40" fill="#c6782e" height="40" stroke="#000" stroke-linecap="round" stroke-opacity=".27451" stroke-width=".5" width="684" x="33" y="255"/><rect id="L1_30" fill="#c6782e" height="30" stroke="#000" stroke-linecap="round" stroke-opacity=".27451" stroke-width=".5" width="684" x="33" y="60"/><rect id="L2_30" fill="#c6782e" height="30" stroke="#000" stroke-linecap="round" stroke-opacity=".27451" stroke-width=".5" width="684" x="33" y="160"/><rect id="L3_30" fill="#c6782e" height="30" stroke="#000" stroke-linecap="round" stroke-opacity=".27451" stroke-width=".5" width="684" x="33" y="260"/><path id="boltsLeft" d="m37.102 275 3.89-6.25h6.62l3.91 6.25-3.91 6.25h-6.62zm0-100 3.89-6.25h6.62l3.91 6.25-3.91 6.25h-6.62zm0-100 3.89-6.25h6.62l3.91 6.25-3.91 6.25h-6.62z" fill="#c0c0c0" stroke="#000" stroke-width=".99992"/><path id="boltsRight" d="m699.1 275 3.89-6.25h6.62l3.91 6.25-3.91 6.25h-6.62zm0-100 3.89-6.25h6.62l3.91 6.25-3.91 6.25h-6.62zm0-100 3.89-6.25h6.62l3.91 6.25-3.91 6.25h-6.62z" fill="#c0c0c0" stroke="#000" stroke-width=".99992"/></g></g></svg>