<svg id="svg2" height="750" viewBox="0 0 750 750" width="750" xmlns="http://www.w3.org/2000/svg"><g id="layer1"><g id="edfLeftTop"><rect id="rect4262" fill="#f00" fill-rule="evenodd" height="14" stroke="#f00" stroke-linecap="round" stroke-linejoin="round" width="14" x="3" y="30.5"/><circle id="path4201" cx="10" cy="37.5" fill="#a00000" fill-rule="evenodd" r="4.5" stroke="#a00000" stroke-linecap="square"/><rect id="rect4264" fill="#f00" fill-rule="evenodd" height="10" stroke="#f00" stroke-linecap="square" stroke-linejoin="round" width="10" x="5" y="20.5"/><rect id="rect4197" fill="#c00000" fill-rule="evenodd" height="6" stroke="#c00000" stroke-linecap="square" width="6" x="7" y="22.5"/><rect id="rect4266" fill="#f00" fill-rule="evenodd" height="10" stroke="#f00" stroke-linecap="round" stroke-linejoin="round" width="10" x="5" y="44.5"/><rect id="rect4199" fill="#c00000" fill-rule="evenodd" height="6" stroke="#c00000" stroke-linecap="square" width="6" x="7" y="46.5"/></g><g id="edfRightTop"><rect id="rect4292" fill="#f00" fill-rule="evenodd" height="14" stroke="#f00" stroke-linecap="round" stroke-linejoin="round" width="14" x="733" y="30.5"/><circle id="circle4294" cx="740" cy="37.5" fill="#a00000" fill-rule="evenodd" r="4.5" stroke="#a00000" stroke-linecap="square"/><rect id="rect4296" fill="#f00" fill-rule="evenodd" height="10" stroke="#f00" stroke-linecap="square" stroke-linejoin="round" width="10" x="735" y="20.5"/><rect id="rect4298" fill="#c00000" fill-rule="evenodd" height="6" stroke="#c00000" stroke-linecap="square" width="6" x="737" y="22.5"/><rect id="rect4300" fill="#f00" fill-rule="evenodd" height="10" stroke="#f00" stroke-linecap="round" stroke-linejoin="round" width="10" x="735" y="44.5"/><rect id="rect4302" fill="#c00000" fill-rule="evenodd" height="6" stroke="#c00000" stroke-linecap="square" width="6" x="737" y="46.5"/></g><g id="edfRightBottom"><rect id="rect4320" fill="#f00" fill-rule="evenodd" height="14" stroke="#f00" stroke-linecap="round" stroke-linejoin="round" width="14" x="733" y="705.5"/><circle id="circle4322" cx="740" cy="712.5" fill="#a00000" fill-rule="evenodd" r="4.5" stroke="#a00000" stroke-linecap="square"/><rect id="rect4324" fill="#f00" fill-rule="evenodd" height="10" stroke="#f00" stroke-linecap="square" stroke-linejoin="round" width="10" x="735" y="695.5"/><rect id="rect4326" fill="#c00000" fill-rule="evenodd" height="6" stroke="#c00000" stroke-linecap="square" width="6" x="737" y="697.5"/><rect id="rect4328" fill="#f00" fill-rule="evenodd" height="10" stroke="#f00" stroke-linecap="round" stroke-linejoin="round" width="10" x="735" y="719.5"/><rect id="rect4330" fill="#c00000" fill-rule="evenodd" height="6" stroke="#c00000" stroke-linecap="square" width="6" x="737" y="721.5"/></g><g id="edfLeftBottom"><rect id="rect4334" fill="#f00" fill-rule="evenodd" height="14" stroke="#f00" stroke-linecap="round" stroke-linejoin="round" width="14" x="3" y="705.5"/><circle id="circle4336" cx="10" cy="712.5" fill="#a00000" fill-rule="evenodd" r="4.5" stroke="#a00000" stroke-linecap="square"/><rect id="rect4338" fill="#f00" fill-rule="evenodd" height="10" stroke="#f00" stroke-linecap="square" stroke-linejoin="round" width="10" x="5" y="695.5"/><rect id="rect4340" fill="#c00000" fill-rule="evenodd" height="6" stroke="#c00000" stroke-linecap="square" width="6" x="7" y="697.5"/><rect id="rect4342" fill="#f00" fill-rule="evenodd" height="10" stroke="#f00" stroke-linecap="round" stroke-linejoin="round" width="10" x="5" y="719.5"/><rect id="rect4344" fill="#c00000" fill-rule="evenodd" height="6" stroke="#c00000" stroke-linecap="square" width="6" x="7" y="721.5"/></g><path id="frontPanel_750x750" d="m103.5 717v-684h-46.5v684zm543 0h46.5v-684h-46.5zm103.5 33h-750v-750h750z" fill="#c5c7c4" fill-opacity=".8" fill-rule="evenodd" stroke="#000" stroke-linecap="square"/><path id="frontPanel_750x500" d="m103.5 717v-684h-46.5v684zm293 0h46.5v-684h-46.5zm103.5 33h-500v-750h500z" fill="#c5c7c4" fill-opacity=".8" fill-rule="evenodd" stroke="#000" stroke-linecap="square"/><path id="frontPanel_750x250" d="m103.5 717v-684h-46.5v684zm146.5 33h-250v-750h250z" fill="#c5c7c4" fill-opacity=".8" fill-rule="evenodd" stroke="#000" stroke-linecap="square"/><path id="frontPanel_600x750" d="m103.5 570v-540h-46.5v540zm543 0h46.5v-540h-46.5zm103.5 30h-750v-600h750z" fill="#c5c7c4" fill-opacity=".8" fill-rule="evenodd" stroke="#000" stroke-linecap="square"/><path id="frontPanel_600x500" d="m103.5 570v-540h-46.5v540zm293 0h46.5v-540h-46.5zm103.5 30h-500v-600h500z" fill="#c5c7c4" fill-opacity=".8" fill-rule="evenodd" stroke="#000" stroke-linecap="square"/><path id="frontPanel_600x250" d="m103.5 570v-540h-46.5v540zm146.5 30h-250v-600h250z" fill="#c5c7c4" fill-opacity=".8" fill-rule="evenodd" stroke="#000" stroke-linecap="square"/><path id="frontPanel_450x500" d="m103.5 423v-396h-46.5v396zm293 0h46.5v-396h-46.5zm103.5 27h-500v-450h500z" fill="#c5c7c4" fill-opacity=".8" fill-rule="evenodd" stroke="#000" stroke-linecap="square"/><path id="frontPanel_450x250" d="m103.5 423v-396h-46.5v396zm146.5 27h-250v-450h250z" fill="#c5c7c4" fill-opacity=".8" fill-rule="evenodd" stroke="#000" stroke-linecap="square"/><g id="fittingLeftTop"><circle id="circle1-0" cx="10" cy="37.5" fill="#c5c7c4" fill-rule="evenodd" r="4.5" stroke="#000" stroke-linecap="square"/><rect id="rect4169-63" fill="#c5c7c4" fill-rule="evenodd" height="7" stroke="#000" stroke-linecap="square" stroke-width=".5" width="2" x="9" y="22.5"/><rect id="rect4171-7" fill="#c5c7c4" fill-rule="evenodd" height="7" stroke="#000" stroke-linecap="square" stroke-width=".5" width="2" x="9" y="45.5"/><path id="line4144-6" d="m13 37.5h-6m3-3v6" fill="#c5c7c4" stroke="#000"/></g><g id="fittingRightTop"><circle id="circle3843" cx="740" cy="37.5" fill="#c5c7c4" fill-rule="evenodd" r="4.5" stroke="#000" stroke-linecap="square"/><rect id="rect3845" fill="#c5c7c4" fill-rule="evenodd" height="7" stroke="#000" stroke-linecap="square" stroke-width=".5" width="2" x="739" y="22.5"/><rect id="rect3847" fill="#c5c7c4" fill-rule="evenodd" height="7" stroke="#000" stroke-linecap="square" stroke-width=".5" width="2" x="739" y="45.5"/><path id="path3849" d="m743 37.5h-6m3-3v6" fill="#c5c7c4" stroke="#000"/></g><g id="fittingRightBottom"><circle id="circle3863" cx="740" cy="712.5" fill="#c5c7c4" fill-rule="evenodd" r="4.5" stroke="#000" stroke-linecap="square"/><rect id="rect3865" fill="#c5c7c4" fill-rule="evenodd" height="7" stroke="#000" stroke-linecap="square" stroke-width=".5" width="2" x="739" y="697.5"/><rect id="rect3867" fill="#c5c7c4" fill-rule="evenodd" height="7" stroke="#000" stroke-linecap="square" stroke-width=".5" width="2" x="739" y="720.5"/><path id="path3869" d="m743 712.5h-6m3-3v6" fill="#c5c7c4" stroke="#000"/></g><g id="fittingLeftBottom"><circle id="circle3883" cx="10" cy="712.5" fill="#c5c7c4" fill-rule="evenodd" r="4.5" stroke="#000" stroke-linecap="square"/><rect id="rect3885" fill="#c5c7c4" fill-rule="evenodd" height="7" stroke="#000" stroke-linecap="square" stroke-width=".5" width="2" x="9" y="697.5"/><rect id="rect3887" fill="#c5c7c4" fill-rule="evenodd" height="7" stroke="#000" stroke-linecap="square" stroke-width=".5" width="2" x="9" y="720.5"/><path id="path3889" d="m13 712.5h-6m3-3v6" fill="#c5c7c4" stroke="#000"/></g><path id="dTop250" d="m125 20.25a61.25 19.5 0 0 1 -61.25-19.5h122.5a61.25 19.5 0 0 1 -61.25 19.5z" fill="none" stroke="#666" stroke-linecap="round" stroke-linejoin="round" stroke-width="2.5"/><path id="dBottom250" d="m125 729.75a61.25 19.5 0 0 0 -61.25 19.5h122.5a61.25 19.5 0 0 0 -61.25-19.5z" fill="none" stroke="#666" stroke-linecap="round" stroke-linejoin="round" stroke-width="2.5"/><path id="dTop500" d="m375 20.25a61.25 19.5 0 0 1 -61.25-19.5h122.5a61.25 19.5 0 0 1 -61.25 19.5z" fill="none" stroke="#666" stroke-linecap="round" stroke-linejoin="round" stroke-width="2.5"/><path id="dBottom500" d="m375 729.75a61.25 19.5 0 0 0 -61.25 19.5h122.5a61.25 19.5 0 0 0 -61.25-19.5z" fill="none" stroke="#666" stroke-linecap="round" stroke-linejoin="round" stroke-width="2.5"/><path id="dTop750" d="m625 20.25a61.25 19.5 0 0 1 -61.25-19.5h122.5a61.25 19.5 0 0 1 -61.25 19.5z" fill="none" stroke="#666" stroke-linecap="round" stroke-linejoin="round" stroke-width="2.5"/><path id="dBottom750" d="m625 729.75a61.25 19.5 0 0 0 -61.25 19.5h122.5a61.25 19.5 0 0 0 -61.25-19.5z" fill="none" stroke="#666" stroke-linecap="round" stroke-linejoin="round" stroke-width="2.5"/><text id="textTop" font-family="sans-serif" font-size="20" letter-spacing="0" text-anchor="middle" word-spacing="0" x="375.21" y="32.041"><tspan id="tspan4155" x="375.21" y="36">Text</tspan></text><text id="textBottom" font-family="sans-serif" font-size="20" letter-spacing="0" text-anchor="middle" word-spacing="0" x="375.21" y="728"><tspan id="tspan4205" x="375.21" y="728">Text</tspan></text></g></svg>