<svg id="svg2" height="750" viewBox="0 0 750 750" width="750" xmlns="http://www.w3.org/2000/svg"><g id="layer1"><path id="traverseTop750" d="m2.0025 118v39h32.0005v-39zm8.0005 4a3 3 0 0 1 3 3 3 3 0 0 1 -3 3 3 3 0 0 1 -3.0005-3 3 3 0 0 1 3.0005-3zm0 25a3 3 0 0 1 3 3 3 3 0 0 1 -3 3 3 3 0 0 1 -3.0005-3 3 3 0 0 1 3.0005-3zm-8.0005 71v39h32.0005v-39zm8.0005 4a3 3 0 0 1 3 3 3 3 0 0 1 -3 3 3 3 0 0 1 -3.0005-3 3 3 0 0 1 3.0005-3zm0 25a3 3 0 0 1 3 3 3 3 0 0 1 -3 3 3 3 0 0 1 -3.0005-3 3 3 0 0 1 3.0005-3zm24.01-139.5v160h681.987v-160zm20.99 49h175.007v12h-175.007zm194.997 0h250v12h-250zm270.01 0h174.99v12h-174.99zm-465.007 50h175.007v12h-175.007zm194.997 0h250v12h-250zm270.01 0h174.99v12h-174.99zm195.99-88.55v39h32v-39zm24 4.05a3 3 0 0 1 3 3 3 3 0 0 1 -3 3 3 3 0 0 1 -3-3 3 3 0 0 1 3-3zm0 25a3 3 0 0 1 3 3 3 3 0 0 1 -3 3 3 3 0 0 1 -3-3 3 3 0 0 1 3-3zm-24 71v39h32v-39zm24 4a3 3 0 0 1 3 3 3 3 0 0 1 -3 3 3 3 0 0 1 -3-3 3 3 0 0 1 3-3zm0 25a3 3 0 0 1 3 3 3 3 0 0 1 -3 3 3 3 0 0 1 -3-3 3 3 0 0 1 3-3z" fill="#c5c7c4" fill-opacity=".8" stroke="#000" stroke-linejoin="bevel" stroke-width=".8"/><path id="traverseBottom750" d="m2 505.5v39h32v-39zm8 4a3 3 0 0 1 3 3 3 3 0 0 1 -3 3 3 3 0 0 1 -3-3 3 3 0 0 1 3-3zm0 25a3 3 0 0 1 3 3 3 3 0 0 1 -3 3 3 3 0 0 1 -3-3 3 3 0 0 1 3-3zm-8 71v39h32v-39zm8 4a3 3 0 0 1 3 3 3 3 0 0 1 -3 3 3 3 0 0 1 -3-3 3 3 0 0 1 3-3zm0 25a3 3 0 0 1 3 3 3 3 0 0 1 -3 3 3 3 0 0 1 -3-3 3 3 0 0 1 3-3zm24.01-139.5v160h681.99v-160zm20.99 49h175.01v12h-175.01zm195 0h250v12h-250zm270.01 0h174.99v12h-174.99zm-465.01 50h175.01v12h-175.01zm195 0h250v12h-250zm270.01 0h174.99v12h-174.99zm195.99-88.55v39h32v-39zm24 4.05a3 3 0 0 1 3 3 3 3 0 0 1 -3 3 3 3 0 0 1 -3-3 3 3 0 0 1 3-3zm0 25a3 3 0 0 1 3 3 3 3 0 0 1 -3 3 3 3 0 0 1 -3-3 3 3 0 0 1 3-3zm-24 71v39h32v-39zm24 4a3 3 0 0 1 3 3 3 3 0 0 1 -3 3 3 3 0 0 1 -3-3 3 3 0 0 1 3-3zm0 25a3 3 0 0 1 3 3 3 3 0 0 1 -3 3 3 3 0 0 1 -3-3 3 3 0 0 1 3-3z" fill="#c5c7c4" fill-opacity=".8" stroke="#000" stroke-linejoin="bevel" stroke-width=".8"/><path id="traverseTop500" d="m466 117.97v39h32v-39zm24 4.05a3 3 0 0 1 3 3 3 3 0 0 1 -3 3 3 3 0 0 1 -3-3 3 3 0 0 1 3-3zm0 25a3 3 0 0 1 3 3 3 3 0 0 1 -3 3 3 3 0 0 1 -3-3 3 3 0 0 1 3-3zm-24 71v39h32v-39zm24 4a3 3 0 0 1 3 3 3 3 0 0 1 -3 3 3 3 0 0 1 -3-3 3 3 0 0 1 3-3zm0 25a3 3 0 0 1 3 3 3 3 0 0 1 -3 3 3 3 0 0 1 -3-3 3 3 0 0 1 3-3zm-488-129.02v39h32.001v-39zm7.9997 4a3 3 0 0 1 3.0003 3 3 3 0 0 1 -3.0003 3 3 3 0 0 1 -2.9997-3 3 3 0 0 1 2.9997-3zm0 25a3 3 0 0 1 3.0003 3 3 3 0 0 1 -3.0003 3 3 3 0 0 1 -2.9997-3 3 3 0 0 1 2.9997-3zm-7.9997 71v39h32.001v-39zm7.9997 4a3 3 0 0 1 3.0003 3 3 3 0 0 1 -3.0003 3 3 3 0 0 1 -2.9997-3 3 3 0 0 1 2.9997-3zm0 25a3 3 0 0 1 3.0003 3 3 3 0 0 1 -3.0003 3 3 3 0 0 1 -2.9997-3 3 3 0 0 1 2.9997-3zm24.0013-139.5v160h431.999v-160zm30 49h174.999v12h-174.999zm196.999 0h175v12h-175zm-196.999 50h174.999v12h-174.999zm196.999 0h175v12h-175z" fill="#c5c7c4" fill-opacity=".8" stroke="#000" stroke-linejoin="bevel" stroke-width=".8"/><path id="traverseBottom500" d="m466 505.47v39h32v-39zm24 4.05a3 3 0 0 1 3 3 3 3 0 0 1 -3 3 3 3 0 0 1 -3-3 3 3 0 0 1 3-3zm0 25a3 3 0 0 1 3 3 3 3 0 0 1 -3 3 3 3 0 0 1 -3-3 3 3 0 0 1 3-3zm-24 71v39h32v-39zm24 4a3 3 0 0 1 3 3 3 3 0 0 1 -3 3 3 3 0 0 1 -3-3 3 3 0 0 1 3-3zm0 25a3 3 0 0 1 3 3 3 3 0 0 1 -3 3 3 3 0 0 1 -3-3 3 3 0 0 1 3-3zm-488-129.02v39h32.001v-39zm8 4a3 3 0 0 1 3 3 3 3 0 0 1 -3 3 3 3 0 0 1 -3-3 3 3 0 0 1 3-3zm0 25a3 3 0 0 1 3 3 3 3 0 0 1 -3 3 3 3 0 0 1 -3-3 3 3 0 0 1 3-3zm-8 71v39h32.001v-39zm8 4a3 3 0 0 1 3 3 3 3 0 0 1 -3 3 3 3 0 0 1 -3-3 3 3 0 0 1 3-3zm0 25a3 3 0 0 1 3 3 3 3 0 0 1 -3 3 3 3 0 0 1 -3-3 3 3 0 0 1 3-3zm24.001-139.5v160h431.999v-160zm30 49h174.999v12h-174.999zm196.999 0h175v12h-175zm-196.999 50h174.999v12h-174.999zm196.999 0h175v12h-175z" fill="#c5c7c4" fill-opacity=".8" stroke="#000" stroke-linejoin="bevel" stroke-width=".8"/><path id="traverseTop250" d="m225 107.5v160h22v-160zm15 27a3 3 0 0 1 3 3 3 3 0 0 1 -3 3 3 3 0 0 1 -3-3 3 3 0 0 1 3-3zm0 100a3 3 0 0 1 3 3 3 3 0 0 1 -3 3 3 3 0 0 1 -3-3 3 3 0 0 1 3-3zm-215-127v160h200v-160zm15 49h170v12h-170zm0 50h170v12h-170zm-37-99v160h22v-160zm6.9997 27a3 3 0 0 1 3.0003 3 3 3 0 0 1 -3.0003 3 3 3 0 0 1 -2.9997-3 3 3 0 0 1 2.9997-3zm0 100a3 3 0 0 1 3.0003 3 3 3 0 0 1 -3.0003 3 3 3 0 0 1 -2.9997-3 3 3 0 0 1 2.9997-3z" fill="#c5c7c4" fill-opacity=".8" stroke="#000" stroke-linejoin="bevel" stroke-width=".79999"/><path id="traverseBottom250" d="m225 495v160h22v-160zm15 27a3 3 0 0 1 3 3 3 3 0 0 1 -3 3 3 3 0 0 1 -3-3 3 3 0 0 1 3-3zm0 100a3 3 0 0 1 3 3 3 3 0 0 1 -3 3 3 3 0 0 1 -3-3 3 3 0 0 1 3-3zm-215.003-127v160h200.003v-160zm15 49h170.003v12h-170.003zm0 50h170.003v12h-170.003zm-36.997-99v160h21.997v-160zm7 27a3 3 0 0 1 2.999 3 3 3 0 0 1 -2.999 3 3 3 0 0 1 -3-3 3 3 0 0 1 3-3zm0 100a3 3 0 0 1 2.999 3 3 3 0 0 1 -2.999 3 3 3 0 0 1 -3-3 3 3 0 0 1 3-3z" fill="#c5c7c4" fill-opacity=".8" stroke="#000" stroke-linejoin="bevel" stroke-width=".79999"/></g></svg>