<svg id="svg2" enable-background="new 0 0 500 450" height="450" viewBox="0 0 500 450" width="500" xmlns="http://www.w3.org/2000/svg"><g id="layer1"><g id="edfLeftTop"><rect id="rect4262" fill="#f00" height="14" stroke="#f00" stroke-linecap="round" stroke-linejoin="round" width="14" x="3" y="30.5"/><circle id="path4201" cx="10" cy="37.5" fill="#a00000" r="4" stroke="#a00000" stroke-linecap="square"/><rect id="rect4264" fill="#f00" height="10" stroke="#f00" stroke-linecap="square" stroke-linejoin="round" width="10" x="5" y="20.5"/><rect id="rect4197" fill="#c00000" height="6" stroke="#c00000" stroke-linecap="square" width="6" x="7" y="22.5"/><rect id="rect4266" fill="#f00" height="10" stroke="#f00" stroke-linecap="round" stroke-linejoin="round" width="10" x="5" y="44.5"/><rect id="rect4199" fill="#c00000" height="6" stroke="#c00000" stroke-linecap="square" width="6" x="7" y="46.5"/></g><g id="edfRightTop"><rect id="rect4292" fill="#f00" height="14" stroke="#f00" stroke-linecap="round" stroke-linejoin="round" width="14" x="483" y="30.5"/><circle id="circle4294" cx="490" cy="37.5" fill="#a00000" r="4" stroke="#a00000" stroke-linecap="square"/><rect id="rect4296" fill="#f00" height="10" stroke="#f00" stroke-linecap="square" stroke-linejoin="round" width="10" x="485" y="20.5"/><rect id="rect4298" fill="#c00000" height="6" stroke="#c00000" stroke-linecap="square" width="6" x="487" y="22.5"/><rect id="rect4300" fill="#f00" height="10" stroke="#f00" stroke-linecap="round" stroke-linejoin="round" width="10" x="485" y="44.5"/><rect id="rect4302" fill="#c00000" height="6" stroke="#c00000" stroke-linecap="square" width="6" x="487" y="46.5"/></g><g id="edfRightBottom"><rect id="rect4320" fill="#f00" height="14" stroke="#f00" stroke-linecap="round" stroke-linejoin="round" width="14" x="483" y="405.5"/><circle id="circle4322" cx="490" cy="412.5" fill="#a00000" r="4" stroke="#a00000" stroke-linecap="square"/><rect id="rect4324" fill="#f00" height="10" stroke="#f00" stroke-linecap="square" stroke-linejoin="round" width="10" x="485" y="395.5"/><rect id="rect4326" fill="#c00000" height="6" stroke="#c00000" stroke-linecap="square" width="6" x="487" y="397.5"/><rect id="rect4328" fill="#f00" height="10" stroke="#f00" stroke-linecap="round" stroke-linejoin="round" width="10" x="485" y="419.5"/><rect id="rect4330" fill="#c00000" height="6" stroke="#c00000" stroke-linecap="square" width="6" x="487" y="421.5"/></g><g id="edfLeftBottom"><rect id="rect4334" fill="#f00" height="14" stroke="#f00" stroke-linecap="round" stroke-linejoin="round" width="14" x="3" y="405.5"/><circle id="circle4336" cx="10" cy="412.5" fill="#a00000" r="4" stroke="#a00000" stroke-linecap="square"/><rect id="rect4338" fill="#f00" height="10" stroke="#f00" stroke-linecap="square" stroke-linejoin="round" width="10" x="5" y="395.5"/><rect id="rect4340" fill="#c00000" height="6" stroke="#c00000" stroke-linecap="square" width="6" x="7" y="397.5"/><rect id="rect4342" fill="#f00" height="10" stroke="#f00" stroke-linecap="round" stroke-linejoin="round" width="10" x="5" y="419.5"/><rect id="rect4344" fill="#c00000" height="6" stroke="#c00000" stroke-linecap="square" width="6" x="7" y="421.5"/></g><rect id="frontPanel" fill="#c5c7c4" fill-opacity=".8" height="450" stroke="#000" stroke-linecap="square" width="500"/><g id="fittingLeftTop"><circle id="circle1" cx="10" cy="37.5" fill="#c5c7c4" fill-rule="evenodd" r="4.5" stroke="#000" stroke-linecap="square"/><line id="line1" stroke="#000" x1="10" x2="10" y1="34.5" y2="40.5"/><rect id="rect4169" fill="#c5c7c4" fill-rule="evenodd" height="7" stroke="#000" stroke-linecap="square" stroke-width=".5" width="2" x="9" y="22.5"/><rect id="rect4171" fill="#c5c7c4" fill-rule="evenodd" height="7" stroke="#000" stroke-linecap="square" stroke-width=".5" width="2" x="9" y="45.5"/><line id="line4144" stroke="#000" x1="13" x2="7" y1="37.5" y2="37.5"/></g><g id="fittingRightTop"><circle id="circle5134" cx="490" cy="37.5" fill="#c5c7c4" fill-rule="evenodd" r="4.5" stroke="#000" stroke-linecap="square"/><line id="line5136" stroke="#000" x1="490" x2="490" y1="34.5" y2="40.5"/><rect id="rect5138" fill="#c5c7c4" fill-rule="evenodd" height="7" stroke="#000" stroke-linecap="square" stroke-width=".5" width="2" x="489" y="22.5"/><rect id="rect5140" fill="#c5c7c4" fill-rule="evenodd" height="7" stroke="#000" stroke-linecap="square" stroke-width=".5" width="2" x="489" y="45.5"/><line id="line5142" stroke="#000" x1="493" x2="487" y1="37.5" y2="37.5"/></g><g id="fittingRightBottom"><circle id="circle5172" cx="490" cy="412.5" fill="#c5c7c4" fill-rule="evenodd" r="4.5" stroke="#000" stroke-linecap="square"/><line id="line5174" stroke="#000" x1="490" x2="490" y1="409.5" y2="415.5"/><rect id="rect5176" fill="#c5c7c4" fill-rule="evenodd" height="7" stroke="#000" stroke-linecap="square" stroke-width=".5" width="2" x="489" y="397.5"/><rect id="rect5178" fill="#c5c7c4" fill-rule="evenodd" height="7" stroke="#000" stroke-linecap="square" stroke-width=".5" width="2" x="489" y="420.5"/><line id="line5180" stroke="#000" x1="493" x2="487" y1="412.5" y2="412.5"/></g><g id="fittingLeftBottom"><circle id="circle5210" cx="10" cy="412.5" fill="#c5c7c4" fill-rule="evenodd" r="4.5" stroke="#000" stroke-linecap="square"/><line id="line5212" stroke="#000" x1="10" x2="10" y1="409.5" y2="415.5"/><rect id="rect5214" fill="#c5c7c4" fill-rule="evenodd" height="7" stroke="#000" stroke-linecap="square" stroke-width=".5" width="2" x="9" y="397.5"/><rect id="rect5216" fill="#c5c7c4" fill-rule="evenodd" height="7" stroke="#000" stroke-linecap="square" stroke-width=".5" width="2" x="9" y="420.5"/><line id="line5218" stroke="#000" x1="13" x2="7" y1="412.5" y2="412.5"/></g><path id="dTop250" d="m126 20.248a61.25 19.5 0 0 1 -61.25-19.498h122.5a61.25 19.5 0 0 1 -61.25 19.498z" fill="none" stroke="#666" stroke-linecap="round" stroke-linejoin="round" stroke-width="2.5"/><path id="dBottom250" d="m126 429.75a61.25 19.5 0 0 0 -61.25 19.5h122.5a61.25 19.5 0 0 0 -61.25-19.5z" fill="none" stroke="#666" stroke-linecap="round" stroke-linejoin="round" stroke-width="2.5"/><path id="dTop500" d="m374 20.248a61.25 19.5 0 0 1 -61.25-19.498h122.5a61.25 19.5 0 0 1 -61.25 19.498z" fill="none" stroke="#666" stroke-linecap="round" stroke-linejoin="round" stroke-width="2.5"/><path id="dBottom500" d="m374 429.75a61.25 19.5 0 0 0 -61.25 19.5h122.5a61.25 19.5 0 0 0 -61.25-19.5z" fill="none" stroke="#666" stroke-linecap="round" stroke-linejoin="round" stroke-width="2.5"/><text id="textTop" font-family="sans-serif" font-size="20" letter-spacing="0" text-anchor="middle" word-spacing="0" x="247.52" y="28.92"><tspan id="tspan4155" x="247.52" y="36">Text</tspan></text><text id="textBottom" font-family="sans-serif" font-size="20" letter-spacing="0" text-anchor="middle" word-spacing="0" x="247.52" y="442.92"><tspan id="tspan4219" x="247.52" y="432">Text</tspan></text></g></svg>