<svg id="svg4799" height="195" viewBox="0 0 26 195" width="26" xmlns="http://www.w3.org/2000/svg"><g id="layer1"><rect id="rect4459" fill="#f2f2f2" height="194.75" rx="2" stroke="#4d4d4d" stroke-linecap="round" stroke-linejoin="round" stroke-width=".5" width="25.75"/><path id="path4481" d="m12.875 11.375a11 11 0 0 0 -10.9999 11 11 11 0 0 0 10.9999 11 11 11 0 0 0 11-11 11 11 0 0 0 -11-11zm0 75a11 11 0 0 0 -10.9999 11 11 11 0 0 0 10.9999 10.995 11 11 0 0 0 11-10.995 11 11 0 0 0 -11-11zm0 74.995a11 11 0 0 0 -10.9999 11 11 11 0 0 0 10.9999 11 11 11 0 0 0 11-11 11 11 0 0 0 -11-11z" fill="#f2f2f2" stroke="#4d4d4d" stroke-linecap="round" stroke-linejoin="round" stroke-width=".5"/><path id="circle4483" d="m12.875 13.625a8.75 8.75 0 0 0 -8.75 8.75 8.75 8.75 0 0 0 8.75 8.75 8.75 8.75 0 0 0 8.75-8.75 8.75 8.75 0 0 0 -8.75-8.75zm0 75a8.75 8.75 0 0 0 -8.75 8.75 8.75 8.75 0 0 0 8.75 8.745 8.75 8.75 0 0 0 8.75-8.745 8.75 8.75 0 0 0 -8.75-8.75zm0 74.995a8.75 8.75 0 0 0 -8.75 8.75 8.75 8.75 0 0 0 8.75 8.75 8.75 8.75 0 0 0 8.75-8.75 8.75 8.75 0 0 0 -8.75-8.75z" fill="#ccc" stroke="#4d4d4d" stroke-linecap="round" stroke-linejoin="round" stroke-width=".5"/></g></svg>