<svg id="svg2" height="118" shape-rendering="crispEdges" viewBox="0 0 100 118" width="100" xmlns="http://www.w3.org/2000/svg"><g id="layer1"><rect id="rearPanel" fill="#575d5b" fill-rule="evenodd" height="118" stroke="#000" stroke-width=".8" width="100"/><g id="monitor"><rect id="label" fill="#bb1e10" fill-rule="evenodd" height="9" shape-rendering="crispEdges" width="45" x="27.5" y="5"/><path id="path5180" d="m30.21 6-.92 3.43h1.9v-3.43zm1.12 0v3.43h1.9l-.92-3.43zm3.92 0v3.43h2.03v-3.43zm2.17 0v3.43h2.13a2.1 2.1 0 0 0 -.73-.48 1.575 1.575 0 0 0  .81-1.37 1.575 1.575 0 0 0 -1.58-1.58zm3.29 0v3.43h2.03v-3.43zm2.17 0v3.43h2.13a2.1 2.1 0 0 0 -.73-.48 1.575 1.575 0 0 0  .81-1.37 1.575 1.575 0 0 0 -1.58-1.58zm-13.62 3.57-.92 3.43h1.75l.37-1.4h.73v-2.03zm2.07 0v2.03h.73l.37 1.4h1.75l-.91-3.43zm3.92 0v3.43h2.03v-3.43zm2.17 0v3.43h.63a2.1 2.1 0 0 0 2.1-2.1 2.1 2.1 0 0 0 -.48-1.33zm3.29 0v3.43h2.03v-3.43zm2.17 0v3.43h.63a2.1 2.1 0 0 0 2.1-2.1 2.1 2.1 0 0 0 -.48-1.33z" fill="#fff" shape-rendering="crispEdges"/><rect id="emptyPanel-5" fill="none" height="107" shape-rendering="crispEdges" stroke="#000" stroke-width=".5" width="45" x="27.5" y="5"/><rect id="emptyPanel-5-1" fill="#787878" fill-rule="evenodd" height="62" shape-rendering="crispEdges" stroke="#000" stroke-width=".49997" width="45" x="27.5" y="14"/><rect id="emptyPanel-5-1-3" fill="#787878" fill-rule="evenodd" height="13" shape-rendering="crispEdges" stroke="#000" stroke-width=".49999" width="45" x="27.5" y="91"/><circle id="path2932" cx="56.5" cy="81" fill="#ff0200" r="2.4368" stroke="#000" stroke-linejoin="bevel" stroke-width=".5"/><circle id="circle2949" cx="64.5" cy="81" fill="#6afe00" r="2.4368" stroke="#000" stroke-linejoin="bevel" stroke-width=".5"/><rect id="rect823" fill="none" height="3.1574" shape-rendering="crispEdges" stroke="#c0c0c0" stroke-width=".49999" width="7.5213" x="51.134" y="85.479"/><rect id="rect840" fill="none" height="3.1574" shape-rendering="crispEdges" stroke="#c0c0c0" stroke-width=".49999" width="7.5213" x="62.634" y="85.479"/><path id="path4543" d="m63.599 84.379c1.894 1.8 3.789 3.6 5.682 5.4" fill="none" stroke="#c0c0c0" stroke-width=".50001"/><path id="path4547" d="m69.42 84.374c-1.899 1.775-3.817 3.567-5.727 5.353" fill="none" stroke="#c0c0c0" stroke-width=".5"/><path id="path4551" d="m59.571 87.058c-3.088 0-6.23 0-9.352 0" fill="none" stroke="#c0c0c0" stroke-width=".49996"/><circle id="circle4559" cx="36" cy="108" r="1.7" stroke="#000" stroke-linejoin="bevel" stroke-width=".50001"/><path id="path4623" d="m71.01 87.058c-3.049 0-6.149 0-9.231 0" fill="none" stroke="#c0c0c0" stroke-width=".49996"/></g></g></svg>