<svg id="svg2" height="662.79999" shape-rendering="crispEdges" viewBox="0 0 50.799999 662.79999" width="50.799999" xmlns="http://www.w3.org/2000/svg"><g id="layer1"><rect id="emptyPanel" fill="#575d5b" fill-rule="evenodd" height="662" stroke="#000" stroke-width=".80000001" width="50"/><g id="breaker"><g id="details"><path id="path4263" d="m .74999544-.00001941v662.00000941h48.49999956v-662.00000941h-6.09961v2.59961001h2v1.5h-2-36.3007802-2v-1.5h2v-2.59961001z" fill="#575d5b" fill-rule="evenodd" stroke="#000" stroke-linecap="square" stroke-width=".80000001"/><rect id="label" fill="#bb1e10" fill-rule="evenodd" height="9" width="45" x="2.4996049" y="8.4714394"/><rect id="rect4615" fill="#fff" fill-rule="evenodd" height="9" width="45" x="2.4996049" y="635.9715"/><text id="fuseText" font-family="sans-serif" font-size="5" font-weight="bold" letter-spacing="0" line-height="125%" word-spacing="0" x="40.919903" xml:space="preserve" y="642.34198"><tspan id="tspan4519" x="17.749603" y="642.34198">NH00</tspan></text><text id="fuseText_2" line-height="100%" style="font-weight:bold;font-size:5;font-family:sans-serif;letter-spacing:0;word-spacing:0;overflow:visible;fill:#fff;shape-rendering:crispEdges" x="24.761255" xml:space="preserve" y="14.787845"><tspan id="tspan209-4" fill="#fff" font-family="sans-serif" font-size="5" font-weight="bold" line-height="100%" x="24.761255" y="14.787845">ZLBM00</tspan></text><rect id="rect4631" fill="none" height="35" stroke="#333" stroke-linecap="round" stroke-width=".5" width="45.5" x="2.2496047" y="563.7215"/><rect id="rect4603" fill="#bb1e10" fill-rule="evenodd" height="9" width="45" x="2.4996049" y="563.9715"/><path id="path5180" d="m5.4630798 9.4714396l-.918203 3.4300004h1.896836v-3.4300004zm1.118633 0v3.4300004h1.896837l-.918067-3.4300004zm3.9200012 0v3.4300004h2.03v-3.4300004zm2.17 0v3.4300004h2.125019a2.1000006 2.1000006 0 0 0 -.726659-.4822 1.5750004 1.5750004 0 0 0  .806778-1.3728 1.5750004 1.5750004 0 0 0 -1.575001-1.5750004 1.5750004 1.5750004 0 0 0 -.00014 0h-.63zm3.29 0v3.4300004h2.030001v-3.4300004zm2.170001 0v3.4300004h2.12502a2.1000006 2.1000006 0 0 0 -.726659-.4822 1.5750004 1.5750004 0 0 0  .806778-1.3728 1.5750004 1.5750004 0 0 0 -1.575001-1.5750004 1.5750004 1.5750004 0 0 0 -.00014 0h-.63zm-13.6242992 3.5700004l-.918204 3.43h1.750001l.371055-1.4h.731445v-2.03zm2.074297 0v2.03h.731582l.370919 1.4h1.75l-.918066-3.43zm3.9200012 0v3.43h2.03v-3.43zm2.17 0v3.43h.63a2.1000006 2.1000006 0 0 0  .00014 0 2.1000006 2.1000006 0 0 0  2.1-2.1 2.1000006 2.1000006 0 0 0 -.478379-1.33h-2.251759zm3.29 0v3.43h2.030001v-3.43zm2.170001 0v3.43h.63a2.1000006 2.1000006 0 0 0  .00014 0 2.1000006 2.1000006 0 0 0  2.100001-2.1 2.1000006 2.1000006 0 0 0 -.478379-1.33h-2.251759z" fill="#fff"/><path id="path4605" d="m5.4630798 564.97145l-.918203 3.43h1.896836v-3.43zm1.118633 0v3.43h1.896837l-.918067-3.43zm3.9200012 0v3.43h2.03v-3.43zm2.17 0v3.43h2.125019a2.1000006 2.1000006 0 0 0 -.726659-.4822 1.5750004 1.5750004 0 0 0  .806778-1.3728 1.5750004 1.5750004 0 0 0 -1.575001-1.575 1.5750004 1.5750004 0 0 0 -.00014 0h-.63zm3.29 0v3.43h2.030001v-3.43zm2.170001 0v3.43h2.12502a2.1000006 2.1000006 0 0 0 -.726659-.4822 1.5750004 1.5750004 0 0 0  .806778-1.3728 1.5750004 1.5750004 0 0 0 -1.575001-1.575 1.5750004 1.5750004 0 0 0 -.00014 0h-.63zm-13.6242992 3.57l-.918204 3.43h1.750001l.371055-1.4h.731445v-2.03zm2.074297 0v2.03h.731582l.370919 1.4h1.75l-.918066-3.43zm3.9200012 0v3.43h2.03v-3.43zm2.17 0v3.43h.63a2.1000006 2.1000006 0 0 0  .00014 0 2.1000006 2.1000006 0 0 0  2.1-2.1 2.1000006 2.1000006 0 0 0 -.478379-1.33h-2.251759zm3.29 0v3.43h2.030001v-3.43zm2.170001 0v3.43h.63a2.1000006 2.1000006 0 0 0  .00014 0 2.1000006 2.1000006 0 0 0  2.100001-2.1 2.1000006 2.1000006 0 0 0 -.478379-1.33h-2.251759z" fill="#fff"/><rect id="rect4384" fill="#f0f0f0" height="35" stroke="#000" stroke-linecap="square" stroke-width=".5" width="4" x="4.8001304" y="505.72144"/><rect id="rect4386" fill="#f0f0f0" height="35" stroke="#000" stroke-linecap="square" stroke-width=".5" width="4" x="41.199871" y="505.72144"/><path id="path4388" d="m14.88388 404.22129c0 0-1.196696.14957-1.590094.41995-.811509.55777-1.303281 2.34001-1.303281 2.34001 0 0-1.09026 5.47529-2.7537233 11.07885h31.5101823c-1.943933-5.6087-3.203811-11.07885-3.203811-11.07885 0 0-.57488-1.86175-1.396939-2.41618-.429762-.28987-1.274022-.34378-1.274022-.34378z" fill="#575d5b" fill-rule="evenodd" stroke="#000" stroke-linecap="square" stroke-width=".5"/><path id="path4390" d="m14.820501 410.33303c0 0-1.196693.14957-1.590091.41995-.811509.55776-1.303288 2.33999-1.303288 2.33999 0 0-4.3658189 12.60111-5.6590209 19.13504-.9884101 4.99396-1.4680943 15.31843-1.4680943 15.31843v51.62452 8.08061c-.0006313.31243.014345.62469.044872.93561.031386.31077.078266.61975.1404742.92585.062203.30644.1396911.60957.2321728.90826.091971.29814.1987597.59149.3199696.87896.1217733.2879.2578662.56952.4077653.8438.1491859.27427.3119751.5409.4877575.79889.1767423.25737.3662289.50575.5677496.74419.2004748.23899.412752.46781.6360363.68559.2242963.21805.459365.4247.704322.61918.2444007.19423.4983521.37612.7609023.54496.2626371.1684.5335174.32355.8116289.46488.2776557.14175.5622107.26952.8525987.38283.290814.11307.587088.21151.887719.29494.300755.0836.605497.15201.913083.2051.307483.0532.617435.091.928691.11329.220771.0157.442026.0235.663351.0234h21.681806c.312101-.00002.624005-.0157.934544-.0469.310379-.0308.619026-.077.924788-.13868.305437-.0623.607574-.1399.905279-.23243.298495-.0927.592169-.20022.879914-.32229.287537-.12128.568838-.25687.842845-.40628.273331-.15005.539001-.31367.796022-.49026.257708-.17625.506451-.36531.745293-.56645.238768-.20133.467325-.41451.684812-.63871.217077-.22397.422842-.45864.616526-.70317.194018-.24468.375689-.49892.544338-.76177.16887-.2629.324499-.53408.466296-.81255.141644-.27861.269271-.56415.382402-.85553.112936-.29114.21126-.58776.294606-.88873.08347-.3011.15184-.60619.204858-.91413.05318-.30783.09094-.61813.11316-.92974.0156-.22038.0234-.44123.02341-.66216v-8.04546-51.62452c0 0-.05388-10.3627-1.11492-15.35358-1.396206-6.56744-6.605309-19.13504-6.605309-19.13504 0 0-.574881-1.86173-1.396939-2.41617-.429762-.28987-1.274022-.34377-1.274022-.34377zm.508147 15.88975c.412992-.33802 1.357526-.35357 1.357526-.35357h16.985188c.430527 0 .685142.0163 1.018438.28908.290211.23757.422073.44657.496537.81438l3.350896 16.55201c0 0 1.152577 4.55333 1.393036 6.88132 1.785065 17.282.692567 21.15605-.03122 52.19683-.000279.012-.03122.0176-.03122.0176-.97404.49628-1.972263.94348-2.990931 1.33993-1.018757.39677-2.056701.74229-3.109943 1.03522-1.052632.29277-2.119226.53267-3.195789.7188-1.076875.18571-2.162354.31739-3.252368.39456-.772048.0547-1.545793.0821-2.319776.082-1.092676-.00006-2.184665-.0548-3.271878-.16407-1.087058-.10928-2.167977-.2729-3.238712-.49027-1.070944-.21705-2.130376-.48759-3.174327-.81059-1.04434-.32339-3.367351-.8864-4.374211-1.31259-.698818-.30855-.772055-.61217-.844797-1.37314-1.269422-13.27967-1.2594837-41.68179.02146-51.63429.299257-2.32514 1.394986-6.89304 1.394986-6.89304l3.350901-16.54101c.07446-.36757.176159-.51176.4662-.74916z" fill="#f0f0f0" fill-rule="evenodd" stroke="#000" stroke-linecap="square" stroke-width=".5"/><path id="path4392" d="m15.328648 426.22278c.412992-.33802 1.357526-.35357 1.357526-.35357h16.985188c.430527 0 .685142.0163 1.018438.28908.290211.23757.422073.44657.496537.81438l3.350896 16.55201c0 0 1.152577 4.55333 1.393036 6.88132 1.785065 17.282.692567 21.15605-.03122 52.19683-.000279.012-.03122.0176-.03122.0176-.97404.49628-1.972263.94348-2.990931 1.33993-1.018757.39677-2.056701.74229-3.109943 1.03522-1.052632.29277-2.119226.53267-3.195789.7188-1.076875.18571-2.162354.31739-3.252368.39456-.772048.0547-1.545793.0821-2.319776.082-1.092676-.00006-2.184665-.0548-3.271878-.16407-1.087058-.10928-2.167977-.2729-3.238712-.49027-1.070944-.21705-2.130376-.48759-3.174327-.81059-1.04434-.32339-3.367351-.8864-4.374211-1.31259-.698818-.30855-.772055-.61217-.844797-1.37314-1.269422-13.27967-1.2594837-41.68179.02146-51.63429.299257-2.32514 1.394986-6.89304 1.394986-6.89304l3.350901-16.54101c.07446-.36757.176159-.51176.4662-.74916z" fill="#333" fill-rule="evenodd" stroke="#000" stroke-linecap="square" stroke-width=".5"/><ellipse id="ellipse4394" cx="25.022755" cy="439.22449" fill-rule="evenodd" rx="4.7449074" ry="4.8753238" stroke="#4d4d4d" stroke-linecap="round" stroke-width=".49974847"/><ellipse id="ellipse4396" cx="25.022755" cy="499.94644" fill-rule="evenodd" rx="4.75" ry="4.875" stroke="#4d4d4d" stroke-linecap="round" stroke-width=".5"/><rect id="rect4568" fill-rule="evenodd" height="35" rx="5" stroke="#4d4d4d" stroke-linecap="round" stroke-width=".5" width="24" x="13.022755" y="448.53006"/><rect id="rect4402" fill="#f0f0f0" height="35" stroke="#000" stroke-linecap="square" stroke-width=".5" width="4" x="4.8001304" y="320.72144"/><rect id="rect4404" fill="#f0f0f0" height="35" stroke="#000" stroke-linecap="square" stroke-width=".5" width="4" x="41.199871" y="320.72144"/><path id="path4406" d="m14.88388 219.22129c0 0-1.196696.14957-1.590094.41995-.811509.55777-1.303281 2.34001-1.303281 2.34001 0 0-1.09026 5.47529-2.7537233 11.07885h31.5101823c-1.943933-5.6087-3.203811-11.07885-3.203811-11.07885 0 0-.57488-1.86175-1.396939-2.41618-.429762-.28987-1.274022-.34378-1.274022-.34378z" fill="#575d5b" fill-rule="evenodd" stroke="#000" stroke-linecap="square" stroke-width=".5"/><path id="path4408" d="m14.820501 225.33303c0 0-1.196693.14957-1.590091.41995-.811509.55776-1.303288 2.33999-1.303288 2.33999 0 0-4.3658189 12.60111-5.6590209 19.13504-.9884101 4.99396-1.4680943 15.31843-1.4680943 15.31843v51.62452 8.08061c-.0006313.31243.014345.62469.044872.93561.031386.31077.078266.61975.1404742.92585.062203.30644.1396911.60957.2321728.90826.091971.29814.1987597.59149.3199696.87896.1217733.2879.2578662.56952.4077653.8438.1491859.27427.3119751.5409.4877575.79889.1767423.25737.3662289.50575.5677496.74419.2004748.23899.412752.46781.6360363.68559.2242963.21805.459365.4247.704322.61918.2444007.19423.4983521.37612.7609023.54496.2626371.1684.5335174.32355.8116289.46488.2776557.14175.5622107.26952.8525987.38283.290814.11307.587088.21151.887719.29494.300755.0836.605497.15201.913083.2051.307483.0532.617435.091.928691.11329.220771.0157.442026.0235.663351.0234h21.681806c.312101-.00002.624005-.0157.934544-.0469.310379-.0308.619026-.077.924788-.13868.305437-.0623.607574-.1399.905279-.23243.298495-.0927.592169-.20022.879914-.32229.287537-.12128.568838-.25687.842845-.40628.273331-.15005.539001-.31367.796022-.49026.257708-.17625.506451-.36531.745293-.56645.238768-.20133.467325-.41451.684812-.63871.217077-.22397.422842-.45864.616526-.70317.194018-.24468.375689-.49892.544338-.76177.16887-.2629.324499-.53408.466296-.81255.141644-.27861.269271-.56415.382402-.85553.112936-.29114.21126-.58776.294606-.88873.08347-.3011.15184-.60619.204858-.91413.05318-.30783.09094-.61813.11316-.92974.0156-.22038.0234-.44123.02341-.66216v-8.04546-51.62452c0 0-.05388-10.3627-1.11492-15.35358-1.396206-6.56744-6.605309-19.13504-6.605309-19.13504 0 0-.574881-1.86173-1.396939-2.41617-.429762-.28987-1.274022-.34377-1.274022-.34377zm.508147 15.88975c.412992-.33802 1.357526-.35357 1.357526-.35357h16.985188c.430527 0 .685142.0163 1.018438.28908.290211.23757.422073.44657.496537.81438l3.350896 16.55201c0 0 1.152577 4.55333 1.393036 6.88132 1.785065 17.282.692567 21.15605-.03122 52.19683-.000279.012-.03122.0176-.03122.0176-.97404.49628-1.972263.94348-2.990931 1.33993-1.018757.39677-2.056701.74229-3.109943 1.03522-1.052632.29277-2.119226.53267-3.195789.7188-1.076875.18571-2.162354.31739-3.252368.39456-.772048.0547-1.545793.0821-2.319776.082-1.092676-.00006-2.184665-.0548-3.271878-.16407-1.087058-.10928-2.167977-.2729-3.238712-.49027-1.070944-.21705-2.130376-.48759-3.174327-.81059-1.04434-.32339-3.367351-.8864-4.374211-1.31259-.698818-.30855-.772055-.61217-.844797-1.37314-1.269422-13.27967-1.2594837-41.68179.02146-51.63429.299257-2.32514 1.394986-6.89304 1.394986-6.89304l3.350901-16.54101c.07446-.36757.176159-.51176.4662-.74916z" fill="#f0f0f0" fill-rule="evenodd" stroke="#000" stroke-linecap="square" stroke-width=".5"/><path id="path4410" d="m15.328648 241.22278c.412992-.33802 1.357526-.35357 1.357526-.35357h16.985188c.430527 0 .685142.0163 1.018438.28908.290211.23757.422073.44657.496537.81438l3.350896 16.55201c0 0 1.152577 4.55333 1.393036 6.88132 1.785065 17.282.692567 21.15605-.03122 52.19683-.000279.012-.03122.0176-.03122.0176-.97404.49628-1.972263.94348-2.990931 1.33993-1.018757.39677-2.056701.74229-3.109943 1.03522-1.052632.29277-2.119226.53267-3.195789.7188-1.076875.18571-2.162354.31739-3.252368.39456-.772048.0547-1.545793.0821-2.319776.082-1.092676-.00006-2.184665-.0548-3.271878-.16407-1.087058-.10928-2.167977-.2729-3.238712-.49027-1.070944-.21705-2.130376-.48759-3.174327-.81059-1.04434-.32339-3.367351-.8864-4.374211-1.31259-.698818-.30855-.772055-.61217-.844797-1.37314-1.269422-13.27967-1.2594837-41.68179.02146-51.63429.299257-2.32514 1.394986-6.89304 1.394986-6.89304l3.350901-16.54101c.07446-.36757.176159-.51176.4662-.74916z" fill="#333" fill-rule="evenodd" stroke="#000" stroke-linecap="square" stroke-width=".5"/><ellipse id="ellipse4412" cx="25.022755" cy="254.22449" fill-rule="evenodd" rx="4.7449074" ry="4.8753238" stroke="#4d4d4d" stroke-linecap="round" stroke-width=".49974847"/><ellipse id="ellipse4414" cx="25.022755" cy="314.94644" fill-rule="evenodd" rx="4.75" ry="4.875" stroke="#4d4d4d" stroke-linecap="round" stroke-width=".5"/><rect id="rect4566" fill-rule="evenodd" height="35" rx="5" stroke="#4d4d4d" stroke-linecap="round" stroke-width=".5" width="24" x="13.022755" y="263.53006"/><path id="path4416" d="m9.322484 301.31463c-.1635775-7.18096-.1544632-14.97817.023415-21.78074.00819-.31266.00669-.66288.015613-.97077.064281-1.14541.2362664-2.26715.661399-3.27365.493589-1.16857 1.206891-2.22183 2.089553-3.10568.882661-.88384 1.935004-1.59951 3.102138-2.09389 1.167137-.49437 2.449697-.76746 3.796707-.76762h12.053469c1.3472-.0001 2.631304.27336 3.798657.76762 1.167353.49427 2.217331 1.21003 3.100188 2.09389.882858.88387 1.597791 1.93503 2.091505 3.10373.489913 1.15969.756809 2.43629.760903 3.77369.00042.0185-.000414.0382 0 .0566.135166 6.03653-.115465 12.21907-.440934 22.19678m4.473714 0h .03316v-2.50016-2.50017-2.50016-2.50017-2.50017-2.50016-2.50017-2.50016l-.03316-.043c.567614-14.16473-6.941772-22.17919-12.373438-23.66173-.356009-.0972-3.025406-.14032-5.607263-.16017l-.01171-.0156c0 0-1.419218.006-2.306118.008-1.010296-.002-2.626088-.008-2.626088-.008l-.01756.0234c-2.051454.0225-4.061101.0648-4.382016.15236-5.431664 1.48253-12.9430015 9.497-12.3753868 23.66172l-.031216.043v2.50016 2.50017 2.50016 2.50017 2.50017 2.50016 2.50017 2.50016h.031216" fill="#f0f0f0" fill-rule="evenodd" stroke="#000" stroke-width=".5"/><rect id="rect4420" fill="#f0f0f0" height="35" stroke="#000" stroke-linecap="square" stroke-width=".5" width="4" x="4.8001304" y="135.72142"/><rect id="rect4422" fill="#f0f0f0" height="35" stroke="#000" stroke-linecap="square" stroke-width=".5" width="4" x="41.199871" y="135.72142"/><path id="path4424" d="m14.88388 34.22128c0 0-1.196696.14957-1.590094.41995-.811509.55777-1.303281 2.34001-1.303281 2.34001 0 0-1.09026 5.47529-2.7537233 11.07885h31.5101823c-1.943933-5.6087-3.203811-11.07885-3.203811-11.07885 0 0-.57488-1.86175-1.396939-2.41618-.429762-.28987-1.274022-.34378-1.274022-.34378z" fill="#575d5b" fill-rule="evenodd" stroke="#000" stroke-linecap="square" stroke-width=".5"/><path id="path4426" d="m14.820501 40.33302c0 0-1.196693.14957-1.590091.41995-.811509.55776-1.303288 2.33999-1.303288 2.33999 0 0-4.3658189 12.60111-5.6590209 19.13504-.9884101 4.99396-1.4680943 15.31843-1.4680943 15.31843v51.62453 8.08061c-.0006313.31243.014345.62469.044872.93561.031386.31077.078266.61975.1404742.92585.062203.30644.1396911.60957.2321728.90826.091971.29814.1987597.59149.3199696.87896.1217733.2879.2578662.56952.4077653.8438.1491859.27427.3119751.5409.4877575.79889.1767423.25737.3662289.50575.5677496.74419.2004748.23899.412752.46781.6360363.68559.2242963.21805.459365.4247.704322.61918.2444007.19423.4983521.37612.7609023.54496.2626371.1684.5335174.32355.8116289.46488.2776557.14175.5622107.26952.8525987.38283.290814.11307.587088.21151.887719.29494.300755.0836.605497.15201.913083.2051.307483.0532.617435.091.928691.11329.220771.0157.442026.0235.663351.0234h21.681806c.312101-.00002.624005-.0157.934544-.0469.310379-.0308.619026-.077.924788-.13868.305437-.0623.607574-.1399.905279-.23243.298495-.0927.592169-.20022.879914-.32229.287537-.12128.568838-.25687.842845-.40628.273331-.15005.539001-.31367.796022-.49026.257708-.17625.506451-.36531.745293-.56645.238768-.20133.467325-.41451.684812-.63871.217077-.22397.422842-.45864.616526-.70317.194018-.24468.375689-.49892.544338-.76177.16887-.2629.324499-.53408.466296-.81255.141644-.27861.269271-.56415.382402-.85553.112936-.29114.21126-.58776.294606-.88873.08347-.3011.15184-.60619.204858-.91413.05318-.30783.09094-.61813.11316-.92974.0156-.22038.0234-.44123.02341-.66216v-8.04546-51.62453c0 0-.05388-10.3627-1.11492-15.35358-1.396206-6.56744-6.605309-19.13504-6.605309-19.13504 0 0-.574881-1.86173-1.396939-2.41617-.429762-.28987-1.274022-.34377-1.274022-.34377zm.508147 15.88975c.412992-.33802 1.357526-.35357 1.357526-.35357h16.985188c.430527 0 .685142.0163 1.018438.28908.290211.23757.422073.44657.496537.81438l3.350896 16.55201c0 0 1.152577 4.55333 1.393036 6.88132 1.785065 17.282.692567 21.15606-.03122 52.19684-.000279.012-.03122.0176-.03122.0176-.97404.49628-1.972263.94348-2.990931 1.33993-1.018757.39677-2.056701.74229-3.109943 1.03522-1.052632.29277-2.119226.53267-3.195789.7188-1.076875.18571-2.162354.31739-3.252368.39456-.772048.0547-1.545793.0821-2.319776.082-1.092676-.00006-2.184665-.0548-3.271878-.16407-1.087058-.10928-2.167977-.2729-3.238712-.49027-1.070944-.21705-2.130376-.48759-3.174327-.81059-1.04434-.32339-3.367351-.8864-4.374211-1.31259-.698818-.30855-.772055-.61217-.844797-1.37314-1.269422-13.27967-1.2594837-41.6818.02146-51.6343.299257-2.32514 1.394986-6.89304 1.394986-6.89304l3.350901-16.54101c.07446-.36757.176159-.51176.4662-.74916z" fill="#f0f0f0" fill-rule="evenodd" stroke="#000" stroke-linecap="square" stroke-width=".5"/><path id="path4428" d="m15.328648 56.22277c.412992-.33802 1.357526-.35357 1.357526-.35357h16.985188c.430527 0 .685142.0163 1.018438.28908.290211.23757.422073.44657.496537.81438l3.350896 16.55201c0 0 1.152577 4.55333 1.393036 6.88132 1.785065 17.282.692567 21.15606-.03122 52.19684-.000279.012-.03122.0176-.03122.0176-.97404.49628-1.972263.94348-2.990931 1.33993-1.018757.39677-2.056701.74229-3.109943 1.03522-1.052632.29277-2.119226.53267-3.195789.7188-1.076875.18571-2.162354.31739-3.252368.39456-.772048.0547-1.545793.0821-2.319776.082-1.092676-.00006-2.184665-.0548-3.271878-.16407-1.087058-.10928-2.167977-.2729-3.238712-.49027-1.070944-.21705-2.130376-.48759-3.174327-.81059-1.04434-.32339-3.367351-.8864-4.374211-1.31259-.698818-.30855-.772055-.61217-.844797-1.37314-1.269422-13.27967-1.2594837-41.6818.02146-51.6343.299257-2.32514 1.394986-6.89304 1.394986-6.89304l3.350901-16.54101c.07446-.36757.176159-.51176.4662-.74916z" fill="#333" fill-rule="evenodd" stroke="#000" stroke-linecap="square" stroke-width=".5"/><ellipse id="ellipse4430" cx="25.022757" cy="69.224495" fill-rule="evenodd" rx="4.7449074" ry="4.8753238" stroke="#4d4d4d" stroke-linecap="round" stroke-width=".49974847"/><ellipse id="ellipse4432" cx="25.022755" cy="129.94643" fill-rule="evenodd" rx="4.75" ry="4.875" stroke="#4d4d4d" stroke-linecap="round" stroke-width=".5"/><rect id="rect4563" fill-rule="evenodd" height="35" rx="5" stroke="#4d4d4d" stroke-linecap="round" stroke-width=".5" width="24" x="13.022755" y="78.530067"/><circle id="path4436" cx="25.022755" cy="69.224495" r="3.25" style="fill:#333;fill-opacity:.8;fill-rule:evenodd;stroke:#333;stroke-width:.5;stroke-linecap:round"/><text id="fuseText_3" line-height="100%" style="font-weight:bold;font-size:5;font-family:sans-serif;letter-spacing:0;word-spacing:0;overflow:visible;fill:#fff;shape-rendering:crispEdges" x="24.761255" xml:space="preserve" y="570.2879"><tspan id="tspan4609" fill="#fff" font-family="sans-serif" font-size="5" font-weight="bold" line-height="100%" x="24.761255" y="570.2879">ZLBM00</tspan></text><path id="path4440" d="m27.055685 69.224489h-4.06586m2.03293-2.03293v4.06586" fill="#666" fill-rule="evenodd" stroke="#666" stroke-width=".69999999"/><circle id="circle4447" cx="25.022755" cy="129.94644" r="3.25" style="fill:#333;fill-opacity:.8;fill-rule:evenodd;stroke:#333;stroke-width:.5;stroke-linecap:round"/><path id="path4449" d="m27.055685 129.94645h-4.06586m2.03293-2.03293v4.06586" fill="#666" fill-rule="evenodd" stroke="#666" stroke-width=".69999999"/><circle id="circle4447-4" cx="25.022755" cy="254.22449" r="3.25" style="fill:#333;fill-opacity:.8;fill-rule:evenodd;stroke:#333;stroke-width:.5;stroke-linecap:round"/><path id="path4449-2" d="m27.055685 254.22449h-4.06586m2.03293-2.03293v4.06586" fill="#666" fill-rule="evenodd" stroke="#666" stroke-width=".69999999"/><circle id="circle4502" cx="25.022755" cy="314.94644" fill="#333" fill-rule="evenodd" r="3.25" stroke="#4d4d4d" stroke-linecap="round" stroke-width=".5"/><path id="path4504" d="m27.055685 314.94644h-4.06586m2.03293-2.03293v4.06586" fill="#666" fill-rule="evenodd" stroke="#666" stroke-width=".69999999"/><circle id="circle4502-6" cx="25.022755" cy="439.22449" fill="#333" fill-rule="evenodd" r="3.25" stroke="#4d4d4d" stroke-linecap="round" stroke-width=".5"/><path id="path4504-2" d="m27.055685 439.22449h-4.06586m2.03293-2.03293v4.06586" fill="#666" fill-rule="evenodd" stroke="#666" stroke-width=".69999999"/><circle id="circle4502-6-6" cx="25.022755" cy="499.94644" fill="#333" fill-rule="evenodd" r="3.25" stroke="#4d4d4d" stroke-linecap="round" stroke-width=".5"/><path id="path4504-2-7" d="m27.055685 499.94645h-4.06586m2.03293-2.03293v4.06586" fill="#666" fill-rule="evenodd" stroke="#666" stroke-width=".69999999"/><rect id="rect4613" fill="#fff" fill-rule="evenodd" height="9" width="45" x="2.4996049" y="623.9715"/><rect id="rect4617" fill="#fff" fill-rule="evenodd" height="9" width="45" x="2.4996049" y="647.9715"/><path id="path4619" d="m5.3496048 576.97145h28.4999992" fill="none" stroke="#fff" stroke-dasharray="2 2" stroke-linecap="round"/><path id="path4621" d="m5.3496048 580.97145h28.4999992" fill="none" stroke="#fff" stroke-dasharray="2 2" stroke-linecap="round"/><path id="path4623" d="m5.3496048 584.97145h28.4999992" fill="none" stroke="#fff" stroke-dasharray="2 2" stroke-linecap="round"/><path id="path4625" d="m5.3496048 588.97145h28.4999992" fill="none" stroke="#fff" stroke-dasharray="2 2" stroke-linecap="round"/><path id="path4627" d="m5.3496048 592.97145h28.4999992" fill="none" stroke="#fff" stroke-dasharray="2 2" stroke-linecap="round"/></g><g id="P1" fill="#f0f0f0" fill-rule="evenodd" stroke="#000" stroke-width=".5"><path id="path4398" d="m9.3452467 486.71464c-.1635775-7.18096-.1544632-14.97817.023415-21.78074.00819-.31266.00669-.66288.015613-.97077.064281-1.14541.2362664-2.26715.6613993-3.27365.493589-1.16857 1.206891-2.22183 2.089553-3.10568.882661-.88384 1.935004-1.59951 3.102138-2.09389 1.167137-.49437 2.449697-.76746 3.796707-.76762h12.053469c1.3472-.0001 2.631304.27336 3.798657.76762 1.167353.49427 2.217331 1.21003 3.100188 2.09389.882858.88387 1.597791 1.93503 2.091505 3.10373.489913 1.15969.756809 2.43629.760903 3.77369.00042.0185-.000414.0382 0 .0566.135166 6.03653-.115465 12.21907-.440934 22.19678m4.473714 0h .03316v-2.50016-2.50017-2.50016-2.50017-2.50017-2.50016-2.50017-2.50016l-.03316-.043c.567614-14.16473-6.941772-22.17919-12.373438-23.66173-.356009-.0972-3.025406-.14032-5.607263-.16017l-.01171-.0156c0 0-1.419218.006-2.306118.008-1.010296-.002-2.626088-.008-2.626088-.008l-.01756.0234c-2.051454.0225-4.061101.0648-4.382016.15236-5.431664 1.48253-12.9430018 9.497-12.3753871 23.66172l-.031216.043v2.50016 2.50017 2.50016 2.50017 2.50017 2.50016 2.50017 2.50016h.031216"/><path id="path4434" d="m9.322484 116.71464c-.1635775-7.18096-.1544632-14.97817.023415-21.780741.00819-.31266.00669-.66288.015613-.97077.064281-1.14541.2362664-2.26715.661399-3.27365.493589-1.16857 1.206891-2.22183 2.089553-3.10568.882661-.88384 1.935004-1.59951 3.102138-2.09389 1.167137-.49437 2.449697-.76746 3.796707-.76762h12.053469c1.3472-.0001 2.631304.27336 3.798657.76762 1.167353.49427 2.217331 1.21003 3.100188 2.09389.882858.88387 1.597791 1.93503 2.091505 3.10373.489913 1.15969.756809 2.43629.760903 3.77369.00042.0185-.000414.0382 0 .0566.135166 6.036531-.115465 12.219071-.440934 22.196781m4.473714 0h .03316v-2.50016-2.50017-2.50016-2.50017-2.50017-2.50016-2.500171-2.50016l-.03316-.043c.567614-14.16473-6.941772-22.17919-12.373438-23.66173-.356009-.0972-3.025406-.14032-5.607263-.16017l-.01171-.0156c0 0-1.419218.006-2.306118.008-1.010296-.002-2.626088-.008-2.626088-.008l-.01756.0234c-2.051454.0225-4.061101.0648-4.382016.15236-5.431664 1.48253-12.9430015 9.497-12.3753868 23.66172l-.031216.043v2.50016 2.500171 2.50016 2.50017 2.50017 2.50016 2.50017 2.50016h.031216"/></g><g id="P3" fill="#f0f0f0" stroke="#000" stroke-linecap="square" stroke-width=".49999994"><rect id="rect4599" height="380.5" rx="1" width="4" x=".59999537" y="78.221451"/><rect id="rect4601" height="380.5" rx="1" width="4" x="45.400005" y="78.221451"/></g></g></g></svg>