<?xml version="1.0" encoding="UTF-8" standalone="no"?>
<svg
  xmlns:dc="http://purl.org/dc/elements/1.1/"
  xmlns:cc="http://creativecommons.org/ns#"
  xmlns:rdf="http://www.w3.org/1999/02/22-rdf-syntax-ns#"
  xmlns:svg="http://www.w3.org/2000/svg"
  xmlns="http://www.w3.org/2000/svg"
  xmlns:sodipodi="http://sodipodi.sourceforge.net/DTD/sodipodi-0.dtd"
  xmlns:inkscape="http://www.inkscape.org/namespaces/inkscape"
  id="svg2"
  height="780"
  viewBox="0 0 100 780"
  width="100"
  version="1.1"
  sodipodi:docname="InLine2_with_EFM_example.svg"
  style="shape-rendering:crispEdges"
  inkscape:version="0.92.2 (5c3e80d, 2017-08-06)">
 <metadata
   id="metadata101">
  <rdf:RDF>
   <cc:Work
     rdf:about="">
    <dc:format>image/svg+xml</dc:format>
    <dc:type
      rdf:resource="http://purl.org/dc/dcmitype/StillImage" />
    <dc:title />
   </cc:Work>
  </rdf:RDF>
 </metadata>
 <defs
   id="defs99">
  <inkscape:path-effect
    effect="bspline"
    id="path-effect4545"
    is_visible="true"
    weight="33.333"
    steps="2"
    helper_size="0"
    apply_no_weight="true"
    apply_with_weight="true"
    only_selected="false" />
  <inkscape:path-effect
    effect="bspline"
    id="path-effect4549"
    is_visible="true"
    weight="33.333"
    steps="2"
    helper_size="0"
    apply_no_weight="true"
    apply_with_weight="true"
    only_selected="false" />
  <inkscape:path-effect
    only_selected="false"
    apply_with_weight="true"
    apply_no_weight="true"
    helper_size="0"
    steps="2"
    weight="33.333"
    is_visible="true"
    id="path-effect4553"
    effect="bspline" />
  <inkscape:path-effect
    effect="bspline"
    id="path-effect4625"
    is_visible="true"
    weight="33.333"
    steps="2"
    helper_size="0"
    apply_no_weight="true"
    apply_with_weight="true"
    only_selected="false" />
 </defs>
 <sodipodi:namedview
   pagecolor="#ffffff"
   bordercolor="#666666"
   borderopacity="1"
   objecttolerance="10"
   gridtolerance="10"
   guidetolerance="10"
   inkscape:pageopacity="0"
   inkscape:pageshadow="2"
   inkscape:window-width="1680"
   inkscape:window-height="998"
   id="namedview97"
   showgrid="false"
   inkscape:showpageshadow="false"
   inkscape:zoom="3.0606"
   inkscape:cx="111.31"
   inkscape:cy="655.32"
   inkscape:window-x="-8"
   inkscape:window-y="-8"
   inkscape:window-maximized="1"
   inkscape:current-layer="svg2" />
 <g
   id="layer1"
   transform="translate(0,117.2)">
  <rect
    id="emptyPanel"
    height="662"
    width="100"
    x="0"
    y="0"
    style="fill:#575d5b;fill-rule:evenodd;stroke:#000000;stroke-width:0.8" />
  <g
    id="breaker">
   <g
     id="details">
    <path
      id="path4263"
      d="M 0.49997,2.821e-5 V 662 H 99.5 V 2.821e-5 H 93.049 V 2.5996 h 2.083 v 1.5 H 87.049 H 12.951 H 4.8683 v -1.5 H 6.9507 V 2.821e-5 Z"
      inkscape:connector-curvature="0"
      style="fill:#575d5b;fill-rule:evenodd;stroke:#000000;stroke-width:0.8;stroke-linecap:square" />
    <rect
      id="label"
      height="9"
      width="95"
      x="2.5"
      y="8.4715"
      style="fill:#bb1e10;fill-rule:evenodd;shape-rendering:crispEdges" />
    <text
      id="fuseText_2"
      line-height="100%"
      style="font-weight:bold;font-size:5px;line-height:100%;font-family:sans-serif;letter-spacing:0;word-spacing:0;overflow:visible;fill:#ffffff;shape-rendering:crispEdges"
      x="76.511"
      xml:space="preserve"
      y="14.788"><tspan
       id="tspan209-4"
       font-size="5"
       font-weight="bold"
       line-height="100%"
       x="76.511"
       y="14.788"
       style="font-weight:bold;font-size:5px;line-height:100%;font-family:sans-serif;fill:#ffffff">ZLBM1</tspan></text>
    <path
      id="path5180"
      d="M 5.2131,9.4715 L 4.2949,12.901 H 6.1917 V 9.4715 Z m 1.1186,0 V 12.901 H 8.2285 L 7.3105,9.4715 Z m 3.9203,0 v 3.4295 h 2.03 V 9.4715 Z m 2.17,0 v 3.4295 h 2.125 A 2.1,2.1 0 0 0 13.82,12.419 a 1.575,1.575 0 0 0 0.807,-1.373 A 1.575,1.575 0 0 0 13.052,9.4715 Z m 3.29,0 v 3.4295 h 2.03 V 9.4715 Z m 2.17,0 v 3.4295 h 2.125 A 2.1,2.1 0 0 0 19.28,12.419 a 1.575,1.575 0 0 0 0.807,-1.373 A 1.575,1.575 0 0 0 18.512,9.4715 Z M 4.2574,13.041 l -0.9182,3.43 h 1.75 l 0.371,-1.4 h 0.7315 v -2.03 z m 2.0743,0 v 2.03 h 0.7316 l 0.3709,1.4 h 1.75 l -0.9181,-3.43 z m 3.9203,0 v 3.43 h 2.03 v -3.43 z m 2.17,0 v 3.43 h 0.63 a 2.1,2.1 0 0 0 2.1,-2.1 a 2.1,2.1 0 0 0 -0.479,-1.33 z m 3.29,0 v 3.43 h 2.03 v -3.43 z m 2.17,0 v 3.43 h 0.63 a 2.1,2.1 0 0 0 2.1,-2.1 a 2.1,2.1 0 0 0 -0.479,-1.33 z"
      inkscape:connector-curvature="0"
      style="fill:#ffffff;shape-rendering:crispEdges" />
    <rect
      id="rect4615"
      height="9"
      width="95"
      x="2.5"
      y="635.97"
      style="fill:#ffffff;fill-rule:evenodd" />
    <text
      id="fuseText"
      line-height="125%"
      style="font-weight:bold;font-size:5px;line-height:125%;font-family:sans-serif;letter-spacing:0;word-spacing:0;shape-rendering:crispEdges"
      x="65.307"
      xml:space="preserve"
      y="642.34"><tspan
       id="tspan4519"
       x="42.136"
       y="642.34">NH1</tspan></text>
    <rect
      id="rect4613"
      height="9"
      width="95"
      x="2.5"
      y="623.97"
      style="fill:#ffffff;fill-rule:evenodd" />
    <rect
      id="rect4617"
      height="9"
      width="95"
      x="2.5"
      y="647.97"
      style="fill:#ffffff;fill-rule:evenodd" />
    <rect
      id="rect4631"
      height="35"
      width="74.5"
      x="12.75"
      y="563.72"
      style="fill:none;stroke:#333333;stroke-width:0.5;stroke-linecap:round" />
    <rect
      id="rect4603"
      height="9"
      width="74"
      x="13"
      y="563.97"
      style="fill:#bb1e10;fill-rule:evenodd" />
    <path
      id="path4605"
      d="m 17.213,564.97 l -0.918,3.43 h 1.897 v -3.43 z m 1.119,0 v 3.43 h 1.897 l -0.919,-3.43 z m 3.92,0 v 3.43 h 2.03 v -3.43 z m 2.17,0 v 3.43 h 2.125 a 2.1,2.1 0 0 0 -0.727,-0.48 a 1.575,1.575 0 0 0 0.807,-1.37 a 1.575,1.575 0 0 0 -1.575,-1.58 z m 3.29,0 v 3.43 h 2.03 v -3.43 z m 2.17,0 v 3.43 h 2.125 a 2.1,2.1 0 0 0 -0.727,-0.48 a 1.575,1.575 0 0 0 0.807,-1.37 a 1.575,1.575 0 0 0 -1.575,-1.58 z m -13.625,3.57 l -0.918,3.43 h 1.75 l 0.371,-1.4 h 0.732 v -2.03 z m 2.075,0 v 2.03 h 0.731 l 0.371,1.4 h 1.75 l -0.918,-3.43 z m 3.92,0 v 3.43 h 2.03 v -3.43 z m 2.17,0 v 3.43 h 0.63 a 2.1,2.1 0 0 0 2.1,-2.1 a 2.1,2.1 0 0 0 -0.479,-1.33 z m 3.29,0 v 3.43 h 2.03 v -3.43 z m 2.17,0 v 3.43 h 0.63 a 2.1,2.1 0 0 0 2.1,-2.1 a 2.1,2.1 0 0 0 -0.479,-1.33 z"
      inkscape:connector-curvature="0"
      style="fill:#ffffff" />
    <text
      id="fuseText_3"
      line-height="100%"
      style="font-weight:bold;font-size:5px;line-height:100%;font-family:sans-serif;letter-spacing:0;word-spacing:0;overflow:visible;fill:#ffffff;shape-rendering:crispEdges"
      x="64.511"
      xml:space="preserve"
      y="570.29"><tspan
       id="tspan4609"
       font-size="5"
       font-weight="bold"
       line-height="100%"
       x="64.511"
       y="570.29"
       style="font-weight:bold;font-size:5px;line-height:100%;font-family:sans-serif;fill:#ffffff">ZLBM1</tspan></text>
    <path
      id="path4627"
      d="m 17.1,592.97 h 28.5 m -28.5,-4 h 28.5 m -28.5,-4 h 28.5 m -28.5,-4 h 28.5 m -28.5,-4 h 28.5"
      inkscape:connector-curvature="0"
      style="fill:none;stroke:#ffffff;stroke-linecap:round;stroke-dasharray:2, 2" />
    <rect
      id="rect4420"
      height="60"
      width="4"
      x="8.5501"
      y="140.72"
      style="fill:#f0f0f0;stroke:#000000;stroke-width:0.5;stroke-linecap:square" />
    <rect
      id="rect4422"
      height="60"
      width="4"
      x="87.15"
      y="140.72"
      style="fill:#f0f0f0;stroke:#000000;stroke-width:0.5;stroke-linecap:square" />
    <path
      id="path4406"
      d="m 25.316,22.152 c 0,0 -3.381,0.227 -4.493,0.638 c -2.292,0.846 -3.682,3.551 -3.682,3.551 L 10.37,43.152 H 89.639 L 83.343,26.341 c 0,0 -1.624,-2.826 -3.946,-3.667 c -1.215,-0.44 -3.6,-0.522 -3.6,-0.522 z"
      inkscape:connector-curvature="0"
      style="fill:#575d5b;fill-rule:evenodd;stroke:#000000;stroke-width:0.5;stroke-linecap:square" />
    <path
      id="path4428"
      d="M 28.755,48.353 C 29.66,47.834 31.73,47.81 31.73,47.81 h 37.223 c 0.944,0 1.502,0.02 2.232,0.444 c 0.636,0.365 0.925,0.686 1.088,1.251 l 7.344,25.425 c 0,0 2.526,6.995 3.052,10.571 c 3.912,26.549 1.518,32.499 -0.07,80.179 c 0,0 -0.07,0 -0.07,0 c -2.135,0.76 -4.323,1.45 -6.555,2.05 c -2.233,0.61 -4.507,1.15 -6.815,1.6 c -2.307,0.44 -4.645,0.81 -7.004,1.1 c -2.36,0.28 -4.739,0.49 -7.128,0.61 c -1.691,0.1 -3.387,0.12 -5.083,0.12 c -2.395,0 -4.788,-0.1 -7.171,-0.25 c -2.382,-0.17 -4.751,-0.42 -7.097,-0.75 c -2.347,-0.34 -4.669,-0.75 -6.957,-1.25 c -2.288,-0.5 -7.379,-1.36 -9.586,-2.02 c -1.531,-0.47 -1.692,-0.94 -1.851,-2.1 c -2.782,-20.4 -2.76,-64.03 0.05,-79.319 C 17.989,81.929 20.39,74.912 20.39,74.912 l 7.343,-25.408 c 0.164,-0.565 0.386,-0.786 1.022,-1.151 z"
      inkscape:connector-curvature="0"
      style="fill:#333333;fill-rule:evenodd;stroke:#000000;stroke-width:0.5;stroke-linecap:square" />
    <ellipse
      id="ellipse4293"
      cx="21.362"
      cy="133.63"
      rx="4.75"
      ry="4.875"
      style="fill-rule:evenodd;stroke:#4d4d4d;stroke-width:0.5;stroke-linecap:round" />
    <circle
      id="circle4295"
      cx="21.362"
      cy="133.63"
      r="3.25"
      style="fill:#333333;fill-opacity:0.8;fill-rule:evenodd;stroke:#333333;stroke-width:0.5;stroke-linecap:round" />
    <ellipse
      id="ellipse4309"
      cx="78.638"
      cy="133.63"
      rx="4.75"
      ry="4.875"
      style="fill-rule:evenodd;stroke:#4d4d4d;stroke-width:0.5;stroke-linecap:round" />
    <rect
      id="rect4563"
      height="50"
      rx="5"
      width="50"
      x="25"
      y="68.55"
      style="fill-rule:evenodd;stroke:#4d4d4d;stroke-width:0.5;stroke-linecap:round" />
    <ellipse
      id="ellipse4432"
      cx="50"
      cy="163.95"
      rx="4.75"
      ry="4.875"
      style="fill-rule:evenodd;stroke:#4d4d4d;stroke-width:0.5;stroke-linecap:round" />
    <circle
      id="circle4447"
      cx="50"
      cy="163.95"
      r="3.25"
      style="fill:#333333;fill-opacity:0.8;fill-rule:evenodd;stroke:#333333;stroke-width:0.5;stroke-linecap:round" />
    <path
      id="path4449"
      d="M 52.033,163.95 H 47.967 M 50,161.91 v 4.07"
      inkscape:connector-curvature="0"
      style="fill:#666666;fill-rule:evenodd;stroke:#666666;stroke-width:0.7" />
    <circle
      id="circle4311"
      cx="78.638"
      cy="133.63"
      r="3.25"
      style="fill:#333333;fill-opacity:0.8;fill-rule:evenodd;stroke:#333333;stroke-width:0.5;stroke-linecap:round" />
    <path
      id="path4313"
      d="m 80.671,133.63 h -4.066 m 2.033,-2.03 v 4.06"
      inkscape:connector-curvature="0"
      style="fill:#666666;fill-rule:evenodd;stroke:#666666;stroke-width:0.7" />
    <ellipse
      id="ellipse4301"
      cx="78.638"
      cy="122.67"
      rx="4.75"
      ry="4.875"
      style="fill-rule:evenodd;stroke:#4d4d4d;stroke-width:0.5;stroke-linecap:round" />
    <circle
      id="circle4303"
      cx="78.638"
      cy="122.67"
      r="3.25"
      style="fill:#333333;fill-opacity:0.8;fill-rule:evenodd;stroke:#333333;stroke-width:0.5;stroke-linecap:round" />
    <path
      id="path4305"
      d="m 80.671,122.67 h -4.066 m 2.033,-2.03 v 4.06"
      inkscape:connector-curvature="0"
      style="fill:#666666;fill-rule:evenodd;stroke:#666666;stroke-width:0.7" />
    <path
      id="path4297"
      d="m 23.395,133.63 h -4.066 m 2.033,-2.03 v 4.06"
      inkscape:connector-curvature="0"
      style="fill:#666666;fill-rule:evenodd;stroke:#666666;stroke-width:0.7" />
    <ellipse
      id="ellipse4285"
      cx="21.362"
      cy="122.67"
      rx="4.75"
      ry="4.875"
      style="fill-rule:evenodd;stroke:#4d4d4d;stroke-width:0.5;stroke-linecap:round" />
    <circle
      id="circle4287"
      cx="21.362"
      cy="122.67"
      r="3.25"
      style="fill:#333333;fill-opacity:0.8;fill-rule:evenodd;stroke:#333333;stroke-width:0.5;stroke-linecap:round" />
    <path
      id="path4289"
      d="m 23.395,122.67 h -4.066 m 2.033,-2.03 v 4.06"
      inkscape:connector-curvature="0"
      style="fill:#666666;fill-rule:evenodd;stroke:#666666;stroke-width:0.7" />
    <path
      id="path4276"
      d="m 23.397,29.267 c 0,0 -2.448,0.217 -3.253,0.609 c -1.66,0.81 -2.665,3.397 -2.665,3.397 L 10.883,51.118 L 8.2504,57.482 L 8.3715,71.683 L 8.2504,82.407 v 75.813 v 11.73 c 0.075,0.83 0.3293,1.55 0.4979,2.31 c 0.1085,0.45 0.2491,0.89 0.4198,1.33 c 0.1705,0.43 0.3724,0.86 0.6034,1.29 c 0.2315,0.42 0.4915,0.83 0.7815,1.24 c 0.29,0.4 0.609,0.8 0.954,1.18 c 0.345,0.38 0.717,0.75 1.113,1.1 c 0.397,0.36 0.818,0.7 1.262,1.02 c 0.445,0.33 0.912,0.64 1.4,0.93 c 0.488,0.29 0.996,0.57 1.523,0.82 c 0.526,0.26 1.069,0.5 1.628,0.71 c 0.561,0.22 1.137,0.42 1.725,0.59 c 0.588,0.18 1.189,0.34 1.8,0.47 c 0.609,0.14 1.226,0.25 1.851,0.34 c 0.625,0.1 1.257,0.16 1.892,0.2 c 0.635,0.1 1.272,0.1 1.91,0.1 h 0.431 h 43.915 h 0.432 c 0.638,0 1.275,0 1.91,-0.1 c 0.635,0 1.266,-0.11 1.892,-0.2 c 0.625,-0.1 1.242,-0.2 1.851,-0.34 c 0.61,-0.13 1.212,-0.29 1.8,-0.47 c 0.588,-0.17 1.164,-0.37 1.724,-0.59 c 0.56,-0.21 1.103,-0.45 1.629,-0.71 c 0.527,-0.25 1.035,-0.53 1.523,-0.82 c 0.488,-0.29 0.957,-0.6 1.402,-0.93 c 0.444,-0.32 0.863,-0.66 1.26,-1.02 c 0.396,-0.35 0.77,-0.72 1.114,-1.1 c 0.346,-0.38 0.663,-0.78 0.953,-1.18 c 0.29,-0.41 0.55,-0.82 0.781,-1.24 c 0.231,-0.43 0.433,-0.86 0.604,-1.29 c 0.171,-0.44 0.311,-0.88 0.42,-1.33 c 0.205,-0.78 0.367,-1.59 0.498,-2.31 V 158.22 V 82.407 L 91.628,71.683 L 91.75,57.482 L 89.117,51.118 L 82.521,33.273 c 0,0 -1.005,-2.587 -2.665,-3.397 C 79.051,29.484 76.603,29.267 76.603,29.267 H 76.277 H 23.725 Z m 7.815,18.551 h 37.576 c 0,0 1.932,0.02 2.777,0.513 c 0.593,0.345 0.801,0.555 0.953,1.088 c 0,0 4.699,18.524 6.254,28.01 c 0.542,3.303 0.854,10.006 0.854,10.006 l 0.644,77.655 c 0,0.43 -0.04,0.75 -0.18,1.02 c -1.824,0.64 -3.683,1.24 -5.582,1.76 c -0.773,0.21 -1.556,0.41 -2.34,0.6 c -0.913,0.18 -1.963,0.38 -2.573,0.51 c -2.135,0.47 -4.302,0.86 -6.493,1.18 c -2.19,0.31 -4.4,0.55 -6.623,0.71 c -2.153,0.15 -4.315,0.23 -6.479,0.23 c -2.164,0 -4.326,-0.1 -6.479,-0.23 c -2.223,-0.16 -4.433,-0.4 -6.623,-0.71 c -2.191,-0.32 -4.358,-0.71 -6.493,-1.18 c -0.609,-0.13 -1.656,-0.33 -2.568,-0.51 c -0.784,-0.19 -1.57,-0.39 -2.345,-0.6 c -1.899,-0.52 -3.758,-1.12 -5.582,-1.76 c -0.137,-0.27 -0.184,-0.59 -0.18,-1.02 l 0.644,-77.655 c 0,0 0.312,-6.703 0.854,-10.006 c 1.555,-9.486 6.254,-28.01 6.254,-28.01 c 0.152,-0.533 0.36,-0.743 0.953,-1.088 c 0.845,-0.49 2.777,-0.513 2.777,-0.513 z"
      inkscape:connector-curvature="0"
      style="fill:#f0f0f0;fill-rule:evenodd;stroke:#000000;stroke-width:0.5;stroke-linecap:square" />
    <path
      id="rect4385"
      d="m 31,48.699 c -1.108,0 -2,0.892 -2,2 v 8 c 0,1.108 0.892,2 2,2 h 38 c 1.108,0 2,-0.892 2,-2 v -8 c 0,-1.108 -0.892,-2 -2,-2 z m 7,2 h 24 c 1.108,0 2,0.892 2,2 v 4 c 0,1.108 -0.892,2 -2,2 H 38 c -1.108,0 -2,-0.892 -2,-2 v -4 c 0,-1.108 0.892,-2 2,-2 z"
      inkscape:connector-curvature="0"
      style="fill:#ff0000;fill-rule:evenodd" />
    <rect
      id="rect4545"
      height="60"
      width="4"
      x="8.5501"
      y="325.72"
      style="fill:#f0f0f0;stroke:#000000;stroke-width:0.5;stroke-linecap:square" />
    <rect
      id="rect4547"
      height="60"
      width="4"
      x="87.15"
      y="325.72"
      style="fill:#f0f0f0;stroke:#000000;stroke-width:0.5;stroke-linecap:square" />
    <path
      id="path4422"
      d="m 25.316,207.15 c 0,0 -3.381,0.23 -4.493,0.64 c -2.292,0.85 -3.682,3.55 -3.682,3.55 l -6.771,16.81 h 79.269 l -6.296,-16.81 c 0,0 -1.624,-2.82 -3.946,-3.67 c -1.215,-0.44 -3.6,-0.52 -3.6,-0.52 z"
      inkscape:connector-curvature="0"
      style="fill:#575d5b;fill-rule:evenodd;stroke:#000000;stroke-width:0.5;stroke-linecap:square" />
    <path
      id="path4424"
      d="m 28.755,233.35 c 0.905,-0.52 2.975,-0.54 2.975,-0.54 h 37.223 c 0.944,0 1.502,0 2.232,0.44 c 0.636,0.37 0.925,0.69 1.088,1.26 l 7.344,25.42 c 0,0 2.526,6.99 3.052,10.57 c 3.912,26.55 1.518,32.5 -0.07,80.18 c 0,0 -0.07,0 -0.07,0 c -2.135,0.76 -4.323,1.45 -6.555,2.06 c -2.233,0.6 -4.507,1.14 -6.815,1.59 c -2.307,0.45 -4.645,0.81 -7.004,1.1 c -2.36,0.28 -4.739,0.49 -7.128,0.61 c -1.691,0.1 -3.387,0.12 -5.083,0.12 c -2.395,0 -4.788,-0.1 -7.171,-0.25 c -2.382,-0.17 -4.751,-0.42 -7.097,-0.75 c -2.347,-0.34 -4.669,-0.75 -6.957,-1.25 c -2.288,-0.5 -7.379,-1.36 -9.586,-2.02 c -1.531,-0.47 -1.692,-0.94 -1.851,-2.1 c -2.782,-20.4 -2.76,-64.03 0.05,-79.32 c 0.656,-3.57 3.057,-10.59 3.057,-10.59 l 7.343,-25.41 c 0.164,-0.56 0.386,-0.78 1.022,-1.15 z"
      inkscape:connector-curvature="0"
      style="fill:#333333;fill-rule:evenodd;stroke:#000000;stroke-width:0.5;stroke-linecap:square" />
    <rect
      id="rect4426"
      height="50"
      rx="5"
      width="50"
      x="25"
      y="253.55"
      style="fill-rule:evenodd;stroke:#4d4d4d;stroke-width:0.5;stroke-linecap:round" />
    <ellipse
      id="ellipse4430"
      cx="50"
      cy="348.95"
      rx="4.75"
      ry="4.875"
      style="fill-rule:evenodd;stroke:#4d4d4d;stroke-width:0.5;stroke-linecap:round" />
    <circle
      id="circle4432"
      cx="50"
      cy="348.95"
      r="3.25"
      style="fill:#333333;fill-opacity:0.8;fill-rule:evenodd;stroke:#333333;stroke-width:0.5;stroke-linecap:round" />
    <path
      id="path4434"
      d="M 52.033,348.95 H 47.967 M 50,346.91 v 4.07"
      inkscape:connector-curvature="0"
      style="fill:#666666;fill-rule:evenodd;stroke:#666666;stroke-width:0.7" />
    <ellipse
      id="ellipse4440"
      cx="78.638"
      cy="307.67"
      rx="4.75"
      ry="4.875"
      style="fill-rule:evenodd;stroke:#4d4d4d;stroke-width:0.5;stroke-linecap:round" />
    <circle
      id="circle4442"
      cx="78.638"
      cy="307.67"
      r="3.25"
      style="fill:#333333;fill-opacity:0.8;fill-rule:evenodd;stroke:#333333;stroke-width:0.5;stroke-linecap:round" />
    <path
      id="path4444"
      d="m 80.671,307.67 h -4.066 m 2.033,-2.03 v 4.06"
      inkscape:connector-curvature="0"
      style="fill:#666666;fill-rule:evenodd;stroke:#666666;stroke-width:0.7" />
    <ellipse
      id="ellipse4448"
      cx="21.362"
      cy="307.67"
      rx="4.75"
      ry="4.875"
      style="fill-rule:evenodd;stroke:#4d4d4d;stroke-width:0.5;stroke-linecap:round" />
    <circle
      id="circle4450"
      cx="21.362"
      cy="307.67"
      r="3.25"
      style="fill:#333333;fill-opacity:0.8;fill-rule:evenodd;stroke:#333333;stroke-width:0.5;stroke-linecap:round" />
    <path
      id="path4452"
      d="m 23.395,307.67 h -4.066 m 2.033,-2.03 v 4.06"
      inkscape:connector-curvature="0"
      style="fill:#666666;fill-rule:evenodd;stroke:#666666;stroke-width:0.7" />
    <ellipse
      id="ellipse4456"
      cx="21.362"
      cy="318.63"
      rx="4.75"
      ry="4.875"
      style="fill-rule:evenodd;stroke:#4d4d4d;stroke-width:0.5;stroke-linecap:round" />
    <circle
      id="circle4458"
      cx="21.362"
      cy="318.63"
      r="3.25"
      style="fill:#333333;fill-opacity:0.8;fill-rule:evenodd;stroke:#333333;stroke-width:0.5;stroke-linecap:round" />
    <path
      id="path4460"
      d="m 23.395,318.63 h -4.066 m 2.033,-2.03 v 4.06"
      inkscape:connector-curvature="0"
      style="fill:#666666;fill-rule:evenodd;stroke:#666666;stroke-width:0.7" />
    <ellipse
      id="ellipse4464"
      cx="78.638"
      cy="318.63"
      rx="4.75"
      ry="4.875"
      style="fill-rule:evenodd;stroke:#4d4d4d;stroke-width:0.5;stroke-linecap:round" />
    <circle
      id="circle4466"
      cx="78.638"
      cy="318.63"
      r="3.25"
      style="fill:#333333;fill-opacity:0.8;fill-rule:evenodd;stroke:#333333;stroke-width:0.5;stroke-linecap:round" />
    <path
      id="path4468"
      d="m 80.671,318.63 h -4.066 m 2.033,-2.03 v 4.06"
      inkscape:connector-curvature="0"
      style="fill:#666666;fill-rule:evenodd;stroke:#666666;stroke-width:0.7" />
    <path
      id="path4436"
      d="m 23.397,214.27 c 0,0 -2.448,0.21 -3.253,0.61 c -1.66,0.81 -2.665,3.39 -2.665,3.39 l -6.596,17.85 l -2.6326,6.36 l 0.1211,14.2 l -0.1211,10.73 v 75.81 v 11.73 c 0.075,0.83 0.3293,1.55 0.4979,2.31 c 0.1085,0.45 0.2491,0.89 0.4198,1.33 c 0.1705,0.43 0.3724,0.86 0.6034,1.29 c 0.2315,0.42 0.4915,0.83 0.7815,1.24 c 0.29,0.4 0.609,0.8 0.954,1.18 c 0.345,0.38 0.717,0.75 1.113,1.1 c 0.397,0.36 0.818,0.7 1.262,1.02 c 0.445,0.33 0.912,0.64 1.4,0.93 c 0.488,0.29 0.996,0.57 1.523,0.82 c 0.526,0.26 1.069,0.5 1.628,0.71 c 0.561,0.22 1.137,0.42 1.725,0.59 c 0.588,0.18 1.189,0.34 1.8,0.47 c 0.609,0.14 1.226,0.25 1.851,0.34 c 0.625,0.1 1.257,0.16 1.892,0.2 c 0.635,0 1.272,0.1 1.91,0.1 h 0.431 h 43.915 h 0.432 c 0.638,0 1.275,0 1.91,-0.1 c 0.635,0 1.266,-0.11 1.892,-0.2 c 0.625,-0.1 1.242,-0.2 1.851,-0.34 c 0.61,-0.13 1.212,-0.29 1.8,-0.47 c 0.588,-0.17 1.164,-0.37 1.724,-0.59 c 0.56,-0.21 1.103,-0.45 1.629,-0.71 c 0.527,-0.25 1.035,-0.53 1.523,-0.82 c 0.488,-0.29 0.957,-0.6 1.402,-0.93 c 0.444,-0.32 0.863,-0.66 1.26,-1.02 c 0.396,-0.35 0.77,-0.72 1.114,-1.1 c 0.346,-0.38 0.663,-0.78 0.953,-1.18 c 0.29,-0.41 0.55,-0.82 0.781,-1.24 c 0.231,-0.43 0.433,-0.86 0.604,-1.29 c 0.171,-0.44 0.311,-0.88 0.42,-1.33 c 0.205,-0.78 0.367,-1.59 0.498,-2.31 v -11.73 v -75.81 l -0.122,-10.73 l 0.122,-14.2 l -2.633,-6.36 l -6.596,-17.85 c 0,0 -1.005,-2.58 -2.665,-3.39 c -0.805,-0.4 -3.253,-0.61 -3.253,-0.61 H 76.277 H 23.725 Z m 7.815,18.55 h 37.576 c 0,0 1.932,0 2.777,0.51 c 0.593,0.35 0.801,0.56 0.953,1.09 c 0,0 4.699,18.52 6.254,28.01 c 0.542,3.3 0.854,10 0.854,10 l 0.644,77.66 c 0,0.43 -0.04,0.75 -0.18,1.02 c -1.824,0.64 -3.683,1.24 -5.582,1.76 c -0.773,0.21 -1.556,0.41 -2.34,0.6 c -0.913,0.18 -1.963,0.38 -2.573,0.51 c -2.135,0.47 -4.302,0.86 -6.493,1.18 c -2.19,0.32 -4.4,0.55 -6.623,0.71 c -2.153,0.15 -4.315,0.23 -6.479,0.23 c -2.164,0 -4.326,-0.1 -6.479,-0.23 c -2.223,-0.16 -4.433,-0.39 -6.623,-0.71 c -2.191,-0.32 -4.358,-0.71 -6.493,-1.18 c -0.609,-0.13 -1.656,-0.33 -2.568,-0.51 c -0.784,-0.19 -1.57,-0.39 -2.345,-0.6 c -1.899,-0.52 -3.758,-1.12 -5.582,-1.76 c -0.137,-0.27 -0.184,-0.59 -0.18,-1.02 l 0.644,-77.66 c 0,0 0.312,-6.7 0.854,-10 c 1.555,-9.49 6.254,-28.01 6.254,-28.01 c 0.152,-0.53 0.36,-0.74 0.953,-1.09 c 0.845,-0.49 2.777,-0.51 2.777,-0.51 z"
      inkscape:connector-curvature="0"
      style="fill:#f0f0f0;fill-rule:evenodd;stroke:#000000;stroke-width:0.5;stroke-linecap:square" />
    <path
      id="path4472"
      d="m 31,233.7 c -1.108,0 -2,0.89 -2,2 v 8 c 0,1.11 0.892,2 2,2 h 38 c 1.108,0 2,-0.89 2,-2 v -8 c 0,-1.11 -0.892,-2 -2,-2 z m 7,2 h 24 c 1.108,0 2,0.89 2,2 v 4 c 0,1.11 -0.892,2 -2,2 H 38 c -1.108,0 -2,-0.89 -2,-2 v -4 c 0,-1.11 0.892,-2 2,-2 z"
      inkscape:connector-curvature="0"
      style="fill:#ff0000;fill-rule:evenodd" />
    <rect
      id="rect4420-7"
      height="60"
      width="4"
      x="8.7"
      y="511.72"
      style="fill:#f0f0f0;stroke:#000000;stroke-width:0.5;stroke-linecap:square;shape-rendering:crispEdges" />
    <rect
      id="rect4422-6"
      height="60"
      width="4"
      x="87.3"
      y="511.72"
      style="fill:#f0f0f0;stroke:#000000;stroke-width:0.5;stroke-linecap:square;shape-rendering:crispEdges" />
    <path
      id="path4476"
      d="m 25.316,393.15 c 0,0 -3.381,0.23 -4.493,0.64 c -2.292,0.85 -3.682,3.55 -3.682,3.55 l -6.771,16.81 h 79.269 l -6.296,-16.81 c 0,0 -1.624,-2.82 -3.946,-3.67 c -1.215,-0.44 -3.6,-0.52 -3.6,-0.52 z"
      inkscape:connector-curvature="0"
      style="fill:#575d5b;fill-rule:evenodd;stroke:#000000;stroke-width:0.5;stroke-linecap:square" />
    <path
      id="path4478"
      d="m 28.755,419.35 c 0.905,-0.52 2.975,-0.54 2.975,-0.54 h 37.223 c 0.944,0 1.502,0 2.232,0.44 c 0.636,0.37 0.925,0.69 1.088,1.26 l 7.344,25.42 c 0,0 2.526,6.99 3.052,10.57 c 3.912,26.55 1.518,32.5 -0.07,80.18 c 0,0 -0.07,0 -0.07,0 c -2.135,0.76 -4.323,1.45 -6.555,2.06 c -2.233,0.6 -4.507,1.14 -6.815,1.59 c -2.307,0.45 -4.645,0.81 -7.004,1.1 c -2.36,0.28 -4.739,0.49 -7.128,0.61 c -1.691,0.1 -3.387,0.12 -5.083,0.12 c -2.395,0 -4.788,-0.1 -7.171,-0.25 c -2.382,-0.17 -4.751,-0.42 -7.097,-0.75 c -2.347,-0.34 -4.669,-0.75 -6.957,-1.25 c -2.288,-0.5 -7.379,-1.36 -9.586,-2.02 c -1.531,-0.47 -1.692,-0.94 -1.851,-2.1 c -2.782,-20.4 -2.76,-64.03 0.05,-79.32 c 0.656,-3.57 3.057,-10.59 3.057,-10.59 l 7.343,-25.41 c 0.164,-0.56 0.386,-0.78 1.022,-1.15 z"
      inkscape:connector-curvature="0"
      style="fill:#333333;fill-rule:evenodd;stroke:#000000;stroke-width:0.5;stroke-linecap:square" />
    <rect
      id="rect4480"
      height="50"
      rx="5"
      width="50"
      x="25"
      y="439.55"
      style="fill-rule:evenodd;stroke:#4d4d4d;stroke-width:0.5;stroke-linecap:round" />
    <ellipse
      id="ellipse4484"
      cx="50"
      cy="534.95"
      rx="4.75"
      ry="4.875"
      style="fill-rule:evenodd;stroke:#4d4d4d;stroke-width:0.5;stroke-linecap:round" />
    <circle
      id="circle4486"
      cx="50"
      cy="534.95"
      r="3.25"
      style="fill:#333333;fill-opacity:0.8;fill-rule:evenodd;stroke:#333333;stroke-width:0.5;stroke-linecap:round" />
    <path
      id="path4488"
      d="M 52.033,534.95 H 47.967 M 50,532.91 v 4.07"
      inkscape:connector-curvature="0"
      style="fill:#666666;fill-rule:evenodd;stroke:#666666;stroke-width:0.7" />
    <ellipse
      id="ellipse4494"
      cx="78.638"
      cy="493.67"
      rx="4.75"
      ry="4.875"
      style="fill-rule:evenodd;stroke:#4d4d4d;stroke-width:0.5;stroke-linecap:round" />
    <circle
      id="circle4496"
      cx="78.638"
      cy="493.67"
      r="3.25"
      style="fill:#333333;fill-opacity:0.8;fill-rule:evenodd;stroke:#333333;stroke-width:0.5;stroke-linecap:round" />
    <path
      id="path4498"
      d="m 80.671,493.67 h -4.066 m 2.033,-2.03 v 4.06"
      inkscape:connector-curvature="0"
      style="fill:#666666;fill-rule:evenodd;stroke:#666666;stroke-width:0.7" />
    <ellipse
      id="ellipse4502"
      cx="21.362"
      cy="493.67"
      rx="4.75"
      ry="4.875"
      style="fill-rule:evenodd;stroke:#4d4d4d;stroke-width:0.5;stroke-linecap:round" />
    <circle
      id="circle4504"
      cx="21.362"
      cy="493.67"
      r="3.25"
      style="fill:#333333;fill-opacity:0.8;fill-rule:evenodd;stroke:#333333;stroke-width:0.5;stroke-linecap:round" />
    <path
      id="path4506"
      d="m 23.395,493.67 h -4.066 m 2.033,-2.03 v 4.06"
      inkscape:connector-curvature="0"
      style="fill:#666666;fill-rule:evenodd;stroke:#666666;stroke-width:0.7" />
    <ellipse
      id="ellipse4510"
      cx="21.362"
      cy="504.63"
      rx="4.75"
      ry="4.875"
      style="fill-rule:evenodd;stroke:#4d4d4d;stroke-width:0.5;stroke-linecap:round" />
    <circle
      id="circle4512"
      cx="21.362"
      cy="504.63"
      r="3.25"
      style="fill:#333333;fill-opacity:0.8;fill-rule:evenodd;stroke:#333333;stroke-width:0.5;stroke-linecap:round" />
    <path
      id="path4514"
      d="m 23.395,504.63 h -4.066 m 2.033,-2.03 v 4.06"
      inkscape:connector-curvature="0"
      style="fill:#666666;fill-rule:evenodd;stroke:#666666;stroke-width:0.7" />
    <ellipse
      id="ellipse4518"
      cx="78.638"
      cy="504.63"
      rx="4.75"
      ry="4.875"
      style="fill-rule:evenodd;stroke:#4d4d4d;stroke-width:0.5;stroke-linecap:round" />
    <circle
      id="circle4520"
      cx="78.638"
      cy="504.63"
      r="3.25"
      style="fill:#333333;fill-opacity:0.8;fill-rule:evenodd;stroke:#333333;stroke-width:0.5;stroke-linecap:round" />
    <path
      id="path4522"
      d="m 80.671,504.63 h -4.066 m 2.033,-2.03 v 4.06"
      inkscape:connector-curvature="0"
      style="fill:#666666;fill-rule:evenodd;stroke:#666666;stroke-width:0.7" />
    <path
      id="path4490"
      d="m 23.397,400.27 c 0,0 -2.448,0.21 -3.253,0.61 c -1.66,0.81 -2.665,3.39 -2.665,3.39 l -6.596,17.85 l -2.6326,6.36 l 0.1211,14.2 l -0.1211,10.73 v 75.81 v 11.73 c 0.075,0.83 0.3293,1.55 0.4979,2.31 c 0.1085,0.45 0.2491,0.89 0.4198,1.33 c 0.1705,0.43 0.3724,0.86 0.6034,1.29 c 0.2315,0.42 0.4915,0.83 0.7815,1.24 c 0.29,0.4 0.609,0.8 0.954,1.18 c 0.345,0.38 0.717,0.75 1.113,1.1 c 0.397,0.36 0.818,0.7 1.262,1.02 c 0.445,0.33 0.912,0.64 1.4,0.93 c 0.488,0.29 0.996,0.57 1.523,0.82 c 0.526,0.26 1.069,0.5 1.628,0.71 c 0.561,0.22 1.137,0.42 1.725,0.59 c 0.588,0.18 1.189,0.34 1.8,0.47 c 0.609,0.14 1.226,0.25 1.851,0.34 c 0.625,0.1 1.257,0.16 1.892,0.2 c 0.635,0 1.272,0.1 1.91,0.1 h 0.431 h 43.915 h 0.432 c 0.638,0 1.275,0 1.91,-0.1 c 0.635,0 1.266,-0.11 1.892,-0.2 c 0.625,-0.1 1.242,-0.2 1.851,-0.34 c 0.61,-0.13 1.212,-0.29 1.8,-0.47 c 0.588,-0.17 1.164,-0.37 1.724,-0.59 c 0.56,-0.21 1.103,-0.45 1.629,-0.71 c 0.527,-0.25 1.035,-0.53 1.523,-0.82 c 0.488,-0.29 0.957,-0.6 1.402,-0.93 c 0.444,-0.32 0.863,-0.66 1.26,-1.02 c 0.396,-0.35 0.77,-0.72 1.114,-1.1 c 0.346,-0.38 0.663,-0.78 0.953,-1.18 c 0.29,-0.41 0.55,-0.82 0.781,-1.24 c 0.231,-0.43 0.433,-0.86 0.604,-1.29 c 0.171,-0.44 0.311,-0.88 0.42,-1.33 c 0.205,-0.78 0.367,-1.59 0.498,-2.31 v -11.73 v -75.81 l -0.122,-10.73 l 0.122,-14.2 l -2.633,-6.36 l -6.596,-17.85 c 0,0 -1.005,-2.58 -2.665,-3.39 c -0.805,-0.4 -3.253,-0.61 -3.253,-0.61 H 76.277 H 23.725 Z m 7.815,18.55 h 37.576 c 0,0 1.932,0 2.777,0.51 c 0.593,0.35 0.801,0.56 0.953,1.09 c 0,0 4.699,18.52 6.254,28.01 c 0.542,3.3 0.854,10 0.854,10 l 0.644,77.66 c 0,0.43 -0.04,0.75 -0.18,1.02 c -1.824,0.64 -3.683,1.24 -5.582,1.76 c -0.773,0.21 -1.556,0.41 -2.34,0.6 c -0.913,0.18 -1.963,0.38 -2.573,0.51 c -2.135,0.47 -4.302,0.86 -6.493,1.18 c -2.19,0.32 -4.4,0.55 -6.623,0.71 c -2.153,0.15 -4.315,0.23 -6.479,0.23 c -2.164,0 -4.326,-0.1 -6.479,-0.23 c -2.223,-0.16 -4.433,-0.39 -6.623,-0.71 c -2.191,-0.32 -4.358,-0.71 -6.493,-1.18 c -0.609,-0.13 -1.656,-0.33 -2.568,-0.51 c -0.784,-0.19 -1.57,-0.39 -2.345,-0.6 c -1.899,-0.52 -3.758,-1.12 -5.582,-1.76 c -0.137,-0.27 -0.184,-0.59 -0.18,-1.02 l 0.644,-77.66 c 0,0 0.312,-6.7 0.854,-10 c 1.555,-9.49 6.254,-28.01 6.254,-28.01 c 0.152,-0.53 0.36,-0.74 0.953,-1.09 c 0.845,-0.49 2.777,-0.51 2.777,-0.51 z"
      inkscape:connector-curvature="0"
      style="fill:#f0f0f0;fill-rule:evenodd;stroke:#000000;stroke-width:0.5;stroke-linecap:square" />
    <path
      id="path4526"
      d="m 31,419.7 c -1.108,0 -2,0.89 -2,2 v 8 c 0,1.11 0.892,2 2,2 h 38 c 1.108,0 2,-0.89 2,-2 v -8 c 0,-1.11 -0.892,-2 -2,-2 z m 7,2 h 24 c 1.108,0 2,0.89 2,2 v 4 c 0,1.11 -0.892,2 -2,2 H 38 c -1.108,0 -2,-0.89 -2,-2 v -4 c 0,-1.11 0.892,-2 2,-2 z"
      inkscape:connector-curvature="0"
      style="fill:#ff0000;fill-rule:evenodd" />
   </g>
   <g
     id="P1"
     style="fill:#f0f0f0;fill-rule:evenodd;stroke:#000000;stroke-width:0.5">
    <path
      id="path4326"
      d="m 19.75,160.71 c -0.343,-12.85 1.005,-44.81 1.378,-56.98 c 0.02,-0.56 0.02,-1.19 0.03,-1.74 c 0.135,-2.048 0.496,-4.055 1.389,-5.857 c 1.036,-2.091 2.534,-3.976 4.388,-5.558 c 1.853,-1.581 4.063,-2.862 6.514,-3.747 c 2.451,-0.884 5.144,-1.373 7.972,-1.373 h 17.311 c 2.829,0 5.526,0.489 7.977,1.373 c 2.451,0.885 4.656,2.166 6.51,3.747 c 1.854,1.582 3.355,3.463 4.392,5.555 c 1.029,2.075 1.589,4.36 1.598,6.75 c 10e-4,0 0,0.1 0,0.1 c 0.284,10.81 1.722,39.87 1.038,57.73 m 11.43,0 h 0.07 v -22.48 v -4.47 v -4.48 v -4.47 v -4.47 v -4.48 v -4.47 v -4.48 l -0.07,-0.1 C 92.872,81.488 77.103,67.145 65.697,64.492 C 64.95,64.318 59.344,64.241 53.923,64.205 l -0.02,-0.03 c 0,0 -2.98,0.01 -4.842,0.01 c -2.122,0 -5.515,-0.01 -5.515,-0.01 l -0.04,0.04 c -4.308,0.04 -8.528,0.116 -9.202,0.273 c -11.407,2.657 -27.1804,17 -25.9885,42.352 l -0.066,0.1 v 4.48 v 4.47 v 4.48 v 4.47 v 4.47 v 4.48 v 4.47 v 22.48 h 0.066"
      inkscape:connector-curvature="0" />
    <path
      id="path4326-3"
      d="m 19.75,345.71 c -0.343,-12.85 1.005,-44.81 1.378,-56.98 c 0.02,-0.56 0.02,-1.19 0.03,-1.74 c 0.135,-2.05 0.496,-4.06 1.389,-5.86 c 1.036,-2.09 2.534,-3.97 4.388,-5.55 c 1.853,-1.59 4.063,-2.87 6.514,-3.75 c 2.451,-0.89 5.144,-1.37 7.972,-1.38 h 17.311 c 2.829,0 5.526,0.49 7.977,1.38 c 2.451,0.88 4.656,2.16 6.51,3.75 c 1.854,1.58 3.355,3.46 4.392,5.55 c 1.029,2.08 1.589,4.36 1.598,6.75 c 10e-4,0 0,0.1 0,0.1 c 0.284,10.81 1.722,39.87 1.038,57.73 m 11.43,0 h 0.07 v -22.48 v -4.47 v -4.48 v -4.47 v -4.47 v -4.48 v -4.47 v -4.48 l -0.07,-0.1 c 1.195,-25.32 -14.574,-39.66 -25.98,-42.32 c -0.747,-0.17 -6.353,-0.25 -11.774,-0.28 h -0.02 c 0,0 -2.98,0 -4.842,0 c -2.122,0 -5.515,0 -5.515,0 h -0.04 c -4.308,0 -8.528,0.12 -9.202,0.27 c -11.405,2.66 -27.1784,17 -25.9865,42.35 l -0.066,0.1 v 4.48 v 4.47 v 4.48 v 4.47 v 4.47 v 4.48 v 4.47 v 22.48 h 0.066"
      inkscape:connector-curvature="0"
      style="shape-rendering:crispEdges" />
    <path
      id="path4524"
      d="m 19.75,531.71 c -0.343,-12.85 1.005,-44.81 1.378,-56.98 c 0.02,-0.56 0.02,-1.19 0.03,-1.74 c 0.135,-2.05 0.496,-4.06 1.389,-5.86 c 1.036,-2.09 2.534,-3.97 4.388,-5.55 c 1.853,-1.59 4.063,-2.87 6.514,-3.75 c 2.451,-0.89 5.144,-1.38 7.972,-1.38 h 17.311 c 2.829,0 5.526,0.49 7.977,1.38 c 2.451,0.88 4.656,2.16 6.51,3.75 c 1.854,1.58 3.355,3.46 4.392,5.55 c 1.029,2.08 1.589,4.36 1.598,6.75 c 10e-4,0 0,0.1 0,0.1 c 0.284,10.81 1.722,39.87 1.038,57.73 m 11.43,0 h 0.07 v -22.48 v -4.47 v -4.48 v -4.47 v -4.47 v -4.48 v -4.47 v -4.48 l -0.07,-0.1 c 1.195,-25.32 -14.574,-39.66 -25.98,-42.32 c -0.747,-0.17 -6.353,-0.25 -11.774,-0.28 h -0.02 c 0,0 -2.98,0 -4.842,0 c -2.122,0 -5.515,0 -5.515,0 h -0.04 c -4.308,0 -8.528,0.12 -9.202,0.27 c -11.405,2.66 -27.1784,17 -25.9865,42.35 l -0.066,0.1 v 4.48 v 4.47 v 4.48 v 4.47 v 4.47 v 4.48 v 4.47 v 22.48 h 0.066"
      inkscape:connector-curvature="0" />
   </g>
   <g
     id="P3"
     style="fill:#f0f0f0;stroke:#000000">
    <rect
      id="rect4599"
      height="380.5"
      rx="1.85"
      ry="1"
      width="7.4"
      x="0.34998"
      y="78.221"
      style="stroke-width:0.5;stroke-linecap:square" />
    <rect
      id="rect4601"
      height="380.5"
      rx="1.85"
      ry="1"
      width="7.4"
      x="92.25"
      y="78.221"
      style="stroke-width:0.5;stroke-linecap:square" />
    <path
      id="path4654"
      d="m 19.751,345.71 c -0.344,-21.47 1.004,-92.84 1.377,-113.17 c 0.02,-0.94 0.02,-1.98 0.03,-2.9 c 0.135,-3.43 0.496,-6.78 1.389,-9.79 c 1.037,-3.49 2.534,-6.64 4.388,-9.28 c 1.853,-2.64 4.063,-4.78 6.514,-6.26 c 2.451,-1.48 5.144,-2.29 7.973,-2.29 h 17.311 c 2.829,0 5.525,0.81 7.977,2.29 c 2.451,1.48 4.656,3.62 6.51,6.26 c 1.854,2.64 3.355,5.78 4.392,9.28 c 1.028,3.46 1.589,7.28 1.597,11.28 c 10e-4,0.1 0,0.11 0,0.17 c 0.284,18.04 1.722,84.58 1.039,114.41 m 11.43,0 h 0.07 v -37.54 v -7.47 v -7.48 v -7.47 v -7.47 v -7.48 v -7.47 v -7.47 l -0.07,-0.13 C 92.873,213.39 77.104,189.43 65.698,185 c -0.748,-0.29 -6.353,-0.42 -11.775,-0.48 h -0.02 c 0,0 -2.981,0 -4.843,0 c -2.121,0 -5.514,0 -5.514,0 l -0.04,0.1 c -4.308,0.1 -8.528,0.19 -9.202,0.45 c -11.407,4.36 -27.18,28.32 -25.9881,70.66 l -0.065,0.13 v 7.47 v 7.47 v 7.48 v 7.47 v 7.47 v 7.48 v 7.47 v 37.54 h 0.065"
      inkscape:connector-curvature="0"
      style="fill-rule:evenodd;stroke-width:0.5" />
   </g>
  </g>
 </g>
 <rect
   style="fill:#575d5b;fill-rule:evenodd;stroke:#000000;stroke-width:0.8;stroke-miterlimit:4;stroke-dasharray:none;shape-rendering:crispEdges"
   y="-0.8"
   x="0"
   width="100"
   height="118"
   id="rearPanel" />
 <g
   style="shape-rendering:crispEdges"
   id="monitor"
   transform="translate(0,-0.8)">
  <rect
    id="label-1"
    height="9"
    width="45"
    x="27.5"
    y="5"
    style="fill:#bb1e10;fill-rule:evenodd;stroke-width:1;shape-rendering:crispEdges" />
  <path
    id="path5180-7"
    d="m 30.21,6 l -0.92,3.43 h 1.9 V 6 Z m 1.12,0 v 3.43 h 1.9 L 32.31,6 Z m 3.92,0 v 3.43 h 2.03 V 6 Z m 2.17,0 v 3.43 h 2.13 A 2.1,2.1 0 0 0 38.82,8.95 A 1.575,1.575 0 0 0 39.63,7.58 A 1.575,1.575 0 0 0 38.05,6 Z m 3.29,0 v 3.43 h 2.03 V 6 Z m 2.17,0 v 3.43 h 2.13 A 2.1,2.1 0 0 0 44.28,8.95 A 1.575,1.575 0 0 0 45.09,7.58 A 1.575,1.575 0 0 0 43.51,6 Z M 29.26,9.57 L 28.34,13 h 1.75 l 0.37,-1.4 h 0.73 V 9.57 Z m 2.07,0 v 2.03 h 0.73 l 0.37,1.4 h 1.75 L 33.27,9.57 Z m 3.92,0 V 13 h 2.03 V 9.57 Z m 2.17,0 V 13 h 0.63 a 2.1,2.1 0 0 0 2.1,-2.1 A 2.1,2.1 0 0 0 39.67,9.57 Z m 3.29,0 V 13 h 2.03 V 9.57 Z m 2.17,0 V 13 h 0.63 a 2.1,2.1 0 0 0 2.1,-2.1 A 2.1,2.1 0 0 0 45.13,9.57 Z"
    inkscape:connector-curvature="0"
    style="fill:#ffffff;shape-rendering:crispEdges" />
  <rect
    id="emptyPanel-5"
    height="107"
    width="45"
    x="27.5"
    y="5"
    style="fill:none;fill-rule:evenodd;stroke:#000000;stroke-width:0.5;stroke-miterlimit:4;stroke-dasharray:none;shape-rendering:crispEdges" />
  <rect
    id="emptyPanel-5-1"
    height="62"
    width="45"
    x="27.5"
    y="14"
    style="fill:#787878;fill-opacity:1;fill-rule:evenodd;stroke:#000000;stroke-width:0.49997;stroke-miterlimit:4;stroke-dasharray:none;shape-rendering:crispEdges" />
  <rect
    id="emptyPanel-5-1-3"
    height="13"
    width="45"
    x="27.5"
    y="91"
    style="fill:#787878;fill-opacity:1;fill-rule:evenodd;stroke:#000000;stroke-width:0.49999;stroke-miterlimit:4;stroke-dasharray:none;shape-rendering:crispEdges" />
  <circle
    r="2.4368"
    cy="81"
    cx="56.5"
    id="path2932"
    style="opacity:1;fill:#ff0200;fill-opacity:1;fill-rule:nonzero;stroke:#000000;stroke-width:0.5;stroke-linecap:butt;stroke-linejoin:bevel;stroke-miterlimit:4;stroke-dasharray:none;stroke-opacity:1;paint-order:markers fill stroke" />
  <circle
    style="opacity:1;fill:#6afe00;fill-opacity:1;fill-rule:nonzero;stroke:#000000;stroke-width:0.5;stroke-linecap:butt;stroke-linejoin:bevel;stroke-miterlimit:4;stroke-dasharray:none;stroke-opacity:1;paint-order:markers fill stroke"
    id="circle2949"
    cx="64.5"
    cy="81"
    r="2.4368" />
  <rect
    style="fill:none;fill-opacity:1;fill-rule:evenodd;stroke:#c0c0c0;stroke-width:0.49999;stroke-miterlimit:4;stroke-dasharray:none;stroke-opacity:1;shape-rendering:crispEdges"
    y="85.479"
    x="51.134"
    width="7.5213"
    height="3.1574"
    id="rect823" />
  <rect
    id="rect840"
    height="3.1574"
    width="7.5213"
    x="62.634"
    y="85.479"
    style="fill:none;fill-opacity:1;fill-rule:evenodd;stroke:#c0c0c0;stroke-width:0.49999;stroke-miterlimit:4;stroke-dasharray:none;stroke-opacity:1;shape-rendering:crispEdges" />
  <path
    inkscape:original-d="m 63.599,84.379 c 1.895,1.799 3.789,3.6 5.682,5.4"
    inkscape:path-effect="#path-effect4545"
    inkscape:connector-curvature="0"
    id="path4543"
    d="m 63.599,84.379 c 1.894,1.8 3.789,3.6 5.682,5.4"
    style="fill:none;fill-rule:evenodd;stroke:#c0c0c0;stroke-width:0.50001;stroke-linecap:butt;stroke-linejoin:miter;stroke-miterlimit:4;stroke-dasharray:none;stroke-opacity:1" />
  <path
    inkscape:original-d="m 69.42,84.374 c -1.891,1.783 -3.816,3.568 -5.727,5.353"
    inkscape:path-effect="#path-effect4549"
    inkscape:connector-curvature="0"
    id="path4547"
    d="m 69.42,84.374 c -1.899,1.775 -3.817,3.567 -5.727,5.353"
    style="fill:none;fill-rule:evenodd;stroke:#c0c0c0;stroke-width:0.5;stroke-linecap:butt;stroke-linejoin:miter;stroke-miterlimit:4;stroke-dasharray:none;stroke-opacity:1" />
  <path
    sodipodi:nodetypes="cc"
    style="fill:none;fill-rule:evenodd;stroke:#c0c0c0;stroke-width:0.49996;stroke-linecap:butt;stroke-linejoin:miter;stroke-miterlimit:4;stroke-dasharray:none;stroke-opacity:1"
    d="m 59.571,87.058 c -3.088,0 -6.23,0 -9.352,0"
    id="path4551"
    inkscape:connector-curvature="0"
    inkscape:path-effect="#path-effect4553"
    inkscape:original-d="m 59.571,87.058 c -3.088,0 -6.23,0 -9.352,0" />
  <circle
    style="opacity:1;fill:#000000;fill-opacity:1;fill-rule:nonzero;stroke:#000000;stroke-width:0.50001;stroke-linecap:butt;stroke-linejoin:bevel;stroke-miterlimit:4;stroke-dasharray:none;stroke-opacity:1;paint-order:markers fill stroke"
    id="circle4559"
    cx="36"
    cy="108"
    r="1.7" />
  <path
    inkscape:original-d="m 71.01,87.058 c -3.049,0 -6.149,0 -9.231,0"
    inkscape:path-effect="#path-effect4625"
    inkscape:connector-curvature="0"
    id="path4623"
    d="m 71.01,87.058 c -3.049,0 -6.149,0 -9.231,0"
    style="fill:none;fill-rule:evenodd;stroke:#c0c0c0;stroke-width:0.49996;stroke-linecap:butt;stroke-linejoin:miter;stroke-miterlimit:4;stroke-dasharray:none;stroke-opacity:1"
    sodipodi:nodetypes="cc" />
 </g>
</svg>
