<?xml version="1.0" encoding="UTF-8" standalone="no"?>
<svg
   xmlns:dc="http://purl.org/dc/elements/1.1/"
   xmlns:cc="http://creativecommons.org/ns#"
   xmlns:rdf="http://www.w3.org/1999/02/22-rdf-syntax-ns#"
   xmlns:svg="http://www.w3.org/2000/svg"
   xmlns="http://www.w3.org/2000/svg"
   xmlns:sodipodi="http://sodipodi.sourceforge.net/DTD/sodipodi-0.dtd"
   xmlns:inkscape="http://www.inkscape.org/namespaces/inkscape"
   id="svg2"
   height="775"
   viewBox="0 0 50 775"
   width="50"
   version="1.1"
   sodipodi:docname="InLinenh0+EFM(example).svg"
   style="shape-rendering:crispEdges"
   inkscape:version="0.91 r13725">
  <metadata
     id="metadata101">
    <rdf:RDF>
      <cc:Work
         rdf:about="">
        <dc:format>image/svg+xml</dc:format>
        <dc:type
           rdf:resource="http://purl.org/dc/dcmitype/StillImage" />
        <dc:title />
      </cc:Work>
    </rdf:RDF>
  </metadata>
  <defs
     id="defs99">
    <inkscape:path-effect
       effect="bspline"
       id="path-effect4545"
       is_visible="true"
       weight="33.333"
       steps="2"
       helper_size="0"
       apply_no_weight="true"
       apply_with_weight="true"
       only_selected="false" />
    <inkscape:path-effect
       effect="bspline"
       id="path-effect4549"
       is_visible="true"
       weight="33.333"
       steps="2"
       helper_size="0"
       apply_no_weight="true"
       apply_with_weight="true"
       only_selected="false" />
    <inkscape:path-effect
       only_selected="false"
       apply_with_weight="true"
       apply_no_weight="true"
       helper_size="0"
       steps="2"
       weight="33.333"
       is_visible="true"
       id="path-effect4553"
       effect="bspline" />
    <inkscape:path-effect
       effect="bspline"
       id="path-effect4625"
       is_visible="true"
       weight="33.333"
       steps="2"
       helper_size="0"
       apply_no_weight="true"
       apply_with_weight="true"
       only_selected="false" />
  </defs>
  <sodipodi:namedview
     pagecolor="#ffffff"
     bordercolor="#666666"
     borderopacity="1"
     objecttolerance="10"
     gridtolerance="10"
     guidetolerance="10"
     inkscape:pageopacity="0"
     inkscape:pageshadow="2"
     inkscape:window-width="1366"
     inkscape:window-height="715"
     id="namedview97"
     showgrid="false"
     inkscape:showpageshadow="false"
     inkscape:zoom="3.0606"
     inkscape:cx="50.21087"
     inkscape:cy="52.606558"
     inkscape:window-x="-8"
     inkscape:window-y="-8"
     inkscape:window-maximized="1"
     inkscape:current-layer="svg2" />
  <rect
     style="fill:#575d5b;fill-rule:evenodd;stroke:#000000;stroke-width:0.80000001;stroke-miterlimit:4;stroke-dasharray:none;shape-rendering:crispEdges"
     y="0.83366662"
     x="0.65346676"
     width="50.009804"
     height="109.83169"
     id="rearPanel" />
  <g
     style="shape-rendering:crispEdges"
     id="monitor"
     transform="matrix(0.94191408,0,0,0.93587477,-21.600703,1.4810262)">
    <rect
       id="label-1"
       height="9"
       width="45"
       x="27.5"
       y="5"
       style="fill:#bb1e10;fill-rule:evenodd;stroke-width:1;shape-rendering:crispEdges" />
    <path
       id="path5180-7"
       d="m 30.21,6 -0.92,3.43 1.9,0 0,-3.43 z m 1.12,0 0,3.43 1.9,0 L 32.31,6 Z m 3.92,0 0,3.43 2.03,0 0,-3.43 z m 2.17,0 0,3.43 2.13,0 A 2.1,2.1 0 0 0 38.82,8.95 1.575,1.575 0 0 0 39.63,7.58 1.575,1.575 0 0 0 38.05,6 Z m 3.29,0 0,3.43 2.03,0 0,-3.43 z m 2.17,0 0,3.43 2.13,0 A 2.1,2.1 0 0 0 44.28,8.95 1.575,1.575 0 0 0 45.09,7.58 1.575,1.575 0 0 0 43.51,6 Z M 29.26,9.57 28.34,13 l 1.75,0 0.37,-1.4 0.73,0 0,-2.03 z m 2.07,0 0,2.03 0.73,0 0.37,1.4 1.75,0 -0.91,-3.43 z m 3.92,0 0,3.43 2.03,0 0,-3.43 z m 2.17,0 0,3.43 0.63,0 a 2.1,2.1 0 0 0 2.1,-2.1 2.1,2.1 0 0 0 -0.48,-1.33 z m 3.29,0 0,3.43 2.03,0 0,-3.43 z m 2.17,0 0,3.43 0.63,0 a 2.1,2.1 0 0 0 2.1,-2.1 2.1,2.1 0 0 0 -0.48,-1.33 z"
       inkscape:connector-curvature="0"
       style="fill:#ffffff;shape-rendering:crispEdges" />
    <rect
       id="emptyPanel-5"
       height="107"
       width="45"
       x="27.5"
       y="5"
       style="fill:none;fill-rule:evenodd;stroke:#000000;stroke-width:0.53254402;stroke-miterlimit:4;stroke-dasharray:none;shape-rendering:crispEdges" />
    <rect
       id="emptyPanel-5-1"
       height="62"
       width="45"
       x="27.5"
       y="14"
       style="fill:#787878;fill-opacity:1;fill-rule:evenodd;stroke:#000000;stroke-width:0.53251201;stroke-miterlimit:4;stroke-dasharray:none;shape-rendering:crispEdges" />
    <rect
       id="emptyPanel-5-1-3"
       height="13"
       width="45"
       x="27.5"
       y="91"
       style="fill:#787878;fill-opacity:1;fill-rule:evenodd;stroke:#000000;stroke-width:0.53253335;stroke-miterlimit:4;stroke-dasharray:none;shape-rendering:crispEdges" />
    <circle
       r="2.4368"
       cy="81"
       cx="56.5"
       id="path2932"
       style="opacity:1;fill:#ff0200;fill-opacity:1;fill-rule:nonzero;stroke:#000000;stroke-width:0.53254402;stroke-linecap:butt;stroke-linejoin:bevel;stroke-miterlimit:4;stroke-dasharray:none;stroke-opacity:1;paint-order:markers fill stroke" />
    <circle
       style="opacity:1;fill:#6afe00;fill-opacity:1;fill-rule:nonzero;stroke:#000000;stroke-width:0.53254402;stroke-linecap:butt;stroke-linejoin:bevel;stroke-miterlimit:4;stroke-dasharray:none;stroke-opacity:1;paint-order:markers fill stroke"
       id="circle2949"
       cx="64.5"
       cy="81"
       r="2.4368" />
    <rect
       style="fill:none;fill-opacity:1;fill-rule:evenodd;stroke:#c0c0c0;stroke-width:0.53253335;stroke-miterlimit:4;stroke-dasharray:none;stroke-opacity:1;shape-rendering:crispEdges"
       y="85.478996"
       x="51.133999"
       width="7.5212998"
       height="3.1573999"
       id="rect823" />
    <rect
       id="rect840"
       height="3.1573999"
       width="7.5212998"
       x="62.633999"
       y="85.478996"
       style="fill:none;fill-opacity:1;fill-rule:evenodd;stroke:#c0c0c0;stroke-width:0.53253335;stroke-miterlimit:4;stroke-dasharray:none;stroke-opacity:1;shape-rendering:crispEdges" />
    <path
       inkscape:original-d="m 63.599,84.379 c 1.895,1.799 3.789,3.6 5.682,5.4"
       inkscape:connector-curvature="0"
       id="path4543"
       d="m 63.599,84.379 c 1.894,1.8 3.789,3.6 5.682,5.4"
       style="fill:none;fill-rule:evenodd;stroke:#c0c0c0;stroke-width:0.53255469;stroke-linecap:butt;stroke-linejoin:miter;stroke-miterlimit:4;stroke-dasharray:none;stroke-opacity:1" />
    <path
       inkscape:original-d="m 69.42,84.374 c -1.891,1.783 -3.816,3.568 -5.727,5.353"
       inkscape:connector-curvature="0"
       id="path4547"
       d="m 69.42,84.374 c -1.899,1.775 -3.817,3.567 -5.727,5.353"
       style="fill:none;fill-rule:evenodd;stroke:#c0c0c0;stroke-width:0.53254402;stroke-linecap:butt;stroke-linejoin:miter;stroke-miterlimit:4;stroke-dasharray:none;stroke-opacity:1" />
    <path
       sodipodi:nodetypes="cc"
       style="fill:none;fill-rule:evenodd;stroke:#c0c0c0;stroke-width:0.5325014;stroke-linecap:butt;stroke-linejoin:miter;stroke-miterlimit:4;stroke-dasharray:none;stroke-opacity:1"
       d="m 59.571,87.058 c -3.088,0 -6.23,0 -9.352,0"
       id="path4551"
       inkscape:connector-curvature="0"
       inkscape:original-d="m 59.571,87.058 c -3.088,0 -6.23,0 -9.352,0" />
    <circle
       style="opacity:1;fill:#000000;fill-opacity:1;fill-rule:nonzero;stroke:#000000;stroke-width:0.53255469;stroke-linecap:butt;stroke-linejoin:bevel;stroke-miterlimit:4;stroke-dasharray:none;stroke-opacity:1;paint-order:markers fill stroke"
       id="circle4559"
       cx="36"
       cy="108"
       r="1.7" />
    <path
       inkscape:original-d="m 71.01,87.058 c -3.049,0 -6.149,0 -9.231,0"
       inkscape:connector-curvature="0"
       id="path4623"
       d="m 71.01,87.058 c -3.049,0 -6.149,0 -9.231,0"
       style="fill:none;fill-rule:evenodd;stroke:#c0c0c0;stroke-width:0.5325014;stroke-linecap:butt;stroke-linejoin:miter;stroke-miterlimit:4;stroke-dasharray:none;stroke-opacity:1"
       sodipodi:nodetypes="cc" />
  </g>
  <g
     id="layer1-7"
     transform="translate(0.4851993,110.83103)">
    <rect
       id="emptyPanel-9"
       height="662"
       width="50"
       x="0"
       y="0"
       style="fill:#575d5b;fill-rule:evenodd;stroke:#000000;stroke-width:0.80000001" />
    <g
       id="breaker-8">
      <g
         id="details-1">
        <path
           id="path4263-0"
           d="m 0.74999544,-1.941e-5 0,662.00000941 48.49999956,0 0,-662.00000941 -6.09961,0 0,2.59961001 2,0 0,1.5 -2,0 -36.3007802,0 -2,0 0,-1.5 2,0 0,-2.59961001 z"
           inkscape:connector-curvature="0"
           style="fill:#575d5b;fill-rule:evenodd;stroke:#000000;stroke-width:0.80000001;stroke-linecap:square" />
        <rect
           id="label-3"
           height="9"
           width="45"
           x="2.4996049"
           y="8.4714394"
           style="fill:#bb1e10;fill-rule:evenodd" />
        <rect
           id="rect4615-5"
           height="9"
           width="45"
           x="2.4996049"
           y="635.9715"
           style="fill:#ffffff;fill-rule:evenodd" />
        <text
           id="fuseText-6"
           font-size="5"
           font-weight="bold"
           letter-spacing="0"
           line-height="125%"
           word-spacing="0"
           x="40.919903"
           xml:space="preserve"
           y="642.34198"
           sodipodi:linespacing="125%"
           style="font-weight:bold;font-size:5px;line-height:125%;font-family:sans-serif;letter-spacing:0;word-spacing:0"><tspan
             id="tspan4519-4"
             x="17.749603"
             y="642.34198">NH00</tspan></text>
        <text
           id="fuseText_2-9"
           line-height="100%"
           style="font-weight:bold;font-size:5px;line-height:100%;font-family:sans-serif;letter-spacing:0;word-spacing:0;overflow:visible;fill:#ffffff;shape-rendering:crispEdges"
           x="24.761255"
           xml:space="preserve"
           y="14.787845"
           sodipodi:linespacing="100%"><tspan
             id="tspan209-4-5"
             font-size="5"
             font-weight="bold"
             line-height="100%"
             x="24.761255"
             y="14.787845"
             style="font-weight:bold;font-size:5px;line-height:100%;font-family:sans-serif;fill:#ffffff">ZLBM00</tspan></text>
        <rect
           id="rect4631-7"
           height="35"
           width="45.5"
           x="2.2496047"
           y="563.7215"
           style="fill:none;stroke:#333333;stroke-width:0.5;stroke-linecap:round" />
        <rect
           id="rect4603-2"
           height="9"
           width="45"
           x="2.4996049"
           y="563.9715"
           style="fill:#bb1e10;fill-rule:evenodd" />
        <path
           id="path5180-6"
           d="m 5.4630798,9.4714396 -0.918203,3.4300004 1.896836,0 0,-3.4300004 z m 1.118633,0 0,3.4300004 1.896837,0 -0.918067,-3.4300004 z m 3.9200012,0 0,3.4300004 2.03,0 0,-3.4300004 z m 2.17,0 0,3.4300004 2.125019,0 a 2.1000006,2.1000006 0 0 0 -0.726659,-0.4822 1.5750004,1.5750004 0 0 0 0.806778,-1.3728 1.5750004,1.5750004 0 0 0 -1.575001,-1.5750004 1.5750004,1.5750004 0 0 0 -1.4e-4,0 l -0.63,0 z m 3.29,0 0,3.4300004 2.030001,0 0,-3.4300004 z m 2.170001,0 0,3.4300004 2.12502,0 a 2.1000006,2.1000006 0 0 0 -0.726659,-0.4822 1.5750004,1.5750004 0 0 0 0.806778,-1.3728 1.5750004,1.5750004 0 0 0 -1.575001,-1.5750004 1.5750004,1.5750004 0 0 0 -1.4e-4,0 l -0.63,0 z M 4.5074158,13.04144 l -0.918204,3.43 1.750001,0 0.371055,-1.4 0.731445,0 0,-2.03 z m 2.074297,0 0,2.03 0.731582,0 0.370919,1.4 1.75,0 -0.918066,-3.43 z m 3.9200012,0 0,3.43 2.03,0 0,-3.43 z m 2.17,0 0,3.43 0.63,0 a 2.1000006,2.1000006 0 0 0 1.4e-4,0 2.1000006,2.1000006 0 0 0 2.1,-2.1 2.1000006,2.1000006 0 0 0 -0.478379,-1.33 l -2.251759,0 z m 3.29,0 0,3.43 2.030001,0 0,-3.43 z m 2.170001,0 0,3.43 0.63,0 a 2.1000006,2.1000006 0 0 0 1.4e-4,0 2.1000006,2.1000006 0 0 0 2.100001,-2.1 2.1000006,2.1000006 0 0 0 -0.478379,-1.33 l -2.251759,0 z"
           inkscape:connector-curvature="0"
           style="fill:#ffffff" />
        <path
           id="path4605-3"
           d="m 5.4630798,564.97145 -0.918203,3.43 1.896836,0 0,-3.43 z m 1.118633,0 0,3.43 1.896837,0 -0.918067,-3.43 z m 3.9200012,0 0,3.43 2.03,0 0,-3.43 z m 2.17,0 0,3.43 2.125019,0 a 2.1000006,2.1000006 0 0 0 -0.726659,-0.4822 1.5750004,1.5750004 0 0 0 0.806778,-1.3728 1.5750004,1.5750004 0 0 0 -1.575001,-1.575 1.5750004,1.5750004 0 0 0 -1.4e-4,0 l -0.63,0 z m 3.29,0 0,3.43 2.030001,0 0,-3.43 z m 2.170001,0 0,3.43 2.12502,0 a 2.1000006,2.1000006 0 0 0 -0.726659,-0.4822 1.5750004,1.5750004 0 0 0 0.806778,-1.3728 1.5750004,1.5750004 0 0 0 -1.575001,-1.575 1.5750004,1.5750004 0 0 0 -1.4e-4,0 l -0.63,0 z m -13.6242992,3.57 -0.918204,3.43 1.750001,0 0.371055,-1.4 0.731445,0 0,-2.03 z m 2.074297,0 0,2.03 0.731582,0 0.370919,1.4 1.75,0 -0.918066,-3.43 z m 3.9200012,0 0,3.43 2.03,0 0,-3.43 z m 2.17,0 0,3.43 0.63,0 a 2.1000006,2.1000006 0 0 0 1.4e-4,0 2.1000006,2.1000006 0 0 0 2.1,-2.1 2.1000006,2.1000006 0 0 0 -0.478379,-1.33 l -2.251759,0 z m 3.29,0 0,3.43 2.030001,0 0,-3.43 z m 2.170001,0 0,3.43 0.63,0 a 2.1000006,2.1000006 0 0 0 1.4e-4,0 2.1000006,2.1000006 0 0 0 2.100001,-2.1 2.1000006,2.1000006 0 0 0 -0.478379,-1.33 l -2.251759,0 z"
           inkscape:connector-curvature="0"
           style="fill:#ffffff" />
        <rect
           id="rect4384"
           height="35"
           width="4"
           x="4.8001304"
           y="505.72144"
           style="fill:#f0f0f0;stroke:#000000;stroke-width:0.5;stroke-linecap:square" />
        <rect
           id="rect4386"
           height="35"
           width="4"
           x="41.199871"
           y="505.72144"
           style="fill:#f0f0f0;stroke:#000000;stroke-width:0.5;stroke-linecap:square" />
        <path
           id="path4388"
           d="m 14.88388,404.22129 c 0,0 -1.196696,0.14957 -1.590094,0.41995 -0.811509,0.55777 -1.303281,2.34001 -1.303281,2.34001 0,0 -1.09026,5.47529 -2.7537233,11.07885 l 31.5101823,0 c -1.943933,-5.6087 -3.203811,-11.07885 -3.203811,-11.07885 0,0 -0.57488,-1.86175 -1.396939,-2.41618 -0.429762,-0.28987 -1.274022,-0.34378 -1.274022,-0.34378 z"
           inkscape:connector-curvature="0"
           style="fill:#575d5b;fill-rule:evenodd;stroke:#000000;stroke-width:0.5;stroke-linecap:square" />
        <path
           id="path4390"
           d="m 14.820501,410.33303 c 0,0 -1.196693,0.14957 -1.590091,0.41995 -0.811509,0.55776 -1.303288,2.33999 -1.303288,2.33999 0,0 -4.3658189,12.60111 -5.6590209,19.13504 -0.9884101,4.99396 -1.4680943,15.31843 -1.4680943,15.31843 l 0,51.62452 0,8.08061 c -6.313e-4,0.31243 0.014345,0.62469 0.044872,0.93561 0.031386,0.31077 0.078266,0.61975 0.1404742,0.92585 0.062203,0.30644 0.1396911,0.60957 0.2321728,0.90826 0.091971,0.29814 0.1987597,0.59149 0.3199696,0.87896 0.1217733,0.2879 0.2578662,0.56952 0.4077653,0.8438 0.1491859,0.27427 0.3119751,0.5409 0.4877575,0.79889 0.1767423,0.25737 0.3662289,0.50575 0.5677496,0.74419 0.2004748,0.23899 0.412752,0.46781 0.6360363,0.68559 0.2242963,0.21805 0.459365,0.4247 0.704322,0.61918 0.2444007,0.19423 0.4983521,0.37612 0.7609023,0.54496 0.2626371,0.1684 0.5335174,0.32355 0.8116289,0.46488 0.2776557,0.14175 0.5622107,0.26952 0.8525987,0.38283 0.290814,0.11307 0.587088,0.21151 0.887719,0.29494 0.300755,0.0836 0.605497,0.15201 0.913083,0.2051 0.307483,0.0532 0.617435,0.091 0.928691,0.11329 0.220771,0.0157 0.442026,0.0235 0.663351,0.0234 l 21.681806,0 c 0.312101,-2e-5 0.624005,-0.0157 0.934544,-0.0469 0.310379,-0.0308 0.619026,-0.077 0.924788,-0.13868 0.305437,-0.0623 0.607574,-0.1399 0.905279,-0.23243 0.298495,-0.0927 0.592169,-0.20022 0.879914,-0.32229 0.287537,-0.12128 0.568838,-0.25687 0.842845,-0.40628 0.273331,-0.15005 0.539001,-0.31367 0.796022,-0.49026 0.257708,-0.17625 0.506451,-0.36531 0.745293,-0.56645 0.238768,-0.20133 0.467325,-0.41451 0.684812,-0.63871 0.217077,-0.22397 0.422842,-0.45864 0.616526,-0.70317 0.194018,-0.24468 0.375689,-0.49892 0.544338,-0.76177 0.16887,-0.2629 0.324499,-0.53408 0.466296,-0.81255 0.141644,-0.27861 0.269271,-0.56415 0.382402,-0.85553 0.112936,-0.29114 0.21126,-0.58776 0.294606,-0.88873 0.08347,-0.3011 0.15184,-0.60619 0.204858,-0.91413 0.05318,-0.30783 0.09094,-0.61813 0.11316,-0.92974 0.0156,-0.22038 0.0234,-0.44123 0.02341,-0.66216 l 0,-8.04546 0,-51.62452 c 0,0 -0.05388,-10.3627 -1.11492,-15.35358 -1.396206,-6.56744 -6.605309,-19.13504 -6.605309,-19.13504 0,0 -0.574881,-1.86173 -1.396939,-2.41617 -0.429762,-0.28987 -1.274022,-0.34377 -1.274022,-0.34377 z m 0.508147,15.88975 c 0.412992,-0.33802 1.357526,-0.35357 1.357526,-0.35357 l 16.985188,0 c 0.430527,0 0.685142,0.0163 1.018438,0.28908 0.290211,0.23757 0.422073,0.44657 0.496537,0.81438 l 3.350896,16.55201 c 0,0 1.152577,4.55333 1.393036,6.88132 1.785065,17.282 0.692567,21.15605 -0.03122,52.19683 -2.79e-4,0.012 -0.03122,0.0176 -0.03122,0.0176 -0.97404,0.49628 -1.972263,0.94348 -2.990931,1.33993 -1.018757,0.39677 -2.056701,0.74229 -3.109943,1.03522 -1.052632,0.29277 -2.119226,0.53267 -3.195789,0.7188 -1.076875,0.18571 -2.162354,0.31739 -3.252368,0.39456 -0.772048,0.0547 -1.545793,0.0821 -2.319776,0.082 -1.092676,-6e-5 -2.184665,-0.0548 -3.271878,-0.16407 -1.087058,-0.10928 -2.167977,-0.2729 -3.238712,-0.49027 -1.070944,-0.21705 -2.130376,-0.48759 -3.174327,-0.81059 -1.04434,-0.32339 -3.367351,-0.8864 -4.374211,-1.31259 -0.698818,-0.30855 -0.772055,-0.61217 -0.844797,-1.37314 -1.269422,-13.27967 -1.2594837,-41.68179 0.02146,-51.63429 0.299257,-2.32514 1.394986,-6.89304 1.394986,-6.89304 l 3.350901,-16.54101 c 0.07446,-0.36757 0.176159,-0.51176 0.4662,-0.74916 z"
           inkscape:connector-curvature="0"
           style="fill:#f0f0f0;fill-rule:evenodd;stroke:#000000;stroke-width:0.5;stroke-linecap:square" />
        <path
           id="path4392"
           d="m 15.328648,426.22278 c 0.412992,-0.33802 1.357526,-0.35357 1.357526,-0.35357 l 16.985188,0 c 0.430527,0 0.685142,0.0163 1.018438,0.28908 0.290211,0.23757 0.422073,0.44657 0.496537,0.81438 l 3.350896,16.55201 c 0,0 1.152577,4.55333 1.393036,6.88132 1.785065,17.282 0.692567,21.15605 -0.03122,52.19683 -2.79e-4,0.012 -0.03122,0.0176 -0.03122,0.0176 -0.97404,0.49628 -1.972263,0.94348 -2.990931,1.33993 -1.018757,0.39677 -2.056701,0.74229 -3.109943,1.03522 -1.052632,0.29277 -2.119226,0.53267 -3.195789,0.7188 -1.076875,0.18571 -2.162354,0.31739 -3.252368,0.39456 -0.772048,0.0547 -1.545793,0.0821 -2.319776,0.082 -1.092676,-6e-5 -2.184665,-0.0548 -3.271878,-0.16407 -1.087058,-0.10928 -2.167977,-0.2729 -3.238712,-0.49027 -1.070944,-0.21705 -2.130376,-0.48759 -3.174327,-0.81059 -1.04434,-0.32339 -3.367351,-0.8864 -4.374211,-1.31259 -0.698818,-0.30855 -0.772055,-0.61217 -0.844797,-1.37314 -1.269422,-13.27967 -1.2594837,-41.68179 0.02146,-51.63429 0.299257,-2.32514 1.394986,-6.89304 1.394986,-6.89304 l 3.350901,-16.54101 c 0.07446,-0.36757 0.176159,-0.51176 0.4662,-0.74916 z"
           inkscape:connector-curvature="0"
           style="fill:#333333;fill-rule:evenodd;stroke:#000000;stroke-width:0.5;stroke-linecap:square" />
        <ellipse
           id="ellipse4394"
           cx="25.022755"
           cy="439.22449"
           rx="4.7449074"
           ry="4.8753238"
           style="fill-rule:evenodd;stroke:#4d4d4d;stroke-width:0.49974847;stroke-linecap:round" />
        <ellipse
           id="ellipse4396"
           cx="25.022755"
           cy="499.94644"
           rx="4.75"
           ry="4.875"
           style="fill-rule:evenodd;stroke:#4d4d4d;stroke-width:0.5;stroke-linecap:round" />
        <rect
           id="rect4568"
           height="35"
           rx="5"
           width="24"
           x="13.022755"
           y="448.53006"
           ry="5"
           style="fill-rule:evenodd;stroke:#4d4d4d;stroke-width:0.5;stroke-linecap:round" />
        <rect
           id="rect4402"
           height="35"
           width="4"
           x="4.8001304"
           y="320.72144"
           style="fill:#f0f0f0;stroke:#000000;stroke-width:0.5;stroke-linecap:square" />
        <rect
           id="rect4404"
           height="35"
           width="4"
           x="41.199871"
           y="320.72144"
           style="fill:#f0f0f0;stroke:#000000;stroke-width:0.5;stroke-linecap:square" />
        <path
           id="path4406-0"
           d="m 14.88388,219.22129 c 0,0 -1.196696,0.14957 -1.590094,0.41995 -0.811509,0.55777 -1.303281,2.34001 -1.303281,2.34001 0,0 -1.09026,5.47529 -2.7537233,11.07885 l 31.5101823,0 c -1.943933,-5.6087 -3.203811,-11.07885 -3.203811,-11.07885 0,0 -0.57488,-1.86175 -1.396939,-2.41618 -0.429762,-0.28987 -1.274022,-0.34378 -1.274022,-0.34378 z"
           inkscape:connector-curvature="0"
           style="fill:#575d5b;fill-rule:evenodd;stroke:#000000;stroke-width:0.5;stroke-linecap:square" />
        <path
           id="path4408"
           d="m 14.820501,225.33303 c 0,0 -1.196693,0.14957 -1.590091,0.41995 -0.811509,0.55776 -1.303288,2.33999 -1.303288,2.33999 0,0 -4.3658189,12.60111 -5.6590209,19.13504 -0.9884101,4.99396 -1.4680943,15.31843 -1.4680943,15.31843 l 0,51.62452 0,8.08061 c -6.313e-4,0.31243 0.014345,0.62469 0.044872,0.93561 0.031386,0.31077 0.078266,0.61975 0.1404742,0.92585 0.062203,0.30644 0.1396911,0.60957 0.2321728,0.90826 0.091971,0.29814 0.1987597,0.59149 0.3199696,0.87896 0.1217733,0.2879 0.2578662,0.56952 0.4077653,0.8438 0.1491859,0.27427 0.3119751,0.5409 0.4877575,0.79889 0.1767423,0.25737 0.3662289,0.50575 0.5677496,0.74419 0.2004748,0.23899 0.412752,0.46781 0.6360363,0.68559 0.2242963,0.21805 0.459365,0.4247 0.704322,0.61918 0.2444007,0.19423 0.4983521,0.37612 0.7609023,0.54496 0.2626371,0.1684 0.5335174,0.32355 0.8116289,0.46488 0.2776557,0.14175 0.5622107,0.26952 0.8525987,0.38283 0.290814,0.11307 0.587088,0.21151 0.887719,0.29494 0.300755,0.0836 0.605497,0.15201 0.913083,0.2051 0.307483,0.0532 0.617435,0.091 0.928691,0.11329 0.220771,0.0157 0.442026,0.0235 0.663351,0.0234 l 21.681806,0 c 0.312101,-2e-5 0.624005,-0.0157 0.934544,-0.0469 0.310379,-0.0308 0.619026,-0.077 0.924788,-0.13868 0.305437,-0.0623 0.607574,-0.1399 0.905279,-0.23243 0.298495,-0.0927 0.592169,-0.20022 0.879914,-0.32229 0.287537,-0.12128 0.568838,-0.25687 0.842845,-0.40628 0.273331,-0.15005 0.539001,-0.31367 0.796022,-0.49026 0.257708,-0.17625 0.506451,-0.36531 0.745293,-0.56645 0.238768,-0.20133 0.467325,-0.41451 0.684812,-0.63871 0.217077,-0.22397 0.422842,-0.45864 0.616526,-0.70317 0.194018,-0.24468 0.375689,-0.49892 0.544338,-0.76177 0.16887,-0.2629 0.324499,-0.53408 0.466296,-0.81255 0.141644,-0.27861 0.269271,-0.56415 0.382402,-0.85553 0.112936,-0.29114 0.21126,-0.58776 0.294606,-0.88873 0.08347,-0.3011 0.15184,-0.60619 0.204858,-0.91413 0.05318,-0.30783 0.09094,-0.61813 0.11316,-0.92974 0.0156,-0.22038 0.0234,-0.44123 0.02341,-0.66216 l 0,-8.04546 0,-51.62452 c 0,0 -0.05388,-10.3627 -1.11492,-15.35358 -1.396206,-6.56744 -6.605309,-19.13504 -6.605309,-19.13504 0,0 -0.574881,-1.86173 -1.396939,-2.41617 -0.429762,-0.28987 -1.274022,-0.34377 -1.274022,-0.34377 z m 0.508147,15.88975 c 0.412992,-0.33802 1.357526,-0.35357 1.357526,-0.35357 l 16.985188,0 c 0.430527,0 0.685142,0.0163 1.018438,0.28908 0.290211,0.23757 0.422073,0.44657 0.496537,0.81438 l 3.350896,16.55201 c 0,0 1.152577,4.55333 1.393036,6.88132 1.785065,17.282 0.692567,21.15605 -0.03122,52.19683 -2.79e-4,0.012 -0.03122,0.0176 -0.03122,0.0176 -0.97404,0.49628 -1.972263,0.94348 -2.990931,1.33993 -1.018757,0.39677 -2.056701,0.74229 -3.109943,1.03522 -1.052632,0.29277 -2.119226,0.53267 -3.195789,0.7188 -1.076875,0.18571 -2.162354,0.31739 -3.252368,0.39456 -0.772048,0.0547 -1.545793,0.0821 -2.319776,0.082 -1.092676,-6e-5 -2.184665,-0.0548 -3.271878,-0.16407 -1.087058,-0.10928 -2.167977,-0.2729 -3.238712,-0.49027 -1.070944,-0.21705 -2.130376,-0.48759 -3.174327,-0.81059 -1.04434,-0.32339 -3.367351,-0.8864 -4.374211,-1.31259 -0.698818,-0.30855 -0.772055,-0.61217 -0.844797,-1.37314 -1.269422,-13.27967 -1.2594837,-41.68179 0.02146,-51.63429 0.299257,-2.32514 1.394986,-6.89304 1.394986,-6.89304 l 3.350901,-16.54101 c 0.07446,-0.36757 0.176159,-0.51176 0.4662,-0.74916 z"
           inkscape:connector-curvature="0"
           style="fill:#f0f0f0;fill-rule:evenodd;stroke:#000000;stroke-width:0.5;stroke-linecap:square" />
        <path
           id="path4410"
           d="m 15.328648,241.22278 c 0.412992,-0.33802 1.357526,-0.35357 1.357526,-0.35357 l 16.985188,0 c 0.430527,0 0.685142,0.0163 1.018438,0.28908 0.290211,0.23757 0.422073,0.44657 0.496537,0.81438 l 3.350896,16.55201 c 0,0 1.152577,4.55333 1.393036,6.88132 1.785065,17.282 0.692567,21.15605 -0.03122,52.19683 -2.79e-4,0.012 -0.03122,0.0176 -0.03122,0.0176 -0.97404,0.49628 -1.972263,0.94348 -2.990931,1.33993 -1.018757,0.39677 -2.056701,0.74229 -3.109943,1.03522 -1.052632,0.29277 -2.119226,0.53267 -3.195789,0.7188 -1.076875,0.18571 -2.162354,0.31739 -3.252368,0.39456 -0.772048,0.0547 -1.545793,0.0821 -2.319776,0.082 -1.092676,-6e-5 -2.184665,-0.0548 -3.271878,-0.16407 -1.087058,-0.10928 -2.167977,-0.2729 -3.238712,-0.49027 -1.070944,-0.21705 -2.130376,-0.48759 -3.174327,-0.81059 -1.04434,-0.32339 -3.367351,-0.8864 -4.374211,-1.31259 -0.698818,-0.30855 -0.772055,-0.61217 -0.844797,-1.37314 -1.269422,-13.27967 -1.2594837,-41.68179 0.02146,-51.63429 0.299257,-2.32514 1.394986,-6.89304 1.394986,-6.89304 l 3.350901,-16.54101 c 0.07446,-0.36757 0.176159,-0.51176 0.4662,-0.74916 z"
           inkscape:connector-curvature="0"
           style="fill:#333333;fill-rule:evenodd;stroke:#000000;stroke-width:0.5;stroke-linecap:square" />
        <ellipse
           id="ellipse4412"
           cx="25.022755"
           cy="254.22449"
           rx="4.7449074"
           ry="4.8753238"
           style="fill-rule:evenodd;stroke:#4d4d4d;stroke-width:0.49974847;stroke-linecap:round" />
        <ellipse
           id="ellipse4414"
           cx="25.022755"
           cy="314.94644"
           rx="4.75"
           ry="4.875"
           style="fill-rule:evenodd;stroke:#4d4d4d;stroke-width:0.5;stroke-linecap:round" />
        <rect
           id="rect4566"
           height="35"
           rx="5"
           width="24"
           x="13.022755"
           y="263.53006"
           ry="5"
           style="fill-rule:evenodd;stroke:#4d4d4d;stroke-width:0.5;stroke-linecap:round" />
        <path
           id="path4416"
           d="m 9.322484,301.31463 c -0.1635775,-7.18096 -0.1544632,-14.97817 0.023415,-21.78074 0.00819,-0.31266 0.00669,-0.66288 0.015613,-0.97077 0.064281,-1.14541 0.2362664,-2.26715 0.661399,-3.27365 0.493589,-1.16857 1.206891,-2.22183 2.089553,-3.10568 0.882661,-0.88384 1.935004,-1.59951 3.102138,-2.09389 1.167137,-0.49437 2.449697,-0.76746 3.796707,-0.76762 l 12.053469,0 c 1.3472,-10e-5 2.631304,0.27336 3.798657,0.76762 1.167353,0.49427 2.217331,1.21003 3.100188,2.09389 0.882858,0.88387 1.597791,1.93503 2.091505,3.10373 0.489913,1.15969 0.756809,2.43629 0.760903,3.77369 4.2e-4,0.0185 -4.14e-4,0.0382 0,0.0566 0.135166,6.03653 -0.115465,12.21907 -0.440934,22.19678 m 4.473714,0 0.03316,0 0,-2.50016 0,-2.50017 0,-2.50016 0,-2.50017 0,-2.50017 0,-2.50016 0,-2.50017 0,-2.50016 -0.03316,-0.043 c 0.567614,-14.16473 -6.941772,-22.17919 -12.373438,-23.66173 -0.356009,-0.0972 -3.025406,-0.14032 -5.607263,-0.16017 l -0.01171,-0.0156 c 0,0 -1.419218,0.006 -2.306118,0.008 -1.010296,-0.002 -2.626088,-0.008 -2.626088,-0.008 l -0.01756,0.0234 c -2.051454,0.0225 -4.061101,0.0648 -4.382016,0.15236 -5.431664,1.48253 -12.9430015,9.497 -12.3753868,23.66172 l -0.031216,0.043 0,2.50016 0,2.50017 0,2.50016 0,2.50017 0,2.50017 0,2.50016 0,2.50017 0,2.50016 0.031216,0"
           inkscape:connector-curvature="0"
           style="fill:#f0f0f0;fill-rule:evenodd;stroke:#000000;stroke-width:0.5" />
        <rect
           id="rect4420-71"
           height="35"
           width="4"
           x="4.8001304"
           y="135.72142"
           style="fill:#f0f0f0;stroke:#000000;stroke-width:0.5;stroke-linecap:square" />
        <rect
           id="rect4422-0"
           height="35"
           width="4"
           x="41.199871"
           y="135.72142"
           style="fill:#f0f0f0;stroke:#000000;stroke-width:0.5;stroke-linecap:square" />
        <path
           id="path4424-7"
           d="m 14.88388,34.22128 c 0,0 -1.196696,0.14957 -1.590094,0.41995 -0.811509,0.55777 -1.303281,2.34001 -1.303281,2.34001 0,0 -1.09026,5.47529 -2.7537233,11.07885 l 31.5101823,0 c -1.943933,-5.6087 -3.203811,-11.07885 -3.203811,-11.07885 0,0 -0.57488,-1.86175 -1.396939,-2.41618 -0.429762,-0.28987 -1.274022,-0.34378 -1.274022,-0.34378 z"
           inkscape:connector-curvature="0"
           style="fill:#575d5b;fill-rule:evenodd;stroke:#000000;stroke-width:0.5;stroke-linecap:square" />
        <path
           id="path4426"
           d="m 14.820501,40.33302 c 0,0 -1.196693,0.14957 -1.590091,0.41995 -0.811509,0.55776 -1.303288,2.33999 -1.303288,2.33999 0,0 -4.3658189,12.60111 -5.6590209,19.13504 C 5.279691,67.22196 4.8000068,77.54643 4.8000068,77.54643 l 0,51.62453 0,8.08061 c -6.313e-4,0.31243 0.014345,0.62469 0.044872,0.93561 0.031386,0.31077 0.078266,0.61975 0.1404742,0.92585 0.062203,0.30644 0.1396911,0.60957 0.2321728,0.90826 0.091971,0.29814 0.1987597,0.59149 0.3199696,0.87896 0.1217733,0.2879 0.2578662,0.56952 0.4077653,0.8438 0.1491859,0.27427 0.3119751,0.5409 0.4877575,0.79889 0.1767423,0.25737 0.3662289,0.50575 0.5677496,0.74419 0.2004748,0.23899 0.412752,0.46781 0.6360363,0.68559 0.2242963,0.21805 0.459365,0.4247 0.704322,0.61918 0.2444007,0.19423 0.4983521,0.37612 0.7609023,0.54496 0.2626371,0.1684 0.5335174,0.32355 0.8116289,0.46488 0.2776557,0.14175 0.5622107,0.26952 0.8525987,0.38283 0.290814,0.11307 0.587088,0.21151 0.887719,0.29494 0.300755,0.0836 0.605497,0.15201 0.913083,0.2051 0.307483,0.0532 0.617435,0.091 0.928691,0.11329 0.220771,0.0157 0.442026,0.0235 0.663351,0.0234 l 21.681806,0 c 0.312101,-2e-5 0.624005,-0.0157 0.934544,-0.0469 0.310379,-0.0308 0.619026,-0.077 0.924788,-0.13868 0.305437,-0.0623 0.607574,-0.1399 0.905279,-0.23243 0.298495,-0.0927 0.592169,-0.20022 0.879914,-0.32229 0.287537,-0.12128 0.568838,-0.25687 0.842845,-0.40628 0.273331,-0.15005 0.539001,-0.31367 0.796022,-0.49026 0.257708,-0.17625 0.506451,-0.36531 0.745293,-0.56645 0.238768,-0.20133 0.467325,-0.41451 0.684812,-0.63871 0.217077,-0.22397 0.422842,-0.45864 0.616526,-0.70317 0.194018,-0.24468 0.375689,-0.49892 0.544338,-0.76177 0.16887,-0.2629 0.324499,-0.53408 0.466296,-0.81255 0.141644,-0.27861 0.269271,-0.56415 0.382402,-0.85553 0.112936,-0.29114 0.21126,-0.58776 0.294606,-0.88873 0.08347,-0.3011 0.15184,-0.60619 0.204858,-0.91413 0.05318,-0.30783 0.09094,-0.61813 0.11316,-0.92974 0.0156,-0.22038 0.0234,-0.44123 0.02341,-0.66216 l 0,-8.04546 0,-51.62453 c 0,0 -0.05388,-10.3627 -1.11492,-15.35358 -1.396206,-6.56744 -6.605309,-19.13504 -6.605309,-19.13504 0,0 -0.574881,-1.86173 -1.396939,-2.41617 -0.429762,-0.28987 -1.274022,-0.34377 -1.274022,-0.34377 z m 0.508147,15.88975 c 0.412992,-0.33802 1.357526,-0.35357 1.357526,-0.35357 l 16.985188,0 c 0.430527,0 0.685142,0.0163 1.018438,0.28908 0.290211,0.23757 0.422073,0.44657 0.496537,0.81438 l 3.350896,16.55201 c 0,0 1.152577,4.55333 1.393036,6.88132 1.785065,17.282 0.692567,21.15606 -0.03122,52.19684 -2.79e-4,0.012 -0.03122,0.0176 -0.03122,0.0176 -0.97404,0.49628 -1.972263,0.94348 -2.990931,1.33993 -1.018757,0.39677 -2.056701,0.74229 -3.109943,1.03522 -1.052632,0.29277 -2.119226,0.53267 -3.195789,0.7188 -1.076875,0.18571 -2.162354,0.31739 -3.252368,0.39456 -0.772048,0.0547 -1.545793,0.0821 -2.319776,0.082 -1.092676,-6e-5 -2.184665,-0.0548 -3.271878,-0.16407 -1.087058,-0.10928 -2.167977,-0.2729 -3.238712,-0.49027 -1.070944,-0.21705 -2.130376,-0.48759 -3.174327,-0.81059 -1.04434,-0.32339 -3.367351,-0.8864 -4.374211,-1.31259 -0.698818,-0.30855 -0.772055,-0.61217 -0.844797,-1.37314 -1.269422,-13.27967 -1.2594837,-41.6818 0.02146,-51.6343 0.299257,-2.32514 1.394986,-6.89304 1.394986,-6.89304 l 3.350901,-16.54101 c 0.07446,-0.36757 0.176159,-0.51176 0.4662,-0.74916 z"
           inkscape:connector-curvature="0"
           style="fill:#f0f0f0;fill-rule:evenodd;stroke:#000000;stroke-width:0.5;stroke-linecap:square" />
        <path
           id="path4428-3"
           d="m 15.328648,56.22277 c 0.412992,-0.33802 1.357526,-0.35357 1.357526,-0.35357 l 16.985188,0 c 0.430527,0 0.685142,0.0163 1.018438,0.28908 0.290211,0.23757 0.422073,0.44657 0.496537,0.81438 l 3.350896,16.55201 c 0,0 1.152577,4.55333 1.393036,6.88132 1.785065,17.282 0.692567,21.15606 -0.03122,52.19684 -2.79e-4,0.012 -0.03122,0.0176 -0.03122,0.0176 -0.97404,0.49628 -1.972263,0.94348 -2.990931,1.33993 -1.018757,0.39677 -2.056701,0.74229 -3.109943,1.03522 -1.052632,0.29277 -2.119226,0.53267 -3.195789,0.7188 -1.076875,0.18571 -2.162354,0.31739 -3.252368,0.39456 -0.772048,0.0547 -1.545793,0.0821 -2.319776,0.082 -1.092676,-6e-5 -2.184665,-0.0548 -3.271878,-0.16407 -1.087058,-0.10928 -2.167977,-0.2729 -3.238712,-0.49027 -1.070944,-0.21705 -2.130376,-0.48759 -3.174327,-0.81059 -1.04434,-0.32339 -3.367351,-0.8864 -4.374211,-1.31259 -0.698818,-0.30855 -0.772055,-0.61217 -0.844797,-1.37314 -1.269422,-13.27967 -1.2594837,-41.6818 0.02146,-51.6343 0.299257,-2.32514 1.394986,-6.89304 1.394986,-6.89304 l 3.350901,-16.54101 c 0.07446,-0.36757 0.176159,-0.51176 0.4662,-0.74916 z"
           inkscape:connector-curvature="0"
           style="fill:#333333;fill-rule:evenodd;stroke:#000000;stroke-width:0.5;stroke-linecap:square" />
        <ellipse
           id="ellipse4430-6"
           cx="25.022757"
           cy="69.224495"
           rx="4.7449074"
           ry="4.8753238"
           style="fill-rule:evenodd;stroke:#4d4d4d;stroke-width:0.49974847;stroke-linecap:round" />
        <ellipse
           id="ellipse4432-5"
           cx="25.022755"
           cy="129.94643"
           rx="4.75"
           ry="4.875"
           style="fill-rule:evenodd;stroke:#4d4d4d;stroke-width:0.5;stroke-linecap:round" />
        <rect
           id="rect4563-9"
           height="35"
           rx="5"
           width="24"
           x="13.022755"
           y="78.530067"
           ry="5"
           style="fill-rule:evenodd;stroke:#4d4d4d;stroke-width:0.5;stroke-linecap:round" />
        <circle
           id="path4436-4"
           cx="25.022755"
           cy="69.224495"
           r="3.25"
           style="fill:#333333;fill-opacity:0.8;fill-rule:evenodd;stroke:#333333;stroke-width:0.5;stroke-linecap:round" />
        <text
           id="fuseText_3-2"
           line-height="100%"
           style="font-weight:bold;font-size:5px;line-height:100%;font-family:sans-serif;letter-spacing:0;word-spacing:0;overflow:visible;fill:#ffffff;shape-rendering:crispEdges"
           x="24.761255"
           xml:space="preserve"
           y="570.2879"
           sodipodi:linespacing="100%"><tspan
             id="tspan4609-8"
             font-size="5"
             font-weight="bold"
             line-height="100%"
             x="24.761255"
             y="570.2879"
             style="font-weight:bold;font-size:5px;line-height:100%;font-family:sans-serif;fill:#ffffff">ZLBM00</tspan></text>
        <path
           id="path4440"
           d="m 27.055685,69.224489 -4.06586,0 m 2.03293,-2.03293 0,4.06586"
           inkscape:connector-curvature="0"
           style="fill:#666666;fill-rule:evenodd;stroke:#666666;stroke-width:0.69999999" />
        <circle
           id="circle4447-5"
           cx="25.022755"
           cy="129.94644"
           r="3.25"
           style="fill:#333333;fill-opacity:0.8;fill-rule:evenodd;stroke:#333333;stroke-width:0.5;stroke-linecap:round" />
        <path
           id="path4449-4"
           d="m 27.055685,129.94645 -4.06586,0 m 2.03293,-2.03293 0,4.06586"
           inkscape:connector-curvature="0"
           style="fill:#666666;fill-rule:evenodd;stroke:#666666;stroke-width:0.69999999" />
        <circle
           id="circle4447-4"
           cx="25.022755"
           cy="254.22449"
           r="3.25"
           style="fill:#333333;fill-opacity:0.8;fill-rule:evenodd;stroke:#333333;stroke-width:0.5;stroke-linecap:round" />
        <path
           id="path4449-2"
           d="m 27.055685,254.22449 -4.06586,0 m 2.03293,-2.03293 0,4.06586"
           inkscape:connector-curvature="0"
           style="fill:#666666;fill-rule:evenodd;stroke:#666666;stroke-width:0.69999999" />
        <circle
           id="circle4502"
           cx="25.022755"
           cy="314.94644"
           r="3.25"
           style="fill:#333333;fill-rule:evenodd;stroke:#4d4d4d;stroke-width:0.5;stroke-linecap:round" />
        <path
           id="path4504"
           d="m 27.055685,314.94644 -4.06586,0 m 2.03293,-2.03293 0,4.06586"
           inkscape:connector-curvature="0"
           style="fill:#666666;fill-rule:evenodd;stroke:#666666;stroke-width:0.69999999" />
        <circle
           id="circle4502-6"
           cx="25.022755"
           cy="439.22449"
           r="3.25"
           style="fill:#333333;fill-rule:evenodd;stroke:#4d4d4d;stroke-width:0.5;stroke-linecap:round" />
        <path
           id="path4504-2"
           d="m 27.055685,439.22449 -4.06586,0 m 2.03293,-2.03293 0,4.06586"
           inkscape:connector-curvature="0"
           style="fill:#666666;fill-rule:evenodd;stroke:#666666;stroke-width:0.69999999" />
        <circle
           id="circle4502-6-6"
           cx="25.022755"
           cy="499.94644"
           r="3.25"
           style="fill:#333333;fill-rule:evenodd;stroke:#4d4d4d;stroke-width:0.5;stroke-linecap:round" />
        <path
           id="path4504-2-7"
           d="m 27.055685,499.94645 -4.06586,0 m 2.03293,-2.03293 0,4.06586"
           inkscape:connector-curvature="0"
           style="fill:#666666;fill-rule:evenodd;stroke:#666666;stroke-width:0.69999999" />
        <rect
           id="rect4613-7"
           height="9"
           width="45"
           x="2.4996049"
           y="623.9715"
           style="fill:#ffffff;fill-rule:evenodd" />
        <rect
           id="rect4617-8"
           height="9"
           width="45"
           x="2.4996049"
           y="647.9715"
           style="fill:#ffffff;fill-rule:evenodd" />
        <path
           id="path4619"
           d="m 5.3496048,576.97145 28.4999992,0"
           inkscape:connector-curvature="0"
           style="fill:none;stroke:#ffffff;stroke-linecap:round;stroke-dasharray:2, 2" />
        <path
           id="path4621"
           d="m 5.3496048,580.97145 28.4999992,0"
           inkscape:connector-curvature="0"
           style="fill:none;stroke:#ffffff;stroke-linecap:round;stroke-dasharray:2, 2" />
        <path
           id="path4623-8"
           d="m 5.3496048,584.97145 28.4999992,0"
           inkscape:connector-curvature="0"
           style="fill:none;stroke:#ffffff;stroke-linecap:round;stroke-dasharray:2, 2" />
        <path
           id="path4625"
           d="m 5.3496048,588.97145 28.4999992,0"
           inkscape:connector-curvature="0"
           style="fill:none;stroke:#ffffff;stroke-linecap:round;stroke-dasharray:2, 2" />
        <path
           id="path4627-1"
           d="m 5.3496048,592.97145 28.4999992,0"
           inkscape:connector-curvature="0"
           style="fill:none;stroke:#ffffff;stroke-linecap:round;stroke-dasharray:2, 2" />
      </g>
      <g
         id="P1-8"
         style="fill:#f0f0f0;fill-rule:evenodd;stroke:#000000;stroke-width:0.5">
        <path
           id="path4398"
           d="m 9.3452467,486.71464 c -0.1635775,-7.18096 -0.1544632,-14.97817 0.023415,-21.78074 0.00819,-0.31266 0.00669,-0.66288 0.015613,-0.97077 0.064281,-1.14541 0.2362664,-2.26715 0.6613993,-3.27365 0.493589,-1.16857 1.206891,-2.22183 2.089553,-3.10568 0.882661,-0.88384 1.935004,-1.59951 3.102138,-2.09389 1.167137,-0.49437 2.449697,-0.76746 3.796707,-0.76762 l 12.053469,0 c 1.3472,-10e-5 2.631304,0.27336 3.798657,0.76762 1.167353,0.49427 2.217331,1.21003 3.100188,2.09389 0.882858,0.88387 1.597791,1.93503 2.091505,3.10373 0.489913,1.15969 0.756809,2.43629 0.760903,3.77369 4.2e-4,0.0185 -4.14e-4,0.0382 0,0.0566 0.135166,6.03653 -0.115465,12.21907 -0.440934,22.19678 m 4.473714,0 0.03316,0 0,-2.50016 0,-2.50017 0,-2.50016 0,-2.50017 0,-2.50017 0,-2.50016 0,-2.50017 0,-2.50016 -0.03316,-0.043 c 0.567614,-14.16473 -6.941772,-22.17919 -12.373438,-23.66173 -0.356009,-0.0972 -3.025406,-0.14032 -5.607263,-0.16017 l -0.01171,-0.0156 c 0,0 -1.419218,0.006 -2.306118,0.008 -1.010296,-0.002 -2.626088,-0.008 -2.626088,-0.008 l -0.01756,0.0234 c -2.051454,0.0225 -4.061101,0.0648 -4.382016,0.15236 -5.431664,1.48253 -12.9430018,9.497 -12.3753871,23.66172 l -0.031216,0.043 0,2.50016 0,2.50017 0,2.50016 0,2.50017 0,2.50017 0,2.50016 0,2.50017 0,2.50016 0.031216,0"
           inkscape:connector-curvature="0" />
        <path
           id="path4434-0"
           d="m 9.322484,116.71464 c -0.1635775,-7.18096 -0.1544632,-14.97817 0.023415,-21.780741 0.00819,-0.31266 0.00669,-0.66288 0.015613,-0.97077 0.064281,-1.14541 0.2362664,-2.26715 0.661399,-3.27365 0.493589,-1.16857 1.206891,-2.22183 2.089553,-3.10568 0.882661,-0.88384 1.935004,-1.59951 3.102138,-2.09389 1.167137,-0.49437 2.449697,-0.76746 3.796707,-0.76762 l 12.053469,0 c 1.3472,-1e-4 2.631304,0.27336 3.798657,0.76762 1.167353,0.49427 2.217331,1.21003 3.100188,2.09389 0.882858,0.88387 1.597791,1.93503 2.091505,3.10373 0.489913,1.15969 0.756809,2.43629 0.760903,3.77369 4.2e-4,0.0185 -4.14e-4,0.0382 0,0.0566 0.135166,6.036531 -0.115465,12.219071 -0.440934,22.196781 m 4.473714,0 0.03316,0 0,-2.50016 0,-2.50017 0,-2.50016 0,-2.50017 0,-2.50017 0,-2.50016 0,-2.500171 0,-2.50016 -0.03316,-0.043 c 0.567614,-14.16473 -6.941772,-22.17919 -12.373438,-23.66173 -0.356009,-0.0972 -3.025406,-0.14032 -5.607263,-0.16017 l -0.01171,-0.0156 c 0,0 -1.419218,0.006 -2.306118,0.008 -1.010296,-0.002 -2.626088,-0.008 -2.626088,-0.008 l -0.01756,0.0234 c -2.051454,0.0225 -4.061101,0.0648 -4.382016,0.15236 -5.431664,1.48253 -12.9430015,9.497 -12.3753868,23.66172 l -0.031216,0.043 0,2.50016 0,2.500171 0,2.50016 0,2.50017 0,2.50017 0,2.50016 0,2.50017 0,2.50016 0.031216,0"
           inkscape:connector-curvature="0" />
      </g>
      <g
         id="P3-9"
         style="fill:#f0f0f0;stroke:#000000;stroke-width:0.49999994;stroke-linecap:square">
        <rect
           id="rect4599-1"
           height="380.5"
           rx="1"
           width="4"
           x="0.59999537"
           y="78.221451"
           ry="1" />
        <rect
           id="rect4601-8"
           height="380.5"
           rx="1"
           width="4"
           x="45.400005"
           y="78.221451"
           ry="1" />
      </g>
    </g>
  </g>
</svg>
