<svg id="svg2" height="662.80005" shape-rendering="crispEdges" viewBox="0 0 100.8 662.80005" width="100.8" xmlns="http://www.w3.org/2000/svg"><g id="layer1"><rect id="emptyPanel" fill="#575d5b" fill-rule="evenodd" height="662" stroke="#000" stroke-width=".80000001" width="100"/><g id="breaker"><g id="details"><path id="path4263" d="m .49997066.00002821v662.00001179h99.00000034v-662.00001179h-6.45075v2.59960999h2.08247v1.5h-8.08247-74.0985-8.0824703v-1.5h2.08247v-2.59960999z" fill="#575d5b" fill-rule="evenodd" stroke="#000" stroke-linecap="square" stroke-width=".80000001"/><rect id="label" fill="#bb1e10" fill-rule="evenodd" height="9" shape-rendering="crispEdges" width="95" x="2.5000005" y="8.471487"/><text id="fuseText_2" line-height="100%" style="font-weight:bold;font-size:5;font-family:sans-serif;letter-spacing:0;word-spacing:0;overflow:visible;fill:#fff;shape-rendering:crispEdges" x="76.511238" xml:space="preserve" y="14.787889"><tspan id="tspan209-4" fill="#fff" font-family="sans-serif" font-size="5" font-weight="bold" line-height="100%" x="76.511238" y="14.787889">ZLBM1</tspan></text><path id="path5180" d="m5.2130507 9.4714872l-.9182 3.4299998h1.89684v-3.4299998zm1.11864 0v3.4299998h1.89683l-.91806-3.4299998zm3.9200003 0v3.4299998h2.03v-3.4299998zm2.17 0v3.4299998h2.12502a2.1000006 2.1000006 0 0 0 -.72666-.4822 1.5750004 1.5750004 0 0 0  .80678-1.3728 1.5750004 1.5750004 0 0 0 -1.575-1.5749998 1.5750004 1.5750004 0 0 0 -.00014 0zm3.29 0v3.4299998h2.03v-3.4299998zm2.17 0v3.4299998h2.12502a2.1000006 2.1000006 0 0 0 -.72666-.4822 1.5750004 1.5750004 0 0 0  .80678-1.3728 1.5750004 1.5750004 0 0 0 -1.575-1.5749998 1.5750004 1.5750004 0 0 0 -.00014 0zm-13.6243003 3.5699998l-.9182 3.43h1.75l.37105-1.4h.73145v-2.03zm2.0743 0v2.03h.73158l.37092 1.4h1.75l-.91807-3.43zm3.9200003 0v3.43h2.03v-3.43zm2.17 0v3.43h.63a2.1000006 2.1000006 0 0 0  .00014 0 2.1000006 2.1000006 0 0 0  2.1-2.1 2.1000006 2.1000006 0 0 0 -.47838-1.33zm3.29 0v3.43h2.03v-3.43zm2.17 0v3.43h.63a2.1000006 2.1000006 0 0 0  .00014 0 2.1000006 2.1000006 0 0 0  2.1-2.1 2.1000006 2.1000006 0 0 0 -.47838-1.33z" fill="#fff" shape-rendering="crispEdges"/><rect id="rect4615" fill="#fff" fill-rule="evenodd" height="9" width="95" x="2.5000005" y="635.97162"/><text id="fuseText" line-height="125%" style="font-weight:bold;font-size:5;font-family:sans-serif;letter-spacing:0;word-spacing:0;shape-rendering:crispEdges" x="65.306526" xml:space="preserve" y="642.3421"><tspan id="tspan4519" x="42.136238" y="642.3421">NH1</tspan></text><rect id="rect4613" fill="#fff" fill-rule="evenodd" height="9" width="95" x="2.5000005" y="623.97162"/><rect id="rect4617" fill="#fff" fill-rule="evenodd" height="9" width="95" x="2.5000005" y="647.97162"/><rect id="rect4631" fill="none" height="35" stroke="#333" stroke-linecap="round" stroke-width=".5" width="74.5" x="12.749998" y="563.72162"/><rect id="rect4603" fill="#bb1e10" fill-rule="evenodd" height="9" width="74" x="12.999998" y="563.97162"/><path id="path4605" d="m17.213051 564.9715l-.9182 3.43h1.89684v-3.43zm1.11864 0v3.43h1.89683l-.91806-3.43zm3.92 0v3.43h2.03v-3.43zm2.17 0v3.43h2.12502a2.1000006 2.1000006 0 0 0 -.72666-.4822 1.5750004 1.5750004 0 0 0  .80678-1.3728 1.5750004 1.5750004 0 0 0 -1.575-1.575 1.5750004 1.5750004 0 0 0 -.00014 0zm3.29 0v3.43h2.03v-3.43zm2.17 0v3.43h2.12502a2.1000006 2.1000006 0 0 0 -.72666-.4822 1.5750004 1.5750004 0 0 0  .80678-1.3728 1.5750004 1.5750004 0 0 0 -1.575-1.575 1.5750004 1.5750004 0 0 0 -.00014 0zm-13.6243 3.57l-.9182 3.43h1.75l.37105-1.4h.73145v-2.03zm2.0743 0v2.03h.73158l.37092 1.4h1.75l-.91807-3.43zm3.92 0v3.43h2.03v-3.43zm2.17 0v3.43h.63a2.1000006 2.1000006 0 0 0  .00014 0 2.1000006 2.1000006 0 0 0  2.1-2.1 2.1000006 2.1000006 0 0 0 -.47838-1.33zm3.29 0v3.43h2.03v-3.43zm2.17 0v3.43h.63a2.1000006 2.1000006 0 0 0  .00014 0 2.1000006 2.1000006 0 0 0  2.1-2.1 2.1000006 2.1000006 0 0 0 -.47838-1.33z" fill="#fff"/><text id="fuseText_3" line-height="100%" style="font-weight:bold;font-size:5;font-family:sans-serif;letter-spacing:0;word-spacing:0;overflow:visible;fill:#fff;shape-rendering:crispEdges" x="64.511238" xml:space="preserve" y="570.28802"><tspan id="tspan4609" fill="#fff" font-family="sans-serif" font-size="5" font-weight="bold" line-height="100%" x="64.511238" y="570.28802">ZLBM1</tspan></text><path id="path4627" d="m17.099581 592.9715h28.5m-28.5-4h28.5m-28.5-4h28.5m-28.5-4h28.5m-28.5-4h28.5" fill="none" stroke="#fff" stroke-dasharray="2 2" stroke-linecap="round"/><rect id="rect4420" fill="#f0f0f0" height="60" stroke="#000" stroke-linecap="square" stroke-width=".49999994" width="4" x="8.550108" y="140.72151"/><rect id="rect4422" fill="#f0f0f0" height="60" stroke="#000" stroke-linecap="square" stroke-width=".49999994" width="4" x="87.149971" y="140.72151"/><path id="path4406" d="m25.315845 22.152487c0 0-3.381008.22698-4.492473.63726-2.292745.8464-3.682144 3.5509-3.682144 3.5509l-6.770871 16.81184h79.268843l-6.295753-16.81184c0 0-1.6242-2.82515-3.946752-3.66649-1.214203-.43986-3.59948-.52167-3.59948-.52167z" fill="#575d5b" fill-rule="evenodd" stroke="#000" stroke-linecap="square" stroke-width=".49999991"/><path id="path4428" d="m28.755057 48.353036c.905072-.519228 2.975017-.543115 2.975017-.543115h37.223011c.943498 0 1.501487.02504 2.231905.444054.635997.364928.924972.68597 1.08816 1.250959l7.343483 25.425367c0 0 2.52587 6.99432 3.052836 10.570322 3.911967 26.546697 1.517759 32.497587-.06842 80.179007-.000613.0184-.06842.0271-.06842.0271-2.134605.76232-4.32221 1.44926-6.554621 2.05825-2.232603.60947-4.507256 1.14022-6.815435 1.59019-2.30684.44971-4.644279.81824-7.003564 1.10414-2.359971.28527-4.738796.48755-7.12756.60608-1.691943.0841-3.387602.12613-5.083787.12596-2.394596-.00009-4.787688-.0842-7.170314-.25202-2.382286-.16787-4.751117-.4192-7.097632-.7531-2.346972-.33342-4.668716-.74899-6.956533-1.24514-2.288669-.49676-7.379543-1.36159-9.586076-2.01625-1.531457-.47396-1.691957-.94035-1.851371-2.10927-2.781935-20.39877-2.760156-64.02696.04703-79.314903.65582-3.571622 3.05711-10.588325 3.05711-10.588325l7.343494-25.40847c.163179-.564619.386051-.786108 1.021675-1.150776z" fill="#333" fill-rule="evenodd" stroke="#000" stroke-linecap="square" stroke-width=".5"/><ellipse id="ellipse4293" cx="21.362139" cy="133.62927" fill-rule="evenodd" rx="4.75" ry="4.875" stroke="#4d4d4d" stroke-linecap="round" stroke-width=".5"/><circle id="circle4295" cx="21.362139" cy="133.62929" r="3.25" style="fill:#333;fill-opacity:.8;fill-rule:evenodd;stroke:#333;stroke-width:.5;stroke-linecap:round"/><ellipse id="ellipse4309" cx="78.637779" cy="133.62927" fill-rule="evenodd" rx="4.75" ry="4.875" stroke="#4d4d4d" stroke-linecap="round" stroke-width=".5"/><rect id="rect4563" fill-rule="evenodd" height="50" rx="5" stroke="#4d4d4d" stroke-linecap="round" stroke-width=".5" width="50" x="24.999962" y="68.550034"/><ellipse id="ellipse4432" cx="49.999962" cy="163.94647" fill-rule="evenodd" rx="4.75" ry="4.875" stroke="#4d4d4d" stroke-linecap="round" stroke-width=".5"/><circle id="circle4447" cx="49.999962" cy="163.94649" r="3.25" style="fill:#333;fill-opacity:.8;fill-rule:evenodd;stroke:#333;stroke-width:.5;stroke-linecap:round"/><path id="path4449" d="m52.032893 163.9465h-4.06586m2.03293-2.03293v4.06586" fill="#666" fill-rule="evenodd" stroke="#666" stroke-width=".69999999"/><circle id="circle4311" cx="78.637779" cy="133.62929" r="3.25" style="fill:#333;fill-opacity:.8;fill-rule:evenodd;stroke:#333;stroke-width:.5;stroke-linecap:round"/><path id="path4313" d="m80.670713 133.62929h-4.06586m2.03293-2.03293v4.06586" fill="#666" fill-rule="evenodd" stroke="#666" stroke-width=".69999999"/><ellipse id="ellipse4301" cx="78.637779" cy="122.66911" fill-rule="evenodd" rx="4.75" ry="4.875" stroke="#4d4d4d" stroke-linecap="round" stroke-width=".5"/><circle id="circle4303" cx="78.637779" cy="122.66913" r="3.25" style="fill:#333;fill-opacity:.8;fill-rule:evenodd;stroke:#333;stroke-width:.5;stroke-linecap:round"/><path id="path4305" d="m80.670713 122.66914h-4.06586m2.03293-2.03293v4.06586" fill="#666" fill-rule="evenodd" stroke="#666" stroke-width=".69999999"/><path id="path4297" d="m23.395069 133.62929h-4.06586m2.03293-2.03293v4.06586" fill="#666" fill-rule="evenodd" stroke="#666" stroke-width=".69999999"/><ellipse id="ellipse4285" cx="21.362139" cy="122.66911" fill-rule="evenodd" rx="4.75" ry="4.875" stroke="#4d4d4d" stroke-linecap="round" stroke-width=".5"/><circle id="circle4287" cx="21.362139" cy="122.66913" r="3.25" style="fill:#333;fill-opacity:.8;fill-rule:evenodd;stroke:#333;stroke-width:.5;stroke-linecap:round"/><path id="path4289" d="m23.395069 122.66914h-4.06586m2.03293-2.03293v4.06586" fill="#666" fill-rule="evenodd" stroke="#666" stroke-width=".69999999"/><path id="path4276" d="m23.397084 29.266791c0 0-2.448499.216903-3.253113.609375-1.659768.809618-2.665364 3.396485-2.665364 3.396485l-6.596048 17.845703-2.632169 6.363281.121064 14.201172-.121064 10.724609v75.812504 11.72852c.07482.82885.32929 1.55222.497925 2.31054.108444.44698.249042.88912.41982 1.32618.170478.43687.372374.86841.603368 1.29101.231383.42296.49135.83777.781059 1.24219.290009.40421.609459.79807.954845 1.17969.344937.38154.716187.7503 1.11301 1.10547.396154.35495.817419.69443 1.26141 1.01953.444803.32544.911699.63549 1.40005.92773.488501.29197.995975.56643 1.523066.82227.525682.25632 1.069465.49313 1.628509.71093.560423.21688 1.136091.41381 1.724188.58985.588516.1772 1.18984.33419 1.800342.46875.608901.13431 1.226423.24739 1.851111.33789.625367.0895 1.257301.15647 1.892116.20117.635145.0453 1.271356.0683 1.90969.0684h.431535 43.915064.431535c.638332-.00003 1.274548-.0231 1.90969-.0684.634815-.0447 1.266751-.11164 1.892116-.20117.624691-.0905 1.242211-.20358 1.851112-.33789.610497-.13456 1.211832-.29155 1.800341-.46875.588102-.17604 1.16376-.37297 1.724188-.58985.559038-.2178 1.102832-.45461 1.62851-.71093.527089-.25584 1.03457-.5303 1.523065-.82227.488354-.29224.957195-.60229 1.402002-.92773.44399-.3251.863307-.66458 1.259459-1.01953.396824-.35517.770025-.72393 1.114962-1.10547.345386-.38162.662892-.77548.952892-1.17969.289715-.40442.549677-.81923.781059-1.24219.230996-.4226.432894-.85414.603368-1.29101.170782-.43706.311379-.8792.41982-1.32618.205567-.77511.36718-1.59001.497925-2.31054v-11.72852-75.812504l-.121063-10.724609.121063-14.201172-2.63217-6.363281-6.596047-17.845703c.000001 0-1.005599-2.586867-2.665364-3.396485-.804614-.392472-3.253112-.609375-3.253112-.609375h-.326093-52.551627zm7.814499 18.550782h37.576766c0-.000001 1.931982.02302 2.776666.513671.593216.344598.80052.554343.952893 1.087891 0 0 4.698863 18.524238 6.254332 28.009766.541658 3.303188.853308 10.005859.853308 10.005859l.644374 77.6504c.0036.43009-.04255.75671-.179643 1.02343-1.823885.64515-3.683451 1.23717-5.582622 1.76172-.772807.21361-1.556078.40657-2.339273.59961-.913724.17821-1.963174.37953-2.573591.51367-2.135199.46885-4.302181.86072-6.492556 1.17578-2.189966.31552-4.400056.55232-6.623384.71094-2.153001.15362-4.315186.22941-6.478887.23438-2.163705-.005-4.325881-.0808-6.478887-.23438-2.223325-.15862-4.433417-.39542-6.623384-.71094-2.190375-.31506-4.357361-.70693-6.492556-1.17578-.608993-.13383-1.65656-.33399-2.567733-.51172-.784756-.19338-1.5708-.38753-2.34513-.60156-1.899165-.52455-3.758733-1.11657-5.582623-1.76172-.137091-.26672-.183209-.59334-.179643-1.02343l.644374-77.6504c0 0 .311642-6.702671.853308-10.005859 1.555463-9.485528 6.254332-28.009766 6.254332-28.009766.152374-.533548.359678-.743293.952893-1.087891.84468-.490654 2.776666-.513672 2.776666-.513671z" fill="#f0f0f0" fill-rule="evenodd" stroke="#000" stroke-linecap="square" stroke-width=".5"/><path id="rect4385" d="m31.00039 48.699266c-1.108 0-2 .892-2 2v8c0 1.108.892 2 2 2h38c1.108 0 2-.892 2-2v-8c0-1.108-.892-2-2-2zm7 2h24c1.108 0 2 .892 2 2v4c0 1.108-.892 2-2 2h-24c-1.108 0-2-.892-2-2v-4c0-1.108.892-2 2-2z" fill="#f00" fill-rule="evenodd"/><rect id="rect4545" fill="#f0f0f0" height="60" stroke="#000" stroke-linecap="square" stroke-width=".49999994" width="4" x="8.550108" y="325.72165"/><rect id="rect4547" fill="#f0f0f0" height="60" stroke="#000" stroke-linecap="square" stroke-width=".49999994" width="4" x="87.149971" y="325.72165"/><path id="path4422" d="m25.315845 207.15264c0 0-3.381008.22698-4.492473.63726-2.292745.8464-3.682144 3.5509-3.682144 3.5509l-6.770871 16.81184h79.268843l-6.295753-16.81184c0 0-1.6242-2.82515-3.946752-3.66649-1.214203-.43986-3.59948-.52167-3.59948-.52167z" fill="#575d5b" fill-rule="evenodd" stroke="#000" stroke-linecap="square" stroke-width=".49999991"/><path id="path4424" d="m28.755057 233.35319c.905072-.51923 2.975017-.54312 2.975017-.54312h37.223011c.943498 0 1.501487.025 2.231905.44406.635997.36493.924972.68597 1.08816 1.25096l7.343483 25.42536c0 0 2.52587 6.99432 3.052836 10.57033 3.911967 26.54669 1.517759 32.49758-.06842 80.179-.000613.0184-.06842.0271-.06842.0271-2.134605.76232-4.32221 1.44926-6.554621 2.05825-2.232603.60947-4.507256 1.14022-6.815435 1.59019-2.30684.44971-4.644279.81824-7.003564 1.10414-2.359971.28527-4.738796.48755-7.12756.60608-1.691943.0841-3.387602.12613-5.083787.12596-2.394596-.00009-4.787688-.0842-7.170314-.25202-2.382286-.16787-4.751117-.4192-7.097632-.7531-2.346972-.33342-4.668716-.74899-6.956533-1.24514-2.288669-.49676-7.379543-1.36159-9.586076-2.01625-1.531457-.47396-1.691957-.94035-1.851371-2.10927-2.781935-20.39877-2.760156-64.02696.04703-79.3149.65582-3.57162 3.05711-10.58832 3.05711-10.58832l7.343494-25.40847c.163179-.56462.386051-.78611 1.021675-1.15078z" fill="#333" fill-rule="evenodd" stroke="#000" stroke-linecap="square" stroke-width=".5"/><rect id="rect4426" fill-rule="evenodd" height="50" rx="5" stroke="#4d4d4d" stroke-linecap="round" stroke-width=".5" width="50" x="24.999962" y="253.55019"/><ellipse id="ellipse4430" cx="49.999962" cy="348.94662" fill-rule="evenodd" rx="4.75" ry="4.875" stroke="#4d4d4d" stroke-linecap="round" stroke-width=".5"/><circle id="circle4432" cx="49.999962" cy="348.94666" r="3.25" style="fill:#333;fill-opacity:.8;fill-rule:evenodd;stroke:#333;stroke-width:.5;stroke-linecap:round"/><path id="path4434" d="m52.032893 348.94665h-4.06586m2.03293-2.03293v4.06586" fill="#666" fill-rule="evenodd" stroke="#666" stroke-width=".69999999"/><ellipse id="ellipse4440" cx="78.637779" cy="307.66928" fill-rule="evenodd" rx="4.75" ry="4.875" stroke="#4d4d4d" stroke-linecap="round" stroke-width=".5"/><circle id="circle4442" cx="78.637779" cy="307.66928" r="3.25" style="fill:#333;fill-opacity:.8;fill-rule:evenodd;stroke:#333;stroke-width:.5;stroke-linecap:round"/><path id="path4444" d="m80.670713 307.66929h-4.06586m2.03293-2.03293v4.06586" fill="#666" fill-rule="evenodd" stroke="#666" stroke-width=".69999999"/><ellipse id="ellipse4448" cx="21.362139" cy="307.66928" fill-rule="evenodd" rx="4.75" ry="4.875" stroke="#4d4d4d" stroke-linecap="round" stroke-width=".5"/><circle id="circle4450" cx="21.362139" cy="307.66928" r="3.25" style="fill:#333;fill-opacity:.8;fill-rule:evenodd;stroke:#333;stroke-width:.5;stroke-linecap:round"/><path id="path4452" d="m23.395069 307.66929h-4.06586m2.03293-2.03293v4.06586" fill="#666" fill-rule="evenodd" stroke="#666" stroke-width=".69999999"/><ellipse id="ellipse4456" cx="21.362139" cy="318.62943" fill-rule="evenodd" rx="4.75" ry="4.875" stroke="#4d4d4d" stroke-linecap="round" stroke-width=".5"/><circle id="circle4458" cx="21.362139" cy="318.62946" r="3.25" style="fill:#333;fill-opacity:.8;fill-rule:evenodd;stroke:#333;stroke-width:.5;stroke-linecap:round"/><path id="path4460" d="m23.395069 318.62945h-4.06586m2.03293-2.03293v4.06586" fill="#666" fill-rule="evenodd" stroke="#666" stroke-width=".69999999"/><ellipse id="ellipse4464" cx="78.637779" cy="318.62943" fill-rule="evenodd" rx="4.75" ry="4.875" stroke="#4d4d4d" stroke-linecap="round" stroke-width=".5"/><circle id="circle4466" cx="78.637779" cy="318.62946" r="3.25" style="fill:#333;fill-opacity:.8;fill-rule:evenodd;stroke:#333;stroke-width:.5;stroke-linecap:round"/><path id="path4468" d="m80.670713 318.62945h-4.06586m2.03293-2.03293v4.06586" fill="#666" fill-rule="evenodd" stroke="#666" stroke-width=".69999999"/><path id="path4436" d="m23.397084 214.26694c0 0-2.448499.21691-3.253113.60938-1.659768.80962-2.665364 3.39648-2.665364 3.39648l-6.596048 17.84571-2.632169 6.36328.121064 14.20117-.121064 10.72461v75.8125 11.72852c.07482.82885.32929 1.55222.497925 2.31054.108444.44698.249042.88912.41982 1.32618.170478.43687.372374.86841.603368 1.29101.231383.42296.49135.83777.781059 1.24219.290009.40421.609459.79807.954845 1.17969.344937.38154.716187.7503 1.11301 1.10547.396154.35495.817419.69443 1.26141 1.01953.444803.32544.911699.63549 1.40005.92773.488501.29197.995975.56643 1.523066.82227.525682.25632 1.069465.49313 1.628509.71093.560423.21688 1.136091.41381 1.724188.58985.588516.1772 1.18984.33419 1.800342.46875.608901.13431 1.226423.24739 1.851111.33789.625367.0895 1.257301.15647 1.892116.20117.635145.0453 1.271356.0683 1.90969.0684h.431535 43.915064.431535c.638332-.00003 1.274548-.0231 1.90969-.0684.634815-.0447 1.266751-.11164 1.892116-.20117.624691-.0905 1.242211-.20358 1.851112-.33789.610497-.13456 1.211832-.29155 1.800341-.46875.588102-.17604 1.16376-.37297 1.724188-.58985.559038-.2178 1.102832-.45461 1.62851-.71093.527089-.25584 1.03457-.5303 1.523065-.82227.488354-.29224.957195-.60229 1.402002-.92773.44399-.3251.863307-.66458 1.259459-1.01953.396824-.35517.770025-.72393 1.114962-1.10547.345386-.38162.662892-.77548.952892-1.17969.289715-.40442.549677-.81923.781059-1.24219.230996-.4226.432894-.85414.603368-1.29101.170782-.43706.311379-.8792.41982-1.32618.205567-.77511.36718-1.59001.497925-2.31054v-11.72852-75.8125l-.121063-10.72461.121063-14.20117-2.63217-6.36328-6.596047-17.84571c.000001 0-1.005599-2.58686-2.665364-3.39648-.804614-.39247-3.253112-.60938-3.253112-.60938h-.326093-52.551627zm7.814499 18.55079h37.576766c0-.00001 1.931982.023 2.776666.51367.593216.34459.80052.55434.952893 1.08789 0 0 4.698863 18.52424 6.254332 28.00976.541658 3.30319.853308 10.00586.853308 10.00586l.644374 77.6504c.0036.43009-.04255.75671-.179643 1.02343-1.823885.64515-3.683451 1.23717-5.582622 1.76172-.772807.21361-1.556078.40657-2.339273.59961-.913724.17821-1.963174.37953-2.573591.51367-2.135199.46885-4.302181.86072-6.492556 1.17578-2.189966.31552-4.400056.55232-6.623384.71094-2.153001.15362-4.315186.22941-6.478887.23438-2.163705-.005-4.325881-.0808-6.478887-.23438-2.223325-.15862-4.433417-.39542-6.623384-.71094-2.190375-.31506-4.357361-.70693-6.492556-1.17578-.608993-.13383-1.65656-.33399-2.567733-.51172-.784756-.19338-1.5708-.38753-2.34513-.60156-1.899165-.52455-3.758733-1.11657-5.582623-1.76172-.137091-.26672-.183209-.59334-.179643-1.02343l.644374-77.6504c0 0 .311642-6.70267.853308-10.00586 1.555463-9.48552 6.254332-28.00976 6.254332-28.00976.152374-.53355.359678-.7433.952893-1.08789.84468-.49066 2.776666-.51368 2.776666-.51367z" fill="#f0f0f0" fill-rule="evenodd" stroke="#000" stroke-linecap="square" stroke-width=".5"/><path id="path4472" d="m31.00039 233.69942c-1.108 0-2 .892-2 2v8c0 1.108.892 2 2 2h38c1.108 0 2-.892 2-2v-8c0-1.108-.892-2-2-2zm7 2h24c1.108 0 2 .892 2 2v4c0 1.108-.892 2-2 2h-24c-1.108 0-2-.892-2-2v-4c0-1.108.892-2 2-2z" fill="#f00" fill-rule="evenodd"/><rect id="rect4420-7" fill="#f0f0f0" height="60" shape-rendering="crispEdges" stroke="#000" stroke-linecap="square" stroke-width=".49999994" width="4" x="8.7000103" y="511.72165"/><rect id="rect4422-6" fill="#f0f0f0" height="60" shape-rendering="crispEdges" stroke="#000" stroke-linecap="square" stroke-width=".49999994" width="4" x="87.299934" y="511.72165"/><path id="path4476" d="m25.315845 393.15264c0 0-3.381008.22698-4.492473.63726-2.292745.8464-3.682144 3.5509-3.682144 3.5509l-6.770871 16.81184h79.268843l-6.295753-16.81184c0 0-1.6242-2.82515-3.946752-3.66649-1.214203-.43986-3.59948-.52167-3.59948-.52167z" fill="#575d5b" fill-rule="evenodd" stroke="#000" stroke-linecap="square" stroke-width=".49999991"/><path id="path4478" d="m28.755057 419.35319c.905072-.51923 2.975017-.54312 2.975017-.54312h37.223011c.943498 0 1.501487.025 2.231905.44406.635997.36493.924972.68597 1.08816 1.25096l7.343483 25.42536c0 0 2.52587 6.99432 3.052836 10.57033 3.911967 26.54669 1.517759 32.49758-.06842 80.179-.000613.0184-.06842.0271-.06842.0271-2.134605.76232-4.32221 1.44926-6.554621 2.05825-2.232603.60947-4.507256 1.14022-6.815435 1.59019-2.30684.44971-4.644279.81824-7.003564 1.10414-2.359971.28527-4.738796.48755-7.12756.60608-1.691943.0841-3.387602.12613-5.083787.12596-2.394596-.00009-4.787688-.0842-7.170314-.25202-2.382286-.16787-4.751117-.4192-7.097632-.7531-2.346972-.33342-4.668716-.74899-6.956533-1.24514-2.288669-.49676-7.379543-1.36159-9.586076-2.01625-1.531457-.47396-1.691957-.94035-1.851371-2.10927-2.781935-20.39877-2.760156-64.02696.04703-79.3149.65582-3.57162 3.05711-10.58832 3.05711-10.58832l7.343494-25.40847c.163179-.56462.386051-.78611 1.021675-1.15078z" fill="#333" fill-rule="evenodd" stroke="#000" stroke-linecap="square" stroke-width=".5"/><rect id="rect4480" fill-rule="evenodd" height="50" rx="5" stroke="#4d4d4d" stroke-linecap="round" stroke-width=".5" width="50" x="24.999962" y="439.5502"/><ellipse id="ellipse4484" cx="49.999962" cy="534.94666" fill-rule="evenodd" rx="4.75" ry="4.875" stroke="#4d4d4d" stroke-linecap="round" stroke-width=".5"/><circle id="circle4486" cx="49.999962" cy="534.94666" r="3.25" style="fill:#333;fill-opacity:.8;fill-rule:evenodd;stroke:#333;stroke-width:.5;stroke-linecap:round"/><path id="path4488" d="m52.032893 534.94665h-4.06586m2.03293-2.03293v4.06586" fill="#666" fill-rule="evenodd" stroke="#666" stroke-width=".69999999"/><ellipse id="ellipse4494" cx="78.637779" cy="493.66928" fill-rule="evenodd" rx="4.75" ry="4.875" stroke="#4d4d4d" stroke-linecap="round" stroke-width=".5"/><circle id="circle4496" cx="78.637779" cy="493.66928" r="3.25" style="fill:#333;fill-opacity:.8;fill-rule:evenodd;stroke:#333;stroke-width:.5;stroke-linecap:round"/><path id="path4498" d="m80.670713 493.66929h-4.06586m2.03293-2.03293v4.06586" fill="#666" fill-rule="evenodd" stroke="#666" stroke-width=".69999999"/><ellipse id="ellipse4502" cx="21.362139" cy="493.66928" fill-rule="evenodd" rx="4.75" ry="4.875" stroke="#4d4d4d" stroke-linecap="round" stroke-width=".5"/><circle id="circle4504" cx="21.362139" cy="493.66928" r="3.25" style="fill:#333;fill-opacity:.8;fill-rule:evenodd;stroke:#333;stroke-width:.5;stroke-linecap:round"/><path id="path4506" d="m23.395069 493.66929h-4.06586m2.03293-2.03293v4.06586" fill="#666" fill-rule="evenodd" stroke="#666" stroke-width=".69999999"/><ellipse id="ellipse4510" cx="21.362139" cy="504.62943" fill-rule="evenodd" rx="4.75" ry="4.875" stroke="#4d4d4d" stroke-linecap="round" stroke-width=".5"/><circle id="circle4512" cx="21.362139" cy="504.62946" r="3.25" style="fill:#333;fill-opacity:.8;fill-rule:evenodd;stroke:#333;stroke-width:.5;stroke-linecap:round"/><path id="path4514" d="m23.395069 504.62945h-4.06586m2.03293-2.03293v4.06586" fill="#666" fill-rule="evenodd" stroke="#666" stroke-width=".69999999"/><ellipse id="ellipse4518" cx="78.637779" cy="504.62943" fill-rule="evenodd" rx="4.75" ry="4.875" stroke="#4d4d4d" stroke-linecap="round" stroke-width=".5"/><circle id="circle4520" cx="78.637779" cy="504.62946" r="3.25" style="fill:#333;fill-opacity:.8;fill-rule:evenodd;stroke:#333;stroke-width:.5;stroke-linecap:round"/><path id="path4522" d="m80.670713 504.62945h-4.06586m2.03293-2.03293v4.06586" fill="#666" fill-rule="evenodd" stroke="#666" stroke-width=".69999999"/><path id="path4490" d="m23.397084 400.26694c0 0-2.448499.21691-3.253113.60938-1.659768.80962-2.665364 3.39648-2.665364 3.39648l-6.596048 17.84571-2.632169 6.36328.121064 14.20117-.121064 10.72461v75.8125 11.72852c.07482.82885.32929 1.55222.497925 2.31054.108444.44698.249042.88912.41982 1.32618.170478.43687.372374.86841.603368 1.29101.231383.42296.49135.83777.781059 1.24219.290009.40421.609459.79807.954845 1.17969.344937.38154.716187.7503 1.11301 1.10547.396154.35495.817419.69443 1.26141 1.01953.444803.32544.911699.63549 1.40005.92773.488501.29197.995975.56643 1.523066.82227.525682.25632 1.069465.49313 1.628509.71093.560423.21688 1.136091.41381 1.724188.58985.588516.1772 1.18984.33419 1.800342.46875.608901.13431 1.226423.24739 1.851111.33789.625367.0895 1.257301.15647 1.892116.20117.635145.0453 1.271356.0683 1.90969.0684h.431535 43.915064.431535c.638332-.00003 1.274548-.0231 1.90969-.0684.634815-.0447 1.266751-.11164 1.892116-.20117.624691-.0905 1.242211-.20358 1.851112-.33789.610497-.13456 1.211832-.29155 1.800341-.46875.588102-.17604 1.16376-.37297 1.724188-.58985.559038-.2178 1.102832-.45461 1.62851-.71093.527089-.25584 1.03457-.5303 1.523065-.82227.488354-.29224.957195-.60229 1.402002-.92773.44399-.3251.863307-.66458 1.259459-1.01953.396824-.35517.770025-.72393 1.114962-1.10547.345386-.38162.662892-.77548.952892-1.17969.289715-.40442.549677-.81923.781059-1.24219.230996-.4226.432894-.85414.603368-1.29101.170782-.43706.311379-.8792.41982-1.32618.205567-.77511.36718-1.59001.497925-2.31054v-11.72852-75.8125l-.121063-10.72461.121063-14.20117-2.63217-6.36328-6.596047-17.84571c.000001 0-1.005599-2.58686-2.665364-3.39648-.804614-.39247-3.253112-.60938-3.253112-.60938h-.326093-52.551627zm7.814499 18.55079h37.576766c0-.00001 1.931982.023 2.776666.51367.593216.34459.80052.55434.952893 1.08789 0 0 4.698863 18.52424 6.254332 28.00976.541658 3.30319.853308 10.00586.853308 10.00586l.644374 77.6504c.0036.43009-.04255.75671-.179643 1.02343-1.823885.64515-3.683451 1.23717-5.582622 1.76172-.772807.21361-1.556078.40657-2.339273.59961-.913724.17821-1.963174.37953-2.573591.51367-2.135199.46885-4.302181.86072-6.492556 1.17578-2.189966.31552-4.400056.55232-6.623384.71094-2.153001.15362-4.315186.22941-6.478887.23438-2.163705-.005-4.325881-.0808-6.478887-.23438-2.223325-.15862-4.433417-.39542-6.623384-.71094-2.190375-.31506-4.357361-.70693-6.492556-1.17578-.608993-.13383-1.65656-.33399-2.567733-.51172-.784756-.19338-1.5708-.38753-2.34513-.60156-1.899165-.52455-3.758733-1.11657-5.582623-1.76172-.137091-.26672-.183209-.59334-.179643-1.02343l.644374-77.6504c0 0 .311642-6.70267.853308-10.00586 1.555463-9.48552 6.254332-28.00976 6.254332-28.00976.152374-.53355.359678-.7433.952893-1.08789.84468-.49066 2.776666-.51368 2.776666-.51367z" fill="#f0f0f0" fill-rule="evenodd" stroke="#000" stroke-linecap="square" stroke-width=".5"/><path id="path4526" d="m31.00039 419.69942c-1.108 0-2 .892-2 2v8c0 1.108.892 2 2 2h38c1.108 0 2-.892 2-2v-8c0-1.108-.892-2-2-2zm7 2h24c1.108 0 2 .892 2 2v4c0 1.108-.892 2-2 2h-24c-1.108 0-2-.892-2-2v-4c0-1.108.892-2 2-2z" fill="#f00" fill-rule="evenodd"/></g><g id="P1" fill="#f0f0f0" fill-rule="evenodd" stroke="#000" stroke-width=".5"><path id="path4326" d="m19.75039 160.70738c-.343496-12.85089 1.004232-44.80462 1.377637-56.97835.01678-.55953.01475-1.18627.03281-1.73727.135019-2.049802.496147-4.057244 1.38887-5.858455 1.036479-2.091248 2.534338-3.97614 4.387842-5.557859 1.853503-1.581701 4.063296-2.862445 6.514148-3.747177 2.45087-.884714 5.144108-1.37343 7.972688-1.373716h17.310979c2.828995-.000179 5.525459.489199 7.97679 1.373716 2.451303.884535 4.656156 2.16544 6.510037 3.747177 1.853918 1.581755 3.355188 3.462889 4.391953 5.554369 1.028746 2.075357 1.589227 4.359935 1.597798 6.753315.000885.0331-.000857.0684 0 .10129.283845 10.80285 1.721883 39.86699 1.038448 57.72289m11.429971 0h .06959v-22.47423-4.47425-4.47423-4.47426-4.47425-4.47424-4.47425-4.47423l-.06959-.0769c1.191932-25.348898-14.576976-39.691405-25.98291-42.344527-.747575-.173947-6.353009-.251114-11.774629-.286637l-.02461-.02792c0 0-2.980207.01074-4.842614.01432-2.121495-.0036-5.514509-.01432-5.514509-.01432l-.03687.04188c-4.30783.04027-8.527869.115964-9.201754.27266-11.405907 2.653104-27.178904 16.99563-25.986984 42.344504l-.0655.077v4.47423 4.47425 4.47423 4.47425 4.47426 4.47423 4.47425 22.47424h.0655"/><path id="path4326-3" d="m19.750411 345.70755c-.34349-12.85089 1.00424-44.80462 1.37764-56.97835.0168-.55953.0147-1.18627.0328-1.73727.13502-2.0498.49615-4.05724 1.38887-5.85845 1.03648-2.09125 2.53434-3.97614 4.38784-5.55786 1.85351-1.5817 4.0633-2.86244 6.51415-3.74718 2.45087-.88471 5.14411-1.37343 7.97269-1.37371h17.31098c2.82899-.00018 5.52546.4892 7.97679 1.37371 2.4513.88454 4.65615 2.16544 6.51003 3.74718 1.85392 1.58176 3.35519 3.46289 4.39196 5.55437 1.02874 2.07536 1.58922 4.35993 1.59779 6.75331.00089.0331-.00085.0684 0 .10129.28385 10.80285 1.72189 39.86699 1.03845 57.72289m11.42997 0h .0696v-22.47423-4.47425-4.47423-4.47426-4.47425-4.47424-4.47425-4.47423l-.0696-.0769c1.19193-25.34889-14.57697-39.6914-25.9829-42.34452-.74758-.17395-6.35301-.25112-11.77463-.28664l-.0246-.0279c0 0-2.98021.0107-4.84262.0143-2.12149-.004-5.51451-.0143-5.51451-.0143l-.0369.0419c-4.30783.0403-8.52787.11597-9.20175.27266-11.40591 2.65311-27.1789003 16.99563-25.9869803 42.3445l-.0655.077v4.47423 4.47425 4.47423 4.47425 4.47426 4.47423 4.47425 22.47424h.0655" shape-rendering="crispEdges"/><path id="path4524" d="m19.75039 531.70753c-.343496-12.85089 1.004232-44.80462 1.377637-56.97835.01678-.55953.01475-1.18627.03281-1.73727.135019-2.0498.496147-4.05724 1.38887-5.85845 1.036479-2.09125 2.534338-3.97614 4.387842-5.55786 1.853503-1.5817 4.063296-2.86245 6.514148-3.74718 2.45087-.88471 5.144108-1.37343 7.972688-1.37371h17.310979c2.828995-.00018 5.525459.4892 7.97679 1.37371 2.451303.88454 4.656156 2.16544 6.510037 3.74718 1.853918 1.58175 3.355188 3.46289 4.391953 5.55437 1.028746 2.07536 1.589227 4.35993 1.597798 6.75331.000885.0331-.000857.0684 0 .10129.283845 10.80285 1.721883 39.86699 1.038448 57.72289m11.429971 0h .06959v-22.47423-4.47425-4.47423-4.47426-4.47425-4.47424-4.47425-4.47423l-.06959-.0769c1.191932-25.3489-14.576976-39.6914-25.98291-42.34452-.747575-.17395-6.353009-.25112-11.774629-.28664l-.02461-.0279c0 0-2.980207.0107-4.842614.0143-2.121495-.004-5.514509-.0143-5.514509-.0143l-.03687.0419c-4.30783.0403-8.527869.11596-9.201754.27266-11.405907 2.6531-27.178904 16.99563-25.986984 42.3445l-.0655.077v4.47423 4.47425 4.47423 4.47425 4.47426 4.47423 4.47425 22.47424h.0655"/></g><g id="P3" fill="#f0f0f0" stroke="#000"><rect id="rect4599" height="380.5" rx="1.85" ry="1" stroke-linecap="square" stroke-width=".49999994" width="7.4000001" x=".34997553" y="78.221497"/><rect id="rect4601" height="380.5" rx="1.85" ry="1" stroke-linecap="square" stroke-width=".49999991" width="7.4000001" x="92.250008" y="78.221497"/><path id="path4654" d="m19.750821 345.7076c-.3435-21.46432 1.00423-92.83534 1.37764-113.16863.0168-.93456.0148-1.98138.0328-2.90169.13501-3.42369.49614-6.77664 1.38887-9.78513 1.03647-3.49293 2.53433-6.64119 4.38784-9.28307 1.8535-2.64185 4.06329-4.78102 6.51415-6.25876 2.45087-1.4777 5.1441-2.29398 7.97268-2.29446h17.31098c2.829-.0003 5.52546.81709 7.97679 2.29446 2.45131 1.47741 4.65616 3.61685 6.51004 6.25876 1.85392 2.64194 3.35519 5.78392 4.39195 9.27724 1.02875 3.46638 1.58923 7.28222 1.5978 11.27978.00089.0553-.00086.11425 0 .16918.28385 18.04356 1.72188 84.58822 1.03845 114.4122m11.42997 0h .0696v-37.53779-7.47316-7.47313-7.47317-7.47316-7.47314-7.47316-7.47312l-.0696-.12845c1.19193-42.33923-14.57698-66.29493-25.98291-70.72633-.74758-.29054-6.35301-.41943-11.77463-.47876l-.0246-.0466c0 0-2.98021.0179-4.84261.0239-2.1215-.006-5.51451-.0239-5.51451-.0239l-.0369.07c-4.30783.0673-8.52787.19369-9.20176.45542-11.4059 4.43137-27.1789003 28.38711-25.9869803 70.7263l-.0655.12861v7.47312 7.47316 7.47312 7.47316 7.47318 7.47312 7.47316 37.53781h.0655" fill-rule="evenodd" stroke-width=".5"/></g></g></g></svg>