<?xml version="1.0" encoding="UTF-8" standalone="no"?>
<svg
   xmlns:dc="http://purl.org/dc/elements/1.1/"
   xmlns:cc="http://creativecommons.org/ns#"
   xmlns:rdf="http://www.w3.org/1999/02/22-rdf-syntax-ns#"
   xmlns:svg="http://www.w3.org/2000/svg"
   xmlns="http://www.w3.org/2000/svg"
   xmlns:sodipodi="http://sodipodi.sourceforge.net/DTD/sodipodi-0.dtd"
   xmlns:inkscape="http://www.inkscape.org/namespaces/inkscape"
   id="svg2"
   height="158.25"
   viewBox="0 0 750 158.25"
   width="750"
   version="1.1"
   sodipodi:docname="NH00_Busbars_double.svg"
   inkscape:version="0.92.2 (5c3e80d, 2017-08-06)">
  <metadata
     id="metadata111">
    <rdf:RDF>
      <cc:Work
         rdf:about="">
        <dc:format>image/svg+xml</dc:format>
        <dc:type
           rdf:resource="http://purl.org/dc/dcmitype/StillImage" />
        <dc:title></dc:title>
      </cc:Work>
    </rdf:RDF>
  </metadata>
  <defs
     id="defs109" />
  <sodipodi:namedview
     pagecolor="#ffffff"
     bordercolor="#666666"
     borderopacity="1"
     objecttolerance="10"
     gridtolerance="10"
     guidetolerance="10"
     inkscape:pageopacity="0"
     inkscape:pageshadow="2"
     inkscape:window-width="640"
     inkscape:window-height="480"
     id="namedview107"
     showgrid="false"
     inkscape:zoom="0.47342631"
     inkscape:cx="331.625"
     inkscape:cy="79.125"
     inkscape:window-x="0"
     inkscape:window-y="0"
     inkscape:window-maximized="0"
     inkscape:current-layer="svg2" />
  <g
     id="layer1"
     style="stroke:#000000">
    <g
       id="busbars_750">
      <path
         id="path4545-8"
         d="m 0,40.52 v 20 h 597 v -20 z"
         inkscape:connector-curvature="0"
         style="fill:#c6782e;stroke-width:0.49998999;stroke-linecap:round" />
      <path
         id="path4548-7"
         d="m 66,106.02 v 20 h 596.75 v -20 z"
         inkscape:connector-curvature="0"
         style="fill:#c6782e;stroke-width:0.49998;stroke-linecap:round" />
      <path
         id="path4550-6"
         d="m 33,73.52 v 20 h 597 v -20 z"
         inkscape:connector-curvature="0"
         style="fill:#c6782e;stroke-width:0.49998999;stroke-linecap:round" />
      <path
         id="path4552-6"
         d="M 0,0 V 158 H 20 V 0 Z m 10,3.04 c 2.75,0 4.98,2.23 4.98,4.98 v 4 C 14.98,14.77 12.75,17 10,17 7.25,17 5.019,14.77 5.019,12.02 v -4 C 5.019,5.27 7.25,3.04 10,3.04 Z m 0,138 c 2.75,0 4.98,2.23 4.98,4.98 v 4 c 0,2.75 -2.23,4.98 -4.98,4.98 -2.75,0 -4.981,-2.23 -4.981,-4.98 v -4 c 0,-2.75 2.231,-4.98 4.981,-4.98 z"
         inkscape:connector-curvature="0"
         style="fill:#c6782e;stroke-width:0.5;stroke-linecap:round" />
      <circle
         id="circle4554-7"
         cx="10"
         cy="50.52"
         r="4.5"
         style="fill:#e0e0e0;stroke-width:0.5;stroke-linejoin:bevel" />
      <path
         id="path4556-6"
         d="M 33,0 V 158 H 53 V 0 Z m 10,3.04 c 2.75,0 4.98,2.23 4.98,4.98 v 4 C 47.98,14.77 45.75,17 43,17 40.25,17 38.02,14.77 38.02,12.02 v -4 c 0,-2.75 2.23,-4.98 4.98,-4.98 z m 0,138 c 2.75,0 4.98,2.23 4.98,4.98 v 4 c 0,2.75 -2.23,4.98 -4.98,4.98 -2.75,0 -4.98,-2.23 -4.98,-4.98 v -4 c 0,-2.75 2.23,-4.98 4.98,-4.98 z"
         inkscape:connector-curvature="0"
         style="fill:#c6782e;stroke-width:0.5;stroke-linecap:round" />
      <circle
         id="circle4558-5"
         cx="43"
         cy="83.519997"
         r="4.5"
         style="fill:#e0e0e0;stroke-width:0.5;stroke-linejoin:bevel" />
      <path
         id="path4560-1"
         d="M 66,0 V 158 H 86 V 0 Z m 10,3.04 c 2.75,0 4.98,2.23 4.98,4.98 v 4 C 80.98,14.77 78.75,17 76,17 73.25,17 71.02,14.77 71.02,12.02 v -4 c 0,-2.75 2.23,-4.98 4.98,-4.98 z m 0,138 c 2.75,0 4.98,2.23 4.98,4.98 v 4 c 0,2.75 -2.23,4.98 -4.98,4.98 -2.75,0 -4.98,-2.23 -4.98,-4.98 v -4 c 0,-2.75 2.23,-4.98 4.98,-4.98 z"
         inkscape:connector-curvature="0"
         style="fill:#c6782e;stroke-width:0.5;stroke-linecap:round" />
      <circle
         id="circle4562-0"
         cx="76"
         cy="116.02"
         r="4.5"
         style="fill:#e0e0e0;stroke-width:0.5;stroke-linejoin:bevel" />
      <path
         id="path4564-6"
         d="m 107,0 v 158 h 20 V 0 Z m 10,3.04 c 2.75,0 4.98,2.23 4.98,4.98 v 4 c 0,2.75 -2.23,4.98 -4.98,4.98 -2.75,0 -4.98,-2.23 -4.98,-4.98 v -4 c 0,-2.75 2.23,-4.98 4.98,-4.98 z m 0,138 c 2.75,0 4.98,2.23 4.98,4.98 v 4 c 0,2.75 -2.23,4.98 -4.98,4.98 -2.75,0 -4.98,-2.23 -4.98,-4.98 v -4 c 0,-2.75 2.23,-4.98 4.98,-4.98 z"
         inkscape:connector-curvature="0"
         style="fill:#c6782e;stroke-width:0.5;stroke-linecap:round" />
      <circle
         id="circle4566-4"
         cx="117"
         cy="50.52"
         r="4.5"
         style="fill:#e0e0e0;stroke-width:0.5;stroke-linejoin:bevel" />
      <path
         id="path4568-9"
         d="m 140,0 v 158 h 20 V 0 Z m 10,3.04 c 2.75,0 4.98,2.23 4.98,4.98 v 4 c 0,2.75 -2.23,4.98 -4.98,4.98 -2.75,0 -4.98,-2.23 -4.98,-4.98 v -4 c 0,-2.75 2.23,-4.98 4.98,-4.98 z m 0,138 c 2.75,0 4.98,2.23 4.98,4.98 v 4 c 0,2.75 -2.23,4.98 -4.98,4.98 -2.75,0 -4.98,-2.23 -4.98,-4.98 v -4 c 0,-2.75 2.23,-4.98 4.98,-4.98 z"
         inkscape:connector-curvature="0"
         style="fill:#c6782e;stroke-width:0.5;stroke-linecap:round" />
      <circle
         id="circle4570-2"
         cx="150"
         cy="83.519997"
         r="4.5"
         style="fill:#e0e0e0;stroke-width:0.5;stroke-linejoin:bevel" />
      <path
         id="path4572-9"
         d="m 173,0 v 158 h 20 V 0 Z m 10,3.04 c 2.75,0 4.98,2.23 4.98,4.98 v 4 c 0,2.75 -2.23,4.98 -4.98,4.98 -2.75,0 -4.98,-2.23 -4.98,-4.98 v -4 c 0,-2.75 2.23,-4.98 4.98,-4.98 z m 0,138 c 2.75,0 4.98,2.23 4.98,4.98 v 4 c 0,2.75 -2.23,4.98 -4.98,4.98 -2.75,0 -4.98,-2.23 -4.98,-4.98 v -4 c 0,-2.75 2.23,-4.98 4.98,-4.98 z"
         inkscape:connector-curvature="0"
         style="fill:#c6782e;stroke-width:0.5;stroke-linecap:round" />
      <circle
         id="circle4574-7"
         cx="183"
         cy="116.02"
         r="4.5"
         style="fill:#e0e0e0;stroke-width:0.5;stroke-linejoin:bevel" />
      <path
         id="path938-0"
         d="m 577,0 v 158 h 20 V 0 Z m 10,3.04 c 2.75,0 4.98,2.23 4.98,4.98 v 4 c 0,2.75 -2.23,4.98 -4.98,4.98 -2.75,0 -4.98,-2.23 -4.98,-4.98 v -4 c 0,-2.75 2.23,-4.98 4.98,-4.98 z m 0,138 c 2.75,0 4.98,2.23 4.98,4.98 v 4 c 0,2.75 -2.23,4.98 -4.98,4.98 -2.75,0 -4.98,-2.23 -4.98,-4.98 v -4 c 0,-2.75 2.23,-4.98 4.98,-4.98 z"
         inkscape:connector-curvature="0"
         style="fill:#c6782e;stroke-width:0.5;stroke-linecap:round" />
      <circle
         id="circle940-1"
         cx="587"
         cy="50.52"
         r="4.5"
         style="fill:#e0e0e0;stroke-width:0.5;stroke-linejoin:bevel" />
      <path
         id="path942-1"
         d="m 610,0 v 158 h 20 V 0 Z m 10,3.04 c 2.75,0 4.98,2.23 4.98,4.98 v 4 c 0,2.75 -2.23,4.98 -4.98,4.98 -2.75,0 -4.98,-2.23 -4.98,-4.98 v -4 c 0,-2.75 2.23,-4.98 4.98,-4.98 z m 0,138 c 2.75,0 4.98,2.23 4.98,4.98 v 4 c 0,2.75 -2.23,4.98 -4.98,4.98 -2.75,0 -4.98,-2.23 -4.98,-4.98 v -4 c 0,-2.75 2.23,-4.98 4.98,-4.98 z"
         inkscape:connector-curvature="0"
         style="fill:#c6782e;stroke-width:0.5;stroke-linecap:round" />
      <circle
         id="circle944-1"
         cx="620"
         cy="83.519997"
         r="4.5"
         style="fill:#e0e0e0;stroke-width:0.5;stroke-linejoin:bevel" />
      <path
         id="path946-2"
         d="m 643,0 v 158 h 20 V 0 Z m 10,3.04 c 2.75,0 4.98,2.23 4.98,4.98 v 4 c 0,2.75 -2.23,4.98 -4.98,4.98 -2.75,0 -4.98,-2.23 -4.98,-4.98 v -4 c 0,-2.75 2.23,-4.98 4.98,-4.98 z m 0,138 c 2.75,0 4.98,2.23 4.98,4.98 v 4 c 0,2.75 -2.23,4.98 -4.98,4.98 -2.75,0 -4.98,-2.23 -4.98,-4.98 v -4 c 0,-2.75 2.23,-4.98 4.98,-4.98 z"
         inkscape:connector-curvature="0"
         style="fill:#c6782e;stroke-width:0.5;stroke-linecap:round" />
      <circle
         id="circle948-7"
         cx="653"
         cy="116.02"
         r="4.5"
         style="fill:#e0e0e0;stroke-width:0.5;stroke-linejoin:bevel" />
      <path
         id="path966-0"
         d="m 214,0 v 158 h 20 V 0 Z m 10,3.04 c 2.75,0 4.98,2.23 4.98,4.98 v 4 c 0,2.75 -2.23,4.98 -4.98,4.98 -2.75,0 -4.98,-2.23 -4.98,-4.98 v -4 c 0,-2.75 2.23,-4.98 4.98,-4.98 z m 0,138 c 2.75,0 4.98,2.23 4.98,4.98 v 4 c 0,2.75 -2.23,4.98 -4.98,4.98 -2.75,0 -4.98,-2.23 -4.98,-4.98 v -4 c 0,-2.75 2.23,-4.98 4.98,-4.98 z"
         inkscape:connector-curvature="0"
         style="fill:#c6782e;stroke-width:0.5;stroke-linecap:round" />
      <circle
         id="circle968-2"
         cx="224"
         cy="50.52"
         r="4.5"
         style="fill:#e0e0e0;stroke-width:0.5;stroke-linejoin:bevel" />
      <path
         id="path970-0"
         d="m 247,0 v 158 h 20 V 0 Z m 10,3.04 c 2.75,0 4.98,2.23 4.98,4.98 v 4 c 0,2.75 -2.23,4.98 -4.98,4.98 -2.75,0 -4.98,-2.23 -4.98,-4.98 v -4 c 0,-2.75 2.23,-4.98 4.98,-4.98 z m 0,138 c 2.75,0 4.98,2.23 4.98,4.98 v 4 c 0,2.75 -2.23,4.98 -4.98,4.98 -2.75,0 -4.98,-2.23 -4.98,-4.98 v -4 c 0,-2.75 2.23,-4.98 4.98,-4.98 z"
         inkscape:connector-curvature="0"
         style="fill:#c6782e;stroke-width:0.5;stroke-linecap:round" />
      <circle
         id="circle972-7"
         cx="257"
         cy="83.519997"
         r="4.5"
         style="fill:#e0e0e0;stroke-width:0.5;stroke-linejoin:bevel" />
      <path
         id="path974-8"
         d="m 280,0 v 158 h 20 V 0 Z m 10,3.04 c 2.75,0 4.98,2.23 4.98,4.98 v 4 c 0,2.75 -2.23,4.98 -4.98,4.98 -2.75,0 -4.98,-2.23 -4.98,-4.98 v -4 c 0,-2.75 2.23,-4.98 4.98,-4.98 z m 0,138 c 2.75,0 4.98,2.23 4.98,4.98 v 4 c 0,2.75 -2.23,4.98 -4.98,4.98 -2.75,0 -4.98,-2.23 -4.98,-4.98 v -4 c 0,-2.75 2.23,-4.98 4.98,-4.98 z"
         inkscape:connector-curvature="0"
         style="fill:#c6782e;stroke-width:0.5;stroke-linecap:round" />
      <circle
         id="circle976-1"
         cx="290"
         cy="116.02"
         r="4.5"
         style="fill:#e0e0e0;stroke-width:0.5;stroke-linejoin:bevel" />
      <path
         id="path998-6"
         d="m 470,0 v 158 h 20 V 0 Z m 10,3.04 c 2.75,0 4.98,2.23 4.98,4.98 v 4 c 0,2.75 -2.23,4.98 -4.98,4.98 -2.75,0 -4.98,-2.23 -4.98,-4.98 v -4 c 0,-2.75 2.23,-4.98 4.98,-4.98 z m 0,138 c 2.75,0 4.98,2.23 4.98,4.98 v 4 c 0,2.75 -2.23,4.98 -4.98,4.98 -2.75,0 -4.98,-2.23 -4.98,-4.98 v -4 c 0,-2.75 2.23,-4.98 4.98,-4.98 z"
         inkscape:connector-curvature="0"
         style="fill:#c6782e;stroke-width:0.5;stroke-linecap:round" />
      <circle
         id="circle1000-4"
         cx="480"
         cy="50.52"
         r="4.5"
         style="fill:#e0e0e0;stroke-width:0.5;stroke-linejoin:bevel" />
      <path
         id="path1002-2"
         d="m 503,0 v 158 h 20 V 0 Z m 10,3.04 c 2.75,0 4.98,2.23 4.98,4.98 v 4 c 0,2.75 -2.23,4.98 -4.98,4.98 -2.75,0 -4.98,-2.23 -4.98,-4.98 v -4 c 0,-2.75 2.23,-4.98 4.98,-4.98 z m 0,138 c 2.75,0 4.98,2.23 4.98,4.98 v 4 c 0,2.75 -2.23,4.98 -4.98,4.98 -2.75,0 -4.98,-2.23 -4.98,-4.98 v -4 c 0,-2.75 2.23,-4.98 4.98,-4.98 z"
         inkscape:connector-curvature="0"
         style="fill:#c6782e;stroke-width:0.5;stroke-linecap:round" />
      <circle
         id="circle1004-5"
         cx="513"
         cy="83.519997"
         r="4.5"
         style="fill:#e0e0e0;stroke-width:0.5;stroke-linejoin:bevel" />
      <path
         id="path1006-7"
         d="m 536,0 v 158 h 20 V 0 Z m 10,3.04 c 2.75,0 4.98,2.23 4.98,4.98 v 4 c 0,2.75 -2.23,4.98 -4.98,4.98 -2.75,0 -4.98,-2.23 -4.98,-4.98 v -4 c 0,-2.75 2.23,-4.98 4.98,-4.98 z m 0,138 c 2.75,0 4.98,2.23 4.98,4.98 v 4 c 0,2.75 -2.23,4.98 -4.98,4.98 -2.75,0 -4.98,-2.23 -4.98,-4.98 v -4 c 0,-2.75 2.23,-4.98 4.98,-4.98 z"
         inkscape:connector-curvature="0"
         style="fill:#c6782e;stroke-width:0.5;stroke-linecap:round" />
      <circle
         id="circle1008-3"
         cx="546"
         cy="116.02"
         r="4.5"
         style="fill:#e0e0e0;stroke-width:0.5;stroke-linejoin:bevel" />
      <path
         id="path1012-1"
         d="m 363,0 v 158 h 20 V 0 Z m 10,3.04 c 2.75,0 4.98,2.23 4.98,4.98 v 4 c 0,2.75 -2.23,4.98 -4.98,4.98 -2.75,0 -4.98,-2.23 -4.98,-4.98 v -4 c 0,-2.75 2.23,-4.98 4.98,-4.98 z m 0,138 c 2.75,0 4.98,2.23 4.98,4.98 v 4 c 0,2.75 -2.23,4.98 -4.98,4.98 -2.75,0 -4.98,-2.23 -4.98,-4.98 v -4 c 0,-2.75 2.23,-4.98 4.98,-4.98 z"
         inkscape:connector-curvature="0"
         style="fill:#c6782e;stroke-width:0.5;stroke-linecap:round" />
      <circle
         id="circle1014-3"
         cx="373"
         cy="50.52"
         r="4.5"
         style="fill:#e0e0e0;stroke-width:0.5;stroke-linejoin:bevel" />
      <path
         id="path1016-1"
         d="m 396,0 v 158 h 20 V 0 Z m 10,3.04 c 2.75,0 4.98,2.23 4.98,4.98 v 4 c 0,2.75 -2.23,4.98 -4.98,4.98 -2.75,0 -4.98,-2.23 -4.98,-4.98 v -4 c 0,-2.75 2.23,-4.98 4.98,-4.98 z m 0,138 c 2.75,0 4.98,2.23 4.98,4.98 v 4 c 0,2.75 -2.23,4.98 -4.98,4.98 -2.75,0 -4.98,-2.23 -4.98,-4.98 v -4 c 0,-2.75 2.23,-4.98 4.98,-4.98 z"
         inkscape:connector-curvature="0"
         style="fill:#c6782e;stroke-width:0.5;stroke-linecap:round" />
      <circle
         id="circle1018-7"
         cx="406"
         cy="83.519997"
         r="4.5"
         style="fill:#e0e0e0;stroke-width:0.5;stroke-linejoin:bevel" />
      <path
         id="path1020-9"
         d="m 429,0 v 158 h 20 V 0 Z m 10,3.04 c 2.75,0 4.98,2.23 4.98,4.98 v 4 c 0,2.75 -2.23,4.98 -4.98,4.98 -2.75,0 -4.98,-2.23 -4.98,-4.98 v -4 c 0,-2.75 2.23,-4.98 4.98,-4.98 z m 0,138 c 2.75,0 4.98,2.23 4.98,4.98 v 4 c 0,2.75 -2.23,4.98 -4.98,4.98 -2.75,0 -4.98,-2.23 -4.98,-4.98 v -4 c 0,-2.75 2.23,-4.98 4.98,-4.98 z"
         inkscape:connector-curvature="0"
         style="fill:#c6782e;stroke-width:0.5;stroke-linecap:round" />
      <circle
         id="circle1022-1"
         cx="439"
         cy="116.02"
         r="4.5"
         style="fill:#e0e0e0;stroke-width:0.5;stroke-linejoin:bevel" />
      <circle
         id="circle1065-8"
         cx="331.5"
         cy="116.02"
         r="4.5"
         style="fill:#e0e0e0;stroke-width:0.5;stroke-linejoin:bevel" />
      <circle
         id="circle1067-4"
         cx="331.5"
         cy="83.519997"
         r="4.5"
         style="fill:#e0e0e0;stroke-width:0.5;stroke-linejoin:bevel" />
      <circle
         id="circle1069-5"
         cx="331.5"
         cy="50.52"
         r="4.5"
         style="fill:#e0e0e0;stroke-width:0.5;stroke-linejoin:bevel" />
      <circle
         id="circle4834-6"
         cx="96"
         cy="83.519997"
         r="4.5"
         style="fill:#e0e0e0;stroke-width:0.5;stroke-linejoin:bevel" />
      <circle
         id="circle4836-9"
         cx="96"
         cy="50.52"
         r="4.5"
         style="fill:#e0e0e0;stroke-width:0.5;stroke-linejoin:bevel" />
      <circle
         id="circle4838-1"
         cx="567"
         cy="116.02"
         r="4.5"
         style="fill:#e0e0e0;stroke-width:0.5;stroke-linejoin:bevel" />
      <circle
         id="circle4840-9"
         cx="567"
         cy="83.519997"
         r="4.5"
         style="fill:#e0e0e0;stroke-width:0.5;stroke-linejoin:bevel" />
      <circle
         id="circle4842-7"
         cx="546"
         cy="50.52"
         r="4.5"
         style="fill:#e0e0e0;stroke-width:0.5;stroke-linejoin:bevel" />
      <circle
         id="circle1283"
         cx="567"
         cy="50.52"
         r="4.5"
         style="fill:#e0e0e0;stroke-width:0.5;stroke-linejoin:bevel" />
      <circle
         id="circle1285"
         cx="96"
         cy="116.02"
         r="4.5"
         style="fill:#e0e0e0;stroke-width:0.5;stroke-linejoin:bevel" />
    </g>
    <g
       id="busbars_500"
       style="stroke-width:0.5">
      <path
         id="rect5197"
         d="m 0,40.52 v 20 h 366.5 v -20 z"
         inkscape:connector-curvature="0"
         style="fill:#c6782e;stroke-linecap:round" />
      <path
         id="rect4943"
         d="m 66,106.02 v 20 h 366.5 v -20 z"
         inkscape:connector-curvature="0"
         style="fill:#c6782e;stroke-linecap:round" />
      <path
         id="rect5005"
         d="m 33,73.52 v 20 h 366.5 v -20 z"
         inkscape:connector-curvature="0"
         style="fill:#c6782e;stroke-linecap:round" />
      <path
         id="rect5233"
         d="M 0,0 V 158 H 20 V 0 Z m 10,3.0391 c 2.75,0 4.98,2.2304 4.98,4.9804 V 12.02 C 14.98,14.77 12.75,17 10,17 7.25,17 5.019,14.77 5.019,12.02 V 8.0195 C 5.019,5.2695 7.25,3.0391 10,3.0391 Z M 10,141.04 c 2.75,0 4.98,2.23 4.98,4.98 v 4 c 0,2.75 -2.23,4.98 -4.98,4.98 -2.75,0 -4.981,-2.23 -4.981,-4.98 v -4 c 0,-2.75 2.231,-4.98 4.981,-4.98 z"
         inkscape:connector-curvature="0"
         style="fill:#c6782e;stroke-linecap:round" />
      <circle
         id="circle5235"
         cx="10"
         cy="50.52"
         r="4.5"
         style="fill:#e0e0e0;stroke-linejoin:bevel" />
      <path
         id="rect5076"
         d="M 33,0 V 158 H 53 V 0 Z m 10,3.0391 c 2.75,0 4.98,2.2304 4.98,4.9804 V 12.02 C 47.98,14.77 45.75,17 43,17 40.25,17 38.02,14.77 38.02,12.02 V 8.0195 c 0,-2.75 2.23,-4.9804 4.98,-4.9804 z M 43,141.04 c 2.75,0 4.98,2.23 4.98,4.98 v 4 c 0,2.75 -2.23,4.98 -4.98,4.98 -2.75,0 -4.98,-2.23 -4.98,-4.98 v -4 c 0,-2.75 2.23,-4.98 4.98,-4.98 z"
         inkscape:connector-curvature="0"
         style="fill:#c6782e;stroke-linecap:round" />
      <circle
         id="circle5462"
         cx="43"
         cy="83.519997"
         r="4.5"
         style="fill:#e0e0e0;stroke-linejoin:bevel" />
      <path
         id="rect5096"
         d="M 66,0 V 158 H 86 V 0 Z m 10,3.0391 c 2.75,0 4.98,2.2304 4.98,4.9804 V 12.02 C 80.98,14.77 78.75,17 76,17 73.25,17 71.02,14.77 71.02,12.02 V 8.0195 c 0,-2.75 2.23,-4.9804 4.98,-4.9804 z M 76,141.04 c 2.75,0 4.98,2.23 4.98,4.98 v 4 c 0,2.75 -2.23,4.98 -4.98,4.98 -2.75,0 -4.98,-2.23 -4.98,-4.98 v -4 c 0,-2.75 2.23,-4.98 4.98,-4.98 z"
         inkscape:connector-curvature="0"
         style="fill:#c6782e;stroke-linecap:round" />
      <circle
         id="circle5468"
         cx="76"
         cy="116.02"
         r="4.5"
         style="fill:#e0e0e0;stroke-linejoin:bevel" />
      <path
         id="path5567"
         d="m 107,0 v 158 h 20 V 0 Z m 10,3.0391 c 2.75,0 4.98,2.2304 4.98,4.9804 V 12.02 c 0,2.75 -2.23,4.98 -4.98,4.98 -2.75,0 -4.98,-2.23 -4.98,-4.98 V 8.0195 c 0,-2.75 2.23,-4.9804 4.98,-4.9804 z m 0,138.0009 c 2.75,0 4.98,2.23 4.98,4.98 v 4 c 0,2.75 -2.23,4.98 -4.98,4.98 -2.75,0 -4.98,-2.23 -4.98,-4.98 v -4 c 0,-2.75 2.23,-4.98 4.98,-4.98 z"
         inkscape:connector-curvature="0"
         style="fill:#c6782e;stroke-linecap:round" />
      <circle
         id="circle5569"
         cx="117"
         cy="50.52"
         r="4.5"
         style="fill:#e0e0e0;stroke-linejoin:bevel" />
      <path
         id="path5573"
         d="m 140,0 v 158 h 20 V 0 Z m 10,3.0391 c 2.75,0 4.98,2.2304 4.98,4.9804 V 12.02 c 0,2.75 -2.23,4.98 -4.98,4.98 -2.75,0 -4.98,-2.23 -4.98,-4.98 V 8.0195 c 0,-2.75 2.23,-4.9804 4.98,-4.9804 z m 0,138.0009 c 2.75,0 4.98,2.23 4.98,4.98 v 4 c 0,2.75 -2.23,4.98 -4.98,4.98 -2.75,0 -4.98,-2.23 -4.98,-4.98 v -4 c 0,-2.75 2.23,-4.98 4.98,-4.98 z"
         inkscape:connector-curvature="0"
         style="fill:#c6782e;stroke-linecap:round" />
      <circle
         id="circle5575"
         cx="150"
         cy="83.519997"
         r="4.5"
         style="fill:#e0e0e0;stroke-linejoin:bevel" />
      <path
         id="path5579"
         d="m 173,0 v 158 h 20 V 0 Z m 10,3.0391 c 2.75,0 4.98,2.2304 4.98,4.9804 V 12.02 c 0,2.75 -2.23,4.98 -4.98,4.98 -2.75,0 -4.98,-2.23 -4.98,-4.98 V 8.0195 c 0,-2.75 2.23,-4.9804 4.98,-4.9804 z m 0,138.0009 c 2.75,0 4.98,2.23 4.98,4.98 v 4 c 0,2.75 -2.23,4.98 -4.98,4.98 -2.75,0 -4.98,-2.23 -4.98,-4.98 v -4 c 0,-2.75 2.23,-4.98 4.98,-4.98 z"
         inkscape:connector-curvature="0"
         style="fill:#c6782e;stroke-linecap:round" />
      <circle
         id="circle5581"
         cx="183"
         cy="116.02"
         r="4.5"
         style="fill:#e0e0e0;stroke-linejoin:bevel" />
      <path
         id="path5585"
         d="m 347,0 v 158 h 20 V 0 Z m 10,3.039 c 2.75,0 4.98,2.231 4.98,4.981 v 4 c 0,2.75 -2.23,4.98 -4.98,4.98 -2.75,0 -4.98,-2.23 -4.98,-4.98 v -4 c 0,-2.75 2.23,-4.981 4.98,-4.981 z m 0,138.001 c 2.75,0 4.98,2.23 4.98,4.98 v 4 c 0,2.75 -2.23,4.98 -4.98,4.98 -2.75,0 -4.98,-2.23 -4.98,-4.98 v -4 c 0,-2.75 2.23,-4.98 4.98,-4.98 z"
         inkscape:connector-curvature="0"
         style="fill:#c6782e;stroke-linecap:round" />
      <circle
         id="circle5587"
         cx="357"
         cy="50.52"
         r="4.5"
         style="fill:#e0e0e0;stroke-linejoin:bevel" />
      <path
         id="path5591"
         d="m 380,0 v 158 h 20 V 0 Z m 10,3.0391 c 2.75,0 4.98,2.2304 4.98,4.9804 V 12.02 c 0,2.75 -2.23,4.98 -4.98,4.98 -2.75,0 -4.98,-2.23 -4.98,-4.98 V 8.0195 c 0,-2.75 2.23,-4.9804 4.98,-4.9804 z m 0,138.0009 c 2.75,0 4.98,2.23 4.98,4.98 v 4 c 0,2.75 -2.23,4.98 -4.98,4.98 -2.75,0 -4.98,-2.23 -4.98,-4.98 v -4 c 0,-2.75 2.23,-4.98 4.98,-4.98 z"
         inkscape:connector-curvature="0"
         style="fill:#c6782e;stroke-linecap:round" />
      <circle
         id="circle5593"
         cx="390"
         cy="83.519997"
         r="4.5"
         style="fill:#e0e0e0;stroke-linejoin:bevel" />
      <path
         id="path5597"
         d="m 413,0 v 158 h 20 V 0 Z m 10,3.0391 c 2.75,0 4.98,2.2304 4.98,4.9804 V 12.02 c 0,2.75 -2.23,4.98 -4.98,4.98 -2.75,0 -4.98,-2.23 -4.98,-4.98 V 8.0195 c 0,-2.75 2.23,-4.9804 4.98,-4.9804 z m 0,138.0009 c 2.75,0 4.98,2.23 4.98,4.98 v 4 c 0,2.75 -2.23,4.98 -4.98,4.98 -2.75,0 -4.98,-2.23 -4.98,-4.98 v -4 c 0,-2.75 2.23,-4.98 4.98,-4.98 z"
         inkscape:connector-curvature="0"
         style="fill:#c6782e;stroke-linecap:round" />
      <circle
         id="circle5599"
         cx="423"
         cy="116.02"
         r="4.5"
         style="fill:#e0e0e0;stroke-linejoin:bevel" />
      <path
         id="path5603"
         d="m 240,0 v 158 h 20 V 0 Z m 10,3.0391 c 2.75,0 4.98,2.2304 4.98,4.9804 V 12.02 c 0,2.75 -2.23,4.98 -4.98,4.98 -2.75,0 -4.98,-2.23 -4.98,-4.98 V 8.0195 c 0,-2.75 2.23,-4.9804 4.98,-4.9804 z m 0,138.0009 c 2.75,0 4.98,2.23 4.98,4.98 v 4 c 0,2.75 -2.23,4.98 -4.98,4.98 -2.75,0 -4.98,-2.23 -4.98,-4.98 v -4 c 0,-2.75 2.23,-4.98 4.98,-4.98 z"
         inkscape:connector-curvature="0"
         style="fill:#c6782e;stroke-linecap:round" />
      <circle
         id="circle5605"
         cx="250"
         cy="50.52"
         r="4.5"
         style="fill:#e0e0e0;stroke-linejoin:bevel" />
      <path
         id="path5609"
         d="m 273,0 v 158 h 20 V 0 Z m 10,3.0391 c 2.75,0 4.98,2.2304 4.98,4.9804 V 12.02 c 0,2.75 -2.23,4.98 -4.98,4.98 -2.75,0 -4.98,-2.23 -4.98,-4.98 V 8.0195 c 0,-2.75 2.23,-4.9804 4.98,-4.9804 z m 0,138.0009 c 2.75,0 4.98,2.23 4.98,4.98 v 4 c 0,2.75 -2.23,4.98 -4.98,4.98 -2.75,0 -4.98,-2.23 -4.98,-4.98 v -4 c 0,-2.75 2.23,-4.98 4.98,-4.98 z"
         inkscape:connector-curvature="0"
         style="fill:#c6782e;stroke-linecap:round" />
      <circle
         id="circle5611"
         cx="283"
         cy="83.519997"
         r="4.5"
         style="fill:#e0e0e0;stroke-linejoin:bevel" />
      <path
         id="path5615"
         d="m 306,0 v 158 h 20 V 0 Z m 10,3.0391 c 2.75,0 4.98,2.2304 4.98,4.9804 V 12.02 c 0,2.75 -2.23,4.98 -4.98,4.98 -2.75,0 -4.98,-2.23 -4.98,-4.98 V 8.0195 c 0,-2.75 2.23,-4.9804 4.98,-4.9804 z m 0,138.0009 c 2.75,0 4.98,2.23 4.98,4.98 v 4 c 0,2.75 -2.23,4.98 -4.98,4.98 -2.75,0 -4.98,-2.23 -4.98,-4.98 v -4 c 0,-2.75 2.23,-4.98 4.98,-4.98 z"
         inkscape:connector-curvature="0"
         style="fill:#c6782e;stroke-linecap:round" />
      <circle
         id="circle5617"
         cx="316"
         cy="116.02"
         r="4.5"
         style="fill:#e0e0e0;stroke-linejoin:bevel" />
      <circle
         id="circle4743"
         cx="96"
         cy="116.02"
         r="4.5"
         style="fill:#e0e0e0;stroke-linejoin:bevel" />
      <circle
         id="circle4745"
         cx="96"
         cy="83.519997"
         r="4.5"
         style="fill:#e0e0e0;stroke-linejoin:bevel" />
      <circle
         id="circle4747"
         cx="96"
         cy="50.52"
         r="4.5"
         style="fill:#e0e0e0;stroke-linejoin:bevel" />
      <circle
         id="circle4749"
         cx="336"
         cy="116.02"
         r="4.5"
         style="fill:#e0e0e0;stroke-linejoin:bevel" />
      <circle
         id="circle4751"
         cx="336"
         cy="83.519997"
         r="4.5"
         style="fill:#e0e0e0;stroke-linejoin:bevel" />
      <circle
         id="circle4753"
         cx="336"
         cy="50.52"
         r="4.5"
         style="fill:#e0e0e0;stroke-linejoin:bevel" />
    </g>
    <g
       id="busbars_250"
       style="stroke-width:0.5">
      <path
         id="path4529"
         d="m 0,40.52 v 20 h 126.5 v -20 z"
         inkscape:connector-curvature="0"
         style="fill:#c6782e;stroke-linecap:round" />
      <path
         id="path4531"
         d="m 66,106.02 v 20 h 126.5 v -20 z"
         inkscape:connector-curvature="0"
         style="fill:#c6782e;stroke-linecap:round" />
      <path
         id="path4533"
         d="m 33,73.52 v 20 h 126.5 v -20 z"
         inkscape:connector-curvature="0"
         style="fill:#c6782e;stroke-linecap:round" />
      <path
         id="path4535"
         d="M 0,0 V 158 H 20 V 0 Z m 10,3.0391 c 2.75,0 4.98,2.2304 4.98,4.9804 V 12.02 C 14.98,14.77 12.75,17 10,17 7.25,17 5.0195,14.77 5.0195,12.02 V 8.0195 C 5.0195,5.2695 7.25,3.0391 10,3.0391 Z M 10,141.04 c 2.75,0 4.98,2.23 4.98,4.98 v 4 c 0,2.75 -2.23,4.98 -4.98,4.98 -2.75,0 -4.9805,-2.23 -4.9805,-4.98 v -4 c 0,-2.75 2.2305,-4.98 4.9805,-4.98 z"
         inkscape:connector-curvature="0"
         style="fill:#c6782e;stroke-linecap:round" />
      <circle
         id="circle4537"
         cx="10"
         cy="50.52"
         r="4.5"
         style="fill:#e0e0e0;stroke-linejoin:bevel" />
      <path
         id="path4539"
         d="M 33,0 V 158 H 53 V 0 Z m 10,3.0391 c 2.75,0 4.98,2.2304 4.98,4.9804 V 12.02 C 47.98,14.77 45.75,17 43,17 40.25,17 38.02,14.77 38.02,12.02 V 8.0195 c 0,-2.75 2.23,-4.9804 4.98,-4.9804 z M 43,141.04 c 2.75,0 4.98,2.23 4.98,4.98 v 4 c 0,2.75 -2.23,4.98 -4.98,4.98 -2.75,0 -4.98,-2.23 -4.98,-4.98 v -4 c 0,-2.75 2.23,-4.98 4.98,-4.98 z"
         inkscape:connector-curvature="0"
         style="fill:#c6782e;stroke-linecap:round" />
      <circle
         id="circle4541"
         cx="43"
         cy="83.519997"
         r="4.5"
         style="fill:#e0e0e0;stroke-linejoin:bevel" />
      <path
         id="path4543"
         d="M 66,0 V 158 H 86 V 0 Z m 10,3.0391 c 2.75,0 4.98,2.2304 4.98,4.9804 V 12.02 C 80.98,14.77 78.75,17 76,17 73.25,17 71.02,14.77 71.02,12.02 V 8.0195 c 0,-2.75 2.23,-4.9804 4.98,-4.9804 z M 76,141.04 c 2.75,0 4.98,2.23 4.98,4.98 v 4 c 0,2.75 -2.23,4.98 -4.98,4.98 -2.75,0 -4.98,-2.23 -4.98,-4.98 v -4 c 0,-2.75 2.23,-4.98 4.98,-4.98 z"
         inkscape:connector-curvature="0"
         style="fill:#c6782e;stroke-linecap:round" />
      <circle
         id="circle4545"
         cx="76"
         cy="116.02"
         r="4.5"
         style="fill:#e0e0e0;stroke-linejoin:bevel" />
      <path
         id="path4547"
         d="m 107,0 v 158 h 20 V 0 Z m 10,3.0391 c 2.75,0 4.98,2.2304 4.98,4.9804 V 12.02 c 0,2.75 -2.23,4.98 -4.98,4.98 -2.75,0 -4.98,-2.23 -4.98,-4.98 V 8.0195 c 0,-2.75 2.23,-4.9804 4.98,-4.9804 z m 0,138.0009 c 2.75,0 4.98,2.23 4.98,4.98 v 4 c 0,2.75 -2.23,4.98 -4.98,4.98 -2.75,0 -4.98,-2.23 -4.98,-4.98 v -4 c 0,-2.75 2.23,-4.98 4.98,-4.98 z"
         inkscape:connector-curvature="0"
         style="fill:#c6782e;stroke-linecap:round" />
      <circle
         id="circle4549"
         cx="117"
         cy="50.52"
         r="4.5"
         style="fill:#e0e0e0;stroke-linejoin:bevel" />
      <path
         id="path4551"
         d="m 140,0 v 158 h 20 V 0 Z m 10,3.0391 c 2.75,0 4.98,2.2304 4.98,4.9804 V 12.02 c 0,2.75 -2.23,4.98 -4.98,4.98 -2.75,0 -4.98,-2.23 -4.98,-4.98 V 8.0195 c 0,-2.75 2.23,-4.9804 4.98,-4.9804 z m 0,138.0009 c 2.75,0 4.98,2.23 4.98,4.98 v 4 c 0,2.75 -2.23,4.98 -4.98,4.98 -2.75,0 -4.98,-2.23 -4.98,-4.98 v -4 c 0,-2.75 2.23,-4.98 4.98,-4.98 z"
         inkscape:connector-curvature="0"
         style="fill:#c6782e;stroke-linecap:round" />
      <circle
         id="circle4553"
         cx="150"
         cy="83.519997"
         r="4.5"
         style="fill:#e0e0e0;stroke-linejoin:bevel" />
      <path
         id="path4555"
         d="m 173,0 v 158 h 20 V 0 Z m 10,3.0391 c 2.75,0 4.98,2.2304 4.98,4.9804 V 12.02 c 0,2.75 -2.23,4.98 -4.98,4.98 -2.75,0 -4.98,-2.23 -4.98,-4.98 V 8.0195 c 0,-2.75 2.23,-4.9804 4.98,-4.9804 z m 0,138.0009 c 2.75,0 4.98,2.23 4.98,4.98 v 4 c 0,2.75 -2.23,4.98 -4.98,4.98 -2.75,0 -4.98,-2.23 -4.98,-4.98 v -4 c 0,-2.75 2.23,-4.98 4.98,-4.98 z"
         inkscape:connector-curvature="0"
         style="fill:#c6782e;stroke-linecap:round" />
      <circle
         id="circle4557"
         cx="183"
         cy="116.02"
         r="4.5"
         style="fill:#e0e0e0;stroke-linejoin:bevel" />
      <circle
         id="circle4690"
         cx="96"
         cy="116.02"
         r="4.5"
         style="fill:#e0e0e0;stroke-linejoin:bevel" />
      <circle
         id="circle4692"
         cx="96"
         cy="83.519997"
         r="4.5"
         style="fill:#e0e0e0;stroke-linejoin:bevel" />
      <circle
         id="circle4694"
         cx="96"
         cy="50.52"
         r="4.5"
         style="fill:#e0e0e0;stroke-linejoin:bevel" />
    </g>
  </g>
</svg>
