<?xml version="1.0" encoding="UTF-8" standalone="no"?>
<svg
   xmlns:dc="http://purl.org/dc/elements/1.1/"
   xmlns:cc="http://creativecommons.org/ns#"
   xmlns:rdf="http://www.w3.org/1999/02/22-rdf-syntax-ns#"
   xmlns:svg="http://www.w3.org/2000/svg"
   xmlns="http://www.w3.org/2000/svg"
   xmlns:sodipodi="http://sodipodi.sourceforge.net/DTD/sodipodi-0.dtd"
   xmlns:inkscape="http://www.inkscape.org/namespaces/inkscape"
   id="svg2"
   height="128.25"
   viewBox="0 0 750 128.25"
   width="750"
   version="1.1"
   sodipodi:docname="NH1_Busbars_single.svg"
   inkscape:version="0.92.2 (5c3e80d, 2017-08-06)">
  <metadata
     id="metadata68">
    <rdf:RDF>
      <cc:Work
         rdf:about="">
        <dc:format>image/svg+xml</dc:format>
        <dc:type
           rdf:resource="http://purl.org/dc/dcmitype/StillImage" />
        <dc:title></dc:title>
      </cc:Work>
    </rdf:RDF>
  </metadata>
  <defs
     id="defs66" />
  <sodipodi:namedview
     pagecolor="#ffffff"
     bordercolor="#666666"
     borderopacity="1"
     objecttolerance="10"
     gridtolerance="10"
     guidetolerance="10"
     inkscape:pageopacity="0"
     inkscape:pageshadow="2"
     inkscape:window-width="640"
     inkscape:window-height="480"
     id="namedview64"
     showgrid="false"
     inkscape:zoom="0.50953347"
     inkscape:cx="308.125"
     inkscape:cy="64.125"
     inkscape:window-x="0"
     inkscape:window-y="0"
     inkscape:window-maximized="0"
     inkscape:current-layer="svg2" />
  <g
     id="layer1">
    <g
       id="busbars_750">
      <g
         id="L3_750">
        <path
           id="path4996"
           d="m 586,0 v 95 h 30 V 0 Z m 15,8.75 A 6.25,6.25 0 0 1 607.25,15 6.25,6.25 0 0 1 601,21.25 6.25,6.25 0 0 1 594.75,15 6.25,6.25 0 0 1 601,8.75 Z"
           inkscape:connector-curvature="0"
           style="fill:#c6782e;stroke:#000000;stroke-width:0.5;stroke-linecap:round" />
        <rect
           id="rect5002"
           height="45"
           width="30"
           x="586"
           y="50"
           style="fill:#c6782e;stroke:#000000;stroke-width:0.5;stroke-linecap:round" />
        <path
           id="path4921"
           d="m 126,0 v 95 h 30 V 0 Z m 15,8.75 A 6.25,6.25 0 0 1 147.25,15 6.25,6.25 0 0 1 141,21.25 6.25,6.25 0 0 1 134.75,15 6.25,6.25 0 0 1 141,8.75 Z"
           inkscape:connector-curvature="0"
           style="fill:#c6782e;stroke:#000000;stroke-width:0.5;stroke-linecap:round" />
        <path
           id="path4929"
           d="m 336,0 v 128 h 30 V 0 Z m 15,8.75 A 6.25,6.25 0 0 1 357.25,15 6.25,6.25 0 0 1 351,21.25 6.25,6.25 0 0 1 344.75,15 6.25,6.25 0 0 1 351,8.75 Z"
           inkscape:connector-curvature="0"
           style="fill:#c6782e;stroke:#000000;stroke-width:0.5;stroke-linecap:round" />
        <rect
           id="rect4931"
           height="78"
           width="30"
           x="336"
           y="50"
           style="fill:#c6782e;stroke:#000000;stroke-width:0.5;stroke-linecap:round" />
        <circle
           id="circle4933"
           cx="351"
           cy="113"
           r="5.5"
           style="fill:#e0e0e0;stroke:#000000;stroke-width:0.5;stroke-linejoin:bevel" />
        <rect
           id="rect4939"
           height="45"
           width="30"
           x="126"
           y="50"
           style="fill:#c6782e;stroke:#000000;stroke-width:0.5;stroke-linecap:round" />
        <rect
           id="rect5052"
           height="30"
           width="490"
           x="126"
           y="65"
           style="fill:#c6782e;stroke:#000000;stroke-width:0.5;stroke-linecap:round" />
        <circle
           id="circle5054"
           cx="601"
           cy="80"
           r="6.25"
           style="fill:#e0e0e0;stroke:#000000;stroke-width:0.5;stroke-linejoin:bevel" />
        <circle
           id="circle1162"
           cx="351"
           cy="80"
           r="6.25"
           style="fill:#e0e0e0;stroke:#000000;stroke-width:0.5;stroke-linejoin:bevel" />
        <circle
           id="circle1164"
           cx="141"
           cy="80"
           r="6.25"
           style="fill:#e0e0e0;stroke:#000000;stroke-width:0.5;stroke-linejoin:bevel" />
      </g>
      <g
         id="L2_750">
        <path
           id="path5000"
           d="m 523,0 v 95 h 30 V 0 Z m 15,8.75 A 6.25,6.25 0 0 1 544.25,15 6.25,6.25 0 0 1 538,21.25 6.25,6.25 0 0 1 531.75,15 6.25,6.25 0 0 1 538,8.75 Z"
           inkscape:connector-curvature="0"
           style="fill:#c6782e;stroke:#000000;stroke-width:0.5;stroke-linecap:round" />
        <rect
           id="rect5008"
           height="45"
           width="30"
           x="523"
           y="50"
           style="fill:#c6782e;stroke:#000000;stroke-width:0.5;stroke-linecap:round" />
        <path
           id="path4917"
           d="m 273,0 v 128 h 30 V 0 Z m 15,8.75 A 6.25,6.25 0 0 1 294.25,15 6.25,6.25 0 0 1 288,21.25 6.25,6.25 0 0 1 281.75,15 6.25,6.25 0 0 1 288,8.75 Z"
           inkscape:connector-curvature="0"
           style="fill:#c6782e;stroke:#000000;stroke-width:0.5;stroke-linecap:round" />
        <rect
           id="rect4919"
           height="78"
           width="30"
           x="273"
           y="50"
           style="fill:#c6782e;stroke:#000000;stroke-width:0.5;stroke-linecap:round" />
        <circle
           id="circle4927"
           cx="288"
           cy="113"
           r="5.5"
           style="fill:#e0e0e0;stroke:#000000;stroke-width:0.5;stroke-linejoin:bevel" />
        <path
           id="path4937"
           d="M 63,0 V 95 H 93 V 0 Z M 78,8.75 A 6.25,6.25 0 0 1 84.25,15 6.25,6.25 0 0 1 78,21.25 6.25,6.25 0 0 1 71.75,15 6.25,6.25 0 0 1 78,8.75 Z"
           inkscape:connector-curvature="0"
           style="fill:#c6782e;stroke:#000000;stroke-width:0.5;stroke-linecap:round" />
        <rect
           id="rect4947"
           height="45"
           width="30"
           x="63"
           y="50"
           style="fill:#c6782e;stroke:#000000;stroke-width:0.5;stroke-linecap:round" />
        <rect
           id="rect5026"
           height="30"
           width="490"
           x="63"
           y="65"
           style="fill:#c6782e;stroke:#000000;stroke-width:0.5;stroke-linecap:round" />
        <circle
           id="circle4955"
           cx="78"
           cy="80"
           r="6.25"
           style="fill:#e0e0e0;stroke:#000000;stroke-width:0.5;stroke-linejoin:bevel" />
        <circle
           id="circle5030"
           cx="538"
           cy="80"
           r="6.25"
           style="fill:#e0e0e0;stroke:#000000;stroke-width:0.5;stroke-linejoin:bevel" />
        <circle
           id="circle1147"
           cx="288"
           cy="80"
           r="6.25"
           style="fill:#e0e0e0;stroke:#000000;stroke-width:0.5;stroke-linejoin:bevel" />
      </g>
      <g
         id="L1_750">
        <path
           id="path4923"
           d="m 210,0 v 128 h 30 V 0 Z m 15,8.75 A 6.25,6.25 0 0 1 231.25,15 6.25,6.25 0 0 1 225,21.25 6.25,6.25 0 0 1 218.75,15 6.25,6.25 0 0 1 225,8.75 Z"
           inkscape:connector-curvature="0"
           style="fill:#c6782e;stroke:#000000;stroke-width:0.5;stroke-linecap:round" />
        <circle
           id="circle4925"
           cx="225"
           cy="113"
           r="5.5"
           style="fill:#e0e0e0;stroke:#000000;stroke-width:0.5;stroke-linejoin:bevel" />
        <path
           id="path4935"
           d="M 0,0 V 95 H 30 V 0 Z M 15,8.75 A 6.25,6.25 0 0 1 21.25,15 6.25,6.25 0 0 1 15,21.25 6.25,6.25 0 0 1 8.75,15 6.25,6.25 0 0 1 15,8.75 Z"
           inkscape:connector-curvature="0"
           style="fill:#c6782e;stroke:#000000;stroke-width:0.5;stroke-linecap:round" />
        <path
           id="path4998"
           d="m 460,0 v 95 h 30 V 0 Z m 15,8.75 A 6.25,6.25 0 0 1 481.25,15 6.25,6.25 0 0 1 475,21.25 6.25,6.25 0 0 1 468.75,15 6.25,6.25 0 0 1 475,8.75 Z"
           inkscape:connector-curvature="0"
           style="fill:#c6782e;stroke:#000000;stroke-width:0.5;stroke-linecap:round" />
        <rect
           id="rect4957"
           height="30"
           width="490"
           y="65"
           x="0"
           style="fill:#c6782e;stroke:#000000;stroke-width:0.5;stroke-linecap:round" />
        <circle
           id="circle4959"
           cx="15"
           cy="80"
           r="6.25"
           style="fill:#e0e0e0;stroke:#000000;stroke-width:0.5;stroke-linejoin:bevel" />
        <circle
           id="circle4961"
           cx="475"
           cy="80"
           r="6.25"
           style="fill:#e0e0e0;stroke:#000000;stroke-width:0.5;stroke-linejoin:bevel" />
        <circle
           id="circle4988"
           cx="225"
           cy="80"
           r="6.25"
           style="fill:#e0e0e0;stroke:#000000;stroke-width:0.5;stroke-linejoin:bevel" />
      </g>
    </g>
    <g
       id="busbars_500">
      <g
         id="L3_500">
        <path
           id="rect4862"
           d="m 336,0 v 95 h 30 V 0 Z m 15,8.75 A 6.25,6.25 0 0 1 357.25,15 6.25,6.25 0 0 1 351,21.25 6.25,6.25 0 0 1 344.75,15 6.25,6.25 0 0 1 351,8.75 Z"
           inkscape:connector-curvature="0"
           style="fill:#c6782e;stroke:#000000;stroke-width:0.5;stroke-linecap:round" />
        <path
           id="rect4810"
           d="m 126,0 v 128 h 30 V 0 Z m 15,8.75 A 6.25,6.25 0 0 1 147.25,15 6.25,6.25 0 0 1 141,21.25 6.25,6.25 0 0 1 134.75,15 6.25,6.25 0 0 1 141,8.75 Z"
           inkscape:connector-curvature="0"
           style="fill:#c6782e;stroke:#000000;stroke-width:0.5;stroke-linecap:round" />
        <rect
           id="rect4812"
           height="78"
           width="30"
           x="126"
           y="50"
           style="fill:#c6782e;stroke:#000000;stroke-width:0.5;stroke-linecap:round" />
        <circle
           id="circle4816"
           cx="141"
           cy="113"
           r="5.5"
           style="fill:#e0e0e0;stroke:#000000;stroke-width:0.5;stroke-linejoin:bevel" />
        <rect
           id="rect4864"
           height="45"
           width="30"
           x="336"
           y="50"
           style="fill:#c6782e;stroke:#000000;stroke-width:0.5;stroke-linecap:round" />
        <rect
           id="rect4846"
           height="30"
           width="240"
           x="126"
           y="65"
           style="fill:#c6782e;stroke:#000000;stroke-width:0.5;stroke-linecap:round" />
        <circle
           id="circle4850"
           cx="351"
           cy="80"
           r="6.25"
           style="fill:#e0e0e0;stroke:#000000;stroke-width:0.5;stroke-linejoin:bevel" />
        <circle
           id="circle4830"
           cx="141"
           cy="80"
           r="6.25"
           style="fill:#e0e0e0;stroke:#000000;stroke-width:0.5;stroke-linejoin:bevel" />
      </g>
      <g
         id="L2_500">
        <path
           id="rect4800"
           d="M 63,0 V 128 H 93 V 0 Z M 78,8.75 A 6.25,6.25 0 0 1 84.25,15 6.25,6.25 0 0 1 78,21.25 6.25,6.25 0 0 1 71.75,15 6.25,6.25 0 0 1 78,8.75 Z"
           inkscape:connector-curvature="0"
           style="fill:#c6782e;stroke:#000000;stroke-width:0.5;stroke-linecap:round" />
        <rect
           id="rect4808"
           height="78"
           width="30"
           x="63"
           y="50"
           style="fill:#c6782e;stroke:#000000;stroke-width:0.5;stroke-linecap:round" />
        <circle
           id="circle4802"
           cx="78"
           cy="113"
           r="5.5"
           style="fill:#e0e0e0;stroke:#000000;stroke-width:0.5;stroke-linejoin:bevel" />
        <path
           id="rect4860"
           d="m 273,0 v 95 h 30 V 0 Z m 15,8.75 A 6.25,6.25 0 0 1 294.25,15 6.25,6.25 0 0 1 288,21.25 6.25,6.25 0 0 1 281.75,15 6.25,6.25 0 0 1 288,8.75 Z"
           inkscape:connector-curvature="0"
           style="fill:#c6782e;stroke:#000000;stroke-width:0.5;stroke-linecap:round" />
        <rect
           id="rect4866"
           height="45"
           width="30"
           x="273"
           y="50"
           style="fill:#c6782e;stroke:#000000;stroke-width:0.5;stroke-linecap:round" />
        <rect
           id="rect4832"
           height="30"
           width="240"
           x="63"
           y="65"
           style="fill:#c6782e;stroke:#000000;stroke-width:0.5;stroke-linecap:round" />
        <circle
           id="circle4836"
           cx="288"
           cy="80"
           r="6.25"
           style="fill:#e0e0e0;stroke:#000000;stroke-width:0.5;stroke-linejoin:bevel" />
        <circle
           id="circle4844"
           cx="78"
           cy="80"
           r="6.25"
           style="fill:#e0e0e0;stroke:#000000;stroke-width:0.5;stroke-linejoin:bevel" />
      </g>
      <g
         id="L1_500">
        <path
           id="rect5518"
           d="M 0,0 V 128 H 30 V 0 Z M 15,8.75 A 6.25,6.25 0 0 1 21.25,15 6.25,6.25 0 0 1 15,21.25 6.25,6.25 0 0 1 8.75,15 6.25,6.25 0 0 1 15,8.75 Z"
           inkscape:connector-curvature="0"
           style="fill:#c6782e;stroke:#000000;stroke-width:0.5;stroke-linecap:round" />
        <circle
           id="circle4790"
           cx="15"
           cy="113"
           r="5.5"
           style="fill:#e0e0e0;stroke:#000000;stroke-width:0.5;stroke-linejoin:bevel" />
        <path
           id="rect4822"
           d="m 210,0 v 95 h 30 V 0 Z m 15,8.75 A 6.25,6.25 0 0 1 231.25,15 6.25,6.25 0 0 1 225,21.25 6.25,6.25 0 0 1 218.75,15 6.25,6.25 0 0 1 225,8.75 Z"
           inkscape:connector-curvature="0"
           style="fill:#c6782e;stroke:#000000;stroke-width:0.5;stroke-linecap:round" />
        <rect
           id="rect5514"
           height="30"
           width="240"
           y="65"
           x="0"
           style="fill:#c6782e;stroke:#000000;stroke-width:0.5;stroke-linecap:round" />
        <circle
           id="circle4798"
           cx="15"
           cy="80"
           r="6.25"
           style="fill:#e0e0e0;stroke:#000000;stroke-width:0.5;stroke-linejoin:bevel" />
        <circle
           id="circle4828"
           cx="225"
           cy="80"
           r="6.25"
           style="fill:#e0e0e0;stroke:#000000;stroke-width:0.5;stroke-linejoin:bevel" />
      </g>
    </g>
  </g>
</svg>
