<svg id="svg2" height="217.25" viewBox="0 0 630.25 217.25" width="630.25" xmlns="http://www.w3.org/2000/svg"><g id="layer1"><g id="busbars_750"><rect id="rect4818" fill="#c6782e" height="30" stroke="#000" stroke-linecap="round" stroke-width=".5" width="490" x="140" y="140"/><circle id="circle4826" cx="195" cy="155" fill="#e0e0e0" r="5.5" stroke="#000" stroke-linejoin="bevel" stroke-width=".5"/><circle id="circle4900" cx="425" cy="155" fill="#e0e0e0" r="5.5" stroke="#000" stroke-linejoin="bevel" stroke-width=".5"/><path id="rect5223" d="m600 0v217h30v-217zm14.75 12.75a6.25 6.25 0 0 1 6.25 6.25 6.25 6.25 0 0 1 -6.25 6.25 6.25 6.25 0 0 1 -6.25-6.25 6.25 6.25 0 0 1 6.25-6.25zm0 179a6.25 6.25 0 0 1 6.25 6.25 6.25 6.25 0 0 1 -6.25 6.25 6.25 6.25 0 0 1 -6.25-6.25 6.25 6.25 0 0 1 6.25-6.25z" fill="#c6782e" stroke="#000" stroke-linecap="round" stroke-width=".5"/><circle id="circle5229" cx="615" cy="155" fill="#e0e0e0" r="5.5" stroke="#000" stroke-linejoin="bevel" stroke-width=".5"/><rect id="rect4786" fill="#c6782e" height="30" stroke="#000" stroke-linecap="round" stroke-width=".5" width="490" x="70" y="97"/><circle id="circle4795" cx="190" cy="112" fill="#e0e0e0" r="5.5" stroke="#000" stroke-linejoin="bevel" stroke-width=".5"/><circle id="circle4816" cx="420" cy="112" fill="#e0e0e0" r="5.5" stroke="#000" stroke-linejoin="bevel" stroke-width=".5"/><path id="rect5213" d="m530 0v217h30v-217zm14.75 12.75a6.25 6.25 0 0 1 6.25 6.25 6.25 6.25 0 0 1 -6.25 6.25 6.25 6.25 0 0 1 -6.25-6.25 6.25 6.25 0 0 1 6.25-6.25zm0 179a6.25 6.25 0 0 1 6.25 6.25 6.25 6.25 0 0 1 -6.25 6.25 6.25 6.25 0 0 1 -6.25-6.25 6.25 6.25 0 0 1 6.25-6.25z" fill="#c6782e" stroke="#000" stroke-linecap="round" stroke-width=".5"/><circle id="circle5217" cx="545" cy="112" fill="#e0e0e0" r="5.5" stroke="#000" stroke-linejoin="bevel" stroke-width=".5"/><rect id="rect5514-8" fill="#c6782e" height="30" stroke="#000" stroke-linecap="round" stroke-width=".5" width="490" y="54"/><path id="rect5191" d="m350 0v217h30v-217zm14.75 12.75a6.25 6.25 0 0 1 6.25 6.25 6.25 6.25 0 0 1 -6.25 6.25 6.25 6.25 0 0 1 -6.25-6.25 6.25 6.25 0 0 1 6.25-6.25zm0 179a6.25 6.25 0 0 1 6.25 6.25 6.25 6.25 0 0 1 -6.25 6.25 6.25 6.25 0 0 1 -6.25-6.25 6.25 6.25 0 0 1 6.25-6.25z" fill="#c6782e" stroke="#000" stroke-linecap="round" stroke-width=".5"/><path id="rect5181" d="m280 0v217h30v-217zm14.75 12.75a6.25 6.25 0 0 1 6.25 6.25 6.25 6.25 0 0 1 -6.25 6.25 6.25 6.25 0 0 1 -6.25-6.25 6.25 6.25 0 0 1 6.25-6.25zm0 179a6.25 6.25 0 0 1 6.25 6.25 6.25 6.25 0 0 1 -6.25 6.25 6.25 6.25 0 0 1 -6.25-6.25 6.25 6.25 0 0 1 6.25-6.25z" fill="#c6782e" stroke="#000" stroke-linecap="round" stroke-width=".5"/><path id="rect4714" d="m139.75 0v217h30v-217zm14.75 12.75a6.25 6.25 0 0 1 6.25 6.25 6.25 6.25 0 0 1 -6.25 6.25 6.25 6.25 0 0 1 -6.25-6.25 6.25 6.25 0 0 1 6.25-6.25zm0 179a6.25 6.25 0 0 1 6.25 6.25 6.25 6.25 0 0 1 -6.25 6.25 6.25 6.25 0 0 1 -6.25-6.25 6.25 6.25 0 0 1 6.25-6.25z" fill="#c6782e" stroke="#000" stroke-linecap="round" stroke-width=".5"/><path id="rect4676" d="m70 0v217h30v-217zm14.75 12.75a6.25 6.25 0 0 1 6.25 6.25 6.25 6.25 0 0 1 -6.25 6.25 6.25 6.25 0 0 1 -6.25-6.25 6.25 6.25 0 0 1 6.25-6.25zm0 179a6.25 6.25 0 0 1 6.25 6.25 6.25 6.25 0 0 1 -6.25 6.25 6.25 6.25 0 0 1 -6.25-6.25 6.25 6.25 0 0 1 6.25-6.25z" fill="#c6782e" stroke="#000" stroke-linecap="round" stroke-width=".5"/><circle id="circle4777" cx="185" cy="69" fill="#e0e0e0" r="5.5" stroke="#000" stroke-linejoin="bevel" stroke-width=".5"/><circle id="circle4892" cx="415" cy="69" fill="#e0e0e0" r="5.5" stroke="#000" stroke-linejoin="bevel" stroke-width=".5"/><path id="rect4659" d="m0 0v217h30v-217zm14.75 12.75a6.25 6.25 0 0 1 6.25 6.25 6.25 6.25 0 0 1 -6.25 6.25 6.25 6.25 0 0 1 -6.25-6.25 6.25 6.25 0 0 1 6.25-6.25zm0 179a6.25 6.25 0 0 1 6.25 6.25 6.25 6.25 0 0 1 -6.25 6.25 6.25 6.25 0 0 1 -6.25-6.25 6.25 6.25 0 0 1 6.25-6.25z" fill="#c6782e" stroke="#000" stroke-linecap="round" stroke-width=".5"/><circle id="circle4790" cx="15" cy="69" fill="#e0e0e0" r="5.5" stroke="#000" stroke-linejoin="bevel" stroke-width=".5"/><path id="rect5171" d="m210 0v217h30v-217zm14.75 12.75a6.25 6.25 0 0 1 6.25 6.25 6.25 6.25 0 0 1 -6.25 6.25 6.25 6.25 0 0 1 -6.25-6.25 6.25 6.25 0 0 1 6.25-6.25zm0 179a6.25 6.25 0 0 1 6.25 6.25 6.25 6.25 0 0 1 -6.25 6.25 6.25 6.25 0 0 1 -6.25-6.25 6.25 6.25 0 0 1 6.25-6.25z" fill="#c6782e" stroke="#000" stroke-linecap="round" stroke-width=".5"/><circle id="circle5175" cx="225" cy="69" fill="#e0e0e0" r="5.5" stroke="#000" stroke-linejoin="bevel" stroke-width=".5"/><path id="rect5203" d="m460 0v217h30v-217zm14.75 12.75a6.25 6.25 0 0 1 6.25 6.25 6.25 6.25 0 0 1 -6.25 6.25 6.25 6.25 0 0 1 -6.25-6.25 6.25 6.25 0 0 1 6.25-6.25zm0 179a6.25 6.25 0 0 1 6.25 6.25 6.25 6.25 0 0 1 -6.25 6.25 6.25 6.25 0 0 1 -6.25-6.25 6.25 6.25 0 0 1 6.25-6.25z" fill="#c6782e" stroke="#000" stroke-linecap="round" stroke-width=".5"/><circle id="circle5207" cx="475" cy="69" fill="#e0e0e0" r="5.5" stroke="#000" stroke-linejoin="bevel" stroke-width=".5"/><circle id="circle5197" cx="365" cy="155" fill="#e0e0e0" r="5.5" stroke="#000" stroke-linejoin="bevel" stroke-width=".5"/><circle id="circle5185" cx="295" cy="112" fill="#e0e0e0" r="5.5" stroke="#000" stroke-linejoin="bevel" stroke-width=".5"/><circle id="circle4718" cx="154.75" cy="155" fill="#e0e0e0" r="5.5" stroke="#000" stroke-linejoin="bevel" stroke-width=".5"/><circle id="circle4680" cx="85" cy="112" fill="#e0e0e0" r="5.5" stroke="#000" stroke-linejoin="bevel" stroke-width=".5"/></g><g id="busbars_500"><rect id="rect4588" fill="#c6782e" height="30" stroke="#000" stroke-linecap="round" stroke-width=".5" width="240" x="140" y="140"/><circle id="circle4590" cx="195" cy="155" fill="#e0e0e0" r="5.5" stroke="#000" stroke-linejoin="bevel" stroke-width=".5"/><path id="path4663" d="m350 0v217h30v-217zm14.75 12.75a6.25 6.25 0 0 1 6.25 6.25 6.25 6.25 0 0 1 -6.25 6.25 6.25 6.25 0 0 1 -6.25-6.25 6.25 6.25 0 0 1 6.25-6.25zm0 179a6.25 6.25 0 0 1 6.25 6.25 6.25 6.25 0 0 1 -6.25 6.25 6.25 6.25 0 0 1 -6.25-6.25 6.25 6.25 0 0 1 6.25-6.25z" fill="#c6782e" stroke="#000" stroke-linecap="round" stroke-width=".5"/><circle id="circle4616" cx="365" cy="155" fill="#e0e0e0" r="5.5" stroke="#000" stroke-linejoin="bevel" stroke-width=".5"/><rect id="rect4582" fill="#c6782e" height="30" stroke="#000" stroke-linecap="round" stroke-width=".5" width="240" x="70" y="97"/><circle id="circle4584" cx="190" cy="112" fill="#e0e0e0" r="5.5" stroke="#000" stroke-linejoin="bevel" stroke-width=".5"/><path id="path4661" d="m280 0v217h30v-217zm14.75 12.75a6.25 6.25 0 0 1 6.25 6.25 6.25 6.25 0 0 1 -6.25 6.25 6.25 6.25 0 0 1 -6.25-6.25 6.25 6.25 0 0 1 6.25-6.25zm0 179a6.25 6.25 0 0 1 6.25 6.25 6.25 6.25 0 0 1 -6.25 6.25 6.25 6.25 0 0 1 -6.25-6.25 6.25 6.25 0 0 1 6.25-6.25z" fill="#c6782e" stroke="#000" stroke-linecap="round" stroke-width=".5"/><circle id="circle4612" cx="295" cy="112" fill="#e0e0e0" r="5.5" stroke="#000" stroke-linejoin="bevel" stroke-width=".5"/><rect id="rect4576" fill="#c6782e" height="30" stroke="#000" stroke-linecap="round" stroke-width=".5" width="240" y="54"/><path id="path4602" d="m140 0v217h30v-217zm14.75 12.75a6.25 6.25 0 0 1 6.25 6.25 6.25 6.25 0 0 1 -6.25 6.25 6.25 6.25 0 0 1 -6.25-6.25 6.25 6.25 0 0 1 6.25-6.25zm0 179a6.25 6.25 0 0 1 6.25 6.25 6.25 6.25 0 0 1 -6.25 6.25 6.25 6.25 0 0 1 -6.25-6.25 6.25 6.25 0 0 1 6.25-6.25z" fill="#c6782e" stroke="#000" stroke-linecap="round" stroke-width=".5"/><circle id="circle1032" cx="155" cy="155" fill="#e0e0e0" r="5.5" stroke="#000" stroke-linejoin="bevel" stroke-width=".5"/><path id="path4598" d="m70 0v217h30v-217zm14.75 12.75a6.25 6.25 0 0 1 6.25 6.25 6.25 6.25 0 0 1 -6.25 6.25 6.25 6.25 0 0 1 -6.25-6.25 6.25 6.25 0 0 1 6.25-6.25zm0 179a6.25 6.25 0 0 1 6.25 6.25 6.25 6.25 0 0 1 -6.25 6.25 6.25 6.25 0 0 1 -6.25-6.25 6.25 6.25 0 0 1 6.25-6.25z" fill="#c6782e" stroke="#000" stroke-linecap="round" stroke-width=".5"/><circle id="circle4600" cx="85" cy="112" fill="#e0e0e0" r="5.5" stroke="#000" stroke-linejoin="bevel" stroke-width=".5"/><circle id="circle4578" cx="185" cy="69" fill="#e0e0e0" r="5.5" stroke="#000" stroke-linejoin="bevel" stroke-width=".5"/><path id="path4594" d="m0 0v217h30v-217zm14.75 12.75a6.25 6.25 0 0 1 6.25 6.25 6.25 6.25 0 0 1 -6.25 6.25 6.25 6.25 0 0 1 -6.25-6.25 6.25 6.25 0 0 1 6.25-6.25zm0 179a6.25 6.25 0 0 1 6.25 6.25 6.25 6.25 0 0 1 -6.25 6.25 6.25 6.25 0 0 1 -6.25-6.25 6.25 6.25 0 0 1 6.25-6.25z" fill="#c6782e" stroke="#000" stroke-linecap="round" stroke-width=".5"/><circle id="circle4596" cx="15" cy="69" fill="#e0e0e0" r="5.5" stroke="#000" stroke-linejoin="bevel" stroke-width=".5"/><path id="path4659" d="m210 0v217h30v-217zm14.75 12.75a6.25 6.25 0 0 1 6.25 6.25 6.25 6.25 0 0 1 -6.25 6.25 6.25 6.25 0 0 1 -6.25-6.25 6.25 6.25 0 0 1 6.25-6.25zm0 179a6.25 6.25 0 0 1 6.25 6.25 6.25 6.25 0 0 1 -6.25 6.25 6.25 6.25 0 0 1 -6.25-6.25 6.25 6.25 0 0 1 6.25-6.25z" fill="#c6782e" stroke="#000" stroke-linecap="round" stroke-width=".5"/><circle id="circle4608" cx="225" cy="69" fill="#e0e0e0" r="5.5" stroke="#000" stroke-linejoin="bevel" stroke-width=".5"/></g><g id="busbars_250"><path id="path927" d="m140 0v217h30v-217zm14.75 12.75a6.25 6.25 0 0 1 6.25 6.25 6.25 6.25 0 0 1 -6.25 6.25 6.25 6.25 0 0 1 -6.25-6.25 6.25 6.25 0 0 1 6.25-6.25zm.25 136.75a5.5 5.5 0 0 1 5.5 5.5 5.5 5.5 0 0 1 -5.5 5.5 5.5 5.5 0 0 1 -5.5-5.5 5.5 5.5 0 0 1 5.5-5.5zm-.25 42.25a6.25 6.25 0 0 1 6.25 6.25 6.25 6.25 0 0 1 -6.25 6.25 6.25 6.25 0 0 1 -6.25-6.25 6.25 6.25 0 0 1 6.25-6.25z" fill="#c6782e" stroke="#000" stroke-linecap="round" stroke-width=".5"/><path id="path931" d="m70 0v217h30v-217zm14.75 12.75a6.25 6.25 0 0 1 6.25 6.25 6.25 6.25 0 0 1 -6.25 6.25 6.25 6.25 0 0 1 -6.25-6.25 6.25 6.25 0 0 1 6.25-6.25zm.25 93.75a5.5 5.5 0 0 1 5.5 5.5 5.5 5.5 0 0 1 -5.5 5.5 5.5 5.5 0 0 1 -5.5-5.5 5.5 5.5 0 0 1 5.5-5.5zm-.25 85.25a6.25 6.25 0 0 1 6.25 6.25 6.25 6.25 0 0 1 -6.25 6.25 6.25 6.25 0 0 1 -6.25-6.25 6.25 6.25 0 0 1 6.25-6.25z" fill="#c6782e" stroke="#000" stroke-linecap="round" stroke-width=".5"/><path id="path937" d="m0 0v217h30v-217zm14.75 12.75a6.25 6.25 0 0 1 6.25 6.25 6.25 6.25 0 0 1 -6.25 6.25 6.25 6.25 0 0 1 -6.25-6.25 6.25 6.25 0 0 1 6.25-6.25zm.25 50.75a5.5 5.5 0 0 1 5.5 5.5 5.5 5.5 0 0 1 -5.5 5.5 5.5 5.5 0 0 1 -5.5-5.5 5.5 5.5 0 0 1 5.5-5.5zm-.25 128.25a6.25 6.25 0 0 1 6.25 6.25 6.25 6.25 0 0 1 -6.25 6.25 6.25 6.25 0 0 1 -6.25-6.25 6.25 6.25 0 0 1 6.25-6.25z" fill="#c6782e" stroke="#000" stroke-linecap="round" stroke-width=".5"/></g></g></svg>