<svg id="svg2" height="150" viewBox="0 0 185 150" width="185" xmlns="http://www.w3.org/2000/svg"><g id="layer1"><rect id="breakerRear" fill="#a6a6a6" fill-rule="evenodd" height="100" stroke="#000" width="185" y="25"/><g id="block1"><path id="rect4157" d="m13 0v150h20v-150zm10 6a4 6 0 0 1 4 6 4 6 0 0 1 -4 6 4 6 0 0 1 -4-6 4 6 0 0 1 4-6zm0 126a4 6 0 0 1 4 6 4 6 0 0 1 -4 6 4 6 0 0 1 -4-6 4 6 0 0 1 4-6z" fill="#e0e0e0" fill-rule="evenodd" stroke="#000"/><rect id="rect4148" fill="#a6a6a6" fill-rule="evenodd" height="100" stroke="#000" width="35" x="5" y="25"/><rect id="rect4150" fill="none" height="34" stroke="#000" width="20" x="13" y="58"/><rect id="rect857" fill="none" height="10" stroke="#000" width="35" x="5" y="37"/><rect id="rect860" fill="none" height="10" stroke="#000" width="35" x="5" y="103"/></g><g id="block2"><path id="rect4152" d="m48 0v150h20v-150zm10 6a4 6 0 0 1 4 6 4 6 0 0 1 -4 6 4 6 0 0 1 -4-6 4 6 0 0 1 4-6zm0 126a4 6 0 0 1 4 6 4 6 0 0 1 -4 6 4 6 0 0 1 -4-6 4 6 0 0 1 4-6z" fill="#e0e0e0" fill-rule="evenodd" stroke="#000"/><rect id="rect4154" fill="#a6a6a6" fill-rule="evenodd" height="100" stroke="#000" width="35" x="40" y="25"/><rect id="rect4156" fill="none" height="34" stroke="#000" width="20" x="48" y="58"/><rect id="rect862" fill="none" height="10" stroke="#000" width="35" x="40" y="37"/><rect id="rect864" fill="none" height="10" stroke="#000" width="35" x="40" y="103"/></g><g id="rotaryGroup"><rect id="rect4135" fill="#a6a6a6" fill-rule="evenodd" height="100" stroke="#000" width="35" x="75" y="25"/><rect id="rect868" fill="none" height="10" stroke="#000" width="35" x="75" y="103"/><rect id="rect4137" fill="#c0c0c0" fill-rule="evenodd" height="6" stroke="#000" width="6" x="90" y="72"/><circle id="axle" cx="93" cy="75" fill="none" r="7" stroke="#000" stroke-linecap="round" stroke-linejoin="round"/><rect id="strip" fill="#f00" fill-rule="evenodd" height="10" stroke="#000" width="35" x="75" y="37"/></g><g id="block3"><path id="rect4164" d="m118 0v150h20v-150zm10 6a4 6 0 0 1 4 6 4 6 0 0 1 -4 6 4 6 0 0 1 -4-6 4 6 0 0 1 4-6zm0 126a4 6 0 0 1 4 6 4 6 0 0 1 -4 6 4 6 0 0 1 -4-6 4 6 0 0 1 4-6z" fill="#e0e0e0" fill-rule="evenodd" stroke="#000"/><rect id="rect4166" fill="#a6a6a6" fill-rule="evenodd" height="100" stroke="#000" width="35" x="110" y="25"/><rect id="rect4168" fill="none" height="34" stroke="#000" width="20" x="118" y="58"/><rect id="rect870" fill="none" height="10" stroke="#000" width="35" x="110" y="37"/><rect id="rect872" fill="none" height="10" stroke="#000" width="35" x="110" y="103"/></g><g id="block4"><path id="rect4176" d="m153 0v150h20v-150zm10 6a4 6 0 0 1 4 6 4 6 0 0 1 -4 6 4 6 0 0 1 -4-6 4 6 0 0 1 4-6zm0 126a4 6 0 0 1 4 6 4 6 0 0 1 -4 6 4 6 0 0 1 -4-6 4 6 0 0 1 4-6z" fill="#e0e0e0" fill-rule="evenodd" stroke="#000"/><rect id="rect4178" fill="#a6a6a6" fill-rule="evenodd" height="100" stroke="#000" width="35" x="145" y="25"/><rect id="rect4180" fill="none" height="34" stroke="#000" width="20" x="153" y="58"/><rect id="rect874" fill="none" height="10" stroke="#000" width="35" x="145" y="37"/><rect id="rect876" fill="none" height="10" stroke="#000" width="35" x="145" y="103"/></g></g></svg>