<svg id="svg2" height="130" viewBox="0 0 150 130" width="150" xmlns="http://www.w3.org/2000/svg"><g id="layer1"><rect id="breakerRear" fill="#a6a6a6" fill-rule="evenodd" height="110" stroke="#000" width="150" y="10"/><g id="rotaryGroup"><rect id="rect887" fill="#e0e0e0" fill-rule="evenodd" height="130" stroke="#000" stroke-width=".99995" width="27" x="9"/><rect id="rect4195" fill="#e0e0e0" fill-rule="evenodd" height="130" stroke="#000" width="2.2412" x="33.759"/><rect id="rect937" fill="#e0e0e0" fill-rule="evenodd" height="130" stroke="#000" width="2.2412" x="9"/><rect id="rect4135" fill="#a6a6a6" fill-rule="evenodd" height="110" stroke="#000" width="42" x=".193" y="10"/><rect id="strip" fill="#f00" fill-rule="evenodd" height="8" stroke="#000" stroke-width="1.00001" width="42" y="42"/><rect id="rect955" fill="#c0c0c0" fill-rule="evenodd" height="6" stroke="#000" width="6" x="18.193" y="62"/><circle id="circle957" cx="21.193" cy="65" fill="none" r="7" stroke="#000" stroke-linecap="round" stroke-linejoin="round"/></g><g id="block1"><rect id="rect1209" fill="#e0e0e0" fill-rule="evenodd" height="10" stroke="#000" stroke-width=".99997" width="27" x="42"/><rect id="rect1211" fill="none" height="25" stroke="#000" stroke-width="1.00001" width="18" x="46.5" y="52.5"/><rect id="rect1213" fill="none" height="24.985" stroke="#000" stroke-width="1.00001" width="20" x="45.5" y="95.015"/><circle id="circle1215" cx="55.5" cy="103.19" fill="#c4c4c4" fill-rule="evenodd" r="5" stroke="#000" stroke-linecap="round" stroke-linejoin="round"/><rect id="rect1217" fill="none" height="24.985" stroke="#000" stroke-width="1.00001" width="20" x="45.5" y="10"/><circle id="circle1219" cx="55.5" cy="27.193" fill="#c4c4c4" fill-rule="evenodd" r="5" stroke="#000" stroke-linecap="round" stroke-linejoin="round"/><rect id="rect1221" fill="#e0e0e0" fill-rule="evenodd" height="10" stroke="#000" stroke-width=".99997" width="27" x="42" y="120"/></g><g id="block2"><rect id="rect1193" fill="#e0e0e0" fill-rule="evenodd" height="10" stroke="#000" stroke-width=".99997" width="27" x="69"/><rect id="rect1195" fill="none" height="25" stroke="#000" stroke-width="1.00001" width="18" x="73.5" y="52.5"/><rect id="rect1197" fill="none" height="24.985" stroke="#000" stroke-width="1.00001" width="20" x="72.5" y="95.015"/><circle id="circle1199" cx="82.5" cy="103.19" fill="#c4c4c4" fill-rule="evenodd" r="5" stroke="#000" stroke-linecap="round" stroke-linejoin="round"/><rect id="rect1201" fill="none" height="24.985" stroke="#000" stroke-width="1.00001" width="20" x="72.5" y="10"/><circle id="circle1203" cx="82.5" cy="27.193" fill="#c4c4c4" fill-rule="evenodd" r="5" stroke="#000" stroke-linecap="round" stroke-linejoin="round"/><rect id="rect1205" fill="#e0e0e0" fill-rule="evenodd" height="10" stroke="#000" stroke-width=".99997" width="27" x="69" y="120"/></g><g id="block3"><rect id="rect1177" fill="#e0e0e0" fill-rule="evenodd" height="10" stroke="#000" stroke-width=".99997" width="27" x="96"/><rect id="rect1179" fill="none" height="25" stroke="#000" stroke-width="1.00001" width="18" x="100.5" y="52.5"/><rect id="rect1181" fill="none" height="24.985" stroke="#000" stroke-width="1.00001" width="20" x="99.5" y="95.015"/><circle id="circle1183" cx="109.5" cy="103.19" fill="#c4c4c4" fill-rule="evenodd" r="5" stroke="#000" stroke-linecap="round" stroke-linejoin="round"/><rect id="rect1185" fill="none" height="24.985" stroke="#000" stroke-width="1.00001" width="20" x="99.5" y="10"/><circle id="circle1187" cx="109.5" cy="27.193" fill="#c4c4c4" fill-rule="evenodd" r="5" stroke="#000" stroke-linecap="round" stroke-linejoin="round"/><rect id="rect1189" fill="#e0e0e0" fill-rule="evenodd" height="10" stroke="#000" stroke-width=".99997" width="27" x="96" y="120"/></g><g id="block4"><rect id="rect1117" fill="#e0e0e0" fill-rule="evenodd" height="10" stroke="#000" stroke-width=".99997" width="27" x="123"/><rect id="rect4189" fill="none" height="25" stroke="#000" stroke-width="1.00001" width="18" x="127.5" y="52.5"/><rect id="rect1123" fill="none" height="24.985" stroke="#000" stroke-width="1.00001" width="20" x="126.5" y="95.015"/><circle id="circle1125" cx="136.5" cy="103.19" fill="#c4c4c4" fill-rule="evenodd" r="5" stroke="#000" stroke-linecap="round" stroke-linejoin="round"/><rect id="rect1127" fill="none" height="24.985" stroke="#000" stroke-width="1.00001" width="20" x="126.5" y="10"/><circle id="circle1129" cx="136.5" cy="27.193" fill="#c4c4c4" fill-rule="evenodd" r="5" stroke="#000" stroke-linecap="round" stroke-linejoin="round"/><rect id="rect1150" fill="#e0e0e0" fill-rule="evenodd" height="10" stroke="#000" stroke-width=".99997" width="27" x="123" y="120"/></g><rect id="breakerFront" fill="none" height="45" stroke="#000" stroke-width="1.00002" width="150" y="42"/><rect id="handle" fill="#575d5e" fill-rule="evenodd" height="18" rx="9" stroke="#000" stroke-width="1.1" width="72" x="10" y="56"/></g></svg>