<svg id="svg2" height="186" viewBox="0 0 240 186" width="240" xmlns="http://www.w3.org/2000/svg"><g id="layer1"><rect id="breakerRear" fill="#a6a6a6" fill-rule="evenodd" height="120" stroke="#000" width="240" y="33"/><g id="block1"><path id="rect4176" d="m15 0v186h24v-186zm12 8a5 7 0 0 1 5 7 5 7 0 0 1 -5 7 5 7 0 0 1 -5-7 5 7 0 0 1 5-7zm0 155a5 7 0 0 1 5 7 5 7 0 0 1 -5 7 5 7 0 0 1 -5-7 5 7 0 0 1 5-7z" fill="#e0e0e0" fill-rule="evenodd" stroke="#000"/><rect id="rect4178" fill="#a6a6a6" fill-rule="evenodd" height="120" stroke="#000" width="44" x="5" y="33"/><rect id="rect4180" fill="none" height="40" stroke="#000" width="26" x="14" y="73"/><rect id="rect857" fill="none" height="13" stroke="#000" width="44" x="5" y="48"/><rect id="rect860" fill="none" height="13" stroke="#000" width="44" x="5" y="125"/></g><g id="block2"><path id="rect4191" d="m59 0v186h24v-186zm12 8a5 7 0 0 1 5 7 5 7 0 0 1 -5 7 5 7 0 0 1 -5-7 5 7 0 0 1 5-7zm0 155a5 7 0 0 1 5 7 5 7 0 0 1 -5 7 5 7 0 0 1 -5-7 5 7 0 0 1 5-7z" fill="#e0e0e0" fill-rule="evenodd" stroke="#000"/><rect id="rect4193" fill="#a6a6a6" fill-rule="evenodd" height="120" stroke="#000" width="44" x="49" y="33"/><rect id="rect4195" fill="none" height="40" stroke="#000" width="26" x="58" y="73"/><rect id="rect862" fill="none" height="13" stroke="#000" width="44" x="49" y="48"/><rect id="rect864" fill="none" height="13" stroke="#000" width="44" x="49" y="125"/></g><g id="rotaryGroup"><rect id="rect4135" fill="#a6a6a6" fill-rule="evenodd" height="120" stroke="#000" width="52" x="93" y="33"/><rect id="rect866" fill="none" height="13" stroke="#000" width="52" x="93" y="125"/><rect id="rect4137" fill="#c0c0c0" fill-rule="evenodd" height="6" stroke="#000" width="6" x="116" y="90"/><circle id="axle" cx="119" cy="93" fill="none" r="7" stroke="#000" stroke-linecap="round" stroke-linejoin="round"/><rect id="strip" fill="#f00" fill-rule="evenodd" height="13" stroke="#000" width="52" x="93" y="48"/></g><g id="block3"><path id="rect4215" d="m155 0v186h24v-186zm12 8a5 7 0 0 1 5 7 5 7 0 0 1 -5 7 5 7 0 0 1 -5-7 5 7 0 0 1 5-7zm0 155a5 7 0 0 1 5 7 5 7 0 0 1 -5 7 5 7 0 0 1 -5-7 5 7 0 0 1 5-7z" fill="#e0e0e0" fill-rule="evenodd" stroke="#000"/><rect id="rect4217" fill="#a6a6a6" fill-rule="evenodd" height="120" stroke="#000" width="44" x="145" y="33"/><rect id="rect4219" fill="none" height="40" stroke="#000" width="26" x="154" y="73"/><rect id="rect870" fill="none" height="13" stroke="#000" width="44" x="145" y="48"/><rect id="rect868" fill="none" height="13" stroke="#000" width="44" x="145" y="125"/></g><g id="block4"><path id="rect4239" d="m199 0v186h24v-186zm12 8a5 7 0 0 1 5 7 5 7 0 0 1 -5 7 5 7 0 0 1 -5-7 5 7 0 0 1 5-7zm0 155a5 7 0 0 1 5 7 5 7 0 0 1 -5 7 5 7 0 0 1 -5-7 5 7 0 0 1 5-7z" fill="#e0e0e0" fill-rule="evenodd" stroke="#000"/><rect id="rect4241" fill="#a6a6a6" fill-rule="evenodd" height="120" stroke="#000" width="44" x="189" y="33"/><rect id="rect4243" fill="none" height="40" stroke="#000" width="26" x="198" y="73"/><rect id="rect874" fill="none" height="13" stroke="#000" width="44" x="189" y="48"/><rect id="rect872" fill="none" height="13" stroke="#000" width="44" x="189" y="125"/></g></g></svg>