<svg id="svg2" height="250" viewBox="0 0 331 250" width="331" xmlns="http://www.w3.org/2000/svg"><g id="layer1"><rect id="breakerRear" fill="#a6a6a6" fill-rule="evenodd" height="160" stroke="#000" width="331" y="45"/><g id="block1"><path id="rect4176" d="m12 0v250h40v-250zm20 13a6 9 0 0 1 6 9 6 9 0 0 1 -6 9 6 9 0 0 1 -6-9 6 9 0 0 1 6-9zm0 206a6 9 0 0 1 6 9 6 9 0 0 1 -6 9 6 9 0 0 1 -6-9 6 9 0 0 1 6-9z" fill="#e0e0e0" fill-rule="evenodd" stroke="#000"/><rect id="rect4178" fill="#a6a6a6" fill-rule="evenodd" height="160" stroke="#000" width="65" y="45"/><rect id="rect4180" fill="none" height="60" stroke="#000" width="50" x="7" y="95"/><rect id="rect857" fill="none" height="13" stroke="#000" width="65" y="60"/><rect id="rect872" fill="none" height="13" stroke="#000" width="65" y="177"/></g><g id="block2"><path id="rect4187" d="m77 0v250h40v-250zm20 13a6 9 0 0 1 6 9 6 9 0 0 1 -6 9 6 9 0 0 1 -6-9 6 9 0 0 1 6-9zm0 206a6 9 0 0 1 6 9 6 9 0 0 1 -6 9 6 9 0 0 1 -6-9 6 9 0 0 1 6-9z" fill="#e0e0e0" fill-rule="evenodd" stroke="#000"/><rect id="rect4189" fill="#a6a6a6" fill-rule="evenodd" height="160" stroke="#000" width="65" x="65" y="45"/><rect id="rect4191" fill="none" height="60" stroke="#000" width="50" x="72" y="95"/><rect id="rect860" fill="none" height="13" stroke="#000" width="65" x="65" y="60"/><rect id="rect875" fill="none" height="13" stroke="#000" width="65" x="65" y="177"/></g><g id="rotaryGroup"><rect id="rect4135" fill="#a6a6a6" fill-rule="evenodd" height="160" stroke="#000" width="60" x="130" y="45"/><rect id="rect879" fill="none" height="13" stroke="#000" width="60" x="130" y="177"/><rect id="strip" fill="#f00" fill-rule="evenodd" height="13" stroke="#000" width="60" x="130" y="60"/><rect id="rect4137" fill="#c0c0c0" fill-rule="evenodd" height="6" stroke="#000" width="6" x="157" y="122"/><circle id="axle" cx="160" cy="125" fill="none" r="7" stroke="#000" stroke-linecap="round" stroke-linejoin="round"/></g><g id="block3"><path id="rect4231" d="m202 0v250h40v-250zm20 13a6 9 0 0 1 6 9 6 9 0 0 1 -6 9 6 9 0 0 1 -6-9 6 9 0 0 1 6-9zm0 206a6 9 0 0 1 6 9 6 9 0 0 1 -6 9 6 9 0 0 1 -6-9 6 9 0 0 1 6-9z" fill="#e0e0e0" fill-rule="evenodd" stroke="#000"/><rect id="rect4233" fill="#a6a6a6" fill-rule="evenodd" height="160" stroke="#000" width="65" x="190" y="45"/><rect id="rect4235" fill="none" height="60" stroke="#000" width="50" x="197" y="95"/><rect id="rect862" fill="none" height="13" stroke="#000" width="65" x="190" y="60"/><rect id="rect877" fill="none" height="13" stroke="#000" width="65" x="190" y="177"/></g><g id="block4"><path id="rect4267" d="m267 0v250h40v-250zm20 13a6 9 0 0 1 6 9 6 9 0 0 1 -6 9 6 9 0 0 1 -6-9 6 9 0 0 1 6-9zm0 206a6 9 0 0 1 6 9 6 9 0 0 1 -6 9 6 9 0 0 1 -6-9 6 9 0 0 1 6-9z" fill="#e0e0e0" fill-rule="evenodd" stroke="#000"/><rect id="rect4269" fill="#a6a6a6" fill-rule="evenodd" height="160" stroke="#000" width="65" x="255" y="45"/><rect id="rect4271" fill="none" height="60" stroke="#000" width="50" x="262" y="95"/><rect id="rect870" fill="none" height="13" stroke="#000" width="65" x="255" y="60"/><rect id="rect881" fill="none" height="13" stroke="#000" width="65" x="255" y="177"/></g></g></svg>