<svg id="svg2" height="305" shape-rendering="crispEdges" viewBox="0 0 212 305" width="212" xmlns="http://www.w3.org/2000/svg" xmlns:xlink="http://www.w3.org/1999/xlink"><clipPath id="a"><path id="path1146" d="m65.75 51.9v91.2h10v5h91v-32.13h-12.6v-7h12.6v-57.07z" shape-rendering="crispEdges"/></clipPath><clipPath id="b"><path id="path1214" d="m64.15 53.9v93.7h104.19v-93.7zm6.1 1.46h18.02v86h-18.02zm30.5 1.61h24v45h-24zm31 0h24v45h-24zm-27.75 56.78h17.5c.27 0 .5.22.5.5v7.5c0 .28-.23.5-.5.5h-17.5c-.28 0-.5-.22-.5-.5v-7.5c0-.28.22-.5.5-.5z" shape-rendering="crispEdges"/></clipPath><clipPath id="c"><path id="path4836" d="m64.15 54.9v66.35h19.6v7.5h-19.6v18.85h104.2v-18.85h-19.6v-7.5h19.6v-66.35zm23.1 23.41h58v18h-58zm0 35.35h58v9h-58z" shape-rendering="crispEdges"/></clipPath><g id="layer1"><g id="operationGroup"><rect id="rect19" fill="#575d5e" fill-rule="evenodd" height="120" stroke="#333" stroke-linecap="square" stroke-width=".8" width="26" x="186" y="35"/><circle id="circle21" cx="199" cy="112" fill="#575d5e" r="6" stroke="#333" stroke-linecap="square" stroke-width=".8"/></g><rect id="breakerRear" fill="#575d5e" fill-rule="evenodd" height="305" stroke="#333" stroke-width=".8" width="186"/><g id="rotaryDriveAxle"><rect id="rect115" fill="#575d5e" height="105.5" shape-rendering="crispEdges" stroke="#333" stroke-width=".8" width="105" x="63.75" y="43"/><g id="g1127"><circle id="circle119" cx="95.35" cy="85.7" fill="#c5c7c4" r="15" shape-rendering="crispEdges" stroke="#000" stroke-width=".5"/><circle id="circle121" cx="95.35" cy="85.7" r="8" shape-rendering="crispEdges"/><rect id="rect123" fill="#e6e6e6" height="6" shape-rendering="crispEdges" width="6" x="92.35" y="82.7"/></g></g><g id="rotaryDrive"><rect id="rect127" fill="#575d5e" height="105.5" shape-rendering="crispEdges" stroke="#333" stroke-width=".8" width="105" x="63.75" y="43"/><path id="path129" d="m167.91 99.88h-52.5m52.5 1.5h-52.5m52.5 1.5h-52.5m52.5 1.5h-52.5m52.5 1.5h-52.5m52.5 1.5h-52.5m52.5 1.5h-52.5m52.5 1.5h-52.5m52.5 1.5h-52.5m52.5 1.5h-52.5m52.5 1.5h-52.5m52.5 1.5h-52.5m52.5 1.5h-52.5m52.5 1.5h-52.5m52.5 1.5h-52.5m52.5 1.5h-52.5m52.5 1.5h-52.5m52.5 1.5h-52.5m52.5 1.5h-52.5m52.5 1.5h-52.5m52.5 1.5h-52.5m52.5 1.5h-52.5m52.5 1.5h-52.5m52.5 1.5h-52.5m52.5 1.5h-52.5m52.5 1.5h-52.5m52.5 1.5h-52.5m52.5 1.5h-52.5m52.5 1.5h-52.5m52.5 1.5h-52.5m52.5 1.5h-52.5m52.5 1.5h-52.5m52.5 1.5h-52.5m52.5.5h-52.5m52.25-48.25v48m-52-48v48m1.5-48v48m1.5-48v48m1.5-48v48m1.5-48v48m1.5-48v48m1.5-48v48m1.5-48v48m1.5-48v48m1.5-48v48m1.5-48v48m1.5-48v48m1.5-48v48m1.5-48v48m1.5-48v48m1.5-48v48m1.5-48v48m1.5-48v48m1.5-48v48m1.5-48v48m1.5-48v48m1.5-48v48m1.5-48v48.5m1.5-48.5v48m1.5-48v48m1.5-48v48m1.5-48v48m1.5-48v48m1.5-48v48m1.5-48v48m1.5-48v48m1.5-48v48m1.5-48v48m1.5-48v48m1.5-48v48m1.5-48v48m-52.5-48.25h52v48.5h-52zm52.25-51h-52.5m52.5 1.5h-52.5m52.5 1.5h-52.5m52.5 1.5h-52.5m52.5 1.5h-52.5m52.5 1.5h-52.5m52.5 1.5h-52.5m52.5 1.5h-52.5m52.5 1.5h-52.5m52.5 1.5h-52.5m52.5 1.5h-52.5m52.5 1.5h-52.5m52.5 1.5h-52.5m52.5 1.5h-52.5m52.5 1.5h-52.5m52.5 1.5h-52.5m52.5 1.5h-52.5m52.5 1.5h-52.5m52.5 1.5h-52.5m52.5 1.5h-52.5m52.5 1.5h-52.5m52.5 1.5h-52.5m52.5 1.5h-52.5m52.5 1.5h-52.5m52.5 1.5h-52.5m52.5 1.5h-52.5m52.5 1.5h-52.5m52.5 1.5h-52.5m52.5 1.5h-52.5m52.5 1.5h-52.5m52.5 1.5h-52.5m52.5 1.5h-52.5m52.5 1.5h-52.5m52.5 1.5h-52.5m52.5 1.5h-52.5m52.25-50.75v50.5m-52-50.5v50.5m1.5-50.5v50.5m1.5-50.5v50.5m1.5-50.5v50.5m1.5-50.5v50.5m1.5-50.5v50.5m1.5-50.5v50.5m1.5-50.5v50.5m1.5-50.5v50.5m1.5-50.5v50.5m1.5-50.5v50.5m1.5-50.5v50.5m1.5-50.5v50.5m1.5-50.5v50.5m1.5-50.5v50.5m1.5-50.5v50.5m1.5-50.5v50.5m1.5-50.5v50.5m1.5-50.5v50.5m1.5-50.5v50.5m1.5-50.5v50.5m1.5-50.5v50.5m1.5-50.5v50.5m1.5-50.5v50.5m1.5-50.5v50.5m1.5-50.5v50.5m1.5-50.5v50.5m1.5-50.5v50.5m1.5-50.5v50.5m1.5-50.5v50.5m1.5-50.5v50.5m1.5-50.5v50.5m1.5-50.5v50.5m1.5-50.5v50.5m1.5-50.5v50.5m1.5-50.5v50.5m-52.5-50.75h52v51h-52zm .25 51h-50.5m50.5 1.5h-50.5m50.5 1.5h-50.5m50.5 1.5h-50.5m50.5 1.5h-50.5m50.5 1.5h-50.5m50.5 1.5h-50.5m50.5 1.5h-50.5m50.5 1.5h-50.5m50.5 1.5h-50.5m50.5 1.5h-50.5m50.5 1.5h-50.5m50.5 1.5h-50.5m50.5 1.5h-50.5m50.5 1.5h-50.5m50.5 1.5h-50.5m50.5 1.5h-50.5m50.5 1.5h-50.5m50.5 1.5h-50.5m50.5 1.5h-50.5m50.5 1.5h-50.5m50.5 1.5h-50.5m50.5 1.5h-50.5m50.5 1.5h-50.5m50.5 1.5h-50.5m50.5 1.5h-50.5m50.5 1.5h-50.5m50.5 1.5h-50.5m50.5 1.5h-50.5m50.5 1.5h-50.5m50.5 1.5h-50.5m50.5 1.5h-50.5m50.5 1.5h-50.5m50.5.5h-50.5m36.75-48.25v48m1.5-48v48m1.5-48v48m1.5-48v48m1.5-48v48m1.5-48v48m1.5-48v48m1.5-48v48m1.5-48v48m1.5-48v48m-50-48v48m-1-48v48m1.5-48v48m1.5-48v48m1.5-48v48m1.5-48v48m1.5-48v48m1.5-48v48m1.5-48v48m1.5-48v48m1.5-48v48m1.5-48v48m1.5-48v48m1.5-48v48m1.5-48v48m1.5-48v48m1.5-48v48m1.5-48v48m1.5-48v48m1.5-48v48m1.5-48v48m1.5-48v48m1.5-48v48m1.5-48v48m1.5-48v48m1.5-48v48m-35-48.25h50v48.5h-50zm50.25-51h-50.5m50.5 1.5h-50.5m50.5 1.5h-50.5m50.5 1.5h-50.5m50.5 1.5h-50.5m50.5 1.5h-50.5m50.5 1.5h-50.5m50.5 1.5h-50.5m50.5 1.5h-50.5m50.5 1.5h-50.5m50.5 1.5h-50.5m50.5 1.5h-50.5m50.5 1.5h-50.5m50.5 1.5h-50.5m50.5 1.5h-50.5m50.5 1.5h-50.5m50.5 1.5h-50.5m50.5 1.5h-50.5m50.5 1.5h-50.5m50.5 1.5h-50.5m50.5 1.5h-50.5m50.5 1.5h-50.5m50.5 1.5h-50.5m50.5 1.5h-50.5m50.5 1.5h-50.5m50.5 1.5h-50.5m50.5 1.5h-50.5m50.5 1.5h-50.5m50.5 1.5h-50.5m50.5 1.5h-50.5m50.5 1.5h-50.5m50.5 1.5h-50.5m50.5 1.5h-50.5m50.5 1.5h-50.5m50.5 1.5h-50.5m36.75-50.75v50.5m1.5-50.5v50.5m1.5-50.5v50.5m1.5-50.5v50.5m1.5-50.5v50.5m1.5-50.5v50.5m1.5-50.5v50.5m1.5-50.5v50.5m1.5-50.5v50.5m1.5-50.5v50.5m-50-50.5v50.5m-1-50.5v50.5m1.5-50.5v50.5m1.5-50.5v50.5m1.5-50.5v50.5m1.5-50.5v50.5m1.5-50.5v50.5m1.5-50.5v50.5m1.5-50.5v50.5m1.5-50.5v50.5m1.5-50.5v50.5m1.5-50.5v50.5m1.5-50.5v50.5m1.5-50.5v50.5m1.5-50.5v50.5m1.5-50.5v50.5m1.5-50.5v50.5m1.5-50.5v50.5m1.5-50.5v50.5m1.5-50.5v50.5m1.5-50.5v50.5m1.5-50.5v50.5m1.5-50.5v50.5m1.5-50.5v50.5m1.5-50.5v50.5m1.5-50.5v50.5m-35-50.75h50v51h-50z" style="fill:#4d4d4d;fill-rule:evenodd;stroke:#575d5e;stroke-width:.5;shape-rendering:crispEdges;clip-path:url(#a)"/><g id="g1177"><rect id="rect133" fill="#bb1e10" height="10.5" shape-rendering="crispEdges" width="104.2" x="64.15" y="43.4"/><path id="path135" d="m64.15 54.4h104.2" fill="none" shape-rendering="crispEdges" stroke="#fff"/><text id="text137" style="font-weight:bold;font-size:5.39302;font-family:sans-serif;letter-spacing:0;word-spacing:0;fill:#fff;shape-rendering:crispEdges" x="130.29" y="51.322"><tspan id="tspan139" fill="#fff" font-family="sans-serif" font-size="7.5" font-weight="bold" x="130.29" y="51.322">TMax T5</tspan><tspan id="tspan141" fill="#fff" x="130.29" y="51.322"/></text><path id="path143" d="m69.91 44.65-1.049 3.92h2.168v-3.92zm1.279 0v3.92h2.168l-1.05-3.92zm4.48 0v3.92h2.32v-3.92zm2.48 0v3.92h2.428a2.4 2.4 0 0 0 -.83-.551 1.8 1.8 0 0 0  .922-1.569 1.8 1.8 0 0 0 -1.8-1.8zm3.76 0v3.92h2.32v-3.92zm2.48 0v3.92h2.428a2.4 2.4 0 0 0 -.83-.551 1.8 1.8 0 0 0  .922-1.569 1.8 1.8 0 0 0 -1.8-1.8zm-15.571 4.08-1.049 3.92h2l .424-1.6h.836v-2.32zm2.371 0v2.32h.836l.424 1.6h2l-1.05-3.92zm4.48 0v3.92h2.32v-3.92zm2.48 0v3.92h.72a2.4 2.4 0 0 0 2.4-2.4 2.4 2.4 0 0 0 -.547-1.52zm3.76 0v3.92h2.32v-3.92zm2.48 0v3.92h.72a2.4 2.4 0 0 0 2.4-2.4 2.4 2.4 0 0 0 -.547-1.52z" fill="#fff" shape-rendering="crispEdges"/></g><g id="g1221"><circle id="circle147" cx="95.35" cy="85.7" fill="#575d5e" r="30.1" shape-rendering="crispEdges"/><g id="g1195"><path id="path151" d="m65.657 89.979a30 30 0 0 1  .349-10.517l29.344 6.238z" fill="#808000" shape-rendering="crispEdges"/><path id="path153" d="m84.599 57.692a30 30 0 0 1 21.451-.02l-10.7 28.028z" fill="#f00" shape-rendering="crispEdges"/><path id="path155" d="m68.051 73.259a30 30 0 0 1 16.548-15.567l10.751 28.008z" fill="#ff0" shape-rendering="crispEdges"/><circle id="circle157" cx="95.35" cy="85.7" fill="#575d5e" r="25" shape-rendering="crispEdges" stroke="#333"/><text id="text159" style="font-size:12.5;font-family:sans-serif;letter-spacing:0;word-spacing:0;fill:#fff;shape-rendering:crispEdges" x="94.922" y="59.83"><tspan id="tspan161" fill="#fff" font-family="FreesiaUPC" font-size="7.5" x="94.922" y="59.83">I</tspan></text><text id="text163" style="font-size:12.5;font-family:sans-serif;letter-spacing:0;word-spacing:0;fill:#fff;shape-rendering:crispEdges" x="66.248" y="86.434"><tspan id="tspan165" fill="#fff" font-family="FreesiaUPC" font-size="7.5" x="66.248" y="86.434">O</tspan></text></g><circle id="circle167" cx="95.35" cy="85.7" r="25.25" style="fill:#575d5e;stroke:#363636;stroke-width:.5;stroke-linecap:round;stroke-linejoin:round;shape-rendering:crispEdges"/><rect id="rect169" height="42" rx="21" style="fill:#575d5e;stroke:#333;stroke-width:.5;stroke-linecap:round;stroke-linejoin:round;shape-rendering:crispEdges" width="83" x="74.35" y="64.7"/><path id="path171" d="m142.8 85.25c0-5.401-4.38-9.75-9.81-9.75h-38.468-.114-5.602c-2.331 0-4.206 1.45-4.206 3.25v6.5 6.5c0 1.801 1.875 3.25 4.206 3.25h5.602.114 38.468c5.43 0 9.81-4.348 9.81-9.75z" style="fill:none;stroke:#363636;stroke-width:.5;stroke-linecap:round;stroke-linejoin:bevel;shape-rendering:crispEdges"/><path id="path173" d="m72.6 85.25c0 5.402 4.773 9.75 10.702 9.75h41.968.13 6.11c2.54 0 4.59-1.449 4.59-3.25v-6.5-6.5c0-1.8-2.05-3.25-4.59-3.25h-6.11-.13-41.968c-5.929 0-10.702 4.349-10.702 9.75z" style="fill:#fff;stroke:#999;stroke-width:.5;stroke-linecap:round;stroke-linejoin:bevel;shape-rendering:crispEdges"/><path id="path175" d="m109.35 78.368c0-1.173-.26-2.118-.57-2.118h-2.86c-.32 0-.57.945-.57 2.118v13.765c0 1.173.25 2.117.57 2.117h2.86c.31 0 .57-.944.57-2.117zm-6.45 0c0-1.173-.26-2.118-.57-2.118h-2.859c-.316 0-.572.945-.572 2.118v13.765c0 1.173.256 2.117.572 2.117h2.859c.31 0 .57-.944.57-2.117zm-6.452 0c0-1.173-.256-2.118-.572-2.118h-2.856c-.316 0-.572.945-.572 2.118v13.765c0 1.173.256 2.117.572 2.117h2.856c.316 0 .572-.944.572-2.117z" fill="#e6e6e6" shape-rendering="crispEdges"/><path id="path177" d="m74.993 91.19a22.5 22.5 0 0 1 -.68-5.49 22.5 22.5 0 0 1 1.099-6.947" style="fill:none;stroke:#999;stroke-width:.5;stroke-linecap:round;stroke-linejoin:round;shape-rendering:crispEdges"/></g><g id="g1203"><ellipse id="ellipse183" cx="162.06" cy="112.47" rx="4.75" ry="2.75" style="fill:#c7cacc;fill-rule:evenodd;stroke:#333;stroke-width:.5;stroke-linecap:round;stroke-linejoin:round;shape-rendering:crispEdges"/><text id="text185" style="font-size:12.5;font-family:sans-serif;letter-spacing:0;word-spacing:0;fill:#4d4d4d;fill-opacity:.93725;shape-rendering:crispEdges" x="159.67" y="113.15"><tspan id="tspan187" fill="#4d4d4d" fill-opacity=".93725" font-size="1.875" x="159.67" y="113.15">TEST</tspan></text></g></g><g id="motorDrive"><rect id="rect191" fill="#575d5e" height="105" shape-rendering="crispEdges" stroke="#333" stroke-width=".8" width="105" x="63.75" y="43"/><path id="path193" d="m168.88 100.95h-54.3m54.3 1.5h-54.3m54.3 1.5h-54.3m54.3 1.5h-54.3m54.3 1.5h-54.3m54.3 1.5h-54.3m54.3 1.5h-54.3m54.3 1.5h-54.3m54.3 1.5h-54.3m54.3 1.5h-54.3m54.3 1.5h-54.3m54.3 1.5h-54.3m54.3 1.5h-54.3m54.3 1.5h-54.3m54.3 1.5h-54.3m54.3 1.5h-54.3m54.3 1.5h-54.3m54.3 1.5h-54.3m54.3 1.5h-54.3m54.3 1.5h-54.3m54.3 1.5h-54.3m54.3 1.5h-54.3m54.3 1.5h-54.3m54.3 1.5h-54.3m54.3 1.5h-54.3m54.3 1.5h-54.3m54.3 1.5h-54.3m54.3 1.5h-54.3m54.3 1.5h-54.3m54.3 1.5h-54.3m54.3 1.5h-54.3m54.3 1.5h-54.3m54.3.5h-54.3m54.05-46.75v46.5m-53.8-46.5v46.5m1.5-46.5v46.5m1.5-46.5v46.5m1.5-46.5v46.5m1.5-46.5v46.5m1.5-46.5v46.5m1.5-46.5v46.5m1.5-46.5v46.5m1.5-46.5v46.5m1.5-46.5v46.5m1.5-46.5v46.5m1.5-46.5v46.5m1.5-46.5v46.5m1.5-46.5v46.5m1.5-46.5v46.5m1.5-46.5v46.5m1.5-46.5v46.5m1.5-46.5v46.5m1.5-46.5v46.5m1.5-46.5v46.5m1.5-46.5v46.5m1.5-46.5v46.5m1.5-46.5v46.5m1.5-46.5v46.5m1.5-46.5v46.5m1.5-46.5v46.5m1.5-46.5v46.5m1.5-46.5v46.5m1.5-46.5v46.5m1.5-46.5v46.5m1.5-46.5v46.5m1.5-46.5v46.5m1.5-46.5v46.5m1.5-46.5v46.5m1.5-46.5v46.5m1.5-46.5v46.5m1.5-46.5v46.5m-54-46.75h53.8v47h-53.8zm.25 0h-51.6m51.6 1.5h-51.6m51.6 1.5h-51.6m51.6 1.5h-51.6m51.6 1.5h-51.6m51.6 1.5h-51.6m51.6 1.5h-51.6m51.6 1.5h-51.6m51.6 1.5h-51.6m51.6 1.5h-51.6m51.6 1.5h-51.6m51.6 1.5h-51.6m51.6 1.5h-51.6m51.6 1.5h-51.6m51.6 1.5h-51.6m51.6 1.5h-51.6m51.6 1.5h-51.6m51.6 1.5h-51.6m51.6 1.5h-51.6m51.6 1.5h-51.6m51.6 1.5h-51.6m51.6 1.5h-51.6m51.6 1.5h-51.6m51.6 1.5h-51.6m51.6 1.5h-51.6m51.6 1.5h-51.6m51.6 1.5h-51.6m51.6 1.5h-51.6m51.6 1.5h-51.6m51.6 1.5h-51.6m51.6 1.5h-51.6m51.6 1.5h-51.6m51.6.5h-51.6m37.85-46.75v46.5m1.5-46.5v46.5m1.5-46.5v46.5m1.5-46.5v46.5m1.5-46.5v46.5m1.5-46.5v46.5m1.5-46.5v46.5m1.5-46.5v46.5m1.5-46.5v46.5m1.5-46.5v46.5m-51.1-46.5v46.5m-.6-46.5v46.5m.7-46.5v46.5m1.6-46.5v46.5m1.4-46.5v46.5m1.5-46.5v46.5m1.5-46.5v46.5m1.5-46.5v46.5m1.5-46.5v46.5m1.5-46.5v46.5m1.5-46.5v46.5m1.5-46.5v46.5m1.5-46.5v46.5m1.5-46.5v46.5m1.5-46.5v46.5m1.5-46.5v46.5m1.5-46.5v46.5m1.5-46.5v46.5m1.5-46.5v46.5m1.5-46.5v46.5m1.5-46.5v46.5m1.5-46.5v46.5m1.5-46.5v46.5m1.5-46.5v46.5m1.5-46.5v46.5m1.5-46.5v46.5m1.5-46.5v46.5m-36.1-46.75h51.1v47h-51.1zm105.15-51h-54.3m54.3 1.5h-54.3m54.3 1.5h-54.3m54.3 1.5h-54.3m54.3 1.5h-54.3m54.3 1.5h-54.3m54.3 1.5h-54.3m54.3 1.5h-54.3m54.3 1.5h-54.3m54.3 1.5h-54.3m54.3 1.5h-54.3m54.3 1.5h-54.3m54.3 1.5h-54.3m54.3 1.5h-54.3m54.3 1.5h-54.3m54.3 1.5h-54.3m54.3 1.5h-54.3m54.3 1.5h-54.3m54.3 1.5h-54.3m54.3 1.5h-54.3m54.3 1.5h-54.3m54.3 1.5h-54.3m54.3 1.5h-54.3m54.3 1.5h-54.3m54.3 1.5h-54.3m54.3 1.5h-54.3m54.3 1.5h-54.3m54.3 1.5h-54.3m54.3 1.5h-54.3m54.3 1.5h-54.3m54.3 1.5h-54.3m54.3 1.5h-54.3m54.3 1.5h-54.3m54.3 1.5h-54.3m54.3 1.5h-54.3m54.05-50.75v50.5m-53.8-50.5v50.5m1.5-50.5v50.5m1.5-50.5v50.5m1.5-50.5v50.5m1.5-50.5v50.5m1.5-50.5v50.5m1.5-50.5v50.5m1.5-50.5v50.5m1.5-50.5v50.5m1.5-50.5v50.5m1.5-50.5v50.5m1.5-50.5v50.5m1.5-50.5v50.5m1.5-50.5v50.5m1.5-50.5v50.5m1.5-50.5v50.5m1.5-50.5v50.5m1.5-50.5v50.5m1.5-50.5v50.5m1.5-50.5v50.5m1.5-50.5v50.5m1.5-50.5v50.5m1.5-50.5v50.5m1.5-50.5v50.5m1.5-50.5v50.5m1.5-50.5v50.5m1.5-50.5v50.5m1.5-50.5v50.5m1.5-50.5v50.5m1.5-50.5v50.5m1.5-50.5v50.5m1.5-50.5v50.5m1.5-50.5v50.5m1.5-50.5v50.5m1.5-50.5v50.5m1.5-50.5v50.5m1.5-50.5v50.5m-54.2-50.75h54v51h-54zm .45 0h-51.6m51.6 1.5h-51.6m51.6 1.5h-51.6m51.6 1.5h-51.6m51.6 1.5h-51.6m51.6 1.5h-51.6m51.6 1.5h-51.6m51.6 1.5h-51.6m51.6 1.5h-51.6m51.6 1.5h-51.6m51.6 1.5h-51.6m51.6 1.5h-51.6m51.6 1.5h-51.6m51.6 1.5h-51.6m51.6 1.5h-51.6m51.6 1.5h-51.6m51.6 1.5h-51.6m51.6 1.5h-51.6m51.6 1.5h-51.6m51.6 1.5h-51.6m51.6 1.5h-51.6m51.6 1.5h-51.6m51.6 1.5h-51.6m51.6 1.5h-51.6m51.6 1.5h-51.6m51.6 1.5h-51.6m51.6 1.5h-51.6m51.6 1.5h-51.6m51.6 1.5h-51.6m51.6 1.5h-51.6m51.6 1.5h-51.6m51.6 1.5h-51.6m51.6 1.5h-51.6m51.6 1.5h-51.6m51.6 1.5h-51.6m37.85-50.75v50.5m1.5-50.5v50.5m1.5-50.5v50.5m1.5-50.5v50.5m1.5-50.5v50.5m1.5-50.5v50.5m1.5-50.5v50.5m1.5-50.5v50.5m1.5-50.5v50.5m1.5-50.5v50.5m-51.1-50.5v50.5m-.6-50.5v50.5m.7-50.5v50.5m1.5-50.5v50.5m1.5-50.5v50.5m1.5-50.5v50.5m1.5-50.5v50.5m1.5-50.5v50.5m1.5-50.5v50.5m1.5-50.5v50.5m1.5-50.5v50.5m1.5-50.5v50.5m1.5-50.5v50.5m1.5-50.5v50.5m1.5-50.5v50.5m1.5-50.5v50.5m1.5-50.5v50.5m1.5-50.5v50.5m1.5-50.5v50.5m1.5-50.5v50.5m1.5-50.5v50.5m1.5-50.5v50.5m1.5-50.5v50.5m1.5-50.5v50.5m1.5-50.5v50.5m1.5-50.5v50.5m1.5-50.5v50.5m-36.1-50.75h51.1v51h-51.1z" style="fill:#4d4d4d;fill-rule:evenodd;stroke:#575d5e;stroke-width:.5;shape-rendering:crispEdges;clip-path:url(#b)"/><g id="g1320"><rect id="rect197" fill="#f00" height="17.5" shape-rendering="crispEdges" stroke="#333" stroke-width=".5" width="17.5" x="135" y="59.25"/><circle id="circle199" cx="143.75" cy="68" fill="none" r="3.6" shape-rendering="crispEdges" stroke="#fff"/></g><g id="g1314"><rect id="rect203" fill="#007b00" height="17.5" shape-rendering="crispEdges" stroke="#333" stroke-width=".5" width="17.5" x="104" y="59"/><text id="text205" style="font-weight:bold;font-size:10.8;font-family:Arial;letter-spacing:0;word-spacing:0;fill:#fff;shape-rendering:crispEdges" x="111.23" y="71.615"><tspan id="tspan207" x="111.23" y="71.615">I</tspan></text></g><g id="g1306"><rect id="rect215" fill="#5b5e60" height="82.5" rx="1" shape-rendering="crispEdges" stroke="#1a1a1a" stroke-width="1.5" width="14.5" x="72" y="57.704"/><path id="path217" d="m72.75 110.24c0-.71.184 1.86 1.539 3.05 1.354 1.18 3.725.97 4.808.97s3.473.21 4.827-.97c1.354-1.19 1.836-3.76 1.826-3.05v17.65c-1.86-.41-.637 2.07-3.064 2.71-2.428.65-9.936 0-9.936 0z" fill="#333" shape-rendering="crispEdges"/></g><rect id="rect219" height="4" style="fill:#c7c9cc;stroke:#333;stroke-width:.5;stroke-linecap:round;stroke-linejoin:round;shape-rendering:crispEdges" width="27.5" x="134.5" y="138.83"/><path id="path221" d="m107.27 118h10.96" style="fill:none;stroke:#fff;stroke-width:.8;stroke-linecap:round;stroke-dasharray:1.6 1.6;shape-rendering:crispEdges"/><g id="g1326"><rect id="rect225" fill="#fff" height="6.5" shape-rendering="crispEdges" stroke="#333" stroke-width=".5" width="18" x="103.75" y="93.442"/><path id="path227" d="m107.27 96.692h10.96" style="fill:none;stroke:#000;stroke-width:.8;stroke-linecap:round;stroke-dasharray:1.6 1.6;shape-rendering:crispEdges"/></g><g id="g1340"><rect id="rect231" fill="#fff" height="6.5" shape-rendering="crispEdges" stroke="#333" stroke-width=".5" width="18" x="134.75" y="93.442"/><circle id="circle233" cx="137.75" cy="96.692" fill="none" r="1.5" shape-rendering="crispEdges" stroke="#000" stroke-width=".5"/><path id="path235" d="m143.07 96.692h5.61" style="fill:none;stroke:#000;stroke-width:.8;stroke-linecap:round;stroke-dasharray:1.6 1.6;shape-rendering:crispEdges"/></g><g id="g1332"><rect id="rect239" fill="#c7c9cc" height="8.5" rx=".5" shape-rendering="crispEdges" stroke="#333" stroke-width=".5" width="18.5" x="134.5" y="113.75"/><path id="path241" d="m138.27 125.3h10.96" style="fill:none;stroke:#fff;stroke-width:.8;stroke-linecap:round;stroke-dasharray:1.6 1.6;shape-rendering:crispEdges"/></g><g id="g1300"><path id="path245" d="m64.15 54.4h104.2" fill="none" shape-rendering="crispEdges" stroke="#fff"/><rect id="rect247" fill="#bb1e10" height="10.5" shape-rendering="crispEdges" width="104.2" x="64.15" y="43.4"/><path id="path249" d="m70.771 44.65-1.049 3.92h2.168v-3.92zm1.279 0v3.92h2.168l-1.049-3.92zm4.48 0v3.92h2.32v-3.92zm2.48 0v3.92h2.429a2.4 2.4 0 0 0 -.831-.551 1.8 1.8 0 0 0  .922-1.569 1.8 1.8 0 0 0 -1.8-1.8zm3.76 0v3.92h2.32v-3.92zm2.48 0v3.92h2.429a2.4 2.4 0 0 0 -.831-.551 1.8 1.8 0 0 0  .922-1.569 1.8 1.8 0 0 0 -1.8-1.8zm-15.571 4.08-1.049 3.92h2l .424-1.6h.836v-2.32zm2.371 0v2.32h.836l.424 1.6h2l-1.049-3.92zm4.48 0v3.92h2.32v-3.92zm2.48 0v3.92h.72a2.4 2.4 0 0 0 2.4-2.4 2.4 2.4 0 0 0 -.547-1.52zm3.76 0v3.92h2.32v-3.92zm2.48 0v3.92h.72a2.4 2.4 0 0 0 2.4-2.4 2.4 2.4 0 0 0 -.547-1.52z" fill="#fff" shape-rendering="crispEdges"/><text id="text251" style="font-weight:bold;font-size:5.39302;font-family:sans-serif;letter-spacing:0;word-spacing:0;fill:#fff;shape-rendering:crispEdges" x="131.19" y="51.321"><tspan id="tspan253" fill="#fff" font-family="sans-serif" font-size="7.5" font-weight="bold" x="131.19" y="51.321">TMax T4</tspan></text></g></g><g id="rockerLever"><rect id="rect257" fill="#616161" height="105" shape-rendering="crispEdges" stroke="#333" stroke-width=".8" width="105" x="63.75" y="43"/><path id="path259" d="m168.9 101.25h-52.9m52.9 1.5h-52.9m52.9 1.5h-52.9m52.9 1.5h-52.9m52.9 1.5h-52.9m52.9 1.5h-52.9m52.9 1.5h-52.9m52.9 1.5h-52.9m52.9 1.5h-52.9m52.9 1.5h-52.9m52.9 1.5h-52.9m52.9 1.5h-52.9m52.9 1.5h-52.9m52.9 1.5h-52.9m52.9 1.5h-52.9m52.9 1.5h-52.9m52.9 1.5h-52.9m52.9 1.5h-52.9m52.9 1.5h-52.9m52.9 1.5h-52.9m52.9 1.5h-52.9m52.9 1.5h-52.9m52.9 1.5h-52.9m52.9 1.5h-52.9m52.9 1.5h-52.9m52.9 1.5h-52.9m52.9 1.5h-52.9m52.9 1.5h-52.9m52.9 1.5h-54.5m54.5 1.5h-52.9m52.9 1.5h-52.9m52.9 1.5h-52.9m52.9.7h-52.9m52.65-46.95v46.7m-52.4-46.7v46.7m1.5-46.7v46.7m1.5-46.7v46.7m1.5-46.7v46.7m1.5-46.7v46.7m1.5-46.7v46.7m1.5-46.7v46.7m1.5-46.7v46.7m1.5-46.7v46.7m1.5-46.7v46.7m1.5-46.7v46.7m1.5-46.7v46.7m1.5-46.7v46.7m1.5-46.7v46.7m1.5-46.7v46.7m1.5-46.7v46.7m1.5-46.7v46.7m1.5-46.7v46.7m1.5-46.7v46.7m1.5-46.7v46.7m1.5-46.7v46.7m1.5-46.7v46.7m1.5-46.7v46.7m1.5-46.7v46.7m1.5-46.7v46.7m1.5-46.7v46.7m1.5-46.7v46.7m1.5-46.7v46.7m1.5-46.7v46.7m1.5-46.7v46.7m1.5-46.7v46.7m1.5-46.7v46.7m1.5-46.7v46.7m1.5-46.7v46.7m1.5-46.7v46.7m1.5-46.7v46.7m-52.5-46.95h52.4v47.2h-52.4zm52.65-51h-52.9m52.9 1.5h-52.9m52.9 1.5h-52.9m52.9 1.5h-52.9m52.9 1.5h-52.9m52.9 1.5h-52.9m52.9 1.5h-52.9m52.9 1.5h-52.9m52.9 1.5h-52.9m52.9 1.5h-52.9m52.9 1.5h-52.9m52.9 1.5h-52.9m52.9 1.5h-52.9m52.9 1.5h-52.9m52.9 1.5h-52.9m52.9 1.5h-52.9m52.9 1.5h-52.9m52.9 1.5h-52.9m52.9 1.5h-52.9m52.9 1.5h-52.9m52.9 1.5h-52.9m52.9 1.5h-52.9m52.9 1.5h-52.9m52.9 1.5h-52.9m52.9 1.5h-52.9m52.9 1.5h-52.9m52.9 1.5h-52.9m52.9 1.5h-52.9m52.9 1.5h-52.9m52.9 1.5h-52.9m52.9 1.5h-52.9m52.9 1.5h-52.9m52.9 1.5h-52.9m52.9 1.5h-52.9m52.9 1.5h-52.9m52.65-50.75v50.5m-52.4-50.5v50.5m1.5-50.5v50.5m1.5-50.5v50.5m1.5-50.5v50.5m1.5-50.5v50.5m1.5-50.5v50.5m1.5-50.5v50.5m1.5-50.5v50.5m1.5-50.5v50.5m1.5-50.5v50.5m1.5-50.5v50.5m1.5-50.5v50.5m1.5-50.5v50.5m1.5-50.5v50.5m1.5-50.5v50.5m1.5-50.5v50.5m1.5-50.5v50.5m1.5-50.5v50.5m1.5-50.5v50.5m1.5-50.5v50.5m1.5-50.5v50.5m1.5-50.5v50.5m1.5-50.5v50.5m1.5-50.5v50.5m1.5-50.5v50.5m1.5-50.5v50.5m1.5-50.5v50.5m1.5-50.5v50.5m1.5-50.5v50.5m1.5-50.5v50.5m1.5-50.5v50.5m1.5-50.5v50.5m1.5-50.5v50.5m1.5-50.5v50.5m1.5-50.5v50.5m1.5-50.5v50.5m-52.5-50.75h52.4v51h-52.4zm.25 51h-52.6m52.6 1.5h-52.6m52.6 1.5h-52.6m52.6 1.5h-52.6m52.6 1.5h-52.6m52.6 1.5h-52.6m52.6 1.5h-52.6m52.6 1.5h-52.6m52.6 1.5h-52.6m52.6 1.5h-52.6m52.6 1.5h-52.6m52.6 1.5h-52.6m52.6 1.5h-52.6m52.6 1.5h-52.6m52.6 1.5h-52.6m52.6 1.5h-52.6m52.6 1.5h-52.6m52.6 1.5h-52.6m52.6 1.5h-52.6m52.6 1.5h-52.6m52.6 1.5h-52.6m52.6 1.5h-52.6m52.6 1.5h-52.6m52.6 1.5h-52.6m52.6 1.5h-52.6m52.6 1.5h-52.6m52.6 1.5h-52.6m52.6 1.5h-52.6m52.6 1.5h-52.6m52.6 1.5h-52.6m52.6 1.5h-52.6m52.6 1.5h-52.6m52.6.7h-52.6m38.85-46.95v46.7m1.5-46.7v46.7m1.5-46.7v46.7m1.5-46.7v46.7m1.5-46.7v46.7m1.5-46.7v46.7m1.5-46.7v46.7m1.5-46.7v46.7m1.5-46.7v46.7m1.5-46.7v46.7m-52.1-46.7v46.7m-.4-46.7v46.7m1.5-46.7v46.7m1.5-46.7v46.7m1.5-46.7v46.7m1.5-46.7v46.7m1.5-46.7v46.7m1.5-46.7v46.7m1.5-46.7v46.7m1.5-46.7v46.7m1.5-46.7v46.7m1.5-46.7v46.7m1.5-46.7v46.7m1.5-46.7v46.7m1.5-46.7v46.7m1.5-46.7v46.7m1.5-46.7v46.7m1.5-46.7v46.7m1.5-46.7v46.7m1.5-46.7v46.7m1.5-46.7v46.7m1.5-46.7v46.7m1.5-46.7v46.7m1.5-46.7v46.7m1.5-46.7v46.7m1.5-46.7v46.7m1.5-46.7v46.7m-37.1-46.95h52.1v47.2h-52.1zm52.35-51h-52.6m52.6 1.5h-52.6m52.6 1.5h-52.6m52.6 1.5h-52.6m52.6 1.5h-52.6m52.6 1.5h-52.6m52.6 1.5h-52.6m52.6 1.5h-52.6m52.6 1.5h-52.6m52.6 1.5h-52.6m52.6 1.5h-52.6m52.6 1.5h-52.6m52.6 1.5h-52.6m52.6 1.5h-52.6m52.6 1.5h-52.6m52.6 1.5h-52.6m52.6 1.5h-52.6m52.6 1.5h-52.6m52.6 1.5h-52.6m52.6 1.5h-52.6m52.6 1.5h-52.6m52.6 1.5h-52.6m52.6 1.5h-52.6m52.6 1.5h-52.6m52.6 1.5h-52.6m52.6 1.5h-52.6m52.6 1.5h-52.6m52.6 1.5h-52.6m52.6 1.5h-52.6m52.6 1.5h-52.6m52.6 1.5h-52.6m52.6 1.5h-52.6m52.6 1.5h-52.6m52.6 1.5h-52.6m52.6 1.5h-52.6m38.85-50.75v50.5m1.5-50.5v50.5m1.5-50.5v50.5m1.5-50.5v50.5m1.5-50.5v50.5m1.5-50.5v50.5m1.5-50.5v50.5m1.5-50.5v50.5m1.5-50.5v50.5m1.5-50.5v50.5m-52.1-50.5v50.5m-.4-50.5v50.5m1.5-50.5v50.5m1.5-50.5v50.5m1.5-50.5v50.5m1.5-50.5v50.5m1.5-50.5v50.5m1.5-50.5v50.5m1.5-50.5v50.5m1.5-50.5v50.5m1.5-50.5v50.5m1.5-50.5v50.5m1.5-50.5v50.5m1.5-50.5v50.5m1.5-50.5v50.5m1.5-50.5v50.5m1.5-50.5v50.5m1.5-50.5v50.5m1.5-50.5v50.5m1.5-50.5v50.5m1.5-50.5v50.5m1.5-50.5v50.5m1.5-50.5v50.5m1.5-50.5v50.5m1.5-50.5v50.5m1.5-50.5v50.5m1.5-50.5v50.5m-37.1-50.75h52.1v51h-52.1z" style="fill:#4d4d4d;fill-rule:evenodd;stroke:#575d5e;stroke-width:.5;shape-rendering:crispEdges;clip-path:url(#c)"/><rect id="rect261" fill="#2b6138" height="7.5" shape-rendering="crispEdges" width="28.25" x="116" y="87.787"/><rect id="rect263" fill="#ff0" fill-opacity=".58209" height="7.5" shape-rendering="crispEdges" width="28.25" x="88" y="87.787"/><g id="g1427"><rect id="rect269" fill="#f00" fill-opacity=".39216" height="7.5" shape-rendering="crispEdges" width="56.5" x="87.728" y="78.75"/><text id="text271" style="font-size:12.5;font-family:sans-serif;letter-spacing:0;word-spacing:0;fill:#fff;shape-rendering:crispEdges" x="94.67" y="85.349"><tspan id="tspan273" font-size="7.5" x="94.67" y="85.349">l</tspan></text><text id="text275" style="font-size:12.5;font-family:sans-serif;letter-spacing:0;word-spacing:0;fill:#fff;shape-rendering:crispEdges" x="131.91" y="84.545"><tspan id="tspan277" font-size="7.5" x="131.91" y="84.545">on</tspan></text></g><g id="g1437"><rect id="rect281" fill="#008000" fill-opacity=".39216" height="7.5" shape-rendering="crispEdges" width="56.5" x="88" y="114.41"/><circle id="circle283" cx="95.699" cy="118.16" fill="none" r="2.5" shape-rendering="crispEdges" stroke="#fff" stroke-width=".5"/><text id="text285" style="font-size:12.5;font-family:sans-serif;letter-spacing:0;word-spacing:0;fill:#fff;shape-rendering:crispEdges" x="131.91" y="120.97"><tspan id="tspan287" font-size="7.5" x="131.91" y="120.97">off</tspan></text></g><g id="g1443"><rect id="rect291" fill="#d4d5df" height="43" shape-rendering="crispEdges" stroke="#333" stroke-width=".5" width="25" x="103.75" y="78.75"/><rect id="rect293" fill="#d4d5df" height="25.2" rx=".5" shape-rendering="crispEdges" stroke="#808080" stroke-width=".5" width="23.5" x="104.5" y="100.56"/></g><rect id="rect295" height="7" style="fill:#616161;stroke:#333;stroke-width:.5;stroke-linecap:round;stroke-linejoin:bevel;shape-rendering:crispEdges" width="23.5" x="104.5" y="127.65"/><rect id="rect297" fill="#999" height="4" shape-rendering="crispEdges" width="17.5" x="107.5" y="129.15"/><g id="g1415"><rect id="rect301" fill="#bb1e10" height="10.5" shape-rendering="crispEdges" width="104.2" x="64.15" y="43.4"/><text id="text303" style="font-weight:bold;font-size:5.39302;font-family:sans-serif;letter-spacing:0;word-spacing:0;fill:#fff;shape-rendering:crispEdges" x="127.84" y="51.322"><tspan id="tspan305" fill="#fff" font-family="sans-serif" font-size="7.5" font-weight="bold" x="127.84" y="51.322">TMax T5</tspan></text><path id="path307" d="m70.288 44.65-1.05 3.92h2.168v-3.92zm1.278 0v3.92h2.168l-1.049-3.92zm4.48 0v3.92h2.32v-3.92zm2.48 0v3.92h2.429a2.4 2.4 0 0 0 -.831-.551 1.8 1.8 0 0 0  .922-1.569 1.8 1.8 0 0 0 -1.8-1.8zm3.76 0v3.92h2.32v-3.92zm2.48 0v3.92h2.429a2.4 2.4 0 0 0 -.831-.551 1.8 1.8 0 0 0  .922-1.569 1.8 1.8 0 0 0 -1.8-1.8zm-15.57 4.08-1.05 3.92h2l .424-1.6h.836v-2.32zm2.37 0v2.32h.836l.424 1.6h2l-1.049-3.92zm4.48 0v3.92h2.32v-3.92zm2.48 0v3.92h.72a2.4 2.4 0 0 0 2.4-2.4 2.4 2.4 0 0 0 -.546-1.52zm3.76 0v3.92h2.32v-3.92zm2.48 0v3.92h.72a2.4 2.4 0 0 0 2.4-2.4 2.4 2.4 0 0 0 -.546-1.52z" fill="#fff" shape-rendering="crispEdges"/><path id="path309" d="m64.15 54.4h104.2" fill="none" shape-rendering="crispEdges" stroke="#fff"/></g><rect id="rect311" fill="#d4d5df" height="5" rx=".5" shape-rendering="crispEdges" stroke="#808080" stroke-width=".5" width="23.5" x="104.5" y="120.81"/><g id="g1451"><ellipse id="ellipse315" cx="154.75" cy="125" rx="4.75" ry="2.75" style="fill:#c7cacc;fill-rule:evenodd;stroke:#333;stroke-width:.5;stroke-linecap:round;stroke-linejoin:round;shape-rendering:crispEdges"/><text id="text317" style="font-size:12.5;font-family:sans-serif;letter-spacing:0;word-spacing:0;fill:#4d4d4d;fill-opacity:.93725;shape-rendering:crispEdges" x="152.36" y="125.68"><tspan id="tspan319" fill="#4d4d4d" fill-opacity=".93725" font-size="1.875" x="152.36" y="125.68">TEST</tspan></text></g></g><g id="RC222"><rect id="rect25" fill="#4d4d4d" fill-rule="evenodd" height="52.5" shape-rendering="crispEdges" stroke="#333" stroke-width=".8" width="105" x="63.75" y="207.25"/><rect id="rect29" fill="#575d5e" fill-rule="evenodd" height="46.5" shape-rendering="crispEdges" width="101" x="65.75" y="210.25"/><path id="path31" d="m96.75 256.75v-46.5" fill="none" shape-rendering="crispEdges" stroke="#333" stroke-width=".5"/><path id="path33" d="m115.74 256.75v-46.5" fill="none" shape-rendering="crispEdges" stroke="#333" stroke-width=".5"/><path id="path35" d="m136.25 256.75v-46.5" fill="none" shape-rendering="crispEdges" stroke="#333" stroke-width=".5"/><path id="path37" d="m96.5 249.32h-30.75" fill="none" shape-rendering="crispEdges" stroke="#fff" stroke-width=".5"/><path id="path39" d="m136.6 250.19h17" fill="none" shape-rendering="crispEdges" stroke="#333" stroke-width=".5"/><path id="path41" d="m136.6 250.69h17" fill="none" shape-rendering="crispEdges" stroke="#fff" stroke-width=".5"/><path id="path43" d="m96.5 248.82h-30.75" fill="#333" fill-rule="evenodd" shape-rendering="crispEdges" stroke="#333" stroke-width=".5"/><path id="path45" d="m97.25 256.75v-46.49" fill="#fff" fill-rule="evenodd" shape-rendering="crispEdges" stroke="#fff" stroke-width=".5"/><path id="path47" d="m116.24 256.75v-46.5" fill="none" shape-rendering="crispEdges" stroke="#fff" stroke-width=".5"/><path id="path49" d="m136.75 256.75v-46.5" fill="none" shape-rendering="crispEdges" stroke="#fff" stroke-width=".5"/><circle id="circle51" cx="73.9" cy="241.57" fill="#008000" r="2.75" shape-rendering="crispEdges" stroke="#787876" stroke-linecap="square" stroke-width=".25"/><circle id="circle53" cx="73.9" cy="234.04" r=".875" style="fill:#ff0;stroke:#787876;stroke-width:.25;stroke-linecap:round;stroke-linejoin:round;shape-rendering:crispEdges"/><circle id="circle55" cx="73.9" cy="228.04" r=".875" style="fill:#808000;stroke:#787876;stroke-width:.25;stroke-linecap:round;stroke-linejoin:round;shape-rendering:crispEdges"/><path id="path57" d="m83.679 240.82h9.067" style="fill:#fff;fill-rule:evenodd;stroke:#fff;stroke-width:.8;stroke-linecap:round;stroke-dasharray:.8 3.2;shape-rendering:crispEdges"/><path id="path59" d="m83.679 234.04h6.564" style="fill:#fff;fill-rule:evenodd;stroke:#fff;stroke-width:.8;stroke-linecap:round;stroke-dasharray:.8 3.2;shape-rendering:crispEdges"/><circle id="circle61" cx="107.25" cy="227.25" fill="#f2f2f2" r="2.5" shape-rendering="crispEdges"/><circle id="circle63" cx="107.25" cy="245.25" fill="#f2f2f2" r="2.5" shape-rendering="crispEdges"/><path id="path65" d="m107.27 231.25v10" fill="#ececec" fill-rule="evenodd" shape-rendering="crispEdges" stroke="#e6e6e6" stroke-width=".5"/><circle id="circle67" cx="125.65" cy="225.15" fill="#ececec" r="4" shape-rendering="crispEdges" stroke="#333" stroke-linecap="square" stroke-width=".5"/><path id="path69" d="m140.9 253.71h11.01" style="fill:#fff;fill-rule:evenodd;stroke:#fff;stroke-width:.8;stroke-linecap:round;stroke-dasharray:.8 3.2;shape-rendering:crispEdges"/><path id="path71" d="m121.15 244.33h11.01" style="fill:#fff;fill-rule:evenodd;stroke:#fff;stroke-width:.8;stroke-linecap:round;stroke-dasharray:.8 3.2;shape-rendering:crispEdges"/><rect id="rect73" height="6" style="fill:#4d4d4d;stroke:#666;stroke-width:.25;stroke-linecap:round;stroke-linejoin:round;shape-rendering:crispEdges" width="1.5" x="154.62" y="226.48"/><path id="path75" d="m108.58 245.8h-2.66l1.33-2.3z" fill="#b3b3b3" shape-rendering="crispEdges"/><path id="path77" d="m108.58 226.7h-2.66l1.33 2.3z" fill="#b3b3b3" shape-rendering="crispEdges"/><path id="path79" d="m123.15 226.51h5l-2.5-4.33z" fill="#b3b3b3" shape-rendering="crispEdges"/><path id="path81" d="m153.35 256.75v-46.5" fill="none" shape-rendering="crispEdges" stroke="#4d4d4d" stroke-width=".5"/><g id="g1542"><rect id="rect85" fill="#bb1e10" height="8.5" shape-rendering="crispEdges" width="101" x="65.75" y="210.25"/><path id="path87" d="m65.75 218.25h101" fill="none" shape-rendering="crispEdges" stroke="#fff"/><path id="path89" d="m71.649 211-.763 2.94h1.576v-2.94zm.93 0v2.94h1.576l-.763-2.94zm3.256 0v2.94h1.687v-2.94zm1.803 0v2.94h1.766a1.7447 1.8 0 0 0 -.604-.41 1.3085 1.35 0 0 0  .67-1.18 1.3085 1.35 0 0 0 -1.308-1.35zm2.734 0v2.94h1.686v-2.94zm1.803 0v2.94h1.765a1.7447 1.8 0 0 0 -.604-.41 1.3085 1.35 0 0 0  .671-1.18 1.3085 1.35 0 0 0 -1.309-1.35zm-11.32 3.06-.763 2.94h1.454l.309-1.2h.607v-1.74zm1.724 0v1.74h.607l.309 1.2h1.454l-.763-2.94zm3.256 0v2.94h1.687v-2.94zm1.803 0v2.94h.524a1.7447 1.8 0 0 0 1.745-1.8 1.7447 1.8 0 0 0 -.398-1.14zm2.734 0v2.94h1.686v-2.94zm1.803 0v2.94h.523a1.7447 1.8 0 0 0 1.745-1.8 1.7447 1.8 0 0 0 -.398-1.14z" fill="#fff" shape-rendering="crispEdges"/></g><text id="text91" style="font-weight:bold;font-size:5.39302;font-family:sans-serif;letter-spacing:0;word-spacing:0;fill:#fff;shape-rendering:crispEdges" x="73.977" y="254.55"><tspan id="tspan93" fill="#fff" font-family="sans-serif" font-size="3.75" font-weight="bold" x="73.977" y="254.55">RC222</tspan></text><g id="g1534"><ellipse id="ellipse97" cx="158.31" cy="253.95" rx="3.875" ry="1.875" style="fill:#c7cacc;fill-rule:evenodd;stroke:#333;stroke-width:.25;stroke-linecap:round;stroke-linejoin:round;shape-rendering:crispEdges"/><text id="text99" style="font-size:12.5;font-family:sans-serif;letter-spacing:0;word-spacing:0;fill:#4d4d4d;fill-opacity:.93725;shape-rendering:crispEdges" x="155.92" y="254.63"><tspan id="tspan101" fill="#4d4d4d" fill-opacity=".93725" font-size="1.875" x="155.92" y="254.63">TEST</tspan></text></g><path id="path105" d="m83.679 228.04h6.564" style="fill:#fff;fill-rule:evenodd;stroke:#fff;stroke-width:.8;stroke-linecap:round;stroke-dasharray:.8 3.2;shape-rendering:crispEdges"/><rect id="rect107" height="20" style="fill:none;stroke:#333;stroke-width:.25;stroke-linecap:round;stroke-linejoin:round;shape-rendering:crispEdges" width="12" x="154.62" y="219.48"/><path id="path109" d="m118.51 231.67h6.56" style="fill:#fff;fill-rule:evenodd;stroke:#fff;stroke-width:.8;stroke-linecap:round;stroke-dasharray:.8 3.2;shape-rendering:crispEdges"/><path id="path111" d="m128.38 231.67h6.56" style="fill:#fff;fill-rule:evenodd;stroke:#fff;stroke-width:.8;stroke-linecap:round;stroke-dasharray:.8 3.2;shape-rendering:crispEdges"/></g></g></svg>