<svg id="svg2" height="268" shape-rendering="crispEdges" viewBox="0 0 306 268" width="306" xmlns="http://www.w3.org/2000/svg" xmlns:xlink="http://www.w3.org/1999/xlink"><clipPath id="a"><path id="path1158" d="m107 60.9v91.2h10v5h91v-32.13h-12.6v-7h12.6v-57.07z" shape-rendering="crispEdges"/></clipPath><clipPath id="b"><path id="path1258" d="m105.4 61.287v114.403h15v8h-15v5.3h139.2v-5.3h-15v-8h15v-114.403z" shape-rendering="crispEdges"/></clipPath><clipPath id="c"><path id="path1332" d="m105.41 75.792v127.698h139.2v-127.698zm38.51 19.506h21v52.002h-21zm48 0h21v52.002h-21zm-82.13.758h20v100.004h-20zm34.13 64.254h21v10h-21zm48.33 0h21v10h-21z" shape-rendering="crispEdges"/></clipPath><clipPath id="d"><path id="path1407" d="m108 84.334v82.356h15v7.5h-15v2.85h134v-2.85h-15v-7.5h15v-82.356zm34.5 37.106h65v9h-65zm0 13.03h65v9h-65zm0 22.63h65v9h-65z" shape-rendering="crispEdges"/></clipPath><g id="layer1"><g id="operationGroup"><rect id="rect43" fill="#575d5e" fill-rule="evenodd" height="120" stroke="#333" stroke-linecap="square" stroke-width=".8" width="26" x="280" y="74"/><circle id="circle45" cx="293" cy="151" fill="#575d5e" r="6" stroke="#333" stroke-linecap="square" stroke-width=".8"/></g><rect id="breakerRear" fill="#575d5e" fill-rule="evenodd" height="268" stroke="#333" stroke-width=".8" width="280"/><g id="rotaryDriveAxle"><rect id="rect49" fill="#575d5e" height="140" shape-rendering="crispEdges" stroke="#333" stroke-width=".8" width="140" x="105" y="49.5"/><g id="g2382"><circle id="circle53" cx="136.6" cy="92.2" fill="#c5c7c4" r="15" shape-rendering="crispEdges" stroke="#000" stroke-width=".5"/><circle id="circle55" cx="136.6" cy="92.2" r="8" shape-rendering="crispEdges"/><rect id="rect57" fill="#e6e6e6" height="6" shape-rendering="crispEdges" width="6" x="133.6" y="89.2"/></g></g><g id="rotaryDrive_CD"><rect id="rect61" fill="#575d5e" height="105.5" shape-rendering="crispEdges" stroke="#333" stroke-width=".8" width="105" x="105" y="52"/><path id="path63" clip-path="url(#a)" d="m107 61v96m1.6-96v96m1.6-96v96m1.6-96v96m1.6-96v96m1.6-96v96m1.6-96v96m1.6-96v96m1.6-96v96m1.6-96v96m1.6-96v96m1.6-96v96m1.6-96v96m1.6-96v96m1.6-96v96m1.6-96v96m1.6-96v96m1.6-96v96m1.6-96v96m1.6-96v96m1.6-96v96m1.6-96v96m1.6-96v96m1.6-96v96m1.6-96v96m1.6-96v96m1.6-96v96m1.6-96v96m1.6-96v96m1.6-96v96m1.6-96v96m1.6-96v96m1.6-96v96m1.6-96v96m1.6-96v96m1.6-96v96m1.6-96v96m1.6-96v96m1.6-96v96m1.6-96v96m1.6-96v96m1.6-96v96m1.6-96v96m1.6-96v96m1.6-96v96m1.6-96v96m1.6-96v96m1.6-96v96m1.6-96v96m1.6-96v96m1.6-96v96m1.6-96v96m1.6-96v96m1.6-96v96m1.6-96v96m1.6-96v96m1.6-96v96m1.6-96v96m1.6-96v96m1.6-96v96m1.6-96v96m1.6-96v96m1.6-96v96m1.6-96v96m-100.8-96h101m-101 1.6h101m-101 1.6h101m-101 1.6h101m-101 1.6h101m-101 1.6h101m-101 1.6h101m-101 1.6h101m-101 1.6h101m-101 1.6h101m-101 1.6h101m-101 1.6h101m-101 1.6h101m-101 1.6h101m-101 1.6h101m-101 1.6h101m-101 1.6h101m-101 1.6h101m-101 1.6h101m-101 1.6h101m-101 1.6h101m-101 1.6h101m-101 1.6h101m-101 1.6h101m-101 1.6h101m-101 1.6h101m-101 1.6h101m-101 1.6h101m-101 1.6h101m-101 1.6h101m-101 1.6h101m-101 1.6h101m-101 1.6h101m-101 1.6h101m-101 1.6h101m-101 1.6h101m-101 1.6h101m-101 1.6h101m-101 1.6h101m-101 1.6h101m-101 1.6h101m-101 1.6h101m-101 1.6h101m-101 1.6h101m-101 1.6h101m-101 1.6h101m-101 1.6h101m-101 1.6h101m-101 1.6h101m-101 1.6h101m-101 1.6h101m-101 1.6h101m-101 1.6h101m-101 1.6h101m-101 1.6h101m-101 1.6h101m-101 1.6h101m-101 1.6h101m-101 1.6h101m-101 1.6h101m-101-94.4h101v96h-101z" fill="#4d4d4d" fill-rule="evenodd" stroke="#575d5e" stroke-width=".4pt"/><g id="g2463"><rect id="rect67" fill="#bb1e10" height="10.5" shape-rendering="crispEdges" width="104.2" x="105.4" y="52.4"/><path id="path69" d="m105.4 63.4h104.2" fill="none" shape-rendering="crispEdges" stroke="#fff"/><text id="text71" style="font-weight:bold;font-size:5.39302;font-family:sans-serif;letter-spacing:0;word-spacing:0;fill:#fff;shape-rendering:crispEdges" x="171.54" y="60.322"><tspan id="tspan73" fill="#fff" font-family="sans-serif" font-size="7.5" font-weight="bold" x="171.54" y="60.322">TMax T6</tspan><tspan id="tspan75" fill="#fff" x="171.54" y="60.322"/></text><path id="path77" d="m111.16 53.65-1.05 3.92h2.17v-3.92zm1.28 0v3.92h2.17l-1.05-3.92zm4.48 0v3.92h2.32v-3.92zm2.48 0v3.92h2.43a2.4 2.4 0 0 0 -.83-.551 1.8 1.8 0 0 0  .92-1.569 1.8 1.8 0 0 0 -1.8-1.8zm3.76 0v3.92h2.32v-3.92zm2.48 0v3.92h2.43a2.4 2.4 0 0 0 -.83-.551 1.8 1.8 0 0 0  .92-1.569 1.8 1.8 0 0 0 -1.8-1.8zm-15.57 4.08-1.05 3.92h2l .42-1.6h.84v-2.32zm2.37 0v2.32h.83l.43 1.6h2l-1.05-3.92zm4.48 0v3.92h2.32v-3.92zm2.48 0v3.92h.72a2.4 2.4 0 0 0 2.4-2.4 2.4 2.4 0 0 0 -.55-1.52zm3.76 0v3.92h2.32v-3.92zm2.48 0v3.92h.72a2.4 2.4 0 0 0 2.4-2.4 2.4 2.4 0 0 0 -.55-1.52z" fill="#fff" shape-rendering="crispEdges"/></g><g id="g2523"><circle id="circle81" cx="136.6" cy="94.7" fill="#575d5e" r="30.1" shape-rendering="crispEdges"/><g id="g2497"><path id="path85" d="m106.91 98.979a30 30 0 0 1  .35-10.517l29.34 6.238z" fill="#808000" shape-rendering="crispEdges"/><path id="path87" d="m125.85 66.692a30 30 0 0 1 21.45-.02l-10.7 28.028z" fill="#f00" shape-rendering="crispEdges"/><path id="path89" d="m109.3 82.259a30 30 0 0 1 16.55-15.567l10.75 28.008z" fill="#ff0" shape-rendering="crispEdges"/><circle id="circle91" cx="136.6" cy="94.7" fill="#575d5e" r="25" shape-rendering="crispEdges" stroke="#333"/><text id="text93" style="font-size:12.5;font-family:sans-serif;letter-spacing:0;word-spacing:0;fill:#fff;shape-rendering:crispEdges" x="136.17" y="68.83"><tspan id="tspan95" fill="#fff" font-family="FreesiaUPC" font-size="7.5" x="136.17" y="68.83">I</tspan></text><text id="text97" style="font-size:12.5;font-family:sans-serif;letter-spacing:0;word-spacing:0;fill:#fff;shape-rendering:crispEdges" x="107.5" y="95.434"><tspan id="tspan99" fill="#fff" font-family="FreesiaUPC" font-size="7.5" x="107.5" y="95.434">O</tspan></text></g><circle id="circle101" cx="136.6" cy="94.7" r="25.25" style="fill:#575d5e;stroke:#363636;stroke-width:.5;stroke-linecap:round;stroke-linejoin:round;shape-rendering:crispEdges"/><rect id="rect103" height="42" rx="21" style="fill:#575d5e;stroke:#333;stroke-width:.5;stroke-linecap:round;stroke-linejoin:round;shape-rendering:crispEdges" width="116" x="115.6" y="73.7"/><path id="path105" d="m184.05 94.25c0-5.401-4.38-9.75-9.81-9.75h-38.47-.11-5.6c-2.33 0-4.21 1.45-4.21 3.25v6.5 6.5c0 1.8 1.88 3.25 4.21 3.25h5.6.11 38.47c5.43 0 9.81-4.348 9.81-9.75z" style="fill:none;stroke:#363636;stroke-width:.5;stroke-linecap:round;stroke-linejoin:bevel;shape-rendering:crispEdges"/><path id="path107" d="m113.85 94.25c0 5.402 4.77 9.75 10.7 9.75h41.97.13 6.11c2.54 0 4.59-1.45 4.59-3.25v-6.5-6.5c0-1.8-2.05-3.25-4.59-3.25h-6.11-.13-41.97c-5.93 0-10.7 4.349-10.7 9.75z" style="fill:#fff;stroke:#999;stroke-width:.5;stroke-linecap:round;stroke-linejoin:bevel;shape-rendering:crispEdges"/><path id="path109" d="m150.6 87.368c0-1.173-.26-2.118-.57-2.118h-2.86c-.32 0-.57.945-.57 2.118v13.762c0 1.18.25 2.12.57 2.12h2.86c.31 0 .57-.94.57-2.12zm-6.45 0c0-1.173-.26-2.118-.57-2.118h-2.86c-.32 0-.57.945-.57 2.118v13.762c0 1.18.25 2.12.57 2.12h2.86c.31 0 .57-.94.57-2.12zm-6.45 0c0-1.173-.26-2.118-.57-2.118h-2.86c-.32 0-.57.945-.57 2.118v13.762c0 1.18.25 2.12.57 2.12h2.86c.31 0 .57-.94.57-2.12z" fill="#e6e6e6" shape-rendering="crispEdges"/><path id="path111" d="m116.24 100.19a22.5 22.5 0 0 1 -.68-5.49 22.5 22.5 0 0 1 1.1-6.947" style="fill:none;stroke:#999;stroke-width:.5;stroke-linecap:round;stroke-linejoin:round;shape-rendering:crispEdges"/></g><g id="g2505"><ellipse id="ellipse117" cx="203.31" cy="121.47" rx="4.75" ry="2.75" style="fill:#c7cacc;fill-rule:evenodd;stroke:#333;stroke-width:.5;stroke-linecap:round;stroke-linejoin:round;shape-rendering:crispEdges"/><text id="text119" style="font-size:12.5;font-family:sans-serif;letter-spacing:0;word-spacing:0;fill:#4d4d4d;fill-opacity:.93725;shape-rendering:crispEdges" x="200.92" y="122.15"><tspan id="tspan121" fill="#4d4d4d" fill-opacity=".93725" font-size="1.875" x="200.92" y="122.15">TEST</tspan></text></g></g><g id="rotaryDrive"><rect id="rect125" fill="#575d5e" height="140" shape-rendering="crispEdges" stroke="#333" stroke-width=".8" width="140" x="105" y="49.5"/><path id="path127" clip-path="url(#b)" d="m105.5 61.632v126.998m1.6-126.998v126.998m1.6-126.998v126.998m1.6-126.998v126.998m1.6-126.998v126.998m1.6-126.998v126.998m1.6-126.998v126.998m1.6-126.998v126.998m1.6-126.998v126.998m1.6-126.998v126.998m1.6-126.998v126.998m1.6-126.998v126.998m1.6-126.998v126.998m1.6-126.998v126.998m1.6-126.998v126.998m1.6-126.998v126.998m1.6-126.998v126.998m1.6-126.998v126.998m1.6-126.998v126.998m1.6-126.998v126.998m1.6-126.998v126.998m1.6-126.998v126.998m1.6-126.998v126.998m1.6-126.998v126.998m1.6-126.998v126.998m1.6-126.998v126.998m1.6-126.998v126.998m1.6-126.998v126.998m1.6-126.998v126.998m1.6-126.998v126.998m1.6-126.998v126.998m1.6-126.998v126.998m1.6-126.998v126.998m1.6-126.998v126.998m1.6-126.998v126.998m1.6-126.998v126.998m1.6-126.998v126.998m1.6-126.998v126.998m1.6-126.998v126.998m1.6-126.998v126.998m1.6-126.998v126.998m1.6-126.998v126.998m1.6-126.998v126.998m1.6-126.998v126.998m1.6-126.998v126.998m1.6-126.998v126.998m1.6-126.998v126.998m1.6-126.998v126.998m1.6-126.998v126.998m1.6-126.998v126.998m1.6-126.998v126.998m1.6-126.998v126.998m1.6-126.998v126.998m1.6-126.998v126.998m1.6-126.998v126.998m1.6-126.998v126.998m1.6-126.998v126.998m1.6-126.998v126.998m1.6-126.998v126.998m1.6-126.998v126.998m1.6-126.998v126.998m1.6-126.998v126.998m1.6-126.998v126.998m1.6-126.998v126.998m1.6-126.998v126.998m1.6-126.998v126.998m1.6-126.998v126.998m1.6-126.998v126.998m1.6-126.998v126.998m1.6-126.998v126.998m1.6-126.998v126.998m1.6-126.998v126.998m1.6-126.998v126.998m1.6-126.998v126.998m1.6-126.998v126.998m1.6-126.998v126.998m1.6-126.998v126.998m1.6-126.998v126.998m1.6-126.998v126.998m1.6-126.998v126.998m1.6-126.998v126.998m1.6-126.998v126.998m1.6-126.998v126.998m1.6-126.998v126.998m1.6-126.998v126.998m1.6-126.998v126.998m1.6-126.998v126.998m-137.6-126.998h139m-139 1.6h139m-139 1.6h139m-139 1.6h139m-139 1.6h139m-139 1.6h139m-139 1.6h139m-139 1.6h139m-139 1.6h139m-139 1.6h139m-139 1.6h139m-139 1.6h139m-139 1.6h139m-139 1.6h139m-139 1.6h139m-139 1.6h139m-139 1.6h139m-139 1.6h139m-139 1.6h139m-139 1.6h139m-139 1.6h139m-139 1.6h139m-139 1.6h139m-139 1.6h139m-139 1.598h139m-139 1.6h139m-139 1.6h139m-139 1.6h139m-139 1.6h139m-139 1.6h139m-139 1.6h139m-139 1.6h139m-139 1.6h139m-139 1.6h139m-139 1.6h139m-139 1.6h139m-139 1.6h139m-139 1.6h139m-139 1.6h139m-139 1.6h139m-139 1.6h139m-139 1.6h139m-139 1.6h139m-139 1.6h139m-139 1.6h139m-139 1.6h139m-139 1.6h139m-139 1.6h139m-139 1.6h139m-139 1.6h139m-139 1.6h139m-139 1.6h139m-139 1.6h139m-139 1.6h139m-139 1.6h139m-139 1.6h139m-139 1.6h139m-139 1.6h139m-139 1.6h139m-139 1.6h139m-139 1.6h139m-139 1.6h139m-139 1.6h139m-139 1.6h139m-139 1.6h139m-139 1.6h139m-139 1.6h139m-139 1.6h139m-139 1.6h139m-139 1.6h139m-139 1.6h139m-139 1.6h139m-139 1.6h139m-139 1.6h139m-139 1.6h139m-139 1.6h139m-139 1.6h139m-139 1.6h139m-139 1.6h139m-139 1.6h139m-139-126.398h139v126.998h-139z" fill="#4d4d4d" fill-rule="evenodd" stroke="#575d5e" stroke-width=".4pt"/><g id="g2599"><rect id="rect131" fill="#bb1e10" height="10.5" shape-rendering="crispEdges" width="139.2" x="105.4" y="49.9"/><path id="path133" d="m105.4 60.9h139.2" fill="none" shape-rendering="crispEdges" stroke="#fff"/><text id="text135" style="font-weight:bold;font-size:5.39302;font-family:sans-serif;letter-spacing:0;word-spacing:0;fill:#fff;shape-rendering:crispEdges" x="205.54" y="57.822"><tspan id="tspan137" fill="#fff" font-family="sans-serif" font-size="7.5" font-weight="bold" x="205.54" y="57.822">TMax T6</tspan><tspan id="tspan139" fill="#fff" x="205.54" y="57.822"/></text><path id="path141" d="m111.16 51.15-1.05 3.92h2.17v-3.92zm1.28 0v3.92h2.17l-1.05-3.92zm4.48 0v3.92h2.32v-3.92zm2.48 0v3.92h2.43a2.4 2.4 0 0 0 -.83-.551 1.8 1.8 0 0 0  .92-1.569 1.8 1.8 0 0 0 -1.8-1.8zm3.76 0v3.92h2.32v-3.92zm2.48 0v3.92h2.43a2.4 2.4 0 0 0 -.83-.551 1.8 1.8 0 0 0  .92-1.569 1.8 1.8 0 0 0 -1.8-1.8zm-15.57 4.08-1.05 3.92h2l .42-1.6h.84v-2.32zm2.37 0v2.32h.83l.43 1.6h2l-1.05-3.92zm4.48 0v3.92h2.32v-3.92zm2.48 0v3.92h.72a2.4 2.4 0 0 0 2.4-2.4 2.4 2.4 0 0 0 -.55-1.52zm3.76 0v3.92h2.32v-3.92zm2.48 0v3.92h.72a2.4 2.4 0 0 0 2.4-2.4 2.4 2.4 0 0 0 -.55-1.52z" fill="#fff" shape-rendering="crispEdges"/></g><g id="g2659"><circle id="circle145" cx="136.6" cy="92.2" fill="#575d5e" r="30.1" shape-rendering="crispEdges"/><g id="g2633"><path id="path149" d="m106.91 96.479a30 30 0 0 1  .35-10.517l29.34 6.238z" fill="#808000" shape-rendering="crispEdges"/><path id="path151" d="m125.85 64.192a30 30 0 0 1 21.45-.02l-10.7 28.028z" fill="#f00" shape-rendering="crispEdges"/><path id="path153" d="m109.3 79.759a30 30 0 0 1 16.55-15.567l10.75 28.008z" fill="#ff0" shape-rendering="crispEdges"/><circle id="circle155" cx="136.6" cy="92.2" fill="#575d5e" r="25" shape-rendering="crispEdges" stroke="#333"/><text id="text157" style="font-size:12.5;font-family:sans-serif;letter-spacing:0;word-spacing:0;fill:#fff;shape-rendering:crispEdges" x="136.17" y="66.33"><tspan id="tspan159" fill="#fff" font-family="FreesiaUPC" font-size="7.5" x="136.17" y="66.33">I</tspan></text><text id="text161" style="font-size:12.5;font-family:sans-serif;letter-spacing:0;word-spacing:0;fill:#fff;shape-rendering:crispEdges" x="107.5" y="92.934"><tspan id="tspan163" fill="#fff" font-family="FreesiaUPC" font-size="7.5" x="107.5" y="92.934">O</tspan></text></g><circle id="circle165" cx="136.6" cy="92.2" r="25.25" style="fill:#575d5e;stroke:#363636;stroke-width:.5;stroke-linecap:round;stroke-linejoin:round;shape-rendering:crispEdges"/><rect id="rect167" height="42" rx="21" style="fill:#575d5e;stroke:#333;stroke-width:.5;stroke-linecap:round;stroke-linejoin:round;shape-rendering:crispEdges" width="116" x="115.6" y="71.2"/><path id="path169" d="m184.05 91.75c0-5.401-4.38-9.75-9.81-9.75h-38.47-.11-5.6c-2.33 0-4.21 1.45-4.21 3.25v6.5 6.5c0 1.8 1.88 3.25 4.21 3.25h5.6.11 38.47c5.43 0 9.81-4.348 9.81-9.75z" style="fill:none;stroke:#363636;stroke-width:.5;stroke-linecap:round;stroke-linejoin:bevel;shape-rendering:crispEdges"/><path id="path171" d="m113.85 91.75c0 5.402 4.77 9.75 10.7 9.75h41.97.13 6.11c2.54 0 4.59-1.45 4.59-3.25v-6.5-6.5c0-1.8-2.05-3.25-4.59-3.25h-6.11-.13-41.97c-5.93 0-10.7 4.349-10.7 9.75z" style="fill:#fff;stroke:#999;stroke-width:.5;stroke-linecap:round;stroke-linejoin:bevel;shape-rendering:crispEdges"/><path id="path173" d="m150.6 84.868c0-1.173-.26-2.118-.57-2.118h-2.86c-.32 0-.57.945-.57 2.118v13.765c0 1.173.25 2.117.57 2.117h2.86c.31 0 .57-.944.57-2.117zm-6.45 0c0-1.173-.26-2.118-.57-2.118h-2.86c-.32 0-.57.945-.57 2.118v13.765c0 1.173.25 2.117.57 2.117h2.86c.31 0 .57-.944.57-2.117zm-6.45 0c0-1.173-.26-2.118-.57-2.118h-2.86c-.32 0-.57.945-.57 2.118v13.765c0 1.173.25 2.117.57 2.117h2.86c.31 0 .57-.944.57-2.117z" fill="#e6e6e6" shape-rendering="crispEdges"/><path id="path175" d="m116.24 97.69a22.5 22.5 0 0 1 -.68-5.49 22.5 22.5 0 0 1 1.1-6.947" style="fill:none;stroke:#999;stroke-width:.5;stroke-linecap:round;stroke-linejoin:round;shape-rendering:crispEdges"/></g><g id="g2641"><ellipse id="ellipse181" cx="236.54" cy="179.8" rx="4.75" ry="2.75" style="fill:#c7cacc;fill-rule:evenodd;stroke:#333;stroke-width:.5;stroke-linecap:round;stroke-linejoin:round;shape-rendering:crispEdges"/><text id="text183" style="font-size:12.5;font-family:sans-serif;letter-spacing:0;word-spacing:0;fill:#4d4d4d;fill-opacity:.93725;shape-rendering:crispEdges" x="234.15" y="180.48"><tspan id="tspan185" fill="#4d4d4d" fill-opacity=".93725" font-size="1.875" x="234.15" y="180.48">TEST</tspan></text></g></g><g id="motorDrive"><rect id="rect189" fill="#575d5e" height="140" shape-rendering="crispEdges" stroke="#333" stroke-width=".8" width="140" x="105" y="64"/><path id="path191" clip-path="url(#c)" d="m105.5 76.142v126.998m1.6-126.998v126.998m1.6-126.998v126.998m1.6-126.998v126.998m1.6-126.998v126.998m1.6-126.998v126.998m1.6-126.998v126.998m1.6-126.998v126.998m1.6-126.998v126.998m1.6-126.998v126.998m1.6-126.998v126.998m1.6-126.998v126.998m1.6-126.998v126.998m1.6-126.998v126.998m1.6-126.998v126.998m1.6-126.998v126.998m1.6-126.998v126.998m1.6-126.998v126.998m1.6-126.998v126.998m1.6-126.998v126.998m1.6-126.998v126.998m1.6-126.998v126.998m1.6-126.998v126.998m1.6-126.998v126.998m1.6-126.998v126.998m1.6-126.998v126.998m1.6-126.998v126.998m1.6-126.998v126.998m1.6-126.998v126.998m1.6-126.998v126.998m1.6-126.998v126.998m1.6-126.998v126.998m1.6-126.998v126.998m1.6-126.998v126.998m1.6-126.998v126.998m1.6-126.998v126.998m1.6-126.998v126.998m1.6-126.998v126.998m1.6-126.998v126.998m1.6-126.998v126.998m1.6-126.998v126.998m1.6-126.998v126.998m1.6-126.998v126.998m1.6-126.998v126.998m1.6-126.998v126.998m1.6-126.998v126.998m1.6-126.998v126.998m1.6-126.998v126.998m1.6-126.998v126.998m1.6-126.998v126.998m1.6-126.998v126.998m1.6-126.998v126.998m1.6-126.998v126.998m1.6-126.998v126.998m1.6-126.998v126.998m1.6-126.998v126.998m1.6-126.998v126.998m1.6-126.998v126.998m1.6-126.998v126.998m1.6-126.998v126.998m1.6-126.998v126.998m1.6-126.998v126.998m1.6-126.998v126.998m1.6-126.998v126.998m1.6-126.998v126.998m1.6-126.998v126.998m1.6-126.998v126.998m1.6-126.998v126.998m1.6-126.998v126.998m1.6-126.998v126.998m1.6-126.998v126.998m1.6-126.998v126.998m1.6-126.998v126.998m1.6-126.998v126.998m1.6-126.998v126.998m1.6-126.998v126.998m1.6-126.998v126.998m1.6-126.998v126.998m1.6-126.998v126.998m1.6-126.998v126.998m1.6-126.998v126.998m1.6-126.998v126.998m1.6-126.998v126.998m1.6-126.998v126.998m1.6-126.998v126.998m1.6-126.998v126.998m1.6-126.998v126.998m-137.6-126.998h139m-139 1.6h139m-139 1.6h139m-139 1.6h139m-139 1.6h139m-139 1.6h139m-139 1.6h139m-139 1.6h139m-139 1.6h139m-139 1.6h139m-139 1.6h139m-139 1.6h139m-139 1.6h139m-139 1.6h139m-139 1.6h139m-139 1.598h139m-139 1.6h139m-139 1.6h139m-139 1.6h139m-139 1.6h139m-139 1.6h139m-139 1.6h139m-139 1.6h139m-139 1.6h139m-139 1.6h139m-139 1.6h139m-139 1.6h139m-139 1.6h139m-139 1.6h139m-139 1.6h139m-139 1.6h139m-139 1.6h139m-139 1.6h139m-139 1.6h139m-139 1.6h139m-139 1.6h139m-139 1.6h139m-139 1.6h139m-139 1.6h139m-139 1.6h139m-139 1.6h139m-139 1.6h139m-139 1.6h139m-139 1.6h139m-139 1.6h139m-139 1.6h139m-139 1.6h139m-139 1.6h139m-139 1.6h139m-139 1.6h139m-139 1.6h139m-139 1.6h139m-139 1.6h139m-139 1.6h139m-139 1.6h139m-139 1.6h139m-139 1.6h139m-139 1.6h139m-139 1.6h139m-139 1.6h139m-139 1.6h139m-139 1.6h139m-139 1.6h139m-139 1.6h139m-139 1.6h139m-139 1.6h139m-139 1.6h139m-139 1.6h139m-139 1.6h139m-139 1.6h139m-139 1.6h139m-139 1.6h139m-139 1.6h139m-139 1.6h139m-139 1.6h139m-139 1.6h139m-139 1.6h139m-139 1.6h139m-139 1.6h139m-139 1.6h139m-139-126.398h139v126.998h-139z" fill="#4d4d4d" fill-rule="evenodd" stroke="#575d5e" stroke-width=".4pt"/><g id="g2729"><rect id="rect195" fill="#f00" height="17.5" shape-rendering="crispEdges" stroke="#333" stroke-width=".5" width="17.5" x="193.67" y="98"/><circle id="circle197" cx="202.42" cy="106.75" fill="none" r="3.6" shape-rendering="crispEdges" stroke="#fff"/></g><g id="g2737"><rect id="rect201" fill="#007b00" height="17.5" shape-rendering="crispEdges" stroke="#333" stroke-width=".5" width="17.5" x="145.67" y="98"/><text id="text203" style="font-weight:bold;font-size:10.8;font-family:Arial;letter-spacing:0;word-spacing:0;fill:#fff;shape-rendering:crispEdges" x="152.9" y="110.62"><tspan id="tspan205" x="152.9" y="110.62">I</tspan></text></g><g id="g2763"><rect id="rect209" fill="#c7c9cc" height="8.5" rx=".5" shape-rendering="crispEdges" stroke="#333" stroke-width=".5" width="18.5" x="193.42" y="161.16"/><rect id="rect211" fill="none" height="7" rx=".25" shape-rendering="crispEdges" stroke="#000" stroke-width=".25" width="3" x="205.17" y="161.91"/></g><g id="g2743"><rect id="rect215" fill="#5b5e60" height="93" rx="1" ry="1.1273" shape-rendering="crispEdges" stroke="#1a1a1a" stroke-width="1.5" width="14.5" x="112.54" y="99.665"/><path id="path217" d="m113.29 162.7c0-.71.18 1.87 1.53 3.05 1.36 1.18 3.73.97 4.81.97 1.09 0 3.48.21 4.83-.97s1.84-3.76 1.83-3.05v17.65c-1.86-.41-.64 2.07-3.07 2.71-2.43.65-9.93 0-9.93 0z" fill="#333" shape-rendering="crispEdges"/></g><path id="path221" d="m148.52 139h10.96" style="fill:none;stroke:#fff;stroke-width:.8;stroke-linecap:round;stroke-dasharray:1.6 1.6;shape-rendering:crispEdges"/><g id="g2779"><rect id="rect225" fill="#fff" height="6.5" shape-rendering="crispEdges" stroke="#333" stroke-width=".5" width="18" x="145.42" y="138.44"/><path id="path227" d="m148.93 141.69h10.97" style="fill:none;stroke:#000;stroke-width:.8;stroke-linecap:round;stroke-dasharray:1.6 1.6;shape-rendering:crispEdges"/></g><g id="g2773"><rect id="rect231" fill="#fff" height="6.5" shape-rendering="crispEdges" stroke="#333" stroke-width=".5" width="18" x="193.42" y="138.44"/><circle id="circle233" cx="196.42" cy="141.69" fill="none" r="1.5" shape-rendering="crispEdges" stroke="#000" stroke-width=".5"/><path id="path235" d="m201.74 141.69h5.61" style="fill:none;stroke:#000;stroke-width:.8;stroke-linecap:round;stroke-dasharray:1.6 1.6;shape-rendering:crispEdges"/></g><g id="g2757"><path id="path239" d="m105.4 75.4h139.2" fill="none" shape-rendering="crispEdges" stroke="#fff"/><rect id="rect241" fill="#bb1e10" height="10.5" shape-rendering="crispEdges" width="139.2" x="105.4" y="64.4"/><path id="path243" d="m112.02 65.65-1.05 3.92h2.17v-3.92zm1.28 0v3.92h2.17l-1.05-3.92zm4.48 0v3.92h2.32v-3.92zm2.48 0v3.92h2.43a2.4 2.4 0 0 0 -.83-.551 1.8 1.8 0 0 0  .92-1.569 1.8 1.8 0 0 0 -1.8-1.8zm3.76 0v3.92h2.32v-3.92zm2.48 0v3.92h2.43a2.4 2.4 0 0 0 -.83-.551 1.8 1.8 0 0 0  .92-1.569 1.8 1.8 0 0 0 -1.8-1.8zm-15.57 4.08-1.05 3.92h2l .42-1.6h.84v-2.32zm2.37 0v2.32h.84l.42 1.6h2l-1.05-3.92zm4.48 0v3.92h2.32v-3.92zm2.48 0v3.92h.72a2.4 2.4 0 0 0 2.4-2.4 2.4 2.4 0 0 0 -.55-1.52zm3.76 0v3.92h2.32v-3.92zm2.48 0v3.92h.72a2.4 2.4 0 0 0 2.4-2.4 2.4 2.4 0 0 0 -.55-1.52z" fill="#fff" shape-rendering="crispEdges"/><text id="text245" style="font-weight:bold;font-size:5.39302;font-family:sans-serif;letter-spacing:0;word-spacing:0;fill:#fff;shape-rendering:crispEdges" x="202.44" y="72.321"><tspan id="tspan247" fill="#fff" font-family="sans-serif" font-size="7.5" font-weight="bold" x="202.44" y="72.321">TMax T6</tspan><tspan id="tspan249" fill="#fff" x="202.44" y="72.321"/></text></g><path id="path251" d="m197.18 174.3h10.97" style="fill:none;stroke:#fff;stroke-width:.8;stroke-linecap:round;stroke-dasharray:1.6 1.6;shape-rendering:crispEdges"/><rect id="rect2765" height="4" style="fill:#c7c9cc;stroke:#333;stroke-width:.5;stroke-linecap:round;stroke-linejoin:round;shape-rendering:crispEdges" width="27.5" x="211.17" y="191.83"/></g><g id="rockerLever"><rect id="rect255" fill="#575d5e" height="105" shape-rendering="crispEdges" stroke="#333" stroke-width=".8" width="140" x="105" y="72.75"/><path id="path257" clip-path="url(#d)" d="m108 84.682v91.998m1.6-91.998v91.998m1.6-91.998v91.998m1.6-91.998v91.998m1.6-91.998v91.998m1.6-91.998v91.998m1.6-91.998v91.998m1.6-91.998v91.998m1.6-91.998v91.998m1.6-91.998v91.998m1.6-91.998v91.998m1.6-91.998v91.998m1.6-91.998v91.998m1.6-91.998v91.998m1.6-91.998v91.998m1.6-91.998v91.998m1.6-91.998v91.998m1.6-91.998v91.998m1.6-91.998v91.998m1.6-91.998v91.998m1.6-91.998v91.998m1.6-91.998v91.998m1.6-91.998v91.998m1.6-91.998v91.998m1.6-91.998v91.998m1.6-91.998v91.998m1.6-91.998v91.998m1.6-91.998v91.998m1.6-91.998v91.998m1.6-91.998v91.998m1.6-91.998v91.998m1.6-91.998v91.998m1.6-91.998v91.998m1.6-91.998v91.998m1.6-91.998v91.998m1.6-91.998v91.998m1.6-91.998v91.998m1.6-91.998v91.998m1.6-91.998v91.998m1.6-91.998v91.998m1.6-91.998v91.998m1.6-91.998v91.998m1.6-91.998v91.998m1.6-91.998v91.998m1.6-91.998v91.998m1.6-91.998v91.998m1.6-91.998v91.998m1.6-91.998v91.998m1.6-91.998v91.998m1.6-91.998v91.998m1.6-91.998v91.998m1.6-91.998v91.998m1.6-91.998v91.998m1.6-91.998v91.998m1.6-91.998v91.998m1.6-91.998v91.998m1.6-91.998v91.998m1.6-91.998v91.998m1.6-91.998v91.998m1.6-91.998v91.998m1.6-91.998v91.998m1.6-91.998v91.998m1.6-91.998v91.998m1.6-91.998v91.998m1.6-91.998v91.998m1.6-91.998v91.998m1.6-91.998v91.998m1.6-91.998v91.998m1.6-91.998v91.998m1.6-91.998v91.998m1.6-91.998v91.998m1.6-91.998v91.998m1.6-91.998v91.998m1.6-91.998v91.998m1.6-91.998v91.998m1.6-91.998v91.998m1.6-91.998v91.998m1.6-91.998v91.998m1.6-91.998v91.998m1.6-91.998v91.998m1.6-91.998v91.998m1.6-91.998v91.998m1.6-91.998v91.998m1.6-91.998v91.998m-132.8-91.998h134m-134 1.6h134m-134 1.6h134m-134 1.6h134m-134 1.6h134m-134 1.6h134m-134 1.6h134m-134 1.6h134m-134 1.6h134m-134 1.6h134m-134 1.598h134m-134 1.6h134m-134 1.6h134m-134 1.6h134m-134 1.6h134m-134 1.6h134m-134 1.6h134m-134 1.6h134m-134 1.6h134m-134 1.6h134m-134 1.6h134m-134 1.6h134m-134 1.6h134m-134 1.6h134m-134 1.6h134m-134 1.6h134m-134 1.6h134m-134 1.6h134m-134 1.6h134m-134 1.6h134m-134 1.6h134m-134 1.6h134m-134 1.6h134m-134 1.6h134m-134 1.6h134m-134 1.6h134m-134 1.6h134m-134 1.6h134m-134 1.6h134m-134 1.6h134m-134 1.6h134m-134 1.6h134m-134 1.6h134m-134 1.6h134m-134 1.6h134m-134 1.6h134m-134 1.6h134m-134 1.6h134m-134 1.6h134m-134 1.6h134m-134 1.6h134m-134 1.6h134m-134 1.6h134m-134 1.6h134m-134 1.6h134m-134 1.6h134m-134 1.6h134m-134 1.6h134m-134-91.198h134v91.998h-134z" fill="#4d4d4d" fill-rule="evenodd" stroke="#575d5e" stroke-width=".4pt"/><rect id="rect259" fill="#2b6138" height="7.5" shape-rendering="crispEdges" width="28.25" x="146.5" y="135.54"/><rect id="rect261" fill="#ff0" fill-opacity=".58209" height="7.5" shape-rendering="crispEdges" width="28.25" x="175.25" y="135.54"/><g id="g2858"><rect id="rect267" fill="#f00" fill-opacity=".39216" height="7.5" shape-rendering="crispEdges" width="56.5" x="146.75" y="122.5"/><text id="text269" style="font-size:12.5;font-family:sans-serif;letter-spacing:0;word-spacing:0;fill:#fff;shape-rendering:crispEdges" x="153.69" y="129.1"><tspan id="tspan271" font-size="7.5" x="153.69" y="129.1">l</tspan></text><text id="text273" style="font-size:12.5;font-family:sans-serif;letter-spacing:0;word-spacing:0;fill:#fff;shape-rendering:crispEdges" x="190.93" y="128.3"><tspan id="tspan275" font-size="7.5" x="190.93" y="128.3">on</tspan></text></g><g id="g2868"><rect id="rect279" fill="#008000" fill-opacity=".39216" height="7.5" shape-rendering="crispEdges" width="56.5" x="146.75" y="158.16"/><circle id="circle281" cx="154.45" cy="161.91" fill="none" r="2.5" shape-rendering="crispEdges" stroke="#fff" stroke-width=".5"/><text id="text283" style="font-size:12.5;font-family:sans-serif;letter-spacing:0;word-spacing:0;fill:#fff;shape-rendering:crispEdges" x="190.66" y="164.72"><tspan id="tspan285" font-size="7.5" x="190.66" y="164.72">off</tspan></text></g><g id="g2874"><rect id="rect289" fill="#d4d5df" height="43" shape-rendering="crispEdges" stroke="#333" stroke-width=".5" width="25" x="162.5" y="122.5"/><path id="path291" d="m163.75 144.36h22.5c.28 0 .51.29.5.65l-.3 15.95-.7 15.94c0 .36-1.22.66-1.5.66h-18.5c-.28 0-1.48-.3-1.5-.66 0 0-.53-10.63-.7-15.94-.17-5.32-.3-15.95-.3-15.95 0-.36.22-.65.5-.65z" fill="#d4d5df" shape-rendering="crispEdges" stroke="#808080" stroke-width=".5"/></g><g id="g2904"><rect id="rect295" fill="#bb1e10" height="10.5" shape-rendering="crispEdges" width="139.2" x="105.4" y="73.15"/><text id="text297" style="font-weight:bold;font-size:5.39302;font-family:sans-serif;letter-spacing:0;word-spacing:0;fill:#fff;shape-rendering:crispEdges" x="205.09" y="81.072"><tspan id="tspan299" fill="#fff" font-family="sans-serif" font-size="7.5" font-weight="bold" x="205.09" y="81.072">TMax T6</tspan><tspan id="tspan301" fill="#fff" x="205.09" y="81.072"/></text><path id="path303" d="m111.54 74.4-1.05 3.92h2.17v-3.92zm1.28 0v3.92h2.16l-1.05-3.92zm4.48 0v3.92h2.32v-3.92zm2.48 0v3.92h2.42a2.4 2.4 0 0 0 -.83-.551 1.8 1.8 0 0 0  .93-1.569 1.8 1.8 0 0 0 -1.8-1.8zm3.76 0v3.92h2.32v-3.92zm2.48 0v3.92h2.42a2.4 2.4 0 0 0 -.83-.551 1.8 1.8 0 0 0  .93-1.569 1.8 1.8 0 0 0 -1.8-1.8zm-15.57 4.08-1.05 3.92h2l .42-1.6h.84v-2.32zm2.37 0v2.32h.83l.43 1.6h2l-1.05-3.92zm4.48 0v3.92h2.32v-3.92zm2.48 0v3.92h.72a2.4 2.4 0 0 0 2.4-2.4 2.4 2.4 0 0 0 -.55-1.52zm3.76 0v3.92h2.32v-3.92zm2.48 0v3.92h.72a2.4 2.4 0 0 0 2.4-2.4 2.4 2.4 0 0 0 -.55-1.52z" fill="#fff" shape-rendering="crispEdges"/><path id="path305" d="m105.4 84.15h139.2" fill="none" shape-rendering="crispEdges" stroke="#fff"/></g><g id="g2882"><rect id="rect309" fill="#d4d5df" height="5" rx=".45745" ry=".5" shape-rendering="crispEdges" stroke="#808080" stroke-width=".5" width="21.5" x="164.25" y="172.56"/><ellipse id="ellipse311" cx="168" cy="175.3" fill="#4d4d4d" rx="1.0646" ry="1.2421" stroke="#808080" stroke-linecap="round" stroke-linejoin="round" stroke-width=".25"/><ellipse id="ellipse313" cx="182" cy="175.3" fill="#4d4d4d" rx="1.0646" ry="1.2421" stroke="#808080" stroke-linecap="round" stroke-linejoin="round" stroke-width=".25"/></g><g id="g2890"><ellipse id="ellipse317" cx="236" cy="170.75" rx="4.75" ry="2.75" style="fill:#c7cacc;fill-rule:evenodd;stroke:#333;stroke-width:.5;stroke-linecap:round;stroke-linejoin:round;shape-rendering:crispEdges"/><text id="text319" style="font-size:12.5;font-family:sans-serif;letter-spacing:0;word-spacing:0;fill:#4d4d4d;fill-opacity:.93725;shape-rendering:crispEdges" x="233.61" y="171.43"><tspan id="tspan321" fill="#4d4d4d" fill-opacity=".93725" font-size="1.875" x="233.61" y="171.43">TEST</tspan></text></g></g></g></svg>