<svg id="svg2" height="328.5" overflow="visible" viewBox="0 0 1550 328.5" width="1550" xmlns="http://www.w3.org/2000/svg"><g id="layer1" stroke="#000"><g id="cornerLT" stroke-width=".80000001"><rect id="rect1" fill="#c0c0c0" height="29.5" ry="3" width="29.5" x="1.5" y="1.5"/><circle id="circle1" cx="15" cy="15" fill="#e0e0e0" r="4.5" stroke-linecap="round" stroke-linejoin="round"/></g><g id="cornerRT" stroke-width=".80000001"><rect id="rect1-1-6-9-5" fill="#c0c0c0" height="29.5" ry="3" width="29.5" x="1269" y="1.5"/><circle id="circle1-9-8-5-5" cx="1285" cy="15" fill="#e0e0e0" r="4.5" stroke-linecap="round" stroke-linejoin="round"/></g><g id="cornerLB" stroke-width=".80000001"><rect id="rect1-1-67" fill="#c0c0c0" height="29.5" ry="3" width="29.5" x="1.5" y="297.5"/><circle id="circle1-9-5" cx="15" cy="313.5" fill="#e0e0e0" r="4.5" stroke-linecap="round" stroke-linejoin="round"/></g><g id="cornerRB" stroke-width=".80000001"><rect id="rect1-1-6-9-5-6-6" fill="#c0c0c0" height="29.5" ry="3" width="29.5" x="1269" y="297.5"/><circle id="circle1-9-8-5-5-9-4" cx="1285" cy="313.5" fill="#e0e0e0" r="4.5" stroke-linecap="round" stroke-linejoin="round"/></g><g id="coverLeft" stroke-width=".80000001"><g id="coverLeft350"><rect id="rect5" fill="#575d5e" height="320.5" width="1.5" y="3.5999999"/><rect id="rect6" fill="#575d5e" height="265.5" width="26" y="31.1"/><rect id="rect7" fill="#c0c0c0" height="265.5" width="10.5" x="15.5" y="31.1"/><circle id="circle1-3-1-8-8-8-0" cx="20.799999" cy="94.650002" fill="#e0e0e0" r="2.7" stroke-linecap="round" stroke-linejoin="round"/><circle id="circle1-3-3-5-8" cx="20.799999" cy="107.15" fill="#e0e0e0" r="2.5999999" stroke-linecap="round" stroke-linejoin="round"/><circle id="circle1-3-1-7-0-3-3" cx="20.799999" cy="119.65" fill="#e0e0e0" r="2.7" stroke-linecap="round" stroke-linejoin="round"/><circle id="circle1-3-1-8-2-4-3-4" cx="20.799999" cy="132.14999" fill="#e0e0e0" r="2.7" stroke-linecap="round" stroke-linejoin="round"/><circle id="circle1-3-1-9-7-9-3-3" cx="20.799999" cy="69.650002" fill="#e0e0e0" r="2.7" stroke-linecap="round" stroke-linejoin="round"/><circle id="circle1-3-1-8-2-9-88-6-7" cx="20.799999" cy="57.150002" fill="#e0e0e0" r="2.7" stroke-linecap="round" stroke-linejoin="round"/><circle id="circle1-3-1-7-4-0-9-1-1" cx="20.799999" cy="82.150002" fill="#e0e0e0" r="2.7" stroke-linecap="round" stroke-linejoin="round"/><circle id="circle1-3-1-8-2-9-8-3-1-0" cx="20.799999" cy="44.650002" fill="#e0e0e0" r="2.7" stroke-linecap="round" stroke-linejoin="round"/><circle id="circle1-3-1-9-8-0-6" cx="20.799999" cy="144.64999" fill="#e0e0e0" r="2.7" stroke-linecap="round" stroke-linejoin="round"/><circle id="circle1-3-1-7-4-1-4-76" cx="20.799999" cy="157.14999" fill="#e0e0e0" r="2.7" stroke-linecap="round" stroke-linejoin="round"/><circle id="circle1-3-1-7-0-3-0-4" cx="20.799999" cy="169.64999" fill="#e0e0e0" r="2.7" stroke-linecap="round" stroke-linejoin="round"/><circle id="circle1-3-1-9-8-0-8-55" cx="20.799999" cy="194.64999" fill="#e0e0e0" r="2.7" stroke-linecap="round" stroke-linejoin="round"/><circle id="circle1-3-1-8-2-4-3-8-9" cx="20.799999" cy="182.14999" fill="#e0e0e0" r="2.7" stroke-linecap="round" stroke-linejoin="round"/><circle id="circle1-3-1-7-4-1-4-3-19" cx="20.799999" cy="207.14999" fill="#e0e0e0" r="2.7" stroke-linecap="round" stroke-linejoin="round"/><circle id="circle1-3-1-9-8-0-4-6" cx="20.799999" cy="220.55" fill="#e0e0e0" r="2.7" stroke-linecap="round" stroke-linejoin="round"/><circle id="circle1-3-1-7-4-1-4-38-0" cx="20.799999" cy="233.05" fill="#e0e0e0" r="2.7" stroke-linecap="round" stroke-linejoin="round"/><circle id="circle1-3-1-7-0-3-0-3-4" cx="20.799999" cy="245.55" fill="#e0e0e0" r="2.7" stroke-linecap="round" stroke-linejoin="round"/><circle id="circle1-3-1-9-8-0-8-5-6" cx="20.799999" cy="270.54999" fill="#e0e0e0" r="2.7" stroke-linecap="round" stroke-linejoin="round"/><circle id="circle1-3-1-8-2-4-3-8-1-4" cx="20.799999" cy="258.04999" fill="#e0e0e0" r="2.7" stroke-linecap="round" stroke-linejoin="round"/><circle id="circle1-3-1-7-4-1-4-3-1-7" cx="20.799999" cy="283.04999" fill="#e0e0e0" r="2.7" stroke-linecap="round" stroke-linejoin="round"/></g><g id="coverLeft275"><rect id="rect5-8" fill="#575d5e" height="245.5" width="1.5" y="79"/><rect id="rect6-4" fill="#575d5e" height="190.5" width="26" y="106.5"/><rect id="rect7-9" fill="#c0c0c0" height="190.5" width="10.5" x="15.5" y="106.5"/><circle id="circle1-3-1-8-8-8-8" cx="20.799999" cy="170.5" fill="#e0e0e0" r="2.7" stroke-linecap="round" stroke-linejoin="round"/><circle id="circle1-3-3-5-1" cx="20.799999" cy="183" fill="#e0e0e0" r="2.5999999" stroke-linecap="round" stroke-linejoin="round"/><circle id="circle1-3-1-7-0-3-4" cx="20.799999" cy="195.5" fill="#e0e0e0" r="2.7" stroke-linecap="round" stroke-linejoin="round"/><circle id="circle1-3-1-8-2-4-3-3" cx="20.799999" cy="208" fill="#e0e0e0" r="2.7" stroke-linecap="round" stroke-linejoin="round"/><circle id="circle1-3-1-9-7-9-3-6" cx="20.799999" cy="145.5" fill="#e0e0e0" r="2.7" stroke-linecap="round" stroke-linejoin="round"/><circle id="circle1-3-1-8-2-9-88-6-9" cx="20.799999" cy="133" fill="#e0e0e0" r="2.7" stroke-linecap="round" stroke-linejoin="round"/><circle id="circle1-3-1-7-4-0-9-1-3" cx="20.799999" cy="158" fill="#e0e0e0" r="2.7" stroke-linecap="round" stroke-linejoin="round"/><circle id="circle1-3-1-8-2-9-8-3-1-9" cx="20.799999" cy="120.5" fill="#e0e0e0" r="2.7" stroke-linecap="round" stroke-linejoin="round"/><circle id="circle1-3-1-9-8-0-3" cx="20.799999" cy="220.5" fill="#e0e0e0" r="2.7" stroke-linecap="round" stroke-linejoin="round"/><circle id="circle1-3-1-7-4-1-4-7" cx="20.799999" cy="233" fill="#e0e0e0" r="2.7" stroke-linecap="round" stroke-linejoin="round"/><circle id="circle1-3-1-7-0-3-0-0" cx="20.799999" cy="245.5" fill="#e0e0e0" r="2.7" stroke-linecap="round" stroke-linejoin="round"/><circle id="circle1-3-1-9-8-0-8-4" cx="20.799999" cy="270.5" fill="#e0e0e0" r="2.7" stroke-linecap="round" stroke-linejoin="round"/><circle id="circle1-3-1-8-2-4-3-8-3" cx="20.799999" cy="258" fill="#e0e0e0" r="2.7" stroke-linecap="round" stroke-linejoin="round"/><circle id="circle1-3-1-7-4-1-4-3-6" cx="20.799999" cy="283" fill="#e0e0e0" r="2.7" stroke-linecap="round" stroke-linejoin="round"/></g><g id="coverLeft225"><rect id="rect5-8-8" fill="#575d5e" height="195.5" width="1.5" x=".000049" y="129.39999"/><rect id="rect6-4-6" fill="#575d5e" height="140.5" width="26" x=".000049" y="156.89999"/><rect id="rect7-9-2" fill="#c0c0c0" height="140.5" width="10.5" x="15.5" y="156.89999"/><circle id="circle1-3-3" cx="20.799999" cy="233.39999" fill="#e0e0e0" r="2.5999999" stroke-linecap="round" stroke-linejoin="round"/><circle id="circle1-3-1-8-8" cx="20.799999" cy="220.89999" fill="#e0e0e0" r="2.7" stroke-linecap="round" stroke-linejoin="round"/><circle id="circle1-3-1-7-0" cx="20.799999" cy="245.89999" fill="#e0e0e0" r="2.7" stroke-linecap="round" stroke-linejoin="round"/><circle id="circle1-3-1-9-8" cx="20.799999" cy="270.89999" fill="#e0e0e0" r="2.7" stroke-linecap="round" stroke-linejoin="round"/><circle id="circle1-3-1-8-2-4" cx="20.799999" cy="258.39999" fill="#e0e0e0" r="2.7" stroke-linecap="round" stroke-linejoin="round"/><circle id="circle1-3-1-7-4-1" cx="20.799999" cy="283.39999" fill="#e0e0e0" r="2.7" stroke-linecap="round" stroke-linejoin="round"/><circle id="circle1-3-1-9-7-9" cx="20.799999" cy="195.89999" fill="#e0e0e0" r="2.7" stroke-linecap="round" stroke-linejoin="round"/><circle id="circle1-3-1-8-2-9-88" cx="20.799999" cy="183.39999" fill="#e0e0e0" r="2.7" stroke-linecap="round" stroke-linejoin="round"/><circle id="circle1-3-1-7-4-0-9" cx="20.799999" cy="208.39999" fill="#e0e0e0" r="2.7" stroke-linecap="round" stroke-linejoin="round"/><circle id="circle1-3-1-8-2-9-8-3" cx="20.799999" cy="170.89999" fill="#e0e0e0" r="2.7" stroke-linecap="round" stroke-linejoin="round"/></g></g><g id="coverTop" fill="#575d5e"><rect id="coverTopFront" height="1.5" width="1292" x="4"/><rect id="coverTopBack" height="25" width="1237" x="31.5"/></g><g id="coverRight" stroke-width=".80000001"><g id="coverRight350"><rect id="rect3" fill="#575d5e" height="320.5" width="1.5" x="1298.5" y="4"/><rect id="rect2" fill="#575d5e" height="265.5" width="26" x="1274" y="31.5"/><rect id="rect4" fill="#c0c0c0" height="265.5" width="10.5" x="1274" y="31.5"/><circle id="circle1-3-1-8-8-8" cx="1279.2" cy="95.050003" fill="#e0e0e0" r="2.7" stroke-linecap="round" stroke-linejoin="round"/><circle id="circle1-3-3-5" cx="1279.2" cy="107.55" fill="#e0e0e0" r="2.5999999" stroke-linecap="round" stroke-linejoin="round"/><circle id="circle1-3-1-7-0-3" cx="1279.2" cy="120.05" fill="#e0e0e0" r="2.7" stroke-linecap="round" stroke-linejoin="round"/><circle id="circle1-3-1-8-2-4-3" cx="1279.2" cy="132.55" fill="#e0e0e0" r="2.7" stroke-linecap="round" stroke-linejoin="round"/><circle id="circle1-3-1-9-7-9-3" cx="1279.2" cy="70.050003" fill="#e0e0e0" r="2.7" stroke-linecap="round" stroke-linejoin="round"/><circle id="circle1-3-1-8-2-9-88-6" cx="1279.2" cy="57.549999" fill="#e0e0e0" r="2.7" stroke-linecap="round" stroke-linejoin="round"/><circle id="circle1-3-1-7-4-0-9-1" cx="1279.2" cy="82.550003" fill="#e0e0e0" r="2.7" stroke-linecap="round" stroke-linejoin="round"/><circle id="circle1-3-1-8-2-9-8-3-1" cx="1279.2" cy="45.049999" fill="#e0e0e0" r="2.7" stroke-linecap="round" stroke-linejoin="round"/><circle id="circle1-3-1-9-8-0" cx="1279.2" cy="145.05" fill="#e0e0e0" r="2.7" stroke-linecap="round" stroke-linejoin="round"/><circle id="circle1-3-1-7-4-1-4" cx="1279.2" cy="157.55" fill="#e0e0e0" r="2.7" stroke-linecap="round" stroke-linejoin="round"/><circle id="circle1-3-1-7-0-3-0" cx="1279.2" cy="170.05" fill="#e0e0e0" r="2.7" stroke-linecap="round" stroke-linejoin="round"/><circle id="circle1-3-1-9-8-0-8" cx="1279.2" cy="195.05" fill="#e0e0e0" r="2.7" stroke-linecap="round" stroke-linejoin="round"/><circle id="circle1-3-1-8-2-4-3-8" cx="1279.2" cy="182.55" fill="#e0e0e0" r="2.7" stroke-linecap="round" stroke-linejoin="round"/><circle id="circle1-3-1-7-4-1-4-3" cx="1279.2" cy="207.55" fill="#e0e0e0" r="2.7" stroke-linecap="round" stroke-linejoin="round"/><circle id="circle1-3-1-9-8-0-4" cx="1279.2" cy="220.95" fill="#e0e0e0" r="2.7" stroke-linecap="round" stroke-linejoin="round"/><circle id="circle1-3-1-7-4-1-4-38" cx="1279.2" cy="233.45" fill="#e0e0e0" r="2.7" stroke-linecap="round" stroke-linejoin="round"/><circle id="circle1-3-1-7-0-3-0-3" cx="1279.2" cy="245.95" fill="#e0e0e0" r="2.7" stroke-linecap="round" stroke-linejoin="round"/><circle id="circle1-3-1-9-8-0-8-5" cx="1279.2" cy="270.95001" fill="#e0e0e0" r="2.7" stroke-linecap="round" stroke-linejoin="round"/><circle id="circle1-3-1-8-2-4-3-8-1" cx="1279.2" cy="258.45001" fill="#e0e0e0" r="2.7" stroke-linecap="round" stroke-linejoin="round"/><circle id="circle1-3-1-7-4-1-4-3-1" cx="1279.2" cy="283.45001" fill="#e0e0e0" r="2.7" stroke-linecap="round" stroke-linejoin="round"/></g><g id="coverRight275"><rect id="rect3-4" fill="#575d5e" height="245.5" width="1.5" x="1298.5" y="79"/><rect id="rect2-1" fill="#575d5e" height="190.5" width="26" x="1274" y="106.5"/><rect id="rect4-2" fill="#c0c0c0" height="190.5" width="10.5" x="1274" y="106.5"/><circle id="circle1-3-1-8-8-8-8-6" cx="1279.2" cy="170.5" fill="#e0e0e0" r="2.7" stroke-linecap="round" stroke-linejoin="round"/><circle id="circle1-3-3-5-1-2" cx="1279.2" cy="183" fill="#e0e0e0" r="2.5999999" stroke-linecap="round" stroke-linejoin="round"/><circle id="circle1-3-1-7-0-3-4-5" cx="1279.2" cy="195.5" fill="#e0e0e0" r="2.7" stroke-linecap="round" stroke-linejoin="round"/><circle id="circle1-3-1-8-2-4-3-3-5" cx="1279.2" cy="208" fill="#e0e0e0" r="2.7" stroke-linecap="round" stroke-linejoin="round"/><circle id="circle1-3-1-9-7-9-3-6-7" cx="1279.2" cy="145.5" fill="#e0e0e0" r="2.7" stroke-linecap="round" stroke-linejoin="round"/><circle id="circle1-3-1-8-2-9-88-6-9-8" cx="1279.2" cy="133" fill="#e0e0e0" r="2.7" stroke-linecap="round" stroke-linejoin="round"/><circle id="circle1-3-1-7-4-0-9-1-3-7" cx="1279.2" cy="158" fill="#e0e0e0" r="2.7" stroke-linecap="round" stroke-linejoin="round"/><circle id="circle1-3-1-8-2-9-8-3-1-9-2" cx="1279.2" cy="120.5" fill="#e0e0e0" r="2.7" stroke-linecap="round" stroke-linejoin="round"/><circle id="circle1-3-1-9-8-0-3-0" cx="1279.2" cy="220.5" fill="#e0e0e0" r="2.7" stroke-linecap="round" stroke-linejoin="round"/><circle id="circle1-3-1-7-4-1-4-7-1" cx="1279.2" cy="233" fill="#e0e0e0" r="2.7" stroke-linecap="round" stroke-linejoin="round"/><circle id="circle1-3-1-7-0-3-0-0-8" cx="1279.2" cy="245.5" fill="#e0e0e0" r="2.7" stroke-linecap="round" stroke-linejoin="round"/><circle id="circle1-3-1-9-8-0-8-4-9" cx="1279.2" cy="270.5" fill="#e0e0e0" r="2.7" stroke-linecap="round" stroke-linejoin="round"/><circle id="circle1-3-1-8-2-4-3-8-3-3" cx="1279.2" cy="258" fill="#e0e0e0" r="2.7" stroke-linecap="round" stroke-linejoin="round"/><circle id="circle1-3-1-7-4-1-4-3-6-9" cx="1279.2" cy="283" fill="#e0e0e0" r="2.7" stroke-linecap="round" stroke-linejoin="round"/></g><g id="coverRight225"><rect id="rect3-4-2" fill="#575d5e" height="195.5" width="1.5" x="1298.5" y="129"/><rect id="rect2-1-8" fill="#575d5e" height="140.5" width="26" x="1274" y="156.5"/><rect id="rect4-2-3" fill="#c0c0c0" height="140.5" width="10.5" x="1274" y="156.5"/><circle id="circle1-3-3-4" cx="1279.2" cy="233" fill="#e0e0e0" r="2.5999999" stroke-linecap="round" stroke-linejoin="round"/><circle id="circle1-3-1-8-8-6" cx="1279.2" cy="220.5" fill="#e0e0e0" r="2.7" stroke-linecap="round" stroke-linejoin="round"/><circle id="circle1-3-1-7-0-8" cx="1279.2" cy="245.5" fill="#e0e0e0" r="2.7" stroke-linecap="round" stroke-linejoin="round"/><circle id="circle1-3-1-9-8-1" cx="1279.2" cy="270.5" fill="#e0e0e0" r="2.7" stroke-linecap="round" stroke-linejoin="round"/><circle id="circle1-3-1-8-2-4-5" cx="1279.2" cy="258" fill="#e0e0e0" r="2.7" stroke-linecap="round" stroke-linejoin="round"/><circle id="circle1-3-1-7-4-1-5" cx="1279.2" cy="283" fill="#e0e0e0" r="2.7" stroke-linecap="round" stroke-linejoin="round"/><circle id="circle1-3-1-9-7-9-1" cx="1279.2" cy="195.5" fill="#e0e0e0" r="2.7" stroke-linecap="round" stroke-linejoin="round"/><circle id="circle1-3-1-8-2-9-88-67" cx="1279.2" cy="183" fill="#e0e0e0" r="2.7" stroke-linecap="round" stroke-linejoin="round"/><circle id="circle1-3-1-7-4-0-9-5" cx="1279.2" cy="208" fill="#e0e0e0" r="2.7" stroke-linecap="round" stroke-linejoin="round"/><circle id="circle1-3-1-8-2-9-8-3-9" cx="1279.2" cy="170.5" fill="#e0e0e0" r="2.7" stroke-linecap="round" stroke-linejoin="round"/></g></g><g id="coverBottom" fill="#575d5e"><rect id="coverBottomFront" height="1.5" width="1292" x="4" y="327"/><rect id="coverBottomBack" height="25" width="1237" x="31.5" y="303.5"/></g><g id="traverse"><rect id="profile" fill="#c0c0c0" height="20" width="1247" x="26.5" y="160"/><g id="bracketLeft" stroke-width=".80000001"><rect id="rect21" fill="#c0c0c0" height="30" ry="1" width="20" x="15.5" y="155"/><circle id="circle1-3-1" cx="21" cy="170" fill="#e0e0e0" r="2.7" stroke-linecap="round" stroke-linejoin="round"/></g><g id="bracketRight" stroke-width=".80000001"><rect id="rect20" fill="#c0c0c0" height="30" ry="1" width="20" x="1264.5" y="155"/><circle id="circle1-3-0" cx="1279.2" cy="170" fill="#e0e0e0" r="2.7" stroke-linecap="round" stroke-linejoin="round"/></g></g></g></svg>