<svg id="svg2" height="100" overflow="visible" viewBox="0 0 1550 100" width="1550" xmlns="http://www.w3.org/2000/svg"><g id="layer1" fill-rule="evenodd" stroke="#000"><rect id="frontCover" fill="#575d5e" height="100" stroke-width="2" width="1300"/><g id="screwLT" stroke-linecap="round" stroke-linejoin="round"><circle id="path4176-6" cx="40" cy="25" fill="#ebebeb" r="6.5601001"/><path id="path4192-7" d="m42.018 28.651l-1.96-1.936-2.009 2.008-1.766-1.758 2.002-1.993-2.008-1.977 1.739-1.718 1.962 1.972 1.974-1.944 1.715 1.741-1.905 1.929 1.961 1.958z" fill="#c0c0c0"/></g><g id="screwRT" stroke-linecap="round" stroke-linejoin="round"><circle id="path4176-6-5" cx="1260" cy="25" fill="#ebebeb" r="6.5601001"/><path id="path4192-7-9" d="m1262 28.651l-1.9-1.936-2.1 2.008-1.7-1.758 2-1.993-2-1.977 1.7-1.718 2 1.972 2-1.944 1.7 1.741-1.9 1.929 1.9 1.958z" fill="#c0c0c0"/></g><g id="screwLB" stroke-linecap="round" stroke-linejoin="round"><circle id="path4176-6-1" cx="40" cy="75" fill="#ebebeb" r="6.5601001"/><path id="path4192-7-5" d="m42.018 78.651l-1.96-1.936-2.009 2.008-1.766-1.758 2.002-1.993-2.008-1.977 1.739-1.718 1.962 1.972 1.974-1.944 1.715 1.741-1.905 1.929 1.961 1.958z" fill="#c0c0c0"/></g><g id="screwRB" stroke-linecap="round" stroke-linejoin="round"><g id="g4544"><circle id="path4176-6-1-4" cx="1260" cy="75" fill="#ebebeb" r="6.5601001"/><path id="path4192-7-5-2" d="m1262 78.651l-1.9-1.936-2.1 2.008-1.7-1.758 2-1.993-2-1.977 1.7-1.718 2 1.972 2-1.944 1.7 1.741-1.9 1.929 1.9 1.958z" fill="#c0c0c0"/></g></g></g></svg>