<svg id="svg2" height="1843" viewBox="0 0 797 1843" width="797" xmlns="http://www.w3.org/2000/svg"><g id="layer1"><g id="doorLeft"><g id="hingeStripLeft"><rect id="hingeStripL" fill="#e2e2e2" fill-rule="evenodd" height="1843" stroke="#000" width="16" x="6"/><g id="hingeLT"><rect id="rect1-5" fill="#575d5e" height="49" stroke="#4d4d4d" stroke-width=".5" width="15" y="95"/><rect id="rect1-9-6" fill="#808080" height="12" stroke="#4d4d4d" stroke-width=".5" width="7" y="95"/><rect id="rect1-9-9-1" fill="#808080" height="12" stroke="#4d4d4d" stroke-width=".5" width="7" y="132"/></g><g id="hingeLM"><rect id="rect1-5-6" fill="#575d5e" height="49" stroke="#4d4d4d" stroke-width=".5" width="15" y="897"/><rect id="rect1-9-6-3" fill="#808080" height="12" stroke="#4d4d4d" stroke-width=".5" width="7" y="897"/><rect id="rect1-9-9-1-8" fill="#808080" height="12" stroke="#4d4d4d" stroke-width=".5" width="7" y="934"/></g><g id="hingeLB"><rect id="rect1-5-6-2" fill="#575d5e" height="49" stroke="#4d4d4d" stroke-width=".5" width="15" y="1699"/><rect id="rect1-9-6-3-1" fill="#808080" height="12" stroke="#4d4d4d" stroke-width=".5" width="7" y="1699"/><rect id="rect1-9-9-1-8-2" fill="#808080" height="12" stroke="#4d4d4d" stroke-width=".5" width="7" y="1736"/></g></g><g id="pane800L"><path id="pane800x650L" d="m22 0v643h700v-643zm85 85h590v473h-590z" fill="#c5c7c4" fill-rule="evenodd" stroke="#000"/><path id="pane800x800L" d="m22 0v793h700v-793zm85 85h590v623h-590z" fill="#c5c7c4" fill-rule="evenodd" stroke="#000"/><path id="pane800x950L" d="m22 0v943h700v-943zm85 85h590v773h-590z" fill="#c5c7c4" fill-rule="evenodd" stroke="#000"/><path id="pane800x1100L" d="m22 0v1093h700v-1093zm85 85h590v923h-590z" fill="#c5c7c4" fill-rule="evenodd" stroke="#000"/><path id="pane800x1250L" d="m22 0v1243h700v-1243zm85 85h590v1073h-590z" fill="#c5c7c4" fill-rule="evenodd" stroke="#000" stroke-width=".99999"/><path id="pane800x1400L" d="m22 0v1393h700v-1393zm85 85h590v1223h-590z" fill="#c5c7c4" fill-rule="evenodd" stroke="#000"/><path id="pane800x1850L" d="m22 0v1843h700v-1843zm85 85h590v1673h-590z" fill="#c5c7c4" fill-rule="evenodd" stroke="#000"/></g><g id="pane550L"><path id="pane550x650L" d="m22 0v643h450l1-643zm85 85h340v473h-340z" fill="#c5c7c4" fill-rule="evenodd" stroke="#000"/><path id="pane550x800L" d="m22 0v793h450.5v-793zm85 85h340v623h-340z" fill="#c5c7c4" fill-rule="evenodd" stroke="#000"/><path id="pane550x950L" d="m22 0v943h450v-943zm85 85h340v773h-340z" fill="#c5c7c4" fill-rule="evenodd" stroke="#000"/><path id="pane550x1100L" d="m22 0v1093h450.5v-1093zm85 85h340v923h-340z" fill="#c5c7c4" fill-rule="evenodd" stroke="#000"/><path id="pane550x1250L" d="m22 0v1243h450v-1243zm85 85h340v1073h-340z" fill="#c5c7c4" fill-rule="evenodd" stroke="#000" stroke-width=".99999"/><path id="pane550x1400L" d="m22 0v1393h450.5v-1393zm85 85h340v1223h-340z" fill="#c5c7c4" fill-rule="evenodd" stroke="#000"/><path id="pane550x1850L" d="m22 0v1843h450v-1843zm85 85h340v1673h-340z" fill="#c5c7c4" fill-rule="evenodd" stroke="#000"/></g><path id="imageLeft" d="m46.501 954.9 17.1 4.4v-9.3h-17.1zm0-5.6h17.1v-9.3l-17.1 4.5zm0-19.3h17.1v-10h-17.1zm0-10.6h17.1v-10.5a10.499 10.337 0 0 0 -2.4 3.6 7.8748 7.7531 0 0 0 -6.9-4.1 7.8748 7.7531 0 0 0 -7.8 7.9zm0-16.2h17.1v-10h-17.1zm0-10.7h17.1v-10.5a10.499 10.337 0 0 0 -2.4 3.6 7.8748 7.7531 0 0 0 -6.9-4 7.8748 7.7531 0 0 0 -7.8 7.8zm17.8 67.1 17.2 4.4v-8.6l-7-1.8v-3.6h-10.2zm0-10.3h10.2v-3.5l7-1.9v-8.6l-17.2 4.5zm0-19.3h17.2v-10h-17.2zm0-10.6h17.2v-3.1a10.499 10.337 0 0 0 -10.5-10.4 10.499 10.337 0 0 0 -6.7 2.3zm0-16.2h17.2v-10h-17.2zm0-10.7h17.2v-3.1a10.499 10.337 0 0 0 -10.5-10.4 10.499 10.337 0 0 0 -6.7 2.3z" fill="#f5f5f5"/></g><g id="doorRight"><g id="hingeStripRight"><rect id="hingeStripR" fill="#e2e2e2" fill-rule="evenodd" height="1843" stroke="#000" width="16" x="774.5"/><g id="hingeRT"><rect id="rect1" fill="#575d5e" height="49" stroke="#4d4d4d" stroke-width=".5" width="15" x="781.5" y="95"/><rect id="rect1-9" fill="#808080" height="12" stroke="#4d4d4d" stroke-width=".5" width="7" x="789.5" y="95"/><rect id="rect1-9-9" fill="#808080" height="12" stroke="#4d4d4d" stroke-width=".5" width="7" x="789.5" y="132"/></g><g id="hingeRM"><rect id="rect1-1" fill="#575d5e" height="49" stroke="#4d4d4d" stroke-width=".5" width="15" x="781.5" y="897"/><rect id="rect1-9-4" fill="#808080" height="12" stroke="#4d4d4d" stroke-width=".5" width="7" x="789.5" y="897"/><rect id="rect1-9-9-9" fill="#808080" height="12" stroke="#4d4d4d" stroke-width=".5" width="7" x="789.5" y="934"/></g><g id="hingeRB"><rect id="rect1-1-5" fill="#575d5e" height="49" stroke="#4d4d4d" stroke-width=".5" width="15" x="781.5" y="1699"/><rect id="rect1-9-4-8" fill="#808080" height="12" stroke="#4d4d4d" stroke-width=".5" width="7" x="789.5" y="1699"/><rect id="rect1-9-9-9-9" fill="#808080" height="12" stroke="#4d4d4d" stroke-width=".5" width="7" x="789.5" y="1736"/></g></g><g id="pane800R"><path id="pane800x650R" d="m75 0v643h700v-643zm25 85h590v473h-590z" fill="#c5c7c4" fill-rule="evenodd" stroke="#000"/><path id="pane800x800R" d="m75 0v793h700v-793zm25 85h590v623h-590z" fill="#c5c7c4" fill-rule="evenodd" stroke="#000"/><path id="pane800x950R" d="m75 0v943h700v-943zm25 85h590v773h-590z" fill="#c5c7c4" fill-rule="evenodd" stroke="#000"/><path id="pane800x1100R" d="m75 0v1093h700v-1093zm25 85h590v923h-590z" fill="#c5c7c4" fill-rule="evenodd" stroke="#000"/><path id="pane800x1250R" d="m75 0v1243h700v-1243zm25 85h590v1073h-590z" fill="#c5c7c4" fill-rule="evenodd" stroke="#000" stroke-width=".99999"/><path id="pane800x1400R" d="m75 0v1393h700v-1393zm25 85h590v1223h-590z" fill="#c5c7c4" fill-rule="evenodd" stroke="#000"/><path id="pane800x1850R" d="m75 0v1843h700v-1843zm25 85h590v1673h-590z" fill="#c5c7c4" fill-rule="evenodd" stroke="#000"/></g><g id="pane550R"><path id="pane550x650R" d="m75 0v643h449.5l1-643zm25 85h340v473h-340z" fill="#c5c7c4" fill-rule="evenodd" stroke="#000"/><path id="pane550x800R" d="m75 0v793h450v-793zm25 85h340v623h-340z" fill="#c5c7c4" fill-rule="evenodd" stroke="#000"/><path id="pane550x950R" d="m75 0v943h450v-943zm25 85h340v773h-340z" fill="#c5c7c4" fill-rule="evenodd" stroke="#000"/><path id="pane550x1100R" d="m75 0v1093h450v-1093zm25 85h340v923h-340z" fill="#c5c7c4" fill-rule="evenodd" stroke="#000"/><path id="pane550x1250R" d="m75 0v1243h450v-1243zm25 85h340v1073h-340z" fill="#c5c7c4" fill-rule="evenodd" stroke="#000" stroke-width=".99999"/><path id="pane550x1400R" d="m75 0v1393h450v-1393zm25 85h340v1223h-340z" fill="#c5c7c4" fill-rule="evenodd" stroke="#000"/><path id="pane500x1850R" d="m75 0v1843h450v-1843zm25 85h340v1673h-340z" fill="#c5c7c4" fill-rule="evenodd" stroke="#000"/></g><path id="imageRight" d="m749.8 888.1-17.1-4.4v9.3h17.1zm0 5.6h-17.1v9.3l17.1-4.5zm0 19.3h-17.1v10h17.1zm0 10.6h-17.1v10.5a10.499 10.337 0 0 0 2.4-3.6 7.8748 7.7531 0 0 0 6.9 4.1 7.8748 7.7531 0 0 0 7.8-7.9zm0 16.2h-17.1v10h17.1zm0 10.7h-17.1v10.5a10.499 10.337 0 0 0 2.4-3.6 7.8748 7.7531 0 0 0 6.9 4 7.8748 7.7531 0 0 0 7.8-7.8zm-17.8-67.1-17.2-4.4v8.6l7 1.8v3.6h10.2zm0 10.3h-10.2v3.5l-7 1.9v8.6l17.2-4.5zm0 19.3h-17.2v10h17.2zm0 10.6h-17.2v3.1a10.499 10.337 0 0 0 10.5 10.4 10.499 10.337 0 0 0 6.7-2.3zm0 16.2h-17.2v10h17.2zm0 10.7h-17.2v3.1a10.499 10.337 0 0 0 10.5 10.4 10.499 10.337 0 0 0 6.7-2.3z" fill="#f5f5f5"/></g><rect id="bridgeStrip" fill="#e2e2e2" fill-rule="evenodd" height="1843" stroke="#000" width="27.5" x="472.5"/><g id="gripStrip"><rect id="strip" fill="#e2e2e2" fill-rule="evenodd" height="1843" stroke="#000" width="75"/><g id="doorLock"><g id="swingHandle"><rect id="rect4174-1-2" fill="#808080" height="160" rx="5" stroke="#4d4d4d" stroke-linecap="round" stroke-linejoin="round" stroke-width=".5" width="34" x="37" y="841.5"/><rect id="rect4176-6-8" fill="#575d5e" height="157" rx="3.5" stroke="#4d4d4d" stroke-linecap="round" stroke-linejoin="round" stroke-width=".5" width="31" x="38.5" y="843"/><rect id="rect4176-6-8-2" fill="#808080" height="135" rx="12" stroke="#4d4d4d" stroke-linecap="round" stroke-linejoin="round" stroke-width=".50001" width="26" x="41" y="852.5"/><rect id="rect4176-6-8-2-9" fill="#808080" height="133" rx="10" stroke="#4d4d4d" stroke-linecap="round" stroke-linejoin="round" stroke-width=".50001" width="22" x="43" y="854.93"/><rect id="rect4176-6-8-2-5" fill="#808080" height="60.882" rx="5" stroke="#4d4d4d" stroke-linecap="round" stroke-linejoin="round" stroke-width=".50003" width="26" x="41" y="931.67"/><rect id="rect4176-6-8-2-5-9" fill="#575d5e" height="60" rx="2.9314" stroke="#4d4d4d" stroke-linecap="round" stroke-linejoin="round" stroke-width=".50001" width="22" x="43" y="930.82"/></g><g id="latchPlate"><g id="plate"><rect id="rect4174-1" fill="#808080" height="160" rx="5" stroke="#4d4d4d" stroke-linecap="round" stroke-linejoin="round" stroke-width=".5" width="34" x="37" y="841.5"/><rect id="rect4176-6" fill="#575d5e" height="157" rx="3.5" stroke="#4d4d4d" stroke-linecap="round" stroke-linejoin="round" stroke-width=".5" width="34" x="37" y="843"/></g><circle id="lock" cx="54" cy="866.4" fill="#808080" r="14" stroke="#4d4d4d" stroke-linecap="round" stroke-linejoin="round" stroke-width=".5"/><path id="lockHole" d="m54 861.15c-2.434 0-4.504 1.69-4.991 4.08h-5.478v2.35h5.478c.487 2.39 2.557 4.07 4.991 4.07 2.435 0 4.504-1.68 4.991-4.07h5.478v-2.35h-5.478c-.487-2.39-2.556-4.08-4.991-4.08z" fill="#fff" stroke="#4d4d4d" stroke-linejoin="round" stroke-width=".5"/></g></g></g></g></svg>