<svg id="svg2" height="343.5" viewBox="0 0 1550 343.5" width="1550" xmlns="http://www.w3.org/2000/svg"><g id="layer1" stroke="#000" stroke-linecap="round"><g id="flangePlate"><rect id="plate" fill="#c5c7c4" height="328.5" width="1550" x=".9"/><circle id="holeLT" cx="15" cy="15" fill="none" r="5.5" stroke-linejoin="round"/><circle id="holeRT" cx="1535" cy="15" fill="none" r="5.5" stroke-linejoin="round"/><circle id="holeRB" cx="1535" cy="314" fill="none" r="5.5" stroke-linejoin="round"/><circle id="holeLB" cx="15" cy="314" fill="none" r="5.5" stroke-linejoin="round"/><g id="ko1" fill="none"><rect id="ko12" height="131" rx="6" width="207" x="52.5" y="20"/><rect id="ko11" height="121" rx="6" width="197" x="57.5" y="25"/></g><g id="ko2" fill="none"><rect id="ko11-2" height="121" rx="6" width="197" x="301.5" y="25"/><rect id="ko12-0" height="131" rx="6" width="207" x="296.5" y="20"/></g><g id="ko3" fill="none"><rect id="ko11-2-4" height="121" rx="6" width="197" x="551.5" y="25"/><rect id="ko12-4" height="131" rx="6" width="207" x="546.5" y="20"/></g><g id="ko4" fill="none"><rect id="ko11-2-4-7" height="121" rx="6" width="197" x="801.5" y="25"/><rect id="ko12-1" height="131" rx="6" width="207" x="796.5" y="20"/></g><g id="ko5" fill="none"><rect id="ko11-2-4-7-0" height="121" rx="6" width="197" x="1051.1" y="25"/><rect id="ko12-8" height="131" rx="6" width="207" x="1046.1" y="20"/></g><g id="ko6" fill="none"><rect id="ko11-2-4-7-0-2" height="121" rx="6" width="197" x="1295.5" y="25"/><rect id="ko12-82" height="131" rx="6" width="207" x="1290.5" y="20"/></g></g><rect id="doorStrip" fill="#c5c7c4" height="15" stroke-width="1.00001" width="1503" x="24.4" y="328.5"/></g></svg>