<svg id="svg2" height="54" viewBox="0 0 1850 54" width="1850" xmlns="http://www.w3.org/2000/svg"><g id="layer1" stroke="#000" stroke-linecap="round" stroke-linejoin="round" stroke-width=".8"><g id="lugLeft"><path id="circle4170-6" d="m26 0a26 26 0 0 0 -26 26 26 26 0 0 0  26 26 26 26 0 0 0  26-26 26 26 0 0 0 -26-26zm0 11a15 15 0 0 1 15 15 15 15 0 0 1 -15 15 15 15 0 0 1 -15-15 15 15 0 0 1  15-15z" fill="#ccc"/><rect id="rect4172-0" fill="#b3b3b3" fill-rule="evenodd" height="9" width="35.082" x="8.5" y="45"/></g><g id="lugRight"><path id="circle4170-6-7" d="m1823.8 0a26 26 0 0 0 -26 26 26 26 0 0 0  26 26 26 26 0 0 0  26-26 26 26 0 0 0 -26-26zm0 11a15 15 0 0 1 15 15 15 15 0 0 1 -15 15 15 15 0 0 1 -15-15 15 15 0 0 1  15-15z" fill="#ccc"/><rect id="rect4172-0-8" fill="#b3b3b3" fill-rule="evenodd" height="9" width="35.082" x="1806.3" y="45"/></g></g></svg>