<?xml version="1.0" encoding="UTF-8" standalone="no"?>
<svg
   xmlns:dc="http://purl.org/dc/elements/1.1/"
   xmlns:cc="http://creativecommons.org/ns#"
   xmlns:rdf="http://www.w3.org/1999/02/22-rdf-syntax-ns#"
   xmlns:svg="http://www.w3.org/2000/svg"
   xmlns="http://www.w3.org/2000/svg"
   width="19.755556mm"
   height="74.788887mm"
   viewBox="0 0 70.000002 264.99999"
   id="svg3668"
   version="1.1"
   overflow="visible">
  <defs
     id="defs3670" />
  <metadata
     id="metadata3673">
    <rdf:RDF>
      <cc:Work
         rdf:about="">
        <dc:format>image/svg+xml</dc:format>
        <dc:type
           rdf:resource="http://purl.org/dc/dcmitype/StillImage" />
        <dc:title></dc:title>
      </cc:Work>
    </rdf:RDF>
  </metadata>
  <g
     id="layer1">
    <g
       id="fuse1">
      <rect
         style="fill:#f9f9f9;fill-opacity:1;fill-rule:evenodd;stroke:#000000;stroke-width:1;stroke-linecap:butt;stroke-linejoin:miter;stroke-miterlimit:4;stroke-dasharray:none;stroke-opacity:1"
         id="R1.1"
         width="184"
         height="230"
         x="0"
         y="35" />
      <rect
         style="opacity:1;fill:#727173;fill-opacity:1;fill-rule:nonzero;stroke:#000000;stroke-width:1;stroke-linecap:round;stroke-linejoin:round;stroke-miterlimit:4;stroke-dasharray:none;stroke-dashoffset:0;stroke-opacity:1"
         id="R1.2"
         width="184"
         height="230"
         x="0"
         y="0" />
      <rect
         style="opacity:1;fill:#ffffff;fill-opacity:1;fill-rule:nonzero;stroke:#000000;stroke-width:0.99999982;stroke-linecap:round;stroke-linejoin:round;stroke-miterlimit:4;stroke-dasharray:none;stroke-dashoffset:0;stroke-opacity:1"
         id="R1.4"
         width="174"
         height="167.5"
         x="5"
         y="21" />
      <rect
         style="opacity:1;fill:#727173;fill-opacity:1;fill-rule:nonzero;stroke:#000000;stroke-width:0.99999988;stroke-linecap:round;stroke-linejoin:round;stroke-miterlimit:4;stroke-dasharray:none;stroke-dashoffset:0;stroke-opacity:1"
         id="R1.3"
         width="174"
         height="153.5"
         x="5"
         y="35" />
      <rect
         style="opacity:1;fill:#ffffff;fill-opacity:0.78431374;fill-rule:nonzero;stroke:none;stroke-width:1;stroke-linecap:round;stroke-linejoin:round;stroke-miterlimit:4;stroke-dasharray:none;stroke-dashoffset:0;stroke-opacity:1"
         id="R1.5"
         width="179"
         height="118.5"
         x="2.5"
         y="87"
         rx="3"
         ry="3" />
      <path
         style="fill:none;fill-rule:evenodd;stroke:#4d4d4d;stroke-width:1px;stroke-linecap:butt;stroke-linejoin:miter;stroke-opacity:1"
         d="m 5.5,67 173,0"
         id="D1" />
      <rect
         style="fill:#ff0000;fill-opacity:1;stroke:none;stroke-width:0.89999998;stroke-miterlimit:4;stroke-dasharray:none;stroke-opacity:1"
         id="R1.6"
         width="173"
         height="12"
         x="5.5"
         y="71.000015" />
      <rect
         style="fill:none;fill-opacity:0;fill-rule:evenodd;stroke:#4d4d4d;stroke-width:1px;stroke-linecap:butt;stroke-linejoin:miter;stroke-opacity:1"
         id="R1.7"
         width="174"
         height="19"
         x="5"
         y="1" />
      <path
         style="overflow:visible;fill:#ffffff;shape-rendering:crispEdges"
         d="m 17.317533,80.934495 c -0.003,-0.0823 0.31964,-0.98008 0.71438,-1.99515 l 0.71772,-1.84555 1.51946,-0.002 1.51943,-0.002 -0.0653,1.14687 c -0.0639,1.1233 -0.0795,1.14813 -0.75937,1.2081 -0.57682,0.0509 -0.75214,0.19424 -1.03802,0.84866 -0.33765,0.77295 -0.36472,0.78743 -1.47449,0.78851 -0.62179,5.6e-4 -1.13201,-0.0662 -1.13382,-0.14846 z m 6.51983,-0.64386 c -0.28751,-0.65385 -0.46322,-0.79686 -1.04014,-0.84663 -0.67996,-0.0586 -0.69563,-0.0834 -0.7624,-1.20661 l -0.0682,-1.14674 1.53246,-0.002 1.53246,-0.002 0.70885,1.84417 c 0.38987,1.0143 0.70775,1.91149 0.7064,1.99375 0,0.0823 -0.5112,0.15009 -1.133,0.1507 -1.10976,8.2e-4 -1.13687,-0.0134 -1.47646,-0.78565 z m 3.272072,-1.21055 -0.003,-1.99445 1.335151,-0.002 1.33518,-0.002 0.003,1.99445 0.003,1.99445 -1.33512,0.002 -1.335141,0.002 -0.003,-1.99445 z m 2.892841,0.0231 -0.003,-2.02039 1.54987,-0.002 c 1.77373,-0.002 2.01079,0.18477 2.01254,1.58341 0.003,1.19614 -1.0751,2.20566 -2.50811,2.35184 l -1.04921,0.10704 -0.003,-2.02039 z m 4.22795,-0.0301 -0.003,-1.99445 1.33514,-0.002 1.33515,-0.002 0.003,1.99444 0.003,1.99445 -1.33515,0.002 -1.33515,0.002 -0.003,-1.99444 z m 2.892846,0.0231 -0.003,-2.02039 1.54983,-0.002 c 1.77375,-0.002 2.01082,0.18478 2.01258,1.58342 0.003,1.19612 -1.0751,2.20565 -2.50812,2.35184 l -1.04921,0.10703 -0.003,-2.02039 z m -18.076919,-2.31303 c -0.0681,-0.0609 0.20322,-0.93622 0.60291,-1.94518 0.68982,-1.74144 0.76179,-1.83767 1.41932,-1.89763 l 0.69265,-0.0632 0.003,2.00708 0.003,2.00708 -1.29809,0.002 c -0.71391,5.6e-4 -1.35376,-0.0485 -1.42185,-0.10943 z m 2.93993,-1.89912 -0.003,-2.00709 0.69629,0.0618 c 0.64752,0.0575 0.73914,0.1666 1.30749,1.55706 1.08146,2.64593 1.13839,2.39222 -0.53732,2.39386 l -1.46143,0.002 -0.003,-2.00709 z m 5.118072,0.007 -0.003,-1.99444 1.335151,-0.002 1.33515,-0.002 0.003,1.99445 0.003,1.99444 -1.33518,0.002 -1.335141,0.002 -0.003,-1.99445 z m 2.892821,-0.002 -0.003,-1.99444 0.87032,-8.2e-4 c 1.59544,-0.002 2.59775,1.76823 1.67312,2.95423 -0.27932,0.35823 -0.29658,0.51251 -0.0831,0.74252 0.23098,0.24889 0.075,0.29052 -1.09295,0.29166 l -1.36239,0.002 -0.003,-1.99444 z m 4.22799,-0.004 -0.003,-1.99445 1.33516,-0.002 1.33514,-0.002 0.003,1.99444 0.003,1.99445 -1.33512,0.002 -1.33516,0.002 -0.003,-1.99444 z m 2.892816,-0.002 -0.003,-1.99445 0.87034,-8.1e-4 c 1.59545,-0.002 2.59776,1.76823 1.67313,2.95423 -0.27929,0.35823 -0.29655,0.5125 -0.0831,0.74252 0.23098,0.2489 0.075,0.29052 -1.09295,0.29166 l -1.36239,0.002 -0.003,-1.99445 z"
         id="path5636" />
      <g
         id="GF1.1">
        <g
           id="g3426">
          <rect
             style="opacity:1;fill:#727173;fill-opacity:1;fill-rule:nonzero;stroke:#727173;stroke-width:0.99999988;stroke-linecap:round;stroke-linejoin:round;stroke-miterlimit:4;stroke-dasharray:none;stroke-dashoffset:0;stroke-opacity:1"
             id="rect5622"
             width="21"
             height="24"
             x="18.5"
             y="100.75002"
             rx="10.5"
             ry="7.9205432" />
          <rect
             ry="6.6004524"
             rx="8.5"
             y="102.75002"
             x="20.5"
             height="20"
             width="17"
             id="rect5624"
             style="opacity:1;fill:#1a1a1a;fill-opacity:1;fill-rule:nonzero;stroke:#e2e2e2;stroke-width:0.99999976;stroke-linecap:round;stroke-linejoin:round;stroke-miterlimit:4;stroke-dasharray:none;stroke-dashoffset:0;stroke-opacity:1" />
        </g>
        <rect
           style="opacity:1;fill:#727173;fill-opacity:1;fill-rule:nonzero;stroke:none;stroke-width:1;stroke-linecap:round;stroke-linejoin:round;stroke-miterlimit:4;stroke-dasharray:none;stroke-dashoffset:0;stroke-opacity:1"
           id="rect5626"
           width="30"
           height="30"
           x="14"
           y="131.25" />
        <g
           id="g3432">
          <rect
             ry="7.9205432"
             rx="10.5"
             y="167.75003"
             x="18.5"
             height="24"
             width="21"
             id="rect5630"
             style="opacity:1;fill:#727173;fill-opacity:1;fill-rule:nonzero;stroke:#727173;stroke-width:0.99999988;stroke-linecap:round;stroke-linejoin:round;stroke-miterlimit:4;stroke-dasharray:none;stroke-dashoffset:0;stroke-opacity:1" />
          <rect
             style="opacity:1;fill:#1a1a1a;fill-opacity:1;fill-rule:nonzero;stroke:#e2e2e2;stroke-width:0.99999976;stroke-linecap:round;stroke-linejoin:round;stroke-miterlimit:4;stroke-dasharray:none;stroke-dashoffset:0;stroke-opacity:1"
             id="rect5632"
             width="17"
             height="20"
             x="20.5"
             y="169.75003"
             rx="8.5"
             ry="6.6004524" />
        </g>
      </g>
      <g
         id="GF1.3">
        <g
           id="g3454">
          <rect
             ry="7.9205432"
             rx="10.5"
             y="100.75002"
             x="144.5"
             height="24"
             width="21"
             id="rect4307"
             style="opacity:1;fill:#727173;fill-opacity:1;fill-rule:nonzero;stroke:#727173;stroke-width:0.99999988;stroke-linecap:round;stroke-linejoin:round;stroke-miterlimit:4;stroke-dasharray:none;stroke-dashoffset:0;stroke-opacity:1" />
          <rect
             style="opacity:1;fill:#1a1a1a;fill-opacity:1;fill-rule:nonzero;stroke:#e2e2e2;stroke-width:0.99999976;stroke-linecap:round;stroke-linejoin:round;stroke-miterlimit:4;stroke-dasharray:none;stroke-dashoffset:0;stroke-opacity:1"
             id="rect4309"
             width="17"
             height="20"
             x="146.5"
             y="102.75002"
             rx="8.5"
             ry="6.6004524" />
        </g>
        <rect
           y="131.25"
           x="140"
           height="30"
           width="30"
           id="rect4311"
           style="opacity:1;fill:#727173;fill-opacity:1;fill-rule:nonzero;stroke:none;stroke-width:1;stroke-linecap:round;stroke-linejoin:round;stroke-miterlimit:4;stroke-dasharray:none;stroke-dashoffset:0;stroke-opacity:1" />
        <g
           id="g3460">
          <rect
             style="opacity:1;fill:#727173;fill-opacity:1;fill-rule:nonzero;stroke:#727173;stroke-width:0.99999988;stroke-linecap:round;stroke-linejoin:round;stroke-miterlimit:4;stroke-dasharray:none;stroke-dashoffset:0;stroke-opacity:1"
             id="rect4315"
             width="21"
             height="24"
             x="144.5"
             y="167.75003"
             rx="10.5"
             ry="7.9205432" />
          <rect
             ry="6.6004524"
             rx="8.5"
             y="169.75003"
             x="146.5"
             height="20"
             width="17"
             id="rect4317"
             style="opacity:1;fill:#1a1a1a;fill-opacity:1;fill-rule:nonzero;stroke:#e2e2e2;stroke-width:0.99999976;stroke-linecap:round;stroke-linejoin:round;stroke-miterlimit:4;stroke-dasharray:none;stroke-dashoffset:0;stroke-opacity:1" />
        </g>
      </g>
      <g
         id="GF1.2">
        <g
           id="g3482">
          <rect
             style="opacity:1;fill:#727173;fill-opacity:1;fill-rule:nonzero;stroke:#727173;stroke-width:0.99999988;stroke-linecap:round;stroke-linejoin:round;stroke-miterlimit:4;stroke-dasharray:none;stroke-dashoffset:0;stroke-opacity:1"
             id="rect4323"
             width="21"
             height="24"
             x="81.5"
             y="100.75002"
             rx="10.5"
             ry="7.9205432" />
          <rect
             ry="6.6004524"
             rx="8.5"
             y="102.75002"
             x="83.5"
             height="20"
             width="17"
             id="rect4325"
             style="opacity:1;fill:#1a1a1a;fill-opacity:1;fill-rule:nonzero;stroke:#e2e2e2;stroke-width:0.99999976;stroke-linecap:round;stroke-linejoin:round;stroke-miterlimit:4;stroke-dasharray:none;stroke-dashoffset:0;stroke-opacity:1" />
        </g>
        <rect
           style="opacity:1;fill:#727173;fill-opacity:1;fill-rule:nonzero;stroke:none;stroke-width:1;stroke-linecap:round;stroke-linejoin:round;stroke-miterlimit:4;stroke-dasharray:none;stroke-dashoffset:0;stroke-opacity:1"
           id="rect4327"
           width="30"
           height="30"
           x="77"
           y="131.25" />
        <g
           id="g3488">
          <rect
             ry="7.9205432"
             rx="10.5"
             y="167.75003"
             x="81.5"
             height="24"
             width="21"
             id="rect4331"
             style="opacity:1;fill:#727173;fill-opacity:1;fill-rule:nonzero;stroke:#727173;stroke-width:0.99999988;stroke-linecap:round;stroke-linejoin:round;stroke-miterlimit:4;stroke-dasharray:none;stroke-dashoffset:0;stroke-opacity:1" />
          <rect
             style="opacity:1;fill:#1a1a1a;fill-opacity:1;fill-rule:nonzero;stroke:#e2e2e2;stroke-width:0.99999976;stroke-linecap:round;stroke-linejoin:round;stroke-miterlimit:4;stroke-dasharray:none;stroke-dashoffset:0;stroke-opacity:1"
             id="rect4333"
             width="17"
             height="20"
             x="83.5"
             y="169.75003"
             rx="8.5"
             ry="6.6004524" />
        </g>
      </g>
      <text
         transform="scale(0.9999966,1.0000034)"
         id="text4594"
         y="81.174561"
         x="141.45439"
         style="font-style:normal;font-variant:normal;font-weight:bold;font-stretch:normal;font-size:11.30000019px;line-height:100%;font-family:sans-serif;text-align:start;letter-spacing:0px;word-spacing:0px;writing-mode:lr-tb;text-anchor:start;fill:#ffffff;fill-opacity:1;stroke:none;stroke-width:1;stroke-linecap:butt;stroke-linejoin:miter;stroke-miterlimit:4;stroke-dasharray:none;stroke-opacity:1"
         xml:space="preserve"><tspan
           style="font-style:normal;font-variant:normal;font-weight:normal;font-stretch:normal;font-size:11.25px;line-height:100%;font-family:sans-serif;-inkscape-font-specification:sans-serif;text-align:start;writing-mode:lr-tb;text-anchor:start;fill:#ffffff;fill-opacity:1;stroke:none;stroke-width:1;stroke-miterlimit:4;stroke-dasharray:none;stroke-opacity:1"
           y="81.174561"
           x="141.45439"
           id="tspan4596">XLP1</tspan></text>
    </g>
    <g
       id="fuse2">
      <rect
         y="35"
         x="185"
         height="230"
         width="70"
         id="R2.1"
         style="fill:#f9f9f9;fill-opacity:1;fill-rule:evenodd;stroke:#000000;stroke-width:1;stroke-linecap:butt;stroke-linejoin:miter;stroke-miterlimit:4;stroke-dasharray:none;stroke-opacity:1" />
      <rect
         y="0"
         x="185"
         height="230"
         width="70"
         id="R2.2"
         style="opacity:1;fill:#727173;fill-opacity:1;fill-rule:nonzero;stroke:#000000;stroke-width:1;stroke-linecap:round;stroke-linejoin:round;stroke-miterlimit:4;stroke-dasharray:none;stroke-dashoffset:0;stroke-opacity:1" />
      <rect
         y="21"
         x="190"
         height="167.5"
         width="60"
         id="R2.4"
         style="opacity:1;fill:#ffffff;fill-opacity:1;fill-rule:nonzero;stroke:#000000;stroke-width:0.99999982;stroke-linecap:round;stroke-linejoin:round;stroke-miterlimit:4;stroke-dasharray:none;stroke-dashoffset:0;stroke-opacity:1" />
      <rect
         y="35"
         x="190"
         height="153.5"
         width="60"
         id="R2.3"
         style="opacity:1;fill:#727173;fill-opacity:1;fill-rule:nonzero;stroke:#000000;stroke-width:0.99999988;stroke-linecap:round;stroke-linejoin:round;stroke-miterlimit:4;stroke-dasharray:none;stroke-dashoffset:0;stroke-opacity:1" />
      <rect
         ry="3"
         rx="3"
         y="87"
         x="187.5"
         height="118.5"
         width="65"
         id="R2.5"
         style="opacity:1;fill:#ffffff;fill-opacity:0.78431374;fill-rule:nonzero;stroke:none;stroke-width:1;stroke-linecap:round;stroke-linejoin:round;stroke-miterlimit:4;stroke-dasharray:none;stroke-dashoffset:0;stroke-opacity:1" />
      <path
         id="D2"
         d="m 190.5,66.50002 59,0"
         style="fill:none;fill-rule:evenodd;stroke:#4d4d4d;stroke-width:0.99578947px;stroke-linecap:butt;stroke-linejoin:miter;stroke-opacity:1" />
      <rect
         y="71.000015"
         x="190.5"
         height="12"
         width="59"
         id="R2.6"
         style="fill:#ff0000;fill-opacity:1;stroke:none;stroke-width:0.89999998;stroke-miterlimit:4;stroke-dasharray:none;stroke-opacity:1" />
      <rect
         y="1"
         x="190"
         height="19"
         width="60"
         id="R2.7"
         style="fill:none;fill-opacity:0;fill-rule:evenodd;stroke:#4d4d4d;stroke-width:1px;stroke-linecap:butt;stroke-linejoin:miter;stroke-opacity:1" />
      <g
         id="GF2.1">
        <g
           id="g3510">
          <rect
             ry="7.9205432"
             rx="10.5"
             y="100.75002"
             x="209.5"
             height="24"
             width="21"
             id="rect4287"
             style="opacity:1;fill:#727173;fill-opacity:1;fill-rule:nonzero;stroke:#727173;stroke-width:0.99999988;stroke-linecap:round;stroke-linejoin:round;stroke-miterlimit:4;stroke-dasharray:none;stroke-dashoffset:0;stroke-opacity:1" />
          <rect
             style="opacity:1;fill:#1a1a1a;fill-opacity:1;fill-rule:nonzero;stroke:#e2e2e2;stroke-width:0.99999976;stroke-linecap:round;stroke-linejoin:round;stroke-miterlimit:4;stroke-dasharray:none;stroke-dashoffset:0;stroke-opacity:1"
             id="rect4289"
             width="17"
             height="20"
             x="211.5"
             y="102.75002"
             rx="8.5"
             ry="6.6004524" />
        </g>
        <rect
           y="131.25"
           x="205"
           height="30"
           width="30"
           id="rect4291"
           style="opacity:1;fill:#727173;fill-opacity:1;fill-rule:nonzero;stroke:none;stroke-width:1;stroke-linecap:round;stroke-linejoin:round;stroke-miterlimit:4;stroke-dasharray:none;stroke-dashoffset:0;stroke-opacity:1" />
        <g
           id="g3516">
          <rect
             style="opacity:1;fill:#727173;fill-opacity:1;fill-rule:nonzero;stroke:#727173;stroke-width:0.99999988;stroke-linecap:round;stroke-linejoin:round;stroke-miterlimit:4;stroke-dasharray:none;stroke-dashoffset:0;stroke-opacity:1"
             id="rect4295"
             width="21"
             height="24"
             x="209.5"
             y="167.75003"
             rx="10.5"
             ry="7.9205432" />
          <rect
             ry="6.6004524"
             rx="8.5"
             y="169.75003"
             x="211.5"
             height="20"
             width="17"
             id="rect4297"
             style="opacity:1;fill:#1a1a1a;fill-opacity:1;fill-rule:nonzero;stroke:#e2e2e2;stroke-width:0.99999976;stroke-linecap:round;stroke-linejoin:round;stroke-miterlimit:4;stroke-dasharray:none;stroke-dashoffset:0;stroke-opacity:1" />
        </g>
      </g>
    </g>
  </g>
</svg>
