<?xml version="1.0" encoding="UTF-8" standalone="no"?>
<svg
   xmlns:dc="http://purl.org/dc/elements/1.1/"
   xmlns:cc="http://creativecommons.org/ns#"
   xmlns:rdf="http://www.w3.org/1999/02/22-rdf-syntax-ns#"
   xmlns:svg="http://www.w3.org/2000/svg"
   xmlns="http://www.w3.org/2000/svg"
   xmlns:xlink="http://www.w3.org/1999/xlink"
   overflow="visible"
   width="18.577778mm"
   height="80.715553mm"
   viewBox="0 0 80 285.99999"
   id="svg3641"
   version="1.1">
  <defs
     id="defs3643">
    </defs>
  <metadata
     id="metadata3646">
    <rdf:RDF>
      <cc:Work
         rdf:about="">
        <dc:format>image/svg+xml</dc:format>
        <dc:type
           rdf:resource="http://purl.org/dc/dcmitype/StillImage" />
        <dc:title></dc:title>
      </cc:Work>
    </rdf:RDF>
  </metadata>
  <g
     id="layer1">
    <g
       id="fuse1">
      <rect
         style="fill:#f9f9f9;fill-opacity:1;fill-rule:evenodd;stroke:#000000;stroke-width:1;stroke-linecap:butt;stroke-linejoin:miter;stroke-miterlimit:4;stroke-dasharray:none;stroke-opacity:1"
         id="R1.1"
         width="210"
         height="257.39999"
         x="0"
         y="28.6" />
      <rect
         style="opacity:1;fill:#727173;fill-opacity:1;fill-rule:nonzero;stroke:#000000;stroke-width:1;stroke-linecap:round;stroke-linejoin:round;stroke-miterlimit:4;stroke-dasharray:none;stroke-dashoffset:0;stroke-opacity:1"
         id="R1.2"
         width="210"
         height="257.39999"
         x="0"
         y="0" />
      <rect
         style="opacity:1;fill:#ffffff;fill-opacity:1;fill-rule:nonzero;stroke:#000000;stroke-width:0.99999988;stroke-linecap:round;stroke-linejoin:round;stroke-miterlimit:4;stroke-dasharray:none;stroke-dashoffset:0;stroke-opacity:1"
         id="R1.4"
         width="200"
         height="179.49998"
         x="5"
         y="21" />
      <rect
         style="opacity:1;fill:#727173;fill-opacity:1;fill-rule:nonzero;stroke:#000000;stroke-width:0.99999994;stroke-linecap:round;stroke-linejoin:round;stroke-miterlimit:4;stroke-dasharray:none;stroke-dashoffset:0;stroke-opacity:1"
         id="R1.3"
         width="200"
         height="172.5"
         x="5"
         y="28.6" />
      <rect
         style="opacity:1;fill:#ffffff;fill-opacity:0.78431374;fill-rule:nonzero;stroke:none;stroke-width:1;stroke-linecap:round;stroke-linejoin:round;stroke-miterlimit:4;stroke-dasharray:none;stroke-dashoffset:0;stroke-opacity:1"
         id="R1.5"
         width="205"
         height="132.5"
         x="2.5"
         y="86.999985"
         rx="3.2608695"
         ry="3.4868422" />
      <path
         style="fill:none;fill-rule:evenodd;stroke:#4d4d4d;stroke-width:1px;stroke-linecap:butt;stroke-linejoin:miter;stroke-opacity:1"
         d="m 5.5,66.496329 199,0"
         id="D1" />
      <rect
         style="fill:#ff0000;fill-opacity:1;stroke:none;stroke-width:0.89999998;stroke-miterlimit:4;stroke-dasharray:none;stroke-opacity:1"
         id="R1.6"
         width="199"
         height="12"
         x="5.5"
         y="71" />
      <path
         id="logo"
         d="m 23.317533,80.9345 c -0.003,-0.0823 0.31964,-0.98008 0.71438,-1.99515 l 0.71772,-1.84555 1.51946,-0.002 1.51943,-0.002 -0.0653,1.14687 c -0.0639,1.1233 -0.0795,1.14813 -0.75937,1.2081 -0.57682,0.0509 -0.75214,0.19424 -1.03802,0.84866 -0.33765,0.77295 -0.36472,0.78743 -1.47449,0.78851 -0.62179,5.6e-4 -1.13201,-0.0662 -1.13382,-0.14846 z m 6.51983,-0.64386 c -0.28751,-0.65385 -0.46322,-0.79686 -1.04014,-0.84663 -0.67996,-0.0586 -0.69563,-0.0834 -0.7624,-1.20661 l -0.0682,-1.14674 1.53246,-0.002 1.532458,-0.002 0.70885,1.84417 c 0.38987,1.0143 0.70775,1.91149 0.7064,1.99375 0,0.0823 -0.5112,0.15009 -1.133,0.1507 -1.10976,8.2e-4 -1.13687,-0.0134 -1.476458,-0.78565 z m 3.272068,-1.21055 -0.003,-1.99445 1.33515,-0.002 1.33518,-0.002 0.003,1.99445 0.003,1.99445 -1.33512,0.002 -1.33514,0.002 -0.003,-1.99445 z m 2.89284,0.0231 -0.003,-2.02039 1.54987,-0.002 c 1.77373,-0.002 2.01079,0.18477 2.01254,1.58341 0.003,1.19614 -1.0751,2.20566 -2.50811,2.35184 l -1.04921,0.10704 -0.003,-2.02039 z m 4.22795,-0.0301 -0.003,-1.99445 1.33514,-0.002 1.33515,-0.002 0.003,1.99444 0.003,1.99445 -1.33515,0.002 -1.33515,0.002 -0.003,-1.99444 z m 2.89285,0.0231 -0.003,-2.02039 1.54983,-0.002 c 1.77375,-0.002 2.01082,0.18478 2.01258,1.58342 0.003,1.19612 -1.0751,2.20565 -2.50812,2.35184 l -1.04921,0.10703 -0.003,-2.02039 z M 25.046153,76.78316 c -0.0681,-0.0609 0.20322,-0.93622 0.60291,-1.94518 0.68982,-1.74144 0.76179,-1.83767 1.41932,-1.89763 l 0.69265,-0.0632 0.003,2.00708 0.003,2.00708 -1.29809,0.002 c -0.71391,5.6e-4 -1.35376,-0.0485 -1.42185,-0.10943 z m 2.93993,-1.89912 -0.003,-2.00709 0.69629,0.0618 c 0.64752,0.0575 0.73914,0.1666 1.30749,1.55706 1.081458,2.64593 1.138388,2.39222 -0.53732,2.39386 l -1.46143,0.002 -0.003,-2.00709 z m 5.118068,0.007 -0.003,-1.99444 1.33515,-0.002 1.33515,-0.002 0.003,1.99445 0.003,1.99444 -1.33518,0.002 -1.33514,0.002 -0.003,-1.99445 z m 2.89282,-0.002 -0.003,-1.99444 0.87032,-8.2e-4 c 1.59544,-0.002 2.59775,1.76823 1.67312,2.95423 -0.27932,0.35823 -0.29658,0.51251 -0.0831,0.74252 0.23098,0.24889 0.075,0.29052 -1.09295,0.29166 l -1.36239,0.002 -0.003,-1.99444 z m 4.22799,-0.004 -0.003,-1.99445 1.33516,-0.002 1.33514,-0.002 0.003,1.99444 0.003,1.99445 -1.33512,0.002 -1.33516,0.002 -0.003,-1.99444 z m 2.89282,-0.002 -0.003,-1.99445 0.87034,-8.1e-4 c 1.59545,-0.002 2.59776,1.76823 1.67313,2.95423 -0.27929,0.35823 -0.29655,0.5125 -0.0831,0.74252 0.23098,0.2489 0.075,0.29052 -1.09295,0.29166 l -1.36239,0.002 -0.003,-1.99445 z"
         style="overflow:visible;fill:#ffffff;shape-rendering:crispEdges" />
      <rect
         style="fill:none;fill-opacity:0;fill-rule:evenodd;stroke:#4d4d4d;stroke-width:1px;stroke-linecap:butt;stroke-linejoin:miter;stroke-opacity:1"
         id="R1.7"
         width="200"
         height="19"
         x="5"
         y="1" />
      <g
         id="GF1.1">
        <g
           id="g4458">
          <rect
             style="opacity:1;fill:#727173;fill-opacity:1;fill-rule:nonzero;stroke:#727173;stroke-width:0.99999988;stroke-linecap:round;stroke-linejoin:round;stroke-miterlimit:4;stroke-dasharray:none;stroke-dashoffset:0;stroke-opacity:1"
             id="rect5548"
             width="21"
             height="24"
             x="24.5"
             y="107.74998"
             rx="10.5"
             ry="7.9205432" />
          <rect
             ry="6.6004524"
             rx="8.5"
             y="109.74998"
             x="26.5"
             height="20"
             width="17"
             id="rect5550"
             style="opacity:1;fill:#1a1a1a;fill-opacity:1;fill-rule:nonzero;stroke:#e2e2e2;stroke-width:0.99999976;stroke-linecap:round;stroke-linejoin:round;stroke-miterlimit:4;stroke-dasharray:none;stroke-dashoffset:0;stroke-opacity:1" />
        </g>
        <rect
           style="opacity:1;fill:#727173;fill-opacity:1;fill-rule:nonzero;stroke:none;stroke-width:1;stroke-linecap:round;stroke-linejoin:round;stroke-miterlimit:4;stroke-dasharray:none;stroke-dashoffset:0;stroke-opacity:1"
           id="rect5552"
           width="30"
           height="30"
           x="20"
           y="138.24997" />
        <g
           id="g4464">
          <rect
             ry="7.9205432"
             rx="10.5"
             y="174.74998"
             x="24.5"
             height="24"
             width="21"
             id="rect5556"
             style="opacity:1;fill:#727173;fill-opacity:1;fill-rule:nonzero;stroke:#727173;stroke-width:0.99999988;stroke-linecap:round;stroke-linejoin:round;stroke-miterlimit:4;stroke-dasharray:none;stroke-dashoffset:0;stroke-opacity:1" />
          <rect
             style="opacity:1;fill:#1a1a1a;fill-opacity:1;fill-rule:nonzero;stroke:#e2e2e2;stroke-width:0.99999976;stroke-linecap:round;stroke-linejoin:round;stroke-miterlimit:4;stroke-dasharray:none;stroke-dashoffset:0;stroke-opacity:1"
             id="rect5558"
             width="17"
             height="20"
             x="26.5"
             y="176.74998"
             rx="8.5"
             ry="6.6004524" />
        </g>
      </g>
      <g
         id="GF1.3">
        <g
           id="g4486">
          <rect
             ry="7.9205432"
             rx="10.5"
             y="107.74998"
             x="164.5"
             height="24"
             width="21"
             id="rect4239"
             style="opacity:1;fill:#727173;fill-opacity:1;fill-rule:nonzero;stroke:#727173;stroke-width:0.99999988;stroke-linecap:round;stroke-linejoin:round;stroke-miterlimit:4;stroke-dasharray:none;stroke-dashoffset:0;stroke-opacity:1" />
          <rect
             style="opacity:1;fill:#1a1a1a;fill-opacity:1;fill-rule:nonzero;stroke:#e2e2e2;stroke-width:0.99999976;stroke-linecap:round;stroke-linejoin:round;stroke-miterlimit:4;stroke-dasharray:none;stroke-dashoffset:0;stroke-opacity:1"
             id="rect4241"
             width="17"
             height="20"
             x="166.5"
             y="109.74998"
             rx="8.5"
             ry="6.6004524" />
        </g>
        <rect
           y="138.24997"
           x="160"
           height="30"
           width="30"
           id="rect4243"
           style="opacity:1;fill:#727173;fill-opacity:1;fill-rule:nonzero;stroke:none;stroke-width:1;stroke-linecap:round;stroke-linejoin:round;stroke-miterlimit:4;stroke-dasharray:none;stroke-dashoffset:0;stroke-opacity:1" />
        <g
           id="g4492">
          <rect
             style="opacity:1;fill:#727173;fill-opacity:1;fill-rule:nonzero;stroke:#727173;stroke-width:0.99999988;stroke-linecap:round;stroke-linejoin:round;stroke-miterlimit:4;stroke-dasharray:none;stroke-dashoffset:0;stroke-opacity:1"
             id="rect4247"
             width="21"
             height="24"
             x="164.5"
             y="174.74998"
             rx="10.5"
             ry="7.9205432" />
          <rect
             ry="6.6004524"
             rx="8.5"
             y="176.74998"
             x="166.5"
             height="20"
             width="17"
             id="rect4249"
             style="opacity:1;fill:#1a1a1a;fill-opacity:1;fill-rule:nonzero;stroke:#e2e2e2;stroke-width:0.99999976;stroke-linecap:round;stroke-linejoin:round;stroke-miterlimit:4;stroke-dasharray:none;stroke-dashoffset:0;stroke-opacity:1" />
        </g>
      </g>
      <g
         id="GF1.2">
        <g
           id="g4514">
          <rect
             style="opacity:1;fill:#727173;fill-opacity:1;fill-rule:nonzero;stroke:#727173;stroke-width:0.99999988;stroke-linecap:round;stroke-linejoin:round;stroke-miterlimit:4;stroke-dasharray:none;stroke-dashoffset:0;stroke-opacity:1"
             id="rect4255"
             width="21"
             height="24"
             x="94.5"
             y="107.74998"
             rx="10.5"
             ry="7.9205432" />
          <rect
             ry="6.6004524"
             rx="8.5"
             y="109.74998"
             x="96.5"
             height="20"
             width="17"
             id="rect4257"
             style="opacity:1;fill:#1a1a1a;fill-opacity:1;fill-rule:nonzero;stroke:#e2e2e2;stroke-width:0.99999976;stroke-linecap:round;stroke-linejoin:round;stroke-miterlimit:4;stroke-dasharray:none;stroke-dashoffset:0;stroke-opacity:1" />
        </g>
        <rect
           style="opacity:1;fill:#727173;fill-opacity:1;fill-rule:nonzero;stroke:none;stroke-width:1;stroke-linecap:round;stroke-linejoin:round;stroke-miterlimit:4;stroke-dasharray:none;stroke-dashoffset:0;stroke-opacity:1"
           id="rect4259"
           width="30"
           height="30"
           x="90"
           y="138.24997" />
        <g
           id="g4520">
          <rect
             ry="7.9205432"
             rx="10.5"
             y="174.74998"
             x="94.5"
             height="24"
             width="21"
             id="rect4263"
             style="opacity:1;fill:#727173;fill-opacity:1;fill-rule:nonzero;stroke:#727173;stroke-width:0.99999988;stroke-linecap:round;stroke-linejoin:round;stroke-miterlimit:4;stroke-dasharray:none;stroke-dashoffset:0;stroke-opacity:1" />
          <rect
             style="opacity:1;fill:#1a1a1a;fill-opacity:1;fill-rule:nonzero;stroke:#e2e2e2;stroke-width:0.99999976;stroke-linecap:round;stroke-linejoin:round;stroke-miterlimit:4;stroke-dasharray:none;stroke-dashoffset:0;stroke-opacity:1"
             id="rect4265"
             width="17"
             height="20"
             x="96.5"
             y="176.74998"
             rx="8.5"
             ry="6.6004524" />
        </g>
      </g>
      <text
         xml:space="preserve"
         style="font-style:normal;font-variant:normal;font-weight:bold;font-stretch:normal;font-size:11.30000019px;line-height:100%;font-family:sans-serif;text-align:start;letter-spacing:0px;word-spacing:0px;writing-mode:lr-tb;text-anchor:start;fill:#ffffff;fill-opacity:1;stroke:none;stroke-width:1;stroke-linecap:butt;stroke-linejoin:miter;stroke-miterlimit:4;stroke-dasharray:none;stroke-opacity:1"
         x="161.22099"
         y="81.086655"
         id="text4594"
         transform="scale(0.9999966,1.0000034)"><tspan
           id="tspan4596"
           x="161.22099"
           y="81.086655"
           style="font-style:normal;font-variant:normal;font-weight:normal;font-stretch:normal;font-size:11.25px;line-height:100%;font-family:sans-serif;-inkscape-font-specification:sans-serif;text-align:start;writing-mode:lr-tb;text-anchor:start;fill:#ffffff;fill-opacity:1;stroke:none;stroke-width:1;stroke-miterlimit:4;stroke-dasharray:none;stroke-opacity:1">XLP2</tspan></text>
    </g>
    <g
       id="fuse2">
      <rect
         y="28.6"
         x="211"
         height="257.39999"
         width="80"
         id="R2.1"
         style="fill:#f9f9f9;fill-opacity:1;fill-rule:evenodd;stroke:#000000;stroke-width:1;stroke-linecap:butt;stroke-linejoin:miter;stroke-miterlimit:4;stroke-dasharray:none;stroke-opacity:1" />
      <rect
         y="0"
         x="211"
         height="257.39999"
         width="80"
         id="R2.2"
         style="opacity:1;fill:#727173;fill-opacity:1;fill-rule:nonzero;stroke:#000000;stroke-width:1;stroke-linecap:round;stroke-linejoin:round;stroke-miterlimit:4;stroke-dasharray:none;stroke-dashoffset:0;stroke-opacity:1" />
      <rect
         y="21"
         x="216"
         height="179.49998"
         width="70"
         id="R2.4"
         style="opacity:1;fill:#ffffff;fill-opacity:1;fill-rule:nonzero;stroke:#000000;stroke-width:0.99999988;stroke-linecap:round;stroke-linejoin:round;stroke-miterlimit:4;stroke-dasharray:none;stroke-dashoffset:0;stroke-opacity:1" />
      <rect
         y="28.6"
         x="216"
         height="172.5"
         width="70"
         id="R2.3"
         style="opacity:1;fill:#727173;fill-opacity:1;fill-rule:nonzero;stroke:#000000;stroke-width:0.99999994;stroke-linecap:round;stroke-linejoin:round;stroke-miterlimit:4;stroke-dasharray:none;stroke-dashoffset:0;stroke-opacity:1" />
      <rect
         ry="3.4868422"
         rx="3.2608695"
         y="86.999985"
         x="213.5"
         height="132.5"
         width="75"
         id="R2.5"
         style="opacity:1;fill:#ffffff;fill-opacity:0.78431374;fill-rule:nonzero;stroke:none;stroke-width:1;stroke-linecap:round;stroke-linejoin:round;stroke-miterlimit:4;stroke-dasharray:none;stroke-dashoffset:0;stroke-opacity:1" />
      <path
         id="D2"
         d="m 216.5,66.496329 69,0"
         style="fill:none;fill-rule:evenodd;stroke:#4d4d4d;stroke-width:1.00732601px;stroke-linecap:butt;stroke-linejoin:miter;stroke-opacity:1" />
      <rect
         y="71"
         x="216.5"
         height="12"
         width="69"
         id="R2.6"
         style="fill:#ff0000;fill-opacity:1;stroke:none;stroke-width:0.89999998;stroke-miterlimit:4;stroke-dasharray:none;stroke-opacity:1" />
      <rect
         y="1"
         x="216"
         height="19"
         width="70"
         id="R2.7"
         style="fill:none;fill-opacity:0;fill-rule:evenodd;stroke:#4d4d4d;stroke-width:1px;stroke-linecap:butt;stroke-linejoin:miter;stroke-opacity:1" />
      <g
         id="GF2.1">
        <g
           id="g4615">
          <rect
             ry="7.9205432"
             rx="10.5"
             y="107.74998"
             x="240.5"
             height="24"
             width="21"
             id="rect4183"
             style="opacity:1;fill:#727173;fill-opacity:1;fill-rule:nonzero;stroke:#727173;stroke-width:0.99999988;stroke-linecap:round;stroke-linejoin:round;stroke-miterlimit:4;stroke-dasharray:none;stroke-dashoffset:0;stroke-opacity:1" />
          <rect
             style="opacity:1;fill:#1a1a1a;fill-opacity:1;fill-rule:nonzero;stroke:#e2e2e2;stroke-width:0.99999976;stroke-linecap:round;stroke-linejoin:round;stroke-miterlimit:4;stroke-dasharray:none;stroke-dashoffset:0;stroke-opacity:1"
             id="rect4185"
             width="17"
             height="20"
             x="242.5"
             y="109.74998"
             rx="8.5"
             ry="6.6004524" />
        </g>
        <rect
           y="138.24997"
           x="236"
           height="30"
           width="30"
           id="rect4187"
           style="opacity:1;fill:#727173;fill-opacity:1;fill-rule:nonzero;stroke:none;stroke-width:1;stroke-linecap:round;stroke-linejoin:round;stroke-miterlimit:4;stroke-dasharray:none;stroke-dashoffset:0;stroke-opacity:1" />
        <g
           id="g4621">
          <rect
             style="opacity:1;fill:#727173;fill-opacity:1;fill-rule:nonzero;stroke:#727173;stroke-width:0.99999988;stroke-linecap:round;stroke-linejoin:round;stroke-miterlimit:4;stroke-dasharray:none;stroke-dashoffset:0;stroke-opacity:1"
             id="rect4191"
             width="21"
             height="24"
             x="240.5"
             y="174.74998"
             rx="10.5"
             ry="7.9205432" />
          <rect
             ry="6.6004524"
             rx="8.5"
             y="176.74998"
             x="242.5"
             height="20"
             width="17"
             id="rect4193"
             style="opacity:1;fill:#1a1a1a;fill-opacity:1;fill-rule:nonzero;stroke:#e2e2e2;stroke-width:0.99999976;stroke-linecap:round;stroke-linejoin:round;stroke-miterlimit:4;stroke-dasharray:none;stroke-dashoffset:0;stroke-opacity:1" />
        </g>
      </g>
    </g>
  </g>
</svg>
