<svg id="svg2" height="187" shape-rendering="crispEdges" viewBox="0 0 131.2 187" width="131.2" xmlns="http://www.w3.org/2000/svg" xmlns:xlink="http://www.w3.org/1999/xlink"><clipPath id="a"><path id="path1234" d="m93.302 26.625v28.381h-37.453v40.167h13.463v19.447h26.535v-19.487h19.953v19.487h14.55v-29.587h-31.468v-21.385h31.468v-37.023h-5.52v11.941h-6.43v-11.941zm-34.926 29.572h18.422v18.376h-18.422z" shape-rendering="crispEdges"/></clipPath><clipPath id="b"><path id="path1321" d="m35.14 49.4v.608h6.76v7.846h-6.76v35.746h90.93v-9.752h-10.09v-28.715h10.09v-5.733z" shape-rendering="crispEdges"/></clipPath><clipPath id="c"><path id="path1374" d="m69.324 49.941v8.963h-8.97v34.037h10.06v-41.951h45.346v4.445h10.09v-5.494zm46.436 34.526v8.474h10.09v-8.474z" shape-rendering="crispEdges"/></clipPath><g id="layer1"><rect id="breakerRear" fill="#575d5e" fill-rule="evenodd" height="187" shape-rendering="crispEdges" stroke="#333" stroke-width=".8" width="131.2"/><g id="rotaryDriveAxle" shape-rendering="crispEdges"><rect id="rect94" fill="#575d5e" height="76" stroke="#333" stroke-width=".8" width="76" x="55.1" y="17"/><g id="g96"><circle id="circle98" cx="93.1" cy="48.379" fill="#c5c7c4" r="15" stroke="#000" stroke-width=".5"/><circle id="circle100" cx="93.1" cy="48.379" r="8"/><rect id="rect102" fill="#e6e6e6" height="6" width="6" x="90.1" y="45.379"/></g></g><g id="largeRotaryHandle"><rect id="rect106" fill="#575d5e" height="76" shape-rendering="crispEdges" stroke="#333" stroke-width=".8" width="76" x="55.1" y="17"/><path id="path108" d="m55.75 22.35v70m1.45-70v70m1.75-70v70m1.45-70v70m1.6-70v70m1.6-70v70m1.6-70v70m1.6-70v70m1.6-70v70m1.6-70v70m1.6-70v70m1.6-70v70m1.6-70v70m1.6-70v70m1.6-70v70m1.6-70v70m1.6-70v70m1.6-70v70m1.6-70v70m1.6-70v70m1.6-70v70m1.6-70v70m1.6-70v70m1.6-70v70m1.6-70v70m1.6-70v70m1.6-70v70m1.6-70v70m1.6-70v70m1.6-70v70m1.6-70v70m1.6-70v70m1.6-70v70m1.6-70v70m1.6-70v70m1.6-70v70m1.6-70v70m1.6-70v70m1.6-70v70m1.6-70v70m1.6-70v70m1.6-70v70m1.6-70v70m1.6-70v70m1.6-70v70m1.6-70v70m1.6-70v70m-73.45-70h74.7m-74.7 1.6h74.7m-74.7 1.6h74.7m-74.7 1.6h74.7m-74.7 1.6h74.7m-74.7 1.6h74.7m-74.7 1.6h74.7m-74.7 1.6h74.7m-74.7 1.6h74.7m-74.7 1.6h74.7m-74.7 1.6h74.7m-74.7 1.6h74.7m-74.7 1.6h74.7m-74.7 1.6h74.7m-74.7 1.6h74.7m-74.7 1.6h74.7m-74.7 1.6h74.7m-74.7 1.6h74.7m-74.7 1.6h74.7m-74.7 1.6h74.7m-74.7 1.6h74.7m-74.7 1.6h74.7m-74.7 1.6h74.7m-74.7 1.6h74.7m-74.7 1.6h74.7m-74.7 1.6h74.7m-74.7 1.6h74.7m-74.7 1.6h74.7m-74.7 1.6h74.7m-74.7 1.6h74.7m-74.7 1.6h74.7m-74.7 1.6h74.7m-74.7 1.6h74.7m-74.7 1.6h74.7m-74.7 1.6h74.7m-74.7 1.6h74.7m-74.7 1.6h74.7m-74.7 1.6h74.7m-74.7 1.6h74.7m-74.7 1.6h74.7m-74.7 1.6h74.7m-74.7 1.6h74.7m-74.7 1.6h74.7m-74.7 1.6h74.7m-74.7-68.8h74.7v70h-74.7z" fill="#4d4d4d" fill-rule="evenodd" shape-rendering="crispEdges" stroke="#575d5e" stroke-width=".4pt"/><g id="g110"/><g id="g112" shape-rendering="crispEdges"><rect id="rect114" fill="#bb1e10" height="7.5" width="75.2" x="55.5" y="17.4"/><path id="path116" d="m55.5 25.4h75.2" fill="none" stroke="#fff"/><text id="text118" style="font-weight:bold;font-size:5.39302;font-family:sans-serif;letter-spacing:0;word-spacing:0;fill:#fff" x="107.64" y="22.366"><tspan id="tspan120" fill="#fff" font-family="sans-serif" font-size="3.75" font-weight="bold" x="107.64" y="22.366">TMax XT3</tspan></text><path id="path122" d="m58.457 18.65-.656 2.45h1.355v-2.45zm.799 0v2.45h1.355l-.656-2.45zm2.8 0v2.45h1.45v-2.45zm1.55 0v2.45h1.518a1.5 1.5 0 0 0 -.519-.344 1.125 1.125 0 0 0  .576-.981 1.125 1.125 0 0 0 -1.125-1.125zm2.35 0v2.45h1.45v-2.45zm1.55 0v2.45h1.518a1.5 1.5 0 0 0 -.519-.344 1.125 1.125 0 0 0  .576-.981 1.125 1.125 0 0 0 -1.125-1.125zm-9.731 2.55-.656 2.45h1.25l.265-1h .522v-1.45zm1.481 0v1.45h.523l.265 1h1.25l-.656-2.45zm2.8 0v2.45h1.45v-2.45zm1.55 0v2.45h.45a1.5 1.5 0 0 0 1.5-1.5 1.5 1.5 0 0 0 -.341-.95zm2.35 0v2.45h1.45v-2.45zm1.55 0v2.45h.45a1.5 1.5 0 0 0 1.5-1.5 1.5 1.5 0 0 0 -.341-.95z" fill="#fff"/></g><g id="g124" shape-rendering="crispEdges"><circle id="circle126" cx="93.1" cy="48.5" fill="#5e6163" r="30.1"/><path id="path128" d="m63.407 52.779a30 30 0 0 1  .349-10.516l29.344 6.237z" fill="#808000"/><path id="path130" d="m82.349 20.493a30 30 0 0 1 21.451-.019l-10.7 28.026z" fill="#f00"/><path id="path132" d="m65.801 36.059a30 30 0 0 1 16.548-15.566l10.751 28.007z" fill="#ff0"/><circle id="circle134" cx="93.1" cy="48.5" fill="#5e6163" r="25" stroke="#333"/><text id="text136" fill="#fff" font-family="sans-serif" font-size="12.5" letter-spacing="0" word-spacing="0" x="92.672" y="22.631"><tspan id="tspan138" fill="#fff" font-family="FreesiaUPC" font-size="7.5" x="92.672" y="22.631">I</tspan></text><text id="text140" fill="#fff" font-family="sans-serif" font-size="12.5" letter-spacing="0" word-spacing="0" x="63.998" y="49.234"><tspan id="tspan142" fill="#fff" font-family="FreesiaUPC" font-size="7.5" x="63.998" y="49.234">O</tspan></text></g><g id="g144" shape-rendering="crispEdges"><path id="path146" d="m68.1 49.707v35.223.57.25 36.96 5.79c0 1.04.174 2.05.506 3.03s.82 1.92 1.451 2.82 1.404 1.75 2.301 2.55 1.917 1.54 3.047 2.22c1.129.68 2.367 1.29 3.697 1.83 1.33.53 2.752 1 4.248 1.37 1.496.38 3.069.68 4.699.88 1.631.2 3.32.3 5.051.3s3.418-.1 5.049-.3c1.63-.2 3.201-.5 4.701-.88 1.49-.37 2.92-.84 4.25-1.37 1.33-.54 2.56-1.15 3.69-1.83s2.15-1.42 3.05-2.22 1.67-1.65 2.3-2.55 1.12-1.84 1.45-2.82.51-1.99.51-3.03v-43-.57-35.223c0-8.31-11.15-15-25-15s-25 6.69-25 15z" fill="#575d5e" stroke="#363636" stroke-linejoin="round" stroke-width=".5"/><path id="path148" d="m68.1 48.5a25 25 0 0 0  .01.313c0 .09-.01.171-.01.258v35.859.57 36.57 6.43c0 1.04.174 2.05.506 3.03s.82 1.92 1.451 2.82 1.404 1.75 2.301 2.55 1.917 1.54 3.047 2.22c1.129.68 2.367 1.29 3.697 1.83 1.33.53 2.752 1 4.248 1.37 1.496.38 3.069.68 4.699.88 1.631.2 3.32.3 5.051.3s3.418-.1 5.049-.3c1.63-.2 3.201-.5 4.701-.88 1.49-.37 2.92-.84 4.25-1.37 1.33-.54 2.56-1.15 3.69-1.83s2.15-1.42 3.05-2.22 1.67-1.65 2.3-2.55 1.12-1.84 1.45-2.82.51-1.99.51-3.03v-6.43-36.57-.57-35.859c0-.103 0-.205 0-.307a25 25 0 0 0 0-.264 25 25 0 0 0 -25-25 25 25 0 0 0 -25 25z" fill="none" stroke="#333"/><path id="path150" d="m93.099 29.538c-8.31 0-15 6.69-15 15v58.822.18 8.57c0 3.56 2.23 6.43 5 6.43h10 10.001c2.77 0 5-2.87 5-6.43v-8.57-.18-58.822c0-8.31-6.69-15-15.001-15z" fill="#fff" stroke="#999" stroke-linecap="round" stroke-linejoin="bevel" stroke-width=".8"/><path id="path152" d="m103.42 62.499c1.76 0 3.18-.256 3.18-.573v-2.855c0-.317-1.42-.572-3.18-.572h-20.645c-1.76 0-3.176.255-3.176.572v2.855c0 .317 1.416.573 3.176.573zm0-6.45c1.76 0 3.18-.255 3.18-.572v-2.855c0-.317-1.42-.573-3.18-.573h-20.645c-1.76 0-3.176.256-3.176.573v2.855c0 .317 1.416.572 3.176.572zm0-6.451c1.76 0 3.18-.256 3.18-.572v-2.856c0-.316-1.42-.572-3.18-.572h-20.645c-1.76 0-3.176.256-3.176.572v2.856c0 .316 1.416.572 3.176.572z" fill="#e6e6e6"/></g><g id="g154" shape-rendering="crispEdges"><circle id="circle156" cx="124.6" cy="87.566" r="2.5" style="fill:#c7cacc;fill-rule:evenodd;stroke:#333;stroke-width:.25;stroke-linecap:round;stroke-linejoin:round"/><text id="text158" style="font-size:12.5;font-family:sans-serif;letter-spacing:0;word-spacing:0;fill:#4d4d4d;fill-opacity:.93725" x="123.01" y="88.02"><tspan id="tspan160" fill="#4d4d4d" fill-opacity=".93725" font-size="1.25" x="123.01" y="88.02">TEST</tspan></text></g></g><g id="rotaryDrive"><rect id="rect164" fill="#5e6163" height="76" shape-rendering="crispEdges" stroke="#333" stroke-width=".8" width="76" x="55.1" y="17"/><path id="path166" d="m55.75 22.225v70m1.45-70v70m1.75-70v70m1.45-70v70m1.6-70v70m1.6-70v70m1.6-70v70m1.6-70v70m1.6-70v70m1.6-70v70m1.6-70v70m1.6-70v70m1.6-70v70m1.6-70v70m1.6-70v70m1.6-70v70m1.6-70v70m1.6-70v70m1.6-70v70m1.6-70v70m1.6-70v70m1.6-70v70m1.6-70v70m1.6-70v70m1.6-70v70m1.6-70v70m1.6-70v70m1.6-70v70m1.6-70v70m1.6-70v70m1.6-70v70m1.6-70v70m1.6-70v70m1.6-70v70m1.6-70v70m1.6-70v70m1.6-70v70m1.6-70v70m1.6-70v70m1.6-70v70m1.6-70v70m1.6-70v70m1.6-70v70m1.6-70v70m1.6-70v70m1.6-70v70m1.6-70v70m-73.45-70h74.7m-74.7 1.6h74.7m-74.7 1.6h74.7m-74.7 1.6h74.7m-74.7 1.6h74.7m-74.7 1.6h74.7m-74.7 1.6h74.7m-74.7 1.6h74.7m-74.7 1.6h74.7m-74.7 1.6h74.7m-74.7 1.6h74.7m-74.7 1.6h74.7m-74.7 1.6h74.7m-74.7 1.6h74.7m-74.7 1.6h74.7m-74.7 1.6h74.7m-74.7 1.6h74.7m-74.7 1.6h74.7m-74.7 1.6h74.7m-74.7 1.6h74.7m-74.7 1.6h74.7m-74.7 1.6h74.7m-74.7 1.6h74.7m-74.7 1.6h74.7m-74.7 1.6h74.7m-74.7 1.6h74.7m-74.7 1.6h74.7m-74.7 1.6h74.7m-74.7 1.6h74.7m-74.7 1.6h74.7m-74.7 1.6h74.7m-74.7 1.6h74.7m-74.7 1.6h74.7m-74.7 1.6h74.7m-74.7 1.6h74.7m-74.7 1.6h74.7m-74.7 1.6h74.7m-74.7 1.6h74.7m-74.7 1.6h74.7m-74.7 1.6h74.7m-74.7 1.6h74.7m-74.7 1.6h74.7m-74.7 1.6h74.7m-74.7 1.6h74.7m-74.7-68.8h74.7v70h-74.7z" fill="#4d4d4d" fill-rule="evenodd" stroke="#5e6163" stroke-width=".4pt"/><g id="g170" shape-rendering="crispEdges"><rect id="rect172" fill="#bb1e10" height="7.5" width="75.2" x="55.5" y="17.4"/><path id="path174" d="m57.744 18.526-.656 2.45h1.355v-2.45zm.799 0v2.45h1.355l-.656-2.45zm2.8 0v2.45h1.45v-2.45zm1.55 0v2.45h1.518a1.5 1.5 0 0 0 -.519-.344 1.125 1.125 0 0 0  .576-.981 1.125 1.125 0 0 0 -1.125-1.125zm2.35 0v2.45h1.45v-2.45zm1.55 0v2.45h1.518a1.5 1.5 0 0 0 -.519-.344 1.125 1.125 0 0 0  .576-.981 1.125 1.125 0 0 0 -1.125-1.125zm-9.731 2.55-.656 2.45h1.25l.265-1h .522v-1.45zm1.481 0v1.45h.523l.265 1h1.25l-.656-2.45zm2.8 0v2.45h1.45v-2.45zm1.55 0v2.45h.45a1.5 1.5 0 0 0 1.5-1.5 1.5 1.5 0 0 0 -.341-.95zm2.35 0v2.45h1.45v-2.45zm1.55 0v2.45h.45a1.5 1.5 0 0 0 1.5-1.5 1.5 1.5 0 0 0 -.341-.95z" fill="#fff"/><path id="path176" d="m55.5 25.4h75.2" fill="none" stroke="#fff"/><text id="text178" style="font-weight:bold;font-size:5.39302;font-family:sans-serif;letter-spacing:0;word-spacing:0;fill:#fff" x="107.64" y="22.389"><tspan id="tspan180" fill="#fff" font-family="sans-serif" font-size="3.75" font-weight="bold" x="107.64" y="22.389">TMax XT2</tspan></text></g><g id="g1224"><circle id="circle184" cx="93.1" cy="48.5" fill="#575d5e" r="30.1" shape-rendering="crispEdges"/><path id="path186" d="m63.41 52.779a30 30 0 0 1  .35-10.516l29.34 6.237z" fill="#808000" shape-rendering="crispEdges"/><path id="path188" d="m82.35 20.493a30 30 0 0 1 21.45-.02l-10.7 28.027z" fill="#f00" shape-rendering="crispEdges"/><path id="path190" d="m65.8 36.059a30 30 0 0 1 16.55-15.566l10.75 28.007z" fill="#ff0" shape-rendering="crispEdges"/><circle id="circle192" cx="93.1" cy="48.5" fill="#575d5e" r="25" shape-rendering="crispEdges" stroke="#333"/><rect id="rect1192" height="50.2" rx="2" ry="5" style="fill:#575d5e;stroke:#333;stroke-width:.8;stroke-linecap:round;stroke-linejoin:round;shape-rendering:crispEdges" width="13.8" x="86.2" y="23.4"/><rect id="rect1194" height="49" rx="1.0889" ry="4.5" style="fill:#fff;fill-rule:evenodd;stroke:#999;stroke-width:.5;stroke-linecap:round;stroke-linejoin:round;shape-rendering:crispEdges" width="9" x="88.6" y="26"/><text id="text198" style="font-size:12.5;font-family:sans-serif;letter-spacing:0;word-spacing:0;fill:#fff;shape-rendering:crispEdges" x="92.67" y="22.631"><tspan id="tspan200" fill="#fff" font-family="FreesiaUPC" font-size="7.5" x="92.67" y="22.631">I</tspan></text><text id="text202" style="font-size:12.5;font-family:sans-serif;letter-spacing:0;word-spacing:0;fill:#fff;shape-rendering:crispEdges" x="64" y="49.234"><tspan id="tspan204" fill="#fff" font-family="FreesiaUPC" font-size="7.5" x="64" y="49.234">O</tspan></text><path id="path206" d="m93.1 27.28-3 5.195h6zm-3.25 8.82c-.55 0-1 .446-1 1v5c0 .554.45 1 1 1h6.5c.55 0 1-.446 1-1v-5c0-.554-.45-1-1-1zm0 8.449c-.55 0-1 .446-1 1v5c0 .554.45 1 1 1h6.5c.55 0 1-.446 1-1v-5c0-.554-.45-1-1-1zm0 8.451c-.55 0-1 .446-1 1v5c0 .554.45 1 1 1h6.5c.55 0 1-.446 1-1v-5c0-.554-.45-1-1-1z" fill="#e6e6e6" shape-rendering="crispEdges"/><path id="path208" d="m89.36 71.9h7.48m-7.48-2h7.48m-7.48-2h7.48m-7.48-2h7.48m-7.48-2h7.48m-7.48-2h7.48" fill="none" shape-rendering="crispEdges" stroke="#e6e6e6" stroke-linecap="round"/></g><g id="g210" shape-rendering="crispEdges"><circle id="circle212" cx="124.6" cy="87.566" r="2.5" style="fill:#c7cacc;fill-rule:evenodd;stroke:#333;stroke-width:.25;stroke-linecap:round;stroke-linejoin:round"/><text id="text214" style="font-size:12.5;font-family:sans-serif;letter-spacing:0;word-spacing:0;fill:#4d4d4d;fill-opacity:.93725" x="123.01" y="88.02"><tspan id="tspan216" fill="#4d4d4d" fill-opacity=".93725" font-size="1.25" x="123.01" y="88.02">TEST</tspan></text></g></g><g id="motorDrive"><rect id="rect220" fill="#575d5e" height="98" shape-rendering="crispEdges" stroke="#333" stroke-width=".8" width="76" x="55.1" y="17"/><path id="path222" clip-path="url(#a)" d="m55.602 26.625v87.995m1.6-87.995v87.995m1.6-87.995v87.995m1.6-87.995v87.995m1.6-87.995v87.995m1.6-87.995v87.995m1.6-87.995v87.995m1.6-87.995v87.995m1.6-87.995v87.995m1.6-87.995v87.995m1.6-87.995v87.995m1.6-87.995v87.995m1.6-87.995v87.995m1.6-87.995v87.995m1.6-87.995v87.995m1.6-87.995v87.995m1.6-87.995v87.995m1.6-87.995v87.995m1.6-87.995v87.995m1.6-87.995v87.995m1.6-87.995v87.995m1.6-87.995v87.995m1.6-87.995v87.995m1.6-87.995v87.995m1.6-87.995v87.995m1.6-87.995v87.995m1.6-87.995v87.995m1.6-87.995v87.995m1.598-87.995v87.995m1.6-87.995v87.995m1.6-87.995v87.995m1.6-87.995v87.995m1.6-87.995v87.995m1.6-87.995v87.995m1.6-87.995v87.995m1.6-87.995v87.995m1.6-87.995v87.995m1.6-87.995v87.995m1.6-87.995v87.995m1.6-87.995v87.995m1.6-87.995v87.995m1.6-87.995v87.995m1.6-87.995v87.995m1.6-87.995v87.995m1.6-87.995v87.995m1.6-87.995v87.995m1.6-87.995v87.995m-73.598-87.995h74.998m-74.998 1.6h74.998m-74.998 1.6h74.998m-74.998 1.6h74.998m-74.998 1.6h74.998m-74.998 1.6h74.998m-74.998 1.6h74.998m-74.998 1.6h74.998m-74.998 1.6h74.998m-74.998 1.6h74.998m-74.998 1.6h74.998m-74.998 1.6h74.998m-74.998 1.6h74.998m-74.998 1.6h74.998m-74.998 1.6h74.998m-74.998 1.6h74.998m-74.998 1.6h74.998m-74.998 1.6h74.998m-74.998 1.6h74.998m-74.998 1.6h74.998m-74.998 1.6h74.998m-74.998 1.6h74.998m-74.998 1.6h74.998m-74.998 1.6h74.998m-74.998 1.6h74.998m-74.998 1.6h74.998m-74.998 1.6h74.998m-74.998 1.6h74.998m-74.998 1.6h74.998m-74.998 1.6h74.998m-74.998 1.6h74.998m-74.998 1.6h74.998m-74.998 1.6h74.998m-74.998 1.6h74.998m-74.998 1.6h74.998m-74.998 1.6h74.998m-74.998 1.6h74.998m-74.998 1.6h74.998m-74.998 1.6h74.998m-74.998 1.6h74.998m-74.998 1.6h74.998m-74.998 1.6h74.998m-74.998 1.6h74.998m-74.998 1.6h74.998m-74.998 1.6h74.998m-74.998 1.6h74.998m-74.998 1.595h74.998m-74.998 1.6h74.998m-74.998 1.6h74.998m-74.998 1.6h74.998m-74.998 1.6h74.998m-74.998 1.6h74.998m-74.998 1.6h74.998m-74.998 1.6h74.998m-74.998 1.6h74.998m-74.998-86.395h74.998v87.995h-74.998z" fill="#4d4d4d" fill-rule="evenodd" stroke="#575d5e" stroke-width=".4pt"/><rect id="rect224" fill="#c2c5c8" height="27.051" shape-rendering="crispEdges" stroke="#333" stroke-linejoin="round" stroke-width=".5" width="4" x="59.6" y="26.949"/><g id="g226" fill-rule="evenodd" shape-rendering="crispEdges" stroke-linecap="round" stroke-linejoin="round"><circle id="circle228" cx="67.6" cy="65.5" fill="#c4c7ca" r="7" stroke="#333" stroke-width=".5"/><circle id="circle230" cx="67.6" cy="65.5" fill="#000003" r="2" stroke="#000"/></g><rect id="rect232" fill="#575d5e" height="18" shape-rendering="crispEdges" stroke="#333" stroke-width=".8" width="13" x="55.1" y="97"/><g id="g234" shape-rendering="crispEdges" stroke-linecap="round"><circle id="circle236" cx="106.1" cy="105.5" fill="#d40000" fill-rule="evenodd" r="8.5" stroke="#333" stroke-linejoin="round" stroke-width=".8"/><circle id="circle238" cx="106.1" cy="105.5" fill="none" r="2.75" stroke="#fff" stroke-width=".5"/></g><g id="g240" shape-rendering="crispEdges"><rect id="rect242" fill="#bb1e10" height="7.2" width="75.2" x="55.5" y="17.4"/><path id="path244" d="m55.5 25.1h75.2" fill="none" stroke="#fff"/><path id="path246" d="m57.838 18.5-.655 2.45h1.355v-2.45zm.8 0v2.45h1.354l-.655-2.45zm2.8 0v2.45h1.45v-2.45zm1.549 0v2.45h1.518a1.5 1.5 0 0 0 -.519-.344 1.125 1.125 0 0 0  .577-.981 1.125 1.125 0 0 0 -1.125-1.125h-.45zm2.35 0v2.45h1.45v-2.45zm1.55 0v2.45h1.518a1.5 1.5 0 0 0 -.519-.344 1.125 1.125 0 0 0  .577-.981 1.125 1.125 0 0 0 -1.125-1.125h-.45zm-9.731 2.55-.656 2.45h1.25l.265-1h .522v-1.45zm1.481 0v1.45h.523l.265 1h1.25l-.656-2.45zm2.8 0v2.45h1.45v-2.45zm1.55 0v2.45h.45a1.5 1.5 0 0 0 1.5-1.5 1.5 1.5 0 0 0 -.342-.95h-1.609zm2.35 0v2.45h1.45v-2.45zm1.55 0v2.45h.45a1.5 1.5 0 0 0  .001 0 1.5 1.5 0 0 0 1.5-1.5 1.5 1.5 0 0 0 -.342-.95z" fill="#fff"/><text id="text248" style="font-weight:bold;font-size:5.39302;font-family:sans-serif;letter-spacing:0;word-spacing:0;fill:#fff" x="107.64" xml:space="preserve" y="22.339"><tspan id="tspan250" fill="#fff" font-family="sans-serif" font-size="3.75" font-weight="bold" x="107.64" y="22.339"><tspan id="tspan252" font-family="sans-serif" font-weight="bold">TMax</tspan> XT1</tspan></text></g><g id="g254" shape-rendering="crispEdges" stroke="#333" stroke-width=".5"><path id="path256" d="m78.374 26.958.465.02c3.887.126 7.837 1.751 9.111 7.131l2.607 11.013c1.213 5.117-3.07 6.878-6.883 6.878h-11.012c-3.812 0-8.01-1.879-6.882-6.883l2.483-11.013c1.164-5.164 6.015-7.279 10.111-7.146z" fill="#575d5e"/><g id="g258" stroke-linecap="round" stroke-linejoin="round"><circle id="circle260" cx="70.473" cy="46.309" fill-rule="evenodd" r="2.75"/><circle id="circle262" cx="85.885" cy="46.309" fill-rule="evenodd" r="2.75"/><circle id="circle264" cx="78.179" cy="36.893" r="7.1"/></g></g><rect id="rect266" height="11.295" style="fill:#450006;stroke:#333;stroke-width:.8;stroke-linecap:round;stroke-linejoin:round;shape-rendering:crispEdges" width="4.5921" x="119.5" y="26.305"/><g id="g268" shape-rendering="crispEdges" stroke-linecap="round"><g id="g270" fill="#c4c7ca" stroke-linejoin="round" stroke-width=".5"><path id="path272" d="m104.46 64.451c-1.84 0-3.32 1.484-3.32 3.326v8.024.826c0 .537.13 1.036.36 1.484a7.75 7.75 0 0 0 7.39 5.44 7.75 7.75 0 0 0 7.37-5.363h3.41v-3h-3.03v-4.461h3.16v-3h-3.17c0-1.818-1.49-3.276-3.32-3.276z" fill-rule="evenodd" stroke="#333"/><g id="g274" stroke="#666"><circle id="circle276" cx="110.85" cy="76.65" r="4.35"/><rect id="rect278" height="3" width="8" x="106.85" y="75.15"/></g></g><path id="path280" d="m122.11 69h4.98" fill="#ececec" fill-rule="evenodd" stroke="#ececec" stroke-width="2"/><path id="path282" d="m122.11 76.5h4.98" fill="#ececec" fill-rule="evenodd" stroke="#ececec" stroke-width="2"/></g></g><g id="rockerLever"><rect id="RL_Base" fill="#575d5e" height="45" shape-rendering="crispEdges" stroke="#333" stroke-width=".8" width="96" x="32.6" y="49"/><path id="path4p" clip-path="url(#b)" d="m35.1 49.5v44m1.6-44v44m1.6-44v44m1.6-44v44m1.6-44v44m1.6-44v44m1.6-44v44m1.6-44v44m1.6-44v44m1.6-44v44m1.6-44v44m1.6-44v44m1.6-44v44m1.6-44v44m1.6-44v44m1.6-44v44m1.6-44v44m1.6-44v44m1.6-44v44m1.6-44v44m1.6-44v44m1.6-44v44m1.6-44v44m1.6-44v44m1.6-44v44m1.6-44v44m1.6-44v44m1.6-44v44m1.6-44v44m1.6-44v44m1.6-44v44m1.6-44v44m1.6-44v44m1.6-44v44m1.6-44v44m1.6-44v44m1.6-44v44m1.6-44v44m1.6-44v44m1.6-44v44m1.6-44v44m1.6-44v44m1.6-44v44m1.6-44v44m1.6-44v44m1.6-44v44m1.6-44v44m1.6-44v44m1.6-44v44m1.6-44v44m1.6-44v44m1.6-44v44m1.6-44v44m1.6-44v44m1.6-44v44m1.6-44v44m1.6-44v44m-89.6-44h91m-91 1.6h91m-91 1.6h91m-91 1.6h91m-91 1.6h91m-91 1.6h91m-91 1.6h91m-91 1.6h91m-91 1.6h91m-91 1.6h91m-91 1.6h91m-91 1.6h91m-91 1.6h91m-91 1.6h91m-91 1.6h91m-91 1.6h91m-91 1.6h91m-91 1.6h91m-91 1.6h91m-91 1.6h91m-91 1.6h91m-91 1.6h91m-91 1.6h91m-91 1.6h91m-91 1.6h91m-91 1.6h91m-91 1.6h91m-91 1.6h91m-91-43.2h91v44h-91z" fill="#4d4d4d" fill-rule="evenodd" stroke="#575d5e" stroke-width=".4pt"/><path id="path3p" clip-path="url(#c)" d="m60.604 49.44v44m1.6-44v44m1.6-44v44m1.6-44v44m1.6-44v44m1.6-44v44m1.6-44v44m1.6-44v44m1.6-44v44m1.6-44v44m1.6-44v44m1.6-44v44m1.6-44v44m1.6-44v44m1.6-44v44m1.6-44v44m1.6-44v44m1.6-44v44m1.6-44v44m1.6-44v44m1.6-44v44m1.6-44v44m1.6-44v44m1.6-44v44m1.6-44v44m1.596-44v44m1.6-44v44m1.6-44v44m1.6-44v44m1.6-44v44m1.6-44v44m1.6-44v44m1.6-44v44m1.6-44v44m1.6-44v44m1.6-44v44m1.6-44v44m1.6-44v44m1.6-44v44m1.6-44v44m1.6-44v44m-63.996-44h64.996m-64.996 1.6h64.996m-64.996 1.6h64.996m-64.996 1.6h64.996m-64.996 1.6h64.996m-64.996 1.6h64.996m-64.996 1.6h64.996m-64.996 1.6h64.996m-64.996 1.6h64.996m-64.996 1.6h64.996m-64.996 1.6h64.996m-64.996 1.6h64.996m-64.996 1.6h64.996m-64.996 1.6h64.996m-64.996 1.6h64.996m-64.996 1.6h64.996m-64.996 1.6h64.996m-64.996 1.6h64.996m-64.996 1.6h64.996m-64.996 1.6h64.996m-64.996 1.6h64.996m-64.996 1.6h64.996m-64.996 1.6h64.996m-64.996 1.6h64.996m-64.996 1.6h64.996m-64.996 1.6h64.996m-64.996 1.6h64.996m-64.996 1.6h64.996m-64.996-43.2h64.996v44h-64.996z" fill="#4d4d4d" fill-rule="evenodd" stroke="#575d5e" stroke-width=".4pt"/><g id="RL_Drive"><rect id="rect294" fill="#575d5e" height="41" shape-rendering="crispEdges" stroke="#333" stroke-width=".8" width="45" x="70.6" y="50.94"/><g id="g296" shape-rendering="crispEdges"><g id="g298"><rect id="rect300" fill="#bb1e10" height="7.1" width="44.2" x="71" y="51.34"/><path id="path302" d="m71 58.19h44.2" fill="none" stroke="#f1f0ea" stroke-width=".5"/></g><text id="text304" style="font-weight:bold;font-size:5.39302;font-family:sans-serif;letter-spacing:0;word-spacing:0;fill:#fff" x="92.833" y="56.276"><tspan id="tspan306" fill="#fff" font-family="sans-serif" font-size="3.75" font-weight="bold" x="92.833" y="56.276">TMax XT1</tspan></text></g><path id="path308" d="m74.27 52.09-.656 2.45h1.355v-2.45zm.799 0v2.45h1.355l-.656-2.45zm2.8 0v2.45h1.45v-2.45zm1.55 0v2.45h1.518a1.5 1.5 0 0 0 -.519-.345 1.125 1.125 0 0 0  .576-.98 1.125 1.125 0 0 0 -1.125-1.125zm2.35 0v2.45h1.45v-2.45zm1.55 0v2.45h1.518a1.5 1.5 0 0 0 -.519-.345 1.125 1.125 0 0 0  .576-.98 1.125 1.125 0 0 0 -1.125-1.125zm-9.732 2.55-.656 2.45h1.25l.265-1h .523v-1.45zm1.482 0v1.45h.522l.265 1h1.25l-.656-2.45zm2.8 0v2.45h1.45v-2.45zm1.55 0v2.45h.45a1.5 1.5 0 0 0 1.5-1.5 1.5 1.5 0 0 0 -.342-.95zm2.35 0v2.45h1.45v-2.45zm1.55 0v2.45h.45a1.5 1.5 0 0 0 1.5-1.5 1.5 1.5 0 0 0 -.342-.95z" fill="#fff" shape-rendering="crispEdges"/><g id="g310" shape-rendering="crispEdges"><path id="path312" d="m76.1 84.1h15.5" fill="#f00" fill-rule="evenodd" stroke="#808000"/><path id="path314" d="m110.1 84.1h4" fill="none" stroke="#fff"/><path id="path316" d="m72.1 84.1h4" fill="none" stroke="#fff"/><path id="path318" d="m76.1 72.44h8.685" fill="none" stroke="#ff0"/><path id="path320" d="m100.72 72.44h9.38" fill="none" stroke="#808000"/><path id="path322" d="m110.1 72.439h4" fill="none" stroke="#fff"/><path id="path324" d="m72.1 72.44h4" fill="none" stroke="#fff"/><path id="path326" d="m76.1 66.44h34" fill="#f00" fill-rule="evenodd" stroke="#f00"/><path id="path328" d="m110.1 66.439h4" fill="none" stroke="#fff"/><path id="path330" d="m72.1 66.44h4" fill="none" stroke="#fff"/><path id="path332" d="m94.6 84.1h15.5" fill="#f00" fill-rule="evenodd" stroke="#808000"/><circle id="circle334" cx="80.35" cy="80.209" fill="none" r="2.5" stroke="#fff" stroke-width=".5"/></g><g id="g336" shape-rendering="crispEdges"><path id="path338" d="m84.6 57.648h17v32.836c-5.667 1.587-11.333 1.682-17 0z" fill="#d4d5df" stroke="#000" stroke-linejoin="round" stroke-width=".5"/><path id="path340" d="m85.364 70.96c5.562-1.53 10.424-1.375 15.476 0 .14.04.26.198.26.443v15.375c0 .245-.12.384-.26.443-5.155 2.125-9.803 2.136-15.476 0-.145-.054-.264-.198-.264-.443v-15.375c0-.245.12-.403.264-.443z" fill="none" stroke="#808080" stroke-linejoin="round" stroke-width=".5"/><path id="path342" d="m86.827 85.835c3.95.75 7.868.782 11.756 0" fill="none" stroke="#000" stroke-linecap="round" stroke-width=".8"/><path id="path344" d="m86.827 81.335c3.95.75 7.868.782 11.756 0" fill="none" stroke="#000" stroke-linecap="round" stroke-width=".88"/><path id="path346" d="m86.827 82.835c3.95.75 7.868.782 11.756 0" fill="none" stroke="#000" stroke-linecap="round" stroke-width=".8"/><path id="path348" d="m86.827 84.335c3.95.75 7.868.782 11.756 0" fill="none" stroke="#000" stroke-linecap="round" stroke-width=".8"/></g><g id="g350"/><g id="g352" shape-rendering="crispEdges"><circle id="circle354" cx="109.35" cy="87.95" r="2.5" style="fill:#c7cacc;fill-rule:evenodd;stroke:#333;stroke-width:.5;stroke-linecap:round;stroke-linejoin:round"/><text id="text356" style="font-size:12.5;font-family:sans-serif;letter-spacing:0;word-spacing:0;fill:#4d4d4d;fill-opacity:.93725" x="107.76" y="88.404"><tspan id="tspan358" fill="#4d4d4d" fill-opacity=".93725" font-size="1.25" x="107.76" y="88.404">TEST</tspan></text></g><text id="text360" style="font-size:12.5;font-family:sans-serif;letter-spacing:0;word-spacing:0;fill:#fff;shape-rendering:crispEdges" x="103.34" y="65.345"><tspan id="tspan362" fill="#fff" font-size="6.25" x="103.34" y="65.345">on</tspan></text><text id="text364" style="font-size:12.5;font-family:sans-serif;letter-spacing:0;word-spacing:0;fill:#fff;shape-rendering:crispEdges" x="103.34" y="82.864"><tspan id="tspan366" fill="#fff" font-size="6.25" x="103.34" y="82.864">off</tspan></text><text id="text368" style="font-size:12.5;font-family:sans-serif;letter-spacing:0;word-spacing:0;fill:#fff;shape-rendering:crispEdges" x="79.321" y="65.44"><tspan id="tspan370" fill="#fff" font-size="7.5" x="79.321" y="65.44">l</tspan></text></g></g><g id="RC_Sel"><g id="g40"><rect id="rect42" fill="#575d5e" fill-rule="evenodd" height="130" stroke="#333" stroke-width=".8" width="30" y="21"/><g id="g44"><rect id="rect46" fill="#575d5e" height="38" stroke="#333" stroke-linecap="round" stroke-linejoin="round" stroke-width=".5" width="30" y="113.15"/><path id="path48" d="m2.796 129.35h6.564" style="fill:#fff;fill-rule:evenodd;stroke:#fff;stroke-width:.8;stroke-linecap:round;stroke-dasharray:.8 3.2;shape-rendering:crispEdges"/><path id="path50" d="m2.796 126.38h9.067" style="fill:#fff;fill-rule:evenodd;stroke:#fff;stroke-width:.8;stroke-linecap:round;stroke-dasharray:.8 3.2;shape-rendering:crispEdges"/><path id="path52" d="m3.2551 120.84h6.564" style="fill:#fff;fill-rule:evenodd;stroke:#fff;stroke-width:.8;stroke-linecap:round;stroke-dasharray:.8 3.2;shape-rendering:crispEdges"/><circle id="circle54" cx="21.75" cy="142.75" fill="#b6b9bc" r="5.35" shape-rendering="crispEdges" stroke="#4d4d4d" stroke-linecap="round" stroke-width="1.2"/><path id="path56" d="m21.75 139.25v7" fill="none" shape-rendering="crispEdges" stroke="#8a8d90"/><circle id="circle58" cx="25.6" cy="119.4" fill="#0e0e11" r="2.6"/><path id="path60" d="m2.2536 123.34h25.5094" fill="none" stroke="#e8e9f3" stroke-linecap="round" stroke-width=".5"/></g></g><g id="g62"><rect id="rect64" fill="#575d5e" fill-rule="evenodd" height="45" stroke="#333" stroke-width=".8" width="30" y="49"/><circle id="circle66" cx="15" cy="87" fill="#f9f9f9" r="2" shape-rendering="crispEdges"/><path id="path68" d="m17.264 52.437 3.792 5.596-5.478-4.667 5.568 4.744-6.283-3.091 6.296 3.097-6.225-1.421 6.075 1.387h-5.216" fill="none" stroke="#fff" stroke-width=".25"/><g id="g70"><path id="path72" d="m19.1 52.15a3.7667 3.75 0 0 1 3.767 3.75 3.7667 3.75 0 0 1 -3.767 3.75v-3.75z" fill="none" stroke="#fff" stroke-linecap="round" stroke-width=".5"/><circle id="circle74" cx="19.1" cy="55.9" fill="#f9f9f9" r="3.1"/></g><circle id="circle78" cx="7.4294" cy="74.5" fill="#006f3d" r="3.9294" stroke="#333" stroke-linecap="round" stroke-width=".5"/><circle id="circle80" cx="4.125" cy="52.975" fill="#f6b600" r="1.375" stroke="#333" stroke-linecap="round" stroke-width=".25"/><g id="g82" fill="#fff"><path id="path84" d="m23.202 80.743v.851a2.0077 1.971 0 1 0 0 3.901v.851a2.8681 2.8157 0 1 1 0-5.603z"/><path id="path86" d="m25.83 83.122a2.0077 1.971 0 0 1 2.248-1.528v-.851a2.8681 2.8157 0 1 0 0 5.603v-.851a2.0077 1.971 0 0 1 -2.248-1.528h1.674v-.845z"/></g><text id="text88" style="font-weight:bold;font-size:5.39302;font-family:sans-serif;letter-spacing:0;word-spacing:0;fill:#fff;shape-rendering:crispEdges" x="1.2029" xml:space="preserve" y="92.866"><tspan id="tspan90" fill="#fff" font-family="sans-serif" font-size="3.75" font-weight="bold" x="1.2029" y="92.866">RC Inst </tspan></text></g></g></g></svg>