<svg id="svg2" height="223.5" shape-rendering="crispEdges" viewBox="0 0 170 223.5" width="170" xmlns="http://www.w3.org/2000/svg" xmlns:xlink="http://www.w3.org/1999/xlink"><clipPath id="a"><rect id="rect1191" height="75.2" shape-rendering="crispEdges" width="75.2" x="79.4" y="37.55"/></clipPath><clipPath id="b"><rect id="rect1285" height="75.2" shape-rendering="crispEdges" width="75.2" x="79.4" y="37.55"/></clipPath><clipPath id="c"><path id="path1357" d="m117.45 45.5v28.381h-37.449v40.169h13.46v19.45h26.539v-19.49h19.95v19.49h14.55v-29.59h-31.47v-21.387h31.47v-37.023h-5.51v11.941h-6.44v-11.941zm-34.919 29.572h18.419v18.376h-18.419z" shape-rendering="crispEdges"/></clipPath><clipPath id="d"><path id="path14" d="m35 63v44h130v-44zm4 2.5h9v9h-9zm107.8 5h12.5v30h-12.5z" shape-rendering="crispEdges"/></clipPath><clipPath id="e"><path id="path1442" d="m70 63v44h95v-44zm4.6 3.5h9v9h-9zm71.9 4h13v30h-13z" shape-rendering="crispEdges"/></clipPath><g id="layer1"><rect id="breakerRear" fill="#575d5e" fill-rule="evenodd" height="223.5" stroke="#333" stroke-width=".8" width="170"/><g id="rotaryDriveAxle" shape-rendering="crispEdges"><rect id="rect28" fill="#575d5e" height="76" stroke="#333" stroke-width=".8" width="76" x="79" y="37.15"/><g id="g30"><circle id="circle32" cx="117" cy="68.65" fill="#c0c0c0" r="15" stroke="#000" stroke-width=".5"/><circle id="circle34" cx="117" cy="68.65" r="8" stroke="#000"/><rect id="rect36" fill="#e6e6e6" height="6" width="6" x="114" y="65.65"/></g></g><g id="rotaryDrive"><rect id="rect40" fill="#575d5e" height="76" shape-rendering="crispEdges" stroke="#333" stroke-width=".8" width="76" x="79" y="37.15"/><path id="path42" d="m154.97 88.8h-16.5m16.5 1.5h-16.5m16.5 1.5h-16.5m16.5 1.5h-16.5m16.5 1.5h-16.5m16.5 1.5h-16.5m16.5 1.5h-16.5m16.5 1.5h-16.5m16.5 1.5h-16.5m16.5 1.5h-16.5m16.5 1.5h-16.5m16.5 1.5h-16.5m16.5 1.5h-16.5m16.5 1.5h-16.5m16.5 1.5h-16.5m16.5 1.5h-16.5m16.5 1.5h-16.5m16.5.5h-16.5m16.25-24.25v24m-16-24v24m1.5-24v24m1.5-24v24m1.5-24v24m1.5-24v24m1.5-24v24m1.5-24v24m1.5-24v24m1.5-24v24m1.5-24v24m1.5-24v24m-15-24.25h16v24.5h-16zm16.25-51h-16.5m16.5 1.5h-16.5m16.5 1.5h-16.5m16.5 1.5h-16.5m16.5 1.5h-16.5m16.5 1.5h-16.5m16.5 1.5h-16.5m16.5 1.5h-16.5m16.5 1.5h-16.5m16.5 1.5h-16.5m16.5 1.5h-16.5m16.5 1.5h-16.5m16.5 1.5h-16.5m16.5 1.5h-16.5m16.5 1.5h-16.5m16.5 1.5h-16.5m16.5 1.5h-16.5m16.5 1.5h-16.5m16.5 1.5h-16.5m16.5 1.5h-16.5m16.5 1.5h-16.5m16.5 1.5h-16.5m16.5 1.5h-16.5m16.5 1.5h-16.5m16.5 1.5h-16.5m16.5 1.5h-16.5m16.5 1.5h-16.5m16.5 1.5h-16.5m16.5 1.5h-16.5m16.5 1.5h-16.5m16.5 1.5h-16.5m16.5 1.5h-16.5m16.5 1.5h-16.5m16.5 1.5h-16.5m16.5 1.5h-16.5m16.25-50.75v50.5m-16-50.5v50.5m1.5-50.5v50.5m1.5-50.5v50.5m1.5-50.5v50.5m1.5-50.5v50.5m1.5-50.5v50.5m1.5-50.5v50.5m1.5-50.5v50.5m1.5-50.5v50.5m1.5-50.5v50.5m1.5-50.5v50.5m-15-50.75h16v51h-16zm .25 51h-60.098m60.098 1.5h-60.098m60.098 1.5h-60.098m60.098 1.5h-60.098m60.098 1.5h-60.098m60.098 1.5h-60.098m60.098 1.5h-60.098m60.098 1.5h-60.098m60.098 1.5h-60.098m60.098 1.5h-60.098m60.098 1.5h-60.098m60.098 1.5h-60.098m60.098 1.5h-60.098m60.098 1.5h-60.098m60.098 1.5h-60.098m60.098 1.5h-60.098m60.098 1.5h-60.098m60.098.5h-60.098m46.348-24.25v24m1.5-24v24m1.5-24v24m1.5-24v24m1.5-24v24m1.5-24v24m1.5-24v24m1.5-24v24m1.5-24v24m1.5-24v24m-59.598-24v24m1.1-24v24m1.5-24v24m1.5-24v24m1.5-24v24m1.5-24v24m1.5-24v24m1.5-24v24m1.5-24v24m1.5-24v24m1.5-24v24m1.5-24v24m1.5-24v24m1.5-24v24m1.5-24v24m1.498-24v24m1.5-24v24m1.5-24v24m1.5-24v24m1.5-24v24m1.5-24v24m1.5-24v24m1.5-24v24m1.5-24v24m1.5-24v24m1.5-24v24m1.5-24v24m1.5-24v24m1.5-24v24m1.5-24v24m1.5-24v24m-44.598-24.25h59.598v24.5h-59.598zm59.848-51h-60.098m60.098 1.5h-60.098m60.098 1.5h-60.098m60.098 1.5h-60.098m60.098 1.5h-60.098m60.098 1.5h-60.098m60.098 1.5h-60.098m60.098 1.5h-60.098m60.098 1.5h-60.098m60.098 1.5h-60.098m60.098 1.5h-60.098m60.098 1.5h-60.098m60.098 1.5h-60.098m60.098 1.5h-60.098m60.098 1.5h-60.098m60.098 1.5h-60.098m60.098 1.5h-60.098m60.098 1.5h-60.098m60.098 1.5h-60.098m60.098 1.5h-60.098m60.098 1.5h-60.098m60.098 1.5h-60.098m60.098 1.5h-60.098m60.098 1.5h-60.098m60.098 1.5h-60.098m60.098 1.5h-60.098m60.098 1.5h-60.098m60.098 1.5h-60.098m60.098 1.5h-60.098m60.098 1.5h-60.098m60.098 1.5h-60.098m60.098 1.5h-60.098m60.098 1.5h-60.098m60.098 1.5h-60.098m60.098 1.5h-60.098m46.348-50.75v50.5m1.5-50.5v50.5m1.5-50.5v50.5m1.5-50.5v50.5m1.5-50.5v50.5m1.5-50.5v50.5m1.5-50.5v50.5m1.5-50.5v50.5m1.5-50.5v50.5m1.5-50.5v50.5m-59.598-50.5v50.5m1.1-50.5v50.5m1.5-50.5v50.5m1.5-50.5v50.5m1.5-50.5v50.5m1.5-50.5v50.5m1.5-50.5v50.5m1.5-50.5v50.5m1.5-50.5v50.5m1.5-50.5v50.5m1.5-50.5v50.5m1.5-50.5v50.5m1.5-50.5v50.5m1.5-50.5v50.5m1.5-50.5v50.5m1.498-50.5v50.5m1.5-50.5v50.5m1.5-50.5v50.5m1.5-50.5v50.5m1.5-50.5v50.5m1.5-50.5v50.5m1.5-50.5v50.5m1.5-50.5v50.5m1.5-50.5v50.5m1.5-50.5v50.5m1.5-50.5v50.5m1.5-50.5v50.5m1.5-50.5v50.5m1.5-50.5v50.5m1.5-50.5v50.5m1.5-50.5v50.5m-44.598-50.75h59.598v51h-59.598z" style="fill:#4d4d4d;fill-rule:evenodd;stroke:#575d5e;stroke-width:.5;shape-rendering:crispEdges;clip-path:url(#a)"/><g id="g46" shape-rendering="crispEdges"><rect id="rect48" fill="#bb1e10" height="7.5" width="75.2" x="79.4" y="37.55"/><path id="path50" d="m79.4 45.55h75.2" fill="none" stroke="#fff"/><text id="text52" style="font-weight:bold;font-size:5.39302;font-family:sans-serif;letter-spacing:0;word-spacing:0;fill:#fff" x="131.54" y="42.516"><tspan id="tspan54" fill="#fff" font-family="sans-serif" font-size="3.75" font-weight="bold" x="131.54" y="42.516">TMax XT3</tspan></text><path id="path56" d="m82.357 38.8-.656 2.45h1.355v-2.45zm.799 0v2.45h1.355l-.656-2.45zm2.8 0v2.45h1.45v-2.45zm1.55 0v2.45h1.518a1.5 1.5 0 0 0 -.519-.344 1.125 1.125 0 0 0  .576-.981 1.125 1.125 0 0 0 -1.125-1.125zm2.35 0v2.45h1.45v-2.45zm1.55 0v2.45h1.518a1.5 1.5 0 0 0 -.519-.344 1.125 1.125 0 0 0  .576-.981 1.125 1.125 0 0 0 -1.125-1.125zm-9.731 2.55-.656 2.45h1.25l.265-1h .522v-1.45zm1.481 0v1.45h.523l.265 1h1.25l-.656-2.45zm2.8 0v2.45h1.45v-2.45zm1.55 0v2.45h.45a1.5 1.5 0 0 0 1.5-1.5 1.5 1.5 0 0 0 -.341-.95zm2.35 0v2.45h1.45v-2.45zm1.55 0v2.45h.45a1.5 1.5 0 0 0 1.5-1.5 1.5 1.5 0 0 0 -.341-.95z" fill="#fff"/></g><g id="g1223"><circle id="circle60" cx="117" cy="68.65" fill="#5e6163" r="30.1" shape-rendering="crispEdges"/><path id="path62" d="m87.31 72.929a30 30 0 0 1  .35-10.516l29.34 6.237z" fill="#808000" shape-rendering="crispEdges"/><path id="path64" d="m106.25 40.643a30 30 0 0 1 21.45-.02l-10.7 28.027z" fill="#f00" shape-rendering="crispEdges"/><path id="path66" d="m89.7 56.209a30 30 0 0 1 16.55-15.566l10.75 28.007z" fill="#ff0" shape-rendering="crispEdges"/><circle id="circle68" cx="117" cy="68.65" fill="#5e6163" r="25" shape-rendering="crispEdges" stroke="#333"/><rect id="rect1206" height="50.2" rx="2" ry="5" style="fill:#5e6163;stroke:#333;stroke-width:.8;stroke-linecap:round;stroke-linejoin:round;shape-rendering:crispEdges" width="13.8" x="110.1" y="43.55"/><rect id="rect1208" height="49" rx="1.0889" ry="4.5" style="fill:#fff;fill-rule:evenodd;stroke:#999;stroke-width:.5;stroke-linecap:round;stroke-linejoin:round;shape-rendering:crispEdges" width="9" x="112.5" y="46.15"/><text id="text74" style="font-size:12.5;font-family:sans-serif;letter-spacing:0;word-spacing:0;fill:#fff;shape-rendering:crispEdges" x="116.57" y="42.781"><tspan id="tspan76" fill="#fff" font-family="FreesiaUPC" font-size="7.5" x="116.57" y="42.781">I</tspan></text><text id="text78" style="font-size:12.5;font-family:sans-serif;letter-spacing:0;word-spacing:0;fill:#fff;shape-rendering:crispEdges" x="87.9" y="69.384"><tspan id="tspan80" fill="#fff" font-family="FreesiaUPC" font-size="7.5" x="87.9" y="69.384">O</tspan></text><path id="path82" d="m117 47.43-3 5.195h6zm-3.25 8.82c-.55 0-1 .446-1 1v5c0 .554.45 1 1 1h6.5c.55 0 1-.446 1-1v-5c0-.554-.45-1-1-1zm0 8.449c-.55 0-1 .446-1 1v5c0 .554.45 1 1 1h6.5c.55 0 1-.446 1-1v-5c0-.554-.45-1-1-1zm0 8.451c-.55 0-1 .446-1 1v5c0 .554.45 1 1 1h6.5c.55 0 1-.446 1-1v-5c0-.554-.45-1-1-1z" fill="#e6e6e6" shape-rendering="crispEdges"/><path id="path84" d="m113.26 92.05h7.48m-7.48-2h7.48m-7.48-2h7.48m-7.48-2h7.48m-7.48-2h7.48m-7.48-2h7.48" fill="none" shape-rendering="crispEdges" stroke="#e6e6e6" stroke-linecap="round"/></g><g id="g86" shape-rendering="crispEdges"><circle id="circle88" cx="148.5" cy="107.72" r="2.5" style="fill:#c7cacc;fill-rule:evenodd;stroke:#333;stroke-width:.25;stroke-linecap:round;stroke-linejoin:round"/><text id="text90" style="font-size:12.5;font-family:sans-serif;letter-spacing:0;word-spacing:0;fill:#4d4d4d;fill-opacity:.93725" x="146.91" y="108.17"><tspan id="tspan92" fill="#4d4d4d" fill-opacity=".93725" font-size="1.25" x="146.91" y="108.17">TEST</tspan></text></g></g><g id="largeRotaryHandle"><rect id="rect96" fill="#575d5e" height="76" shape-rendering="crispEdges" stroke="#333" stroke-width=".8" width="76" x="79" y="37.15"/><path id="path98" d="m154.97 88.8h-16.5m16.5 1.5h-16.5m16.5 1.5h-16.5m16.5 1.5h-16.5m16.5 1.5h-16.5m16.5 1.5h-16.5m16.5 1.5h-16.5m16.5 1.5h-16.5m16.5 1.5h-16.5m16.5 1.5h-16.5m16.5 1.5h-16.5m16.5 1.5h-16.5m16.5 1.5h-16.5m16.5 1.5h-16.5m16.5 1.5h-16.5m16.5 1.5h-16.5m16.5 1.5h-16.5m16.5.4h-16.5m16.25-24.15v23.9m-16-23.9v23.9m1.5-23.9v23.9m1.5-23.9v23.9m1.5-23.9v23.9m1.5-23.9v23.9m1.5-23.9v23.9m1.5-23.9v23.9m1.5-23.9v23.9m1.5-23.9v23.9m1.5-23.9v23.9m1.5-23.9v23.9m-15-24.15h16v24.4h-16zm16.25-51h-16.5m16.5 1.5h-16.5m16.5 1.5h-16.5m16.5 1.5h-16.5m16.5 1.5h-16.5m16.5 1.5h-16.5m16.5 1.5h-16.5m16.5 1.5h-16.5m16.5 1.5h-16.5m16.5 1.5h-16.5m16.5 1.5h-16.5m16.5 1.5h-16.5m16.5 1.5h-16.5m16.5 1.5h-16.5m16.5 1.5h-16.5m16.5 1.5h-16.5m16.5 1.5h-16.5m16.5 1.5h-16.5m16.5 1.5h-16.5m16.5 1.5h-16.5m16.5 1.5h-16.5m16.5 1.5h-16.5m16.5 1.5h-16.5m16.5 1.5h-16.5m16.5 1.5h-16.5m16.5 1.5h-16.5m16.5 1.5h-16.5m16.5 1.5h-16.5m16.5 1.5h-16.5m16.5 1.5h-16.5m16.5 1.5h-16.5m16.5 1.5h-16.5m16.5 1.5h-16.5m16.5 1.5h-16.5m16.5 1.5h-16.5m16.25-50.75v50.5m-16-50.5v50.5m1.5-50.5v50.5m1.5-50.5v50.5m1.5-50.5v50.5m1.5-50.5v50.5m1.5-50.5v50.5m1.5-50.5v50.5m1.5-50.5v50.5m1.5-50.5v50.5m1.5-50.5v50.5m1.5-50.5v50.5m-15-50.75h16v51h-16zm .25 51h-60.098m60.098 1.5h-60.098m60.098 1.5h-60.098m60.098 1.5h-60.098m60.098 1.5h-60.098m60.098 1.5h-60.098m60.098 1.5h-60.098m60.098 1.5h-60.098m60.098 1.5h-60.098m60.098 1.5h-60.098m60.098 1.5h-60.098m60.098 1.5h-60.098m60.098 1.5h-60.098m60.098 1.5h-60.098m60.098 1.5h-60.098m60.098 1.5h-60.098m60.098 1.5h-60.098m60.098.4h-60.098m46.348-24.15v23.9m1.5-23.9v23.9m1.5-23.9v23.9m1.5-23.9v23.9m1.5-23.9v23.9m1.5-23.9v23.9m1.5-23.9v23.9m1.5-23.9v23.9m1.5-23.9v23.9m1.5-23.9v23.9m-59.598-23.9v23.9m1.1-23.9v23.9m1.5-23.9v23.9m1.5-23.9v23.9m1.5-23.9v23.9m1.5-23.9v23.9m1.5-23.9v23.9m1.5-23.9v23.9m1.5-23.9v23.9m1.5-23.9v23.9m1.5-23.9v23.9m1.5-23.9v23.9m1.5-23.9v23.9m1.5-23.9v23.9m1.5-23.9v23.9m1.498-23.9v23.9m1.5-23.9v23.9m1.5-23.9v23.9m1.5-23.9v23.9m1.5-23.9v23.9m1.5-23.9v23.9m1.5-23.9v23.9m1.5-23.9v23.9m1.5-23.9v23.9m1.5-23.9v23.9m1.5-23.9v23.9m1.5-23.9v23.9m1.5-23.9v23.9m1.5-23.9v23.9m1.5-23.9v23.9m1.5-23.9v23.9m-44.598-24.15h59.598v24.4h-59.598zm59.848-51h-60.098m60.098 1.5h-60.098m60.098 1.5h-60.098m60.098 1.5h-60.098m60.098 1.5h-60.098m60.098 1.5h-60.098m60.098 1.5h-60.098m60.098 1.5h-60.098m60.098 1.5h-60.098m60.098 1.5h-60.098m60.098 1.5h-60.098m60.098 1.5h-60.098m60.098 1.5h-60.098m60.098 1.5h-60.098m60.098 1.5h-60.098m60.098 1.5h-60.098m60.098 1.5h-60.098m60.098 1.5h-60.098m60.098 1.5h-60.098m60.098 1.5h-60.098m60.098 1.5h-60.098m60.098 1.5h-60.098m60.098 1.5h-60.098m60.098 1.5h-60.098m60.098 1.5h-60.098m60.098 1.5h-60.098m60.098 1.5h-60.098m60.098 1.5h-60.098m60.098 1.5h-60.098m60.098 1.5h-60.098m60.098 1.5h-60.098m60.098 1.5h-60.098m60.098 1.5h-60.098m60.098 1.5h-60.098m60.098 1.5h-60.098m46.348-50.75v50.5m1.5-50.5v50.5m1.5-50.5v50.5m1.5-50.5v50.5m1.5-50.5v50.5m1.5-50.5v50.5m1.5-50.5v50.5m1.5-50.5v50.5m1.5-50.5v50.5m1.5-50.5v50.5m-59.598-50.5v50.5m1.1-50.5v50.5m1.5-50.5v50.5m1.5-50.5v50.5m1.5-50.5v50.5m1.5-50.5v50.5m1.5-50.5v50.5m1.5-50.5v50.5m1.5-50.5v50.5m1.5-50.5v50.5m1.5-50.5v50.5m1.5-50.5v50.5m1.5-50.5v50.5m1.5-50.5v50.5m1.5-50.5v50.5m1.498-50.5v50.5m1.5-50.5v50.5m1.5-50.5v50.5m1.5-50.5v50.5m1.5-50.5v50.5m1.5-50.5v50.5m1.5-50.5v50.5m1.5-50.5v50.5m1.5-50.5v50.5m1.5-50.5v50.5m1.5-50.5v50.5m1.5-50.5v50.5m1.5-50.5v50.5m1.5-50.5v50.5m1.5-50.5v50.5m1.5-50.5v50.5m-44.598-50.75h59.598v51h-59.598z" style="fill:#4d4d4d;fill-rule:evenodd;stroke:#575d5e;stroke-width:.5;shape-rendering:crispEdges;clip-path:url(#b)"/><g id="g102" shape-rendering="crispEdges"><rect id="rect104" fill="#bb1e10" height="7.5" width="75.2" x="79.4" y="37.55"/><path id="path106" d="m79.4 45.55h75.2" fill="none" stroke="#fff"/><text id="text108" style="font-weight:bold;font-size:5.39302;font-family:sans-serif;letter-spacing:0;word-spacing:0;fill:#fff" x="131.54" y="42.516"><tspan id="tspan110" fill="#fff" font-family="sans-serif" font-size="3.75" font-weight="bold" x="131.54" y="42.516">TMax XT3</tspan></text><path id="path112" d="m82.357 38.8-.656 2.45h1.355v-2.45zm.799 0v2.45h1.355l-.656-2.45zm2.8 0v2.45h1.45v-2.45zm1.55 0v2.45h1.518a1.5 1.5 0 0 0 -.519-.344 1.125 1.125 0 0 0  .576-.981 1.125 1.125 0 0 0 -1.125-1.125zm2.35 0v2.45h1.45v-2.45zm1.55 0v2.45h1.518a1.5 1.5 0 0 0 -.519-.344 1.125 1.125 0 0 0  .576-.981 1.125 1.125 0 0 0 -1.125-1.125zm-9.731 2.55-.656 2.45h1.25l.265-1h .522v-1.45zm1.481 0v1.45h.523l.265 1h1.25l-.656-2.45zm2.8 0v2.45h1.45v-2.45zm1.55 0v2.45h.45a1.5 1.5 0 0 0 1.5-1.5 1.5 1.5 0 0 0 -.341-.95zm2.35 0v2.45h1.45v-2.45zm1.55 0v2.45h.45a1.5 1.5 0 0 0 1.5-1.5 1.5 1.5 0 0 0 -.341-.95z" fill="#fff"/></g><g id="g114" shape-rendering="crispEdges"><circle id="circle116" cx="117" cy="68.65" fill="#5e6163" r="30.1"/><path id="path118" d="m87.307 72.929a30 30 0 0 1  .349-10.516l29.344 6.237z" fill="#808000"/><path id="path120" d="m106.25 40.643a30 30 0 0 1 21.45-.02l-10.7 28.027z" fill="#f00"/><path id="path122" d="m89.701 56.209a30 30 0 0 1 16.549-15.566l10.75 28.007z" fill="#ff0"/><circle id="circle124" cx="117" cy="68.65" fill="#5e6163" r="25" stroke="#333"/><text id="text126" fill="#fff" font-family="sans-serif" font-size="12.5" letter-spacing="0" word-spacing="0" x="116.57" y="42.781"><tspan id="tspan128" fill="#fff" font-family="FreesiaUPC" font-size="7.5" x="116.57" y="42.781">I</tspan></text><text id="text130" fill="#fff" font-family="sans-serif" font-size="12.5" letter-spacing="0" word-spacing="0" x="87.898" y="69.384"><tspan id="tspan132" fill="#fff" font-family="FreesiaUPC" font-size="7.5" x="87.898" y="69.384">O</tspan></text></g><g id="g134" shape-rendering="crispEdges"><path id="path136" d="m92 69.857v35.223.57.25 36.96 5.79c0 1.04.174 2.05.506 3.03s.82 1.92 1.451 2.82 1.404 1.75 2.301 2.55 1.917 1.54 3.047 2.22c1.125.68 2.365 1.29 3.695 1.83 1.33.53 2.75 1 4.25 1.37 1.5.38 3.07.68 4.7.88s3.32.3 5.05.3 3.42-.1 5.05-.3 3.2-.5 4.7-.88c1.49-.37 2.92-.84 4.25-1.37 1.33-.54 2.56-1.15 3.69-1.83s2.15-1.42 3.05-2.22 1.67-1.65 2.3-2.55 1.12-1.84 1.45-2.82.51-1.99.51-3.03v-43-.57-35.223c0-8.31-11.15-15-25-15s-25 6.69-25 15z" fill="#575d5e" stroke="#363636" stroke-linejoin="round" stroke-width=".5"/><path id="path138" d="m92 68.65a25 25 0 0 0  .01.313c0 .09-.01.171-.01.258v35.859.57 36.57 6.43c0 1.04.174 2.05.506 3.03s.82 1.92 1.451 2.82 1.404 1.75 2.301 2.55 1.917 1.54 3.047 2.22c1.125.68 2.365 1.29 3.695 1.83 1.33.53 2.75 1 4.25 1.37 1.5.38 3.07.68 4.7.88s3.32.3 5.05.3 3.42-.1 5.05-.3 3.2-.5 4.7-.88c1.49-.37 2.92-.84 4.25-1.37 1.33-.54 2.56-1.15 3.69-1.83s2.15-1.42 3.05-2.22 1.67-1.65 2.3-2.55 1.12-1.84 1.45-2.82.51-1.99.51-3.03v-6.43-36.57-.57-35.859c0-.103 0-.205 0-.307a25 25 0 0 0 0-.264 25 25 0 0 0 -25-25 25 25 0 0 0 -25 25z" fill="none" stroke="#333"/><path id="path140" d="m117 49.688c-8.31 0-15 6.69-15 15v58.822.18 8.57c0 3.56 2.23 6.43 5 6.43h10 10c2.77 0 5-2.87 5-6.43v-8.57-.18-58.822c0-8.31-6.69-15-15-15z" fill="#fff" stroke="#999" stroke-linecap="round" stroke-linejoin="bevel" stroke-width=".8"/><path id="path142" d="m127.32 82.649c1.76 0 3.18-.256 3.18-.573v-2.855c0-.317-1.42-.572-3.18-.572h-20.65c-1.75 0-3.17.255-3.17.572v2.855c0 .317 1.42.573 3.17.573zm0-6.45c1.76 0 3.18-.255 3.18-.572v-2.855c0-.317-1.42-.573-3.18-.573h-20.65c-1.75 0-3.17.256-3.17.573v2.855c0 .317 1.42.572 3.17.572zm0-6.451c1.76 0 3.18-.256 3.18-.572v-2.856c0-.316-1.42-.572-3.18-.572h-20.65c-1.75 0-3.17.256-3.17.572v2.856c0 .316 1.42.572 3.17.572z" fill="#e6e6e6"/></g><g id="g144" shape-rendering="crispEdges"><circle id="circle146" cx="148.5" cy="107.72" r="2.5" style="fill:#c7cacc;fill-rule:evenodd;stroke:#333;stroke-width:.25;stroke-linecap:round;stroke-linejoin:round"/><text id="text148" style="font-size:12.5;font-family:sans-serif;letter-spacing:0;word-spacing:0;fill:#4d4d4d;fill-opacity:.93725" x="146.91" y="108.17"><tspan id="tspan150" fill="#4d4d4d" fill-opacity=".93725" font-size="1.25" x="146.91" y="108.17">TEST</tspan></text></g></g><g id="motorDrive"><rect id="rect154" fill="#575d5e" height="98" shape-rendering="crispEdges" stroke="#333" stroke-width=".8" width="76" x="79" y="36"/><path id="path156" d="m155.91 44.248h-62.499m62.499 0h-62.499m62.499 1.5h-62.499m62.499 1.5h-62.499m62.499 1.5h-62.499m62.499 1.5h-62.499m62.499 1.5h-62.499m62.499 1.5h-62.499m62.499 1.5h-62.499m62.499 1.5h-62.499m62.499 1.5h-62.499m62.499 1.5h-62.499m62.499 1.5h-62.499m62.499 1.5h-62.499m62.499 1.5h-62.499m62.499 1.5h-62.499m62.499 1.5h-62.499m62.499 1.5h-62.499m62.499 1.5h-62.499m62.499 1.5h-62.499m62.499 1.5h-62.499m62.499 1.5h-62.499m62.499 1.5h-62.499m62.499 1.5h-62.499m62.499 1.5h-62.499m62.499 1.5h-62.499m62.499 1.5h-62.499m62.499 1.5h-62.499m62.249-38.75v38.5m-61.999-38.5v38.5m1.5-38.5v38.5m1.5-38.5v38.5m1.5-38.5v38.5m1.5-38.5v38.5m1.499-38.5v38.5m1.5-38.5v38.5m1.5-38.5v38.5m1.5-38.5v38.5m1.5-38.5v38.5m1.5-38.5v38.5m1.5-38.5v38.5m1.5-38.5v38.5m1.5-38.5v38.5m1.5-38.5v38.5m1.5-38.5v38.5m1.5-38.5v38.5m1.5-38.5v38.5m1.5-38.5v38.5m1.5-38.5v38.5m1.5-38.5v38.5m1.5-38.5v38.5m1.5-38.5v38.5m1.5-38.5v38.5m1.5-38.5v38.5m1.5-38.5v38.5m1.5-38.5v38.5m1.5-38.5v38.5m1.5-38.5v38.5m1.5-38.5v38.5m1.5-38.5v38.5m1.5-38.5v38.5m1.5-38.5v38.5m1.5-38.5v38.5m1.5-38.5v38.5m1.5-38.5v38.5m1.5-38.5v38.5m1.5-38.5v38.5m1.5-38.5v38.5m1.5-38.5v38.5m1.5-38.5v38.5m-59.999-38.75h61.999v39h-61.999zm.25 0h-14.5m14.5 0h-14.5m14.5 1.5h-14.5m14.5 1.5h-14.5m14.5 1.5h-14.5m14.5 1.5h-14.5m14.5 1.5h-14.5m14.5 1.5h-14.5m14.5 1.5h-14.5m14.5 1.5h-14.5m14.5 1.5h-14.5m14.5 1.5h-14.5m14.5 1.5h-14.5m14.5 1.5h-14.5m14.5 1.5h-14.5m14.5 1.5h-14.5m14.5 1.5h-14.5m14.5 1.5h-14.5m14.5 1.5h-14.5m14.5 1.5h-14.5m14.5 1.5h-14.5m14.5 1.5h-14.5m14.5 1.5h-14.5m14.5 1.5h-14.5m14.5 1.5h-14.5m14.5 1.5h-14.5m14.5 1.5h-14.5m14.5 1.5h-14.5m.75-38.75v38.5m1.5-38.5v38.5m1.5-38.5v38.5m1.5-38.5v38.5m1.5-38.5v38.5m1.5-38.5v38.5m1.5-38.5v38.5m1.5-38.5v38.5m1.5-38.5v38.5m1.5-38.5v38.5m-14-38.5v38.5m0-38.75h14v39h-14zm76.249 39h-62.499m62.499 1.5h-62.499m62.499 1.5h-62.499m62.499 1.5h-62.499m62.499 1.5h-62.499m62.499 1.5h-62.499m62.499 1.5h-62.499m62.499 1.5h-62.499m62.499 1.5h-62.499m62.499 1.5h-62.499m62.499 1.5h-62.499m62.499 1.5h-62.499m62.499 1.502h-62.499m62.499 1.5h-62.499m62.499 1.5h-62.499m62.499 1.5h-62.499m62.499 1.5h-62.499m62.499 1.5h-62.499m62.499 1.5h-62.499m62.499 1.5h-62.499m62.499 1.5h-62.499m62.499 1.5h-62.499m62.499 1.5h-62.499m62.499 1.5h-62.499m62.499 1.5h-62.499m62.499 1.5h-62.499m62.499 1.5h-62.499m62.499 1.5h-62.499m62.499 1.5h-62.499m62.499 1.5h-62.499m62.499 1.5h-62.499m62.499 1.5h-62.499m62.499 1.5h-62.499m62.499 1.5h-62.499m62.499 1.5h-62.499m62.249-50.752v50.502m-61.999-50.502v50.502m1.5-50.502v50.502m1.5-50.502v50.502m1.5-50.502v50.502m1.5-50.502v50.502m1.499-50.502v50.502m1.5-50.502v50.502m1.5-50.502v50.502m1.5-50.502v50.502m1.5-50.502v50.502m1.5-50.502v50.502m1.5-50.502v50.502m1.5-50.502v50.502m1.5-50.502v50.502m1.5-50.502v50.502m1.5-50.502v50.502m1.5-50.502v50.502m1.5-50.502v50.502m1.5-50.502v50.502m1.5-50.502v50.502m1.5-50.502v50.502m1.5-50.502v50.502m1.5-50.502v50.502m1.5-50.502v50.502m1.5-50.502v50.502m1.5-50.502v50.502m1.5-50.502v50.502m1.5-50.502v50.502m1.5-50.502v50.502m1.5-50.502v50.502m1.5-50.502v50.502m1.5-50.502v50.502m1.5-50.502v50.502m1.5-50.502v50.502m1.5-50.502v50.502m1.5-50.502v50.502m1.5-50.502v50.502m1.5-50.502v50.502m1.5-50.502v50.502m1.5-50.502v50.502m1.5-50.502v50.502m-59.999-50.752h61.999v51.002h-61.999zm.25 0h-14.5m14.5 1.5h-14.5m14.5 1.5h-14.5m14.5 1.5h-14.5m14.5 1.5h-14.5m14.5 1.5h-14.5m14.5 1.5h-14.5m14.5 1.5h-14.5m14.5 1.5h-14.5m14.5 1.5h-14.5m14.5 1.5h-14.5m14.5 1.5h-14.5m14.5 1.502h-14.5m14.5 1.5h-14.5m14.5 1.5h-14.5m14.5 1.5h-14.5m14.5 1.5h-14.5m14.5 1.5h-14.5m14.5 1.5h-14.5m14.5 1.5h-14.5m14.5 1.5h-14.5m14.5 1.5h-14.5m14.5 1.5h-14.5m14.5 1.5h-14.5m14.5 1.5h-14.5m14.5 1.5h-14.5m14.5 1.5h-14.5m14.5 1.5h-14.5m14.5 1.5h-14.5m14.5 1.5h-14.5m14.5 1.5h-14.5m14.5 1.5h-14.5m14.5 1.5h-14.5m14.5 1.5h-14.5m14.5 1.5h-14.5m.75-50.752v50.502m1.5-50.502v50.502m1.5-50.502v50.502m1.5-50.502v50.502m1.5-50.502v50.502m1.5-50.502v50.502m1.5-50.502v50.502m1.5-50.502v50.502m1.5-50.502v50.502m1.5-50.502v50.502m-14-50.502v50.502m0-50.752h14v51.002h-14z" style="fill:#4d4d4d;fill-rule:evenodd;stroke:#575d5e;stroke-width:.5;shape-rendering:crispEdges;clip-path:url(#c)"/><rect id="rect158" fill="#c2c5c8" height="27.051" shape-rendering="crispEdges" stroke="#333" stroke-linejoin="round" stroke-width=".5" width="4" x="83.5" y="45.949"/><g id="g160" fill-rule="evenodd" shape-rendering="crispEdges" stroke-linecap="round" stroke-linejoin="round"><circle id="circle162" cx="91.5" cy="84.5" fill="#c4c7ca" r="7" stroke="#333" stroke-width=".5"/><circle id="circle164" cx="91.5" cy="84.5" fill="#000003" r="2" stroke="#000"/></g><rect id="rect166" fill="#575d5e" height="18" shape-rendering="crispEdges" stroke="#333" stroke-width=".8" width="13" x="79" y="116"/><g id="g168" shape-rendering="crispEdges" stroke-linecap="round"><circle id="circle170" cx="130" cy="124.5" fill="#d40000" fill-rule="evenodd" r="8.5" stroke="#333" stroke-linejoin="round" stroke-width=".8"/><circle id="circle172" cx="130" cy="124.5" fill="none" r="2.75" stroke="#fff" stroke-width=".5"/></g><g id="g174" shape-rendering="crispEdges"><rect id="rect176" fill="#bb1e10" height="7.2" width="75.2" x="79.4" y="36.4"/><path id="path178" d="m79.4 44.1h75.2" fill="none" stroke="#fff"/><path id="path180" d="m81.738 37.5-.655 2.45h1.355v-2.45zm.8 0v2.45h1.354l-.655-2.45zm2.8 0v2.45h1.45v-2.45zm1.55 0v2.45h1.517a1.5 1.5 0 0 0 -.519-.344 1.125 1.125 0 0 0  .577-.981 1.125 1.125 0 0 0 -1.125-1.125zm2.35 0v2.45h1.45v-2.45zm1.55 0v2.45h1.517a1.5 1.5 0 0 0 -.519-.344 1.125 1.125 0 0 0  .577-.981 1.125 1.125 0 0 0 -1.125-1.125zm-9.732 2.55-.656 2.45h1.25l.265-1h .523v-1.45zm1.482 0v1.45h.522l.265 1h1.25l-.656-2.45zm2.8 0v2.45h1.45v-2.45zm1.55 0v2.45h.45a1.5 1.5 0 0 0 1.5-1.5 1.5 1.5 0 0 0 -.342-.95h-1.609zm2.35 0v2.45h1.45v-2.45zm1.55 0v2.45h.45a1.5 1.5 0 0 0 1.5-1.5 1.5 1.5 0 0 0 -.342-.95h-1.609z" fill="#fff"/><text id="text182" style="font-weight:bold;font-size:5.39302;font-family:sans-serif;letter-spacing:0;word-spacing:0;fill:#fff" x="131.54" xml:space="preserve" y="41.339"><tspan id="tspan184" fill="#fff" font-family="sans-serif" font-size="3.75" font-weight="bold" x="131.54" y="41.339"><tspan id="tspan186" font-family="sans-serif" font-weight="bold">TMax</tspan> XT3</tspan></text></g><g id="g188" shape-rendering="crispEdges" stroke="#333" stroke-width=".5"><path id="path190" d="m102.27 45.958.47.02c3.89.126 7.84 1.751 9.11 7.131l2.61 11.013c1.21 5.117-3.07 6.878-6.89 6.878h-11.008c-3.812 0-8.01-1.879-6.882-6.883l2.483-11.013c1.164-5.164 6.015-7.279 10.107-7.146z" fill="#575d5e"/><g id="g192" stroke-linecap="round" stroke-linejoin="round"><circle id="circle194" cx="94.373" cy="65.309" fill-rule="evenodd" r="2.75"/><circle id="circle196" cx="109.79" cy="65.309" fill-rule="evenodd" r="2.75"/><circle id="circle198" cx="102.08" cy="55.893" r="7.1"/></g></g><rect id="rect200" height="11.295" style="fill:#450006;stroke:#333;stroke-width:.8;stroke-linecap:round;stroke-linejoin:round;shape-rendering:crispEdges" width="4.5921" x="143.4" y="45.305"/><g id="g202" shape-rendering="crispEdges" stroke-linecap="round"><g id="g204" fill="#c4c7ca" stroke-linejoin="round" stroke-width=".5"><path id="path206" d="m128.36 83.451c-1.84 0-3.32 1.484-3.32 3.326v8.024.826c0 .537.13 1.036.36 1.484a7.75 7.75 0 0 0 7.39 5.439 7.75 7.75 0 0 0 7.37-5.363h3.41v-3h-3.03v-4.46h3.16v-3h-3.17c0-1.818-1.49-3.276-3.32-3.276z" fill-rule="evenodd" stroke="#333"/><circle id="circle208" cx="134.75" cy="95.65" r="4.35" stroke="#666"/><rect id="rect210" height="3" stroke="#666" width="8" x="130.75" y="94.15"/></g><path id="path212" d="m146.01 88h4.98" fill="#ececec" fill-rule="evenodd" stroke="#ececec" stroke-width="2"/><path id="path214" d="m146.01 95.5h4.98" fill="#ececec" fill-rule="evenodd" stroke="#ececec" stroke-width="2"/></g></g><g id="rockerLever"><rect id="RL_Base" fill="#575d5e" height="45" stroke="#333" stroke-width=".8" width="134.8" x="32.6" y="62.5"/><path id="path4p" d="m166.42 62.786h-60.49m60.49 0h-60.49m60.49 1.5h-60.49m60.49 1.5h-60.49m60.49 1.5h-60.49m60.49 1.5h-60.49m60.49 1.5h-60.49m60.49 1.5h-60.49m60.49 1.5h-60.49m60.49 1.5h-60.49m60.49 1.5h-60.49m60.49 1.5h-60.49m60.49 1.5h-60.49m60.49 1.5h-60.49m60.49 1.5h-60.49m60.49 1.5h-60.49m60.49 1.5h-60.49m60.49 1.5h-60.49m60.49 1.5h-60.49m60.49 1.5h-60.49m60.49 1.5h-60.49m60.49 1.5h-60.49m60.49 1.5h-60.49m60.49 1.5h-60.49m60.49 1.5h-60.49m60.49 1.5h-60.49m60.49 1.504h-60.49m60.49 1.5h-60.49m60.49 1.5h-60.49m60.49 1.5h-60.49m60.49 1.5h-60.49m60.49 1.5h-60.49m60.24-44.754v44.504m-59.99-44.504v44.504m1.5-44.504v44.504m1.5-44.504v44.504m1.5-44.504v44.504m1.5-44.504v44.504m1.5-44.504v44.504m1.5-44.504v44.504m1.5-44.504v44.504m1.5-44.504v44.504m1.5-44.504v44.504m1.5-44.504v44.504m1.5-44.504v44.504m1.5-44.504v44.504m1.5-44.504v44.504m1.5-44.504v44.504m1.5-44.504v44.504m1.5-44.504v44.504m1.5-44.504v44.504m1.5-44.504v44.504m1.5-44.504v44.504m1.5-44.504v44.504m1.5-44.504v44.504m1.5-44.504v44.504m1.5-44.504v44.504m1.5-44.504v44.504m1.5-44.504v44.504m1.5-44.504v44.504m1.5-44.504v44.504m1.5-44.504v44.504m1.5-44.504v44.504m1.5-44.504v44.504m1.5-44.504v44.504m1.5-44.504v44.504m1.5-44.504v44.504m1.5-44.504v44.504m1.5-44.504v44.504m1.5-44.504v44.504m1.5-44.504v44.504m1.5-44.504v44.504m1.5-44.504v44.504m-58.5-44.754h59.99v45.004h-59.99zm.25 0h-72.505m72.505 0h-72.505m72.505 1.5h-72.505m72.505 1.5h-72.505m72.505 1.5h-72.505m72.505 1.5h-72.505m72.505 1.5h-72.505m72.505 1.5h-72.505m72.505 1.5h-72.505m72.505 1.5h-72.505m72.505 1.5h-72.505m72.505 1.5h-72.505m72.505 1.5h-72.505m72.505 1.5h-72.505m72.505 1.5h-72.505m72.505 1.5h-72.505m72.505 1.5h-72.505m72.505 1.5h-72.505m72.505 1.5h-72.505m72.505 1.5h-72.505m72.505 1.5h-72.505m72.505 1.5h-72.505m72.505 1.5h-72.505m72.505 1.5h-72.505m72.505 1.5h-72.505m72.505 1.5h-72.505m72.505 1.504h-72.505m72.505 1.5h-72.505m72.505 1.5h-72.505m72.505 1.5h-72.505m72.505 1.5h-72.505m72.505 1.5h-72.505m58.75-44.754v44.504m1.5-44.504v44.504m1.5-44.504v44.504m1.5-44.504v44.504m1.5-44.504v44.504m1.505-44.504v44.504m1.5-44.504v44.504m1.5-44.504v44.504m1.5-44.504v44.504m1.5-44.504v44.504m-72.005-44.504v44.504m1.5-44.504v44.504m1.5-44.504v44.504m1.5-44.504v44.504m1.5-44.504v44.504m1.5-44.504v44.504m1.5-44.504v44.504m1.5-44.504v44.504m1.5-44.504v44.504m1.5-44.504v44.504m1.5-44.504v44.504m1.5-44.504v44.504m1.5-44.504v44.504m1.5-44.504v44.504m1.5-44.504v44.504m1.5-44.504v44.504m1.5-44.504v44.504m1.5-44.504v44.504m1.5-44.504v44.504m1.5-44.504v44.504m1.5-44.504v44.504m1.5-44.504v44.504m1.5-44.504v44.504m1.5-44.504v44.504m1.5-44.504v44.504m1.5-44.504v44.504m1.5-44.504v44.504m1.5-44.504v44.504m1.5-44.504v44.504m1.5-44.504v44.504m1.5-44.504v44.504m1.5-44.504v44.504m1.5-44.504v44.504m1.5-44.504v44.504m1.5-44.504v44.504m1.5-44.504v44.504m1.5-44.504v44.504m1.5-44.504v44.504m1.5-44.504v44.504m-57-44.754h72.005v45.004h-72.005z" style="fill:#4d4d4d;fill-rule:evenodd;stroke:#575d5e;stroke-width:.5;shape-rendering:crispEdges;clip-path:url(#d)"/><path id="path3p" clip-path="url(#e)" d="m70 63v44m1.6-44v44m1.6-44v44m1.6-44v44m1.6-44v44m1.6-44v44m1.6-44v44m1.6-44v44m1.6-44v44m1.6-44v44m1.6-44v44m1.6-44v44m1.6-44v44m1.6-44v44m1.6-44v44m1.6-44v44m1.6-44v44m1.6-44v44m1.6-44v44m1.6-44v44m1.6-44v44m1.6-44v44m1.6-44v44m1.6-44v44m1.6-44v44m1.6-44v44m1.6-44v44m1.6-44v44m1.6-44v44m1.6-44v44m1.6-44v44m1.6-44v44m1.6-44v44m1.6-44v44m1.6-44v44m1.6-44v44m1.6-44v44m1.6-44v44m1.6-44v44m1.6-44v44m1.6-44v44m1.6-44v44m1.6-44v44m1.6-44v44m1.6-44v44m1.6-44v44m1.6-44v44m1.6-44v44m1.6-44v44m1.6-44v44m1.6-44v44m1.6-44v44m1.6-44v44m1.6-44v44m1.6-44v44m1.6-44v44m1.6-44v44m1.6-44v44m1.6-44v44m1.6-44v44m-94.4-44h95m-95 1.6h95m-95 1.6h95m-95 1.6h95m-95 1.6h95m-95 1.6h95m-95 1.6h95m-95 1.6h95m-95 1.6h95m-95 1.6h95m-95 1.6h95m-95 1.6h95m-95 1.6h95m-95 1.6h95m-95 1.6h95m-95 1.6h95m-95 1.6h95m-95 1.6h95m-95 1.6h95m-95 1.6h95m-95 1.6h95m-95 1.6h95m-95 1.6h95m-95 1.6h95m-95 1.6h95m-95 1.6h95m-95 1.6h95m-95 1.6h95m-95-43.2h95v44h-95z" fill="#4d4d4d" fill-rule="evenodd" stroke="#575d5e" stroke-width=".4pt"/><g id="RL_Drive"><rect id="rect226" fill="#575d5e" height="41" shape-rendering="crispEdges" stroke="#000" stroke-width=".8" width="45" x="95" y="64.5"/><g id="g228" shape-rendering="crispEdges"><g id="g230"><rect id="rect232" fill="#bb1e10" height="6.5" width="44.2" x="95.4" y="64.9"/><path id="path234" d="m95.4 71.65h44.2" fill="none" stroke="#fff" stroke-width=".5"/><path id="path236" d="m98.17 65.65-.656 2.45h1.355v-2.45zm.799 0v2.45h1.351l-.652-2.45zm2.801 0v2.45h1.45v-2.45zm1.55 0v2.45h1.52a1.5 1.5 0 0 0 -.52-.344 1.125 1.125 0 0 0  .57-.981 1.125 1.125 0 0 0 -1.12-1.125zm2.35 0v2.45h1.45v-2.45zm1.55 0v2.45h1.52a1.5 1.5 0 0 0 -.52-.344 1.125 1.125 0 0 0  .57-.981 1.125 1.125 0 0 0 -1.12-1.125zm-9.733 2.55-.656 2.45h1.25l.265-1h .523v-1.45zm1.482 0v1.45h.522l.265 1h1.254l-.66-2.45zm2.801 0v2.45h1.45v-2.45zm1.55 0v2.45h.45a1.5 1.5 0 0 0 1.5-1.5 1.5 1.5 0 0 0 -.34-.95zm2.35 0v2.45h1.45v-2.45zm1.55 0v2.45h.45a1.5 1.5 0 0 0 1.5-1.5 1.5 1.5 0 0 0 -.34-.95z" fill="#fff"/></g><g id="g238" style="font-weight:bold;font-size:5.39302;font-family:sans-serif;letter-spacing:0;word-spacing:0;fill:#fff"><text id="text240" x="117.23" y="69.836"><tspan id="tspan242" fill="#fff" font-family="sans-serif" font-size="3.75" font-weight="bold" x="117.23" y="69.836">TMax XT3</tspan></text></g></g><g id="g244" shape-rendering="crispEdges"><path id="path246" d="m100.5 97h15.5" fill="#f00" fill-rule="evenodd" stroke="#808000"/><path id="path248" d="m134.5 97h4" fill="none" stroke="#fff"/><path id="path250" d="m96.5 97h4" fill="none" stroke="#fff"/><path id="path252" d="m100.5 86h8.68" fill="none" stroke="#ff0"/><path id="path254" d="m125.12 86h9.38" fill="none" stroke="#808000"/><path id="path256" d="m134.5 85.999h4" fill="none" stroke="#fff"/><path id="path258" d="m96.5 86h4" fill="none" stroke="#fff"/><path id="path260" d="m100.5 80h34" fill="#f00" fill-rule="evenodd" stroke="#f00"/><path id="path262" d="m134.5 79.999h4" fill="none" stroke="#fff"/><path id="path264" d="m96.5 80h4" fill="none" stroke="#fff"/><path id="path266" d="m119 97h15.5" fill="#f00" fill-rule="evenodd" stroke="#808000"/><circle id="circle268" cx="104.75" cy="93.109" fill="none" r="2.5" stroke="#fff" stroke-width=".5"/><text id="text270" fill="#fff" font-family="sans-serif" font-size="12.5" letter-spacing="0" word-spacing="0" x="127.74" y="79.104"><tspan id="tspan272" fill="#fff" font-size="6.25" x="127.74" y="79.104">on</tspan></text><text id="text274" fill="#fff" font-family="sans-serif" font-size="12.5" letter-spacing="0" word-spacing="0" x="127.74" y="95.963"><tspan id="tspan276" fill="#fff" font-size="6.25" x="127.74" y="95.963">off</tspan></text><text id="text278" fill="#fff" font-family="sans-serif" font-size="12.5" letter-spacing="0" word-spacing="0" x="103.72" y="79.198"><tspan id="tspan280" fill="#fff" font-size="7.5" x="103.72" y="79.198">l</tspan></text></g><g id="g282" shape-rendering="crispEdges"><path id="path284" d="m109 71.208h17v32.832c-5.67 1.59-11.33 1.69-17 0z" fill="#d4d5df" stroke="#000" stroke-linejoin="round" stroke-width=".5"/><path id="path286" d="m109.76 84.52c5.57-1.53 10.43-1.375 15.48 0 .14.04.26.198.26.443v15.377c0 .24-.12.38-.26.44-5.16 2.13-9.8 2.14-15.48 0-.14 0-.26-.2-.26-.44v-15.377c0-.245.12-.403.26-.443z" fill="none" stroke="#808080" stroke-linejoin="round" stroke-width=".5"/><path id="path288" d="m111.23 99.395c3.95.755 7.87.785 11.75 0" fill="none" stroke="#000" stroke-linecap="round" stroke-width=".8"/><path id="path290" d="m111.23 94.895c3.95.75 7.87.782 11.75 0" fill="none" stroke="#000" stroke-linecap="round" stroke-width=".88"/><path id="path292" d="m111.23 96.395c3.95.75 7.87.782 11.75 0" fill="none" stroke="#000" stroke-linecap="round" stroke-width=".8"/><path id="path294" d="m111.23 97.895c3.95.75 7.87.782 11.75 0" fill="none" stroke="#000" stroke-linecap="round" stroke-width=".8"/></g><g id="g296"/><g id="g298" shape-rendering="crispEdges"><circle id="circle300" cx="133.75" cy="101.47" r="2.5" style="fill:#c7cacc;fill-rule:evenodd;stroke:#333;stroke-width:.25;stroke-linecap:round;stroke-linejoin:round"/><text id="text302" style="font-size:12.5;font-family:sans-serif;letter-spacing:0;word-spacing:0;fill:#4d4d4d;fill-opacity:.93725" x="132.16" y="101.92"><tspan id="tspan304" fill="#4d4d4d" fill-opacity=".93725" font-size="1.25" x="132.16" y="101.92">TEST</tspan></text></g></g></g><g id="RC_Sel" shape-rendering="crispEdges"><g id="g308"><rect id="rect310" fill="#575d5e" fill-rule="evenodd" height="130" stroke="#333" stroke-width=".8" width="30" y="34.5"/><g id="g312"><rect id="rect314" fill="#575d5e" height="38" stroke="#333" stroke-linecap="round" stroke-linejoin="round" stroke-width=".5" width="30" y="126.65"/><path id="path316" d="m2.796 142.85h6.564" style="fill:#fff;fill-rule:evenodd;stroke:#fff;stroke-width:.8;stroke-linecap:round;stroke-dasharray:.8 3.2"/><path id="path318" d="m2.796 139.88h9.067" style="fill:#fff;fill-rule:evenodd;stroke:#fff;stroke-width:.8;stroke-linecap:round;stroke-dasharray:.8 3.2"/><path id="path320" d="m3.2551 134.34h6.564" style="fill:#fff;fill-rule:evenodd;stroke:#fff;stroke-width:.8;stroke-linecap:round;stroke-dasharray:.8 3.2"/><circle id="circle322" cx="21.75" cy="156.25" fill="#b6b9bc" r="5.35" stroke="#4d4d4d" stroke-linecap="round" stroke-width="1.2"/><path id="path324" d="m21.75 152.75v7" fill="none" stroke="#8a8d90"/><circle id="circle326" cx="25.6" cy="132.9" fill="#0e0e11" r="2.6"/><path id="path328" d="m2.2536 136.84h25.5094" fill="none" stroke="#e8e9f3" stroke-linecap="round" stroke-width=".5"/></g></g><g id="g330"><rect id="rect332" fill="#575d5e" fill-rule="evenodd" height="45" stroke="#333" stroke-width=".8" width="30" y="62.5"/><circle id="circle334" cx="15" cy="100.5" fill="#f9f9f9" r="2"/><path id="path336" d="m17.264 65.937 3.792 5.596-5.478-4.667 5.568 4.744-6.283-3.091 6.296 3.097-6.225-1.421 6.075 1.387h-5.216" fill="none" stroke="#fff" stroke-width=".25"/><g id="g338"><path id="path340" d="m19.1 65.65a3.7667 3.75 0 0 1 3.767 3.75 3.7667 3.75 0 0 1 -3.767 3.75v-3.75z" fill="none" stroke="#fff" stroke-linecap="round" stroke-width=".5"/><circle id="circle342" cx="19.1" cy="69.4" fill="#f9f9f9" r="3.1"/></g><circle id="circle346" cx="7.4294" cy="88" fill="#006f3d" r="3.9294" stroke="#333" stroke-linecap="round" stroke-width=".5"/><circle id="circle348" cx="4.125" cy="66.475" fill="#f6b600" r="1.375" stroke="#333" stroke-linecap="round" stroke-width=".25"/><g id="g350" fill="#fff"><path id="path352" d="m23.202 94.243v.851a2.0077 1.971 0 1 0 0 3.901v.851a2.8681 2.8157 0 1 1 0-5.603z"/><path id="path354" d="m25.83 96.622a2.0077 1.971 0 0 1 2.248-1.528v-.851a2.8681 2.8157 0 1 0 0 5.603v-.851a2.0077 1.971 0 0 1 -2.248-1.528h1.674v-.845z"/></g><text id="text356" style="font-weight:bold;font-size:5.39302;font-family:sans-serif;letter-spacing:0;word-spacing:0;fill:#fff" x="1.2029" xml:space="preserve" y="106.37"><tspan id="tspan358" fill="#fff" font-family="sans-serif" font-size="3.75" font-weight="bold" x="1.2029" y="106.37">RC Inst </tspan></text></g></g></g></svg>