<svg id="svg2" height="2000.3" overflow="visible" viewBox="0 0 450.79998 2000.3001" width="450.79999" xmlns="http://www.w3.org/2000/svg"><g id="layer1" stroke-linecap="round" stroke-width=".80000001"><g id="segregation4b" fill="#d6e5ff" fill-opacity=".8" stroke="#000"><path id="cutOut" d="m0 1000v1000h201v-1000zm77.15039 32.3499h93v74.3194h-93zm0 774.9985h93v74.3213h-93zm-71 120.8329h50v29.5309h-50zm-6.15039-1928.1813v1000h201v-1000zm6.15039 43.360451h50v30.007503h-50zm71 77.269309h93v75.51889h-93zm0 787.49769h93v75.51893h-93z"/><rect id="R1" height="1000" width="249" x="201" y="1000"/><rect id="R2" height="1000" width="249" x="201"/></g><rect id="PE" fill="#c6782e" height="1875" overflow="visible" stroke="#333" stroke-linejoin="round" width="30" x="16" y="50"/><rect id="N1" fill="#c6782e" height="1850" overflow="visible" stroke="#333" stroke-linejoin="round" width="60" x="63.5" y="75"/><rect id="N2" fill="#c6782e" height="1850" overflow="visible" stroke="#333" stroke-linejoin="round" width="60" x="123.5" y="75"/></g></svg>