<svg id="svg2" height="751.79999" overflow="visible" viewBox="0 0 494.79997 751.79997" width="494.79999" xmlns="http://www.w3.org/2000/svg"><g id="layer1"><g id="base" fill="#e0e0e0" fill-opacity=".80000001" stroke="#808080" stroke-linecap="round"><rect id="R1b" height="129.5" stroke-width=".79999995" width="359" x="67.499779" y="521.49994"/><rect id="R3b" height="5" stroke-width=".80000001" width="24.1" x="426.49997" y="645.99994"/><rect id="R2b" height="5" stroke-width=".80000001" width="24.1" x="43.399986" y="645.99994"/></g><g id="plate" stroke-linecap="round"><rect id="R1" fill="#e0e0e0" fill-opacity=".80000001" height="548" stroke="#808080" stroke-width=".80000001" width="272" x="110.99998" y="101.49998"/><rect id="R2" fill="#e0e0e0" fill-opacity=".80000001" height="548" stroke="#808080" stroke-width=".80000001" width="225" x="134.49998" y="101.49998"/><path id="terminalCut" d="m156.99899 275.49998v19.83008 20.16992c0 1.385.27851 2.7032.7832 3.90039.50469 1.19719 1.23492 2.27399 2.13867 3.17774.90375.90375 1.98055 1.63398 3.17774 2.13867 1.19718.50469 2.51539.7832 3.90039.7832h160.00199c1.385 0 2.7032-.27851 3.9003-.7832 1.1972-.50469 2.2721-1.23492 3.1758-2.13867.9038-.90375 1.636-1.98055 2.1407-3.17774.5047-1.19719.7832-2.51539.7832-3.90039v-20.16992-19.83008h-32.50199v14h-15v-14h-85v14h-15v-14zm40 5.32813a2 2 0 0 0 -2 2 2 2 0 0 0  2 2 2 2 0 0 0  2-2 2 2 0 0 0 -2-2zm100 0a2 2 0 0 0 -2 2 2 2 0 0 0  2 2 2 2 0 0 0  2-2 2 2 0 0 0 -2-2zm-130 144.67187c-1.385 0-2.70321.27851-3.90039.7832-1.19719.50469-2.27399 1.23493-3.17774 2.13868-.90375.90375-1.63398 1.98054-2.13867 3.17773-.50469 1.19719-.7832 2.51539-.7832 3.90039v20.16992 19.83008h32.5v-14h15v14h85v-14h15v14h32.50199v-19.83008-20.16992c0-1.385-.2785-2.7032-.7832-3.90039-.5047-1.19719-1.2369-2.27398-2.1407-3.17773-.9037-.90375-1.9786-1.63399-3.1758-2.13868-1.1971-.50469-2.5153-.7832-3.9003-.7832zm30 40.67188a2 2 0 0 0 -2 2 2 2 0 0 0  2 2 2 2 0 0 0  2-2 2 2 0 0 0 -2-2zm100 0a2 2 0 0 0 -2 2 2 2 0 0 0  2 2 2 2 0 0 0  2-2 2 2 0 0 0 -2-2z" fill="#fff" stroke="#000"/></g><g id="traverse1" fill="#e0e0e0" stroke="#808080" stroke-linecap="round"><rect id="rect4186" height="50" stroke-width=".80000001" width="400" x="46.999985" y="-.0000149"/><rect id="rect4188" height="30" stroke-width=".80000007" width="400" x="46.999985" y="9.9999847"/></g><g id="traverse2" fill="#e0e0e0" stroke="#808080" stroke-linecap="round" stroke-width=".80000001"><rect id="rect4182" height="50" width="400" x="46.999985" y="701"/><rect id="rect4184" height="30" width="400" x="46.999985" y="711"/></g><g id="T7" style="fill:#c5c7c4;fill-opacity:.8;stroke:#808080;stroke-width:.80000001;stroke-linecap:round;stroke-linejoin:round"><path id="PVHT0435" d="m-.00001525-.00001883v751.00000883h394.00000525v-751.00000883zm84.40039025 320.90039883h226.000005v263h-226.000005z"/><path id="PVHT0534" d="m-.00001525-.00001883v750.99999883h494.00000525v-750.99999883zm134.40028525 320.90038883h226v263h-226z" style="fill:#c5c7c4;fill-opacity:.8;stroke:#808080;stroke-width:.80000001;stroke-linecap:round;stroke-linejoin:round"/><path id="PVHT0436" d="m-.00001525-.00001883v751.00000883h394.00000525v-751.00000883zm84.40039025 167.90039883h226.000005v263h-226.000005z"/><path id="PVHT0535" d="m-.00001525-.00001883v751.00000883h493.99999525v-751.00000883zm134.40066525 167.90039883h226v263h-226z" style="fill:#c5c7c4;fill-opacity:.8;stroke:#808080;stroke-width:.80000001;stroke-linecap:round;stroke-linejoin:round"/><path id="PVWT0534" d="m-.00001525-.00001883v751.00000883h494.00000525v-751.00000883zm134.40039525 307.90039883h278.5v256.5h-278.5z"/><path id="PVWT0535" d="m-.00001525-.00001883v751.00000883h494.00000525v-751.00000883zm134.40039525 154.90039883h278.5v256.5h-278.5z"/></g><g id="E12" style="fill:#c5c7c4;fill-opacity:.8;stroke:#808080;stroke-width:.80000001;stroke-linecap:round;stroke-linejoin:round"><path id="PVHE0438" d="m-.00001525-.00001883v751.00000883h394.00000525v-751.00000883zm84.40039025 340.40039883h226.000005v224h-226.000005z"/><path id="PVHT0536" d="m-.00001525-.00001883v751.00000883h493.99999525v-751.00000883zm134.40071525 340.40039883h226v224h-226z" style="fill:#c5c7c4;fill-opacity:.8;stroke:#808080;stroke-width:.80000001;stroke-linecap:round;stroke-linejoin:round"/><path id="PVHE0439" d="m-.00001525-.00001883v751.00000883h394.00000525v-751.00000883zm84.40039025 187.40039883h226.000005v224h-226.000005z"/><path id="PVHT0537" d="m-.00001525-.00001883v751.00000883h493.99999525v-751.00000883zm134.40009525 187.40039883h226v224h-226z" style="fill:#c5c7c4;fill-opacity:.8;stroke:#808080;stroke-width:.80000001;stroke-linecap:round;stroke-linejoin:round"/><path id="PVWE0537" d="m-.00001525-.00001883v751.00000883h494.00000525v-751.00000883zm134.40039525 302.40039883h274v262h-274z"/><path id="PVWE0538" d="m-.00001525-.00001883v751.00000883h494.00000525v-751.00000883zm134.40039525 149.40039883h274v262h-274z"/></g><g id="E22" style="fill:#c5c7c4;fill-opacity:.8;stroke:#808080;stroke-width:.80000001;stroke-linecap:round;stroke-linejoin:round"><path id="PVHE0531" d="m-.00001525-.00001883v751.00000883h494.00000525v-751.00000883zm94.40039025 264.90039883h306.000005v348h-306.000005z"/><path id="PVHE0532" d="m-.00001525-.00001883v751.00000883h494.00000525v-751.00000883zm94.40039025 111.90039883h306.000005v348h-306.000005z"/></g><g id="T6" style="fill:#c5c7c4;fill-opacity:.8;stroke:#808080;stroke-width:.80000001;stroke-linecap:round;stroke-linejoin:round"><path id="PVHT0432" d="m-.00001525-.00001883v751.00000883h394.00000525v-751.00000883zm123.40039525 385.59961883h149v116h-149z"/><path id="PVHT0532" d="m-.00001525-.00001883v751.00000883h494.00000525v-751.00000883zm173.40010525 385.59961883h149v116h-149z" style="fill:#c5c7c4;fill-opacity:.8;stroke:#808080;stroke-width:.80000001;stroke-linecap:round;stroke-linejoin:round"/><path id="PVHT0433" d="m-.00001525-.00001883v751.00000883h394.00000525v-751.00000883zm123.40039525 232.69922883h149v116h-149z"/><path id="PVHT0533" d="m-.00001525-.00001883v751.00000883h494.00000525v-751.00000883zm173.40020525 232.69922883h149v116h-149z" style="fill:#c5c7c4;fill-opacity:.8;stroke:#808080;stroke-width:.80000001;stroke-linecap:round;stroke-linejoin:round"/><path id="PVWT0531" d="m-.00001525-.00001883v751.00000883h494.00000525v-751.00000883zm173.19922525 362.90039883h148.5v150h-148.5z"/><path id="PVWT0532" d="m-.00001525-.00001883v751.00000883h494.00000525v-751.00000883zm173.19922525 209.90039883h148.5v150h-148.5z"/></g><path id="cover" d="m470.34998 588.34998h14c1.939 0 3.5 1.561 3.5 3.5v71c0 1.939-1.561 3.5-3.5 3.5h-14c-1.939 0-3.5-1.561-3.5-3.5v-71c0-1.939 1.561-3.5 3.5-3.5zm0-1.5h14c2.77 0 5 2.23 5 5v71c0 2.77-2.23 5-5 5h-14c-2.77 0-5-2.23-5-5v-71c0-2.77 2.23-5 5-5zm0-502.050007h14c1.939 0 3.5 1.561 3.5 3.5v70.999997c0 1.939-1.561 3.5-3.5 3.5h-14c-1.939 0-3.5-1.561-3.5-3.5v-70.999997c0-1.939 1.561-3.5 3.5-3.5zm0-1.5h14c2.77 0 5 2.23 5 5v70.999997c0 2.77-2.23 5-5 5h-14c-2.77 0-5-2.23-5-5v-70.999997c0-2.77 2.23-5 5-5z" fill="#575d5e" stroke="#4d4d4d" stroke-linecap="round" stroke-linejoin="round" stroke-width=".5"/><g id="lock"><path id="rect4176" d="m9.6499848 588.34998h14.0000002c1.939 0 3.5 1.561 3.5 3.5v71c0 1.939-1.561 3.5-3.5 3.5h-14.0000002c-1.939 0-3.5-1.561-3.5-3.5v-71c0-1.939 1.561-3.5 3.5-3.5zm0-1.5h14.0000002c2.77 0 5 2.23 5 5v71c0 2.77-2.23 5-5 5h-14.0000002c-2.77 0-5-2.23-5-5v-71c0-2.77 2.23-5 5-5zm0-502.050007h14.0000002c1.939 0 3.5 1.561 3.5 3.5v70.999997c0 1.939-1.561 3.5-3.5 3.5h-14.0000002c-1.939 0-3.5-1.561-3.5-3.5v-70.999997c0-1.939 1.561-3.5 3.5-3.5zm0-1.5h14.0000002c2.77 0 5 2.23 5 5v70.999997c0 2.77-2.23 5-5 5h-14.0000002c-2.77 0-5-2.23-5-5v-70.999997c0-2.77 2.23-5 5-5z" fill="#575d5e" stroke="#4d4d4d" stroke-linecap="round" stroke-linejoin="round" stroke-width=".5"/><path id="rect4178" d="m4.6499848 639.75h24.0000002v11.2h-24.0000002zm0-503.55003h24.0000002v11.2h-24.0000002z" fill="none" stroke="#4d4d4d" stroke-linecap="round" stroke-linejoin="round" stroke-width=".5"/><path id="circle4182" d="m25.249985 645.34998a8.6000004 8.6000004 0 0 1 -8.600001 8.6 8.6000004 8.6000004 0 0 1 -8.6-8.6 8.6000004 8.6000004 0 0 1  8.6-8.6 8.6000004 8.6000004 0 0 1  8.600001 8.6zm3.149999 0a11.75 11.75 0 0 1 -11.75 11.75 11.75 11.75 0 0 1 -11.7499996-11.75 11.75 11.75 0 0 1  11.7499996-11.75 11.75 11.75 0 0 1  11.75 11.75zm-3.149999-503.55001a8.6000004 8.6000004 0 0 1 -8.600001 8.6 8.6000004 8.6000004 0 0 1 -8.6-8.6 8.6000004 8.6000004 0 0 1  8.6-8.6 8.6000004 8.6000004 0 0 1  8.600001 8.6zm3.149999 0a11.75 11.75 0 0 1 -11.75 11.75 11.75 11.75 0 0 1 -11.7499996-11.75 11.75 11.75 0 0 1  11.7499996-11.75 11.75 11.75 0 0 1  11.75 11.75z" fill="#333" stroke="#4d4d4d" stroke-linecap="round" stroke-linejoin="round" stroke-width=".5"/><path id="path4184" d="m16.649984 650.28725l-4.25-2.46863v-4.93727l4.25-2.46864 4.25 2.46864v4.93727zm0-503.55001l-4.25-2.46863v-4.93727l4.25-2.46864 4.25 2.46864v4.93727z"/><path id="path4188" d="m9.5494078 592.59999l-.964113 3.6015h1.9916772v-3.6015zm1.1745642 0v3.6015h1.991678l-.96397-3.6015zm4.116001 0v3.6015h2.131501v-3.6015zm2.278501 0v3.6015h2.231271a2.2050006 2.2050006 0 0 0 -.762993-.50632 1.6537505 1.6537505 0 0 0  .847116-1.44143 1.6537505 1.6537505 0 0 0 -1.65375-1.65375 1.6537505 1.6537505 0 0 0 -.000147 0h-.6615zm3.454501 0v3.6015h2.1315v-3.6015zm2.2785 0v3.6015h2.231271a2.2050006 2.2050006 0 0 0 -.762993-.50632 1.6537505 1.6537505 0 0 0  .847117-1.44143 1.6537505 1.6537505 0 0 0 -1.653751-1.65375 1.6537505 1.6537505 0 0 0 -.000147 0h-.6615zm-14.3055145 3.7485l-.9641137 3.6015h1.8375005l.3896074-1.47h.7680173v-2.1315zm2.1780115 0v2.1315h.768161l.389464 1.47h1.837501l-.96397-3.6015zm4.116001 0v3.6015h2.131501v-3.6015zm2.278501 0v3.6015h.6615a2.2050006 2.2050006 0 0 0  .000147 0 2.2050006 2.2050006 0 0 0  2.205-2.205 2.2050006 2.2050006 0 0 0 -.502298-1.3965h-2.364346zm3.454501 0v3.6015h2.1315v-3.6015zm2.2785 0v3.6015h.6615a2.2050006 2.2050006 0 0 0  .000147 0 2.2050006 2.2050006 0 0 0  2.205001-2.205 2.2050006 2.2050006 0 0 0 -.502298-1.3965h-2.364347zm-13.3020672-507.298515l-.964113 3.601501h1.9916772v-3.601501zm1.1745642 0v3.601501h1.991678l-.96397-3.601501zm4.116001 0v3.601501h2.131501v-3.601501zm2.278501 0v3.601501h2.231271a2.2050006 2.2050006 0 0 0 -.762993-.506319 1.6537505 1.6537505 0 0 0  .847116-1.441431 1.6537505 1.6537505 0 0 0 -1.65375-1.653751 1.6537505 1.6537505 0 0 0 -.000147 0h-.6615zm3.454501 0v3.601501h2.1315v-3.601501zm2.2785 0v3.601501h2.231271a2.2050006 2.2050006 0 0 0 -.762993-.506319 1.6537505 1.6537505 0 0 0  .847117-1.441431 1.6537505 1.6537505 0 0 0 -1.653751-1.653751 1.6537505 1.6537505 0 0 0 -.000147 0h-.6615zm-14.3055145 3.748501l-.9641137 3.601501h1.8375005l.3896074-1.47h.7680173v-2.131501zm2.1780115 0v2.131501h.768161l.389464 1.47h1.837501l-.96397-3.601501zm4.116001 0v3.601501h2.131501v-3.601501zm2.278501 0v3.601501h.6615a2.2050006 2.2050006 0 0 0  .000147 0 2.2050006 2.2050006 0 0 0  2.205-2.205 2.2050006 2.2050006 0 0 0 -.502298-1.396501h-2.364346zm3.454501 0v3.601501h2.1315v-3.601501zm2.2785 0v3.601501h.6615a2.2050006 2.2050006 0 0 0  .000147 0 2.2050006 2.2050006 0 0 0  2.205001-2.205 2.2050006 2.2050006 0 0 0 -.502298-1.396501h-2.364347z"/></g><text id="textBottom" line-height="125%" style="font-size:20;font-family:sans-serif;letter-spacing:0;word-spacing:0;text-anchor:middle;overflow:visible" x="247.20995" xml:space="preserve" y="729.14606"><tspan id="tspan4155-8-6" x="247.20995" y="729.14606">Text</tspan></text><text id="textTop" line-height="125%" style="font-size:20;font-family:sans-serif;letter-spacing:0;word-spacing:0;text-anchor:middle;overflow:visible" x="247.20995" xml:space="preserve" y="36.141041"><tspan id="tspan4653-9" x="247.20995" y="36.141041">Text</tspan></text></g></svg>