<svg id="svg2" height="117.3" overflow="visible" viewBox="0 0 1349.8 117.29998" width="1349.8" xmlns="http://www.w3.org/2000/svg"><g id="layer1" stroke-linecap="round"><rect id="R1" fill="#e0e0e0" height="101.5" stroke="#808080" stroke-width=".80000001" width="1247" x="51" y="1.5"/><rect id="R2" fill="#e0e0e0" height="13.5" stroke="#808080" stroke-width=".80000001" width="1325" x="12" y="103"/><rect id="R3" fill="#c5c7c4" height="13.5" stroke="#808080" stroke-width=".80000001" width="1349"/><path id="grid1350" d="m1057.0023 21.63558v68.928792m24-68.928792v68.928792m0-68.928792v68.928792m24-68.928792v68.928792m24-68.928792v68.928792m24-68.928792v68.928792m24-68.928792v68.928792m23.9999-68.928792v68.928792m24.0001-68.928792v68.928792m24-68.928792v68.928792m-384.00005-68.928792v68.928792m24-68.928792v68.928792m0-68.928792v68.928792m24-68.928792v68.928792m24-68.928792v68.928792m24-68.928792v68.928792m24-68.928792v68.928792m23.99995-68.928792v68.928792m24.0001-68.928792v68.928792m-360.00005-68.928792v68.928792m24-68.928792v68.928792m0-68.928792v68.928792m24-68.928792v68.928792m24-68.928792v68.928792m24-68.928792v68.928792m24-68.928792v68.928792m24-68.928792v68.928792m24-68.928792v68.928792m-360-68.928792v68.928792m24-68.928792v68.928792m0-68.928792v68.928792m24-68.928792v68.928792m24-68.928792v68.928792m24-68.928792v68.928792m24-68.928792v68.928792m24-68.928792v68.928792m24-68.928792v68.928792m-360-68.928792v68.928792m24-68.928792v68.928792m0-68.928792v68.928792m24-68.928792v68.928792m24-68.928792v68.928792m24-68.928792v68.928792m24-68.928792v68.928792m24-68.928792v68.928792m24-68.928792v68.928792m-360.00014-68.92879v68.928788m24-68.928788v68.928788m0-68.928788v68.928788m24-68.928788v68.928788m24-68.928788v68.928788m24-68.928788v68.928788m24-68.928788v68.928788m24-68.928788v68.928788m24-68.928788v68.928788" fill="#00f" fill-rule="evenodd" stroke="#fff" stroke-dasharray="29.99999979 9.99999993" stroke-width="5"/><path id="grid1200" d="m1061.5006 21.635581v68.92879m24-68.92879v68.92879m0-68.92879v68.92879m-216-68.92879v68.92879m24-68.92879v68.92879m0-68.92879v68.92879m24-68.92879v68.92879m24-68.92879v68.92879m24-68.92879v68.92879m24-68.92879v68.92879m23.9999-68.92879v68.92879m24.0001-68.92879v68.92879m-359.99999-68.92879v68.92879m24-68.92879v68.92879m0-68.92879v68.92879m24-68.92879v68.92879m23.99999-68.92879v68.92879m24-68.92879v68.92879m24-68.92879v68.92879m24-68.92879v68.92879m24-68.92879v68.92879m-359.99999-68.92879v68.92879m24-68.92879v68.92879m0-68.92879v68.92879m24-68.92879v68.92879m24-68.92879v68.92879m24-68.92879v68.92879m24-68.92879v68.92879m24-68.92879v68.92879m24-68.92879v68.92879m-360.00003-68.92879v68.92879m24-68.92879v68.92879m0-68.92879v68.92879m24-68.92879v68.92879m24-68.92879v68.92879m24-68.92879v68.92879m24-68.92879v68.92879m24-68.92879v68.92879m24.00003-68.92879v68.92879m-360.00017-68.92879v68.92879m24-68.92879v68.92879m0-68.92879v68.92879m24-68.92879v68.92879m24-68.92879v68.92879m24-68.92879v68.92879m24-68.92879v68.92879m24-68.92879v68.92879m24-68.92879v68.92879" fill="#00f" fill-rule="evenodd" stroke="#fff" stroke-dasharray="29.99999979 9.99999993" stroke-width="5"/><path id="grid1100" d="m866.50077 21.635582v68.92879m24-68.92879v68.92879m0-68.92879v68.92879m24-68.92879v68.92879m24-68.92879v68.92879m24-68.92879v68.92879m24-68.92879v68.92879m-312-68.92879v68.92879m24-68.92879v68.92879m0-68.92879v68.92879m24-68.92879v68.92879m24-68.92879v68.92879m24-68.92879v68.92879m24-68.92879v68.92879m24-68.92879v68.92879m24-68.92879v68.92879m-360-68.92879v68.92879m24-68.92879v68.92879m0-68.92879v68.92879m24-68.92879v68.92879m24-68.92879v68.92879m24-68.92879v68.92879m24-68.92879v68.92879m24-68.92879v68.92879m24-68.92879v68.92879m-360-68.92879v68.92879m24-68.92879v68.92879m0-68.92879v68.92879m24-68.92879v68.92879m24-68.92879v68.92879m24-68.92879v68.92879m24-68.92879v68.92879m24-68.92879v68.92879m24-68.92879v68.92879m-360.00014-68.92879v68.92879m24-68.92879v68.92879m0-68.92879v68.92879m24-68.92879v68.92879m24-68.92879v68.92879m24-68.92879v68.92879m24-68.92879v68.92879m24-68.92879v68.92879m24-68.92879v68.92879" fill="#00f" fill-rule="evenodd" stroke="#fff" stroke-dasharray="29.99999979 9.99999993" stroke-width="5"/><path id="grid1000" d="m865.50058 21.635581v68.92879m24-68.92879v68.92879m0-68.92879v68.92879m-216-68.92879v68.92879m24-68.92879v68.92879m0-68.92879v68.92879m24-68.92879v68.92879m24-68.92879v68.92879m24-68.92879v68.92879m24-68.92879v68.92879m24-68.92879v68.92879m24-68.92879v68.92879m-360-68.92879v68.92879m24-68.92879v68.92879m0-68.92879v68.92879m24-68.92879v68.92879m24-68.92879v68.92879m24-68.92879v68.92879m24-68.92879v68.92879m24-68.92879v68.92879m24-68.92879v68.92879m-360-68.92879v68.92879m24-68.92879v68.92879m0-68.92879v68.92879m24-68.92879v68.92879m24-68.92879v68.92879m24-68.92879v68.92879m24-68.92879v68.92879m24-68.92879v68.92879m24-68.92879v68.92879m-360.00014-68.92879v68.92879m24-68.92879v68.92879m0-68.92879v68.92879m24-68.92879v68.92879m24-68.92879v68.92879m24-68.92879v68.92879m24-68.92879v68.92879m24-68.92879v68.92879m24-68.92879v68.92879" fill="#00f" fill-rule="evenodd" stroke="#fff" stroke-dasharray="29.99999979 9.99999993" stroke-width="5"/><path id="grid850" d="m676.50058 21.635579v68.928793m24-68.928793v68.928793m0-68.928793v68.928793m24-68.928793v68.928793m24-68.928793v68.928793m-264-68.928793v68.928793m24-68.928793v68.928793m0-68.928793v68.928793m24-68.928793v68.928793m24-68.928793v68.928793m24-68.928793v68.928793m24-68.928793v68.928793m24-68.928793v68.928793m24-68.928793v68.928793m-360-68.928793v68.928793m24-68.928793v68.928793m0-68.928793v68.928793m24-68.928793v68.928793m24-68.928793v68.928793m24-68.928793v68.928793m24-68.928793v68.928793m24-68.928793v68.928793m24-68.928793v68.928793m-360.00014-68.928791v68.928789m24-68.928789v68.928789m0-68.928789v68.928789m24-68.928789v68.928789m24-68.928789v68.928789m24-68.928789v68.928789m24-68.928789v68.928789m24-68.928789v68.928789m24-68.928789v68.928789" fill="#00f" fill-rule="evenodd" stroke="#fff" stroke-dasharray="29.99999979 9.99999993" stroke-width="5"/><path id="grid800" d="m675.50058 21.63558v68.928792m24-68.928792v68.928792m0-68.928792v68.928792m-216-68.928792v68.928792m24-68.928792v68.928792m0-68.928792v68.928792m24-68.928792v68.928792m24-68.928792v68.928792m24-68.928792v68.928792m24-68.928792v68.928792m24-68.928792v68.928792m24-68.928792v68.928792m-360-68.928792v68.928792m24-68.928792v68.928792m0-68.928792v68.928792m24-68.928792v68.928792m24-68.928792v68.928792m24-68.928792v68.928792m24-68.928792v68.928792m24-68.928792v68.928792m24-68.928792v68.928792m-360.00014-68.92879v68.928788m24-68.928788v68.928788m0-68.928788v68.928788m24-68.928788v68.928788m24-68.928788v68.928788m24-68.928788v68.928788m24-68.928788v68.928788m24-68.928788v68.928788m24-68.928788v68.928788" fill="#00f" fill-rule="evenodd" stroke="#fff" stroke-dasharray="29.99999979 9.99999993" stroke-width="5"/><path id="grid600" d="m485.50058 21.635578v68.928796m-192-68.928796v68.928796m24-68.928796v68.928796m0-68.928796v68.928796m24-68.928796v68.928796m24-68.928796v68.928796m24-68.928796v68.928796m24-68.928796v68.928796m24-68.928796v68.928796m24-68.928796v68.928796m-360.00014-68.928786v68.928784m24-68.928784v68.928784m0-68.928784v68.928784m24-68.928784v68.928784m24-68.928784v68.928784m24-68.928784v68.928784m24-68.928784v68.928784m24-68.928784v68.928784m24-68.928784v68.928784" fill="#00f" fill-rule="evenodd" stroke="#fff" stroke-dasharray="29.99999979 9.99999993" stroke-width="5"/><path id="grid500" d="m291.50058 21.635578v68.928796m24-68.928796v68.928796m0-68.928796v68.928796m24-68.928796v68.928796m24-68.928796v68.928796m24-68.928796v68.928796m-288.00014-68.928786v68.928784m24-68.928784v68.928784m0-68.928784v68.928784m24-68.928784v68.928784m24-68.928784v68.928784m24-68.928784v68.928784m24-68.928784v68.928784m24-68.928784v68.928784m24-68.928784v68.928784" fill="#00f" fill-rule="evenodd" stroke="#fff" stroke-dasharray="29.99999979 9.99999993" stroke-width="5"/><path id="grid400" d="m288.50058 21.635578v68.928796m-192.00014-68.928786v68.928784m24-68.928784v68.928784m0-68.928784v68.928784m24-68.928784v68.928784m24-68.928784v68.928784m24-68.928784v68.928784m24-68.928784v68.928784m24-68.928784v68.928784m24-68.928784v68.928784" fill="#00f" fill-rule="evenodd" stroke="#fff" stroke-dasharray="29.99999979 9.99999993" stroke-width="5"/><path id="grid350" d="m96.50044 21.635588v68.928784m24-68.928784v68.928784m0-68.928784v68.928784m24-68.928784v68.928784m24-68.928784v68.928784m24-68.928784v68.928784m24-68.928784v68.928784m24-68.928784v68.928784" fill="#00f" fill-rule="evenodd" stroke="#fff" stroke-dasharray="29.99999979 9.99999993" stroke-width="5"/></g></svg>