<svg id="svg4391" height="1000" overflow="visible" viewBox="0 0 1200 1000" width="1200" xmlns="http://www.w3.org/2000/svg"><g id="layer1"><g id="frame" fill="#f2f2f2" fill-rule="evenodd" stroke="#000" stroke-linecap="square"><rect id="frameLeft" height="999" width="56.500004"/><rect id="frameCenter" height="999" width="48.5" x="650"/><rect id="frameTop" height="56.500004" width="1199" y=".00011391"/><rect id="frameRight" height="999" width="56.500004" x="1142.5"/><rect id="frameBottom" height="56.500004" width="1199" y="942.5"/></g><rect id="panel1" fill="#c5c7c4" height="511.20001" stroke="#000" stroke-linecap="round" stroke-width=".80000001" width="591.70001" x="57.400002" y="57.400002"/><g id="panel2" stroke-linecap="round"><path id="rect5243" d="m57.400024 799.6001h591.700016v142h-591.700016zm.000004-230.30017h591.700012v229.5h-591.700012z" fill="#c5c7c4" stroke="#000" stroke-width=".80000001"/><path id="rect4568" d="m201.5 642.79993v82.5h5.5v-82.5zm15.5 0v82.5h5.5v-82.5zm82 0v82.5h5.5v-82.5zm15.5 0v82.5h5.5v-82.5zm72 0v82.5h5.5v-82.5zm15.5 0v82.5h5.5v-82.5zm82 0v82.5h5.5v-82.5zm15.5 0v82.5h5.5v-82.5z" fill="#fff" stroke="#000"/><path id="path4395" d="m407.74713 832.63558v75.92904m12.0005-75.92904v75.92904m12.0005-75.92904v75.92904m12.00049-75.92904v75.92904m12.0005-75.92904v75.92904m12.0005-75.92904v75.92904m12.0005-75.92904v75.92904m12.0005-75.92904v75.92904m12.0005-75.92904v75.92904m12.0005-75.92904v75.92904m12.0005-75.92904v75.92904m12.0005-75.92904v75.92904m-144.00549-75.92904v75.92904m-12-75.92904v75.92904m-11.99988-75.92904v75.92904m-168.99994-75.92904v75.92904m12.0005-75.92904v75.92904m12.0005-75.92904v75.92904m12.0005-75.92904v75.92904m12.0005-75.92904v75.92904m12.0005-75.92904v75.92904m12.0005-75.92904v75.92904m12.0005-75.92904v75.92904m12.0005-75.92904v75.92904m12.0005-75.92904v75.92904m12.0005-75.92904v75.92904m12.0005-75.92904v75.92904m-144.0055-75.92904v75.92904m-12-75.92904v75.92904m-11.99987-75.92904v75.92904" fill="none" stroke="#fff" stroke-dasharray="15 15" stroke-width="5"/></g><path id="grid500L" d="m407.74713 75.035579v75.929041m12.0005-75.929041v75.929041m12.0005-75.929041v75.929041m12.00049-75.929041v75.929041m12.0005-75.929041v75.929041m12.0005-75.929041v75.929041m12.0005-75.929041v75.929041m12.0005-75.929041v75.929041m12.0005-75.929041v75.929041m12.0005-75.929041v75.929041m12.0005-75.929041v75.929041m12.0005-75.929041v75.929041m-144.00549-75.929041v75.929041m-12-75.929041v75.929041m-11.99988-75.929041v75.929041m-168.99994-75.929041v75.929041m12.0005-75.929041v75.929041m12.0005-75.929041v75.929041m12.0005-75.929041v75.929041m12.0005-75.929041v75.929041m12.0005-75.929041v75.929041m12.0005-75.929041v75.929041m12.0005-75.929041v75.929041m12.0005-75.929041v75.929041m12.0005-75.929041v75.929041m12.0005-75.929041v75.929041m12.0005-75.929041v75.929041m-144.0055-75.929041v75.929041m-12-75.929041v75.929041m-11.99987-75.929041v75.929041" fill="none" stroke="#fff" stroke-dasharray="15 15" stroke-linecap="round" stroke-width="5"/><path id="grid700L" d="m407.74713 275.03559v75.92904m12.0005-75.92904v75.92904m12.0005-75.92904v75.92904m12.00049-75.92904v75.92904m12.0005-75.92904v75.92904m12.0005-75.92904v75.92904m12.0005-75.92904v75.92904m12.0005-75.92904v75.92904m12.0005-75.92904v75.92904m12.0005-75.92904v75.92904m12.0005-75.92904v75.92904m12.0005-75.92904v75.92904m-144.00549-75.92904v75.92904m-12-75.92904v75.92904m-11.99988-75.92904v75.92904m-168.99994-75.92904v75.92904m12.0005-75.92904v75.92904m12.0005-75.92904v75.92904m12.0005-75.92904v75.92904m12.0005-75.92904v75.92904m12.0005-75.92904v75.92904m12.0005-75.92904v75.92904m12.0005-75.92904v75.92904m12.0005-75.92904v75.92904m12.0005-75.92904v75.92904m12.0005-75.92904v75.92904m12.0005-75.92904v75.92904m-144.0055-75.92904v75.92904m-12-75.92904v75.92904m-11.99987-75.92904v75.92904" fill="none" stroke="#fff" stroke-dasharray="15 15" stroke-linecap="round" stroke-width="5"/><path id="grid900L" d="m407.74713 476.03559v73.92904m12.0005-73.92904v73.92904m12.0005-73.92904v73.92904m12.00049-73.92904v73.92904m12.0005-73.92904v73.92904m12.0005-73.92904v73.92904m12.0005-73.92904v73.92904m12.0005-73.92904v73.92904m12.0005-73.92904v73.92904m12.0005-73.92904v73.92904m12.0005-73.92904v73.92904m12.0005-73.92904v73.92904m-144.00549-73.92904v73.92904m-12-73.92904v73.92904m-11.99988-73.92904v73.92904m-168.99994-73.92904v73.92904m12.0005-73.92904v73.92904m12.0005-73.92904v73.92904m12.0005-73.92904v73.92904m12.0005-73.92904v73.92904m12.0005-73.92904v73.92904m12.0005-73.92904v73.92904m12.0005-73.92904v73.92904m12.0005-73.92904v73.92904m12.0005-73.92904v73.92904m12.0005-73.92904v73.92904m12.0005-73.92904v73.92904m-144.0055-73.92904v73.92904m-12-73.92904v73.92904m-11.99987-73.92904v73.92904" fill="none" stroke="#fff" stroke-dasharray="15 15" stroke-linecap="round" stroke-width="5"/><rect id="panel4" fill="#c5c7c4" height="372.10001" stroke="#000" stroke-linecap="round" stroke-width=".80000001" width="442.39999" x="699.29999" y="57.400002"/><path id="flange" d="m830.49958 98.700953c-1.5188 0-2.75 1.23122-2.75 2.749997 0 1.51878 1.2312 2.75 2.75 2.75 1.5188 0 2.75-1.23122 2.75-2.75 0-1.518777-1.2312-2.749997-2.75-2.749997zm180.00002 0c-1.5188 0-2.75 1.23122-2.75 2.749997 0 1.51878 1.2312 2.75 2.75 2.75 1.5188 0 2.75-1.23122 2.75-2.75 0-1.518777-1.2312-2.749997-2.75-2.749997zm-180.00002 94.666017c-1.5188 0-2.75 1.23122-2.75 2.75 0 1.51878 1.2312 2.75 2.75 2.75 1.5188 0 2.75-1.23122 2.75-2.75 0-1.51878-1.2312-2.75-2.75-2.75zm180.00002 0c-1.5188 0-2.75 1.23122-2.75 2.75 0 1.51878 1.2312 2.75 2.75 2.75 1.5188 0 2.75-1.23122 2.75-2.75 0-1.51878-1.2312-2.75-2.75-2.75zm-180.00002 94.66601c-1.5188 0-2.75 1.23122-2.75 2.75 0 1.51878 1.2312 2.75 2.75 2.75 1.5188 0 2.75-1.23122 2.75-2.75 0-1.51878-1.2312-2.75-2.75-2.75zm180.00002 0c-1.5188 0-2.75 1.23122-2.75 2.75 0 1.51878 1.2312 2.75 2.75 2.75 1.5188 0 2.75-1.23122 2.75-2.75 0-1.51878-1.2312-2.75-2.75-2.75zm-180.00002 94.66798c-1.5188 0-2.75 1.23122-2.75 2.75 0 1.51878 1.2312 2.75 2.75 2.75 1.5188 0 2.75-1.23122 2.75-2.75 0-1.51878-1.2312-2.75-2.75-2.75zm180.00002 0c-1.5188 0-2.75 1.23122-2.75 2.75 0 1.51878 1.2312 2.75 2.75 2.75 1.5188 0 2.75-1.23122 2.75-2.75 0-1.51878-1.2312-2.75-2.75-2.75zm-184.99962-311.750849h190.00002v344.999999h-190.00002z" fill="#c5c7c4" stroke="#000" stroke-linecap="round" stroke-width=".5"/><rect id="panel5" fill="#c5c7c4" height="511" stroke="#000" stroke-linecap="round" stroke-width=".79999983" width="442.20001" x="699.39996" y="430.60013"/><path id="grid500R" d="m836.49725 448.13561v75.92904m11.9999-75.92904v75.92904m12-75.92904v75.92904m144.00555-75.92904v75.92904m-12.00055-75.92904v75.92904m-12.0005-75.92904v75.92904m-12.0005-75.92904v75.92904m-12.0005-75.92904v75.92904m-12.0005-75.92904v75.92904m-12.0005-75.92904v75.92904m-12.0005-75.92904v75.92904m-12.0005-75.92904v75.92904m-12.0005-75.92904v75.92904m-12.0005-75.92904v75.92904m-12.0005-75.92904v75.92904" fill="none" stroke="#fff" stroke-dasharray="15 15" stroke-linecap="round" stroke-width="5"/><path id="grid700R" d="m836.49728 649.13561v73.92904m11.99987-73.92904v73.92904m12-73.92904v73.92904m144.00555-73.92904v73.92904m-12.00052-73.92904v73.92904m-12.0005-73.92904v73.92904m-12.0005-73.92904v73.92904m-12.00053-73.92904v73.92904m-12.0005-73.92904v73.92904m-12.0005-73.92904v73.92904m-12.0005-73.92904v73.92904m-12.0005-73.92904v73.92904m-12.0005-73.92904v73.92904m-12.0005-73.92904v73.92904m-12.0005-73.92904v73.92904" fill="none" stroke="#fff" stroke-dasharray="15 15" stroke-linecap="round" stroke-width="5"/><path id="grid900R" d="m836.49727 849.13558v73.92904m11.99987-73.92904v73.92904m12-73.92904v73.92904m144.00556-73.92904v73.92904m-12.00053-73.92904v73.92904m-12.0005-73.92904v73.92904m-12.0005-73.92904v73.92904m-12.00053-73.92904v73.92904m-12.0005-73.92904v73.92904m-12.0005-73.92904v73.92904m-12.0005-73.92904v73.92904m-12.0005-73.92904v73.92904m-12.0005-73.92904v73.92904m-12.0005-73.92904v73.92904m-12.0005-73.92904v73.92904" fill="none" stroke="#fff" stroke-dasharray="15 15" stroke-linecap="round" stroke-width="5"/></g></svg>