<svg id="svg2" height="1000" overflow="visible" viewBox="0 0 599.99999 1000" width="600" xmlns="http://www.w3.org/2000/svg"><g id="layer1" stroke="#000" stroke-linecap="round"><rect id="blindPanel" fill="#c5c7c4" fill-rule="evenodd" height="999" stroke-linejoin="round" width="599"/><g id="screwLT" fill-rule="evenodd" stroke-linejoin="round"><circle id="path4176-6" cx="28.499975" cy="28.500002" fill="#ebebeb" r="6.5" stroke-width=".80000001"/><path id="path4192-7" d="m30.517976 32.151001l-1.96-1.936-2.009 2.008-1.766-1.758 2.002-1.993-2.008-1.977 1.739-1.718 1.962 1.972 1.974-1.944 1.715 1.741-1.905 1.929 1.961 1.958z" fill="#c0c0c0" stroke-width=".5"/></g><g id="screwRT" fill-rule="evenodd" stroke-linejoin="round"><circle id="circle4169" cx="570.5" cy="28.500002" fill="#ebebeb" r="6.5" stroke-width=".80000001"/><path id="path4171" d="m572.49998 32.151001l-1.9-1.936-2.1 2.008-1.7-1.758 2-1.993-2-1.977 1.7-1.718 2 1.972 2-1.944 1.7 1.741-1.9 1.929 1.9 1.958z" fill="#c0c0c0" stroke-width=".5"/></g><g id="screwRB" fill-rule="evenodd" stroke-linejoin="round"><circle id="circle4177" cx="570.5" cy="970.5" fill="#ebebeb" r="6.5" stroke-width=".80000001"/><path id="path4179" d="m572.49998 974.15l-1.9-1.93-2.1 2-1.7-1.75 2-2-2-1.97 1.7-1.72 2 1.97 2-1.94 1.7 1.74-1.9 1.93 1.9 1.95z" fill="#c0c0c0" stroke-width=".5"/></g><g id="screwLB" fill-rule="evenodd" stroke-linejoin="round"><circle id="circle4187" cx="28.499975" cy="970.5" fill="#ebebeb" r="6.5" stroke-width=".80000001"/><path id="path4189" d="m30.517976 974.15l-1.96-1.93-2.009 2-1.766-1.75 2.002-2-2.008-1.97 1.739-1.72 1.962 1.97 1.974-1.94 1.715 1.74-1.905 1.93 1.961 1.95z" fill="#c0c0c0" stroke-width=".5"/></g><rect id="CutOut" fill="#fff" height="180" stroke-width=".5" width="345" x="127" y="109.75"/></g><path id="grid3" d="m329.99996 355.37194v185.94007m24-185.94007v185.94007m0-185.94007v185.94007m24-185.94007v185.94007m24-185.94007v185.94007m24-185.94007v185.94007m24-185.94007v185.94007m24-185.94007v185.94007m24-185.94007v185.94007m-396.99969-185.93442v185.94007m24-185.94007v185.94007m0-185.94007v185.94007m24-185.94007v185.94007m24-185.94007v185.94007m24-185.94007v185.94007m24-185.94007v185.94007m24-185.94007v185.94007m24-185.94007v185.94007" style="fill:#00f;fill-rule:evenodd;stroke:#fff;stroke-width:5;stroke-linecap:round;stroke-dasharray:30 10"/><path id="grid2" d="m329.99996 555.37198v185.94006m24-185.94006v185.94006m0-185.94006v185.94006m24-185.94006v185.94006m24-185.94006v185.94006m24-185.94006v185.94006m24-185.94006v185.94006m24-185.94006v185.94006m24-185.94006v185.94006m-396.99969-185.94006v185.94006m24-185.94006v185.94006m0-185.94006v185.94006m24-185.94006v185.94006m24-185.94006v185.94006m24-185.94006v185.94006m24-185.94006v185.94006m24-185.94006v185.94006m24-185.94006v185.94006" style="fill:#00f;fill-rule:evenodd;stroke:#fff;stroke-width:5;stroke-linecap:round;stroke-dasharray:30 10"/><path id="grid1" d="m329.99996 755.37197v185.94006m24-185.94006v185.94006m0-185.94006v185.94006m24-185.94006v185.94006m24-185.94006v185.94006m24-185.94006v185.94006m24-185.94006v185.94006m24-185.94006v185.94006m24-185.94006v185.94006m-396.99969-185.94006v185.94006m24-185.94006v185.94006m0-185.94006v185.94006m24-185.94006v185.94006m24-185.94006v185.94006m24-185.94006v185.94006m24-185.94006v185.94006m24-185.94006v185.94006m24-185.94006v185.94006" style="fill:#fff;fill-rule:evenodd;stroke:#fff;stroke-width:5;stroke-linecap:round;stroke-dasharray:30 10"/></svg>