<svg id="svg2" height="598.79999" overflow="visible" viewBox="0 0 594.79997 598.79997" width="594.79999" xmlns="http://www.w3.org/2000/svg"><g id="plate" stroke-linecap="round"><rect id="R1" fill="#e0e0e0" height="548" stroke="#808080" stroke-width=".80000001" width="272" x="161" y="24.999973"/><rect id="R2" fill="#e0e0e0" height="548" stroke="#808080" stroke-width=".80000001" width="225" x="184.5" y="24.999973"/><path id="terminalCut" d="m206.99901 198.99997v19.83008 20.16992c0 1.385.27851 2.7032.7832 3.90039.50469 1.19719 1.23492 2.27399 2.13867 3.17774.90375.90375 1.98055 1.63398 3.17774 2.13867 1.19718.50469 2.51539.7832 3.90039.7832h160.00199c1.385 0 2.7032-.27851 3.9003-.7832 1.1972-.50469 2.2721-1.23492 3.1758-2.13867.9038-.90375 1.636-1.98055 2.1407-3.17774.5047-1.19719.7832-2.51539.7832-3.90039v-20.16992-19.83008h-32.50199v14h-15v-14h-85v14h-15v-14zm40 5.32813a2 2 0 0 0 -2 2 2 2 0 0 0  2 2 2 2 0 0 0  2-2 2 2 0 0 0 -2-2zm100 0a2 2 0 0 0 -2 2 2 2 0 0 0  2 2 2 2 0 0 0  2-2 2 2 0 0 0 -2-2zm-130 144.67187c-1.385 0-2.70321.27851-3.90039.7832-1.19719.50469-2.27399 1.23493-3.17774 2.13868-.90375.90375-1.63398 1.98054-2.13867 3.17773-.50469 1.19719-.7832 2.51539-.7832 3.90039v20.16992 19.83008h32.5v-14h15v14h85v-14h15v14h32.50199v-19.83008-20.16992c0-1.385-.2785-2.7032-.7832-3.90039-.5047-1.19719-1.2369-2.27398-2.1407-3.17773-.9037-.90375-1.9786-1.63399-3.1758-2.13868-1.1971-.50469-2.5153-.7832-3.9003-.7832zm30 40.67188a2 2 0 0 0 -2 2 2 2 0 0 0  2 2 2 2 0 0 0  2-2 2 2 0 0 0 -2-2zm100 0a2 2 0 0 0 -2 2 2 2 0 0 0  2 2 2 2 0 0 0  2-2 2 2 0 0 0 -2-2z" fill="#fff" stroke="#000"/></g><g id="layer1"><g id="traverse1" fill="#e0e0e0" stroke="#808080" stroke-linecap="round" stroke-width=".80000001"><rect id="rect4186" height="50" width="500" x="47"/><rect id="rect4188" height="30" width="500" x="47" y="9.9999733"/></g><g id="traverse2" fill="#e0e0e0" stroke="#808080" stroke-linecap="round" stroke-width=".80000001"><rect id="rect4182" height="50" width="500" x="47" y="548"/><rect id="rect4184" height="30" width="500" x="47" y="558"/></g><g id="T5" style="fill:#c5c7c4;fill-opacity:.8;stroke:#808080;stroke-width:.80000001;stroke-linecap:round;stroke-linejoin:round"><path id="PVHT0430" d="m0-.00001221v597.99999221h394v-597.99999221zm139.5 234.90038221h115v115h-115z"/><path id="PVHT0540" d="m0-.00001221v597.99999221h494v-597.99999221zm213.19922 234.90038221h115v115h-115z"/><path id="PVWT0430" d="m0 0v598h394v-598zm139.40039 234.40039h116v69.5h29a9 9 0 0 1 9 9 9 9 0 0 1 -9 9h-29v29h-116z"/><path id="PVWT0540" d="m0 0v598h494v-598zm212.69922 234.40039h116v .0215 69.49804h29a9 9 0 0 1 9 9 9 9 0 0 1 -9 9h-29v28.98047.0215h-116v-.0215-116.47851z"/></g><g id="T6" style="fill:#c5c7c4;fill-opacity:.8;stroke:#808080;stroke-width:.80000001;stroke-linecap:round;stroke-linejoin:round"><path id="PVHT0431" d="m0-.00001221v597.99999221h394v-597.99999221zm123.40039 232.69921221h149v116h-149z"/><path id="PVHT0531" d="m0-.00001221v597.99999221h494v-597.99999221zm173.40039 232.69921221h149v116h-149z"/><path id="PVHT0640" d="m0-.00001221v597.99999221h594v-597.99999221zm258.40039 232.69921221h149v116h-149z"/><path id="PVWT0530" d="m0-.00001221v597.99999221h494v-597.99999221zm173.19922 209.90038221h148.5v150h-148.5z"/><path id="PVWT0640" d="m0-.00001221v597.99999221h594v-597.99999221zm258.19922 209.90038221h148.5v150h-148.5z"/></g><g id="T7" style="fill:#c5c7c4;fill-opacity:.8;stroke:#808080;stroke-width:.80000001;stroke-linecap:round;stroke-linejoin:round"><path id="PVHT0434" d="m0-.00001221v597.99999221h394v-597.99999221zm84.400391 167.90038221h225.999999v263h-225.999999z"/><path id="PVHT0530" d="m0-.00001221v597.99999221h494v-597.99999221zm134.40039 167.90038221h226v263h-226z"/><path id="PVHT0641" d="m0-.00001221v597.99999221h594v-597.99999221zm219.40039 167.90038221h226v263h-226z"/></g><g id="E12" style="fill:#c5c7c4;fill-opacity:.8;stroke:#808080;stroke-width:.80000001;stroke-linecap:round;stroke-linejoin:round"><path id="PVHE0437" d="m0-.00001221v597.99999221h394v-597.99999221zm84.400391 187.40038221h225.999999v224h-225.999999z"/><path id="PVHE0533" d="m0-.00001221v597.99999221h494v-597.99999221zm134.40039 187.40038221h226v224h-226z"/><path id="PVHE0642" d="m0-.00001221v597.99999221h594v-597.99999221zm219.40039 187.40038221h226v224h-226z"/></g><path id="ABBlogo" d="m580.4 270.01802l-14.7-3.93516v8.1293h14.7zm0 4.79414h-14.7v8.1293l14.7-3.93457zm0 16.80001h-14.7v8.7h14.7zm0 9.3h-14.7v9.10723a9.0000027 9.0000027 0 0 0 2.0666-3.11426 6.750002 6.750002 0 0 0  5.8834 3.45762 6.750002 6.750002 0 0 0  6.75-6.75 6.750002 6.750002 0 0 0  0-.0006v-2.7zm0 14.1h-14.7v8.70001h14.7zm0 9.30001h-14.7v9.10723a9.0000027 9.0000027 0 0 0 2.0666-3.11426 6.750002 6.750002 0 0 0  5.8834 3.45762 6.750002 6.750002 0 0 0  6.75-6.75 6.750002 6.750002 0 0 0  0-.0006v-2.7zm-15.3-58.38986l-14.7-3.93516v7.5l6 1.59023v3.13477h8.7zm0 8.88984h-8.7v3.13535l-6 1.58965v7.50001l14.7-3.93457zm0 16.80001h-14.7v8.7h14.7zm0 9.3h-14.7v2.7a9.0000027 9.0000027 0 0 0 0 .0006 9.0000027 9.0000027 0 0 0  9 9 9.0000027 9.0000027 0 0 0  5.7-2.05019v-9.6504zm0 14.1h-14.7v8.70001h14.7zm0 9.30001h-14.7v2.7a9.0000027 9.0000027 0 0 0 0 .0006 9.0000027 9.0000027 0 0 0  9 9 9.0000027 9.0000027 0 0 0  5.7-2.0502v-9.65039z" fill="#575d5e"/><path id="cover" d="m570.34998 435.34998h14c1.939 0 3.5 1.561 3.5 3.5v71c0 1.939-1.561 3.5-3.5 3.5h-14c-1.939 0-3.5-1.561-3.5-3.5v-71c0-1.939 1.561-3.5 3.5-3.5zm0-1.5h14c2.77 0 5 2.23 5 5v71c0 2.77-2.23 5-5 5h-14c-2.77 0-5-2.23-5-5v-71c0-2.77 2.23-5 5-5zm0-349.050038h14c1.939 0 3.5 1.561 3.5 3.5v70.999998c0 1.939-1.561 3.5-3.5 3.5h-14c-1.939 0-3.5-1.561-3.5-3.5v-70.999998c0-1.939 1.561-3.5 3.5-3.5zm0-1.5h14c2.77 0 5 2.23 5 5v70.999998c0 2.77-2.23 5-5 5h-14c-2.77 0-5-2.23-5-5v-70.999998c0-2.77 2.23-5 5-5z" fill="#575d5e" stroke="#4d4d4d" stroke-linecap="round" stroke-linejoin="round" stroke-width=".5"/><g id="lock"><path id="rect4176" d="m9.6500001 435.34998h13.9999999c1.939 0 3.5 1.561 3.5 3.5v71c0 1.939-1.561 3.5-3.5 3.5h-13.9999999c-1.939 0-3.5-1.561-3.5-3.5v-71c0-1.939 1.561-3.5 3.5-3.5zm0-1.5h13.9999999c2.77 0 5 2.23 5 5v71c0 2.77-2.23 5-5 5h-13.9999999c-2.77 0-5-2.23-5-5v-71c0-2.77 2.23-5 5-5zm0-349.050038h13.9999999c1.939 0 3.5 1.561 3.5 3.5v70.999998c0 1.939-1.561 3.5-3.5 3.5h-13.9999999c-1.939 0-3.5-1.561-3.5-3.5v-70.999998c0-1.939 1.561-3.5 3.5-3.5zm0-1.5h13.9999999c2.77 0 5 2.23 5 5v70.999998c0 2.77-2.23 5-5 5h-13.9999999c-2.77 0-5-2.23-5-5v-70.999998c0-2.77 2.23-5 5-5z" fill="#575d5e" stroke="#4d4d4d" stroke-linecap="round" stroke-linejoin="round" stroke-width=".5"/><path id="rect4178" d="m4.6500001 486.75h23.9999999v11.2h-23.9999999zm0-350.55006h23.9999999v11.2h-23.9999999z" fill="none" stroke="#4d4d4d" stroke-linecap="round" stroke-linejoin="round" stroke-width=".5"/><path id="circle4182" d="m25.25 492.34998a8.6000004 8.6000004 0 0 1 -8.6 8.6 8.6000004 8.6000004 0 0 1 -8.6000008-8.6 8.6000004 8.6000004 0 0 1  8.6000008-8.6 8.6000004 8.6000004 0 0 1  8.6 8.6zm3.15 0a11.75 11.75 0 0 1 -11.75 11.75 11.75 11.75 0 0 1 -11.7500004-11.75 11.75 11.75 0 0 1  11.7500004-11.75 11.75 11.75 0 0 1  11.75 11.75zm-3.15-350.55004a8.6000004 8.6000004 0 0 1 -8.6 8.6 8.6000004 8.6000004 0 0 1 -8.6000008-8.6 8.6000004 8.6000004 0 0 1  8.6000008-8.6 8.6000004 8.6000004 0 0 1  8.6 8.6zm3.15 0a11.75 11.75 0 0 1 -11.75 11.75 11.75 11.75 0 0 1 -11.7500004-11.75 11.75 11.75 0 0 1  11.7500004-11.75 11.75 11.75 0 0 1  11.75 11.75z" fill="#333" stroke="#4d4d4d" stroke-linecap="round" stroke-linejoin="round" stroke-width=".5"/><path id="path4184" d="m16.65 497.28726l-4.25-2.46863v-4.93727l4.25-2.46864 4.25 2.46864v4.93727zm0-350.55005l-4.25-2.46863v-4.93727l4.25-2.46864 4.25 2.46864v4.93727z" stroke="#4d4d4d" stroke-linecap="round" stroke-linejoin="round" stroke-width=".49999997"/><path id="path4188" d="m9.549423 439.6l-.964113 3.6015h1.991678v-3.6015zm1.174565 0v3.6015h1.991678l-.96397-3.6015zm4.116001 0v3.6015h2.131501v-3.6015zm2.278501 0v3.6015h2.231271a2.2050006 2.2050006 0 0 0 -.762993-.50632 1.6537505 1.6537505 0 0 0  .847116-1.44143 1.6537505 1.6537505 0 0 0 -1.65375-1.65375 1.6537505 1.6537505 0 0 0 -.000147 0h-.6615zm3.454501 0v3.6015h2.1315v-3.6015zm2.2785 0v3.6015h2.231271a2.2050006 2.2050006 0 0 0 -.762993-.50632 1.6537505 1.6537505 0 0 0  .847117-1.44143 1.6537505 1.6537505 0 0 0 -1.653751-1.65375 1.6537505 1.6537505 0 0 0 -.000147 0h-.6615zm-14.3055153 3.7485l-.9641137 3.6015h1.8375005l.3896074-1.47h.7680181v-2.1315zm2.1780123 0v2.1315h.768161l.389464 1.47h1.837501l-.96397-3.6015zm4.116001 0v3.6015h2.131501v-3.6015zm2.278501 0v3.6015h.6615a2.2050006 2.2050006 0 0 0  .000147 0 2.2050006 2.2050006 0 0 0  2.205-2.205 2.2050006 2.2050006 0 0 0 -.502298-1.3965h-2.364346zm3.454501 0v3.6015h2.1315v-3.6015zm2.2785 0v3.6015h.6615a2.2050006 2.2050006 0 0 0  .000147 0 2.2050006 2.2050006 0 0 0  2.205001-2.205 2.2050006 2.2050006 0 0 0 -.502298-1.3965h-2.364347zm-13.302068-354.298556l-.964113 3.601501h1.991678v-3.601501zm1.174565 0v3.601501h1.991678l-.96397-3.601501zm4.116001 0v3.601501h2.131501v-3.601501zm2.278501 0v3.601501h2.231271a2.2050006 2.2050006 0 0 0 -.762993-.506319 1.6537505 1.6537505 0 0 0  .847116-1.441431 1.6537505 1.6537505 0 0 0 -1.65375-1.653751 1.6537505 1.6537505 0 0 0 -.000147 0h-.6615zm3.454501 0v3.601501h2.1315v-3.601501zm2.2785 0v3.601501h2.231271a2.2050006 2.2050006 0 0 0 -.762993-.506319 1.6537505 1.6537505 0 0 0  .847117-1.441431 1.6537505 1.6537505 0 0 0 -1.653751-1.653751 1.6537505 1.6537505 0 0 0 -.000147 0h-.6615zm-14.3055153 3.748501l-.9641137 3.601501h1.8375005l.3896074-1.47h.7680181v-2.131501zm2.1780123 0v2.131501h.768161l.389464 1.47h1.837501l-.96397-3.601501zm4.116001 0v3.601501h2.131501v-3.601501zm2.278501 0v3.601501h.6615a2.2050006 2.2050006 0 0 0  .000147 0 2.2050006 2.2050006 0 0 0  2.205-2.205 2.2050006 2.2050006 0 0 0 -.502298-1.396501h-2.364346zm3.454501 0v3.601501h2.1315v-3.601501zm2.2785 0v3.601501h.6615a2.2050006 2.2050006 0 0 0  .000147 0 2.2050006 2.2050006 0 0 0  2.205001-2.205 2.2050006 2.2050006 0 0 0 -.502298-1.396501h-2.364347z" fill="#333"/></g><text id="textBottom" line-height="125%" style="font-size:20;font-family:sans-serif;letter-spacing:0;word-spacing:0;text-anchor:middle;overflow:visible" x="297.20996" xml:space="preserve" y="576.14606"><tspan id="tspan4155-8-6" x="297.20996" y="576.14606">Text</tspan></text><text id="textTop" line-height="125%" style="font-size:20;font-family:sans-serif;letter-spacing:0;word-spacing:0;text-anchor:middle;overflow:visible" x="297.20996" xml:space="preserve" y="36.141048"><tspan id="tspan4653-9" x="297.20996" y="36.141048">Text</tspan></text></g></svg>