<svg id="svg2" height="598.79999" overflow="visible" viewBox="0 0 1344.8 598.79997" width="1344.8" xmlns="http://www.w3.org/2000/svg"><g id="layer1"><g id="traverse1" fill="#e0e0e0" stroke="#808080" stroke-linecap="round" stroke-width=".80000001"><rect id="rect4186" height="50" width="1250" x="47" y="-.00001385"/><rect id="rect4188" height="30" width="1250" x="47" y="9.9999857"/></g><g id="traverse2" fill="#e0e0e0" stroke="#808080" stroke-linecap="round" stroke-width=".80000001"><rect id="rect4182" height="50" width="1250" x="47" y="548"/><rect id="rect4184" height="30" width="1250" x="47" y="558"/></g><g id="base" fill="#e0e0e0" stroke="#808080" stroke-linecap="round" stroke-width=".80000001"><rect id="R1" height="135" width="1209" x="67.499794" y="416.39996"/><rect id="R3" height="5" width="24.1" x="1276.5" y="546.39996"/><rect id="R2" height="5" width="24.1" x="43.400002" y="546.39996"/></g><g id="E22" style="fill:#c5c7c4;fill-opacity:.8;stroke:#808080;stroke-width:.80000001;stroke-linecap:round;stroke-linejoin:round"><path id="PVHE0530" d="m0-.00001883v598.00000883h494v-598.00000883zm94.150391 111.65039883h305.999999v348h-305.999999z"/><path id="PVHE0643" d="m0-.00001883v598.00000883h594v-598.00000883zm189.15039 111.65039883h306v348h-306z"/><path id="PVWE0539" d="m0-.00001883v598.00000883h494v-598.00000883zm94.150391 110.65039883h305.999999v374h-305.999999z"/><path id="PVWE0643" d="m0-.00001883v598.00000883h594v-598.00000883zm189.15039 110.65039883h306v374h-306z"/></g><g id="E42" style="fill:#c5c7c4;fill-opacity:.8;stroke:#808080;stroke-width:.80000001;stroke-linecap:round;stroke-linejoin:round"><path id="PVHE0630" d="m0-.00001883v598.00000883h594v-598.00000883zm144.15039 111.65039883h306v348h-306z"/><path id="PVHE0840" d="m0-.00001883v598.00000883h794v-598.00000883zm307.15039 111.65039883h306v348h-306z"/><path id="PVWE0630" d="m0-.00001883v598.00000883h594v-598.00000883zm144.15039 110.65039883h306v374h-306z"/><path id="PVWE0840" d="m0-.00001883v598.00000883h794v-598.00000883zm307.15039 110.65039883h306v374h-306z"/><path id="PVWE0631" d="m0-.00001883v598.00000883h594v-598.00000883zm144.15039 135.65039883h306v374h-306z"/><path id="PVWE0841" d="m0-.00001883v598.00000883h794v-598.00000883zm307.15039 135.65039883h306v374h-306z"/></g><g id="E62" style="fill:#c5c7c4;fill-opacity:.8;stroke:#808080;stroke-width:.80000001;stroke-linecap:round;stroke-linejoin:round"><path id="PVHE1030" d="m0-.00001883v598.00000883h994v-598.00000883zm407.15039 111.65039883h306v348h-306z"/><path id="PVHE1240" d="m0-.00001883v598.00000883h1194v-598.00000883zm444.15039 111.65039883h306v348h-306z"/><path id="PVHE1341" d="m0-.00001883v598.00000883h1344v-598.00000883zm582.15039 111.65039883h306v348h-306z"/><path id="PVHE1031" d="m0-.00001883v598.00000883h994v-598.00000883zm407.15039 136.65000883h306v348h-306z"/><path id="PVHE1241" d="m0-.00001883v598.00000883h1194v-598.00000883zm444.15039 136.65000883h306v348h-306z"/><path id="PVHE1340" d="m0-.00001883v598.00005883h1343.9999v-598.00005883zm582.1503 136.65045883h305.9999v348h-305.9999z" style="fill:#c5c7c4;fill-opacity:.8;stroke:#808080;stroke-width:.80000001;stroke-linecap:round;stroke-linejoin:round"/><path id="PVWE1030" d="m0-.00001883v598.00000883h994v-598.00000883zm408.15039 110.65039883h306v374h-306z"/><path id="PVWE1240" d="m0-.00001883v598.00000883h1194v-598.00000883zm507.15039 110.65039883h306v374h-306z"/><path id="PVWE1350" d="m0-.00001883v598.00000883h1344v-598.00000883zm584.15039 110.65039883h306v374h-306z"/><path id="PVWE1031" d="m0-.00001883v598.00000883h994v-598.00000883zm408.15039 135.65039883h306v374h-306z"/><path id="PVWE1241" d="m0-.00001883v598.00000883h1194v-598.00000883zm507.15039 135.65039883h306v374h-306z"/><path id="PVWE1363" d="m0-.00001883v598.00000883h1344v-598.00000883zm584.15039 135.65039883h306v374h-306z"/></g><g id="E12" style="fill:#c5c7c4;fill-opacity:.8;stroke:#808080;stroke-width:.80000001;stroke-linecap:round;stroke-linejoin:round"><path id="PVWE0536" d="m0 0v598h494v-598zm134.40039 149.40039h274v262h-274z"/><path id="PVWE0642" d="m0 0v598h594v-598zm219.40039 149.40039h274v262h-274z"/></g><g id="T7" style="fill:#c5c7c4;fill-opacity:.8;stroke:#808080;stroke-width:.80000001;stroke-linecap:round;stroke-linejoin:round"><path id="PVWT0533" d="m0 0v598h494v-598zm134.40039 154.90039h278.5v256.5h-278.5z"/><path id="PVWT0641" d="m0 0v598h594v-598zm219.40039 154.90039h278.5v256.5h-278.5z"/></g><path id="ABBlogo" d="m1330.4 270.01804l-14.7-3.93516v8.1293h14.7zm0 4.79414h-14.7v8.1293l14.7-3.93457zm0 16.80001h-14.7v8.7h14.7zm0 9.3h-14.7v9.10723a9.0000027 9.0000027 0 0 0 2.0666-3.11426 6.750002 6.750002 0 0 0  5.8834 3.45762 6.750002 6.750002 0 0 0  6.75-6.75 6.750002 6.750002 0 0 0  0-.0006v-2.7zm0 14.1h-14.7v8.70001h14.7zm0 9.30001h-14.7v9.10723a9.0000027 9.0000027 0 0 0 2.0666-3.11426 6.750002 6.750002 0 0 0  5.8834 3.45762 6.750002 6.750002 0 0 0  6.75-6.75 6.750002 6.750002 0 0 0  0-.0006v-2.7zm-15.3-58.38986l-14.7-3.93516v7.5l6 1.59023v3.13477h8.7zm0 8.88984h-8.7v3.13535l-6 1.58965v7.50001l14.7-3.93457zm0 16.80001h-14.7v8.7h14.7zm0 9.3h-14.7v2.7a9.0000027 9.0000027 0 0 0 0 .0006 9.0000027 9.0000027 0 0 0  9 9 9.0000027 9.0000027 0 0 0  5.7-2.05019v-9.6504zm0 14.1h-14.7v8.70001h14.7zm0 9.30001h-14.7v2.7a9.0000027 9.0000027 0 0 0 0 .0006 9.0000027 9.0000027 0 0 0  9 9 9.0000027 9.0000027 0 0 0  5.7-2.0502v-9.65039z" fill="#575d5e"/><path id="cover" d="m1320.35 435.34998h14c1.939 0 3.5 1.561 3.5 3.5v71c0 1.939-1.561 3.5-3.5 3.5h-14c-1.939 0-3.5-1.561-3.5-3.5v-71c0-1.939 1.561-3.5 3.5-3.5zm0-1.5h14c2.77 0 5 2.23 5 5v71c0 2.77-2.23 5-5 5h-14c-2.77 0-5-2.23-5-5v-71c0-2.77 2.23-5 5-5zm0-349.050023h14c1.939 0 3.5 1.561 3.5 3.5v71.000003c0 1.939-1.561 3.5-3.5 3.5h-14c-1.939 0-3.5-1.561-3.5-3.5v-71.000003c0-1.939 1.561-3.5 3.5-3.5zm0-1.5h14c2.77 0 5 2.23 5 5v71.000003c0 2.77-2.23 5-5 5h-14c-2.77 0-5-2.23-5-5v-71.000003c0-2.77 2.23-5 5-5zm0 1.5h14c1.939 0 3.5 1.561 3.5 3.5v71.000003c0 1.939-1.561 3.5-3.5 3.5h-14c-1.939 0-3.5-1.561-3.5-3.5v-71.000003c0-1.939 1.561-3.5 3.5-3.5z" fill="#575d5e" stroke="#4d4d4d" stroke-linecap="round" stroke-linejoin="round" stroke-width=".5"/><g id="lock"><path id="rect4176" d="m9.6500001 435.34998h13.9999999c1.939 0 3.5 1.561 3.5 3.5v71c0 1.939-1.561 3.5-3.5 3.5h-13.9999999c-1.939 0-3.5-1.561-3.5-3.5v-71c0-1.939 1.561-3.5 3.5-3.5zm0-1.5h13.9999999c2.77 0 5 2.23 5 5v71c0 2.77-2.23 5-5 5h-13.9999999c-2.77 0-5-2.23-5-5v-71c0-2.77 2.23-5 5-5zm0-349.050023h13.9999999c1.939 0 3.5 1.561 3.5 3.5v71.000003c0 1.939-1.561 3.5-3.5 3.5h-13.9999999c-1.939 0-3.5-1.561-3.5-3.5v-71.000003c0-1.939 1.561-3.5 3.5-3.5zm0-1.5h13.9999999c2.77 0 5 2.23 5 5v71.000003c0 2.77-2.23 5-5 5h-13.9999999c-2.77 0-5-2.23-5-5v-71.000003c0-2.77 2.23-5 5-5z" fill="#575d5e" stroke="#4d4d4d" stroke-linecap="round" stroke-linejoin="round" stroke-width=".5"/><path id="rect4178" d="m4.6500001 486.75h23.9999999v11.2h-23.9999999zm0-350.55005h23.9999999v11.2h-23.9999999z" fill="none" stroke="#4d4d4d" stroke-linecap="round" stroke-linejoin="round" stroke-width=".5"/><path id="circle4182" d="m25.25 492.34998a8.6000004 8.6000004 0 0 1 -8.6 8.6 8.6000004 8.6000004 0 0 1 -8.6000008-8.6 8.6000004 8.6000004 0 0 1  8.6000008-8.6 8.6000004 8.6000004 0 0 1  8.6 8.6zm3.15 0a11.75 11.75 0 0 1 -11.75 11.75 11.75 11.75 0 0 1 -11.7500004-11.75 11.75 11.75 0 0 1  11.7500004-11.75 11.75 11.75 0 0 1  11.75 11.75zm-3.15-350.55002a8.6000004 8.6000004 0 0 1 -8.6 8.6 8.6000004 8.6000004 0 0 1 -8.6000008-8.6 8.6000004 8.6000004 0 0 1  8.6000008-8.6 8.6000004 8.6000004 0 0 1  8.6 8.6zm3.15 0a11.75 11.75 0 0 1 -11.75 11.75 11.75 11.75 0 0 1 -11.7500004-11.75 11.75 11.75 0 0 1  11.7500004-11.75 11.75 11.75 0 0 1  11.75 11.75z" fill="#333" stroke="#4d4d4d" stroke-linecap="round" stroke-linejoin="round" stroke-width=".5"/><path id="path4184" d="m16.65 497.28727l-4.25-2.46863v-4.93727l4.25-2.46864 4.25 2.46864v4.93727zm0-350.55005l-4.25-2.46863v-4.93727l4.25-2.46864 4.25 2.46864v4.93727z" stroke="#4d4d4d" stroke-linecap="round" stroke-linejoin="round" stroke-width=".49999997"/><path id="path4188" d="m9.549423 439.60001l-.964113 3.6015h1.991678v-3.6015zm1.174565 0v3.6015h1.991678l-.96397-3.6015zm4.116001 0v3.6015h2.131501v-3.6015zm2.278501 0v3.6015h2.231271a2.2050006 2.2050006 0 0 0 -.762993-.50632 1.6537505 1.6537505 0 0 0  .847116-1.44143 1.6537505 1.6537505 0 0 0 -1.65375-1.65375 1.6537505 1.6537505 0 0 0 -.000147 0h-.6615zm3.454501 0v3.6015h2.1315v-3.6015zm2.2785 0v3.6015h2.231271a2.2050006 2.2050006 0 0 0 -.762993-.50632 1.6537505 1.6537505 0 0 0  .847117-1.44143 1.6537505 1.6537505 0 0 0 -1.653751-1.65375 1.6537505 1.6537505 0 0 0 -.000147 0h-.6615zm-14.3055153 3.7485l-.9641137 3.6015h1.8375005l.3896074-1.47h.7680181v-2.1315zm2.1780123 0v2.1315h.768161l.389464 1.47h1.837501l-.96397-3.6015zm4.116001 0v3.6015h2.131501v-3.6015zm2.278501 0v3.6015h.6615a2.2050006 2.2050006 0 0 0  .000147 0 2.2050006 2.2050006 0 0 0  2.205-2.205 2.2050006 2.2050006 0 0 0 -.502298-1.3965h-2.364346zm3.454501 0v3.6015h2.1315v-3.6015zm2.2785 0v3.6015h.6615a2.2050006 2.2050006 0 0 0  .000147 0 2.2050006 2.2050006 0 0 0  2.205001-2.205 2.2050006 2.2050006 0 0 0 -.502298-1.3965h-2.364347zm-13.302068-354.298554l-.964113 3.601501h1.991678v-3.601501zm1.174565 0v3.601501h1.991678l-.96397-3.601501zm4.116001 0v3.601501h2.131501v-3.601501zm2.278501 0v3.601501h2.231271a2.2050006 2.2050006 0 0 0 -.762993-.506319 1.6537505 1.6537505 0 0 0  .847116-1.441431 1.6537505 1.6537505 0 0 0 -1.65375-1.653751 1.6537505 1.6537505 0 0 0 -.000147 0h-.6615zm3.454501 0v3.601501h2.1315v-3.601501zm2.2785 0v3.601501h2.231271a2.2050006 2.2050006 0 0 0 -.762993-.506319 1.6537505 1.6537505 0 0 0  .847117-1.441431 1.6537505 1.6537505 0 0 0 -1.653751-1.653751 1.6537505 1.6537505 0 0 0 -.000147 0h-.6615zm-14.3055153 3.748501l-.9641137 3.601501h1.8375005l.3896074-1.47h.7680181v-2.131501zm2.1780123 0v2.131501h.768161l.389464 1.47h1.837501l-.96397-3.601501zm4.116001 0v3.601501h2.131501v-3.601501zm2.278501 0v3.601501h.6615a2.2050006 2.2050006 0 0 0  .000147 0 2.2050006 2.2050006 0 0 0  2.205-2.205 2.2050006 2.2050006 0 0 0 -.502298-1.396501h-2.364346zm3.454501 0v3.601501h2.1315v-3.601501zm2.2785 0v3.601501h.6615a2.2050006 2.2050006 0 0 0  .000147 0 2.2050006 2.2050006 0 0 0  2.205001-2.205 2.2050006 2.2050006 0 0 0 -.502298-1.396501h-2.364347z" fill="#333"/></g><text id="textBottom" line-height="125%" style="font-size:20;font-family:sans-serif;letter-spacing:0;word-spacing:0;text-anchor:middle;overflow:visible" x="672.20996" xml:space="preserve" y="576.14606"><tspan id="tspan4155-8-6" x="672.20996" y="576.14606">Text</tspan></text><text id="textTop" line-height="125%" style="font-size:20;font-family:sans-serif;letter-spacing:0;word-spacing:0;text-anchor:middle;overflow:visible" x="672.20996" xml:space="preserve" y="36.141083"><tspan id="tspan4653-9" x="672.20996" y="36.141083">Text</tspan></text></g></svg>