<svg id="svg2" height="1000" overflow="visible" viewBox="0 0 400 1000" width="400" xmlns="http://www.w3.org/2000/svg"><g id="layer1" fill-rule="evenodd" stroke-linecap="round"><rect id="blindPanel" fill="#c5c7c4" height="999" stroke="#000" stroke-linejoin="round" width="399"/><g id="screwLT" stroke="#000" stroke-linejoin="round"><circle id="path4176-6" cx="28.5" cy="28.5" fill="#ebebeb" r="6.5" stroke-width=".80000001"/><path id="path4192-7" d="m30.518 32.151l-1.96-1.936-2.009 2.008-1.766-1.758 2.002-1.993-2.008-1.977 1.739-1.718 1.962 1.972 1.974-1.944 1.715 1.741-1.905 1.929 1.961 1.958z" fill="#c0c0c0" stroke-width=".5"/></g><g id="screwRT" stroke="#000" stroke-linejoin="round"><circle id="circle4169" cx="370.5" cy="28.5" fill="#ebebeb" r="6.5" stroke-width=".80000001"/><path id="path4171" d="m372.5 32.151l-1.9-1.936-2.1 2.008-1.7-1.758 2-1.993-2-1.977 1.7-1.718 2 1.972 2-1.944 1.7 1.741-1.9 1.929 1.9 1.958z" fill="#c0c0c0" stroke-width=".5"/></g><g id="screwRB" stroke="#000" stroke-linejoin="round"><circle id="circle4177" cx="370.5" cy="970.5" fill="#ebebeb" r="6.5" stroke-width=".80000001"/><path id="path4179" d="m372.5 974.15l-1.9-1.93-2.1 2-1.7-1.75 2-2-2-1.97 1.7-1.72 2 1.97 2-1.94 1.7 1.74-1.9 1.93 1.9 1.95z" fill="#c0c0c0" stroke-width=".5"/></g><g id="screwLB" stroke="#000" stroke-linejoin="round"><circle id="circle4187" cx="28.5" cy="970.5" fill="#ebebeb" r="6.5" stroke-width=".80000001"/><path id="path4189" d="m30.518 974.15l-1.96-1.93-2.009 2-1.766-1.75 2.002-2-2.008-1.97 1.739-1.72 1.962 1.97 1.974-1.94 1.715 1.74-1.905 1.93 1.961 1.95z" fill="#c0c0c0" stroke-width=".5"/></g><path id="grid1000" d="m115.50025 729.02997v185.94006m24-185.94006v185.94006m0-185.94006v185.94006m24-185.94006v185.94006m24-185.94006v185.94006m24-185.94006v185.94006m24-185.94006v185.94006m24-185.94006v185.94006m24-185.94006v185.94006m-168-400.94006v185.94006m24-185.94006v185.94006m0-185.94006v185.94006m24-185.94006v185.94006m24-185.94006v185.94006m24-185.94006v185.94006m24-185.94006v185.94006m24-185.94006v185.94006m24-185.94006v185.94006m-168-400.94006v185.94006m24-185.94006v185.94006m0-185.94006v185.94006m24-185.94006v185.94006m24-185.94006v185.94006m24-185.94006v185.94006m24-185.94006v185.94006m24-185.94006v185.94006m24-185.94006v185.94006m-168-400.934424v185.940064m24-185.940064v185.940064m0-185.940064v185.940064m24-185.940064v185.940064m24-185.940064v185.940064m24-185.940064v185.940064m24-185.940064v185.940064m24-185.940064v185.940064m24-185.940064v185.940064" fill="#00f" stroke="#fff" stroke-dasharray="30 10" stroke-width="5"/><path id="grid800" d="m115.5 528.52997v185.94006m24-185.94006v185.94006m0-185.94006v185.94006m24-185.94006v185.94006m24-185.94006v185.94006m24-185.94006v185.94006m24-185.94006v185.94006m24-185.94006v185.94006m24-185.94006v185.94006m-168-407.94006v185.94006m24-185.94006v185.94006m0-185.94006v185.94006m24-185.94006v185.94006m24-185.94006v185.94006m24-185.94006v185.94006m24-185.94006v185.94006m24-185.94006v185.94006m24-185.94006v185.94006m-168-407.940061v185.940061m24-185.940061v185.940061m0-185.940061v185.940061m24-185.940061v185.940061m24-185.940061v185.940061m24-185.940061v185.940061m24-185.940061v185.940061m24-185.940061v185.940061m24-185.940061v185.940061" fill="#00f" stroke="#fff" stroke-dasharray="30 10" stroke-width="5"/><path id="grid600" d="m115.5 328.52997v185.94006m24-185.94006v185.94006m0-185.94006v185.94006m24-185.94006v185.94006m24-185.94006v185.94006m24-185.94006v185.94006m24-185.94006v185.94006m24-185.94006v185.94006m24-185.94006v185.94006m-168-429.940064v185.940064m24-185.940064v185.940064m0-185.940064v185.940064m24-185.940064v185.940064m24-185.940064v185.940064m24-185.940064v185.940064m24-185.940064v185.940064m24-185.940064v185.940064m24-185.940064v185.940064" fill="#00f" stroke="#fff" stroke-dasharray="30 10" stroke-width="5"/></g></svg>