<svg id="svg2" height="751.79999" overflow="visible" viewBox="0 0 594.8 751.79997" width="594.79999" xmlns="http://www.w3.org/2000/svg"><g id="layer1"><rect id="Blindpanel" height="751" style="fill:#c5c7c4;fill-opacity:.8;stroke:#808080;stroke-width:.80000001;stroke-linecap:round;stroke-linejoin:round" width="594"/><g id="lock1"><rect id="rect4139" fill="#575d5e" height="81" rx="5" stroke="#4d4d4d" stroke-linecap="round" stroke-linejoin="round" stroke-width=".5" width="24" x="4.6500001" y="83.299973"/><rect id="rect4149" fill="none" height="78" rx="3.5" stroke="#4d4d4d" stroke-linecap="round" stroke-linejoin="round" stroke-width=".5" width="21" x="6.1500001" y="84.799973"/><rect id="rect4160" fill="none" height="11.2" stroke="#4d4d4d" stroke-linecap="round" stroke-linejoin="round" stroke-width=".5" width="24" x="4.6500001" y="136.19997"/><circle id="path4141" cx="16.65" cy="141.79997" fill="#333" r="11.75" stroke="#4d4d4d" stroke-linecap="round" stroke-linejoin="round" stroke-width=".5"/><circle id="path4145" cx="16.65" cy="141.79997" fill="#333" r="8.6000004" stroke="#4d4d4d" stroke-linecap="round" stroke-linejoin="round" stroke-width=".5"/><path id="path4147" d="m16.65 146.73724l-4.25-2.46863v-4.93727l4.25-2.46864 4.25 2.46864v4.93727z" stroke="#4d4d4d" stroke-linecap="round" stroke-linejoin="round" stroke-width=".49999997"/><path id="path5180" d="m9.549423 89.049975l-.964113 3.601501h1.991678v-3.601501zm1.174565 0v3.601501h1.991678l-.96397-3.601501zm4.116001 0v3.601501h2.131501v-3.601501zm2.278501 0v3.601501h2.231271a2.2050006 2.2050006 0 0 0 -.762993-.506319 1.6537505 1.6537505 0 0 0  .847116-1.441431 1.6537505 1.6537505 0 0 0 -1.65375-1.653751 1.6537505 1.6537505 0 0 0 -.000147 0h-.6615zm3.454501 0v3.601501h2.1315v-3.601501zm2.2785 0v3.601501h2.231271a2.2050006 2.2050006 0 0 0 -.762993-.506319 1.6537505 1.6537505 0 0 0  .847117-1.441431 1.6537505 1.6537505 0 0 0 -1.653751-1.653751 1.6537505 1.6537505 0 0 0 -.000147 0h-.6615zm-14.3055153 3.748501l-.9641137 3.601501h1.8375005l.3896074-1.47h.7680181v-2.131501zm2.1780123 0v2.131501h.768161l.389464 1.47h1.837501l-.96397-3.601501zm4.116001 0v3.601501h2.131501v-3.601501zm2.278501 0v3.601501h.6615a2.2050006 2.2050006 0 0 0  .000147 0 2.2050006 2.2050006 0 0 0  2.205-2.205 2.2050006 2.2050006 0 0 0 -.502298-1.396501h-2.364346zm3.454501 0v3.601501h2.1315v-3.601501zm2.2785 0v3.601501h.6615a2.2050006 2.2050006 0 0 0  .000147 0 2.2050006 2.2050006 0 0 0  2.205001-2.205 2.2050006 2.2050006 0 0 0 -.502298-1.396501h-2.364347z" fill="#333"/></g><g id="lock2"><rect id="rect4174" fill="#575d5e" height="81" rx="5" stroke="#4d4d4d" stroke-linecap="round" stroke-linejoin="round" stroke-width=".5" width="24" x="4.6500001" y="586.39996"/><rect id="rect4176" fill="none" height="78" rx="3.5" stroke="#4d4d4d" stroke-linecap="round" stroke-linejoin="round" stroke-width=".5" width="21" x="6.1500001" y="587.89996"/><rect id="rect4178" fill="none" height="11.2" stroke="#4d4d4d" stroke-linecap="round" stroke-linejoin="round" stroke-width=".5" width="24" x="4.6500001" y="639.29999"/><circle id="circle4180" cx="16.65" cy="644.89996" fill="#333" r="11.75" stroke="#4d4d4d" stroke-linecap="round" stroke-linejoin="round" stroke-width=".5"/><circle id="circle4182" cx="16.65" cy="644.89996" fill="#333" r="8.6000004" stroke="#4d4d4d" stroke-linecap="round" stroke-linejoin="round" stroke-width=".5"/><path id="path4184" d="m16.65 649.83726l-4.25-2.46863v-4.93727l4.25-2.46864 4.25 2.46864v4.93727z" stroke="#4d4d4d" stroke-linecap="round" stroke-linejoin="round" stroke-width=".49999997"/><path id="path4188" d="m9.549423 592.15l-.964113 3.6015h1.991678v-3.6015zm1.174565 0v3.6015h1.991678l-.96397-3.6015zm4.116001 0v3.6015h2.131501v-3.6015zm2.278501 0v3.6015h2.231271a2.2050006 2.2050006 0 0 0 -.762993-.50632 1.6537505 1.6537505 0 0 0  .847116-1.44143 1.6537505 1.6537505 0 0 0 -1.65375-1.65375 1.6537505 1.6537505 0 0 0 -.000147 0h-.6615zm3.454501 0v3.6015h2.1315v-3.6015zm2.2785 0v3.6015h2.231271a2.2050006 2.2050006 0 0 0 -.762993-.50632 1.6537505 1.6537505 0 0 0  .847117-1.44143 1.6537505 1.6537505 0 0 0 -1.653751-1.65375 1.6537505 1.6537505 0 0 0 -.000147 0h-.6615zm-14.3055153 3.7485l-.9641137 3.6015h1.8375005l.3896074-1.47h.7680181v-2.1315zm2.1780123 0v2.1315h.768161l.389464 1.47h1.837501l-.96397-3.6015zm4.116001 0v3.6015h2.131501v-3.6015zm2.278501 0v3.6015h.6615a2.2050006 2.2050006 0 0 0  .000147 0 2.2050006 2.2050006 0 0 0  2.205-2.205 2.2050006 2.2050006 0 0 0 -.502298-1.3965h-2.364346zm3.454501 0v3.6015h2.1315v-3.6015zm2.2785 0v3.6015h.6615a2.2050006 2.2050006 0 0 0  .000147 0 2.2050006 2.2050006 0 0 0  2.205001-2.205 2.2050006 2.2050006 0 0 0 -.502298-1.3965h-2.364347z" fill="#333"/></g><g id="cover1" stroke="#4d4d4d"><rect id="rect4212" fill="#575d5e" height="81" rx="5" stroke-linecap="round" stroke-linejoin="round" stroke-width=".5" width="24" x="565.34998" y="83.299973"/><rect id="rect4214" fill="none" height="78" rx="3.5" stroke-linecap="round" stroke-linejoin="round" stroke-width=".5" width="21" x="566.84998" y="84.799973"/><g id="g4216" transform="matrix(.07350002 0 0 .07350002 568.28188 13.051337)"/><rect id="rect4218" fill="none" height="78" rx="3.5" stroke-linecap="round" stroke-linejoin="round" stroke-width=".5" width="21" x="566.84998" y="84.799973"/></g><g id="cover2" stroke="#4d4d4d"><rect id="rect4192" fill="#575d5e" height="81" rx="5" stroke-linecap="round" stroke-linejoin="round" stroke-width=".5" width="24" x="565.34998" y="586.39996"/><rect id="rect4194" fill="none" height="78" rx="3.5" stroke-linecap="round" stroke-linejoin="round" stroke-width=".5" width="21" x="566.84998" y="587.89996"/><g id="g4204" transform="matrix(.07350002 0 0 .07350002 568.28188 516.15136)"/><rect id="rect4208" fill="none" height="78" rx="3.5" stroke-linecap="round" stroke-linejoin="round" stroke-width=".5" width="21" x="566.84998" y="587.89996"/></g><text id="textBottom" line-height="125%" style="font-size:20;font-family:sans-serif;letter-spacing:0;word-spacing:0;text-anchor:middle;overflow:visible" x="297.20996" xml:space="preserve" y="729.14606"><tspan id="tspan4155-8" x="297.20996" y="729.14606">Text</tspan></text><text id="textTop" line-height="125%" style="font-size:20;font-family:sans-serif;letter-spacing:0;word-spacing:0;text-anchor:middle;overflow:visible" x="297.20996" xml:space="preserve" y="36.141083"><tspan id="tspan4653" x="297.20996" y="36.141083">Text</tspan></text></g></svg>