<svg id="svg2" height="220.8" overflow="visible" viewBox="0 0 1250.8 220.8" width="1250.8" xmlns="http://www.w3.org/2000/svg"><g id="layer1"><g id="N_renforcment" stroke-linecap="round" stroke-width=".80000001"><path id="path4159" d="m550 220v-217.999987h-32.5v-1.99999995h32.5 25 32.5v1.99999995h-32.5v217.999987zm12.5-43.40039a5 5 0 0 0 5-5 5 5 0 0 0 -5-5 5 5 0 0 0 -5 5 5 5 0 0 0  5 5z" fill="#c7c7c7" stroke="#000"/><path id="path4161" d="m552.5 211.59961c-2.77 0-5-2.23-5-5v-70c0-2.77 2.23-5 5-5h20c2.77 0 5 2.23 5 5v70c0 2.77-2.23 5-5 5zm9.75-5.85156a3.75 3.75 0 0 0 3.75-3.75 3.75 3.75 0 0 0 -3.75-3.75 3.75 3.75 0 0 0 -3.75 3.75 3.75 3.75 0 0 0  3.75 3.75zm.25-29.14844a5 5 0 0 0 5-5 5 5 0 0 0 -5-5 5 5 0 0 0 -5 5 5 5 0 0 0  5 5zm-.25-31.65039a3.75 3.75 0 0 0 3.75-3.75 3.75 3.75 0 0 0 -3.75-3.75 3.75 3.75 0 0 0 -3.75 3.75 3.75 3.75 0 0 0  3.75 3.75z" fill="#333" stroke="#000"/><path id="path4163" d="m562.25 204.26563l-.5664-1.28516-1.3965.15235.8301-1.13477-.8301-1.13281 1.3965.15234.5664-1.28515.5684 1.28515 1.3965-.15234-.8301 1.13281.8301 1.13477-1.3965-.15235zm0-60.80078l-.5664-1.28516-1.3965.15235.8301-1.13282-.8301-1.13476 1.3965.15234.5664-1.28515.5684 1.28515 1.3965-.15234-.8301 1.13476.8301 1.13282-1.3965-.15235z" fill="#808080" stroke="#808080"/></g><path id="PE_renforcment" d="m675 125.00001v-122.999997h-32.5v-1.99999995h32.5 25 32.5v1.99999995h-32.5v122.999997zm12.5-8.15039a2.75 2.75 0 0 0 2.75-2.75 2.75 2.75 0 0 0 -2.75-2.75 2.75 2.75 0 0 0 -2.75 2.75 2.75 2.75 0 0 0  2.75 2.75zm0-35.249997a5 5 0 0 0 5-5 5 5 0 0 0 -5-5 5 5 0 0 0 -5 5 5 5 0 0 0  5 5zm0-24.75a2.75 2.75 0 0 0 2.75-2.75 2.75 2.75 0 0 0 -2.75-2.75 2.75 2.75 0 0 0 -2.75 2.75 2.75 2.75 0 0 0  2.75 2.75z" fill="#c7c7c7" stroke="#000" stroke-linecap="round" stroke-width=".80000001"/><g id="neutral"><g id="brackets2_N" stroke-linecap="round"><rect id="rect4171" fill="#c7c7c7" height="95" rx="3" stroke="#000" stroke-width=".80000001" width="37.099998" x="1212.8999" y="124.09962"/><path id="path4173" d="m1217.75 211.59962c-2.77 0-5-2.23-5-5v-70c0-2.77 2.23-5 5-5h20c2.77 0 5 2.23 5 5v70c0 2.77-2.23 5-5 5zm9.75-5.84961a3.75 3.75 0 0 0 3.75-3.75 3.75 3.75 0 0 0 -3.75-3.75 3.75 3.75 0 0 0 -3.75 3.75 3.75 3.75 0 0 0  3.75 3.75zm0-60.80078a3.75 3.75 0 0 0 3.75-3.75 3.75 3.75 0 0 0 -3.75-3.75 3.75 3.75 0 0 0 -3.75 3.75 3.75 3.75 0 0 0  3.75 3.75z" fill="#333" stroke="#000" stroke-width=".5"/><path id="path4175" d="m1227.5 138.93237l-.5668 1.28541-1.3966-.15187.8298 1.13355-.8298 1.13356 1.3966-.15188.5668 1.2854.5668-1.2854 1.3965.15187-.8298-1.13356.8299-1.13353-1.3966.15185zm0 60.79993l-.5668 1.2854-1.3966-.15186.8298 1.13355-.8298 1.13356 1.3966-.15188.5668 1.2854.5668-1.2854 1.3965.15187-.8298-1.13356.8298-1.13353-1.3966.15185z" fill="#808080"/></g><g id="brackets1_N" stroke-linecap="round"><rect id="rect4179" fill="#c7c7c7" height="95" rx="3" stroke="#000" stroke-width=".80000001" width="37.099998" x=".00003359" y="124.09962"/><path id="path4181" d="m12.25 211.59962c-2.77 0-5-2.23-5-5v-70c0-2.77 2.23-5 5-5h20c2.77 0 5 2.23 5 5v70c0 2.77-2.23 5-5 5zm10.25-5.84961a3.75 3.75 0 0 0 3.75-3.75 3.75 3.75 0 0 0 -3.75-3.75 3.75 3.75 0 0 0 -3.75 3.75 3.75 3.75 0 0 0  3.75 3.75zm0-60.80078a3.75 3.75 0 0 0 3.75-3.75 3.75 3.75 0 0 0 -3.75-3.75 3.75 3.75 0 0 0 -3.75 3.75 3.75 3.75 0 0 0  3.75 3.75z" fill="#333" stroke="#000" stroke-width=".5"/><path id="path4183" d="m22.5 138.93237l-.5668 1.28541-1.3966-.15187.8299 1.13355-.8298 1.13356 1.3965-.15188.5668 1.2854.5668-1.2854 1.3966.15187-.8299-1.13356.8299-1.13353-1.3966.15185zm0 60.79993l-.5668 1.2854-1.3966-.15186.8299 1.13355-.8298 1.13356 1.3965-.15188.5668 1.2854.5668-1.2854 1.3966.15187-.8299-1.13356.8299-1.13353-1.3966.15185z" fill="#808080"/></g><rect id="N" fill="#c6782e" fill-rule="evenodd" height="30" stroke="#000" stroke-linecap="square" stroke-width=".80000007" width="1250" y="156.60001"/></g><g id="earth" stroke="#000"><path id="brackets1_PE" d="m3 124.09962c-1.662 0-3-1.338-3-3v-88.999997c0-1.662 1.338-3 3-3h31.0996c1.662 0 3 1.338 3 3v88.999997c0 1.662-1.338 3-3 3zm19.5-14.59961a2.5 2.5 0 0 0 2.5-2.5 2.5 2.5 0 0 0 -2.5-2.5 2.5 2.5 0 0 0 -2.5 2.5 2.5 2.5 0 0 0  2.5 2.5zm0-28.150387a4.75 4.75 0 0 0 4.75-4.75 4.75 4.75 0 0 0 -4.75-4.75 4.75 4.75 0 0 0 -4.75 4.75 4.75 4.75 0 0 0  4.75 4.75zm0-32.65039a2.5 2.5 0 0 0 2.5-2.5 2.5 2.5 0 0 0 -2.5-2.5 2.5 2.5 0 0 0 -2.5 2.5 2.5 2.5 0 0 0  2.5 2.5z" fill="#c7c7c7" stroke-linecap="round" stroke-width=".80000001"/><path id="brackets2_PE" d="m1215.9004 124.09962c-1.662 0-3-1.338-3-3v-88.999997c0-1.662 1.338-3 3-3h31.0996c1.662 0 3 1.338 3 3v88.999997c0 1.662-1.338 3-3 3zm11.5996-14.59961a2.5 2.5 0 0 0 2.5-2.5 2.5 2.5 0 0 0 -2.5-2.5 2.5 2.5 0 0 0 -2.5 2.5 2.5 2.5 0 0 0  2.5 2.5zm0-28.150387a4.75 4.75 0 0 0 4.75-4.75 4.75 4.75 0 0 0 -4.75-4.75 4.75 4.75 0 0 0 -4.75 4.75 4.75 4.75 0 0 0  4.75 4.75zm0-32.65039a2.5 2.5 0 0 0 2.5-2.5 2.5 2.5 0 0 0 -2.5-2.5 2.5 2.5 0 0 0 -2.5 2.5 2.5 2.5 0 0 0  2.5 2.5z" fill="#c7c7c7" stroke-linecap="round" stroke-width=".80000001"/><rect id="PE" fill="#c6782e" fill-rule="evenodd" height="40" stroke-linecap="square" stroke-width=".80000007" width="1250" x=".00003359" y="56.599625"/></g><rect id="CEP" fill="#c6782e" fill-rule="evenodd" height="130" stroke="#000" stroke-linecap="square" stroke-width=".80000007" width="60" x="220" y="56.599998"/></g></svg>