<svg id="svg2" height="220.8" overflow="visible" viewBox="0 0 1250.8 220.8" width="1250.8" xmlns="http://www.w3.org/2000/svg"><g id="layer1"><g id="N_renforcment" stroke-linecap="round" stroke-width=".80000001"><path id="rect4212" d="m550.00001.00000505v217.99999495h-32.5v2h32.5 25 32.5v-2h-32.5v-217.99999495zm12.5 43.40038995a5 5 0 0 1 5 5 5 5 0 0 1 -5 5 5 5 0 0 1 -5-5 5 5 0 0 1  5-5z" fill="#c7c7c7" stroke="#000"/><path id="rect4241-2" d="m552.50001 8.400395c-2.77 0-5 2.23-5 5v70c0 2.77 2.23 5 5 5h20c2.77 0 5-2.23 5-5v-70c0-2.77-2.23-5-5-5zm9.75 5.851563a3.75 3.75 0 0 1 3.75 3.75 3.75 3.75 0 0 1 -3.75 3.75 3.75 3.75 0 0 1 -3.75-3.75 3.75 3.75 0 0 1  3.75-3.75zm.25 29.148437a5 5 0 0 1 5 5 5 5 0 0 1 -5 5 5 5 0 0 1 -5-5 5 5 0 0 1  5-5zm-.25 31.650391a3.75 3.75 0 0 1 3.75 3.75 3.75 3.75 0 0 1 -3.75 3.75 3.75 3.75 0 0 1 -3.75-3.75 3.75 3.75 0 0 1  3.75-3.75z" fill="#333" stroke="#000"/><path id="path4328-2" d="m562.25001 15.73438l-.56641 1.285156-1.39648-.152344.83008 1.134766-.83008 1.132812 1.39648-.152343.56641 1.285156.56836-1.285156 1.39649.152343-.83008-1.132812.83008-1.134766-1.39649.152344zm0 60.800781l-.56641 1.285156-1.39648-.152344.83008 1.132813-.83008 1.134766 1.39648-.152344.56641 1.285156.56836-1.285156 1.39649.152344-.83008-1.134766.83008-1.132813-1.39649.152344z" fill="#808080" stroke="#808080"/></g><path id="PE_renforcment" d="m675.00001 95.000005v122.999995h-32.5v2h32.5 25 32.5v-2h-32.5v-122.999995zm12.5 8.150385a2.75 2.75 0 0 1 2.75 2.75 2.75 2.75 0 0 1 -2.75 2.75 2.75 2.75 0 0 1 -2.75-2.75 2.75 2.75 0 0 1  2.75-2.75zm0 35.25a5 5 0 0 1 5 5 5 5 0 0 1 -5 5 5 5 0 0 1 -5-5 5 5 0 0 1  5-5zm0 24.75a2.75 2.75 0 0 1 2.75 2.75 2.75 2.75 0 0 1 -2.75 2.75 2.75 2.75 0 0 1 -2.75-2.75 2.75 2.75 0 0 1  2.75-2.75z" fill="#c7c7c7" stroke="#000" stroke-linecap="round" stroke-width=".80000001"/><g id="neutral"><g id="brackets2_N" stroke-linecap="round"><rect id="rect4191" fill="#c7c7c7" height="95" rx="3" stroke="#000" stroke-width=".80000001" transform="scale(-1 1)" width="37.099998" x="-1250" y=".90039277"/><path id="rect4241" d="m1217.75 8.4003906c-2.77 0-5 2.2300004-5 5.0000004v70c0 2.77 2.23 5 5 5h20c2.77 0 5-2.23 5-5v-70c0-2.77-2.23-5.0000004-5-5.0000004zm9.75 5.8496094a3.75 3.75 0 0 1 3.75 3.75 3.75 3.75 0 0 1 -3.75 3.75 3.75 3.75 0 0 1 -3.75-3.75 3.75 3.75 0 0 1  3.75-3.75zm0 60.800781a3.75 3.75 0 0 1 3.75 3.75 3.75 3.75 0 0 1 -3.75 3.75 3.75 3.75 0 0 1 -3.75-3.75 3.75 3.75 0 0 1  3.75-3.75z" fill="#333" stroke="#000" stroke-width=".5"/><path id="path4330" d="m1227.5 81.067639l-.5668-1.285405-1.3966.151867.8298-1.133552-.8298-1.13356 1.3966.151879.5668-1.285403.5668 1.285405 1.3965-.151869-.8298 1.133555.8299 1.133535-1.3966-.151855zm0-60.799929l-.5668-1.285405-1.3966.151867.8298-1.133552-.8298-1.13356 1.3966.151879.5668-1.285403.5668 1.285405 1.3965-.151869-.8298 1.133555.8298 1.133535-1.3966-.151855z" fill="#808080"/></g><g id="brackets1_N" stroke-linecap="round"><rect id="rect4175" fill="#c7c7c7" height="95" rx="3" stroke="#000" stroke-width=".80000001" width="37.099998" x=".00000767" y=".90039277"/><path id="rect4284" d="m12.25 8.4003906c-2.7699999 0-5 2.2300004-5 5.0000004v70c0 2.77 2.2300001 5 5 5h20c2.77 0 5-2.23 5-5v-70c0-2.77-2.23-5.0000004-5-5.0000004zm10.25 5.8496094a3.75 3.75 0 0 1 3.75 3.75 3.75 3.75 0 0 1 -3.75 3.75 3.75 3.75 0 0 1 -3.75-3.75 3.75 3.75 0 0 1  3.75-3.75zm0 60.800781a3.75 3.75 0 0 1 3.75 3.75 3.75 3.75 0 0 1 -3.75 3.75 3.75 3.75 0 0 1 -3.75-3.75 3.75 3.75 0 0 1  3.75-3.75z" fill="#333" stroke="#000" stroke-width=".5"/><path id="path4324" d="m22.500007 81.067639l-.56678-1.285405-1.396589.151867.829819-1.133552-.829802-1.13356 1.396577.151879.566763-1.285403.56678 1.285405 1.396591-.151869-.829821 1.133555.829826 1.133535-1.396601-.151855zm-.000001-60.799929l-.56678-1.285405-1.396589.151867.829819-1.133552-.829802-1.13356 1.396577.151879.566763-1.285403.56678 1.285405 1.396591-.151869-.829821 1.133555.829826 1.133535-1.396601-.151855z" fill="#808080"/></g><rect id="N" fill="#c6782e" fill-rule="evenodd" height="30" stroke="#000" stroke-linecap="square" stroke-width=".80000007" width="1250" y="33.400002"/></g><g id="earth" stroke="#000"><path id="brackets1_PE" d="m3 95.900391c-1.662 0-3 1.338-3 3v88.999999c0 1.662 1.338 3 3 3h31.099609c1.662 0 3-1.338 3-3v-88.999999c0-1.662-1.338-3-3-3zm19.5 14.599609a2.5 2.5 0 0 1 2.5 2.5 2.5 2.5 0 0 1 -2.5 2.5 2.5 2.5 0 0 1 -2.5-2.5 2.5 2.5 0 0 1  2.5-2.5zm0 28.15039a4.75 4.75 0 0 1 4.75 4.75 4.75 4.75 0 0 1 -4.75 4.75 4.75 4.75 0 0 1 -4.75-4.75 4.75 4.75 0 0 1  4.75-4.75zm0 32.65039a2.5 2.5 0 0 1 2.5 2.5 2.5 2.5 0 0 1 -2.5 2.5 2.5 2.5 0 0 1 -2.5-2.5 2.5 2.5 0 0 1  2.5-2.5z" fill="#c7c7c7" stroke-linecap="round" stroke-width=".80000001"/><path id="brackets2_PE" d="m1215.9004 95.900391c-1.662 0-3 1.338-3 3v88.999999c0 1.662 1.338 3 3 3h31.0996c1.662 0 3-1.338 3-3v-88.999999c0-1.662-1.338-3-3-3zm11.5996 14.599609a2.5 2.5 0 0 1 2.5 2.5 2.5 2.5 0 0 1 -2.5 2.5 2.5 2.5 0 0 1 -2.5-2.5 2.5 2.5 0 0 1  2.5-2.5zm0 28.15039a4.75 4.75 0 0 1 4.75 4.75 4.75 4.75 0 0 1 -4.75 4.75 4.75 4.75 0 0 1 -4.75-4.75 4.75 4.75 0 0 1  4.75-4.75zm0 32.65039a2.5 2.5 0 0 1 2.5 2.5 2.5 2.5 0 0 1 -2.5 2.5 2.5 2.5 0 0 1 -2.5-2.5 2.5 2.5 0 0 1  2.5-2.5z" fill="#c7c7c7" stroke-linecap="round" stroke-width=".80000001"/><rect id="PE" fill="#c6782e" fill-rule="evenodd" height="40" stroke-linecap="square" stroke-width=".80000007" width="1250" y="123.39999"/></g><rect id="CEP" fill="#c6782e" fill-rule="evenodd" height="130" stroke="#000" stroke-linecap="square" stroke-width=".80000007" width="60" x="220" y="33.400002"/></g></svg>