<svg id="svg2" height="700.80005" overflow="visible" viewBox="0 0 1250.8002 700.80003" width="1250.8003" xmlns="http://www.w3.org/2000/svg"><g id="layer1"><rect id="R2" fill="#c5c7c3" fill-opacity=".70588237" height="666" stroke="#808080" stroke-linecap="round" stroke-width=".8" width="1233" x="17" y="34"/><rect id="R3" fill="#c5c7c3" fill-opacity=".70588237" height="34" stroke="#808080" stroke-linecap="round" stroke-width=".80000001" width="1250"/><rect id="R4" fill="none" height="666" stroke="#808080" stroke-linecap="round" stroke-width=".80000001" width="1165" x="39" y="34"/><rect id="R1" fill="#c5c7c3" fill-opacity=".70588237" height="666" stroke="#808080" stroke-width=".80000001" width="10" y="34"/><g id="hinge1" stroke-width=".80000001"><path id="path4282" d="m17.500102 58.999989h-7.9999996v12h7.9999996zm0 12h-7.9999996v12h7.9999996zm0 12h-7.9999996v12h7.9999996zm2.2499-14.84344a4.75 4.75 0 0 0 4.75 4.75 4.75 4.75 0 0 0  4.75-4.75 4.75 4.75 0 0 0 -4.75-4.75 4.75 4.75 0 0 0 -4.75 4.75zm0 17.68676a4.75 4.75 0 0 0 4.75 4.75 4.75 4.75 0 0 0  4.75-4.75 4.75 4.75 0 0 0 -4.75-4.75 4.75 4.75 0 0 0 -4.75 4.75zm12.2501-26.84332h-15v36h15zm-29.5000996 4.40631a4.75 4.75 0 0 1 4.75 4.75 4.75 4.75 0 0 1 -4.75 4.75 4.75 4.75 0 0 1 -2.50000004-.71484v-8.06641a4.75 4.75 0 0 1 2.50000004-.71875zm0 17.6875a4.75 4.75 0 0 1 4.75 4.75 4.75 4.75 0 0 1 -4.75 4.75 4.75 4.75 0 0 1 -2.50000004-.7168v-8.0664a4.75 4.75 0 0 1 2.50000004-.7168zm7.4999996-22.09375v36h-9.99999964v-36z" fill="#e0e0e0" stroke="#808080"/><path id="path4284" d="m21.750002 69.744219l2.75 1.58771 2.75-1.58771v-3.17543l-2.75-1.58771-2.75 1.58771zm0 17.68681l2.75 1.58771 2.75-1.58771v-3.17543l-2.75-1.58771-2.75 1.58771zm-21.99989964-17.68681l2.75000004 1.58771 2.75-1.58771v-3.17543l-2.75-1.58771-2.75000004 1.58771zm0 17.68681l2.75000004 1.58771 2.75-1.58771v-3.17543l-2.75-1.58771-2.75000004 1.58771z" fill="#808080"/></g><g id="hinge2" stroke-width=".80000001"><path id="path4226" d="m17.500102 638.99999h-7.9999996v12h7.9999996zm0 12h-7.9999996v12h7.9999996zm0 12h-7.9999996v12h7.9999996zm2.2499-14.84344a4.75 4.75 0 0 0 4.75 4.75 4.75 4.75 0 0 0  4.75-4.75 4.75 4.75 0 0 0 -4.75-4.75 4.75 4.75 0 0 0 -4.75 4.75zm0 17.68676a4.75 4.75 0 0 0 4.75 4.75 4.75 4.75 0 0 0  4.75-4.75 4.75 4.75 0 0 0 -4.75-4.75 4.75 4.75 0 0 0 -4.75 4.75zm12.2501-26.84332h-15v36h15zm-29.5000996 4.40631a4.75 4.75 0 0 1 4.75 4.75 4.75 4.75 0 0 1 -4.75 4.75 4.75 4.75 0 0 1 -2.50000004-.71484v-8.06641a4.75 4.75 0 0 1 2.50000004-.71875zm0 17.6875a4.75 4.75 0 0 1 4.75 4.75 4.75 4.75 0 0 1 -4.75 4.75 4.75 4.75 0 0 1 -2.50000004-.7168v-8.0664a4.75 4.75 0 0 1 2.50000004-.7168zm7.4999996-22.09375v36h-9.99999964v-36z" fill="#e0e0e0" stroke="#808080"/><path id="path4419" d="m21.750002 649.74423l2.75 1.58771 2.75-1.58771v-3.17543l-2.75-1.58771-2.75 1.58771zm0 17.68681l2.75 1.58771 2.75-1.58771v-3.17543l-2.75-1.58771-2.75 1.58771zm-21.99989964-17.68681l2.75000004 1.58771 2.75-1.58771v-3.17543l-2.75-1.58771-2.75000004 1.58771zm0 17.68681l2.75000004 1.58771 2.75-1.58771v-3.17543l-2.75-1.58771-2.75000004 1.58771z" fill="#808080"/></g></g></svg>