<svg id="svg2" height="1000" overflow="visible" viewBox="0 0 400 1000" width="400" xmlns="http://www.w3.org/2000/svg"><g id="layer1" fill-rule="evenodd" stroke="#000" stroke-linecap="round" stroke-linejoin="round"><rect id="blindPanel" fill="#c5c7c4" fill-rule="nonzero" height="999" stroke="#000" stroke-linecap="round" stroke-linejoin="miter" width="399"/><rect id="cutOut" fill="#fff" height="760" width="160" x="119.5" y="119.5"/><g id="screwLT"><circle id="circle4569" cx="28.5" cy="28.499901" fill="#ebebeb" r="6.5"/><path id="path4571" d="m30.518 32.1509l-1.96-1.936-2.009 2.008-1.766-1.758 2.002-1.993-2.008-1.977 1.739-1.718 1.962 1.972 1.974-1.944 1.715 1.741-1.905 1.929 1.961 1.958z" fill="#c0c0c0"/></g><g id="screwLB"><circle id="circle4575" cx="28.5" cy="970.49988" fill="#ebebeb" r="6.5"/><path id="path4577" d="m30.518 974.14986l-1.96-1.93-2.009 2-1.766-1.75 2.002-2-2.008-1.97 1.739-1.72 1.962 1.97 1.974-1.94 1.715 1.74-1.905 1.93 1.961 1.95z" fill="#c0c0c0"/></g><g id="screwRT"><circle id="circle4641" cx="370.5" cy="28.499901" fill="#ebebeb" r="6.5"/><path id="path4643" d="m372.5 32.1509l-1.9-1.936-2.1 2.008-1.7-1.758 2-1.993-2-1.977 1.7-1.718 2 1.972 2-1.944 1.7 1.741-1.9 1.929 1.9 1.958z" fill="#c0c0c0"/></g><g id="screwRB"><circle id="circle4647" cx="370.5" cy="970.49988" fill="#ebebeb" r="6.5"/><path id="path4649" d="m372.5 974.14986l-1.9-1.93-2.1 2-1.7-1.75 2-2-2-1.97 1.7-1.72 2 1.97 2-1.94 1.7 1.74-1.9 1.93 1.9 1.95z" fill="#c0c0c0"/></g></g></svg>