<svg id="svg2" height="591.79999" overflow="visible" viewBox="0 0 349.8 591.79995" width="349.79999" xmlns="http://www.w3.org/2000/svg"><g id="layer1"><g id="kit150"><path id="drawer150" d="m6.000004 432.2805v-262h136.999996v262zm12.5-15.59961h111.999996v-50h-111.999996zm-15.5 133.31927v-508.99998h142.999996v508.99998zm15.5-134.09961h111.999996v-48.5h-111.999996z" fill="#e0e0e0" stroke="#000" stroke-linecap="round" stroke-width=".80000001"/><g id="3P-150" fill-rule="evenodd" stroke="#000" stroke-linecap="square" stroke-width=".80000001"><path id="C1-8-7" d="m52.000004 373.30048v-25h20v25zm25 0v-25h20v25zm24.999996 0v-25h20v25z" fill="#c6782e"/><path id="rect5198-9" d="m52.000004 398.30048v-25h20v25zm25 0v-25h20v25zm24.999996 0v-25h20v25z" fill="#333"/></g><g id="4P-150" fill-rule="evenodd" stroke="#000" stroke-linecap="square" stroke-width=".80000001"><path id="rect5329" d="m27.000027 373.27659h20v-25h-20z" fill="#c6782e"/><path id="rect5331" d="m27.000027 398.27653h20v-25h-20z" fill="#333"/></g><path id="sideShelf150" d="m142.4961 579.19845h-15v5h15zm-20.5605 2.5a2.25 2.25 0 0 0 -2.25-2.25 2.25 2.25 0 0 0 -2.25 2.25 2.25 2.25 0 0 0  2.25 2.25 2.25 2.25 0 0 0  2.25-2.25zm-6.6153 0a3.25 3.25 0 0 0 -3.25-3.25 3.25 3.25 0 0 0 -3.25 3.25 3.25 3.25 0 0 0  3.25 3.25 3.25 3.25 0 0 0  3.25-3.25zm-8.6172 0a2.25 2.25 0 0 0 -2.25-2.25 2.25 2.25 0 0 0 -2.25 2.25 2.25 2.25 0 0 0  2.25 2.25 2.25 2.25 0 0 0  2.25-2.25zm-9.703096-20.54883h-45v30h45zm-50.2031 20.54883a2.25 2.25 0 0 0 -2.25-2.25 2.25 2.25 0 0 0 -2.25 2.25 2.25 2.25 0 0 0  2.25 2.25 2.25 2.25 0 0 0  2.25-2.25zm-6.6172 0a3.25 3.25 0 0 0 -3.25-3.25 3.25 3.25 0 0 0 -3.25 3.25 3.25 3.25 0 0 0  3.25 3.25 3.25 3.25 0 0 0  3.25-3.25zm-8.6152 0a2.25 2.25 0 0 0 -2.25-2.25 2.25 2.25 0 0 0 -2.25 2.25 2.25 2.25 0 0 0  2.25 2.25 2.25 2.25 0 0 0  2.25-2.25zm-10.0606-2.5h-15v5h15zm-18.503938 11.95117h142.999994v-40.5h-142.999994zm139.496134-579.34893h-15v-5h15zm-20.5605-2.5a2.25 2.25 0 0 1 -2.25 2.25 2.25 2.25 0 0 1 -2.25-2.25 2.25 2.25 0 0 1  2.25-2.25 2.25 2.25 0 0 1  2.25 2.25zm-6.6153 0a3.25 3.25 0 0 1 -3.25 3.25 3.25 3.25 0 0 1 -3.25-3.25 3.25 3.25 0 0 1  3.25-3.25 3.25 3.25 0 0 1  3.25 3.25zm-8.6172 0a2.25 2.25 0 0 1 -2.25 2.25 2.25 2.25 0 0 1 -2.25-2.25 2.25 2.25 0 0 1  2.25-2.25 2.25 2.25 0 0 1  2.25 2.25zm-9.703096 20.54883h-45v-30h45zm-50.2031-20.54883a2.25 2.25 0 0 1 -2.25 2.25 2.25 2.25 0 0 1 -2.25-2.25 2.25 2.25 0 0 1  2.25-2.25 2.25 2.25 0 0 1  2.25 2.25zm-6.6172 0a3.25 3.25 0 0 1 -3.25 3.25 3.25 3.25 0 0 1 -3.25-3.25 3.25 3.25 0 0 1  3.25-3.25 3.25 3.25 0 0 1  3.25 3.25zm-8.6152 0a2.25 2.25 0 0 1 -2.25 2.25 2.25 2.25 0 0 1 -2.25-2.25 2.25 2.25 0 0 1  2.25-2.25 2.25 2.25 0 0 1  2.25 2.25zm-10.0606 2.5h-15v-5h15zm-18.503938-11.95117h142.999994v40.5h-142.999994z" fill="#e0e0e0" stroke="#000" stroke-linecap="round" stroke-width=".49999982"/><path id="sparePlate150" d="m3.000004 40.99986v509h142.999996v-509zm24 46.99805a17.5 17.5 0 0 1 17.5 17.5 17.5 17.5 0 0 1 -17.5 17.5 17.5 17.5 0 0 1 -17.5-17.5 17.5 17.5 0 0 1  17.5-17.5zm0 2.25a15.25 15.25 0 0 0 -15.25 15.25 15.25 15.25 0 0 0  15.25 15.25 15.25 15.25 0 0 0  15.25-15.25 15.25 15.25 0 0 0 -15.25-15.25zm66 20.25195a3 3 0 0 1 3 3 3 3 0 0 1 -3 3 3 3 0 0 1 -3-3 3 3 0 0 1  3-3zm31.999996 0a3 3 0 0 1 3 3 3 3 0 0 1 -3 3 3 3 0 0 1 -3-3 3 3 0 0 1  3-3zm-31.999996 97.5a3 3 0 0 1 3 3 3 3 0 0 1 -3 3 3 3 0 0 1 -3-3 3 3 0 0 1  3-3zm31.999996 0a3 3 0 0 1 3 3 3 3 0 0 1 -3 3 3 3 0 0 1 -3-3 3 3 0 0 1  3-3zm-31.999996 87.5a3 3 0 0 1 3 3 3 3 0 0 1 -3 3 3 3 0 0 1 -3-3 3 3 0 0 1  3-3zm31.999996 0a3 3 0 0 1 3 3 3 3 0 0 1 -3 3 3 3 0 0 1 -3-3 3 3 0 0 1  3-3zm-31.999996 87.5a3 3 0 0 1 3 3 3 3 0 0 1 -3 3 3 3 0 0 1 -3-3 3 3 0 0 1  3-3zm31.999996 0a3 3 0 0 1 3 3 3 3 0 0 1 -3 3 3 3 0 0 1 -3-3 3 3 0 0 1  3-3zm-97.999996 84.99805a17.5 17.5 0 0 1 17.5 17.5 17.5 17.5 0 0 1 -17.5 17.5 17.5 17.5 0 0 1 -17.5-17.5 17.5 17.5 0 0 1  17.5-17.5zm0 2.25a15.25 15.25 0 0 0 -15.25 15.25 15.25 15.25 0 0 0  15.25 15.25 15.25 15.25 0 0 0  15.25-15.25 15.25 15.25 0 0 0 -15.25-15.25zm66 10.25195a3 3 0 0 1 3 3 3 3 0 0 1 -3 3 3 3 0 0 1 -3-3 3 3 0 0 1  3-3zm31.999996 0a3 3 0 0 1 3 3 3 3 0 0 1 -3 3 3 3 0 0 1 -3-3 3 3 0 0 1  3-3z" fill="#e0e0e0" stroke="#000" stroke-linecap="round" stroke-width=".80000001"/><g id="DrawerHandle_150" fill="#e0e0e0" stroke="#000" stroke-linecap="round" stroke-width=".5"><path id="rect5214" d="m3.0000041 523.1496h142.9999959v27h-142.9999959zm0-455.300075h142.9999959v-27h-142.9999959z"/><path id="rect5212" d="m18.000004 499.55021v68.59962h112.999996v-68.59962zm21.5 27.09962h69.999996c5.54 0 10 4.46 10 10 0 5.54-4.46 10-10 10h-69.999996c-5.54 0-10-4.46-10-10 0-5.54 4.46-10 10-10zm-21.5-435.2v-68.59958h112.999996v68.59958zm21.5-27.0996h69.999996c5.54 0 10-4.46 10-10 0-5.54-4.46-10-10-10h-69.999996c-5.54 0-10 4.46-10 10 0 5.54 4.46 10 10 10z"/></g><path id="cutoutXT1" d="m .000004-.0001v590.99994h148.999996v-590.99994zm21.5 268h105.999996v55h-105.999996z" fill="#c5c7c4" fill-opacity=".8" stroke="#808080" stroke-linecap="round" stroke-width=".80000001"/><path id="motorXT1" d="m .000004-.00016v591h148.999996v-591zm43.09961 241.5h86.999996v108h-86.999996z" fill="#c5c7c4" fill-opacity=".8" stroke="#808080" stroke-linecap="round" stroke-width=".80000001"/><path id="cutoutXT2" d="m .000004-.00016v591h148.999996v-591zm27.5 254h93.999996v83h-93.999996z" fill="#c5c7c4" fill-opacity=".8" stroke="#808080" stroke-linecap="round" stroke-width=".80000001"/><path id="motorXT2" d="m .000004-.00016v591h148.999996v-591zm23.59961 250h100.999996v91h-100.999996z" fill="#c5c7c4" fill-opacity=".8" stroke="#808080" stroke-linecap="round" stroke-width=".80000001"/><path id="cutoutXT3" d="m .000004-.00016v591h148.999996v-591zm19.5 273h109.999996v45h-109.999996z" fill="#c5c7c4" fill-opacity=".8" stroke="#808080" stroke-linecap="round" stroke-width=".80000001"/><path id="motorXT3" d="m .000004-.00016v591h148.999996v-591zm31 241.5h86.999996v108h-86.999996z" fill="#c5c7c4" fill-opacity=".8" stroke="#808080" stroke-linecap="round" stroke-width=".80000001"/><path id="cutoutXT4" d="m .000004-.00016v591h148.999996v-591zm19.5 247h109.999996v97h-109.999996z" fill="#c5c7c4" fill-opacity=".8" stroke="#808080" stroke-linecap="round" stroke-width=".80000001"/><path id="motorXT4" d="m .000004-.00016v591h148.999996v-591zm24 250h100.999996v91h-100.999996z" fill="#c5c7c4" fill-opacity=".8" stroke="#808080" stroke-linecap="round" stroke-width=".80000001"/></g><g id="kit200"><path id="drawer200" d="m6.000004 425.99881v-250h186.999996v250zm30-9.59961h126.999996v-50h-126.999996zm-33 133.20027v-509h192.999996v509zm33-133.90039h126.999996v-48.5h-126.999996z" fill="#e0e0e0" stroke="#000" stroke-linecap="round" stroke-width=".80000001"/><g id="3P-200" fill-rule="evenodd" stroke="#000" stroke-linecap="square" stroke-width=".80000001"><path id="C1-8-9-4" d="m77.000004 372.89908v-25h20v25zm24.998046 0v-25h20v25zm25 0v-25h20v25z" fill="#c6782e"/><path id="rect5198-2-6" d="m77.000004 397.89908v-25h20v25zm24.998046 0v-25h20v25zm25 0v-25h20v25z" fill="#333"/></g><g id="4P-200" fill-rule="evenodd" stroke="#000" stroke-linecap="square" stroke-width=".80000001"><path id="rect5329-5" d="m52.000004 372.89881h20v-25h-20z" fill="#c6782e"/><path id="rect5331-1" d="m52.000004 397.89875h20v-25h-20z" fill="#333"/></g><path id="sparePlate200" d="m3.000004 40.99978v509h192.999996v-509zm33.49805 29.5c13.80712 0 25 11.19288 25 25 0 13.80712-11.19288 25-25 25-13.80712 0-25-11.19288-25-25 0-13.80712 11.19288-25 25-25zm0 2.25c-12.56448 0-22.75 10.18552-22.75 22.75 0 12.56448 10.18552 22.75 22.75 22.75 12.56448 0 22.75-10.18552 22.75-22.75 0-12.56448-10.18552-22.75-22.75-22.75zm106.501946 34.75a3 3 0 0 1 3 3 3 3 0 0 1 -3 3 3 3 0 0 1 -3-3 3 3 0 0 1  3-3zm32 0a3 3 0 0 1 3 3 3 3 0 0 1 -3 3 3 3 0 0 1 -3-3 3 3 0 0 1  3-3zm-32 97.5a3 3 0 0 1 3 3 3 3 0 0 1 -3 3 3 3 0 0 1 -3-3 3 3 0 0 1  3-3zm32 0a3 3 0 0 1 3 3 3 3 0 0 1 -3 3 3 3 0 0 1 -3-3 3 3 0 0 1  3-3zm-32 87.5a3 3 0 0 1 3 3 3 3 0 0 1 -3 3 3 3 0 0 1 -3-3 3 3 0 0 1  3-3zm32 0a3 3 0 0 1 3 3 3 3 0 0 1 -3 3 3 3 0 0 1 -3-3 3 3 0 0 1  3-3zm-32 87.5a3 3 0 0 1 3 3 3 3 0 0 1 -3 3 3 3 0 0 1 -3-3 3 3 0 0 1  3-3zm32 0a3 3 0 0 1 3 3 3 3 0 0 1 -3 3 3 3 0 0 1 -3-3 3 3 0 0 1  3-3zm-138.501946 90.5c13.80712 0 25 11.19288 25 25 0 13.80712-11.19288 25-25 25-13.80712 0-25-11.19288-25-25 0-13.80712 11.19288-25 25-25zm0 2.25c-12.56448 0-22.75 10.18552-22.75 22.75 0 12.56448 10.18552 22.75 22.75 22.75 12.56448 0 22.75-10.18552 22.75-22.75 0-12.56448-10.18552-22.75-22.75-22.75zm106.501946 4.75a3 3 0 0 1 3 3 3 3 0 0 1 -3 3 3 3 0 0 1 -3-3 3 3 0 0 1  3-3zm32 0a3 3 0 0 1 3 3 3 3 0 0 1 -3 3 3 3 0 0 1 -3-3 3 3 0 0 1  3-3z" fill="#e0e0e0" overflow="visible" stroke="#000" stroke-linecap="round" stroke-width=".80000001"/><path id="sideShelf200" d="m167.4961 579.19869h-15v5h15zm-20.5605 2.5c0-1.24264-1.00736-2.25-2.25-2.25-1.24264 0-2.25 1.00736-2.25 2.25 0 1.24264 1.00736 2.25 2.25 2.25 1.24264 0 2.25-1.00736 2.25-2.25zm-6.6153 0c0-1.79493-1.45507-3.25-3.25-3.25-1.79493 0-3.25 1.45507-3.25 3.25 0 1.79493 1.45507 3.25 3.25 3.25 1.79493 0 3.25-1.45507 3.25-3.25zm-8.6172 0c0-1.24264-1.00736-2.25-2.25-2.25-1.24264 0-2.25 1.00736-2.25 2.25 0 1.24264 1.00736 2.25 2.25 2.25 1.24264 0 2.25-1.00736 2.25-2.25zm-9.7031-20.54883h-44.999996v30h44.999996zm-50.203096 20.54883c0-1.24264-1.00736-2.25-2.25-2.25-1.24264 0-2.25 1.00736-2.25 2.25 0 1.24264 1.00736 2.25 2.25 2.25 1.24264 0 2.25-1.00736 2.25-2.25zm-6.6172 0c0-1.79493-1.45507-3.25-3.25-3.25-1.79493 0-3.25 1.45507-3.25 3.25 0 1.79493 1.45507 3.25 3.25 3.25 1.79493 0 3.25-1.45507 3.25-3.25zm-8.6152 0c0-1.24264-1.00736-2.25-2.25-2.25-1.24264 0-2.25 1.00736-2.25 2.25 0 1.24264 1.00736 2.25 2.25 2.25 1.24264 0 2.25-1.00736 2.25-2.25zm-10.0606-2.5h-15v5h15zm-43.5039 11.95117h192.999996v-40.5h-192.999996zm164.496096-579.34883h-15v-5h15zm-20.5605-2.5c0 1.24264-1.00736 2.25-2.25 2.25-1.24264 0-2.25-1.00736-2.25-2.25 0-1.24264 1.00736-2.25 2.25-2.25 1.24264 0 2.25 1.00736 2.25 2.25zm-6.6153 0c0 1.79493-1.45507 3.25-3.25 3.25-1.79493 0-3.25-1.45507-3.25-3.25 0-1.79493 1.45507-3.25 3.25-3.25 1.79493 0 3.25 1.45507 3.25 3.25zm-8.6172 0c0 1.24264-1.00736 2.25-2.25 2.25-1.24264 0-2.25-1.00736-2.25-2.25 0-1.24264 1.00736-2.25 2.25-2.25 1.24264 0 2.25 1.00736 2.25 2.25zm-9.7031 20.54883h-44.999996v-30h44.999996zm-50.203096-20.54883c0 1.24264-1.00736 2.25-2.25 2.25-1.24264 0-2.25-1.00736-2.25-2.25 0-1.24264 1.00736-2.25 2.25-2.25 1.24264 0 2.25 1.00736 2.25 2.25zm-6.6172 0c0 1.79493-1.45507 3.25-3.25 3.25-1.79493 0-3.25-1.45507-3.25-3.25 0-1.79493 1.45507-3.25 3.25-3.25 1.79493 0 3.25 1.45507 3.25 3.25zm-8.6152 0c0 1.24264-1.00736 2.25-2.25 2.25-1.24264 0-2.25-1.00736-2.25-2.25 0-1.24264 1.00736-2.25 2.25-2.25 1.24264 0 2.25 1.00736 2.25 2.25zm-10.0606 2.5h-15v-5h15zm-43.5039-11.95117h192.999996v40.5h-192.999996z" fill="#e0e0e0" stroke="#000" stroke-linecap="round" stroke-width=".49999982"/><g id="DrawerHandle_200" fill="#e0e0e0" stroke="#000" stroke-linecap="round" stroke-width=".5"><path id="rect5214-9" d="m3.0000041 522.74951h192.9999959v27h-192.9999959zm0-455.299338h192.9999959v-27h-192.9999959z"/><path id="rect5212-1" d="m18.000004 499.15019v68.59962h162.999996v-68.59962zm46.5 27.09962h69.999996c5.54 0 10 4.46 10 10 0 5.54-4.46 10-10 10h-69.999996c-5.54 0-10-4.46-10-10 0-5.54 4.46-10 10-10zm-46.5-435.19968v-68.59958h162.999996v68.59958zm46.5-27.0996h69.999996c5.54 0 10-4.46 10-10 0-5.54-4.46-10-10-10h-69.999996c-5.54 0-10 4.46-10 10 0 5.54 4.46 10 10 10z"/></g><path id="cutoutXT2_4P" d="m .000004-.00014v591h198.999996v-591zm47.5 254h103.999996v83h-103.999996z" fill="#c5c7c4" fill-opacity=".8" stroke="#808080" stroke-linecap="round" stroke-width=".80000001"/><path id="motorXT2_4P" d="m .000004-.00014v591h198.999996v-591zm63.59961 250h100.999996v91h-100.999996z" fill="#c5c7c4" fill-opacity=".8" stroke="#808080" stroke-linecap="round" stroke-width=".80000001"/><path id="cutoutXT3_4P" d="m .000004-.00014v591h198.999996v-591zm27 268h144.999996v55h-144.999996z" fill="#c5c7c4" fill-opacity=".8" stroke="#808080" stroke-linecap="round" stroke-width=".80000001"/><path id="motorXT3_4P" d="m .000004-.00014v591h198.999996v-591zm73.09961 241.5h86.999996v108h-86.999996z" fill="#c5c7c4" fill-opacity=".8" stroke="#808080" stroke-linecap="round" stroke-width=".80000001"/><path id="cutoutXT4_4P" d="m .000004-.00019v591h198.999996v-591zm27 247h144.999996v97h-144.999996z" fill="#c5c7c4" fill-opacity=".8" stroke="#808080" stroke-linecap="round" stroke-width=".80000001"/><path id="motorXT4_4P" d="m .000004-.00019v591h198.999996v-591zm66.09961 250h100.999996v91h-100.999996z" fill="#c5c7c4" fill-opacity=".8" stroke="#808080" stroke-linecap="round" stroke-width=".80000001"/><path id="cutout_motor_T5" d="m .000004-.00019v591h198.999996v-591zm42 238h114.999996v115h-114.999996z" fill="#c5c7c4" fill-opacity=".8" stroke="#808080" stroke-linecap="round" stroke-width=".80000001"/></g><g id="kit250"><path id="drawer250" d="m6.000004 456.99986v-339h236.999996v339zm21.5-16.59961h193.999996v-50h-193.999996zm-24.5 109.19961v-509h242.999996v509zm24.5-109.90039h193.999996v-48.5h-193.999996z" fill="#e0e0e0" stroke="#000" stroke-linecap="round" stroke-width=".80000001"/><g id="con250" fill-rule="evenodd" stroke="#000" stroke-linecap="square" stroke-width=".80000001"><path id="rect4288-7" d="m49.500004 388.89947v-25h30v25zm40 0v-25h29.999996v25zm39.999996 0v-25h30v25zm40 0v-25h30v25zm-119.999996-176.59961v-25h30v25zm40 0v-25h29.999996v25zm39.999996 0v-25h30v25zm40 0v-25h30v25zm-119.999996-86v-25h30v25zm40 0v-25h29.999996v25zm39.999996 0v-25h30v25zm40 0v-25h30v25z" fill="#c6782e"/><path id="rect4295-4" d="m49.500004 413.89947v-25h30v25zm40 0v-25h29.999996v25zm39.999996 0v-25h30v25zm40 0v-25h30v25zm-119.999996-226.59961v-61h30v61zm40 0v-61h29.999996v61zm39.999996 0v-61h30v61zm40 0v-61h30v61z" fill="#333"/></g><path id="sparePlate250" d="m3.000004 40.99983v509h242.999996v-509zm33.49804 29.5c13.80712 0 25 11.19288 25 25 0 13.80712-11.19288 25-25 25-13.80712 0-25-11.19288-25-25 0-13.80712 11.19288-25 25-25zm0 2.25c-12.56448 0-22.75 10.18552-22.75 22.75 0 12.56448 10.18552 22.75 22.75 22.75 12.56448 0 22.75-10.18552 22.75-22.75 0-12.56448-10.18552-22.75-22.75-22.75zm156.501956 34.75a3 3 0 0 1 3 3 3 3 0 0 1 -3 3 3 3 0 0 1 -3-3 3 3 0 0 1  3-3zm32 0a3 3 0 0 1 3 3 3 3 0 0 1 -3 3 3 3 0 0 1 -3-3 3 3 0 0 1  3-3zm-32 97.5a3 3 0 0 1 3 3 3 3 0 0 1 -3 3 3 3 0 0 1 -3-3 3 3 0 0 1  3-3zm32 0a3 3 0 0 1 3 3 3 3 0 0 1 -3 3 3 3 0 0 1 -3-3 3 3 0 0 1  3-3zm-32 87.5a3 3 0 0 1 3 3 3 3 0 0 1 -3 3 3 3 0 0 1 -3-3 3 3 0 0 1  3-3zm32 0a3 3 0 0 1 3 3 3 3 0 0 1 -3 3 3 3 0 0 1 -3-3 3 3 0 0 1  3-3zm-32 87.5a3 3 0 0 1 3 3 3 3 0 0 1 -3 3 3 3 0 0 1 -3-3 3 3 0 0 1  3-3zm32 0a3 3 0 0 1 3 3 3 3 0 0 1 -3 3 3 3 0 0 1 -3-3 3 3 0 0 1  3-3zm-188.501956 90.5c13.80712 0 25 11.19288 25 25 0 13.80712-11.19288 25-25 25-13.80712 0-25-11.19288-25-25 0-13.80712 11.19288-25 25-25zm0 2.25c-12.56448 0-22.75 10.18552-22.75 22.75 0 12.56448 10.18552 22.75 22.75 22.75 12.56448 0 22.75-10.18552 22.75-22.75 0-12.56448-10.18552-22.75-22.75-22.75zm156.501956 4.75a3 3 0 0 1 3 3 3 3 0 0 1 -3 3 3 3 0 0 1 -3-3 3 3 0 0 1  3-3zm32 0a3 3 0 0 1 3 3 3 3 0 0 1 -3 3 3 3 0 0 1 -3-3 3 3 0 0 1  3-3z" fill="#e0e0e0" overflow="visible" stroke="#000" stroke-linecap="round" stroke-width=".80000001"/><path id="sideShelf250" d="m192.4961 579.19869h-15v5h15zm-20.5605 2.5c0-1.24264-1.00736-2.25-2.25-2.25-1.24264 0-2.25 1.00736-2.25 2.25 0 1.24264 1.00736 2.25 2.25 2.25 1.24264 0 2.25-1.00736 2.25-2.25zm-6.6153 0c0-1.79493-1.45507-3.25-3.25-3.25-1.79493 0-3.25 1.45507-3.25 3.25 0 1.79493 1.45507 3.25 3.25 3.25 1.79493 0 3.25-1.45507 3.25-3.25zm-8.6172 0c0-1.24264-1.00736-2.25-2.25-2.25-1.24264 0-2.25 1.00736-2.25 2.25 0 1.24264 1.00736 2.25 2.25 2.25 1.24264 0 2.25-1.00736 2.25-2.25zm-9.7031-20.54883h-45v30h45zm-50.203096 20.54883c0-1.24264-1.00736-2.25-2.25-2.25-1.24264 0-2.25 1.00736-2.25 2.25 0 1.24264 1.00736 2.25 2.25 2.25 1.24264 0 2.25-1.00736 2.25-2.25zm-6.6172 0c0-1.79493-1.45507-3.25-3.25-3.25-1.79493 0-3.25 1.45507-3.25 3.25 0 1.79493 1.45507 3.25 3.25 3.25 1.79493 0 3.25-1.45507 3.25-3.25zm-8.6152 0c0-1.24264-1.00736-2.25-2.25-2.25-1.24264 0-2.25 1.00736-2.25 2.25 0 1.24264 1.00736 2.25 2.25 2.25 1.24264 0 2.25-1.00736 2.25-2.25zm-10.0606-2.5h-15v5h15zm-68.5039 11.95117h242.999996v-40.5h-242.999996zm189.496096-579.34884h-15v-5h15zm-20.5605-2.5c0 1.24264-1.00736 2.25-2.25 2.25-1.24264 0-2.25-1.00736-2.25-2.25 0-1.24264 1.00736-2.25 2.25-2.25 1.24264 0 2.25 1.00736 2.25 2.25zm-6.6153 0c0 1.79493-1.45507 3.25-3.25 3.25-1.79493 0-3.25-1.45507-3.25-3.25 0-1.79493 1.45507-3.25 3.25-3.25 1.79493 0 3.25 1.45507 3.25 3.25zm-8.6172 0c0 1.24264-1.00736 2.25-2.25 2.25-1.24264 0-2.25-1.00736-2.25-2.25 0-1.24264 1.00736-2.25 2.25-2.25 1.24264 0 2.25 1.00736 2.25 2.25zm-9.7031 20.54884h-45v-30.00001h45zm-50.203096-20.54884c0 1.24264-1.00736 2.25-2.25 2.25-1.24264 0-2.25-1.00736-2.25-2.25 0-1.24264 1.00736-2.25 2.25-2.25 1.24264 0 2.25 1.00736 2.25 2.25zm-6.6172 0c0 1.79493-1.45507 3.25-3.25 3.25-1.79493 0-3.25-1.45507-3.25-3.25 0-1.79493 1.45507-3.25 3.25-3.25 1.79493 0 3.25 1.45507 3.25 3.25zm-8.6152 0c0 1.24264-1.00736 2.25-2.25 2.25-1.24264 0-2.25-1.00736-2.25-2.25 0-1.24264 1.00736-2.25 2.25-2.25 1.24264 0 2.25 1.00736 2.25 2.25zm-10.0606 2.5h-15v-5h15zm-68.5039-11.95117h242.999996v40.50001h-242.999996z" fill="#e0e0e0" stroke="#000" stroke-linecap="round" stroke-width=".49999982"/><g id="DrawerHandle_250" fill="#e0e0e0" fill-opacity=".8" stroke="#000" stroke-linecap="round" stroke-width=".5"><path id="rect4315" d="m3.0000041 522.75024h243.0000159v27h-243.0000159zm0-455.300022h243.0000159v-27h-243.0000159z"/><path id="path4317" d="m18.000004 499.15024v68.59962h212.999996v-68.59962zm71.5 27.09962h69.999996c5.54 0 10 4.46 10 10 0 5.54-4.46 10-10 10h-69.999996c-5.54 0-10-4.46-10-10 0-5.54 4.46-10 10-10zm-71.5-435.19968v-68.59958h212.999996v68.59958zm71.5-27.0996h69.999996c5.54 0 10-4.46 10-10 0-5.54-4.46-10-10-10h-69.999996c-5.54 0-10 4.46-10 10 0 5.54 4.46 10 10 10z"/></g><path id="cutout_motorT5_4P" d="m .000004-.00014v591h248.999996v-591zm90.25 238h114.999996v115h-114.999996z" fill="#c5c7c4" fill-opacity=".8" stroke="#808080" stroke-linecap="round" stroke-width=".80000001"/></g><g id="kit300"><path id="drawer300" d="m6.000004 489.49986v-337h286.999996v337zm38.5-22.59961h209.999996v-46h-209.999996zm-41.5 82.69961v-509h292.999996v509zm41.5-82.69922h209.999996v-46h-209.999996z" fill="#e0e0e0" stroke="#000" stroke-linecap="round" stroke-width=".80000007"/><g id="con300" fill-rule="evenodd" stroke="#000" stroke-linecap="square" stroke-width=".80000001"><path id="rect4874-7" d="m94.500002 413.29986v-25h29.999998v25zm39.999998 0v-25h30v25zm40 0v-25h30v25zm-79.999998-201v-25h29.999998v25zm39.999998 0v-25h30v25zm40 0v-25h30v25zm-79.999998-86v-25h29.999998v25zm39.999998 0v-25h30v25zm40 0v-25h30v25z" fill="#c6782e"/><path id="rect4880-8" d="m94.500002 438.29986v-25h29.999998v25zm39.999998 0v-25h30v25zm40 0v-25h30v25zm-79.999998-251v-61h29.999998v61zm39.999998 0v-61h30v61zm40 0v-61h30v61z" fill="#333"/></g><path id="sparePlate300" d="m3.000194 40.99986v509h292.999616v-509zm33.49804 29.5c13.80712 0 25 11.19288 25 25 0 13.80712-11.19288 25-25 25-13.80712 0-25-11.19288-25-25 0-13.80712 11.19288-25 25-25zm0 2.25c-12.56448 0-22.75 10.18552-22.75 22.75 0 12.56448 10.18552 22.75 22.75 22.75 12.56448 0 22.75-10.18552 22.75-22.75 0-12.56448-10.18552-22.75-22.75-22.75zm206.501576 34.75c1.65685 0 3 1.34315 3 3 0 1.65685-1.34315 3-3 3-1.65685 0-3-1.34315-3-3 0-1.65685 1.34315-3 3-3zm32 0c1.65685 0 3 1.34315 3 3 0 1.65685-1.34315 3-3 3-1.65685 0-3-1.34315-3-3 0-1.65685 1.34315-3 3-3zm-32 97.5c1.65685 0 3 1.34315 3 3 0 1.65685-1.34315 3-3 3-1.65685 0-3-1.34315-3-3 0-1.65685 1.34315-3 3-3zm32 0c1.65685 0 3 1.34315 3 3 0 1.65685-1.34315 3-3 3-1.65685 0-3-1.34315-3-3 0-1.65685 1.34315-3 3-3zm-32 87.5c1.65685 0 3 1.34315 3 3 0 1.65685-1.34315 3-3 3-1.65685 0-3-1.34315-3-3 0-1.65685 1.34315-3 3-3zm32 0c1.65685 0 3 1.34315 3 3 0 1.65685-1.34315 3-3 3-1.65685 0-3-1.34315-3-3 0-1.65685 1.34315-3 3-3zm-32 87.5c1.65685 0 3 1.34315 3 3 0 1.65685-1.34315 3-3 3-1.65685 0-3-1.34315-3-3 0-1.65685 1.34315-3 3-3zm32 0c1.65685 0 3 1.34315 3 3 0 1.65685-1.34315 3-3 3-1.65685 0-3-1.34315-3-3 0-1.65685 1.34315-3 3-3zm-238.501576 90.5c13.80712 0 25 11.19288 25 25 0 13.80712-11.19288 25-25 25-13.80712 0-25-11.19288-25-25 0-13.80712 11.19288-25 25-25zm0 2.25c-12.56448 0-22.75 10.18552-22.75 22.75 0 12.56448 10.18552 22.75 22.75 22.75 12.56448 0 22.75-10.18552 22.75-22.75 0-12.56448-10.18552-22.75-22.75-22.75zm206.501576 4.75c1.65685 0 3 1.34315 3 3 0 1.65685-1.34315 3-3 3-1.65685 0-3-1.34315-3-3 0-1.65685 1.34315-3 3-3zm32 0c1.65685 0 3 1.34315 3 3 0 1.65685-1.34315 3-3 3-1.65685 0-3-1.34315-3-3 0-1.65685 1.34315-3 3-3z" fill="#e0e0e0" overflow="visible" stroke="#000" stroke-linecap="round" stroke-width=".80000001"/><path id="sideShelf300" d="m217.4961 579.19869h-15v5h15zm-20.5605 2.5c0-1.24264-1.00736-2.25-2.25-2.25-1.24264 0-2.25 1.00736-2.25 2.25 0 1.24264 1.00736 2.25 2.25 2.25 1.24264 0 2.25-1.00736 2.25-2.25zm-6.6153 0c0-1.79493-1.45507-3.25-3.25-3.25-1.79493 0-3.25 1.45507-3.25 3.25 0 1.79493 1.45507 3.25 3.25 3.25 1.79493 0 3.25-1.45507 3.25-3.25zm-8.6172 0c0-1.24264-1.00736-2.25-2.25-2.25-1.24264 0-2.25 1.00736-2.25 2.25 0 1.24264 1.00736 2.25 2.25 2.25 1.24264 0 2.25-1.00736 2.25-2.25zm-9.7031-20.54883h-45v30h45zm-50.2031 20.54883c0-1.24264-1.00736-2.25-2.25-2.25-1.24264 0-2.25 1.00736-2.25 2.25 0 1.24264 1.00736 2.25 2.25 2.25 1.24264 0 2.25-1.00736 2.25-2.25zm-6.6172 0c0-1.79493-1.45507-3.25-3.25-3.25-1.79493 0-3.25 1.45507-3.25 3.25 0 1.79493 1.45507 3.25 3.25 3.25 1.79493 0 3.25-1.45507 3.25-3.25zm-8.6152 0c0-1.24264-1.00736-2.25-2.25-2.25-1.24264 0-2.25 1.00736-2.25 2.25 0 1.24264 1.00736 2.25 2.25 2.25 1.24264 0 2.25-1.00736 2.25-2.25zm-10.060596-2.5h-15v5h15zm-93.5039 11.95117h292.999996v-40.5h-292.999996zm214.496096-579.34884h-15v-5h15zm-20.5605-2.5c0 1.24264-1.00736 2.25-2.25 2.25-1.24264 0-2.25-1.00736-2.25-2.25 0-1.24264 1.00736-2.25 2.25-2.25 1.24264 0 2.25 1.00736 2.25 2.25zm-6.6153 0c0 1.79493-1.45507 3.25-3.25 3.25-1.79493 0-3.25-1.45507-3.25-3.25 0-1.79493 1.45507-3.25 3.25-3.25 1.79493 0 3.25 1.45507 3.25 3.25zm-8.6172 0c0 1.24264-1.00736 2.25-2.25 2.25-1.24264 0-2.25-1.00736-2.25-2.25 0-1.24264 1.00736-2.25 2.25-2.25 1.24264 0 2.25 1.00736 2.25 2.25zm-9.7031 20.54884h-45v-30.00001h45zm-50.2031-20.54884c0 1.24264-1.00736 2.25-2.25 2.25-1.24264 0-2.25-1.00736-2.25-2.25 0-1.24264 1.00736-2.25 2.25-2.25 1.24264 0 2.25 1.00736 2.25 2.25zm-6.6172 0c0 1.79493-1.45507 3.25-3.25 3.25-1.79493 0-3.25-1.45507-3.25-3.25 0-1.79493 1.45507-3.25 3.25-3.25 1.79493 0 3.25 1.45507 3.25 3.25zm-8.6152 0c0 1.24264-1.00736 2.25-2.25 2.25-1.24264 0-2.25-1.00736-2.25-2.25 0-1.24264 1.00736-2.25 2.25-2.25 1.24264 0 2.25 1.00736 2.25 2.25zm-10.060596 2.5h-15v-5h15zm-93.5039-11.95117h292.999996v40.50001h-292.999996z" fill="#e0e0e0" stroke="#000" stroke-linecap="round" stroke-width=".49999982"/><g id="DrawerHandle_300" fill="#e0e0e0" fill-opacity=".8" stroke="#000" stroke-linecap="round" stroke-width=".5"><path id="rect4898" d="m3.0000041 522.75024h292.9999959v27h-292.9999959zm0-455.300388h292.9999959v-27h-292.9999959z"/><path id="path4900" d="m18.000004 499.15024v68.59962h262.999996v-68.59962zm96.499996 27.09962h70c5.54 0 10 4.46 10 10 0 5.54-4.46 10-10 10h-70c-5.54 0-10-4.46-10-10 0-5.54 4.46-10 10-10zm-96.499996-435.19968v-68.59958h262.999996v68.59958zm96.499996-27.0996h70c5.54 0 10-4.46 10-10 0-5.54-4.46-10-10-10h-70c-5.54 0-10 4.46-10 10 0 5.54 4.46 10 10 10z"/></g><path id="cutoutT6" d="m .000004-.00014v591h298.999996v-591zm75 237.5h148.999996v116h-148.999996z" fill="#c5c7c4" fill-opacity=".8" stroke="#808080" stroke-linecap="round" stroke-width=".80000001"/><path id="motorT6" d="m .000004-.00014v591h298.999996v-591zm75.25 220h148.499996v151h-148.499996z" fill="#c5c7c4" fill-opacity=".8" stroke="#808080" stroke-linecap="round" stroke-width=".80000001"/></g><g id="kit350"><path id="drawer350" d="m6.000004 489.49935v-337h336.999996v337zm28.5-22.59961h16.70703 246.585966 16.707v-46h-16.707-246.585966-16.70703zm-31.5 82.70012v-509h342.999996v509zm31.5-82.69922h279.999996v-46h-279.999996z" fill="#e0e0e0" stroke="#000" stroke-linecap="round" stroke-width=".80000007"/><g id="con350" fill-rule="evenodd" stroke="#000" stroke-linecap="square" stroke-width=".80000001"><path id="rect5392-5" d="m99.500004 413.29986v-25h29.999996v25zm39.999996 0v-25h30v25zm40 0v-25h30v25zm40 0v-25h30v25zm-119.999996-201v-25h29.999996v25zm39.999996 0v-25h30v25zm40 0v-25h30v25zm40 0v-25h30v25zm-119.999996-86v-25h29.999996v25zm39.999996 0v-25h30v25zm40 0v-25h30v25zm40 0v-25h30v25z" fill="#c6782e"/><path id="rect5398-3" d="m99.500004 438.29986v-25h29.999996v25zm39.999996 0v-25h30v25zm40 0v-25h30v25zm40 0v-25h30v25zm-119.999996-251v-61h29.999996v61zm39.999996 0v-61h30v61zm40 0v-61h30v61zm40 0v-61h30v61z" fill="#333"/></g><path id="sparePlate350" d="m3.000004 40.99986v509h342.999996v-509zm33.49804 29.5c13.80712 0 24.99996 11.19288 24.99996 25 0 13.80712-11.19284 25-24.99996 25-13.80712 0-25-11.19288-25-25 0-13.80712 11.19288-25 25-25zm0 2.25c-12.56448 0-22.75 10.18552-22.75 22.75 0 12.56448 10.18552 22.75 22.75 22.75 12.56448 0 22.74996-10.18552 22.74996-22.75 0-12.56448-10.18548-22.75-22.74996-22.75zm256.501956 34.75c1.6569 0 3 1.34315 3 3 0 1.65685-1.3431 3-3 3-1.6568 0-3-1.34315-3-3 0-1.65685 1.3432-3 3-3zm32 0c1.6569 0 3 1.34315 3 3 0 1.65685-1.3431 3-3 3-1.6568 0-3-1.34315-3-3 0-1.65685 1.3432-3 3-3zm-32 97.5c1.6569 0 3 1.34315 3 3 0 1.65685-1.3431 3-3 3-1.6568 0-3-1.34315-3-3 0-1.65685 1.3432-3 3-3zm32 0c1.6569 0 3 1.34315 3 3 0 1.65685-1.3431 3-3 3-1.6568 0-3-1.34315-3-3 0-1.65685 1.3432-3 3-3zm-32 87.5c1.6569 0 3 1.34315 3 3 0 1.65685-1.3431 3-3 3-1.6568 0-3-1.34315-3-3 0-1.65685 1.3432-3 3-3zm32 0c1.6569 0 3 1.34315 3 3 0 1.65685-1.3431 3-3 3-1.6568 0-3-1.34315-3-3 0-1.65685 1.3432-3 3-3zm-32 87.5c1.6569 0 3 1.34315 3 3 0 1.65685-1.3431 3-3 3-1.6568 0-3-1.34315-3-3 0-1.65685 1.3432-3 3-3zm32 0c1.6569 0 3 1.34315 3 3 0 1.65685-1.3431 3-3 3-1.6568 0-3-1.34315-3-3 0-1.65685 1.3432-3 3-3zm-288.501956 90.5c13.80712 0 24.99996 11.19288 24.99996 25 0 13.80712-11.19284 25-24.99996 25-13.80712 0-25-11.19288-25-25 0-13.80712 11.19288-25 25-25zm0 2.25c-12.56448 0-22.75 10.18552-22.75 22.75 0 12.56448 10.18552 22.75 22.75 22.75 12.56448 0 22.74996-10.18552 22.74996-22.75 0-12.56448-10.18548-22.75-22.74996-22.75zm256.501956 4.75c1.6569 0 3 1.34315 3 3 0 1.65685-1.3431 3-3 3-1.6568 0-3-1.34315-3-3 0-1.65685 1.3432-3 3-3zm32 0c1.6569 0 3 1.34315 3 3 0 1.65685-1.3431 3-3 3-1.6568 0-3-1.34315-3-3 0-1.65685 1.3432-3 3-3z" fill="#e0e0e0" overflow="visible" stroke="#000" stroke-linecap="round" stroke-width=".80000001"/><g id="sideShelf350" fill="#e0e0e0" stroke="#000" stroke-linecap="round" stroke-width=".49999982"><path id="path4303" d="m242.4961 11.80102h-15v-5h15zm-20.5605-2.5c0 1.24264-1.00736 2.25-2.25 2.25-1.24264 0-2.25-1.00736-2.25-2.25 0-1.24264 1.00736-2.25 2.25-2.25 1.24264 0 2.25 1.00736 2.25 2.25zm-6.6153 0c0 1.79493-1.45507 3.25-3.25 3.25-1.79493 0-3.25-1.45507-3.25-3.25 0-1.79493 1.45507-3.25 3.25-3.25 1.79493 0 3.25 1.45507 3.25 3.25zm-8.6172 0c0 1.24264-1.00736 2.25-2.25 2.25-1.24264 0-2.25-1.00736-2.25-2.25 0-1.24264 1.00736-2.25 2.25-2.25 1.24264 0 2.25 1.00736 2.25 2.25zm-9.7031 20.54884h-45v-30.00001h45zm-50.2031-20.54884c0 1.24264-1.00736 2.25-2.25 2.25-1.24264 0-2.25-1.00736-2.25-2.25 0-1.24264 1.00736-2.25 2.25-2.25 1.24264 0 2.25 1.00736 2.25 2.25zm-6.6172 0c0 1.79493-1.45507 3.25-3.25 3.25-1.79493 0-3.25-1.45507-3.25-3.25 0-1.79493 1.45507-3.25 3.25-3.25 1.79493 0 3.25 1.45507 3.25 3.25zm-8.6152 0c0 1.24264-1.00736 2.25-2.25 2.25-1.24264 0-2.25-1.00736-2.25-2.25 0-1.24264 1.00736-2.25 2.25-2.25 1.24264 0 2.25 1.00736 2.25 2.25zm-10.0606 2.5h-15v-5h15zm-118.503896-11.95117h342.999996v40.50001h-342.999996z"/><path id="sideShelf351" d="m242.4961 579.19869h-15v5h15zm-20.5605 2.5c0-1.24264-1.00736-2.25-2.25-2.25-1.24264 0-2.25 1.00736-2.25 2.25 0 1.24264 1.00736 2.25 2.25 2.25 1.24264 0 2.25-1.00736 2.25-2.25zm-6.6153 0c0-1.79493-1.45507-3.25-3.25-3.25-1.79493 0-3.25 1.45507-3.25 3.25 0 1.79493 1.45507 3.25 3.25 3.25 1.79493 0 3.25-1.45507 3.25-3.25zm-8.6172 0c0-1.24264-1.00736-2.25-2.25-2.25-1.24264 0-2.25 1.00736-2.25 2.25 0 1.24264 1.00736 2.25 2.25 2.25 1.24264 0 2.25-1.00736 2.25-2.25zm-9.7031-20.54883h-45v30h45zm-50.2031 20.54883c0-1.24264-1.00736-2.25-2.25-2.25-1.24264 0-2.25 1.00736-2.25 2.25 0 1.24264 1.00736 2.25 2.25 2.25 1.24264 0 2.25-1.00736 2.25-2.25zm-6.6172 0c0-1.79493-1.45507-3.25-3.25-3.25-1.79493 0-3.25 1.45507-3.25 3.25 0 1.79493 1.45507 3.25 3.25 3.25 1.79493 0 3.25-1.45507 3.25-3.25zm-8.6152 0c0-1.24264-1.00736-2.25-2.25-2.25-1.24264 0-2.25 1.00736-2.25 2.25 0 1.24264 1.00736 2.25 2.25 2.25 1.24264 0 2.25-1.00736 2.25-2.25zm-10.0606-2.5h-15v5h15zm-118.503896 11.95117h342.999996v-40.5h-342.999996z"/></g><g id="DrawerHandle_350" fill="#e0e0e0" stroke="#000" stroke-linecap="round" stroke-width=".5"><path id="rect5436" d="m3 40.449188v27h343v-27zm0 482.300782v27h343v-27z"/><path id="path5444" d="m18.000004 499.15024v68.59962h312.999996v-68.59962zm121.499996 27.09962h70c5.54 0 10 4.46 10 10 0 5.54-4.46 10-10 10h-70c-5.54 0-10-4.46-10-10 0-5.54 4.46-10 10-10zm-121.499996-435.19968v-68.59958h312.999996v68.59958zm121.499996-27.0996h70c5.54 0 10-4.46 10-10 0-5.54-4.46-10-10-10h-70c-5.54 0-10 4.46-10 10 0 5.54 4.46 10 10 10z"/></g><path id="cutoutT6_4P" d="m .000004-.00014v591h348.999996v-591zm135.349596 237.5h149v116h-149z" fill="#c5c7c4" fill-opacity=".8" stroke="#808080" stroke-linecap="round" stroke-width=".80000001"/><path id="motorT6_4P" d="m .000004-.00014v591h348.999996v-591zm134.800796 220h148.5v151h-148.5z" fill="#c5c7c4" fill-opacity=".8" stroke="#808080" stroke-linecap="round" stroke-width=".80000001"/></g><rect id="blind" fill="#c5c7c4" fill-opacity=".8" height="591" stroke="#808080" stroke-linecap="round" stroke-width=".80000007" width="349"/><g id="handle1" stroke="#4d4d4d" stroke-width=".5"><path id="circle5456" d="m186.24902 46.70023a11.75 11.75 0 0 1 -11.75 11.75 11.75 11.75 0 0 1 -11.75-11.75 11.75 11.75 0 0 1  11.75-11.75 11.75 11.75 0 0 1  11.75 11.75zm4.44948 5.00002c-.1618 2.93473-.7829 5.99875-1.6558 8.66071-.8729 2.66195-2.136 5.05919-3.6968 7.07242-3.1217 4.02645-6.1342 6.51687-10.8976 6.51687-4.7635 0-7.675-2.49042-10.7966-6.51687-1.5608-2.01323-2.8239-4.41047-3.6968-7.07242-.8729-2.66196-1.4967-5.72583-1.6558-8.66071-.1569-2.89204-.05-5.86298.6991-8.66071.6748-2.52021 1.9172-5.05919 3.3529-7.07242 1.4358-2.01323 3.1693-3.64244 5.1393-4.76836 1.97-1.12591 4.6766-1.74851 7.0584-1.74851 2.3817 0 5.0821.6226 7.0427 1.74851 1.9606 1.12592 3.6816 2.75513 5.1049 4.76836 1.4233 2.01323 2.6523 4.555 3.3186 7.07242.741 2.79948.8429 5.76922.6835 8.66071z" fill="#575d5e" stroke-linecap="round" stroke-linejoin="round"/><circle id="circle5458" cx="174.49902" cy="46.700233" fill="#999" r="8.6000004" stroke-linecap="round" stroke-linejoin="round"/><path id="path5460" d="m173.55273 38.136719v4.455078c-1.9379.4371-3.31545 2.142675-3.31835 4.109375 0 1.9673 1.3778 3.672175 3.3164 4.109375v4.453125h1.89649v-4.455078c1.938-.437 3.3135-2.140722 3.3164-4.107422 0-1.9674-1.3778-3.672275-3.3164-4.109375v-4.455078zm.94727 7.064453a1.5 1.5 0 0 1 1.5 1.5 1.5 1.5 0 0 1 -1.5 1.5 1.5 1.5 0 0 1 -1.5-1.5 1.5 1.5 0 0 1  1.5-1.5z" fill="#808080" transform="translate(0 -.00003052)"/></g><g id="handle2" stroke="#4d4d4d" stroke-width=".5"><path id="path4221" d="m186.24902 544.29929a11.75 11.75 0 0 0 -11.75-11.75 11.75 11.75 0 0 0 -11.75 11.75 11.75 11.75 0 0 0  11.75 11.75 11.75 11.75 0 0 0  11.75-11.75zm4.44948-5.00002c-.1618-2.93473-.7829-5.99875-1.6558-8.66071-.8729-2.66195-2.136-5.05919-3.6968-7.07242-3.1217-4.02645-6.1342-6.51687-10.8976-6.51687-4.7635 0-7.675 2.49042-10.7966 6.51687-1.5608 2.01323-2.8239 4.41047-3.6968 7.07242-.8729 2.66196-1.4967 5.72583-1.6558 8.66071-.1569 2.89204-.05 5.86298.6991 8.66071.6748 2.52021 1.9172 5.05919 3.3529 7.07242 1.4358 2.01323 3.1693 3.64244 5.1393 4.76836 1.97 1.12591 4.6766 1.74851 7.0584 1.74851 2.3817 0 5.0821-.6226 7.0427-1.74851 1.9606-1.12592 3.6816-2.75513 5.1049-4.76836 1.4233-2.01323 2.6523-4.555 3.3186-7.07242.741-2.79948.8429-5.76922.6835-8.66071z" fill="#575d5e" stroke-linecap="round" stroke-linejoin="round"/><circle id="circle4223" cx="174.49902" cy="-544.29932" fill="#999" r="8.6000004" stroke-linecap="round" stroke-linejoin="round" transform="scale(1 -1)"/><path id="path4225" d="m173.55273 552.86283v-4.45508c-1.9379-.4371-3.31545-2.14267-3.31835-4.10937 0-1.9673 1.3778-3.67218 3.3164-4.10938v-4.45312h1.89649v4.45508c1.938.437 3.3135 2.14072 3.3164 4.10742 0 1.9674-1.3778 3.67227-3.3164 4.10937v4.45508zm.94727-7.06445a1.5 1.5 0 0 0 1.5-1.5 1.5 1.5 0 0 0 -1.5-1.5 1.5 1.5 0 0 0 -1.5 1.5 1.5 1.5 0 0 0  1.5 1.5z" fill="#808080"/></g><text id="textBottom" line-height="125%" style="font-size:20;font-family:sans-serif;letter-spacing:0;word-spacing:0;text-anchor:middle;overflow:visible" transform="rotate(-90)" x="-295.29004" xml:space="preserve" y="329.14603"><tspan id="tspan4155-8" x="-295.29004" y="329.14603">Text</tspan></text></g></svg>