<svg id="svg2" height="249.8" overflow="visible" viewBox="0 0 591.8 249.79999" width="591.79999" xmlns="http://www.w3.org/2000/svg"><g id="layer1"><g id="kit150"><path id="drawer150" d="m432.28002 6h-262v137h262zm-15.59961 12.5v112h-50v-112zm133.31927-15.5h-508.99998v143h508.99998zm-134.09961 15.5v112h-48.5v-112z" fill="#e0e0e0" stroke="#808080" stroke-linecap="round" stroke-width=".80000001"/><g id="3P-150" fill-rule="evenodd" stroke="#000" stroke-linecap="square" stroke-width=".80000001"><path id="C1-8-7" d="m373.3 52h-25v20h25zm0 25h-25v20h25zm0 25h-25v20h25z" fill="#c6782e"/><path id="rect5198-9" d="m398.3 52h-25v20h25zm0 25h-25v20h25zm0 25h-25v20h25z" fill="#333"/></g><g id="4P-150" fill-rule="evenodd" stroke="#000" stroke-linecap="square" stroke-width=".80000001"><path id="rect5329" d="m373.27611 27.00003v20h-25v-20z" fill="#c6782e"/><path id="rect5331" d="m398.27605 27.00003v20h-25v-20z" fill="#333"/></g><path id="sideShelf150" d="m11.80141 142.4961v-15h-5v15zm-2.5-20.5605a2.25 2.25 0 0 0 2.25-2.25 2.25 2.25 0 0 0 -2.25-2.25 2.25 2.25 0 0 0 -2.25 2.25 2.25 2.25 0 0 0  2.25 2.25zm0-6.6153a3.25 3.25 0 0 0 3.25-3.25 3.25 3.25 0 0 0 -3.25-3.25 3.25 3.25 0 0 0 -3.25 3.25 3.25 3.25 0 0 0  3.25 3.25zm0-8.6172a2.25 2.25 0 0 0 2.25-2.25 2.25 2.25 0 0 0 -2.25-2.25 2.25 2.25 0 0 0 -2.25 2.25 2.25 2.25 0 0 0  2.25 2.25zm20.54883-9.7031v-45h-30v45zm-20.54883-50.2031a2.25 2.25 0 0 0 2.25-2.25 2.25 2.25 0 0 0 -2.25-2.25 2.25 2.25 0 0 0 -2.25 2.25 2.25 2.25 0 0 0  2.25 2.25zm0-6.6172a3.25 3.25 0 0 0 3.25-3.25 3.25 3.25 0 0 0 -3.25-3.25 3.25 3.25 0 0 0 -3.25 3.25 3.25 3.25 0 0 0  3.25 3.25zm0-8.6152a2.25 2.25 0 0 0 2.25-2.25 2.25 2.25 0 0 0 -2.25-2.25 2.25 2.25 0 0 0 -2.25 2.25 2.25 2.25 0 0 0  2.25 2.25zm2.5-10.0606v-15h-5v15zm-11.95117-18.50393v142.99999h40.5v-142.99999zm579.34893 139.49613v-15h5v15zm2.5-20.5605a2.25 2.25 0 0 1 -2.25-2.25 2.25 2.25 0 0 1  2.25-2.25 2.25 2.25 0 0 1  2.25 2.25 2.25 2.25 0 0 1 -2.25 2.25zm0-6.6153a3.25 3.25 0 0 1 -3.25-3.25 3.25 3.25 0 0 1  3.25-3.25 3.25 3.25 0 0 1  3.25 3.25 3.25 3.25 0 0 1 -3.25 3.25zm0-8.6172a2.25 2.25 0 0 1 -2.25-2.25 2.25 2.25 0 0 1  2.25-2.25 2.25 2.25 0 0 1  2.25 2.25 2.25 2.25 0 0 1 -2.25 2.25zm-20.54883-9.7031v-45h30v45zm20.54883-50.2031a2.25 2.25 0 0 1 -2.25-2.25 2.25 2.25 0 0 1  2.25-2.25 2.25 2.25 0 0 1  2.25 2.25 2.25 2.25 0 0 1 -2.25 2.25zm0-6.6172a3.25 3.25 0 0 1 -3.25-3.25 3.25 3.25 0 0 1  3.25-3.25 3.25 3.25 0 0 1  3.25 3.25 3.25 3.25 0 0 1 -3.25 3.25zm0-8.6152a2.25 2.25 0 0 1 -2.25-2.25 2.25 2.25 0 0 1  2.25-2.25 2.25 2.25 0 0 1  2.25 2.25 2.25 2.25 0 0 1 -2.25 2.25zm-2.5-10.0606v-15h5v15zm11.95117-18.50393v142.99999h-40.5v-142.99999z" fill="#e0e0e0" stroke="#808080" stroke-linecap="round" stroke-width=".49999982"/><path id="DrawerHandle_150" d="m526.64963 27v95c0 5.54 4.46 10 10 10 5.54 0 10-4.46 10-10v-95c0-5.54-4.46-10-10-10-5.54 0-10 4.46-10 10z" fill="#333" stroke="#808080" stroke-linecap="round" stroke-width=".5"/><path id="cutoutXT2" d="m591.00002 0h-591v149h591zm-254 27.5v94h-83v-94z" fill="#c5c7c4" stroke="#808080" stroke-linecap="round" stroke-width=".80000001"/><path id="motorXT2" d="m591.00002 0h-591v149h591zm-250 23.59961v101h-91v-101z" fill="#c5c7c4" stroke="#808080" stroke-linecap="round" stroke-width=".80000001"/><path id="cutoutXT4" d="m591.00002 0h-591v149h591zm-247 19.5v110h-97v-110z" fill="#c5c7c4" stroke="#808080" stroke-linecap="round" stroke-width=".80000001"/><path id="motorXT4" d="m591.00002 0h-591v149h591zm-250 24v101h-91v-101z" fill="#c5c7c4" stroke="#808080" stroke-linecap="round" stroke-width=".80000001"/></g><g id="kit200"><path id="drawer200" d="m426.79973 6h-250v187h250zm-9.59961 30v127h-50v-127zm133.20027-33h-509v193h509zm-133.90039 33v127h-48.5v-127z" fill="#e0e0e0" stroke="#808080" stroke-linecap="round" stroke-width=".80000001"/><g id="3P-200" fill-rule="evenodd" stroke="#000" stroke-linecap="square" stroke-width=".80000001"><path id="C1-8-9-4" d="m373.7 77h-25v20h25zm0 24.99805h-25v20h25zm0 25h-25v20h25z" fill="#c6782e"/><path id="rect5198-2-6" d="m398.7 77h-25v20h25zm0 24.99805h-25v20h25zm0 25h-25v20h25z" fill="#333"/></g><g id="4P-200" fill-rule="evenodd" stroke="#000" stroke-linecap="square" stroke-width=".80000001"><path id="rect5329-5" d="m373.69973 52v20h-25v-20z" fill="#c6782e"/><path id="rect5331-1" d="m398.69967 52v20h-25v-20z" fill="#333"/></g><path id="sideShelf200" d="m11.80117 167.4961v-15h-5v15zm-2.5-20.5605c1.24264 0 2.25-1.00736 2.25-2.25 0-1.24264-1.00736-2.25-2.25-2.25-1.24264 0-2.25 1.00736-2.25 2.25 0 1.24264 1.00736 2.25 2.25 2.25zm0-6.6153c1.79493 0 3.25-1.45507 3.25-3.25 0-1.79493-1.45507-3.25-3.25-3.25-1.79493 0-3.25 1.45507-3.25 3.25 0 1.79493 1.45507 3.25 3.25 3.25zm0-8.6172c1.24264 0 2.25-1.00736 2.25-2.25 0-1.24264-1.00736-2.25-2.25-2.25-1.24264 0-2.25 1.00736-2.25 2.25 0 1.24264 1.00736 2.25 2.25 2.25zm20.54883-9.7031v-45h-30v45zm-20.54883-50.2031c1.24264 0 2.25-1.00736 2.25-2.25 0-1.24264-1.00736-2.25-2.25-2.25-1.24264 0-2.25 1.00736-2.25 2.25 0 1.24264 1.00736 2.25 2.25 2.25zm0-6.6172c1.79493 0 3.25-1.45507 3.25-3.25 0-1.79493-1.45507-3.25-3.25-3.25-1.79493 0-3.25 1.45507-3.25 3.25 0 1.79493 1.45507 3.25 3.25 3.25zm0-8.6152c1.24264 0 2.25-1.00736 2.25-2.25 0-1.24264-1.00736-2.25-2.25-2.25-1.24264 0-2.25 1.00736-2.25 2.25 0 1.24264 1.00736 2.25 2.25 2.25zm2.5-10.0606v-15h-5v15zm-11.95117-43.5039v193h40.5v-193zm579.34883 164.4961v-15h5v15zm2.5-20.5605c-1.24264 0-2.25-1.00736-2.25-2.25 0-1.24264 1.00736-2.25 2.25-2.25 1.24264 0 2.25 1.00736 2.25 2.25 0 1.24264-1.00736 2.25-2.25 2.25zm0-6.6153c-1.79493 0-3.25-1.45507-3.25-3.25 0-1.79493 1.45507-3.25 3.25-3.25 1.79493 0 3.25 1.45507 3.25 3.25 0 1.79493-1.45507 3.25-3.25 3.25zm0-8.6172c-1.24264 0-2.25-1.00736-2.25-2.25 0-1.24264 1.00736-2.25 2.25-2.25 1.24264 0 2.25 1.00736 2.25 2.25 0 1.24264-1.00736 2.25-2.25 2.25zm-20.54883-9.7031v-45h30v45zm20.54883-50.2031c-1.24264 0-2.25-1.00736-2.25-2.25 0-1.24264 1.00736-2.25 2.25-2.25 1.24264 0 2.25 1.00736 2.25 2.25 0 1.24264-1.00736 2.25-2.25 2.25zm0-6.6172c-1.79493 0-3.25-1.45507-3.25-3.25 0-1.79493 1.45507-3.25 3.25-3.25 1.79493 0 3.25 1.45507 3.25 3.25 0 1.79493-1.45507 3.25-3.25 3.25zm0-8.6152c-1.24264 0-2.25-1.00736-2.25-2.25 0-1.24264 1.00736-2.25 2.25-2.25 1.24264 0 2.25 1.00736 2.25 2.25 0 1.24264-1.00736 2.25-2.25 2.25zm-2.5-10.0606v-15h5v15zm11.95117-43.5039v193h-40.5v-193z" fill="#e0e0e0" stroke="#808080" stroke-linecap="round" stroke-width=".49999982"/><path id="DrawerHandle_200" d="m527.04933 52v95c0 5.54 4.46 10 10 10 5.54 0 10-4.46 10-10v-95c0-5.54-4.46-10-10-10-5.54 0-10 4.46-10 10z" fill="#333" stroke="#808080" stroke-linecap="round" stroke-width=".5"/><path id="cutoutXT4_4P" d="m591.00005 0h-591v199h591zm-247 27v145h-97v-145z" fill="#c5c7c4" stroke="#808080" stroke-linecap="round" stroke-width=".80000001"/><path id="motorXT4_4P" d="m591.00005 0h-591v199h591zm-250 66.09961v101h-91v-101z" fill="#c5c7c4" stroke="#808080" stroke-linecap="round" stroke-width=".80000001"/></g><g id="kit250"><path id="drawer250" d="m457.8 6h-339v237h339zm-16.59961 21.5v194h-50v-194zm109.19961-24.5h-509v243h509zm-109.90039 24.5v194h-48.5v-194z" fill="#e0e0e0" stroke="#808080" stroke-linecap="round" stroke-width=".80000001"/><g id="con250" fill-rule="evenodd" stroke="#000" stroke-linecap="square" stroke-width=".80000001"><path id="rect4288-7" d="m389.69961 49.5h-25v30h25zm0 40h-25v30h25zm0 40h-25v30h25zm0 40h-25v30h25zm-176.59961-120h-25v30h25zm0 40h-25v30h25zm0 40h-25v30h25zm0 40h-25v30h25zm-86-120h-25v30h25zm0 40h-25v30h25zm0 40h-25v30h25zm0 40h-25v30h25z" fill="#c6782e"/><path id="rect4295-4" d="m414.69961 49.5h-25v30h25zm0 40h-25v30h25zm0 40h-25v30h25zm0 40h-25v30h25zm-226.59961-120h-61v30h61zm0 40h-61v30h61zm0 40h-61v30h61zm0 40h-61v30h61z" fill="#333"/></g><path id="sideShelf250" d="m11.80117 192.4961v-15h-5v15zm-2.5-20.5605c1.24264 0 2.25-1.00736 2.25-2.25 0-1.24264-1.00736-2.25-2.25-2.25-1.24264 0-2.25 1.00736-2.25 2.25 0 1.24264 1.00736 2.25 2.25 2.25zm0-6.6153c1.79493 0 3.25-1.45507 3.25-3.25 0-1.79493-1.45507-3.25-3.25-3.25-1.79493 0-3.25 1.45507-3.25 3.25 0 1.79493 1.45507 3.25 3.25 3.25zm0-8.6172c1.24264 0 2.25-1.00736 2.25-2.25 0-1.24264-1.00736-2.25-2.25-2.25-1.24264 0-2.25 1.00736-2.25 2.25 0 1.24264 1.00736 2.25 2.25 2.25zm20.54883-9.7031v-45h-30v45zm-20.54883-50.2031c1.24264 0 2.25-1.00736 2.25-2.25 0-1.24264-1.00736-2.25-2.25-2.25-1.24264 0-2.25 1.00736-2.25 2.25 0 1.24264 1.00736 2.25 2.25 2.25zm0-6.6172c1.79493 0 3.25-1.45507 3.25-3.25 0-1.79493-1.45507-3.25-3.25-3.25-1.79493 0-3.25 1.45507-3.25 3.25 0 1.79493 1.45507 3.25 3.25 3.25zm0-8.6152c1.24264 0 2.25-1.00736 2.25-2.25 0-1.24264-1.00736-2.25-2.25-2.25-1.24264 0-2.25 1.00736-2.25 2.25 0 1.24264 1.00736 2.25 2.25 2.25zm2.5-10.0606v-15h-5v15zm-11.95117-68.5039v243h40.5v-243zm579.34884 189.4961v-15h5v15zm2.5-20.5605c-1.24264 0-2.25-1.00736-2.25-2.25 0-1.24264 1.00736-2.25 2.25-2.25 1.24264 0 2.25 1.00736 2.25 2.25 0 1.24264-1.00736 2.25-2.25 2.25zm0-6.6153c-1.79493 0-3.25-1.45507-3.25-3.25 0-1.79493 1.45507-3.25 3.25-3.25 1.79493 0 3.25 1.45507 3.25 3.25 0 1.79493-1.45507 3.25-3.25 3.25zm0-8.6172c-1.24264 0-2.25-1.00736-2.25-2.25 0-1.24264 1.00736-2.25 2.25-2.25 1.24264 0 2.25 1.00736 2.25 2.25 0 1.24264-1.00736 2.25-2.25 2.25zm-20.54884-9.7031v-45h30.00001v45zm20.54884-50.2031c-1.24264 0-2.25-1.00736-2.25-2.25 0-1.24264 1.00736-2.25 2.25-2.25 1.24264 0 2.25 1.00736 2.25 2.25 0 1.24264-1.00736 2.25-2.25 2.25zm0-6.6172c-1.79493 0-3.25-1.45507-3.25-3.25 0-1.79493 1.45507-3.25 3.25-3.25 1.79493 0 3.25 1.45507 3.25 3.25 0 1.79493-1.45507 3.25-3.25 3.25zm0-8.6152c-1.24264 0-2.25-1.00736-2.25-2.25 0-1.24264 1.00736-2.25 2.25-2.25 1.24264 0 2.25 1.00736 2.25 2.25 0 1.24264-1.00736 2.25-2.25 2.25zm-2.5-10.0606v-15h5v15zm11.95117-68.5039v243h-40.50001v-243z" fill="#e0e0e0" stroke="#808080" stroke-linecap="round" stroke-width=".49999982"/><path id="DrawerHandle_250" d="m527.04928 77v95c0 5.54 4.46 10 10 10 5.54 0 10-4.46 10-10v-95c0-5.54-4.46-10-10-10-5.54 0-10 4.46-10 10z" fill="#333" stroke="#808080" stroke-linecap="round" stroke-width=".5"/><path id="cutout_motorT5" d="m591 0h-591v249h591zm-238 90.25v115h-115v-115z" fill="#c5c7c4" stroke="#808080" stroke-linecap="round" stroke-width=".80000001"/></g><rect id="blind" fill="#c5c7c4" height="200" stroke="#808080" stroke-linecap="round" stroke-width=".80000001" width="591"/><g id="handle" stroke="#4d4d4d" stroke-width=".5"><path id="path4404" d="m52.3499 99v51c0 1.939-1.561 3.5-3.5 3.5h-13.99999c-1.939 0-3.5-1.561-3.5-3.5v-51c0-1.939 1.561-3.5 3.5-3.5h13.99999c1.939 0 3.5 1.561 3.5 3.5zm1.5 0v51c0 2.77-2.23 5-5 5h-13.99999c-2.77001 0-5.00001-2.23-5.00001-5v-51c0-2.77 2.23-5 5.00001-5h13.99999c2.77 0 5 2.23 5 5zm505.8 0v51c0 1.939-1.561 3.5-3.5 3.5h-14c-1.939 0-3.5-1.561-3.5-3.5v-51c0-1.939 1.561-3.5 3.5-3.5h14c1.939 0 3.5 1.561 3.5 3.5zm1.5 0v51c0 2.77-2.23 5-5 5h-14c-2.77 0-5-2.23-5-5v-51c0-2.77 2.23-5 5-5h14c2.77 0 5 2.23 5 5z" fill="#575d5e" stroke-linecap="round" stroke-linejoin="round"/><circle id="circle5458-6" cx="124.50001" cy="-41.849903" fill="#999" r="8.6000004" stroke-linecap="round" stroke-linejoin="round" transform="rotate(90)"/><path id="path5460-2" d="m50.41344 123.55371h-4.45507c-.43711-1.9379-2.14268-3.31545-4.10938-3.31835-1.9673 0-3.67217 1.3778-4.10937 3.3164h-4.45313v1.89649h4.45508c.437 1.938 2.14072 3.3135 4.10742 3.3164 1.9674 0 3.67227-1.3778 4.10938-3.3164h4.45507zm-7.06445.94727a1.5 1.5 0 0 1 -1.5 1.5 1.5 1.5 0 0 1 -1.5-1.5 1.5 1.5 0 0 1  1.5-1.5 1.5 1.5 0 0 1  1.5 1.5z" fill="#808080"/></g></g></svg>