<svg id="svg2" height="598.79999" overflow="visible" viewBox="0 0 994.79995 598.79997" width="994.79999" xmlns="http://www.w3.org/2000/svg"><g id="layer1"><g id="base" fill="#e0e0e0" stroke="#808080" stroke-linecap="round" stroke-width=".80000001"><rect id="R1b" height="129.5" width="859" x="67.499763" y="368.49997"/><rect id="R3b" height="5" width="24.1" x="926.49994" y="492.99997"/><rect id="R2b" height="5" width="24.1" x="43.399971" y="492.99997"/></g><g id="plate" stroke-linecap="round"><rect id="R1" fill="#e0e0e0" height="548" stroke="#808080" stroke-width=".80000001" width="872" x="60.999969" y="24.999989"/><rect id="R2" fill="#e0e0e0" height="548" stroke="#808080" stroke-width=".80000001" width="825" x="84.499969" y="24.999989"/><path id="terminalCut2" d="m106.99802 199.00001v19.83008 20.16992c0 1.385.27851 2.7032.7832 3.90039.50469 1.19719 1.23492 2.27399 2.13867 3.17773.90375.90376 1.98055 1.63399 3.17774 2.13868 1.19718.50469 2.51539.7832 3.90039.7832h160.0039c1.385 0 2.70134-.27851 3.89844-.7832 1.1972-.50469 2.27208-1.23493 3.17578-2.13868.9038-.90375 1.63788-1.98054 2.14258-3.17773.5047-1.19719.7832-2.51539.7832-3.90039v-20.16992-19.83008h-32.5039v14h-15v-14h-85v14h-15v-14zm200 0v19.83008 20.16992c0 1.385.27851 2.7032.7832 3.90039.50469 1.19719 1.23492 2.27399 2.13867 3.17773.90375.90376 1.98055 1.63399 3.17774 2.13868 1.19718.50469 2.51539.7832 3.90039.7832h160.0039c1.385 0 2.70134-.27851 3.89844-.7832 1.1972-.50469 2.27208-1.23493 3.17578-2.13868.9038-.90375 1.63788-1.98054 2.14258-3.17773.5047-1.19719.7832-2.51539.7832-3.90039v-20.16992-19.83008h-32.5039v14h-15v-14h-85v14h-15v-14zm-160 5.32812a2 2 0 0 0 -2 2 2 2 0 0 0  2 2 2 2 0 0 0  2-2 2 2 0 0 0 -2-2zm100 0a2 2 0 0 0 -2 2 2 2 0 0 0  2 2 2 2 0 0 0  2-2 2 2 0 0 0 -2-2zm100 0a2 2 0 0 0 -2 2 2 2 0 0 0  2 2 2 2 0 0 0  2-2 2 2 0 0 0 -2-2zm100 0a2 2 0 0 0 -2 2 2 2 0 0 0  2 2 2 2 0 0 0  2-2 2 2 0 0 0 -2-2zm-330 144.67188c-1.385 0-2.70321.27851-3.90039.7832-1.19719.50469-2.27399 1.23492-3.17774 2.13868-.90375.90375-1.63398 1.98054-2.13867 3.17773-.50469 1.19719-.7832 2.51539-.7832 3.90039v20.16992 19.83008h32.5v-14h15v14h85v-14h15v14h32.5039v-19.83008-20.16992c0-1.385-.2785-2.7032-.7832-3.90039-.5047-1.19719-1.23878-2.27398-2.14258-3.17773-.9037-.90376-1.97858-1.63399-3.17578-2.13868-1.1971-.50469-2.51344-.7832-3.89844-.7832zm200 0c-1.385 0-2.70321.27851-3.90039.7832-1.19719.50469-2.27399 1.23492-3.17774 2.13868-.90375.90375-1.63398 1.98054-2.13867 3.17773-.50469 1.19719-.7832 2.51539-.7832 3.90039v20.16992 19.83008h32.5v-14h15v14h85v-14h15v14h32.5039v-19.83008-20.16992c0-1.385-.2785-2.7032-.7832-3.90039-.5047-1.19719-1.23878-2.27398-2.14258-3.17773-.9037-.90376-1.97858-1.63399-3.17578-2.13868-1.1971-.50469-2.51344-.7832-3.89844-.7832zm-170 40.67188a2 2 0 0 0 -2 2 2 2 0 0 0  2 2 2 2 0 0 0  2-2 2 2 0 0 0 -2-2zm100 0a2 2 0 0 0 -2 2 2 2 0 0 0  2 2 2 2 0 0 0  2-2 2 2 0 0 0 -2-2zm100 0a2 2 0 0 0 -2 2 2 2 0 0 0  2 2 2 2 0 0 0  2-2 2 2 0 0 0 -2-2zm100 0a2 2 0 0 0 -2 2 2 2 0 0 0  2 2 2 2 0 0 0  2-2 2 2 0 0 0 -2-2z" fill="#fff" stroke="#000"/><path id="terminalCut3" d="m156.99802 199v19.83008 20.16992c0 1.385.27851 2.7032.7832 3.90039.50469 1.19719 1.23492 2.27399 2.13867 3.17773.90375.90376 1.98055 1.63399 3.17774 2.13868 1.19718.50469 2.51539.7832 3.90039.7832h160.0039c1.385 0 2.70134-.27851 3.89844-.7832 1.1972-.50469 2.27208-1.23493 3.17578-2.13868.9038-.90375 1.63788-1.98054 2.14258-3.17773.5047-1.19719.7832-2.51539.7832-3.90039v-20.16992-19.83008h-32.5039v14h-15v-14h-85v14h-15v-14zm250 0v19.83008 20.16992c0 1.385.27851 2.7032.7832 3.90039.50469 1.19719 1.23492 2.27399 2.13867 3.17773.90375.90376 1.98055 1.63399 3.17774 2.13868 1.19718.50469 2.51539.7832 3.90039.7832h160.0039c1.385 0 2.70134-.27851 3.89844-.7832 1.1972-.50469 2.27208-1.23493 3.17578-2.13868.9038-.90375 1.63788-1.98054 2.14258-3.17773.5047-1.19719.7832-2.51539.7832-3.90039v-20.16992-19.83008h-32.5039v14h-15v-14h-85v14h-15v-14zm250 0v19.83008 20.16992c0 1.385.27851 2.7032.7832 3.90039.50469 1.19719 1.23492 2.27399 2.13867 3.17773.90375.90376 1.98055 1.63399 3.17774 2.13868 1.19718.50469 2.51539.7832 3.90039.7832h160.00395c1.385 0 2.7013-.27851 3.8984-.7832 1.1972-.50469 2.2721-1.23493 3.1758-2.13868.9038-.90375 1.6379-1.98054 2.1426-3.17773.5046-1.19719.7832-2.51539.7832-3.90039v-20.16992-19.83008h-32.504v14h-15v-14h-85v14h-14.99995v-14zm-460 5.32812a2 2 0 0 0 -2 2 2 2 0 0 0  2 2 2 2 0 0 0  2-2 2 2 0 0 0 -2-2zm100 0a2 2 0 0 0 -2 2 2 2 0 0 0  2 2 2 2 0 0 0  2-2 2 2 0 0 0 -2-2zm150 0a2 2 0 0 0 -2 2 2 2 0 0 0  2 2 2 2 0 0 0  2-2 2 2 0 0 0 -2-2zm100 0a2 2 0 0 0 -2 2 2 2 0 0 0  2 2 2 2 0 0 0  2-2 2 2 0 0 0 -2-2zm150 0a2 2 0 0 0 -2 2 2 2 0 0 0  2 2 2 2 0 0 0  2-2 2 2 0 0 0 -2-2zm99.99995 0a2 2 0 0 0 -2 2 2 2 0 0 0  2 2 2 2 0 0 0  2-2 2 2 0 0 0 -2-2zm-629.99995 144.67188c-1.385 0-2.70321.27851-3.90039.7832-1.19719.50469-2.27399 1.23492-3.17774 2.13868-.90375.90375-1.63398 1.98054-2.13867 3.17773-.50469 1.19719-.7832 2.51539-.7832 3.90039v20.16992 19.83008h32.5v-14h15v14h85v-14h15v14h32.5039v-19.83008-20.16992c0-1.385-.2785-2.7032-.7832-3.90039-.5047-1.19719-1.23878-2.27398-2.14258-3.17773-.9037-.90376-1.97858-1.63399-3.17578-2.13868-1.1971-.50469-2.51344-.7832-3.89844-.7832zm250 0c-1.385 0-2.70321.27851-3.90039.7832-1.19719.50469-2.27399 1.23492-3.17774 2.13868-.90375.90375-1.63398 1.98054-2.13867 3.17773-.50469 1.19719-.7832 2.51539-.7832 3.90039v20.16992 19.83008h32.5v-14h15v14h85v-14h15v14h32.5039v-19.83008-20.16992c0-1.385-.2785-2.7032-.7832-3.90039-.5047-1.19719-1.23878-2.27398-2.14258-3.17773-.9037-.90376-1.97858-1.63399-3.17578-2.13868-1.1971-.50469-2.51344-.7832-3.89844-.7832zm250 0c-1.385 0-2.70321.27851-3.90039.7832-1.19719.50469-2.27399 1.23492-3.17774 2.13868-.90375.90375-1.63398 1.98054-2.13867 3.17773-.50469 1.19719-.7832 2.51539-.7832 3.90039v20.16992 19.83008h32.5v-14h14.99995v14h85v-14h15v14h32.504v-19.83008-20.16992c0-1.385-.2786-2.7032-.7832-3.90039-.5047-1.19719-1.2388-2.27398-2.1426-3.17773-.9037-.90376-1.9786-1.63399-3.1758-2.13868-1.1971-.50469-2.5134-.7832-3.8984-.7832zm-470 40.67188a2 2 0 0 0 -2 2 2 2 0 0 0  2 2 2 2 0 0 0  2-2 2 2 0 0 0 -2-2zm100 0a2 2 0 0 0 -2 2 2 2 0 0 0  2 2 2 2 0 0 0  2-2 2 2 0 0 0 -2-2zm150 0a2 2 0 0 0 -2 2 2 2 0 0 0  2 2 2 2 0 0 0  2-2 2 2 0 0 0 -2-2zm100 0a2 2 0 0 0 -2 2 2 2 0 0 0  2 2 2 2 0 0 0  2-2 2 2 0 0 0 -2-2zm150 0a2 2 0 0 0 -2 2 2 2 0 0 0  2 2 2 2 0 0 0  2-2 2 2 0 0 0 -2-2zm99.99995 0a2 2 0 0 0 -2 2 2 2 0 0 0  2 2 2 2 0 0 0  2-2 2 2 0 0 0 -2-2z" fill="#fff" stroke="#000"/></g><g id="traverse1" fill="#e0e0e0" stroke="#808080" stroke-linecap="round" stroke-width=".80000001"><rect id="rect4186" height="50" width="900" x="46.999969" y="-.00002607"/><rect id="rect4188" height="30" width="900" x="46.999969" y="9.9999733"/></g><g id="traverse2" fill="#e0e0e0" stroke="#808080" stroke-linecap="round" stroke-width=".80000001"><rect id="rect4182" height="50" width="900" x="46.999969" y="548"/><rect id="rect4184" height="30" width="900" x="46.999969" y="558"/></g><g id="T5" style="fill:#c5c7c4;fill-opacity:.8;stroke:#808080;stroke-width:.80000001;stroke-linecap:round;stroke-linejoin:round"><path id="T5_F_3" d="m-.00003051-.00001221v597.99999221h594.00000051v-597.99999221zm139.50000051 234.90038221h115v115h-115zm200 0h115v115h-115z"/><path id="T5_W_3" d="m-.00003051-.00001221v597.99999221h594.00000051v-597.99999221zm139.40039051 234.40038221h116v69.5h29a9 9 0 0 1 9 9 9 9 0 0 1 -9 9h-29v29h-116zm200 0h116v69.5h29a9 9 0 0 1 9 9 9 9 0 0 1 -9 9h-29v29h-116z"/><path id="T5_F_3_x3" d="m-.00003051-.00001221v598.00000221h794.00000051v-598.00000221zm134.00781051 234.90039221h115v115h-115zm199.99805 0h115v115h-115zm200 0h115v115h-115z"/><path id="T5_W_3_x3" d="m-.00003051-.00001221v598.00002221h994.00003051v-598.00002221zm212.70117051 234.39850221h116v69.498h29a9 9 0 0 1 9 9 9 9 0 0 1 -9 9h-29v29.002h-116zm250 0h116v69.498h29a9 9 0 0 1 9 9 9 9 0 0 1 -9 9h-29v29.002h-116zm250 0h115.99996v69.498h29a9 9 0 0 1 9 9 9 9 0 0 1 -9 9h-29v29.002h-115.99996z"/></g><g id="T6" style="fill:#c5c7c4;fill-opacity:.8;stroke:#808080;stroke-width:.80000001;stroke-linecap:round;stroke-linejoin:round"><path id="T6_F_3" d="m-.00003051-.00001221v597.99999221h794.00000051v-597.99999221zm172.90039051 232.59960221h149v116h-149zm300 0h149v116h-149z"/><path id="T6_W_3" d="m-.00003051-.00001221v597.99999221h794.00000051v-597.99999221zm157.69922051 209.90038221h148.5v150h-148.5zm330 0h148.5v150h-148.5zm-377.79883 92c3.878 0 7 3.122 7 7v18c0 3.878-3.122 7-7 7-3.878 0-7-3.122-7-7v-18c0-3.878 3.122-7 7-7zm330 0c3.878 0 7 3.122 7 7v18c0 3.878-3.122 7-7 7-3.878 0-7-3.122-7-7v-18c0-3.878 3.122-7 7-7z"/><path id="T6_F_4" d="m-.00003051-.00001221v597.99999221h794.00000051v-597.99999221zm203.40039051 232.59960221h149v116h-149zm309 0h149v116h-149z"/><path id="T6_W_4" d="m-.00003051-.00001221v597.99999221h994.00000051v-597.99999221zm258.09961051 209.90038221h148.5v150h-148.5zm400 0h148.5v150h-148.5zm-447.79883 92c3.878 0 7 3.122 7 7v18c0 3.878-3.122 7-7 7-3.878 0-7-3.122-7-7v-18c0-3.878 3.122-7 7-7zm400 0c3.878 0 7 3.122 7 7v18c0 3.878-3.122 7-7 7-3.878 0-7-3.122-7-7v-18c0-3.878 3.122-7 7-7z"/><path id="T6_F_3_x3" d="m-.00003051-.00001221v597.99999221h994.00000051v-597.99999221zm172.90039051 232.59960221h149v116h-149zm250 0h149v116h-149zm250 0h149v116h-149z"/></g><g id="T7" style="fill:#c5c7c4;fill-opacity:.8;stroke:#808080;stroke-width:.80000001;stroke-linecap:round;stroke-linejoin:round"><path id="T7_F_3" d="m-.00003051-.00001221v597.99999221h794.00000051v-597.99999221zm134.40039051 167.90038221h226v263h-226zm300 0h226v263h-226z"/><path id="T7_W_3" d="m-.00003051-.00001221v597.99999221h794.00000051v-597.99999221zm81.90039051 154.90038221h278.5v256.5h-278.5zm352.5 0h278.5v256.5h-278.5z"/><path id="T7_F_4" d="m-.00003051-.00001221v597.99999221h994.00000051v-597.99999221zm219.40039051 167.90038221h226v263h-226zm400 0h226v263h-226z"/><path id="T7_W_4" d="m-.00003051-.00001221v597.99999221h994.00000051v-597.99999221zm209.90039051 154.90038221h278.5v256.5h-278.5zm419 0h278.5v256.5h-278.5z"/><path id="T7_F_3_x3" d="m-.00003051-.00001221v597.99999221h994.00000051v-597.99999221zm84.40039051 167.90038221h226v263h-226zm300 0h226v263h-226zm300 0h226v263h-226z"/></g><g id="E12" style="fill:#c5c7c4;fill-opacity:.8;stroke:#808080;stroke-width:.80000001;stroke-linecap:round;stroke-linejoin:round"><path id="E12_F_3" d="m-.00003051-.00001221v597.99999221h794.00000051v-597.99999221zm134.40039051 187.40038221h226v224h-226zm300 0h226v224h-226z"/><path id="E12_W_3" d="m-.00003051-.00001221v597.99999221h794.00000051v-597.99999221zm81.90039051 149.40038221h274v262h-274zm352.5 0h274v262h-274z"/><path id="E12_F_4" d="m-.00003051-.00001221v597.99999221h994.00000051v-597.99999221zm219.40039051 187.40038221h226v224h-226zm400 0h226v224h-226z"/><path id="E12_W_4" d="m-.00003051-.00001221v597.99999221h994.00000051v-597.99999221zm209.90039051 149.40038221h274v262h-274zm419 0h274v262h-274z"/><path id="E12_F_3_x3" d="m-.00003051-.00001221v597.99999221h994.00000051v-597.99999221zm84.40039051 187.40038221h226v224h-226zm300 0h226v224h-226zm300 0h226v224h-226z"/></g><path id="ABBlogo" d="m980.39997 270.01802l-14.7-3.93516v8.1293h14.7zm0 4.79414h-14.7v8.1293l14.7-3.93457zm0 16.80001h-14.7v8.7h14.7zm0 9.3h-14.7v9.10723a9.0000027 9.0000027 0 0 0 2.0666-3.11426 6.750002 6.750002 0 0 0  5.8834 3.45762 6.750002 6.750002 0 0 0  6.75-6.75 6.750002 6.750002 0 0 0  0-.0006v-2.7zm0 14.1h-14.7v8.70001h14.7zm0 9.30001h-14.7v9.10723a9.0000027 9.0000027 0 0 0 2.0666-3.11426 6.750002 6.750002 0 0 0  5.8834 3.45762 6.750002 6.750002 0 0 0  6.75-6.75 6.750002 6.750002 0 0 0  0-.0006v-2.7zm-15.3-58.38986l-14.7-3.93516v7.5l6 1.59023v3.13477h8.7zm0 8.88984h-8.7v3.13535l-6 1.58965v7.50001l14.7-3.93457zm0 16.80001h-14.7v8.7h14.7zm0 9.3h-14.7v2.7a9.0000027 9.0000027 0 0 0 0 .0006 9.0000027 9.0000027 0 0 0  9 9 9.0000027 9.0000027 0 0 0  5.7-2.05019v-9.6504zm0 14.1h-14.7v8.70001h14.7zm0 9.30001h-14.7v2.7a9.0000027 9.0000027 0 0 0 0 .0006 9.0000027 9.0000027 0 0 0  9 9 9.0000027 9.0000027 0 0 0  5.7-2.0502v-9.65039z" fill="#575d5e"/><g id="cover1" stroke="#4d4d4d"><rect id="rect4212" fill="#575d5e" height="81" rx="5" stroke-linecap="round" stroke-linejoin="round" stroke-width=".5" width="24" x="965.34998" y="83.299942"/><rect id="rect4214" fill="none" height="78" rx="3.5" stroke-linecap="round" stroke-linejoin="round" stroke-width=".5" width="21" x="966.84998" y="84.799942"/><g id="g4216" transform="matrix(.07350002 0 0 .07350002 968.28189 13.051306)"/><rect id="rect4218" fill="none" height="78" rx="3.5" stroke-linecap="round" stroke-linejoin="round" stroke-width=".5" width="21" x="966.84998" y="84.799942"/></g><g id="cover2" stroke="#4d4d4d"><rect id="rect4192" fill="#575d5e" height="81" rx="5" stroke-linecap="round" stroke-linejoin="round" stroke-width=".5" width="24" x="965.34998" y="433.84998"/><rect id="rect4194" fill="none" height="78" rx="3.5" stroke-linecap="round" stroke-linejoin="round" stroke-width=".5" width="21" x="966.84998" y="435.34998"/><g id="g4204" transform="matrix(.07350002 0 0 .07350002 968.28189 363.60136)"/><rect id="rect4208" fill="none" height="78" rx="3.5" stroke-linecap="round" stroke-linejoin="round" stroke-width=".5" width="21" x="966.84998" y="435.34998"/></g><g id="lock1"><rect id="rect4139" fill="#575d5e" height="81" rx="5" stroke="#4d4d4d" stroke-linecap="round" stroke-linejoin="round" stroke-width=".5" width="24" x="4.6499696" y="83.299942"/><rect id="rect4149" fill="none" height="78" rx="3.5" stroke="#4d4d4d" stroke-linecap="round" stroke-linejoin="round" stroke-width=".5" width="21" x="6.1499696" y="84.799942"/><rect id="rect4160" fill="none" height="11.2" stroke="#4d4d4d" stroke-linecap="round" stroke-linejoin="round" stroke-width=".5" width="24" x="4.6499696" y="136.19994"/><circle id="path4141" cx="16.649969" cy="141.79994" fill="#333" r="11.75" stroke="#4d4d4d" stroke-linecap="round" stroke-linejoin="round" stroke-width=".5"/><circle id="path4145" cx="16.649969" cy="141.79994" fill="#333" r="8.6000004" stroke="#4d4d4d" stroke-linecap="round" stroke-linejoin="round" stroke-width=".5"/><path id="path4147" d="m16.649969 146.73721l-4.25-2.46863v-4.93727l4.25-2.46864 4.25 2.46864v4.93727z" stroke="#4d4d4d" stroke-linecap="round" stroke-linejoin="round" stroke-width=".49999997"/><path id="path5180" d="m9.5493925 89.049944l-.964113 3.601501h1.9916775v-3.601501zm1.1745645 0v3.601501h1.991678l-.96397-3.601501zm4.116001 0v3.601501h2.131501v-3.601501zm2.278501 0v3.601501h2.231271a2.2050006 2.2050006 0 0 0 -.762993-.506319 1.6537505 1.6537505 0 0 0  .847116-1.441431 1.6537505 1.6537505 0 0 0 -1.65375-1.653751 1.6537505 1.6537505 0 0 0 -.000147 0h-.6615zm3.454501 0v3.601501h2.1315v-3.601501zm2.2785 0v3.601501h2.231271a2.2050006 2.2050006 0 0 0 -.762993-.506319 1.6537505 1.6537505 0 0 0  .847117-1.441431 1.6537505 1.6537505 0 0 0 -1.653751-1.653751 1.6537505 1.6537505 0 0 0 -.000147 0h-.6615zm-14.3055148 3.748501l-.9641137 3.601501h1.8375005l.3896074-1.47h.7680176v-2.131501zm2.1780118 0v2.131501h.768161l.389464 1.47h1.837501l-.96397-3.601501zm4.116001 0v3.601501h2.131501v-3.601501zm2.278501 0v3.601501h.6615a2.2050006 2.2050006 0 0 0  .000147 0 2.2050006 2.2050006 0 0 0  2.205-2.205 2.2050006 2.2050006 0 0 0 -.502298-1.396501h-2.364346zm3.454501 0v3.601501h2.1315v-3.601501zm2.2785 0v3.601501h.6615a2.2050006 2.2050006 0 0 0  .000147 0 2.2050006 2.2050006 0 0 0  2.205001-2.205 2.2050006 2.2050006 0 0 0 -.502298-1.396501h-2.364347z" fill="#333"/></g><g id="lock2"><rect id="rect4174" fill="#575d5e" height="81" rx="5" stroke="#4d4d4d" stroke-linecap="round" stroke-linejoin="round" stroke-width=".5" width="24" x="4.6499696" y="433.84998"/><rect id="rect4176" fill="none" height="78" rx="3.5" stroke="#4d4d4d" stroke-linecap="round" stroke-linejoin="round" stroke-width=".5" width="21" x="6.1499696" y="435.34998"/><rect id="rect4178" fill="none" height="11.2" stroke="#4d4d4d" stroke-linecap="round" stroke-linejoin="round" stroke-width=".5" width="24" x="4.6499696" y="486.75"/><circle id="circle4180" cx="16.649969" cy="492.34998" fill="#333" r="11.75" stroke="#4d4d4d" stroke-linecap="round" stroke-linejoin="round" stroke-width=".5"/><circle id="circle4182" cx="16.649969" cy="492.34998" fill="#333" r="8.6000004" stroke="#4d4d4d" stroke-linecap="round" stroke-linejoin="round" stroke-width=".5"/><path id="path4184" d="m16.649969 497.28726l-4.25-2.46863v-4.93727l4.25-2.46864 4.25 2.46864v4.93727z" stroke="#4d4d4d" stroke-linecap="round" stroke-linejoin="round" stroke-width=".49999997"/><path id="path4188" d="m9.5493925 439.6l-.964113 3.6015h1.9916775v-3.6015zm1.1745645 0v3.6015h1.991678l-.96397-3.6015zm4.116001 0v3.6015h2.131501v-3.6015zm2.278501 0v3.6015h2.231271a2.2050006 2.2050006 0 0 0 -.762993-.50632 1.6537505 1.6537505 0 0 0  .847116-1.44143 1.6537505 1.6537505 0 0 0 -1.65375-1.65375 1.6537505 1.6537505 0 0 0 -.000147 0h-.6615zm3.454501 0v3.6015h2.1315v-3.6015zm2.2785 0v3.6015h2.231271a2.2050006 2.2050006 0 0 0 -.762993-.50632 1.6537505 1.6537505 0 0 0  .847117-1.44143 1.6537505 1.6537505 0 0 0 -1.653751-1.65375 1.6537505 1.6537505 0 0 0 -.000147 0h-.6615zm-14.3055148 3.7485l-.9641137 3.6015h1.8375005l.3896074-1.47h.7680176v-2.1315zm2.1780118 0v2.1315h.768161l.389464 1.47h1.837501l-.96397-3.6015zm4.116001 0v3.6015h2.131501v-3.6015zm2.278501 0v3.6015h.6615a2.2050006 2.2050006 0 0 0  .000147 0 2.2050006 2.2050006 0 0 0  2.205-2.205 2.2050006 2.2050006 0 0 0 -.502298-1.3965h-2.364346zm3.454501 0v3.6015h2.1315v-3.6015zm2.2785 0v3.6015h.6615a2.2050006 2.2050006 0 0 0  .000147 0 2.2050006 2.2050006 0 0 0  2.205001-2.205 2.2050006 2.2050006 0 0 0 -.502298-1.3965h-2.364347z" fill="#333"/></g><text id="textBottom" line-height="125%" style="font-size:20;font-family:sans-serif;letter-spacing:0;word-spacing:0;text-anchor:middle;overflow:visible" x="497.20996" xml:space="preserve" y="576.14606"><tspan id="tspan4155-8-6" x="497.20996" y="576.14606">Text</tspan></text><text id="textTop" line-height="125%" style="font-size:20;font-family:sans-serif;letter-spacing:0;word-spacing:0;text-anchor:middle;overflow:visible" x="497.20996" xml:space="preserve" y="36.141033"><tspan id="tspan4653-9" x="497.20996" y="36.141033">Text</tspan></text></g></svg>