<svg id="svg2" height="1000" overflow="visible" viewBox="0 0 1350 1000" width="1350" xmlns="http://www.w3.org/2000/svg" xmlns:xlink="http://www.w3.org/1999/xlink"><clipPath id="clipPath4204-2"><rect id="rect4206" clip-path="url(#clipPath4204-2)" height="582.85712" rx="2.5" transform="translate(-8 -385.6582)" width="934.28571" x="-328.07089" y="296.94403"/></clipPath><clipPath id="clipPath4204-5"><rect id="rect4206-1" clip-path="url(#clipPath4204-5)" height="582.85712" rx="2.5" transform="translate(-8 -385.6582)" width="934.28571" x="-328.07089" y="296.94403"/></clipPath><clipPath id="clipPath4204-79"><rect id="rect4206-16" clip-path="url(#clipPath4204-79)" height="582.85712" rx="2.5" transform="translate(-8 -385.6582)" width="934.28571" x="-328.07089" y="296.94403"/></clipPath><g id="layer1" fill-rule="evenodd" stroke="#000" stroke-linecap="round" stroke-linejoin="round"><rect id="blindPanel" fill="#c5c7c4" height="999" width="1349"/><g id="screwLT"><circle id="path4176-6" cx="28.5" cy="28.5" fill="#ebebeb" r="6.5" stroke-width=".80000001"/><path id="path4192-7" d="m30.518 32.151l-1.96-1.936-2.009 2.008-1.766-1.758 2.002-1.993-2.008-1.977 1.739-1.718 1.962 1.972 1.974-1.944 1.715 1.741-1.905 1.929 1.961 1.958z" fill="#c0c0c0" stroke-width=".5"/></g><g id="screwRT"><circle id="circle4169" cx="1320.5" cy="28.5" fill="#ebebeb" r="6.5" stroke-width=".80000001"/><path id="path4171" d="m1322.5 32.151l-1.9-1.936-2.1 2.008-1.7-1.758 2-1.993-2-1.977 1.7-1.718 2 1.972 2-1.944 1.7 1.741-1.9 1.929 1.9 1.958z" fill="#c0c0c0" stroke-width=".5"/></g><g id="screwRB"><circle id="circle4177" cx="1320.5" cy="970.5" fill="#ebebeb" r="6.5" stroke-width=".80000001"/><path id="path4179" d="m1322.5 974.15l-1.9-1.93-2.1 2-1.7-1.75 2-2-2-1.97 1.7-1.72 2 1.97 2-1.94 1.7 1.74-1.9 1.93 1.9 1.95z" fill="#c0c0c0" stroke-width=".5"/></g><g id="screwLB"><circle id="circle4187" cx="28.5" cy="970.5" fill="#ebebeb" r="6.5" stroke-width=".80000001"/><path id="path4189" d="m30.518 974.15l-1.96-1.93-2.009 2-1.766-1.75 2.002-2-2.008-1.97 1.739-1.72 1.962 1.97 1.974-1.94 1.715 1.74-1.905 1.93 1.961 1.95z" fill="#c0c0c0" stroke-width=".5"/></g><path id="grid1350" d="m1038.5 84.02995v185.9401m24-185.9401v185.9401m0-185.9401v185.9401m24-185.9401v185.9401m24-185.9401v185.9401m24-185.9401v185.9401m24-185.9401v185.9401m24-185.9401v185.9401m24-185.9401v185.9401m24-185.9401v185.9401m24-185.9401v185.9401m-216 29.0599v185.9401m24-185.9401v185.9401m0-185.9401v185.9401m24-185.9401v185.9401m24-185.9401v185.9401m24-185.9401v185.9401m24-185.9401v185.9401m24-185.9401v185.9401m24-185.9401v185.9401m24-185.9401v185.9401m24-185.9401v185.9401m-216 29.0599v185.9401m24-185.9401v185.9401m0-185.9401v185.9401m24-185.9401v185.9401m24-185.9401v185.9401m24-185.9401v185.9401m24-185.9401v185.9401m24-185.9401v185.9401m24-185.9401v185.9401m24-185.9401v185.9401m24-185.9401v185.9401m-216 29.0599v185.9401m24-185.9401v185.9401m0-185.9401v185.9401m24-185.9401v185.9401m24-185.9401v185.9401m24-185.9401v185.9401m24-185.9401v185.9401m24-185.9401v185.9401m24-185.9401v185.9401m24-185.9401v185.9401m24-185.9401v185.9401m-511.00004-830.9401v185.9401m24-185.9401v185.9401m0-185.9401v185.9401m24-185.9401v185.9401m24-185.9401v185.9401m24-185.9401v185.9401m24-185.9401v185.9401m24-185.9401v185.9401m24-185.9401v185.9401m24-185.9401v185.9401m24-185.9401v185.9401m-216 29.0599v185.9401m24-185.9401v185.9401m0-185.9401v185.9401m24-185.9401v185.9401m24-185.9401v185.9401m24-185.9401v185.9401m24-185.9401v185.9401m24-185.9401v185.9401m24-185.9401v185.9401m24-185.9401v185.9401m24-185.9401v185.9401m-216 29.0599v185.9401m24-185.9401v185.9401m0-185.9401v185.9401m24-185.9401v185.9401m24-185.9401v185.9401m24-185.9401v185.9401m24-185.9401v185.9401m24-185.9401v185.9401m24-185.9401v185.9401m24-185.9401v185.9401m24-185.9401v185.9401m-216 29.0599v185.9401m24-185.9401v185.9401m0-185.9401v185.9401m24-185.9401v185.9401m24-185.9401v185.9401m24-185.9401v185.9401m24-185.9401v185.9401m24-185.9401v185.9401m24-185.9401v185.9401m24-185.9401v185.9401m24-185.9401v185.9401m-570-830.9401v185.9401m24-185.9401v185.9401m0-185.9401v185.9401m24-185.9401v185.9401m24-185.9401v185.9401m24-185.9401v185.9401m24-185.9401v185.9401m24-185.9401v185.9401m24-185.9401v185.9401m24-185.9401v185.9401m24-185.9401v185.9401m-216 29.0599v185.9401m24-185.9401v185.9401m0-185.9401v185.9401m24-185.9401v185.9401m24-185.9401v185.9401m24-185.9401v185.9401m24-185.9401v185.9401m24-185.9401v185.9401m24-185.9401v185.9401m24-185.9401v185.9401m24-185.9401v185.9401m-216 29.0599v185.9401m24-185.9401v185.9401m0-185.9401v185.9401m24-185.9401v185.9401m24-185.9401v185.9401m24-185.9401v185.9401m24-185.9401v185.9401m24-185.9401v185.9401m24-185.9401v185.9401m24-185.9401v185.9401m24-185.9401v185.9401m-216 29.0599v185.9401m24-185.9401v185.9401m0-185.9401v185.9401m24-185.9401v185.9401m24-185.9401v185.9401m24-185.9401v185.9401m24-185.9401v185.9401m24-185.9401v185.9401m24-185.9401v185.9401m24-185.9401v185.9401m24-185.9401v185.9401m-510.99971-830.9401v185.9401m24-185.9401v185.9401m0-185.9401v185.9401m24-185.9401v185.9401m24-185.9401v185.9401m24-185.9401v185.9401m24-185.9401v185.9401m24-185.9401v185.9401m24-185.9401v185.9401m24-185.9401v185.9401m24-185.9401v185.9401m-216 29.0599v185.9401m24-185.9401v185.9401m0-185.9401v185.9401m24-185.9401v185.9401m24-185.9401v185.9401m24-185.9401v185.9401m24-185.9401v185.9401m24-185.9401v185.9401m24-185.9401v185.9401m24-185.9401v185.9401m24-185.9401v185.9401m-216 29.0599v185.9401m24-185.9401v185.9401m0-185.9401v185.9401m24-185.9401v185.9401m24-185.9401v185.9401m24-185.9401v185.9401m24-185.9401v185.9401m24-185.9401v185.9401m24-185.9401v185.9401m24-185.9401v185.9401m24-185.9401v185.9401m-216 29.0599v185.9401m24-185.9401v185.9401m0-185.9401v185.9401m24-185.9401v185.9401m24-185.9401v185.9401m24-185.9401v185.9401m24-185.9401v185.9401m24-185.9401v185.9401m24-185.9401v185.9401m24-185.9401v185.9401m24-185.9401v185.9401" style="overflow:visible;fill:#00f;fill-rule:evenodd;stroke:#fff;stroke-width:5;stroke-linecap:round;stroke-dasharray:30 10"/><path id="grid1200" d="m1062.5001 729.02997v185.94006m-24-185.94006v185.94006m-239.99998-185.94006v185.94006m24-185.94006v185.94006m0-185.94006v185.94006m24-185.94006v185.94006m24-185.94006v185.94006m24-185.94006v185.94006m24-185.94006v185.94006m24-185.94006v185.94006m24-185.94006v185.94006m23.99998-185.94006v185.94006m24-185.94006v185.94006m-258.99998-185.94006v185.94006m-24-185.94006v185.94006m-24-185.94006v185.94006m-240.00007-185.94006v185.94006m24-185.94006v185.94006m0-185.94006v185.94006m24.00005-185.94006v185.94006m24-185.94006v185.94006m24-185.94006v185.94006m24-185.94006v185.94006m24-185.94006v185.94006m24-185.94006v185.94006m24-185.94006v185.94006m24.00002-185.94006v185.94006m-258.99987-185.94006v185.94006m-24-185.94006v185.94006m-24-185.94006v185.94006m-240-185.94006v185.94006m24-185.94006v185.94006m0-185.94006v185.94006m24-185.94006v185.94006m24-185.94006v185.94006m24-185.94006v185.94006m24-185.94006v185.94006m24-185.94006v185.94006m24-185.94006v185.94006m24-185.94006v185.94006m24-185.94006v185.94006m709.99985-400.94006v185.94006m-24-185.94006v185.94006m-239.99998-185.94006v185.94006m24-185.94006v185.94006m0-185.94006v185.94006m24-185.94006v185.94006m24-185.94006v185.94006m24-185.94006v185.94006m24-185.94006v185.94006m24-185.94006v185.94006m24-185.94006v185.94006m23.99998-185.94006v185.94006m24-185.94006v185.94006m-258.99998-185.94006v185.94006m-24-185.94006v185.94006m-24-185.94006v185.94006m-240.00007-185.94006v185.94006m24-185.94006v185.94006m0-185.94006v185.94006m24.00005-185.94006v185.94006m24-185.94006v185.94006m24-185.94006v185.94006m24-185.94006v185.94006m24-185.94006v185.94006m24-185.94006v185.94006m24-185.94006v185.94006m24.00002-185.94006v185.94006m-258.99987-185.94006v185.94006m-24-185.94006v185.94006m-24-185.94006v185.94006m-240-185.94006v185.94006m24-185.94006v185.94006m0-185.94006v185.94006m24-185.94006v185.94006m24-185.94006v185.94006m24-185.94006v185.94006m24-185.94006v185.94006m24-185.94006v185.94006m24-185.94006v185.94006m24-185.94006v185.94006m24-185.94006v185.94006m709.99985-400.94006v185.94006m-24-185.94006v185.94006m-239.99998-185.94006v185.94006m24-185.94006v185.94006m0-185.94006v185.94006m24-185.94006v185.94006m24-185.94006v185.94006m24-185.94006v185.94006m24-185.94006v185.94006m24-185.94006v185.94006m24-185.94006v185.94006m23.99998-185.94006v185.94006m24-185.94006v185.94006m-258.99998-185.94006v185.94006m-24-185.94006v185.94006m-24-185.94006v185.94006m-240.00007-185.94006v185.94006m24-185.94006v185.94006m0-185.94006v185.94006m24.00005-185.94006v185.94006m24-185.94006v185.94006m24-185.94006v185.94006m24-185.94006v185.94006m24-185.94006v185.94006m24-185.94006v185.94006m24-185.94006v185.94006m24.00002-185.94006v185.94006m-258.99987-185.94006v185.94006m-24-185.94006v185.94006m-24-185.94006v185.94006m-240-185.94006v185.94006m24-185.94006v185.94006m0-185.94006v185.94006m24-185.94006v185.94006m24-185.94006v185.94006m24-185.94006v185.94006m24-185.94006v185.94006m24-185.94006v185.94006m24-185.94006v185.94006m24-185.94006v185.94006m24-185.94006v185.94006m709.99985-400.94006v185.94006m-24-185.94006v185.94006m-239.99998-185.94006v185.94006m24-185.94006v185.94006m0-185.94006v185.94006m24-185.94006v185.94006m24-185.94006v185.94006m24-185.94006v185.94006m24-185.94006v185.94006m24-185.94006v185.94006m24-185.94006v185.94006m23.99998-185.94006v185.94006m24-185.94006v185.94006m-258.99998-185.94006v185.94006m-24-185.94006v185.94006m-24-185.94006v185.94006m-240.00007-185.94006v185.94006m24-185.94006v185.94006m0-185.94006v185.94006m24.00005-185.94006v185.94006m24-185.94006v185.94006m24-185.94006v185.94006m24-185.94006v185.94006m24-185.94006v185.94006m24-185.94006v185.94006m24-185.94006v185.94006m24.00002-185.94006v185.94006m-258.99987-185.94006v185.94006m-24-185.94006v185.94006m-24-185.94006v185.94006m-240-185.94006v185.94006m24-185.94006v185.94006m0-185.94006v185.94006m24-185.94006v185.94006m24-185.94006v185.94006m24-185.94006v185.94006m24-185.94006v185.94006m24-185.94006v185.94006m24-185.94006v185.94006m24-185.94006v185.94006m24-185.94006v185.94006" style="overflow:visible;fill:#00f;fill-rule:evenodd;stroke:#fff;stroke-width:5;stroke-linecap:round;stroke-dasharray:30 10"/><path id="grid1100" d="m988.0001 729.03v185.94m-24-185.94v185.94m-240-185.94v185.94m24-185.94v185.94m0-185.94v185.94m24-185.94v185.94m24-185.94v185.94m24-185.94v185.94m24-185.94v185.94m24-185.94v185.94m24-185.94v185.94m24-185.94v185.94m24-185.94v185.94m-258.00008-185.94v185.94m-24-185.94v185.94m-240.00005-185.94v185.94m24-185.94v185.94m0-185.94v185.94m24.00005-185.94v185.94m24-185.94v185.94m24-185.94v185.94m24-185.94v185.94m24-185.94v185.94m24-185.94v185.94m24-185.94v185.94m24-185.94v185.94m-257.99977-185.94v185.94m-24-185.94v185.94m-240-185.94v185.94m24-185.94v185.94m0-185.94v185.94m24-185.94v185.94m24-185.94v185.94m24-185.94v185.94m24-185.94v185.94m24-185.94v185.94m24-185.94v185.94m24-185.94v185.94m24-185.94v185.94m659.99985-400.94v185.94m-24-185.94v185.94m-240-185.94v185.94m24-185.94v185.94m0-185.94v185.94m24-185.94v185.94m24-185.94v185.94m24-185.94v185.94m24-185.94v185.94m24-185.94v185.94m24-185.94v185.94m24-185.94v185.94m24-185.94v185.94m-258.00008-185.94v185.94m-24-185.94v185.94m-240.00005-185.94v185.94m24-185.94v185.94m0-185.94v185.94m24.00005-185.94v185.94m24-185.94v185.94m24-185.94v185.94m24-185.94v185.94m24-185.94v185.94m24-185.94v185.94m24-185.94v185.94m24-185.94v185.94m-257.99977-185.94v185.94m-24-185.94v185.94m-240-185.94v185.94m24-185.94v185.94m0-185.94v185.94m24-185.94v185.94m24-185.94v185.94m24-185.94v185.94m24-185.94v185.94m24-185.94v185.94m24-185.94v185.94m24-185.94v185.94m24-185.94v185.94m659.99985-400.94v185.94m-24-185.94v185.94m-240-185.94v185.94m24-185.94v185.94m0-185.94v185.94m24-185.94v185.94m24-185.94v185.94m24-185.94v185.94m24-185.94v185.94m24-185.94v185.94m24-185.94v185.94m24-185.94v185.94m24-185.94v185.94m-258.00008-185.94v185.94m-24-185.94v185.94m-240.00005-185.94v185.94m24-185.94v185.94m0-185.94v185.94m24.00005-185.94v185.94m24-185.94v185.94m24-185.94v185.94m24-185.94v185.94m24-185.94v185.94m24-185.94v185.94m24-185.94v185.94m24-185.94v185.94m-257.99977-185.94v185.94m-24-185.94v185.94m-240-185.94v185.94m24-185.94v185.94m0-185.94v185.94m24-185.94v185.94m24-185.94v185.94m24-185.94v185.94m24-185.94v185.94m24-185.94v185.94m24-185.94v185.94m24-185.94v185.94m24-185.94v185.94m659.99985-400.94v185.94m-24-185.94v185.94m-240-185.94v185.94m24-185.94v185.94m0-185.94v185.94m24-185.94v185.94m24-185.94v185.94m24-185.94v185.94m24-185.94v185.94m24-185.94v185.94m24-185.94v185.94m24-185.94v185.94m24-185.94v185.94m-258.00008-185.94v185.94m-24-185.94v185.94m-240.00005-185.94v185.94m24-185.94v185.94m0-185.94v185.94m24.00005-185.94v185.94m24-185.94v185.94m24-185.94v185.94m24-185.94v185.94m24-185.94v185.94m24-185.94v185.94m24-185.94v185.94m24-185.94v185.94m-257.99977-185.94v185.94m-24-185.94v185.94m-240-185.94v185.94m24-185.94v185.94m0-185.94v185.94m24-185.94v185.94m24-185.94v185.94m24-185.94v185.94m24-185.94v185.94m24-185.94v185.94m24-185.94v185.94m24-185.94v185.94m24-185.94v185.94" style="overflow:visible;fill:#00f;fill-rule:evenodd;stroke:#fff;stroke-width:5;stroke-linecap:round;stroke-dasharray:30 10"/><path id="grid1000" d="m385.50025 729.0271v185.9401m0-400.9401v185.9401m0-400.9401v185.9401m24-400.9344v185.94m-67-185.94v185.94m-24-185.94v185.94m-24-185.94v185.94m-24-185.94v185.94m-24-185.94v185.94m-24-185.94v185.94m-24-185.94v185.94m-24-185.94v185.94m-24-185.94v185.94m0-185.94v185.94m-24-185.94v185.94m258.99982-185.94v185.94m48-185.94v185.94m246.89993-185.94v185.94m-24-185.94v185.94m-53.90008-185.94v185.94m-24-185.94v185.94m-24-185.94v185.94m-24-185.94v185.94m-24-185.94v185.94m-24.00005-185.94v185.94m0-185.94v185.94m-24-185.94v185.94m245.90013-185.94v185.94m24-185.94v185.94m24-185.94v185.94m120.1001-185.94v185.94m-24-185.94v185.94m-24-185.94v185.94m-24-185.94v185.94m0-185.94v185.94m-24-185.94v185.94m-433.99985 29.0543v185.9401m-24-185.9401v185.9401m-24-185.9401v185.9401m-24-185.9401v185.9401m-24-185.9401v185.9401m-24-185.9401v185.9401m-24-185.9401v185.9401m-24-185.9401v185.9401m-24-185.9401v185.9401m0-185.9401v185.9401m-24-185.9401v185.9401m282.99975-185.9401v185.9401m24.00007-185.9401v185.9401m246.89993-185.9401v185.9401m-24-185.9401v185.9401m-53.90008-185.9401v185.9401m-24-185.9401v185.9401m-24-185.9401v185.9401m-24-185.9401v185.9401m-24-185.9401v185.9401m-24.00005-185.9401v185.9401m0-185.9401v185.9401m-24-185.9401v185.9401m245.90013-185.9401v185.9401m24-185.9401v185.9401m24-185.9401v185.9401m120.1001-185.9401v185.9401m-24-185.9401v185.9401m-24-185.9401v185.9401m-24-185.9401v185.9401m0-185.9401v185.9401m-24-185.9401v185.9401m-433.99985 29.0599v185.9401m-24-185.9401v185.9401m-24-185.9401v185.9401m-24-185.9401v185.9401m-24-185.9401v185.9401m-24-185.9401v185.9401m-24-185.9401v185.9401m-24-185.9401v185.9401m-24-185.9401v185.9401m0-185.9401v185.9401m-24-185.9401v185.9401m282.99975-185.9401v185.9401m24.00007-185.9401v185.9401m246.89993-185.9401v185.9401m-24-185.9401v185.9401m-53.90008-185.9401v185.9401m-24-185.9401v185.9401m-24-185.9401v185.9401m-24-185.9401v185.9401m-24-185.9401v185.9401m-24.00005-185.9401v185.9401m0-185.9401v185.9401m-24-185.9401v185.9401m245.90013-185.9401v185.9401m24-185.9401v185.9401m24-185.9401v185.9401m120.1001-185.9401v185.9401m-24-185.9401v185.9401m-24-185.9401v185.9401m-24-185.9401v185.9401m0-185.9401v185.9401m-24-185.9401v185.9401m-433.99985 29.0599v185.9401m-24-185.9401v185.9401m-24-185.9401v185.9401m-24-185.9401v185.9401m-24-185.9401v185.9401m-24-185.9401v185.9401m-24-185.9401v185.9401m-24-185.9401v185.9401m-24-185.9401v185.9401m0-185.9401v185.9401m-24-185.9401v185.9401m282.99975-185.9401v185.9401m24.00007-185.9401v185.9401m246.89993-185.9401v185.9401m-24-185.9401v185.9401m-53.90008-185.9401v185.9401m-24-185.9401v185.9401m-24-185.9401v185.9401m-24-185.9401v185.9401m-24-185.9401v185.9401m-24.00005-185.9401v185.9401m0-185.9401v185.9401m-24-185.9401v185.9401m245.90013-185.9401v185.9401m24-185.9401v185.9401m24-185.9401v185.9401m120.1001-185.9401v185.9401m-24-185.9401v185.9401m-24-185.9401v185.9401m-24-185.9401v185.9401m0-185.9401v185.9401m-24-185.9401v185.9401" style="overflow:visible;fill:#00f;fill-rule:evenodd;stroke:#fff;stroke-width:5;stroke-linecap:round;stroke-dasharray:30 10"/><path id="grid850" d="m557.49996 729.0272v185.94m24-185.94v185.94m0-185.94v185.94m24-185.94v185.94m24-185.94v185.94m24-185.94v185.94m24-185.94v185.94m24-185.94v185.94m24-185.94v185.94m-385-185.94v185.94m24-185.94v185.94m0-185.94v185.94m24-185.94v185.94m24-185.94v185.94m24-185.94v185.94m24-185.94v185.94m24-185.94v185.94m24-185.94v185.94m-384.99971-185.94v185.94m24-185.94v185.94m0-185.94v185.94m24-185.94v185.94m24-185.94v185.94m24-185.94v185.94m24-185.94v185.94m24-185.94v185.94m24-185.94v185.94m265.99971-400.94v185.94m24-185.94v185.94m0-185.94v185.94m24-185.94v185.94m24-185.94v185.94m24-185.94v185.94m24-185.94v185.94m24-185.94v185.94m24-185.94v185.94m-385-185.94v185.94m24-185.94v185.94m0-185.94v185.94m24-185.94v185.94m24-185.94v185.94m24-185.94v185.94m24-185.94v185.94m24-185.94v185.94m24-185.94v185.94m-384.99971-185.94v185.94m24-185.94v185.94m0-185.94v185.94m24-185.94v185.94m24-185.94v185.94m24-185.94v185.94m24-185.94v185.94m24-185.94v185.94m24-185.94v185.94m265.99971-400.94v185.94m24-185.94v185.94m0-185.94v185.94m24-185.94v185.94m24-185.94v185.94m24-185.94v185.94m24-185.94v185.94m24-185.94v185.94m24-185.94v185.94m-385-185.94v185.94m24-185.94v185.94m0-185.94v185.94m24-185.94v185.94m24-185.94v185.94m24-185.94v185.94m24-185.94v185.94m24-185.94v185.94m24-185.94v185.94m-384.99971-185.94v185.94m24-185.94v185.94m0-185.94v185.94m24-185.94v185.94m24-185.94v185.94m24-185.94v185.94m24-185.94v185.94m24-185.94v185.94m24-185.94v185.94m265.99971-400.9344v185.9401m24-185.9401v185.9401m0-185.9401v185.9401m24-185.9401v185.9401m24-185.9401v185.9401m24-185.9401v185.9401m24-185.9401v185.9401m24-185.9401v185.9401m24-185.9401v185.9401m-385-185.9401v185.9401m24-185.9401v185.9401m0-185.9401v185.9401m24-185.9401v185.9401m24-185.9401v185.9401m24-185.9401v185.9401m24-185.9401v185.9401m24-185.9401v185.9401m24-185.9401v185.9401m-384.99971-185.9401v185.9401m24-185.9401v185.9401m0-185.9401v185.9401m24-185.9401v185.9401m24-185.9401v185.9401m24-185.9401v185.9401m24-185.9401v185.9401m24-185.9401v185.9401m24-185.9401v185.9401" style="overflow:visible;fill:#00f;stroke:#fff;stroke-width:5;stroke-linecap:round;stroke-dasharray:30 10"/><path id="grid800" d="m339.50025 729.0271v185.9401m0-400.9401v185.9401m0-400.9401v185.9401m24-400.9344v185.94m-48.00025-185.94v185.94m-48.99975-185.94v185.94m-24-185.94v185.94m-24-185.94v185.94m-24-185.94v185.94m-24-185.94v185.94m-24-185.94v185.94m-24-185.94v185.94m0-185.94v185.94m-24-185.94v185.94m240.99982-185.94v185.94m48-185.94v185.94m216.89993-185.94v185.94m-24-185.94v185.94m-23.90008-185.94v185.94m-24-185.94v185.94m-48-185.94v185.94m-24-185.94v185.94m-24.00005-185.94v185.94m0-185.94v185.94m-24-185.94v185.94m215.90013-185.94v185.94m24-185.94v185.94m24-185.94v185.94m24.1001-185.94v185.94m-385.0001 29.0543v185.9401m-48.99975-185.9401v185.9401m-24-185.9401v185.9401m-24-185.9401v185.9401m-24-185.9401v185.9401m-24-185.9401v185.9401m-24-185.9401v185.9401m-24-185.9401v185.9401m0-185.9401v185.9401m-24-185.9401v185.9401m264.99975-185.9401v185.9401m24.00007-185.9401v185.9401m216.89993-185.9401v185.9401m-24-185.9401v185.9401m-23.90008-185.9401v185.9401m-24-185.9401v185.9401m-48-185.9401v185.9401m-24-185.9401v185.9401m-24.00005-185.9401v185.9401m0-185.9401v185.9401m-24-185.9401v185.9401m215.90013-185.9401v185.9401m24-185.9401v185.9401m24-185.9401v185.9401m24.1001-185.9401v185.9401m-385.0001 29.0599v185.9401m-48.99975-185.9401v185.9401m-24-185.9401v185.9401m-24-185.9401v185.9401m-24-185.9401v185.9401m-24-185.9401v185.9401m-24-185.9401v185.9401m-24-185.9401v185.9401m0-185.9401v185.9401m-24-185.9401v185.9401m264.99975-185.9401v185.9401m24.00007-185.9401v185.9401m216.89993-185.9401v185.9401m-24-185.9401v185.9401m-23.90008-185.9401v185.9401m-24-185.9401v185.9401m-48-185.9401v185.9401m-24-185.9401v185.9401m-24.00005-185.9401v185.9401m0-185.9401v185.9401m-24-185.9401v185.9401m215.90013-185.9401v185.9401m24-185.9401v185.9401m24-185.9401v185.9401m24.1001-185.9401v185.9401m-385.0001 29.0599v185.9401m-48.99975-185.9401v185.9401m-24-185.9401v185.9401m-24-185.9401v185.9401m-24-185.9401v185.9401m-24-185.9401v185.9401m-24-185.9401v185.9401m-24-185.9401v185.9401m0-185.9401v185.9401m-24-185.9401v185.9401m264.99975-185.9401v185.9401m24.00007-185.9401v185.9401m216.89993-185.9401v185.9401m-24-185.9401v185.9401m-23.90008-185.9401v185.9401m-24-185.9401v185.9401m-48-185.9401v185.9401m-24-185.9401v185.9401m-24.00005-185.9401v185.9401m0-185.9401v185.9401m-24-185.9401v185.9401m215.90013-185.9401v185.9401m24-185.9401v185.9401m24-185.9401v185.9401m24.1001-185.9401v185.9401" style="overflow:visible;fill:#00f;stroke:#fff;stroke-width:5;stroke-linecap:round;stroke-dasharray:30 10"/><path id="grid600" d="m494.99996 84.0328v185.94m-24-185.94v185.94m-24-185.94v185.94m-24-185.94v185.94m-24-185.94v185.94m-24-185.94v185.94m-24-185.94v185.94m0-185.94v185.94m-24-185.94v185.94m168 29.0543v185.9401m-24-185.9401v185.9401m-24-185.9401v185.9401m-24-185.9401v185.9401m-24-185.9401v185.9401m-24-185.9401v185.9401m-24-185.9401v185.9401m0-185.9401v185.9401m-24-185.9401v185.9401m168 29.0599v185.9401m-24-185.9401v185.9401m-24-185.9401v185.9401m-24-185.9401v185.9401m-24-185.9401v185.9401m-24-185.9401v185.9401m-24-185.9401v185.9401m0-185.9401v185.9401m-24-185.9401v185.9401m168 29.0599v185.9401m-24-185.9401v185.9401m-24-185.9401v185.9401m-24-185.9401v185.9401m-24-185.9401v185.9401m-24-185.9401v185.9401m-24-185.9401v185.9401m0-185.9401v185.9401m-24-185.9401v185.9401m-54.99996-830.9344v185.94m-24-185.94v185.94m-24-185.94v185.94m-24-185.94v185.94m-24-185.94v185.94m-24-185.94v185.94m-24-185.94v185.94m0-185.94v185.94m-24-185.94v185.94m168 29.0543v185.9401m-24-185.9401v185.9401m-24-185.9401v185.9401m-24-185.9401v185.9401m-24-185.9401v185.9401m-24-185.9401v185.9401m-24-185.9401v185.9401m0-185.9401v185.9401m-24-185.9401v185.9401m168 29.0599v185.9401m-24-185.9401v185.9401m-24-185.9401v185.9401m-24-185.9401v185.9401m-24-185.9401v185.9401m-24-185.9401v185.9401m-24-185.9401v185.9401m0-185.9401v185.9401m-24-185.9401v185.9401m168 29.0599v185.9401m-24-185.9401v185.9401m-24-185.9401v185.9401m-24-185.9401v185.9401m-24-185.9401v185.9401m-24-185.9401v185.9401m-24-185.9401v185.9401m0-185.9401v185.9401m-24-185.9401v185.9401" style="overflow:visible;fill:#fff;stroke:#fff;stroke-width:5;stroke-linecap:round;stroke-dasharray:30 10"/><path id="grid500" d="m396.99996 84.0328v185.94m-24-185.94v185.94m-24-185.94v185.94m-24-185.94v185.94m-24-185.94v185.94m0-185.94v185.94m-24-185.94v185.94m120 29.0543v185.9401m-24-185.9401v185.9401m-24-185.9401v185.9401m-24-185.9401v185.9401m-24-185.9401v185.9401m0-185.9401v185.9401m-24-185.9401v185.9401m120 29.0599v185.9401m-24-185.9401v185.9401m-24-185.9401v185.9401m-24-185.9401v185.9401m-24-185.9401v185.9401m0-185.9401v185.9401m-24-185.9401v185.9401m120 29.0599v185.9401m-24-185.9401v185.9401m-24-185.9401v185.9401m-24-185.9401v185.9401m-24-185.9401v185.9401m0-185.9401v185.9401m-24-185.9401v185.9401m-54.99971-830.9344v185.94m-24-185.94v185.94m-24-185.94v185.94m-24-185.94v185.94m-24-185.94v185.94m0-185.94v185.94m-24-185.94v185.94m120 29.0543v185.9401m-24-185.9401v185.9401m-24-185.9401v185.9401m-24-185.9401v185.9401m-24-185.9401v185.9401m0-185.9401v185.9401m-24-185.9401v185.9401m120 29.0599v185.9401m-24-185.9401v185.9401m-24-185.9401v185.9401m-24-185.9401v185.9401m-24-185.9401v185.9401m0-185.9401v185.9401m-24-185.9401v185.9401m120 29.0599v185.9401m-24-185.9401v185.9401m-24-185.9401v185.9401m-24-185.9401v185.9401m-24-185.9401v185.9401m0-185.9401v185.9401m-24-185.9401v185.9401" style="overflow:visible;fill:#fff;stroke:#fff;stroke-width:5;stroke-linecap:round;stroke-dasharray:30 10"/><path id="grid400" d="m283.50025 84.0328v185.94m-24-185.94v185.94m-24-185.94v185.94m-24-185.94v185.94m-24-185.94v185.94m-24-185.94v185.94m-24-185.94v185.94m0-185.94v185.94m-24-185.94v185.94m168 29.0543v185.9401m-24-185.9401v185.9401m-24-185.9401v185.9401m-24-185.9401v185.9401m-24-185.9401v185.9401m-24-185.9401v185.9401m-24-185.9401v185.9401m0-185.9401v185.9401m-24-185.9401v185.9401m168 29.0599v185.9401m-24-185.9401v185.9401m-24-185.9401v185.9401m-24-185.9401v185.9401m-24-185.9401v185.9401m-24-185.9401v185.9401m-24-185.9401v185.9401m0-185.9401v185.9401m-24-185.9401v185.9401m168 29.0599v185.9401m-24-185.9401v185.9401m-24-185.9401v185.9401m-24-185.9401v185.9401m-24-185.9401v185.9401m-24-185.9401v185.9401m-24-185.9401v185.9401m0-185.9401v185.9401m-24-185.9401v185.9401" style="overflow:visible;fill:#fff;stroke:#fff;stroke-width:5;stroke-linecap:round;stroke-dasharray:30 10"/><path id="grid350" d="m258.50025 84.0328v185.94m-24-185.94v185.94m-24-185.94v185.94m-24-185.94v185.94m-24-185.94v185.94m-24-185.94v185.94m-24-185.94v185.94m0-185.94v185.94m-24-185.94v185.94m168 29.0543v185.9401m-24-185.9401v185.9401m-24-185.9401v185.9401m-24-185.9401v185.9401m-24-185.9401v185.9401m-24-185.9401v185.9401m-24-185.9401v185.9401m0-185.9401v185.9401m-24-185.9401v185.9401m168 29.0599v185.9401m-24-185.9401v185.9401m-24-185.9401v185.9401m-24-185.9401v185.9401m-24-185.9401v185.9401m-24-185.9401v185.9401m-24-185.9401v185.9401m0-185.9401v185.9401m-24-185.9401v185.9401m168 29.0599v185.9401m-24-185.9401v185.9401m-24-185.9401v185.9401m-24-185.9401v185.9401m-24-185.9401v185.9401m-24-185.9401v185.9401m-24-185.9401v185.9401m0-185.9401v185.9401m-24-185.9401v185.9401" style="overflow:visible;fill:#fff;stroke:#fff;stroke-width:5;stroke-linecap:round;stroke-dasharray:30 10"/></g></svg>