<svg id="svg2" height="1000" overflow="visible" viewBox="0 0 1200 1000" width="1200" xmlns="http://www.w3.org/2000/svg"><g id="layer1" stroke="#000" stroke-linecap="round"><rect id="blindPanel" fill="#c5c7c4" fill-rule="evenodd" height="999" stroke-linejoin="round" width="1199"/><g id="screwLT" fill-rule="evenodd" stroke-linejoin="round"><circle id="path4176-6" cx="28.5" cy="28.5" fill="#ebebeb" r="6.5" stroke-width=".80000001"/><path id="path4192-7" d="m30.518 32.151l-1.96-1.936-2.009 2.008-1.766-1.758 2.002-1.993-2.008-1.977 1.739-1.718 1.962 1.972 1.974-1.944 1.715 1.741-1.905 1.929 1.961 1.958z" fill="#c0c0c0" stroke-width=".5"/></g><g id="screwRT" fill-rule="evenodd" stroke-linejoin="round"><circle id="circle4169" cx="1170.5" cy="28.5" fill="#ebebeb" r="6.5" stroke-width=".80000001"/><path id="path4171" d="m1172.5 32.151l-1.9-1.936-2.1 2.008-1.7-1.758 2-1.993-2-1.977 1.7-1.718 2 1.972 2-1.944 1.7 1.741-1.9 1.929 1.9 1.958z" fill="#c0c0c0" stroke-width=".5"/></g><g id="screwRB" fill-rule="evenodd" stroke-linejoin="round"><circle id="circle4177" cx="1170.5" cy="970.5" fill="#ebebeb" r="6.5" stroke-width=".80000001"/><path id="path4179" d="m1172.5 974.15l-1.9-1.93-2.1 2-1.7-1.75 2-2-2-1.97 1.7-1.72 2 1.97 2-1.94 1.7 1.74-1.9 1.93 1.9 1.95z" fill="#c0c0c0" stroke-width=".5"/></g><g id="screwLB" fill-rule="evenodd" stroke-linejoin="round"><circle id="circle4187" cx="28.5" cy="970.5" fill="#ebebeb" r="6.5" stroke-width=".80000001"/><path id="path4189" d="m30.518 974.15l-1.96-1.93-2.009 2-1.766-1.75 2.002-2-2.008-1.97 1.739-1.72 1.962 1.97 1.974-1.94 1.715 1.74-1.905 1.93 1.961 1.95z" fill="#c0c0c0" stroke-width=".5"/></g><g id="CutOut" fill="#fff" stroke-width=".5"><rect id="rect4173" height="180" width="470" x="637.25" y="709.25"/><rect id="rect4171" height="180" width="470" x="91.75" y="709.25"/></g><path id="grid3" d="m1080.5 457.68819v185.94006m-24-185.94006v185.94006m-24-185.94006v185.94006m-240-185.94006v185.94006m24-185.94006v185.94006m0-185.94006v185.94006m24-185.94006v185.94006m24-185.94006v185.94006m24-185.94006v185.94006m24-185.94006v185.94006m24-185.94006v185.94006m24-185.94006v185.94006m24-185.94006v185.94006m24-185.94006v185.94006m-265-185.94006v185.94006m-24-185.94006v185.94006m-24-185.94006v185.94006m-240-185.94006v185.94006m24-185.94006v185.94006m0-185.94006v185.94006m24-185.94006v185.94006m24-185.94006v185.94006m24-185.94006v185.94006m24-185.94006v185.94006m24-185.94006v185.94006m24-185.94006v185.94006m24-185.94006v185.94006m24-185.94006v185.94006m-264.99975-185.94006v185.94006m-24-185.94006v185.94006m-24-185.94006v185.94006m-240-185.94006v185.94006m24-185.94006v185.94006m0-185.94006v185.94006m24-185.94006v185.94006m24-185.94006v185.94006m24-185.94006v185.94006m24-185.94006v185.94006m24-185.94006v185.94006m24-185.94006v185.94006m24-185.94006v185.94006m24-185.94006v185.94006" style="fill:#00f;fill-rule:evenodd;stroke:#fff;stroke-width:5;stroke-linecap:round;stroke-dasharray:30 10"/><path id="grid2" d="m1080.5 257.68796v185.94006m-24-185.94006v185.94006m-24-185.94006v185.94006m-240-185.94006v185.94006m24-185.94006v185.94006m0-185.94006v185.94006m24-185.94006v185.94006m24-185.94006v185.94006m24-185.94006v185.94006m24-185.94006v185.94006m24-185.94006v185.94006m24-185.94006v185.94006m24-185.94006v185.94006m24-185.94006v185.94006m-265-185.94006v185.94006m-24-185.94006v185.94006m-24-185.94006v185.94006m-240-185.94006v185.94006m24-185.94006v185.94006m0-185.94006v185.94006m24-185.94006v185.94006m24-185.94006v185.94006m24-185.94006v185.94006m24-185.94006v185.94006m24-185.94006v185.94006m24-185.94006v185.94006m24-185.94006v185.94006m24-185.94006v185.94006m-264.99975-185.94006v185.94006m-24-185.94006v185.94006m-24-185.94006v185.94006m-240-185.94006v185.94006m24-185.94006v185.94006m0-185.94006v185.94006m24-185.94006v185.94006m24-185.94006v185.94006m24-185.94006v185.94006m24-185.94006v185.94006m24-185.94006v185.94006m24-185.94006v185.94006m24-185.94006v185.94006m24-185.94006v185.94006" style="fill:#00f;fill-rule:evenodd;stroke:#fff;stroke-width:5;stroke-linecap:round;stroke-dasharray:30 10"/><path id="grid1" d="m1080.5 57.68797v185.94006m-24-185.94006v185.94006m-24-185.94006v185.94006m-240-185.94006v185.94006m24-185.94006v185.94006m0-185.94006v185.94006m24-185.94006v185.94006m24-185.94006v185.94006m24-185.94006v185.94006m24-185.94006v185.94006m24-185.94006v185.94006m24-185.94006v185.94006m24-185.94006v185.94006m24-185.94006v185.94006m-265-185.94006v185.94006m-24-185.94006v185.94006m-24-185.94006v185.94006m-240-185.94006v185.94006m24-185.94006v185.94006m0-185.94006v185.94006m24-185.94006v185.94006m24-185.94006v185.94006m24-185.94006v185.94006m24-185.94006v185.94006m24-185.94006v185.94006m24-185.94006v185.94006m24-185.94006v185.94006m24-185.94006v185.94006m-264.99975-185.94006v185.94006m-24-185.94006v185.94006m-24-185.94006v185.94006m-240-185.94006v185.94006m24-185.94006v185.94006m0-185.94006v185.94006m24-185.94006v185.94006m24-185.94006v185.94006m24-185.94006v185.94006m24-185.94006v185.94006m24-185.94006v185.94006m24-185.94006v185.94006m24-185.94006v185.94006m24-185.94006v185.94006" style="fill:#00f;fill-rule:evenodd;stroke:#fff;stroke-width:5;stroke-linecap:round;stroke-dasharray:30 10"/></g></svg>