<svg id="svg2" height="1192.5" overflow="visible" viewBox="0 0 994.80001 1192.4999" width="994.79999" xmlns="http://www.w3.org/2000/svg"><g id="layer1"><g id="CBBS" fill="#c6782e" fill-rule="evenodd" stroke="#000" stroke-linecap="square"><rect id="C1" height="526.70001" stroke-width=".80000001" width="80" x="410.75" y="406"/><rect id="C2" height="544.70001" stroke-width=".79999948" width="80" x="308.25" y="203"/><rect id="C3" height="562.70001" stroke-width=".79999995" width="80" x="205.75"/><rect id="C4" height="231.2" stroke-width=".80000073" width="80" x="103.25" y="609"/></g><g id="DBBS" fill="#c6782e" fill-rule="evenodd" stroke="#000" stroke-linecap="square" stroke-width=".80000001"><rect id="D1" height="10" width="900" x="47" y="552.75"/><rect id="D2" height="10" width="900" x="47" y="737.75"/><rect id="D3" height="10" width="900" x="47" y="922.75"/><rect id="D4" height="10" width="900" x="47" y="830.25"/></g><g id="traverse2" fill="#e0e0e0" stroke="#808080" stroke-linecap="round" stroke-width=".80000001"><rect id="rect4182" height="50" width="900" x="47" y="293.69995"/><rect id="rect4184" height="30" width="900" x="47" y="303.69995"/></g><g id="traverse1" fill="#e0e0e0" stroke="#808080" stroke-linecap="round" stroke-width=".80000001"><rect id="rect4294" height="50" width="900" x="47" y="1141.7"/><rect id="rect4296" height="30" width="900" x="47" y="1151.7"/></g><rect id="barT" fill="#e0e0e0" height="50" stroke="#000" stroke-linecap="round" stroke-width=".80000001" width="900" x="47" y="438.19995"/><rect id="barB" fill="#e0e0e0" height="50" stroke="#000" stroke-linecap="round" stroke-width=".80000001" width="900" x="47" y="997.19995"/><g id="barIinsulator" fill="#f00" stroke="#000" stroke-width=".5"><rect id="b1" height="410" width="15" x="264.49994" y="537.69983"/><rect id="b2" height="410" width="15" x="414.49994" y="537.69983"/><rect id="b3" height="410" width="15" x="564.49994" y="537.69983"/><rect id="b4" height="410" width="15" x="714.50006" y="537.69983"/></g><path id="seg1" d="m97 492.20059v500.99998h200v-500.99998zm12.5 50.5h11v13.25h-1.10156v3.5h1.10156v13.25h-11v-13.25h2.59961v-3.5h-2.59961zm14 0h11v13.25h-2.59961v3.5h2.59961v13.25h-11v-13.25h1.10156v-3.5h-1.10156zm36 0h11v13.25h-1.10156v3.5h1.10156v13.25h-11v-13.25h2.59961v-3.5h-2.59961zm14 0h11v13.25h-2.59961v3.5h2.59961v13.25h-11v-13.25h1.10156v-3.5h-1.10156zm36 0h11v13.25h-1.10156v3.5h1.10156v13.25h-11v-13.25h2.59961v-3.5h-2.59961zm14 0h11v13.25h-2.59961v3.5h2.59961v13.25h-11v-13.25h1.10156v-3.5h-1.10156zm36 0h11v13.25h-1.10156v3.5h1.10156v13.25h-11v-13.25h2.59961v-3.5h-2.59961zm14 0h11v13.25h-2.59961v3.5h2.59961v13.25h-11v-13.25h1.10156v-3.5h-1.10156zm-164 97.5h11v13.25h-1.10156v3.5h1.10156v13.25h-11v-13.25h2.59961v-3.5h-2.59961zm14 0h11v13.25h-2.59961v3.5h2.59961v13.25h-11v-13.25h1.10156v-3.5h-1.10156zm36 0h11v13.25h-1.10156v3.5h1.10156v13.25h-11v-13.25h2.59961v-3.5h-2.59961zm14 0h11v13.25h-2.59961v3.5h2.59961v13.25h-11v-13.25h1.10156v-3.5h-1.10156zm36 0h11v13.25h-1.10156v3.5h1.10156v13.25h-11v-13.25h2.59961v-3.5h-2.59961zm14 0h11v13.25h-2.59961v3.5h2.59961v13.25h-11v-13.25h1.10156v-3.5h-1.10156zm36 0h11v13.25h-1.10156v3.5h1.10156v13.25h-11v-13.25h2.59961v-3.5h-2.59961zm14 0h11v13.25h-2.59961v3.5h2.59961v13.25h-11v-13.25h1.10156v-3.5h-1.10156zm-164 87.5h11v13.25h-1.10156v3.5h1.10156v13.25h-11v-13.25h2.59961v-3.5h-2.59961zm14 0h11v13.25h-2.59961v3.5h2.59961v13.25h-11v-13.25h1.10156v-3.5h-1.10156zm36 0h11v13.25h-1.10156v3.5h1.10156v13.25h-11v-13.25h2.59961v-3.5h-2.59961zm14 0h11v13.25h-2.59961v3.5h2.59961v13.25h-11v-13.25h1.10156v-3.5h-1.10156zm36 0h11v13.25h-1.10156v3.5h1.10156v13.25h-11v-13.25h2.59961v-3.5h-2.59961zm14 0h11v13.25h-2.59961v3.5h2.59961v13.25h-11v-13.25h1.10156v-3.5h-1.10156zm36 0h11v13.25h-1.10156v3.5h1.10156v13.25h-11v-13.25h2.59961v-3.5h-2.59961zm14 0h11v13.25h-2.59961v3.5h2.59961v13.25h-11v-13.25h1.10156v-3.5h-1.10156zm-164 87.5h11v13.25h-1.10156v3.5h1.10156v13.25h-11v-13.25h2.59961v-3.5h-2.59961zm14 0h11v13.25h-2.59961v3.5h2.59961v13.25h-11v-13.25h1.10156v-3.5h-1.10156zm36 0h11v13.25h-1.10156v3.5h1.10156v13.25h-11v-13.25h2.59961v-3.5h-2.59961zm14 0h11v13.25h-2.59961v3.5h2.59961v13.25h-11v-13.25h1.10156v-3.5h-1.10156zm36 0h11v13.25h-1.10156v3.5h1.10156v13.25h-11v-13.25h2.59961v-3.5h-2.59961zm14 0h11v13.25h-2.59961v3.5h2.59961v13.25h-11v-13.25h1.10156v-3.5h-1.10156zm36 0h11v13.25h-1.10156v3.5h1.10156v13.25h-11v-13.25h2.59961v-3.5h-2.59961zm14 0h11v13.25h-2.59961v3.5h2.59961v13.25h-11v-13.25h1.10156v-3.5h-1.10156zm-164 97.5h11v13.25h-1.10156v3.49998h1.10156v13.25h-11v-13.25h2.59961v-3.49998h-2.59961zm14 0h11v13.25h-2.59961v3.49998h2.59961v13.25h-11v-13.25h1.10156v-3.49998h-1.10156zm36 0h11v13.25h-1.10156v3.49998h1.10156v13.25h-11v-13.25h2.59961v-3.49998h-2.59961zm14 0h11v13.25h-2.59961v3.49998h2.59961v13.25h-11v-13.25h1.10156v-3.49998h-1.10156zm36 0h11v13.25h-1.10156v3.49998h1.10156v13.25h-11v-13.25h2.59961v-3.49998h-2.59961zm14 0h11v13.25h-2.59961v3.49998h2.59961v13.25h-11v-13.25h1.10156v-3.49998h-1.10156zm36 0h11v13.25h-1.10156v3.49998h1.10156v13.25h-11v-13.25h2.59961v-3.49998h-2.59961zm14 0h11v13.25h-2.59961v3.49998h2.59961v13.25h-11v-13.25h1.10156v-3.49998h-1.10156z" fill="#d5e5ff" fill-opacity=".69777775" stroke="#000" stroke-linecap="round" stroke-width=".80000001"/><path id="seg2" d="m297 492.20059v500.99998h200v-500.99998zm12.5 50.5h11v13.25h-1.10156v3.5h1.10156v13.25h-11v-13.25h2.59961v-3.5h-2.59961zm14 0h11v13.25h-2.59961v3.5h2.59961v13.25h-11v-13.25h1.10156v-3.5h-1.10156zm36 0h11v13.25h-1.10156v3.5h1.10156v13.25h-11v-13.25h2.59961v-3.5h-2.59961zm14 0h11v13.25h-2.59961v3.5h2.59961v13.25h-11v-13.25h1.10156v-3.5h-1.10156zm36 0h11v13.25h-1.10156v3.5h1.10156v13.25h-11v-13.25h2.59961v-3.5h-2.59961zm14 0h11v13.25h-2.59961v3.5h2.59961v13.25h-11v-13.25h1.10156v-3.5h-1.10156zm36 0h11v13.25h-1.10156v3.5h1.10156v13.25h-11v-13.25h2.59961v-3.5h-2.59961zm14 0h11v13.25h-2.59961v3.5h2.59961v13.25h-11v-13.25h1.10156v-3.5h-1.10156zm-164 97.5h11v13.25h-1.10156v3.5h1.10156v13.25h-11v-13.25h2.59961v-3.5h-2.59961zm14 0h11v13.25h-2.59961v3.5h2.59961v13.25h-11v-13.25h1.10156v-3.5h-1.10156zm36 0h11v13.25h-1.10156v3.5h1.10156v13.25h-11v-13.25h2.59961v-3.5h-2.59961zm14 0h11v13.25h-2.59961v3.5h2.59961v13.25h-11v-13.25h1.10156v-3.5h-1.10156zm36 0h11v13.25h-1.10156v3.5h1.10156v13.25h-11v-13.25h2.59961v-3.5h-2.59961zm14 0h11v13.25h-2.59961v3.5h2.59961v13.25h-11v-13.25h1.10156v-3.5h-1.10156zm36 0h11v13.25h-1.10156v3.5h1.10156v13.25h-11v-13.25h2.59961v-3.5h-2.59961zm14 0h11v13.25h-2.59961v3.5h2.59961v13.25h-11v-13.25h1.10156v-3.5h-1.10156zm-164 87.5h11v13.25h-1.10156v3.5h1.10156v13.25h-11v-13.25h2.59961v-3.5h-2.59961zm14 0h11v13.25h-2.59961v3.5h2.59961v13.25h-11v-13.25h1.10156v-3.5h-1.10156zm36 0h11v13.25h-1.10156v3.5h1.10156v13.25h-11v-13.25h2.59961v-3.5h-2.59961zm14 0h11v13.25h-2.59961v3.5h2.59961v13.25h-11v-13.25h1.10156v-3.5h-1.10156zm36 0h11v13.25h-1.10156v3.5h1.10156v13.25h-11v-13.25h2.59961v-3.5h-2.59961zm14 0h11v13.25h-2.59961v3.5h2.59961v13.25h-11v-13.25h1.10156v-3.5h-1.10156zm36 0h11v13.25h-1.10156v3.5h1.10156v13.25h-11v-13.25h2.59961v-3.5h-2.59961zm14 0h11v13.25h-2.59961v3.5h2.59961v13.25h-11v-13.25h1.10156v-3.5h-1.10156zm-164 87.5h11v13.25h-1.10156v3.5h1.10156v13.25h-11v-13.25h2.59961v-3.5h-2.59961zm14 0h11v13.25h-2.59961v3.5h2.59961v13.25h-11v-13.25h1.10156v-3.5h-1.10156zm36 0h11v13.25h-1.10156v3.5h1.10156v13.25h-11v-13.25h2.59961v-3.5h-2.59961zm14 0h11v13.25h-2.59961v3.5h2.59961v13.25h-11v-13.25h1.10156v-3.5h-1.10156zm36 0h11v13.25h-1.10156v3.5h1.10156v13.25h-11v-13.25h2.59961v-3.5h-2.59961zm14 0h11v13.25h-2.59961v3.5h2.59961v13.25h-11v-13.25h1.10156v-3.5h-1.10156zm36 0h11v13.25h-1.10156v3.5h1.10156v13.25h-11v-13.25h2.59961v-3.5h-2.59961zm14 0h11v13.25h-2.59961v3.5h2.59961v13.25h-11v-13.25h1.10156v-3.5h-1.10156zm-164 97.5h11v13.25h-1.10156v3.49998h1.10156v13.25h-11v-13.25h2.59961v-3.49998h-2.59961zm14 0h11v13.25h-2.59961v3.49998h2.59961v13.25h-11v-13.25h1.10156v-3.49998h-1.10156zm36 0h11v13.25h-1.10156v3.49998h1.10156v13.25h-11v-13.25h2.59961v-3.49998h-2.59961zm14 0h11v13.25h-2.59961v3.49998h2.59961v13.25h-11v-13.25h1.10156v-3.49998h-1.10156zm36 0h11v13.25h-1.10156v3.49998h1.10156v13.25h-11v-13.25h2.59961v-3.49998h-2.59961zm14 0h11v13.25h-2.59961v3.49998h2.59961v13.25h-11v-13.25h1.10156v-3.49998h-1.10156zm36 0h11v13.25h-1.10156v3.49998h1.10156v13.25h-11v-13.25h2.59961v-3.49998h-2.59961zm14 0h11v13.25h-2.59961v3.49998h2.59961v13.25h-11v-13.25h1.10156v-3.49998h-1.10156z" fill="#d5e5ff" fill-opacity=".69777775" stroke="#000" stroke-linecap="round" stroke-width=".80000001"/><path id="seg3" d="m497 492.20059v500.99998h200v-500.99998zm12.5 50.5h11v13.25h-1.10156v3.5h1.10156v13.25h-11v-13.25h2.59961v-3.5h-2.59961zm14 0h11v13.25h-2.59961v3.5h2.59961v13.25h-11v-13.25h1.10156v-3.5h-1.10156zm36 0h11v13.25h-1.10156v3.5h1.10156v13.25h-11v-13.25h2.59961v-3.5h-2.59961zm14 0h11v13.25h-2.59961v3.5h2.59961v13.25h-11v-13.25h1.10156v-3.5h-1.10156zm36 0h11v13.25h-1.10156v3.5h1.10156v13.25h-11v-13.25h2.59961v-3.5h-2.59961zm14 0h11v13.25h-2.59961v3.5h2.59961v13.25h-11v-13.25h1.10156v-3.5h-1.10156zm36 0h11v13.25h-1.10156v3.5h1.10156v13.25h-11v-13.25h2.59961v-3.5h-2.59961zm14 0h11v13.25h-2.59961v3.5h2.59961v13.25h-11v-13.25h1.10156v-3.5h-1.10156zm-164 97.5h11v13.25h-1.10156v3.5h1.10156v13.25h-11v-13.25h2.59961v-3.5h-2.59961zm14 0h11v13.25h-2.59961v3.5h2.59961v13.25h-11v-13.25h1.10156v-3.5h-1.10156zm36 0h11v13.25h-1.10156v3.5h1.10156v13.25h-11v-13.25h2.59961v-3.5h-2.59961zm14 0h11v13.25h-2.59961v3.5h2.59961v13.25h-11v-13.25h1.10156v-3.5h-1.10156zm36 0h11v13.25h-1.10156v3.5h1.10156v13.25h-11v-13.25h2.59961v-3.5h-2.59961zm14 0h11v13.25h-2.59961v3.5h2.59961v13.25h-11v-13.25h1.10156v-3.5h-1.10156zm36 0h11v13.25h-1.10156v3.5h1.10156v13.25h-11v-13.25h2.59961v-3.5h-2.59961zm14 0h11v13.25h-2.59961v3.5h2.59961v13.25h-11v-13.25h1.10156v-3.5h-1.10156zm-164 87.5h11v13.25h-1.10156v3.5h1.10156v13.25h-11v-13.25h2.59961v-3.5h-2.59961zm14 0h11v13.25h-2.59961v3.5h2.59961v13.25h-11v-13.25h1.10156v-3.5h-1.10156zm36 0h11v13.25h-1.10156v3.5h1.10156v13.25h-11v-13.25h2.59961v-3.5h-2.59961zm14 0h11v13.25h-2.59961v3.5h2.59961v13.25h-11v-13.25h1.10156v-3.5h-1.10156zm36 0h11v13.25h-1.10156v3.5h1.10156v13.25h-11v-13.25h2.59961v-3.5h-2.59961zm14 0h11v13.25h-2.59961v3.5h2.59961v13.25h-11v-13.25h1.10156v-3.5h-1.10156zm36 0h11v13.25h-1.10156v3.5h1.10156v13.25h-11v-13.25h2.59961v-3.5h-2.59961zm14 0h11v13.25h-2.59961v3.5h2.59961v13.25h-11v-13.25h1.10156v-3.5h-1.10156zm-164 87.5h11v13.25h-1.10156v3.5h1.10156v13.25h-11v-13.25h2.59961v-3.5h-2.59961zm14 0h11v13.25h-2.59961v3.5h2.59961v13.25h-11v-13.25h1.10156v-3.5h-1.10156zm36 0h11v13.25h-1.10156v3.5h1.10156v13.25h-11v-13.25h2.59961v-3.5h-2.59961zm14 0h11v13.25h-2.59961v3.5h2.59961v13.25h-11v-13.25h1.10156v-3.5h-1.10156zm36 0h11v13.25h-1.10156v3.5h1.10156v13.25h-11v-13.25h2.59961v-3.5h-2.59961zm14 0h11v13.25h-2.59961v3.5h2.59961v13.25h-11v-13.25h1.10156v-3.5h-1.10156zm36 0h11v13.25h-1.10156v3.5h1.10156v13.25h-11v-13.25h2.59961v-3.5h-2.59961zm14 0h11v13.25h-2.59961v3.5h2.59961v13.25h-11v-13.25h1.10156v-3.5h-1.10156zm-164 97.5h11v13.25h-1.10156v3.49998h1.10156v13.25h-11v-13.25h2.59961v-3.49998h-2.59961zm14 0h11v13.25h-2.59961v3.49998h2.59961v13.25h-11v-13.25h1.10156v-3.49998h-1.10156zm36 0h11v13.25h-1.10156v3.49998h1.10156v13.25h-11v-13.25h2.59961v-3.49998h-2.59961zm14 0h11v13.25h-2.59961v3.49998h2.59961v13.25h-11v-13.25h1.10156v-3.49998h-1.10156zm36 0h11v13.25h-1.10156v3.49998h1.10156v13.25h-11v-13.25h2.59961v-3.49998h-2.59961zm14 0h11v13.25h-2.59961v3.49998h2.59961v13.25h-11v-13.25h1.10156v-3.49998h-1.10156zm36 0h11v13.25h-1.10156v3.49998h1.10156v13.25h-11v-13.25h2.59961v-3.49998h-2.59961zm14 0h11v13.25h-2.59961v3.49998h2.59961v13.25h-11v-13.25h1.10156v-3.49998h-1.10156z" fill="#d5e5ff" fill-opacity=".69777775" stroke="#000" stroke-linecap="round" stroke-width=".80000001"/><path id="seg4" d="m697 492.20059v500.99998h200v-500.99998zm12.5 50.5h11v13.25h-1.10156v3.5h1.10156v13.25h-11v-13.25h2.59961v-3.5h-2.59961zm14 0h11v13.25h-2.59961v3.5h2.59961v13.25h-11v-13.25h1.10156v-3.5h-1.10156zm36 0h11v13.25h-1.10156v3.5h1.10156v13.25h-11v-13.25h2.59961v-3.5h-2.59961zm14 0h11v13.25h-2.59961v3.5h2.59961v13.25h-11v-13.25h1.10156v-3.5h-1.10156zm36 0h11v13.25h-1.10156v3.5h1.10156v13.25h-11v-13.25h2.59961v-3.5h-2.59961zm14 0h11v13.25h-2.59961v3.5h2.59961v13.25h-11v-13.25h1.10156v-3.5h-1.10156zm36 0h11v13.25h-1.10156v3.5h1.10156v13.25h-11v-13.25h2.59961v-3.5h-2.59961zm14 0h11v13.25h-2.59961v3.5h2.59961v13.25h-11v-13.25h1.10156v-3.5h-1.10156zm-164 97.5h11v13.25h-1.10156v3.5h1.10156v13.25h-11v-13.25h2.59961v-3.5h-2.59961zm14 0h11v13.25h-2.59961v3.5h2.59961v13.25h-11v-13.25h1.10156v-3.5h-1.10156zm36 0h11v13.25h-1.10156v3.5h1.10156v13.25h-11v-13.25h2.59961v-3.5h-2.59961zm14 0h11v13.25h-2.59961v3.5h2.59961v13.25h-11v-13.25h1.10156v-3.5h-1.10156zm36 0h11v13.25h-1.10156v3.5h1.10156v13.25h-11v-13.25h2.59961v-3.5h-2.59961zm14 0h11v13.25h-2.59961v3.5h2.59961v13.25h-11v-13.25h1.10156v-3.5h-1.10156zm36 0h11v13.25h-1.10156v3.5h1.10156v13.25h-11v-13.25h2.59961v-3.5h-2.59961zm14 0h11v13.25h-2.59961v3.5h2.59961v13.25h-11v-13.25h1.10156v-3.5h-1.10156zm-164 87.5h11v13.25h-1.10156v3.5h1.10156v13.25h-11v-13.25h2.59961v-3.5h-2.59961zm14 0h11v13.25h-2.59961v3.5h2.59961v13.25h-11v-13.25h1.10156v-3.5h-1.10156zm36 0h11v13.25h-1.10156v3.5h1.10156v13.25h-11v-13.25h2.59961v-3.5h-2.59961zm14 0h11v13.25h-2.59961v3.5h2.59961v13.25h-11v-13.25h1.10156v-3.5h-1.10156zm36 0h11v13.25h-1.10156v3.5h1.10156v13.25h-11v-13.25h2.59961v-3.5h-2.59961zm14 0h11v13.25h-2.59961v3.5h2.59961v13.25h-11v-13.25h1.10156v-3.5h-1.10156zm36 0h11v13.25h-1.10156v3.5h1.10156v13.25h-11v-13.25h2.59961v-3.5h-2.59961zm14 0h11v13.25h-2.59961v3.5h2.59961v13.25h-11v-13.25h1.10156v-3.5h-1.10156zm-164 87.5h11v13.25h-1.10156v3.5h1.10156v13.25h-11v-13.25h2.59961v-3.5h-2.59961zm14 0h11v13.25h-2.59961v3.5h2.59961v13.25h-11v-13.25h1.10156v-3.5h-1.10156zm36 0h11v13.25h-1.10156v3.5h1.10156v13.25h-11v-13.25h2.59961v-3.5h-2.59961zm14 0h11v13.25h-2.59961v3.5h2.59961v13.25h-11v-13.25h1.10156v-3.5h-1.10156zm36 0h11v13.25h-1.10156v3.5h1.10156v13.25h-11v-13.25h2.59961v-3.5h-2.59961zm14 0h11v13.25h-2.59961v3.5h2.59961v13.25h-11v-13.25h1.10156v-3.5h-1.10156zm36 0h11v13.25h-1.10156v3.5h1.10156v13.25h-11v-13.25h2.59961v-3.5h-2.59961zm14 0h11v13.25h-2.59961v3.5h2.59961v13.25h-11v-13.25h1.10156v-3.5h-1.10156zm-164 97.5h11v13.25h-1.10156v3.49998h1.10156v13.25h-11v-13.25h2.59961v-3.49998h-2.59961zm14 0h11v13.25h-2.59961v3.49998h2.59961v13.25h-11v-13.25h1.10156v-3.49998h-1.10156zm36 0h11v13.25h-1.10156v3.49998h1.10156v13.25h-11v-13.25h2.59961v-3.49998h-2.59961zm14 0h11v13.25h-2.59961v3.49998h2.59961v13.25h-11v-13.25h1.10156v-3.49998h-1.10156zm36 0h11v13.25h-1.10156v3.49998h1.10156v13.25h-11v-13.25h2.59961v-3.49998h-2.59961zm14 0h11v13.25h-2.59961v3.49998h2.59961v13.25h-11v-13.25h1.10156v-3.49998h-1.10156zm36 0h11v13.25h-1.10156v3.49998h1.10156v13.25h-11v-13.25h2.59961v-3.49998h-2.59961zm14 0h11v13.25h-2.59961v3.49998h2.59961v13.25h-11v-13.25h1.10156v-3.49998h-1.10156z" fill="#d5e5ff" fill-opacity=".69777775" stroke="#000" stroke-linecap="round" stroke-width=".80000001"/><path id="panel1000" d="m0 293.69988v897.99992h994v-897.99992zm46.5 152.00002h901v593.9999h-901z" style="fill:#c5c7c4;fill-opacity:.8;stroke:#808080;stroke-width:.80000001;stroke-linecap:round;stroke-linejoin:round"/><path id="panel800" d="m0 293.69987v897.99993h794v-897.99993zm46.5 152.00002h701v593.99991h-701z" style="fill:#c5c7c4;fill-opacity:.8;stroke:#808080;stroke-width:.80000001;stroke-linecap:round;stroke-linejoin:round"/><path id="panel600" d="m0 293.69987v897.99993h594v-897.99993zm46.5 152.00002h501v593.99991h-501z" style="fill:#c5c7c4;fill-opacity:.8;stroke:#808080;stroke-width:.80000001;stroke-linecap:round;stroke-linejoin:round"/><g id="lock1"><rect id="rect4139" fill="#575d5e" height="81" rx="5" stroke="#4d4d4d" stroke-linecap="round" stroke-linejoin="round" stroke-width=".5" width="24" x="4.6500001" y="376.99985"/><rect id="rect4149" fill="none" height="78" rx="3.5" stroke="#4d4d4d" stroke-linecap="round" stroke-linejoin="round" stroke-width=".5" width="21" x="6.1500001" y="378.49985"/><rect id="rect4160" fill="none" height="11.2" stroke="#4d4d4d" stroke-linecap="round" stroke-linejoin="round" stroke-width=".5" width="24" x="4.6500001" y="429.89984"/><path id="path4145" d="m25.25 435.49985a8.6000004 8.6000004 0 0 1 -8.6 8.6 8.6000004 8.6000004 0 0 1 -8.6000008-8.6 8.6000004 8.6000004 0 0 1  8.6000008-8.6 8.6000004 8.6000004 0 0 1  8.6 8.6zm3.15 0a11.75 11.75 0 0 1 -11.75 11.75 11.75 11.75 0 0 1 -11.7500004-11.75 11.75 11.75 0 0 1  11.7500004-11.75 11.75 11.75 0 0 1  11.75 11.75z" fill="#333" stroke="#4d4d4d" stroke-linecap="round" stroke-linejoin="round" stroke-width=".5"/><path id="path4147" d="m16.65 440.43711l-4.25-2.46863v-4.93727l4.25-2.46864 4.25 2.46864v4.93727z" stroke="#4d4d4d" stroke-linecap="round" stroke-linejoin="round" stroke-width=".49999997"/><path id="path5180" d="m9.549423 382.74985l-.964113 3.6015h1.991678v-3.6015zm1.174565 0v3.6015h1.991678l-.96397-3.6015zm4.116001 0v3.6015h2.131501v-3.6015zm2.278501 0v3.6015h2.231271a2.2050006 2.2050006 0 0 0 -.762993-.50632 1.6537505 1.6537505 0 0 0  .847116-1.44143 1.6537505 1.6537505 0 0 0 -1.65375-1.65375 1.6537505 1.6537505 0 0 0 -.000147 0h-.6615zm3.454501 0v3.6015h2.1315v-3.6015zm2.2785 0v3.6015h2.231271a2.2050006 2.2050006 0 0 0 -.762993-.50632 1.6537505 1.6537505 0 0 0  .847117-1.44143 1.6537505 1.6537505 0 0 0 -1.653751-1.65375 1.6537505 1.6537505 0 0 0 -.000147 0h-.6615zm-14.3055153 3.7485l-.9641137 3.6015h1.8375005l.3896074-1.47h.7680181v-2.1315zm2.1780123 0v2.1315h.768161l.389464 1.47h1.837501l-.96397-3.6015zm4.116001 0v3.6015h2.131501v-3.6015zm2.278501 0v3.6015h.6615a2.2050006 2.2050006 0 0 0  .000147 0 2.2050006 2.2050006 0 0 0  2.205-2.205 2.2050006 2.2050006 0 0 0 -.502298-1.3965h-2.364346zm3.454501 0v3.6015h2.1315v-3.6015zm2.2785 0v3.6015h.6615a2.2050006 2.2050006 0 0 0  .000147 0 2.2050006 2.2050006 0 0 0  2.205001-2.205 2.2050006 2.2050006 0 0 0 -.502298-1.3965h-2.364347z" fill="#333"/></g><g id="lock2"><rect id="rect4174" fill="#575d5e" height="81" rx="5" stroke="#4d4d4d" stroke-linecap="round" stroke-linejoin="round" stroke-width=".5" width="24" x="4.6500001" y="1027.2499"/><rect id="rect4176" fill="none" height="78" rx="3.5" stroke="#4d4d4d" stroke-linecap="round" stroke-linejoin="round" stroke-width=".5" width="21" x="6.1500001" y="1028.7499"/><rect id="rect4178" fill="none" height="11.2" stroke="#4d4d4d" stroke-linecap="round" stroke-linejoin="round" stroke-width=".5" width="24" x="4.6500001" y="1080.1499"/><path id="circle4182" d="m25.25 1085.7499a8.6000004 8.6000004 0 0 1 -8.6 8.6 8.6000004 8.6000004 0 0 1 -8.6000008-8.6 8.6000004 8.6000004 0 0 1  8.6000008-8.6 8.6000004 8.6000004 0 0 1  8.6 8.6zm3.15 0a11.75 11.75 0 0 1 -11.75 11.75 11.75 11.75 0 0 1 -11.7500004-11.75 11.75 11.75 0 0 1  11.7500004-11.75 11.75 11.75 0 0 1  11.75 11.75z" fill="#333" stroke="#4d4d4d" stroke-linecap="round" stroke-linejoin="round" stroke-width=".5"/><path id="path4184" d="m16.65 1090.6871l-4.25-2.4686v-4.9373l4.25-2.4686 4.25 2.4686v4.9373z" stroke="#4d4d4d" stroke-linecap="round" stroke-linejoin="round" stroke-width=".49999997"/><path id="path4188" d="m9.549423 1032.9999l-.964113 3.6015h1.991678v-3.6015zm1.174565 0v3.6015h1.991678l-.96397-3.6015zm4.116001 0v3.6015h2.131501v-3.6015zm2.278501 0v3.6015h2.231271a2.2050006 2.2050006 0 0 0 -.762993-.5063 1.6537505 1.6537505 0 0 0  .847116-1.4415 1.6537505 1.6537505 0 0 0 -1.65375-1.6537 1.6537505 1.6537505 0 0 0 -.000147 0h-.6615zm3.454501 0v3.6015h2.1315v-3.6015zm2.2785 0v3.6015h2.231271a2.2050006 2.2050006 0 0 0 -.762993-.5063 1.6537505 1.6537505 0 0 0  .847117-1.4415 1.6537505 1.6537505 0 0 0 -1.653751-1.6537 1.6537505 1.6537505 0 0 0 -.000147 0h-.6615zm-14.3055153 3.7485l-.9641137 3.6015h1.8375005l.3896074-1.47h.7680181v-2.1315zm2.1780123 0v2.1315h.768161l.389464 1.47h1.837501l-.96397-3.6015zm4.116001 0v3.6015h2.131501v-3.6015zm2.278501 0v3.6015h.6615a2.2050006 2.2050006 0 0 0  .000147 0 2.2050006 2.2050006 0 0 0  2.205-2.205 2.2050006 2.2050006 0 0 0 -.502298-1.3965h-2.364346zm3.454501 0v3.6015h2.1315v-3.6015zm2.2785 0v3.6015h.6615a2.2050006 2.2050006 0 0 0  .000147 0 2.2050006 2.2050006 0 0 0  2.205001-2.205 2.2050006 2.2050006 0 0 0 -.502298-1.3965h-2.364347z" fill="#333"/></g><g id="cover1" stroke="#4d4d4d"><rect id="rect4212" fill="#575d5e" height="81" rx="5" stroke-linecap="round" stroke-linejoin="round" stroke-width=".5" width="24" x="965.34998" y="376.99985"/><rect id="rect4214" fill="none" height="78" rx="3.5" stroke-linecap="round" stroke-linejoin="round" stroke-width=".5" width="21" x="966.84998" y="378.49985"/><g id="g4216" transform="matrix(.07350002 0 0 .07350002 968.2819 306.75121)"/><rect id="rect4218" fill="none" height="78" rx="3.5" stroke-linecap="round" stroke-linejoin="round" stroke-width=".5" width="21" x="966.84998" y="378.49985"/></g><g id="cover2" stroke="#4d4d4d"><rect id="rect4192" fill="#575d5e" height="81" rx="5" stroke-linecap="round" stroke-linejoin="round" stroke-width=".5" width="24" x="965.34998" y="1027.2499"/><rect id="rect4194" fill="none" height="78" rx="3.5" stroke-linecap="round" stroke-linejoin="round" stroke-width=".5" width="21" x="966.84998" y="1028.7499"/><g id="g4204" transform="matrix(.07350002 0 0 .07350002 968.2819 957.00116)"/><rect id="rect4208" fill="none" height="78" rx="3.5" stroke-linecap="round" stroke-linejoin="round" stroke-width=".5" width="21" x="966.84998" y="1028.7499"/></g><text id="textBottom" line-height="125%" style="font-size:20;font-family:sans-serif;letter-spacing:0;word-spacing:0;text-anchor:middle;overflow:visible" x="497.20996" xml:space="preserve" y="1171.8459"><tspan id="tspan4155-8" x="497.20996" y="1171.8459">Text</tspan></text><text id="textTop" line-height="125%" style="font-size:20;font-family:sans-serif;letter-spacing:0;word-spacing:0;text-anchor:middle;overflow:visible" x="497.21017" xml:space="preserve" y="327.84094"><tspan id="tspan4653" x="497.21017" y="327.84094">Text</tspan></text></g></svg>