<svg id="svg2" height="812.79999" overflow="visible" viewBox="0 0 1250.8 812.79999" width="1250.8" xmlns="http://www.w3.org/2000/svg"><g id="layer1"><g id="holder1" stroke="#808080" stroke-linecap="round" stroke-width=".80000001"><rect id="holder1TOP" height="203" width="96"/><rect id="rect4301" height="203" width="96" y="202.99998"/><rect id="rect4303" height="203" width="96" y="405.99997"/><rect id="holder1BOTTOM" height="203" width="96" y="608.99994"/></g><g id="holder2" stroke="#808080" stroke-linecap="round" stroke-width=".80000001"><rect id="holder2TOP" height="203" width="96" x="1154" y=".0000039"/><rect id="rect4314" height="203" width="96" x="1154" y="202.99998"/><rect id="rect4316" height="203" width="96" x="1154" y="406"/><rect id="holder2BOTTOM" height="203" width="96" x="1154" y="609"/></g><g id="busbar" fill="#c6782e" stroke="#333" stroke-linecap="round" stroke-linejoin="round" stroke-width=".79999995"><rect id="L1_1" height="80" overflow="visible" width="1250" y="14.334717"/><rect id="L1_2" height="80" overflow="visible" width="1250" y="108.64996"/><rect id="L2_1" height="80" overflow="visible" width="1250" y="217.33472"/><rect id="L2_2" height="80" overflow="visible" width="1250" y="311.64999"/><rect id="L3_1" height="80" overflow="visible" width="1250" y="420.35004"/><rect id="L3_2" height="80" overflow="visible" width="1250" y="514.65002"/><rect id="L4_1" height="80" overflow="visible" width="1250" y="623.33459"/><rect id="L4_2" height="80" overflow="visible" width="1250" y="717.65002"/></g><g id="cap1" stroke="#808080" stroke-linejoin="round" stroke-width=".80000001"><rect id="cap1TOP" height="203" overflow="visible" width="50" x="16.400053" y=".0000139"/><rect id="rect4171" height="203" overflow="visible" width="50" x="16.400055" y="203"/><rect id="rect4187" height="203" overflow="visible" width="50" x="16.400055" y="406"/><rect id="cap1BOTTOM" height="203" width="50" x="16.400055" y="609"/></g><g id="cap2" stroke="#808080" stroke-linejoin="round" stroke-width=".80000001"><rect id="cap2TOP" height="203" overflow="visible" width="50" x="1183.6" y=".0000139"/><rect id="rect4169" height="203" overflow="visible" width="50" x="1183.6001" y="203"/><rect id="rect4185" height="203" overflow="visible" width="50" x="1183.6001" y="406"/><rect id="cap2BOTTOM" height="203" width="50" x="1183.6001" y="609"/></g><g id="GPO3" fill="#f00"><rect id="G1" height="810" width="15" x="517.5" y="1"/><rect id="G2" height="810" width="15" x="717.5" y="1"/><rect id="G3" height="810" width="15" x="617.5" y="1"/></g></g></svg>