<svg id="svg2" height="700.79999" overflow="visible" viewBox="0 0 1250.8 700.79998" width="1250.8" xmlns="http://www.w3.org/2000/svg"><g id="layer1" stroke-width=".80000001"><rect id="R2" fill="#c5c7c4" fill-opacity=".58823532" height="570" stroke="#808080" stroke-linecap="round" width="1233" x="17" y="130"/><rect id="R1" fill="#c5c7c3" fill-opacity=".58823532" height="570.00018" stroke="#808080" width="10" y="130"/><g id="hinge1"><path id="path4282" d="m17.5501 156.89993h-8v12h8zm0 12h-8v12h8zm0 12h-8v12h8zm2.2499-14.84344a4.75 4.75 0 0 0 4.75 4.75 4.75 4.75 0 0 0  4.75-4.75 4.75 4.75 0 0 0 -4.75-4.75 4.75 4.75 0 0 0 -4.75 4.75zm0 17.68676a4.75 4.75 0 0 0 4.75 4.75 4.75 4.75 0 0 0  4.75-4.75 4.75 4.75 0 0 0 -4.75-4.75 4.75 4.75 0 0 0 -4.75 4.75zm12.2501-26.84332h-15v36h15zm-29.5001 4.40631a4.75 4.75 0 0 1 4.75 4.75 4.75 4.75 0 0 1 -4.75 4.75 4.75 4.75 0 0 1 -2.50000002-.71484v-8.06641a4.75 4.75 0 0 1 2.50000002-.71875zm0 17.6875a4.75 4.75 0 0 1 4.75 4.75 4.75 4.75 0 0 1 -4.75 4.75 4.75 4.75 0 0 1 -2.50000002-.7168v-8.0664a4.75 4.75 0 0 1 2.50000002-.7168zm7.5-22.09375v36h-10.00000002v-36z" fill="#e0e0e0" stroke="#808080"/><path id="path4284" d="m21.8 167.64416l2.75 1.58771 2.75-1.58771v-3.17543l-2.75-1.58771-2.75 1.58771zm0 17.68681l2.75 1.58771 2.75-1.58771v-3.17543l-2.75-1.58771-2.75 1.58771zm-21.99990002-17.68681l2.75000002 1.58771 2.75-1.58771v-3.17543l-2.75-1.58771-2.75000002 1.58771zm0 17.68681l2.75000002 1.58771 2.75-1.58771v-3.17543l-2.75-1.58771-2.75000002 1.58771z" fill="#808080"/></g><g id="hinge2"><path id="path4226" d="m17.5501 635.39993h-8v12h8zm0 12h-8v12h8zm0 12h-8v12h8zm2.2499-14.84344a4.75 4.75 0 0 0 4.75 4.75 4.75 4.75 0 0 0  4.75-4.75 4.75 4.75 0 0 0 -4.75-4.75 4.75 4.75 0 0 0 -4.75 4.75zm0 17.68676a4.75 4.75 0 0 0 4.75 4.75 4.75 4.75 0 0 0  4.75-4.75 4.75 4.75 0 0 0 -4.75-4.75 4.75 4.75 0 0 0 -4.75 4.75zm12.2501-26.84332h-15v36h15zm-29.5001 4.40631a4.75 4.75 0 0 1 4.75 4.75 4.75 4.75 0 0 1 -4.75 4.75 4.75 4.75 0 0 1 -2.50000002-.71484v-8.06641a4.75 4.75 0 0 1 2.50000002-.71875zm0 17.6875a4.75 4.75 0 0 1 4.75 4.75 4.75 4.75 0 0 1 -4.75 4.75 4.75 4.75 0 0 1 -2.50000002-.7168v-8.0664a4.75 4.75 0 0 1 2.50000002-.7168zm7.5-22.09375v36h-10.00000002v-36z" fill="#e0e0e0" stroke="#808080"/><path id="path4419" d="m21.8 646.14417l2.75 1.58771 2.75-1.58771v-3.17543l-2.75-1.58771-2.75 1.58771zm0 17.68681l2.75 1.58771 2.75-1.58771v-3.17543l-2.75-1.58771-2.75 1.58771zm-21.99990002-17.68681l2.75000002 1.58771 2.75-1.58771v-3.17543l-2.75-1.58771-2.75000002 1.58771zm0 17.68681l2.75000002 1.58771 2.75-1.58771v-3.17543l-2.75-1.58771-2.75000002 1.58771z" fill="#808080"/></g><rect id="R3" fill="#c5c7c3" fill-opacity=".58823532" height="24.5" stroke="#808080" stroke-linecap="round" width="1250"/><rect id="R4" fill="#c5c7c3" fill-opacity=".58823532" height="101.5" stroke="#808080" stroke-linecap="round" width="1250" y="24.5"/><path id="CUT1" d="m39.400189 10.500116c-2.493 0-4.5 2.007-4.5 4.5 0 2.493 2.007 4.5 4.5 4.5h21c2.493 0 4.5-2.007 4.5-4.5 0-2.493-2.007-4.5-4.5-4.5zm50 0c-2.493 0-4.5 2.007-4.5 4.5 0 2.493 2.007 4.5 4.5 4.5h21.000001c2.493 0 4.5-2.007 4.5-4.5 0-2.493-2.007-4.5-4.5-4.5zm50.000001 0c-2.493 0-4.5 2.007-4.5 4.5 0 2.493 2.007 4.5 4.5 4.5h21c2.493 0 4.5-2.007 4.5-4.5 0-2.493-2.007-4.5-4.5-4.5zm50 0c-2.493 0-4.5 2.007-4.5 4.5 0 2.493 2.007 4.5 4.5 4.5h21c2.493 0 4.5-2.007 4.5-4.5 0-2.493-2.007-4.5-4.5-4.5zm50 0c-2.493 0-4.5 2.007-4.5 4.5 0 2.493 2.007 4.5 4.5 4.5h21c2.493 0 4.5-2.007 4.5-4.5 0-2.493-2.007-4.5-4.5-4.5zm-200.000001 19.80078c-2.493 0-4.5 2.007-4.5 4.5 0 2.493 2.007 4.5 4.5 4.5h21c2.493 0 4.5-2.007 4.5-4.5 0-2.493-2.007-4.5-4.5-4.5zm50 0c-2.493 0-4.5 2.007-4.5 4.5 0 2.493 2.007 4.5 4.5 4.5h21.000001c2.493 0 4.5-2.007 4.5-4.5 0-2.493-2.007-4.5-4.5-4.5zm50.000001 0c-2.493 0-4.5 2.007-4.5 4.5 0 2.493 2.007 4.5 4.5 4.5h21c2.493 0 4.5-2.007 4.5-4.5 0-2.493-2.007-4.5-4.5-4.5zm50 0c-2.493 0-4.5 2.007-4.5 4.5 0 2.493 2.007 4.5 4.5 4.5h21c2.493 0 4.5-2.007 4.5-4.5 0-2.493-2.007-4.5-4.5-4.5zm50 0c-2.493 0-4.5 2.007-4.5 4.5 0 2.493 2.007 4.5 4.5 4.5h21c2.493 0 4.5-2.007 4.5-4.5 0-2.493-2.007-4.5-4.5-4.5zm-189.500001 43a2.75 2.75 0 0 0 -2.75 2.75 2.75 2.75 0 0 0  2.75 2.75 2.75 2.75 0 0 0  2.75-2.75 2.75 2.75 0 0 0 -2.75-2.75zm50.000001 0a2.75 2.75 0 0 0 -2.750001 2.75 2.75 2.75 0 0 0  2.750001 2.75 2.75 2.75 0 0 0  2.75-2.75 2.75 2.75 0 0 0 -2.75-2.75zm50 0a2.75 2.75 0 0 0 -2.75 2.75 2.75 2.75 0 0 0  2.75 2.75 2.75 2.75 0 0 0  2.75-2.75 2.75 2.75 0 0 0 -2.75-2.75zm50 0a2.75 2.75 0 0 0 -2.75 2.75 2.75 2.75 0 0 0  2.75 2.75 2.75 2.75 0 0 0  2.75-2.75 2.75 2.75 0 0 0 -2.75-2.75zm50 0a2.75 2.75 0 0 0 -2.75 2.75 2.75 2.75 0 0 0  2.75 2.75 2.75 2.75 0 0 0  2.75-2.75 2.75 2.75 0 0 0 -2.75-2.75zm-210.500001 39.500014c-2.493 0-4.5 2.007-4.5 4.5 0 2.493 2.007 4.5 4.5 4.5h21c2.493 0 4.5-2.007 4.5-4.5 0-2.493-2.007-4.5-4.5-4.5zm50 0c-2.493 0-4.5 2.007-4.5 4.5 0 2.493 2.007 4.5 4.5 4.5h21.000001c2.493 0 4.5-2.007 4.5-4.5 0-2.493-2.007-4.5-4.5-4.5zm50.000001 0c-2.493 0-4.5 2.007-4.5 4.5 0 2.493 2.007 4.5 4.5 4.5h21c2.493 0 4.5-2.007 4.5-4.5 0-2.493-2.007-4.5-4.5-4.5zm50 0c-2.493 0-4.5 2.007-4.5 4.5 0 2.493 2.007 4.5 4.5 4.5h21c2.493 0 4.5-2.007 4.5-4.5 0-2.493-2.007-4.5-4.5-4.5zm50 0c-2.493 0-4.5 2.007-4.5 4.5 0 2.493 2.007 4.5 4.5 4.5h21c2.493 0 4.5-2.007 4.5-4.5 0-2.493-2.007-4.5-4.5-4.5z" fill="#f4f4f4" fill-opacity=".87843138" stroke="#808080" stroke-linecap="round"/><path id="CUT2" d="m289.40019 10.500116c-2.493 0-4.5 2.007-4.5 4.5 0 2.493 2.007 4.5 4.5 4.5h21c2.493 0 4.5-2.007 4.5-4.5 0-2.493-2.007-4.5-4.5-4.5zm50 0c-2.493 0-4.5 2.007-4.5 4.5 0 2.493 2.007 4.5 4.5 4.5h21c2.493 0 4.5-2.007 4.5-4.5 0-2.493-2.007-4.5-4.5-4.5zm-50 19.80078c-2.493 0-4.5 2.007-4.5 4.5 0 2.493 2.007 4.5 4.5 4.5h21c2.493 0 4.5-2.007 4.5-4.5 0-2.493-2.007-4.5-4.5-4.5zm50 0c-2.493 0-4.5 2.007-4.5 4.5 0 2.493 2.007 4.5 4.5 4.5h21c2.493 0 4.5-2.007 4.5-4.5 0-2.493-2.007-4.5-4.5-4.5zm-39.5 43a2.75 2.75 0 0 0 -2.75 2.75 2.75 2.75 0 0 0  2.75 2.75 2.75 2.75 0 0 0  2.75-2.75 2.75 2.75 0 0 0 -2.75-2.75zm50 0a2.75 2.75 0 0 0 -2.75 2.75 2.75 2.75 0 0 0  2.75 2.75 2.75 2.75 0 0 0  2.75-2.75 2.75 2.75 0 0 0 -2.75-2.75zm-60.5 39.500014c-2.493 0-4.5 2.007-4.5 4.5 0 2.493 2.007 4.5 4.5 4.5h21c2.493 0 4.5-2.007 4.5-4.5 0-2.493-2.007-4.5-4.5-4.5zm50 0c-2.493 0-4.5 2.007-4.5 4.5 0 2.493 2.007 4.5 4.5 4.5h21c2.493 0 4.5-2.007 4.5-4.5 0-2.493-2.007-4.5-4.5-4.5z" fill="#f4f4f4" fill-opacity=".87843138" stroke="#808080" stroke-linecap="round"/><path id="CUT3" d="m389.40019 10.500116c-2.493 0-4.5 2.007-4.5 4.5 0 2.493 2.007 4.5 4.5 4.5h21c2.493 0 4.5-2.007 4.5-4.5 0-2.493-2.007-4.5-4.5-4.5zm50 0c-2.493 0-4.5 2.007-4.5 4.5 0 2.493 2.007 4.5 4.5 4.5h21c2.493 0 4.5-2.007 4.5-4.5 0-2.493-2.007-4.5-4.5-4.5zm-50 19.80078c-2.493 0-4.5 2.007-4.5 4.5 0 2.493 2.007 4.5 4.5 4.5h21c2.493 0 4.5-2.007 4.5-4.5 0-2.493-2.007-4.5-4.5-4.5zm50 0c-2.493 0-4.5 2.007-4.5 4.5 0 2.493 2.007 4.5 4.5 4.5h21c2.493 0 4.5-2.007 4.5-4.5 0-2.493-2.007-4.5-4.5-4.5zm-39.5 43a2.75 2.75 0 0 0 -2.75 2.75 2.75 2.75 0 0 0  2.75 2.75 2.75 2.75 0 0 0  2.75-2.75 2.75 2.75 0 0 0 -2.75-2.75zm50 0a2.75 2.75 0 0 0 -2.75 2.75 2.75 2.75 0 0 0  2.75 2.75 2.75 2.75 0 0 0  2.75-2.75 2.75 2.75 0 0 0 -2.75-2.75zm-60.5 39.500014c-2.493 0-4.5 2.007-4.5 4.5 0 2.493 2.007 4.5 4.5 4.5h21c2.493 0 4.5-2.007 4.5-4.5 0-2.493-2.007-4.5-4.5-4.5zm50 0c-2.493 0-4.5 2.007-4.5 4.5 0 2.493 2.007 4.5 4.5 4.5h21c2.493 0 4.5-2.007 4.5-4.5 0-2.493-2.007-4.5-4.5-4.5z" fill="#f4f4f4" fill-opacity=".87843138" stroke="#808080" stroke-linecap="round"/><path id="CUT4" d="m489.40019 10.500116c-2.493 0-4.5 2.007-4.5 4.5 0 2.493 2.007 4.5 4.5 4.5h21.00002c2.493 0 4.5-2.007 4.5-4.5 0-2.493-2.007-4.5-4.5-4.5zm50.00002 0c-2.493 0-4.5 2.007-4.5 4.5 0 2.493 2.007 4.5 4.5 4.5h21c2.493 0 4.5-2.007 4.5-4.5 0-2.493-2.007-4.5-4.5-4.5zm50 0c-2.493 0-4.5 2.007-4.5 4.5 0 2.493 2.007 4.5 4.5 4.5h21c2.493 0 4.5-2.007 4.5-4.5 0-2.493-2.007-4.5-4.5-4.5zm50 0c-2.493 0-4.5 2.007-4.5 4.5 0 2.493 2.007 4.5 4.5 4.5h21c2.493 0 4.5-2.007 4.5-4.5 0-2.493-2.007-4.5-4.5-4.5zm-150.00002 19.80078c-2.493 0-4.5 2.007-4.5 4.5 0 2.493 2.007 4.5 4.5 4.5h21.00002c2.493 0 4.5-2.007 4.5-4.5 0-2.493-2.007-4.5-4.5-4.5zm50.00002 0c-2.493 0-4.5 2.007-4.5 4.5 0 2.493 2.007 4.5 4.5 4.5h21c2.493 0 4.5-2.007 4.5-4.5 0-2.493-2.007-4.5-4.5-4.5zm50 0c-2.493 0-4.5 2.007-4.5 4.5 0 2.493 2.007 4.5 4.5 4.5h21c2.493 0 4.5-2.007 4.5-4.5 0-2.493-2.007-4.5-4.5-4.5zm50 0c-2.493 0-4.5 2.007-4.5 4.5 0 2.493 2.007 4.5 4.5 4.5h21c2.493 0 4.5-2.007 4.5-4.5 0-2.493-2.007-4.5-4.5-4.5zm-139.50002 43a2.75 2.75 0 0 0 -2.75 2.75 2.75 2.75 0 0 0  2.75 2.75 2.75 2.75 0 0 0  2.75002-2.75 2.75 2.75 0 0 0 -2.75002-2.75zm50.00002 0a2.75 2.75 0 0 0 -2.75 2.75 2.75 2.75 0 0 0  2.75 2.75 2.75 2.75 0 0 0  2.75-2.75 2.75 2.75 0 0 0 -2.75-2.75zm50 0a2.75 2.75 0 0 0 -2.75 2.75 2.75 2.75 0 0 0  2.75 2.75 2.75 2.75 0 0 0  2.75-2.75 2.75 2.75 0 0 0 -2.75-2.75zm50 0a2.75 2.75 0 0 0 -2.75 2.75 2.75 2.75 0 0 0  2.75 2.75 2.75 2.75 0 0 0  2.75-2.75 2.75 2.75 0 0 0 -2.75-2.75zm-160.50002 39.500014c-2.493 0-4.5 2.007-4.5 4.5 0 2.493 2.007 4.5 4.5 4.5h21.00002c2.493 0 4.5-2.007 4.5-4.5 0-2.493-2.007-4.5-4.5-4.5zm50.00002 0c-2.493 0-4.5 2.007-4.5 4.5 0 2.493 2.007 4.5 4.5 4.5h21c2.493 0 4.5-2.007 4.5-4.5 0-2.493-2.007-4.5-4.5-4.5zm50 0c-2.493 0-4.5 2.007-4.5 4.5 0 2.493 2.007 4.5 4.5 4.5h21c2.493 0 4.5-2.007 4.5-4.5 0-2.493-2.007-4.5-4.5-4.5zm50 0c-2.493 0-4.5 2.007-4.5 4.5 0 2.493 2.007 4.5 4.5 4.5h21c2.493 0 4.5-2.007 4.5-4.5 0-2.493-2.007-4.5-4.5-4.5z" fill="#f4f4f4" fill-opacity=".87843138" stroke="#808080" stroke-linecap="round"/><path id="CUT5" d="m689.40021 10.500116c-2.493 0-4.5 2.007-4.5 4.5 0 2.493 2.007 4.5 4.5 4.5h21c2.493 0 4.5-2.007 4.5-4.5 0-2.493-2.007-4.5-4.5-4.5zm50 0c-2.493 0-4.5 2.007-4.5 4.5 0 2.493 2.007 4.5 4.5 4.5h21c2.493 0 4.5-2.007 4.5-4.5 0-2.493-2.007-4.5-4.5-4.5zm50 0c-2.493 0-4.5 2.007-4.5 4.5 0 2.493 2.007 4.5 4.5 4.5h21c2.493 0 4.5-2.007 4.5-4.5 0-2.493-2.007-4.5-4.5-4.5zm50 0c-2.493 0-4.5 2.007-4.5 4.5 0 2.493 2.007 4.5 4.5 4.5h21c2.493 0 4.5-2.007 4.5-4.5 0-2.493-2.007-4.5-4.5-4.5zm-150 19.80078c-2.493 0-4.5 2.007-4.5 4.5 0 2.493 2.007 4.5 4.5 4.5h21c2.493 0 4.5-2.007 4.5-4.5 0-2.493-2.007-4.5-4.5-4.5zm50 0c-2.493 0-4.5 2.007-4.5 4.5 0 2.493 2.007 4.5 4.5 4.5h21c2.493 0 4.5-2.007 4.5-4.5 0-2.493-2.007-4.5-4.5-4.5zm50 0c-2.493 0-4.5 2.007-4.5 4.5 0 2.493 2.007 4.5 4.5 4.5h21c2.493 0 4.5-2.007 4.5-4.5 0-2.493-2.007-4.5-4.5-4.5zm50 0c-2.493 0-4.5 2.007-4.5 4.5 0 2.493 2.007 4.5 4.5 4.5h21c2.493 0 4.5-2.007 4.5-4.5 0-2.493-2.007-4.5-4.5-4.5zm-139.5 43a2.75 2.75 0 0 0 -2.75 2.75 2.75 2.75 0 0 0  2.75 2.75 2.75 2.75 0 0 0  2.75-2.75 2.75 2.75 0 0 0 -2.75-2.75zm50 0a2.75 2.75 0 0 0 -2.75 2.75 2.75 2.75 0 0 0  2.75 2.75 2.75 2.75 0 0 0  2.75-2.75 2.75 2.75 0 0 0 -2.75-2.75zm50 0a2.75 2.75 0 0 0 -2.75 2.75 2.75 2.75 0 0 0  2.75 2.75 2.75 2.75 0 0 0  2.75-2.75 2.75 2.75 0 0 0 -2.75-2.75zm50 0a2.75 2.75 0 0 0 -2.75 2.75 2.75 2.75 0 0 0  2.75 2.75 2.75 2.75 0 0 0  2.75-2.75 2.75 2.75 0 0 0 -2.75-2.75zm-160.5 39.500014c-2.493 0-4.5 2.007-4.5 4.5 0 2.493 2.007 4.5 4.5 4.5h21c2.493 0 4.5-2.007 4.5-4.5 0-2.493-2.007-4.5-4.5-4.5zm50 0c-2.493 0-4.5 2.007-4.5 4.5 0 2.493 2.007 4.5 4.5 4.5h21c2.493 0 4.5-2.007 4.5-4.5 0-2.493-2.007-4.5-4.5-4.5zm50 0c-2.493 0-4.5 2.007-4.5 4.5 0 2.493 2.007 4.5 4.5 4.5h21c2.493 0 4.5-2.007 4.5-4.5 0-2.493-2.007-4.5-4.5-4.5zm50 0c-2.493 0-4.5 2.007-4.5 4.5 0 2.493 2.007 4.5 4.5 4.5h21c2.493 0 4.5-2.007 4.5-4.5 0-2.493-2.007-4.5-4.5-4.5z" fill="#f4f4f4" fill-opacity=".87843138" stroke="#808080" stroke-linecap="round"/><path id="CUT6" d="m889.40021 10.500116c-2.493 0-4.5 2.007-4.5 4.5 0 2.493 2.007 4.5 4.5 4.5h21c2.493 0 4.5-2.007 4.5-4.5 0-2.493-2.007-4.5-4.5-4.5zm50 0c-2.493 0-4.5 2.007-4.5 4.5 0 2.493 2.007 4.5 4.5 4.5h21c2.493 0 4.5-2.007 4.5-4.5 0-2.493-2.007-4.5-4.5-4.5zm50 0c-.3116 0-.6167.0321-.9101.0918-2.0543.41824-3.5899 2.22683-3.5899 4.4082 0 2.493 2.007 4.5 4.5 4.5h20.99999c2.493 0 4.5-2.007 4.5-4.5 0-2.493-2.007-4.5-4.5-4.5zm49.99999 0c-2.493 0-4.5 2.007-4.5 4.5 0 2.493 2.007 4.5 4.5 4.5h21c2.493 0 4.5-2.007 4.5-4.5 0-2.493-2.007-4.5-4.5-4.5zm-149.99999 19.80078c-2.493 0-4.5 2.007-4.5 4.5 0 2.493 2.007 4.5 4.5 4.5h21c2.493 0 4.5-2.007 4.5-4.5 0-2.493-2.007-4.5-4.5-4.5zm50 0c-2.493 0-4.5 2.007-4.5 4.5 0 2.493 2.007 4.5 4.5 4.5h21c2.493 0 4.5-2.007 4.5-4.5 0-2.493-2.007-4.5-4.5-4.5zm50 0c-.3116 0-.6167.0301-.9101.0898-2.0543.41823-3.5899 2.22878-3.5899 4.41015 0 2.493 2.007 4.5 4.5 4.5h20.99999c2.493 0 4.5-2.007 4.5-4.5 0-2.493-2.007-4.5-4.5-4.5h-20.99999zm49.99999 0c-2.493 0-4.5 2.007-4.5 4.5 0 2.493 2.007 4.5 4.5 4.5h21c2.493 0 4.5-2.007 4.5-4.5 0-2.493-2.007-4.5-4.5-4.5zm-139.49999 43a2.75 2.75 0 0 0 -2.75 2.75 2.75 2.75 0 0 0  2.75 2.75 2.75 2.75 0 0 0  2.75-2.75 2.75 2.75 0 0 0 -2.75-2.75zm50 0a2.75 2.75 0 0 0 -2.75 2.75 2.75 2.75 0 0 0  2.75 2.75 2.75 2.75 0 0 0  2.75-2.75 2.75 2.75 0 0 0 -2.75-2.75zm49.99999 0a2.75 2.75 0 0 0 -2.74999 2.75 2.75 2.75 0 0 0  2.74999 2.75 2.75 2.75 0 0 0  2.75-2.75 2.75 2.75 0 0 0 -2.75-2.75zm50 0a2.75 2.75 0 0 0 -2.75 2.75 2.75 2.75 0 0 0  2.75 2.75 2.75 2.75 0 0 0  2.75-2.75 2.75 2.75 0 0 0 -2.75-2.75zm-160.49999 39.500014c-2.493 0-4.5 2.007-4.5 4.5 0 2.493 2.007 4.5 4.5 4.5h21c2.493 0 4.5-2.007 4.5-4.5 0-2.493-2.007-4.5-4.5-4.5zm50 0c-2.493 0-4.5 2.007-4.5 4.5 0 2.493 2.007 4.5 4.5 4.5h21c2.493 0 4.5-2.007 4.5-4.5 0-2.493-2.007-4.5-4.5-4.5zm50 0c-2.493 0-4.5 2.007-4.5 4.5 0 2.493 2.007 4.5 4.5 4.5h20.99999c2.493 0 4.5-2.007 4.5-4.5 0-2.493-2.007-4.5-4.5-4.5zm49.99999 0c-2.493 0-4.5 2.007-4.5 4.5 0 2.493 2.007 4.5 4.5 4.5h21c2.493 0 4.5-2.007 4.5-4.5 0-2.493-2.007-4.5-4.5-4.5z" fill="#f4f4f4" fill-opacity=".87843138" stroke="#808080" stroke-linecap="round"/><path id="CUT7" d="m1089.4002 10.500116c-2.493 0-4.5 2.007-4.5 4.5 0 2.493 2.007 4.5 4.5 4.5h21c2.493 0 4.5-2.007 4.5-4.5 0-2.493-2.007-4.5-4.5-4.5zm50 0c-2.493 0-4.5 2.007-4.5 4.5 0 2.493 2.007 4.5 4.5 4.5h21c2.493 0 4.5-2.007 4.5-4.5 0-2.493-2.007-4.5-4.5-4.5zm50 0c-2.493 0-4.5 2.007-4.5 4.5 0 2.493 2.007 4.5 4.5 4.5h21c2.493 0 4.5-2.007 4.5-4.5 0-2.493-2.007-4.5-4.5-4.5zm-100 19.80078c-2.493 0-4.5 2.007-4.5 4.5 0 2.493 2.007 4.5 4.5 4.5h21c2.493 0 4.5-2.007 4.5-4.5 0-2.493-2.007-4.5-4.5-4.5zm50 0c-2.493 0-4.5 2.007-4.5 4.5 0 2.493 2.007 4.5 4.5 4.5h21c2.493 0 4.5-2.007 4.5-4.5 0-2.493-2.007-4.5-4.5-4.5zm50 0c-2.493 0-4.5 2.007-4.5 4.5 0 2.493 2.007 4.5 4.5 4.5h21c2.493 0 4.5-2.007 4.5-4.5 0-2.493-2.007-4.5-4.5-4.5zm-89.5 43a2.75 2.75 0 0 0 -2.75 2.75 2.75 2.75 0 0 0  2.75 2.75 2.75 2.75 0 0 0  2.75-2.75 2.75 2.75 0 0 0 -2.75-2.75zm50 0a2.75 2.75 0 0 0 -2.75 2.75 2.75 2.75 0 0 0  2.75 2.75 2.75 2.75 0 0 0  2.75-2.75 2.75 2.75 0 0 0 -2.75-2.75zm50 0a2.75 2.75 0 0 0 -2.75 2.75 2.75 2.75 0 0 0  2.75 2.75 2.75 2.75 0 0 0  2.75-2.75 2.75 2.75 0 0 0 -2.75-2.75zm-110.5 39.500014c-2.493 0-4.5 2.007-4.5 4.5 0 2.493 2.007 4.5 4.5 4.5h21c2.493 0 4.5-2.007 4.5-4.5 0-2.493-2.007-4.5-4.5-4.5zm50 0c-2.493 0-4.5 2.007-4.5 4.5 0 2.493 2.007 4.5 4.5 4.5h21c2.493 0 4.5-2.007 4.5-4.5 0-2.493-2.007-4.5-4.5-4.5zm50 0c-2.493 0-4.5 2.007-4.5 4.5 0 2.493 2.007 4.5 4.5 4.5h21c2.493 0 4.5-2.007 4.5-4.5 0-2.493-2.007-4.5-4.5-4.5z" fill="#fff" fill-opacity=".70588237" stroke="#808080" stroke-linecap="round"/></g></svg>