<svg id="svg2" height="2113.8" overflow="visible" viewBox="0 0 699.79999 2113.8" width="699.79999" xmlns="http://www.w3.org/2000/svg"><g id="layer1" stroke="#000" stroke-linecap="round" stroke-width=".80000001"><g id="CBBS_top" fill="#c6782e" stroke="#000" stroke-linecap="round" stroke-width="1"><rect id="C3t" height="120" width="80" x="150" y="269"/><rect id="C2t" height="120" width="80" x="285" y="472"/><rect id="C1t" height="120" width="80" x="469.39999" y="675"/><rect id="C4t" height="120" width="80" x="192" y="878"/></g><g id="CBBS_bottom" fill="#c6782e" stroke="#000" stroke-linecap="round" stroke-width="1"><rect id="C4b" height="120" width="80" x="192" y="1115.15"/><rect id="C1b" height="120" width="80" x="470" y="1318.15"/><rect id="C2b" height="120" width="80" x="285" y="1521.15"/><rect id="C3b" height="120" width="80" x="150" y="1724.15"/></g><g id="DBBS" fill="#c6782e" stroke="#000" stroke-linecap="round" stroke-width=".80000001"><rect id="D1" height="2000" width="10" x="159.5" y="56.5"/><rect id="D2" height="2000" width="10" x="344.5" y="56.5"/><rect id="D3" height="2000" width="10" x="529.5" y="56.5"/><rect id="D4" height="2000" width="10" x="252" y="56.5"/></g><rect id="upright" fill="#e0dfdb" fill-rule="evenodd" height="2000" stroke="#000" stroke-linecap="square" width="49.5" x="649.5" y="56.5"/><path id="sideBars" d="m45.000391 56.50044v2000.00006h50v-2000.00006zm558.999999 0v2000.00006h50v-2000.00006z" fill="#f2f2f2" fill-opacity=".80000001"/><path id="segregation" d="m99.001 256.49995h501v-200.000001h-501zm50.5-12.5v-11h13.25v1.1015h3.5v-1.1015h13.25v11h-13.25v-2.5997h-3.5v2.5997zm0-14v-11h13.25v2.5996h3.5v-2.5996h13.25v11h-13.25v-1.1016h-3.5v1.1016zm0-36v-11h13.25v1.1015h3.5v-1.1015h13.25v11h-13.25v-2.5997h-3.5v2.5997zm0-14v-11h13.25v2.5996h3.5v-2.5996h13.25v11h-13.25v-1.1016h-3.5v1.1016zm0-36v-11h13.25v1.1015h3.5v-1.1015h13.25v11h-13.25v-2.5997h-3.5v2.5997zm0-14v-11h13.25v2.5996h3.5v-2.5996h13.25v11h-13.25v-1.1016h-3.5v1.1016zm0-36.000001v-11h13.25v1.1015h3.5v-1.1015h13.25v11h-13.25v-2.5997h-3.5v2.5997zm0-14v-11h13.25v2.5996h3.5v-2.5996h13.25v11h-13.25v-1.1016h-3.5v1.1016zm97.5 164.000001v-11h13.25v1.1015h3.5v-1.1015h13.25v11h-13.25v-2.5997h-3.5v2.5997zm0-14v-11h13.25v2.5996h3.5v-2.5996h13.25v11h-13.25v-1.1016h-3.5v1.1016zm0-36v-11h13.25v1.1015h3.5v-1.1015h13.25v11h-13.25v-2.5997h-3.5v2.5997zm0-14v-11h13.25v2.5996h3.5v-2.5996h13.25v11h-13.25v-1.1016h-3.5v1.1016zm0-36v-11h13.25v1.1015h3.5v-1.1015h13.25v11h-13.25v-2.5997h-3.5v2.5997zm0-14v-11h13.25v2.5996h3.5v-2.5996h13.25v11h-13.25v-1.1016h-3.5v1.1016zm0-36.000001v-11h13.25v1.1015h3.5v-1.1015h13.25v11h-13.25v-2.5997h-3.5v2.5997zm0-14v-11h13.25v2.5996h3.5v-2.5996h13.25v11h-13.25v-1.1016h-3.5v1.1016zm87.5 164.000001v-11h13.25v1.1015h3.5v-1.1015h13.25v11h-13.25v-2.5997h-3.5v2.5997zm0-14v-11h13.25v2.5996h3.5v-2.5996h13.25v11h-13.25v-1.1016h-3.5v1.1016zm0-36v-11h13.25v1.1015h3.5v-1.1015h13.25v11h-13.25v-2.5997h-3.5v2.5997zm0-14v-11h13.25v2.5996h3.5v-2.5996h13.25v11h-13.25v-1.1016h-3.5v1.1016zm0-36v-11h13.25v1.1015h3.5v-1.1015h13.25v11h-13.25v-2.5997h-3.5v2.5997zm0-14v-11h13.25v2.5996h3.5v-2.5996h13.25v11h-13.25v-1.1016h-3.5v1.1016zm0-36.000001v-11h13.25v1.1015h3.5v-1.1015h13.25v11h-13.25v-2.5997h-3.5v2.5997zm0-14v-11h13.25v2.5996h3.5v-2.5996h13.25v11h-13.25v-1.1016h-3.5v1.1016zm87.5 164.000001v-11h13.25v1.1015h3.5v-1.1015h13.25v11h-13.25v-2.5997h-3.5v2.5997zm0-14v-11h13.25v2.5996h3.5v-2.5996h13.25v11h-13.25v-1.1016h-3.5v1.1016zm0-36v-11h13.25v1.1015h3.5v-1.1015h13.25v11h-13.25v-2.5997h-3.5v2.5997zm0-14v-11h13.25v2.5996h3.5v-2.5996h13.25v11h-13.25v-1.1016h-3.5v1.1016zm0-36v-11h13.25v1.1015h3.5v-1.1015h13.25v11h-13.25v-2.5997h-3.5v2.5997zm0-14v-11h13.25v2.5996h3.5v-2.5996h13.25v11h-13.25v-1.1016h-3.5v1.1016zm0-36.000001v-11h13.25v1.1015h3.5v-1.1015h13.25v11h-13.25v-2.5997h-3.5v2.5997zm0-14v-11h13.25v2.5996h3.5v-2.5996h13.25v11h-13.25v-1.1016h-3.5v1.1016zm97.5 164.000001v-11h13.25v1.1015h3.5v-1.1015h13.25v11h-13.25v-2.5997h-3.5v2.5997zm0-14v-11h13.25v2.5996h3.5v-2.5996h13.25v11h-13.25v-1.1016h-3.5v1.1016zm0-36v-11h13.25v1.1015h3.5v-1.1015h13.25v11h-13.25v-2.5997h-3.5v2.5997zm0-14v-11h13.25v2.5996h3.5v-2.5996h13.25v11h-13.25v-1.1016h-3.5v1.1016zm0-36v-11h13.25v1.1015h3.5v-1.1015h13.25v11h-13.25v-2.5997h-3.5v2.5997zm0-14v-11h13.25v2.5996h3.5v-2.5996h13.25v11h-13.25v-1.1016h-3.5v1.1016zm0-36.000001v-11h13.25v1.1015h3.5v-1.1015h13.25v11h-13.25v-2.5997h-3.5v2.5997zm0-14v-11h13.25v2.5996h3.5v-2.5996h13.25v11h-13.25v-1.1016h-3.5v1.1016zm-420.5 376.500001h501v-200h-501zm50.5-12.5v-11h13.25v1.1015h3.5v-1.1015h13.25v11h-13.25v-2.5997h-3.5v2.5997zm0-14v-11h13.25v2.5996h3.5v-2.5996h13.25v11h-13.25v-1.1016h-3.5v1.1016zm0-36v-11h13.25v1.1015h3.5v-1.1015h13.25v11h-13.25v-2.5997h-3.5v2.5997zm0-14v-11h13.25v2.5996h3.5v-2.5996h13.25v11h-13.25v-1.1016h-3.5v1.1016zm0-36v-11h13.25v1.1015h3.5v-1.1015h13.25v11h-13.25v-2.5997h-3.5v2.5997zm0-14v-11h13.25v2.5996h3.5v-2.5996h13.25v11h-13.25v-1.1016h-3.5v1.1016zm0-36v-11h13.25v1.1015h3.5v-1.1015h13.25v11h-13.25v-2.5997h-3.5v2.5997zm0-14v-11h13.25v2.5996h3.5v-2.5996h13.25v11h-13.25v-1.1016h-3.5v1.1016zm97.5 164v-11h13.25v1.1015h3.5v-1.1015h13.25v11h-13.25v-2.5997h-3.5v2.5997zm0-14v-11h13.25v2.5996h3.5v-2.5996h13.25v11h-13.25v-1.1016h-3.5v1.1016zm0-36v-11h13.25v1.1015h3.5v-1.1015h13.25v11h-13.25v-2.5997h-3.5v2.5997zm0-14v-11h13.25v2.5996h3.5v-2.5996h13.25v11h-13.25v-1.1016h-3.5v1.1016zm0-36v-11h13.25v1.1015h3.5v-1.1015h13.25v11h-13.25v-2.5997h-3.5v2.5997zm0-14v-11h13.25v2.5996h3.5v-2.5996h13.25v11h-13.25v-1.1016h-3.5v1.1016zm0-36v-11h13.25v1.1015h3.5v-1.1015h13.25v11h-13.25v-2.5997h-3.5v2.5997zm0-14v-11h13.25v2.5996h3.5v-2.5996h13.25v11h-13.25v-1.1016h-3.5v1.1016zm87.5 164v-11h13.25v1.1015h3.5v-1.1015h13.25v11h-13.25v-2.5997h-3.5v2.5997zm0-14v-11h13.25v2.5996h3.5v-2.5996h13.25v11h-13.25v-1.1016h-3.5v1.1016zm0-36v-11h13.25v1.1015h3.5v-1.1015h13.25v11h-13.25v-2.5997h-3.5v2.5997zm0-14v-11h13.25v2.5996h3.5v-2.5996h13.25v11h-13.25v-1.1016h-3.5v1.1016zm0-36v-11h13.25v1.1015h3.5v-1.1015h13.25v11h-13.25v-2.5997h-3.5v2.5997zm0-14v-11h13.25v2.5996h3.5v-2.5996h13.25v11h-13.25v-1.1016h-3.5v1.1016zm0-36v-11h13.25v1.1015h3.5v-1.1015h13.25v11h-13.25v-2.5997h-3.5v2.5997zm0-14v-11h13.25v2.5996h3.5v-2.5996h13.25v11h-13.25v-1.1016h-3.5v1.1016zm87.5 164v-11h13.25v1.1015h3.5v-1.1015h13.25v11h-13.25v-2.5997h-3.5v2.5997zm0-14v-11h13.25v2.5996h3.5v-2.5996h13.25v11h-13.25v-1.1016h-3.5v1.1016zm0-36v-11h13.25v1.1015h3.5v-1.1015h13.25v11h-13.25v-2.5997h-3.5v2.5997zm0-14v-11h13.25v2.5996h3.5v-2.5996h13.25v11h-13.25v-1.1016h-3.5v1.1016zm0-36v-11h13.25v1.1015h3.5v-1.1015h13.25v11h-13.25v-2.5997h-3.5v2.5997zm0-14v-11h13.25v2.5996h3.5v-2.5996h13.25v11h-13.25v-1.1016h-3.5v1.1016zm0-36v-11h13.25v1.1015h3.5v-1.1015h13.25v11h-13.25v-2.5997h-3.5v2.5997zm0-14v-11h13.25v2.5996h3.5v-2.5996h13.25v11h-13.25v-1.1016h-3.5v1.1016zm97.5 164v-11h13.25v1.1015h3.5v-1.1015h13.25v11h-13.25v-2.5997h-3.5v2.5997zm0-14v-11h13.25v2.5996h3.5v-2.5996h13.25v11h-13.25v-1.1016h-3.5v1.1016zm0-36v-11h13.25v1.1015h3.5v-1.1015h13.25v11h-13.25v-2.5997h-3.5v2.5997zm0-14v-11h13.25v2.5996h3.5v-2.5996h13.25v11h-13.25v-1.1016h-3.5v1.1016zm0-36v-11h13.25v1.1015h3.5v-1.1015h13.25v11h-13.25v-2.5997h-3.5v2.5997zm0-14v-11h13.25v2.5996h3.5v-2.5996h13.25v11h-13.25v-1.1016h-3.5v1.1016zm0-36v-11h13.25v1.1015h3.5v-1.1015h13.25v11h-13.25v-2.5997h-3.5v2.5997zm0-14v-11h13.25v2.5996h3.5v-2.5996h13.25v11h-13.25v-1.1016h-3.5v1.1016zm-420.5 376.5h501v-200h-501zm50.5-12.5v-11h13.25v1.1015h3.5v-1.1015h13.25v11h-13.25v-2.5997h-3.5v2.5997zm0-14v-11h13.25v2.5996h3.5v-2.5996h13.25v11h-13.25v-1.1016h-3.5v1.1016zm0-36v-11h13.25v1.1015h3.5v-1.1015h13.25v11h-13.25v-2.5997h-3.5v2.5997zm0-14v-11h13.25v2.5996h3.5v-2.5996h13.25v11h-13.25v-1.1016h-3.5v1.1016zm0-36v-11h13.25v1.1015h3.5v-1.1015h13.25v11h-13.25v-2.5997h-3.5v2.5997zm0-14v-11h13.25v2.5996h3.5v-2.5996h13.25v11h-13.25v-1.1016h-3.5v1.1016zm0-36v-11h13.25v1.1015h3.5v-1.1015h13.25v11h-13.25v-2.5997h-3.5v2.5997zm0-14v-11h13.25v2.5996h3.5v-2.5996h13.25v11h-13.25v-1.1016h-3.5v1.1016zm97.5 164v-11h13.25v1.1015h3.5v-1.1015h13.25v11h-13.25v-2.5997h-3.5v2.5997zm0-14v-11h13.25v2.5996h3.5v-2.5996h13.25v11h-13.25v-1.1016h-3.5v1.1016zm0-36v-11h13.25v1.1015h3.5v-1.1015h13.25v11h-13.25v-2.5997h-3.5v2.5997zm0-14v-11h13.25v2.5996h3.5v-2.5996h13.25v11h-13.25v-1.1016h-3.5v1.1016zm0-36v-11h13.25v1.1015h3.5v-1.1015h13.25v11h-13.25v-2.5997h-3.5v2.5997zm0-14v-11h13.25v2.5996h3.5v-2.5996h13.25v11h-13.25v-1.1016h-3.5v1.1016zm0-36v-11h13.25v1.1015h3.5v-1.1015h13.25v11h-13.25v-2.5997h-3.5v2.5997zm0-14v-11h13.25v2.5996h3.5v-2.5996h13.25v11h-13.25v-1.1016h-3.5v1.1016zm87.5 164v-11h13.25v1.1015h3.5v-1.1015h13.25v11h-13.25v-2.5997h-3.5v2.5997zm0-14v-11h13.25v2.5996h3.5v-2.5996h13.25v11h-13.25v-1.1016h-3.5v1.1016zm0-36v-11h13.25v1.1015h3.5v-1.1015h13.25v11h-13.25v-2.5997h-3.5v2.5997zm0-14v-11h13.25v2.5996h3.5v-2.5996h13.25v11h-13.25v-1.1016h-3.5v1.1016zm0-36v-11h13.25v1.1015h3.5v-1.1015h13.25v11h-13.25v-2.5997h-3.5v2.5997zm0-14v-11h13.25v2.5996h3.5v-2.5996h13.25v11h-13.25v-1.1016h-3.5v1.1016zm0-36v-11h13.25v1.1015h3.5v-1.1015h13.25v11h-13.25v-2.5997h-3.5v2.5997zm0-14v-11h13.25v2.5996h3.5v-2.5996h13.25v11h-13.25v-1.1016h-3.5v1.1016zm87.5 164v-11h13.25v1.1015h3.5v-1.1015h13.25v11h-13.25v-2.5997h-3.5v2.5997zm0-14v-11h13.25v2.5996h3.5v-2.5996h13.25v11h-13.25v-1.1016h-3.5v1.1016zm0-36v-11h13.25v1.1015h3.5v-1.1015h13.25v11h-13.25v-2.5997h-3.5v2.5997zm0-14v-11h13.25v2.5996h3.5v-2.5996h13.25v11h-13.25v-1.1016h-3.5v1.1016zm0-36v-11h13.25v1.1015h3.5v-1.1015h13.25v11h-13.25v-2.5997h-3.5v2.5997zm0-14v-11h13.25v2.5996h3.5v-2.5996h13.25v11h-13.25v-1.1016h-3.5v1.1016zm0-36v-11h13.25v1.1015h3.5v-1.1015h13.25v11h-13.25v-2.5997h-3.5v2.5997zm0-14v-11h13.25v2.5996h3.5v-2.5996h13.25v11h-13.25v-1.1016h-3.5v1.1016zm97.5 164v-11h13.25v1.1015h3.5v-1.1015h13.25v11h-13.25v-2.5997h-3.5v2.5997zm0-14v-11h13.25v2.5996h3.5v-2.5996h13.25v11h-13.25v-1.1016h-3.5v1.1016zm0-36v-11h13.25v1.1015h3.5v-1.1015h13.25v11h-13.25v-2.5997h-3.5v2.5997zm0-14v-11h13.25v2.5996h3.5v-2.5996h13.25v11h-13.25v-1.1016h-3.5v1.1016zm0-36v-11h13.25v1.1015h3.5v-1.1015h13.25v11h-13.25v-2.5997h-3.5v2.5997zm0-14v-11h13.25v2.5996h3.5v-2.5996h13.25v11h-13.25v-1.1016h-3.5v1.1016zm0-36v-11h13.25v1.1015h3.5v-1.1015h13.25v11h-13.25v-2.5997h-3.5v2.5997zm0-14v-11h13.25v2.5996h3.5v-2.5996h13.25v11h-13.25v-1.1016h-3.5v1.1016zm-420.5 376.5h501v-200h-501zm50.5-12.5v-11h13.25v1.1015h3.5v-1.1015h13.25v11h-13.25v-2.5997h-3.5v2.5997zm0-14v-11h13.25v2.5996h3.5v-2.5996h13.25v11h-13.25v-1.1016h-3.5v1.1016zm0-36v-11h13.25v1.1015h3.5v-1.1015h13.25v11h-13.25v-2.5997h-3.5v2.5997zm0-14v-11h13.25v2.5996h3.5v-2.5996h13.25v11h-13.25v-1.1016h-3.5v1.1016zm0-36v-11h13.25v1.1015h3.5v-1.1015h13.25v11h-13.25v-2.5997h-3.5v2.5997zm0-14v-11h13.25v2.5996h3.5v-2.5996h13.25v11h-13.25v-1.1016h-3.5v1.1016zm0-36v-11h13.25v1.1015h3.5v-1.1015h13.25v11h-13.25v-2.5997h-3.5v2.5997zm0-14v-11h13.25v2.5996h3.5v-2.5996h13.25v11h-13.25v-1.1016h-3.5v1.1016zm97.5 164v-11h13.25v1.1015h3.5v-1.1015h13.25v11h-13.25v-2.5997h-3.5v2.5997zm0-14v-11h13.25v2.5996h3.5v-2.5996h13.25v11h-13.25v-1.1016h-3.5v1.1016zm0-36v-11h13.25v1.1015h3.5v-1.1015h13.25v11h-13.25v-2.5997h-3.5v2.5997zm0-14v-11h13.25v2.5996h3.5v-2.5996h13.25v11h-13.25v-1.1016h-3.5v1.1016zm0-36v-11h13.25v1.1015h3.5v-1.1015h13.25v11h-13.25v-2.5997h-3.5v2.5997zm0-14v-11h13.25v2.5996h3.5v-2.5996h13.25v11h-13.25v-1.1016h-3.5v1.1016zm0-36v-11h13.25v1.1015h3.5v-1.1015h13.25v11h-13.25v-2.5997h-3.5v2.5997zm0-14v-11h13.25v2.5996h3.5v-2.5996h13.25v11h-13.25v-1.1016h-3.5v1.1016zm87.5 164v-11h13.25v1.1015h3.5v-1.1015h13.25v11h-13.25v-2.5997h-3.5v2.5997zm0-14v-11h13.25v2.5996h3.5v-2.5996h13.25v11h-13.25v-1.1016h-3.5v1.1016zm0-36v-11h13.25v1.1015h3.5v-1.1015h13.25v11h-13.25v-2.5997h-3.5v2.5997zm0-14v-11h13.25v2.5996h3.5v-2.5996h13.25v11h-13.25v-1.1016h-3.5v1.1016zm0-36v-11h13.25v1.1015h3.5v-1.1015h13.25v11h-13.25v-2.5997h-3.5v2.5997zm0-14v-11h13.25v2.5996h3.5v-2.5996h13.25v11h-13.25v-1.1016h-3.5v1.1016zm0-36v-11h13.25v1.1015h3.5v-1.1015h13.25v11h-13.25v-2.5997h-3.5v2.5997zm0-14v-11h13.25v2.5996h3.5v-2.5996h13.25v11h-13.25v-1.1016h-3.5v1.1016zm87.5 164v-11h13.25v1.1015h3.5v-1.1015h13.25v11h-13.25v-2.5997h-3.5v2.5997zm0-14v-11h13.25v2.5996h3.5v-2.5996h13.25v11h-13.25v-1.1016h-3.5v1.1016zm0-36v-11h13.25v1.1015h3.5v-1.1015h13.25v11h-13.25v-2.5997h-3.5v2.5997zm0-14v-11h13.25v2.5996h3.5v-2.5996h13.25v11h-13.25v-1.1016h-3.5v1.1016zm0-36v-11h13.25v1.1015h3.5v-1.1015h13.25v11h-13.25v-2.5997h-3.5v2.5997zm0-14v-11h13.25v2.5996h3.5v-2.5996h13.25v11h-13.25v-1.1016h-3.5v1.1016zm0-36v-11h13.25v1.1015h3.5v-1.1015h13.25v11h-13.25v-2.5997h-3.5v2.5997zm0-14v-11h13.25v2.5996h3.5v-2.5996h13.25v11h-13.25v-1.1016h-3.5v1.1016zm97.5 164v-11h13.25v1.1015h3.5v-1.1015h13.25v11h-13.25v-2.5997h-3.5v2.5997zm0-14v-11h13.25v2.5996h3.5v-2.5996h13.25v11h-13.25v-1.1016h-3.5v1.1016zm0-36v-11h13.25v1.1015h3.5v-1.1015h13.25v11h-13.25v-2.5997h-3.5v2.5997zm0-14v-11h13.25v2.5996h3.5v-2.5996h13.25v11h-13.25v-1.1016h-3.5v1.1016zm0-36v-11h13.25v1.1015h3.5v-1.1015h13.25v11h-13.25v-2.5997h-3.5v2.5997zm0-14v-11h13.25v2.5996h3.5v-2.5996h13.25v11h-13.25v-1.1016h-3.5v1.1016zm0-36v-11h13.25v1.1015h3.5v-1.1015h13.25v11h-13.25v-2.5997h-3.5v2.5997zm0-14v-11h13.25v2.5996h3.5v-2.5996h13.25v11h-13.25v-1.1016h-3.5v1.1016zm-420.5 376.50005h501v-200.00005h-501zm50.5-12.5v-11h13.25v1.1015h3.5v-1.1015h13.25v11h-13.25v-2.5997h-3.5v2.5997zm0-14v-11h13.25v2.5996h3.5v-2.5996h13.25v11h-13.25v-1.1016h-3.5v1.1016zm0-36.00005v-11h13.25v1.1015h3.5v-1.1015h13.25v11h-13.25v-2.5997h-3.5v2.5997zm0-14v-11h13.25v2.5996h3.5v-2.5996h13.25v11h-13.25v-1.1016h-3.5v1.1016zm0-36v-11h13.25v1.1015h3.5v-1.1015h13.25v11h-13.25v-2.5997h-3.5v2.5997zm0-14v-11h13.25v2.5996h3.5v-2.5996h13.25v11h-13.25v-1.1016h-3.5v1.1016zm0-36v-11h13.25v1.1015h3.5v-1.1015h13.25v11h-13.25v-2.5997h-3.5v2.5997zm0-14v-11h13.25v2.5996h3.5v-2.5996h13.25v11h-13.25v-1.1016h-3.5v1.1016zm97.5 164.00005v-11h13.25v1.1015h3.5v-1.1015h13.25v11h-13.25v-2.5997h-3.5v2.5997zm0-14v-11h13.25v2.5996h3.5v-2.5996h13.25v11h-13.25v-1.1016h-3.5v1.1016zm0-36.00005v-11h13.25v1.1015h3.5v-1.1015h13.25v11h-13.25v-2.5997h-3.5v2.5997zm0-14v-11h13.25v2.5996h3.5v-2.5996h13.25v11h-13.25v-1.1016h-3.5v1.1016zm0-36v-11h13.25v1.1015h3.5v-1.1015h13.25v11h-13.25v-2.5997h-3.5v2.5997zm0-14v-11h13.25v2.5996h3.5v-2.5996h13.25v11h-13.25v-1.1016h-3.5v1.1016zm0-36v-11h13.25v1.1015h3.5v-1.1015h13.25v11h-13.25v-2.5997h-3.5v2.5997zm0-14v-11h13.25v2.5996h3.5v-2.5996h13.25v11h-13.25v-1.1016h-3.5v1.1016zm87.5 164.00005v-11h13.25v1.1015h3.5v-1.1015h13.25v11h-13.25v-2.5997h-3.5v2.5997zm0-14v-11h13.25v2.5996h3.5v-2.5996h13.25v11h-13.25v-1.1016h-3.5v1.1016zm0-36.00005v-11h13.25v1.1015h3.5v-1.1015h13.25v11h-13.25v-2.5997h-3.5v2.5997zm0-14v-11h13.25v2.5996h3.5v-2.5996h13.25v11h-13.25v-1.1016h-3.5v1.1016zm0-36v-11h13.25v1.1015h3.5v-1.1015h13.25v11h-13.25v-2.5997h-3.5v2.5997zm0-14v-11h13.25v2.5996h3.5v-2.5996h13.25v11h-13.25v-1.1016h-3.5v1.1016zm0-36v-11h13.25v1.1015h3.5v-1.1015h13.25v11h-13.25v-2.5997h-3.5v2.5997zm0-14v-11h13.25v2.5996h3.5v-2.5996h13.25v11h-13.25v-1.1016h-3.5v1.1016zm87.5 164.00005v-11h13.25v1.1015h3.5v-1.1015h13.25v11h-13.25v-2.5997h-3.5v2.5997zm0-14v-11h13.25v2.5996h3.5v-2.5996h13.25v11h-13.25v-1.1016h-3.5v1.1016zm0-36.00005v-11h13.25v1.1015h3.5v-1.1015h13.25v11h-13.25v-2.5997h-3.5v2.5997zm0-14v-11h13.25v2.5996h3.5v-2.5996h13.25v11h-13.25v-1.1016h-3.5v1.1016zm0-36v-11h13.25v1.1015h3.5v-1.1015h13.25v11h-13.25v-2.5997h-3.5v2.5997zm0-14v-11h13.25v2.5996h3.5v-2.5996h13.25v11h-13.25v-1.1016h-3.5v1.1016zm0-36v-11h13.25v1.1015h3.5v-1.1015h13.25v11h-13.25v-2.5997h-3.5v2.5997zm0-14v-11h13.25v2.5996h3.5v-2.5996h13.25v11h-13.25v-1.1016h-3.5v1.1016zm97.5 164.00005v-11h13.25v1.1015h3.5v-1.1015h13.25v11h-13.25v-2.5997h-3.5v2.5997zm0-14v-11h13.25v2.5996h3.5v-2.5996h13.25v11h-13.25v-1.1016h-3.5v1.1016zm0-36.00005v-11h13.25v1.1015h3.5v-1.1015h13.25v11h-13.25v-2.5997h-3.5v2.5997zm0-14v-11h13.25v2.5996h3.5v-2.5996h13.25v11h-13.25v-1.1016h-3.5v1.1016zm0-36v-11h13.25v1.1015h3.5v-1.1015h13.25v11h-13.25v-2.5997h-3.5v2.5997zm0-14v-11h13.25v2.5996h3.5v-2.5996h13.25v11h-13.25v-1.1016h-3.5v1.1016zm0-36v-11h13.25v1.1015h3.5v-1.1015h13.25v11h-13.25v-2.5997h-3.5v2.5997zm0-14v-11h13.25v2.5996h3.5v-2.5996h13.25v11h-13.25v-1.1016h-3.5v1.1016zm-420.5 376.50005h501v-200h-501zm50.5-12.5v-11h13.25v1.1016h3.5v-1.1016h13.25v11h-13.25v-2.5996h-3.5v2.5996zm0-14v-11h13.25v2.5996h3.5v-2.5996h13.25v11h-13.25v-1.1016h-3.5v1.1016zm0-36v-11h13.25v1.1016h3.5v-1.1016h13.25v11h-13.25v-2.5996h-3.5v2.5996zm0-14v-11h13.25v2.5996h3.5v-2.5996h13.25v11h-13.25v-1.1016h-3.5v1.1016zm0-36v-11h13.25v1.1016h3.5v-1.1016h13.25v11h-13.25v-2.5996h-3.5v2.5996zm0-14v-11h13.25v2.5996h3.5v-2.5996h13.25v11h-13.25v-1.1016h-3.5v1.1016zm0-36v-11h13.25v1.1016h3.5v-1.1016h13.25v11h-13.25v-2.5996h-3.5v2.5996zm0-14v-11h13.25v2.5996h3.5v-2.5996h13.25v11h-13.25v-1.1016h-3.5v1.1016zm97.5 164v-11h13.25v1.1016h3.5v-1.1016h13.25v11h-13.25v-2.5996h-3.5v2.5996zm0-14v-11h13.25v2.5996h3.5v-2.5996h13.25v11h-13.25v-1.1016h-3.5v1.1016zm0-36v-11h13.25v1.1016h3.5v-1.1016h13.25v11h-13.25v-2.5996h-3.5v2.5996zm0-14v-11h13.25v2.5996h3.5v-2.5996h13.25v11h-13.25v-1.1016h-3.5v1.1016zm0-36v-11h13.25v1.1016h3.5v-1.1016h13.25v11h-13.25v-2.5996h-3.5v2.5996zm0-14v-11h13.25v2.5996h3.5v-2.5996h13.25v11h-13.25v-1.1016h-3.5v1.1016zm0-36v-11h13.25v1.1016h3.5v-1.1016h13.25v11h-13.25v-2.5996h-3.5v2.5996zm0-14v-11h13.25v2.5996h3.5v-2.5996h13.25v11h-13.25v-1.1016h-3.5v1.1016zm87.5 164v-11h13.25v1.1016h3.5v-1.1016h13.25v11h-13.25v-2.5996h-3.5v2.5996zm0-14v-11h13.25v2.5996h3.5v-2.5996h13.25v11h-13.25v-1.1016h-3.5v1.1016zm0-36v-11h13.25v1.1016h3.5v-1.1016h13.25v11h-13.25v-2.5996h-3.5v2.5996zm0-14v-11h13.25v2.5996h3.5v-2.5996h13.25v11h-13.25v-1.1016h-3.5v1.1016zm0-36v-11h13.25v1.1016h3.5v-1.1016h13.25v11h-13.25v-2.5996h-3.5v2.5996zm0-14v-11h13.25v2.5996h3.5v-2.5996h13.25v11h-13.25v-1.1016h-3.5v1.1016zm0-36v-11h13.25v1.1016h3.5v-1.1016h13.25v11h-13.25v-2.5996h-3.5v2.5996zm0-14v-11h13.25v2.5996h3.5v-2.5996h13.25v11h-13.25v-1.1016h-3.5v1.1016zm87.5 164v-11h13.25v1.1016h3.5v-1.1016h13.25v11h-13.25v-2.5996h-3.5v2.5996zm0-14v-11h13.25v2.5996h3.5v-2.5996h13.25v11h-13.25v-1.1016h-3.5v1.1016zm0-36v-11h13.25v1.1016h3.5v-1.1016h13.25v11h-13.25v-2.5996h-3.5v2.5996zm0-14v-11h13.25v2.5996h3.5v-2.5996h13.25v11h-13.25v-1.1016h-3.5v1.1016zm0-36v-11h13.25v1.1016h3.5v-1.1016h13.25v11h-13.25v-2.5996h-3.5v2.5996zm0-14v-11h13.25v2.5996h3.5v-2.5996h13.25v11h-13.25v-1.1016h-3.5v1.1016zm0-36v-11h13.25v1.1016h3.5v-1.1016h13.25v11h-13.25v-2.5996h-3.5v2.5996zm0-14v-11h13.25v2.5996h3.5v-2.5996h13.25v11h-13.25v-1.1016h-3.5v1.1016zm97.5 164v-11h13.25v1.1016h3.5v-1.1016h13.25v11h-13.25v-2.5996h-3.5v2.5996zm0-14v-11h13.25v2.5996h3.5v-2.5996h13.25v11h-13.25v-1.1016h-3.5v1.1016zm0-36v-11h13.25v1.1016h3.5v-1.1016h13.25v11h-13.25v-2.5996h-3.5v2.5996zm0-14v-11h13.25v2.5996h3.5v-2.5996h13.25v11h-13.25v-1.1016h-3.5v1.1016zm0-36v-11h13.25v1.1016h3.5v-1.1016h13.25v11h-13.25v-2.5996h-3.5v2.5996zm0-14v-11h13.25v2.5996h3.5v-2.5996h13.25v11h-13.25v-1.1016h-3.5v1.1016zm0-36v-11h13.25v1.1016h3.5v-1.1016h13.25v11h-13.25v-2.5996h-3.5v2.5996zm0-14v-11h13.25v2.5996h3.5v-2.5996h13.25v11h-13.25v-1.1016h-3.5v1.1016zm-420.5003 376.5002h501v-200h-501zm50.5-12.5v-11h13.25v1.1015h3.5v-1.1015h13.25v11h-13.25v-2.5997h-3.5v2.5997zm0-14v-11h13.25v2.5996h3.5v-2.5996h13.25v11h-13.25v-1.1016h-3.5v1.1016zm0-36v-11h13.25v1.1015h3.5v-1.1015h13.25v11h-13.25v-2.5997h-3.5v2.5997zm0-14v-11h13.25v2.5996h3.5v-2.5996h13.25v11h-13.25v-1.1016h-3.5v1.1016zm0-36v-11h13.25v1.1015h3.5v-1.1015h13.25v11h-13.25v-2.5997h-3.5v2.5997zm0-14v-11h13.25v2.5996h3.5v-2.5996h13.25v11h-13.25v-1.1016h-3.5v1.1016zm0-36v-11h13.25v1.1015h3.5v-1.1015h13.25v11h-13.25v-2.5997h-3.5v2.5997zm0-14v-11h13.25v2.5996h3.5v-2.5996h13.25v11h-13.25v-1.1016h-3.5v1.1016zm97.5 164v-11h13.25v1.1015h3.5v-1.1015h13.25v11h-13.25v-2.5997h-3.5v2.5997zm0-14v-11h13.25v2.5996h3.5v-2.5996h13.25v11h-13.25v-1.1016h-3.5v1.1016zm0-36v-11h13.25v1.1015h3.5v-1.1015h13.25v11h-13.25v-2.5997h-3.5v2.5997zm0-14v-11h13.25v2.5996h3.5v-2.5996h13.25v11h-13.25v-1.1016h-3.5v1.1016zm0-36v-11h13.25v1.1015h3.5v-1.1015h13.25v11h-13.25v-2.5997h-3.5v2.5997zm0-14v-11h13.25v2.5996h3.5v-2.5996h13.25v11h-13.25v-1.1016h-3.5v1.1016zm0-36v-11h13.25v1.1015h3.5v-1.1015h13.25v11h-13.25v-2.5997h-3.5v2.5997zm0-14v-11h13.25v2.5996h3.5v-2.5996h13.25v11h-13.25v-1.1016h-3.5v1.1016zm87.5 164v-11h13.25v1.1015h3.5v-1.1015h13.25v11h-13.25v-2.5997h-3.5v2.5997zm0-14v-11h13.25v2.5996h3.5v-2.5996h13.25v11h-13.25v-1.1016h-3.5v1.1016zm0-36v-11h13.25v1.1015h3.5v-1.1015h13.25v11h-13.25v-2.5997h-3.5v2.5997zm0-14v-11h13.25v2.5996h3.5v-2.5996h13.25v11h-13.25v-1.1016h-3.5v1.1016zm0-36v-11h13.25v1.1015h3.5v-1.1015h13.25v11h-13.25v-2.5997h-3.5v2.5997zm0-14v-11h13.25v2.5996h3.5v-2.5996h13.25v11h-13.25v-1.1016h-3.5v1.1016zm0-36v-11h13.25v1.1015h3.5v-1.1015h13.25v11h-13.25v-2.5997h-3.5v2.5997zm0-14v-11h13.25v2.5996h3.5v-2.5996h13.25v11h-13.25v-1.1016h-3.5v1.1016zm87.5 164v-11h13.25v1.1015h3.5v-1.1015h13.25v11h-13.25v-2.5997h-3.5v2.5997zm0-14v-11h13.25v2.5996h3.5v-2.5996h13.25v11h-13.25v-1.1016h-3.5v1.1016zm0-36v-11h13.25v1.1015h3.5v-1.1015h13.25v11h-13.25v-2.5997h-3.5v2.5997zm0-14v-11h13.25v2.5996h3.5v-2.5996h13.25v11h-13.25v-1.1016h-3.5v1.1016zm0-36v-11h13.25v1.1015h3.5v-1.1015h13.25v11h-13.25v-2.5997h-3.5v2.5997zm0-14v-11h13.25v2.5996h3.5v-2.5996h13.25v11h-13.25v-1.1016h-3.5v1.1016zm0-36v-11h13.25v1.1015h3.5v-1.1015h13.25v11h-13.25v-2.5997h-3.5v2.5997zm0-14v-11h13.25v2.5996h3.5v-2.5996h13.25v11h-13.25v-1.1016h-3.5v1.1016zm97.5 164v-11h13.25v1.1015h3.5v-1.1015h13.25v11h-13.25v-2.5997h-3.5v2.5997zm0-14v-11h13.25v2.5996h3.5v-2.5996h13.25v11h-13.25v-1.1016h-3.5v1.1016zm0-36v-11h13.25v1.1015h3.5v-1.1015h13.25v11h-13.25v-2.5997h-3.5v2.5997zm0-14v-11h13.25v2.5996h3.5v-2.5996h13.25v11h-13.25v-1.1016h-3.5v1.1016zm0-36v-11h13.25v1.1015h3.5v-1.1015h13.25v11h-13.25v-2.5997h-3.5v2.5997zm0-14v-11h13.25v2.5996h3.5v-2.5996h13.25v11h-13.25v-1.1016h-3.5v1.1016zm0-36v-11h13.25v1.1015h3.5v-1.1015h13.25v11h-13.25v-2.5997h-3.5v2.5997zm0-14v-11h13.25v2.5996h3.5v-2.5996h13.25v11h-13.25v-1.1016h-3.5v1.1016zm-420.5 376.5h501v-200h-501zm50.5-12.5v-11h13.25v1.1015h3.5v-1.1015h13.25v11h-13.25v-2.5997h-3.5v2.5997zm0-14v-11h13.25v2.5996h3.5v-2.5996h13.25v11h-13.25v-1.1016h-3.5v1.1016zm0-36v-11h13.25v1.1015h3.5v-1.1015h13.25v11h-13.25v-2.5997h-3.5v2.5997zm0-14v-11h13.25v2.5996h3.5v-2.5996h13.25v11h-13.25v-1.1016h-3.5v1.1016zm0-36v-11h13.25v1.1015h3.5v-1.1015h13.25v11h-13.25v-2.5997h-3.5v2.5997zm0-14v-11h13.25v2.5996h3.5v-2.5996h13.25v11h-13.25v-1.1016h-3.5v1.1016zm0-36v-11h13.25v1.1015h3.5v-1.1015h13.25v11h-13.25v-2.5997h-3.5v2.5997zm0-14v-11h13.25v2.5996h3.5v-2.5996h13.25v11h-13.25v-1.1016h-3.5v1.1016zm97.5 164v-11h13.25v1.1015h3.5v-1.1015h13.25v11h-13.25v-2.5997h-3.5v2.5997zm0-14v-11h13.25v2.5996h3.5v-2.5996h13.25v11h-13.25v-1.1016h-3.5v1.1016zm0-36v-11h13.25v1.1015h3.5v-1.1015h13.25v11h-13.25v-2.5997h-3.5v2.5997zm0-14v-11h13.25v2.5996h3.5v-2.5996h13.25v11h-13.25v-1.1016h-3.5v1.1016zm0-36v-11h13.25v1.1015h3.5v-1.1015h13.25v11h-13.25v-2.5997h-3.5v2.5997zm0-14v-11h13.25v2.5996h3.5v-2.5996h13.25v11h-13.25v-1.1016h-3.5v1.1016zm0-36v-11h13.25v1.1015h3.5v-1.1015h13.25v11h-13.25v-2.5997h-3.5v2.5997zm0-14v-11h13.25v2.5996h3.5v-2.5996h13.25v11h-13.25v-1.1016h-3.5v1.1016zm87.5 164v-11h13.25v1.1015h3.5v-1.1015h13.25v11h-13.25v-2.5997h-3.5v2.5997zm0-14v-11h13.25v2.5996h3.5v-2.5996h13.25v11h-13.25v-1.1016h-3.5v1.1016zm0-36v-11h13.25v1.1015h3.5v-1.1015h13.25v11h-13.25v-2.5997h-3.5v2.5997zm0-14v-11h13.25v2.5996h3.5v-2.5996h13.25v11h-13.25v-1.1016h-3.5v1.1016zm0-36v-11h13.25v1.1015h3.5v-1.1015h13.25v11h-13.25v-2.5997h-3.5v2.5997zm0-14v-11h13.25v2.5996h3.5v-2.5996h13.25v11h-13.25v-1.1016h-3.5v1.1016zm0-36v-11h13.25v1.1015h3.5v-1.1015h13.25v11h-13.25v-2.5997h-3.5v2.5997zm0-14v-11h13.25v2.5996h3.5v-2.5996h13.25v11h-13.25v-1.1016h-3.5v1.1016zm87.5 164v-11h13.25v1.1015h3.5v-1.1015h13.25v11h-13.25v-2.5997h-3.5v2.5997zm0-14v-11h13.25v2.5996h3.5v-2.5996h13.25v11h-13.25v-1.1016h-3.5v1.1016zm0-36v-11h13.25v1.1015h3.5v-1.1015h13.25v11h-13.25v-2.5997h-3.5v2.5997zm0-14v-11h13.25v2.5996h3.5v-2.5996h13.25v11h-13.25v-1.1016h-3.5v1.1016zm0-36v-11h13.25v1.1015h3.5v-1.1015h13.25v11h-13.25v-2.5997h-3.5v2.5997zm0-14v-11h13.25v2.5996h3.5v-2.5996h13.25v11h-13.25v-1.1016h-3.5v1.1016zm0-36v-11h13.25v1.1015h3.5v-1.1015h13.25v11h-13.25v-2.5997h-3.5v2.5997zm0-14v-11h13.25v2.5996h3.5v-2.5996h13.25v11h-13.25v-1.1016h-3.5v1.1016zm97.5 164v-11h13.25v1.1015h3.5v-1.1015h13.25v11h-13.25v-2.5997h-3.5v2.5997zm0-14v-11h13.25v2.5996h3.5v-2.5996h13.25v11h-13.25v-1.1016h-3.5v1.1016zm0-36v-11h13.25v1.1015h3.5v-1.1015h13.25v11h-13.25v-2.5997h-3.5v2.5997zm0-14v-11h13.25v2.5996h3.5v-2.5996h13.25v11h-13.25v-1.1016h-3.5v1.1016zm0-36v-11h13.25v1.1015h3.5v-1.1015h13.25v11h-13.25v-2.5997h-3.5v2.5997zm0-14v-11h13.25v2.5996h3.5v-2.5996h13.25v11h-13.25v-1.1016h-3.5v1.1016zm0-36v-11h13.25v1.1015h3.5v-1.1015h13.25v11h-13.25v-2.5997h-3.5v2.5997zm0-14v-11h13.25v2.5996h3.5v-2.5996h13.25v11h-13.25v-1.1016h-3.5v1.1016zm-420.5 376.5h501v-200h-501zm50.5-12.5v-11h13.25v1.1015h3.5v-1.1015h13.25v11h-13.25v-2.5997h-3.5v2.5997zm0-14v-11h13.25v2.5996h3.5v-2.5996h13.25v11h-13.25v-1.1016h-3.5v1.1016zm0-36v-11h13.25v1.1015h3.5v-1.1015h13.25v11h-13.25v-2.5997h-3.5v2.5997zm0-14v-11h13.25v2.5996h3.5v-2.5996h13.25v11h-13.25v-1.1016h-3.5v1.1016zm0-36v-11h13.25v1.1015h3.5v-1.1015h13.25v11h-13.25v-2.5997h-3.5v2.5997zm0-14v-11h13.25v2.5996h3.5v-2.5996h13.25v11h-13.25v-1.1016h-3.5v1.1016zm0-36v-11h13.25v1.1015h3.5v-1.1015h13.25v11h-13.25v-2.5997h-3.5v2.5997zm0-14v-11h13.25v2.5996h3.5v-2.5996h13.25v11h-13.25v-1.1016h-3.5v1.1016zm97.5 164v-11h13.25v1.1015h3.5v-1.1015h13.25v11h-13.25v-2.5997h-3.5v2.5997zm0-14v-11h13.25v2.5996h3.5v-2.5996h13.25v11h-13.25v-1.1016h-3.5v1.1016zm0-36v-11h13.25v1.1015h3.5v-1.1015h13.25v11h-13.25v-2.5997h-3.5v2.5997zm0-14v-11h13.25v2.5996h3.5v-2.5996h13.25v11h-13.25v-1.1016h-3.5v1.1016zm0-36v-11h13.25v1.1015h3.5v-1.1015h13.25v11h-13.25v-2.5997h-3.5v2.5997zm0-14v-11h13.25v2.5996h3.5v-2.5996h13.25v11h-13.25v-1.1016h-3.5v1.1016zm0-36v-11h13.25v1.1015h3.5v-1.1015h13.25v11h-13.25v-2.5997h-3.5v2.5997zm0-14v-11h13.25v2.5996h3.5v-2.5996h13.25v11h-13.25v-1.1016h-3.5v1.1016zm87.5 164v-11h13.25v1.1015h3.5v-1.1015h13.25v11h-13.25v-2.5997h-3.5v2.5997zm0-14v-11h13.25v2.5996h3.5v-2.5996h13.25v11h-13.25v-1.1016h-3.5v1.1016zm0-36v-11h13.25v1.1015h3.5v-1.1015h13.25v11h-13.25v-2.5997h-3.5v2.5997zm0-14v-11h13.25v2.5996h3.5v-2.5996h13.25v11h-13.25v-1.1016h-3.5v1.1016zm0-36v-11h13.25v1.1015h3.5v-1.1015h13.25v11h-13.25v-2.5997h-3.5v2.5997zm0-14v-11h13.25v2.5996h3.5v-2.5996h13.25v11h-13.25v-1.1016h-3.5v1.1016zm0-36v-11h13.25v1.1015h3.5v-1.1015h13.25v11h-13.25v-2.5997h-3.5v2.5997zm0-14v-11h13.25v2.5996h3.5v-2.5996h13.25v11h-13.25v-1.1016h-3.5v1.1016zm87.5 164v-11h13.25v1.1015h3.5v-1.1015h13.25v11h-13.25v-2.5997h-3.5v2.5997zm0-14v-11h13.25v2.5996h3.5v-2.5996h13.25v11h-13.25v-1.1016h-3.5v1.1016zm0-36v-11h13.25v1.1015h3.5v-1.1015h13.25v11h-13.25v-2.5997h-3.5v2.5997zm0-14v-11h13.25v2.5996h3.5v-2.5996h13.25v11h-13.25v-1.1016h-3.5v1.1016zm0-36v-11h13.25v1.1015h3.5v-1.1015h13.25v11h-13.25v-2.5997h-3.5v2.5997zm0-14v-11h13.25v2.5996h3.5v-2.5996h13.25v11h-13.25v-1.1016h-3.5v1.1016zm0-36v-11h13.25v1.1015h3.5v-1.1015h13.25v11h-13.25v-2.5997h-3.5v2.5997zm0-14v-11h13.25v2.5996h3.5v-2.5996h13.25v11h-13.25v-1.1016h-3.5v1.1016zm97.5 164v-11h13.25v1.1015h3.5v-1.1015h13.25v11h-13.25v-2.5997h-3.5v2.5997zm0-14v-11h13.25v2.5996h3.5v-2.5996h13.25v11h-13.25v-1.1016h-3.5v1.1016zm0-36v-11h13.25v1.1015h3.5v-1.1015h13.25v11h-13.25v-2.5997h-3.5v2.5997zm0-14v-11h13.25v2.5996h3.5v-2.5996h13.25v11h-13.25v-1.1016h-3.5v1.1016zm0-36v-11h13.25v1.1015h3.5v-1.1015h13.25v11h-13.25v-2.5997h-3.5v2.5997zm0-14v-11h13.25v2.5996h3.5v-2.5996h13.25v11h-13.25v-1.1016h-3.5v1.1016zm0-36v-11h13.25v1.1015h3.5v-1.1015h13.25v11h-13.25v-2.5997h-3.5v2.5997zm0-14v-11h13.25v2.5996h3.5v-2.5996h13.25v11h-13.25v-1.1016h-3.5v1.1016zm-420.5 376.5h501v-200h-501zm50.5-12.5v-11h13.25v1.1016h3.5v-1.1016h13.25v11h-13.25v-2.5996h-3.5v2.5996zm0-14v-11h13.25v2.5996h3.5v-2.5996h13.25v11h-13.25v-1.1016h-3.5v1.1016zm0-36v-11h13.25v1.1016h3.5v-1.1016h13.25v11h-13.25v-2.5996h-3.5v2.5996zm0-14v-11h13.25v2.5996h3.5v-2.5996h13.25v11h-13.25v-1.1016h-3.5v1.1016zm0-36v-11h13.25v1.1016h3.5v-1.1016h13.25v11h-13.25v-2.5996h-3.5v2.5996zm0-14v-11h13.25v2.5996h3.5v-2.5996h13.25v11h-13.25v-1.1016h-3.5v1.1016zm0-36v-11h13.25v1.1016h3.5v-1.1016h13.25v11h-13.25v-2.5996h-3.5v2.5996zm0-14v-11h13.25v2.5996h3.5v-2.5996h13.25v11h-13.25v-1.1016h-3.5v1.1016zm97.5 164v-11h13.25v1.1016h3.5v-1.1016h13.25v11h-13.25v-2.5996h-3.5v2.5996zm0-14v-11h13.25v2.5996h3.5v-2.5996h13.25v11h-13.25v-1.1016h-3.5v1.1016zm0-36v-11h13.25v1.1016h3.5v-1.1016h13.25v11h-13.25v-2.5996h-3.5v2.5996zm0-14v-11h13.25v2.5996h3.5v-2.5996h13.25v11h-13.25v-1.1016h-3.5v1.1016zm0-36v-11h13.25v1.1016h3.5v-1.1016h13.25v11h-13.25v-2.5996h-3.5v2.5996zm0-14v-11h13.25v2.5996h3.5v-2.5996h13.25v11h-13.25v-1.1016h-3.5v1.1016zm0-36v-11h13.25v1.1016h3.5v-1.1016h13.25v11h-13.25v-2.5996h-3.5v2.5996zm0-14v-11h13.25v2.5996h3.5v-2.5996h13.25v11h-13.25v-1.1016h-3.5v1.1016zm87.5 164v-11h13.25v1.1016h3.5v-1.1016h13.25v11h-13.25v-2.5996h-3.5v2.5996zm0-14v-11h13.25v2.5996h3.5v-2.5996h13.25v11h-13.25v-1.1016h-3.5v1.1016zm0-36v-11h13.25v1.1016h3.5v-1.1016h13.25v11h-13.25v-2.5996h-3.5v2.5996zm0-14v-11h13.25v2.5996h3.5v-2.5996h13.25v11h-13.25v-1.1016h-3.5v1.1016zm0-36v-11h13.25v1.1016h3.5v-1.1016h13.25v11h-13.25v-2.5996h-3.5v2.5996zm0-14v-11h13.25v2.5996h3.5v-2.5996h13.25v11h-13.25v-1.1016h-3.5v1.1016zm0-36v-11h13.25v1.1016h3.5v-1.1016h13.25v11h-13.25v-2.5996h-3.5v2.5996zm0-14v-11h13.25v2.5996h3.5v-2.5996h13.25v11h-13.25v-1.1016h-3.5v1.1016zm87.5 164v-11h13.25v1.1016h3.5v-1.1016h13.25v11h-13.25v-2.5996h-3.5v2.5996zm0-14v-11h13.25v2.5996h3.5v-2.5996h13.25v11h-13.25v-1.1016h-3.5v1.1016zm0-36v-11h13.25v1.1016h3.5v-1.1016h13.25v11h-13.25v-2.5996h-3.5v2.5996zm0-14v-11h13.25v2.5996h3.5v-2.5996h13.25v11h-13.25v-1.1016h-3.5v1.1016zm0-36v-11h13.25v1.1016h3.5v-1.1016h13.25v11h-13.25v-2.5996h-3.5v2.5996zm0-14v-11h13.25v2.5996h3.5v-2.5996h13.25v11h-13.25v-1.1016h-3.5v1.1016zm0-36v-11h13.25v1.1016h3.5v-1.1016h13.25v11h-13.25v-2.5996h-3.5v2.5996zm0-14v-11h13.25v2.5996h3.5v-2.5996h13.25v11h-13.25v-1.1016h-3.5v1.1016zm97.5 164v-11h13.25v1.1016h3.5v-1.1016h13.25v11h-13.25v-2.5996h-3.5v2.5996zm0-14v-11h13.25v2.5996h3.5v-2.5996h13.25v11h-13.25v-1.1016h-3.5v1.1016zm0-36v-11h13.25v1.1016h3.5v-1.1016h13.25v11h-13.25v-2.5996h-3.5v2.5996zm0-14v-11h13.25v2.5996h3.5v-2.5996h13.25v11h-13.25v-1.1016h-3.5v1.1016zm0-36v-11h13.25v1.1016h3.5v-1.1016h13.25v11h-13.25v-2.5996h-3.5v2.5996zm0-14v-11h13.25v2.5996h3.5v-2.5996h13.25v11h-13.25v-1.1016h-3.5v1.1016zm0-36v-11h13.25v1.1016h3.5v-1.1016h13.25v11h-13.25v-2.5996h-3.5v2.5996zm0-14v-11h13.25v2.5996h3.5v-2.5996h13.25v11h-13.25v-1.1016h-3.5v1.1016z" fill="#d5e5ff" fill-opacity=".8"/><path id="frame" d="m649.4571.00004882h49.54291v2112.90005118h-49.54291zm-649.45709999 0h49.54291099v2112.90005118h-49.54291099zm0 2056.50275118h698.90001999v56.4973h-698.90001999zm0-2056.50275118h698.90001999v56.49732618h-698.90001999z" fill="#c5c7c4"/></g></svg>