<svg id="svg2" height="2113.8" overflow="visible" viewBox="0 0 699.79999 2113.8" width="699.79999" xmlns="http://www.w3.org/2000/svg"><g id="layer1" stroke="#000" stroke-linecap="round" stroke-width=".80000001"><g id="CBBS_top" fill="#c6782e" stroke="#000" stroke-linecap="round" stroke-width="1"><rect id="C3t" height="120" width="80" x="150" y="269"/><rect id="C2t" height="120" width="80" x="285" y="472"/><rect id="C1t" height="120" width="80" x="469.39999" y="675"/><rect id="C4t" height="120" width="80" x="377" y="878"/></g><g id="CBBS_bottom" fill="#c6782e" stroke="#000" stroke-linecap="round" stroke-width="1"><rect id="C4b" height="120" width="80" x="377" y="1115.15"/><rect id="C1b" height="120" width="80" x="470" y="1318.15"/><rect id="C2b" height="120" width="80" x="285" y="1521.15"/><rect id="C3b" height="120" width="80" x="150" y="1724.15"/></g><g id="DBBS" fill="#c6782e" stroke="#000" stroke-linecap="round" stroke-width=".80000001" transform="translate(-280)"><rect id="D1" height="2000" width="10" x="529.5" y="56.5"/><rect id="D2" height="2000" width="10" x="479.5" y="56.5"/><rect id="D3" height="2000" width="10" x="429.5" y="56.5"/><rect id="D4" height="2000" width="10" x="379.5" y="56.5"/></g><rect id="upright" fill="#e0dfdb" fill-rule="evenodd" height="2000" stroke="#000" stroke-linecap="square" width="49.5" x="649.5" y="56.5"/><path id="sideBar" d="m299.7 56.50044v2000.00006h50v-2000.00006z" fill="#e0e0e0" fill-opacity=".8"/><path id="frame" d="m649.4571.00004882h49.54291v2112.90005118h-49.54291zm-649.45709999 0h49.54291099v2112.90005118h-49.54291099zm0 2056.50275118h698.90001999v56.4973h-698.90001999zm0-2056.50275118h698.90001999v56.49732618h-698.90001999z" fill="#c5c7c4"/><path id="segregation" d="m59.600002 1871.5002h49.999998v50h-49.999998zm119.999988 0h50v50h-50zm-59.99998 60h50v50h-50zm59.99998 0h50v50h-50zm-59.99998-60h50v50h-50zm-60.000008 60h49.999998v50h-49.999998zm0 60h49.999998v49.9999h-49.999998zm119.999988 0h50v49.9999h-50zm60-120h50v50h-50zm0 60h50v50h-50zm-119.99998 60h50v49.9999h-50zm119.99998 0h50v49.9999h-50zm-189.999992-135h250.000002v199.9999h-250.000002zm10.000004-185h49.999998v50h-49.999998zm119.999988 0h50v50h-50zm-59.99998 60h50v50h-50zm59.99998 0h50v50h-50zm-59.99998-60h50v50h-50zm-60.000008 60h49.999998v50h-49.999998zm0 60h49.999998v49.9999h-49.999998zm119.999988 0h50v49.9999h-50zm60-120h50v50h-50zm0 60h50v50h-50zm-119.99998 60h50v49.9999h-50zm119.99998 0h50v49.9999h-50zm-189.999992-135h250.000002v199.9999h-250.000002zm10.000004-185h49.999998v50h-49.999998zm119.999988 0h50v50h-50zm-59.99998 60h50v50h-50zm59.99998 0h50v50h-50zm-59.99998-60h50v50h-50zm-60.000008 60h49.999998v50h-49.999998zm0 60h49.999998v49.9999h-49.999998zm119.999988 0h50v49.9999h-50zm60-120h50v50h-50zm0 60h50v50h-50zm-119.99998 60h50v49.9999h-50zm119.99998 0h50v49.9999h-50zm-189.999992-135h250.000002v199.9999h-250.000002zm10.000004-185h49.999998v50h-49.999998zm119.999988 0h50v50h-50zm-59.99998 60h50v50h-50zm59.99998 0h50v50h-50zm-59.99998-60h50v50h-50zm-60.000008 60h49.999998v50h-49.999998zm0 60h49.999998v49.9999h-49.999998zm119.999988 0h50v49.9999h-50zm60-120h50v50h-50zm0 60h50v50h-50zm-119.99998 60h50v49.9999h-50zm119.99998 0h50v49.9999h-50zm-189.999992-135h250.000002v199.9999h-250.000002zm10.000004-185h49.999998v50h-49.999998zm119.999988 0h50v50h-50zm-59.99998 60h50v50h-50zm59.99998 0h50v50h-50zm-59.99998-60h50v50h-50zm-60.000008 60h49.999998v50h-49.999998zm0 60h49.999998v49.9999h-49.999998zm119.999988 0h50v49.9999h-50zm60-120h50v50h-50zm0 60h50v50h-50zm-119.99998 60h50v49.9999h-50zm119.99998 0h50v49.9999h-50zm-189.999992-135h250.000002v199.9999h-250.000002zm10.000004-185.00011h49.999998v50h-49.999998zm119.999988 0h50v50h-50zm-59.99998 60.00001h50v50h-50zm59.99998 0h50v50h-50zm-59.99998-60.00001h50v50h-50zm-60.000008 60.00001h49.999998v50h-49.999998zm0 60h49.999998v50h-49.999998zm119.999988 0h50v50h-50zm60-120.00001h50v50h-50zm0 60.00001h50v50h-50zm-119.99998 60h50v50h-50zm119.99998 0h50v50h-50zm-189.999992-135h250.000002v200h-250.000002zm10.000004-185.00001h49.999998v50h-49.999998zm119.999988 0h50v50h-50zm-59.99998 60.00001h50v50h-50zm59.99998 0h50v50h-50zm-59.99998-60.00001h50v50h-50zm-60.000008 60.00001h49.999998v50h-49.999998zm0 60h49.999998v50h-49.999998zm119.999988 0h50v50h-50zm60-120.00001h50v50h-50zm0 60.00001h50v50h-50zm-119.99998 60h50v50h-50zm119.99998 0h50v50h-50zm-189.999992-135h250.000002v200h-250.000002zm10.000004-185.00001h49.999998v50h-49.999998zm119.999988 0h50v50h-50zm-59.99998 60.00001h50v50h-50zm59.99998 0h50v50h-50zm-59.99998-60.00001h50v50h-50zm-60.000008 60.00001h49.999998v50h-49.999998zm0 60h49.999998v50h-49.999998zm119.999988 0h50v50h-50zm60-120.00001h50v50h-50zm0 60.00001h50v50h-50zm-119.99998 60h50v50h-50zm119.99998 0h50v50h-50zm-189.999992-135h250.000002v200h-250.000002zm10.000004-185.00001h49.999998v50h-49.999998zm119.999988 0h50v50h-50zm-59.99998 60.00001h50v50h-50zm59.99998 0h50v50h-50zm-59.99998-60.00001h50v50h-50zm-60.000008 60.00001h49.999998v50h-49.999998zm0 60h49.999998v50h-49.999998zm119.999988 0h50v50h-50zm60-120.00001h50v50h-50zm0 60.00001h50v50h-50zm-119.99998 60h50v50h-50zm119.99998 0h50v50h-50zm-189.999992-135h250.000002v200h-250.000002zm10.000004-185.000006h49.999998v49.999996h-49.999998zm119.999988 0h50v49.999996h-50zm-59.99998 60.000006h50v50h-50zm59.99998 0h50v50h-50zm-59.99998-60.000006h50v49.999996h-50zm-60.000008 60.000006h49.999998v50h-49.999998zm0 60h49.999998v50h-49.999998zm119.999988 0h50v50h-50zm60-120.000006h50v49.999996h-50zm0 60.000006h50v50h-50zm-119.99998 60h50v50h-50zm119.99998 0h50v50h-50zm-189.999992-135.000002h250.000002v200.000002h-250.000002z" style="opacity:.98999999;fill:#333;fill-opacity:.8;stroke:#333;stroke-width:5;stroke-linecap:round;stroke-linejoin:bevel"/><rect id="segregation2" height="2000" style="opacity:.98999999;fill:#d6e5ff;fill-opacity:.8;stroke:#333;stroke-width:.5;stroke-linecap:round;stroke-linejoin:bevel" width="300" x="349.79999" y="56.5"/></g></svg>