<svg id="svg2" height="187.8" overflow="visible" shape-rendering="crispEdges" viewBox="0 0 132 187.8" width="132" xmlns="http://www.w3.org/2000/svg" xmlns:xlink="http://www.w3.org/1999/xlink"><clipPath id="a"><path id="path5" d="m62.14198 54.90205v28.38086h-37.453125v40.16796h13.462891v19.45118h26.535156v-19.4961h19.953125v19.4961h14.548828v-29.58985h-31.466796v-21.38672h31.466796v-37.02343h-5.513672v11.9414h-6.4375v-11.9414zm-34.925781 29.57226h18.421875v18.37305h-18.421875z" shape-rendering="crispEdges"/></clipPath><clipPath id="b"><path id="path8" d="m183.22354 55.331324v8.9629h-8.97265v34.03711h10.05859v-41.95118h45.34766v4.44531h10.09375v-5.49414zm46.4336 34.5254v8.47461h10.09375v-8.47461z" shape-rendering="crispEdges"/></clipPath><clipPath id="c"><path id="path11" d="m14.259765 45.050394v.607421h6.761718v7.845704h-6.761718v35.746093h90.925785v-9.751953h-10.082031v-28.714844h10.082031v-5.732421z" shape-rendering="crispEdges"/></clipPath><clipPath id="d"><path id="path14" clip-path="url(#c)" d="m116.6 41.649998h-78.5m78.5 1.5h-78.5m78.5 1.5h-78.5m78.5 1.5h-78.5m78.5 1.5h-78.5m78.5 1.5h-78.5m78.5 1.5h-78.5m78.5 1.5h-78.5m78.5 1.5h-78.5m78.5 1.5h-78.5m78.5 1.5h-78.5m78.5 1.5h-78.5m78.5 1.5h-78.5m78.5 1.5h-78.5m78.5 1.5h-78.5m78.5 1.5h-78.5m78.5 1.5h-78.5m78.5 1.5h-78.5m78.5 1.5h-78.5m78.5 1.5h-78.5m78.5 1.5h-78.5m78.5 1.500002h-78.5m78.5 1.5h-78.5m78.5 1.5h-78.5m78.5 1.5h-78.5m78.5 1.5h-78.5m78.5 1.5h-78.5m78.5 1.5h-78.5m78.5 1.5h-78.5m78.5 1.5h-78.5m78.5 1.5h-78.5m78.5 1.5h-78.5m78.5 1.5h-78.5m78.5 1.5h-78.5m78.5 1.5h-78.5m64.75-50.750002v50.500002m1.5-50.500002v50.500002m1.5-50.500002v50.500002m1.5-50.500002v50.500002m1.5-50.500002v50.500002m1.5-50.500002v50.500002m1.5-50.500002v50.500002m1.5-50.500002v50.500002m1.5-50.500002v50.500002m1.5-50.500002v50.500002m-78-50.500002v50.500002m1.5-50.500002v50.500002m1.5-50.500002v50.500002m1.5-50.500002v50.500002m1.5-50.500002v50.500002m1.5-50.500002v50.500002m1.5-50.500002v50.500002m1.5-50.500002v50.500002m1.5-50.500002v50.500002m1.5-50.500002v50.500002m1.5-50.500002v50.500002m1.5-50.500002v50.500002m1.5-50.500002v50.500002m1.5-50.500002v50.500002m1.5-50.500002v50.500002m1.5-50.500002v50.500002m1.5-50.500002v50.500002m1.5-50.500002v50.500002m1.5-50.500002v50.500002m1.5-50.500002v50.500002m1.5-50.500002v50.500002m1.5-50.500002v50.500002m1.5-50.500002v50.500002m1.5-50.500002v50.500002m1.5-50.500002v50.500002m1.5-50.500002v50.500002m1.5-50.500002v50.500002m1.5-50.500002v50.500002m1.5-50.500002v50.500002m1.5-50.500002v50.500002m1.5-50.500002v50.500002m1.5-50.500002v50.500002m1.5-50.500002v50.500002m1.5-50.500002v50.500002m1.5-50.500002v50.500002m1.5-50.500002v50.500002m1.5-50.500002v50.500002m1.5-50.500002v50.500002m1.5-50.500002v50.500002m1.5-50.500002v50.500002m1.5-50.500002v50.500002m1.5-50.500002v50.500002m1.5-50.500002v50.500002m-63-50.750002h78v51.000002h-78zm .25 0h-78.5m78.5 1.5h-78.5m78.5 1.5h-78.5m78.5 1.5h-78.5m78.5 1.5h-78.5m78.5 1.5h-78.5m78.5 1.5h-78.5m78.5 1.5h-78.5m78.5 1.5h-78.5m78.5 1.5h-78.5m78.5 1.5h-78.5m78.5 1.5h-78.5m78.5 1.5h-78.5m78.5 1.5h-78.5m78.5 1.5h-78.5m78.5 1.5h-78.5m78.5 1.5h-78.5m78.5 1.5h-78.5m78.5 1.5h-78.5m78.5 1.5h-78.5m78.5 1.5h-78.5m78.5 1.500002h-78.5m78.5 1.5h-78.5m78.5 1.5h-78.5m78.5 1.5h-78.5m78.5 1.5h-78.5m78.5 1.5h-78.5m78.5 1.5h-78.5m78.5 1.5h-78.5m78.5 1.5h-78.5m78.5 1.5h-78.5m78.5 1.5h-78.5m78.5 1.5h-78.5m78.5 1.5h-78.5m78.5 1.5h-78.5m64.75-50.750002v50.500002m1.5-50.500002v50.500002m1.5-50.500002v50.500002m1.5-50.500002v50.500002m1.5-50.500002v50.500002m1.5-50.500002v50.500002m1.5-50.500002v50.500002m1.5-50.500002v50.500002m1.5-50.500002v50.500002m1.5-50.500002v50.500002m-78-50.500002v50.500002m1.5-50.500002v50.500002m1.5-50.500002v50.500002m1.5-50.500002v50.500002m1.5-50.500002v50.500002m1.5-50.500002v50.500002m1.5-50.500002v50.500002m1.5-50.500002v50.500002m1.5-50.500002v50.500002m1.5-50.500002v50.500002m1.5-50.500002v50.500002m1.5-50.500002v50.500002m1.5-50.500002v50.500002m1.5-50.500002v50.500002m1.5-50.500002v50.500002m1.5-50.500002v50.500002m1.5-50.500002v50.500002m1.5-50.500002v50.500002m1.5-50.500002v50.500002m1.5-50.500002v50.500002m1.5-50.500002v50.500002m1.5-50.500002v50.500002m1.5-50.500002v50.500002m1.5-50.500002v50.500002m1.5-50.500002v50.500002m1.5-50.500002v50.500002m1.5-50.500002v50.500002m1.5-50.500002v50.500002m1.5-50.500002v50.500002m1.5-50.500002v50.500002m1.5-50.500002v50.500002m1.5-50.500002v50.500002m1.5-50.500002v50.500002m1.5-50.500002v50.500002m1.5-50.500002v50.500002m1.5-50.500002v50.500002m1.5-50.500002v50.500002m1.5-50.500002v50.500002m1.5-50.500002v50.500002m1.5-50.500002v50.500002m1.5-50.500002v50.500002m1.5-50.500002v50.500002m1.5-50.500002v50.500002m-63-50.750002h78v51.000002h-78z" overflow="visible" shape-rendering="crispEdges" transform="translate(125.6683 28.705436)"/></clipPath><clipPath id="e"><path id="path17" clip-path="url(#b)" d="m249.07944 50.562137h-78.49999m78.49999 1.5h-78.49999m78.49999 1.5h-78.49999m78.49999 1.5h-78.49999m78.49999 1.5h-78.49999m78.49999 1.5h-78.49999m78.49999 1.5h-78.49999m78.49999 1.5h-78.49999m78.49999 1.5h-78.49999m78.49999 1.5h-78.49999m78.49999 1.500001h-78.49999m78.49999 1.5h-78.49999m78.49999 1.5h-78.49999m78.49999 1.5h-78.49999m78.49999 1.500002h-78.49999m78.49999 1.5h-78.49999m78.49999 1.5h-78.49999m78.49999 1.5h-78.49999m78.49999 1.5h-78.49999m78.49999 1.5h-78.49999m78.49999 1.5h-78.49999m78.49999 1.5h-78.49999m78.49999 1.5h-78.49999m78.49999 1.5h-78.49999m78.49999 1.5h-78.49999m78.49999 1.5h-78.49999m78.49999 1.5h-78.49999m78.49999 1.5h-78.49999m78.49999 1.5h-78.49999m78.49999 1.5h-78.49999m78.49999 1.5h-78.49999m78.49999 1.5h-78.49999m78.49999 1.5h-78.49999m78.49999 1.5h-78.49999m78.49999 1.5h-78.49999m64.74999-50.750003v50.500003m1.5-50.500003v50.500003m1.5-50.500003v50.500003m1.5-50.500003v50.500003m1.5-50.500003v50.500003m1.5-50.500003v50.500003m1.5-50.500003v50.500003m1.5-50.500003v50.500003m1.5-50.500003v50.500003m1.5-50.500003v50.500003m-77.99999-50.500003v50.500003m1.5-50.500003v50.500003m1.5-50.500003v50.500003m1.5-50.500003v50.500003m1.5-50.500003v50.500003m1.5-50.500003v50.500003m1.5-50.500003v50.500003m1.5-50.500003v50.500003m1.5-50.500003v50.500003m1.5-50.500003v50.500003m1.5-50.500003v50.500003m1.5-50.500003v50.500003m1.5-50.500003v50.500003m1.5-50.500003v50.500003m1.5-50.500003v50.500003m1.5-50.500003v50.500003m1.5-50.500003v50.500003m1.5-50.500003v50.500003m1.5-50.500003v50.500003m1.5-50.500003v50.500003m1.5-50.500003v50.500003m1.5-50.500003v50.500003m1.5-50.500003v50.500003m1.5-50.500003v50.500003m1.5-50.500003v50.500003m1.5-50.500003v50.500003m1.5-50.500003v50.500003m1.5-50.500003v50.500003m1.5-50.500003v50.500003m1.49999-50.500003v50.500003m1.5-50.500003v50.500003m1.5-50.500003v50.500003m1.5-50.500003v50.500003m1.5-50.500003v50.500003m1.5-50.500003v50.500003m1.5-50.500003v50.500003m1.5-50.500003v50.500003m1.5-50.500003v50.500003m1.5-50.500003v50.500003m1.5-50.500003v50.500003m1.5-50.500003v50.500003m1.5-50.500003v50.500003m1.5-50.500003v50.500003m-62.99999-50.750003h77.99999v51.000003h-77.99999z" overflow="visible" shape-rendering="crispEdges" transform="translate(-34.24772 -14.747429)"/></clipPath><clipPath id="f"><path id="path20" clip-path="url(#a)" d="m116.6 41.649998h-78.5m78.5 1.5h-78.5m78.5 1.5h-78.5m78.5 1.5h-78.5m78.5 1.5h-78.5m78.5 1.5h-78.5m78.5 1.5h-78.5m78.5 1.5h-78.5m78.5 1.5h-78.5m78.5 1.5h-78.5m78.5 1.5h-78.5m78.5 1.5h-78.5m78.5 1.5h-78.5m78.5 1.5h-78.5m78.5 1.5h-78.5m78.5 1.5h-78.5m78.5 1.5h-78.5m78.5 1.5h-78.5m78.5 1.5h-78.5m78.5 1.5h-78.5m78.5 1.5h-78.5m78.5 1.500002h-78.5m78.5 1.5h-78.5m78.5 1.5h-78.5m78.5 1.5h-78.5m78.5 1.5h-78.5m78.5 1.5h-78.5m78.5 1.5h-78.5m78.5 1.5h-78.5m78.5 1.5h-78.5m78.5 1.5h-78.5m78.5 1.5h-78.5m78.5 1.5h-78.5m78.5 1.5h-78.5m78.5 1.5h-78.5m64.75-50.750002v50.500002m1.5-50.500002v50.500002m1.5-50.500002v50.500002m1.5-50.500002v50.500002m1.5-50.500002v50.500002m1.5-50.500002v50.500002m1.5-50.500002v50.500002m1.5-50.500002v50.500002m1.5-50.500002v50.500002m1.5-50.500002v50.500002m-78-50.500002v50.500002m1.5-50.500002v50.500002m1.5-50.500002v50.500002m1.5-50.500002v50.500002m1.5-50.500002v50.500002m1.5-50.500002v50.500002m1.5-50.500002v50.500002m1.5-50.500002v50.500002m1.5-50.500002v50.500002m1.5-50.500002v50.500002m1.5-50.500002v50.500002m1.5-50.500002v50.500002m1.5-50.500002v50.500002m1.5-50.500002v50.500002m1.5-50.500002v50.500002m1.5-50.500002v50.500002m1.5-50.500002v50.500002m1.5-50.500002v50.500002m1.5-50.500002v50.500002m1.5-50.500002v50.500002m1.5-50.500002v50.500002m1.5-50.500002v50.500002m1.5-50.500002v50.500002m1.5-50.500002v50.500002m1.5-50.500002v50.500002m1.5-50.500002v50.500002m1.5-50.500002v50.500002m1.5-50.500002v50.500002m1.5-50.500002v50.500002m1.5-50.500002v50.500002m1.5-50.500002v50.500002m1.5-50.500002v50.500002m1.5-50.500002v50.500002m1.5-50.500002v50.500002m1.5-50.500002v50.500002m1.5-50.500002v50.500002m1.5-50.500002v50.500002m1.5-50.500002v50.500002m1.5-50.500002v50.500002m1.5-50.500002v50.500002m1.5-50.500002v50.500002m1.5-50.500002v50.500002m1.5-50.500002v50.500002m-63-50.750002h78v51.000002h-78zm .25 0h-78.5m78.5 1.5h-78.5m78.5 1.5h-78.5m78.5 1.5h-78.5m78.5 1.5h-78.5m78.5 1.5h-78.5m78.5 1.5h-78.5m78.5 1.5h-78.5m78.5 1.5h-78.5m78.5 1.5h-78.5m78.5 1.5h-78.5m78.5 1.5h-78.5m78.5 1.5h-78.5m78.5 1.5h-78.5m78.5 1.5h-78.5m78.5 1.5h-78.5m78.5 1.5h-78.5m78.5 1.5h-78.5m78.5 1.5h-78.5m78.5 1.5h-78.5m78.5 1.5h-78.5m78.5 1.500002h-78.5m78.5 1.5h-78.5m78.5 1.5h-78.5m78.5 1.5h-78.5m78.5 1.5h-78.5m78.5 1.5h-78.5m78.5 1.5h-78.5m78.5 1.5h-78.5m78.5 1.5h-78.5m78.5 1.5h-78.5m78.5 1.5h-78.5m78.5 1.5h-78.5m78.5 1.5h-78.5m78.5 1.5h-78.5m64.75-50.750002v50.500002m1.5-50.500002v50.500002m1.5-50.500002v50.500002m1.5-50.500002v50.500002m1.5-50.500002v50.500002m1.5-50.500002v50.500002m1.5-50.500002v50.500002m1.5-50.500002v50.500002m1.5-50.500002v50.500002m1.5-50.500002v50.500002m-78-50.500002v50.500002m1.5-50.500002v50.500002m1.5-50.500002v50.500002m1.5-50.500002v50.500002m1.5-50.500002v50.500002m1.5-50.500002v50.500002m1.5-50.500002v50.500002m1.5-50.500002v50.500002m1.5-50.500002v50.500002m1.5-50.500002v50.500002m1.5-50.500002v50.500002m1.5-50.500002v50.500002m1.5-50.500002v50.500002m1.5-50.500002v50.500002m1.5-50.500002v50.500002m1.5-50.500002v50.500002m1.5-50.500002v50.500002m1.5-50.500002v50.500002m1.5-50.500002v50.500002m1.5-50.500002v50.500002m1.5-50.500002v50.500002m1.5-50.500002v50.500002m1.5-50.500002v50.500002m1.5-50.500002v50.500002m1.5-50.500002v50.500002m1.5-50.500002v50.500002m1.5-50.500002v50.500002m1.5-50.500002v50.500002m1.5-50.500002v50.500002m1.5-50.500002v50.500002m1.5-50.500002v50.500002m1.5-50.500002v50.500002m1.5-50.500002v50.500002m1.5-50.500002v50.500002m1.5-50.500002v50.500002m1.5-50.500002v50.500002m1.5-50.500002v50.500002m1.5-50.500002v50.500002m1.5-50.500002v50.500002m1.5-50.500002v50.500002m1.5-50.500002v50.500002m1.5-50.500002v50.500002m1.5-50.500002v50.500002m-63-50.750002h78v51.000002h-78zm156.25 50.99976h-78.5m78.5 1.5h-78.5m78.5 1.5h-78.5m78.5 1.5h-78.5m78.5 1.5h-78.5m78.5 1.500002h-78.5m78.5 1.5h-78.5m78.5 1.5h-78.5m78.5 1.5h-78.5m78.5 1.5h-78.5m78.5 1.5h-78.5m78.5 1.5h-78.5m78.5 1.5h-78.5m78.5 1.5h-78.5m78.5 1.5h-78.5m78.5 1.5h-78.5m78.5 1.5h-78.5m78.5 1.5h-78.5m78.5 1.5h-78.5m78.5 1.5h-78.5m78.5 1.5h-78.5m78.5 1.5h-78.5m78.5 1.5h-78.5m78.5 1.5h-78.5m78.5 1.5h-78.5m78.5 1.5h-78.5m78.5 1.5h-78.5m78.5 1.5h-78.5m78.5 1.5h-78.5m78.5 1.5h-78.5m78.5 1.5h-78.5m78.5 1.5h-78.5m78.5 1.5h-78.5m78.5 1.5h-78.5m78.5 1.5h-78.5m64.75-50.750002v50.500002m1.5-50.500002v50.500002m1.5-50.500002v50.500002m1.5-50.500002v50.500002m1.5-50.500002v50.500002m1.5-50.500002v50.500002m1.5-50.500002v50.500002m1.5-50.500002v50.500002m1.5-50.500002v50.500002m1.5-50.500002v50.500002m-78-50.500002v50.500002m1.5-50.500002v50.500002m1.5-50.500002v50.500002m1.5-50.500002v50.500002m1.5-50.500002v50.500002m1.5-50.500002v50.500002m1.5-50.500002v50.500002m1.5-50.500002v50.500002m1.5-50.500002v50.500002m1.5-50.500002v50.500002m1.5-50.500002v50.500002m1.5-50.500002v50.500002m1.5-50.500002v50.500002m1.5-50.500002v50.500002m1.5-50.500002v50.500002m1.5-50.500002v50.500002m1.5-50.500002v50.500002m1.5-50.500002v50.500002m1.5-50.500002v50.500002m1.5-50.500002v50.500002m1.5-50.500002v50.500002m1.5-50.500002v50.500002m1.5-50.500002v50.500002m1.5-50.500002v50.500002m1.5-50.500002v50.500002m1.5-50.500002v50.500002m1.5-50.500002v50.500002m1.5-50.500002v50.500002m1.5-50.500002v50.500002m1.5-50.500002v50.500002m1.5-50.500002v50.500002m1.5-50.500002v50.500002m1.5-50.500002v50.500002m1.5-50.500002v50.500002m1.5-50.500002v50.500002m1.5-50.500002v50.500002m1.5-50.500002v50.500002m1.5-50.500002v50.500002m1.5-50.500002v50.500002m1.5-50.500002v50.500002m1.5-50.500002v50.500002m1.5-50.500002v50.500002m1.5-50.500002v50.500002m-63-50.750002h78v51.000002h-78zm .25 0h-78.5m78.5 1.5h-78.5m78.5 1.5h-78.5m78.5 1.5h-78.5m78.5 1.5h-78.5m78.5 1.500002h-78.5m78.5 1.5h-78.5m78.5 1.5h-78.5m78.5 1.5h-78.5m78.5 1.5h-78.5m78.5 1.5h-78.5m78.5 1.5h-78.5m78.5 1.5h-78.5m78.5 1.5h-78.5m78.5 1.5h-78.5m78.5 1.5h-78.5m78.5 1.5h-78.5m78.5 1.5h-78.5m78.5 1.5h-78.5m78.5 1.5h-78.5m78.5 1.5h-78.5m78.5 1.5h-78.5m78.5 1.5h-78.5m78.5 1.5h-78.5m78.5 1.5h-78.5m78.5 1.5h-78.5m78.5 1.5h-78.5m78.5 1.5h-78.5m78.5 1.5h-78.5m78.5 1.5h-78.5m78.5 1.5h-78.5m78.5 1.5h-78.5m78.5 1.5h-78.5m78.5 1.5h-78.5m78.5 1.5h-78.5m64.75-50.750002v50.500002m1.5-50.500002v50.500002m1.5-50.500002v50.500002m1.5-50.500002v50.500002m1.5-50.500002v50.500002m1.5-50.500002v50.500002m1.5-50.500002v50.500002m1.5-50.500002v50.500002m1.5-50.500002v50.500002m1.5-50.500002v50.500002m-78-50.500002v50.500002m1.5-50.500002v50.500002m1.5-50.500002v50.500002m1.5-50.500002v50.500002m1.5-50.500002v50.500002m1.5-50.500002v50.500002m1.5-50.500002v50.500002m1.5-50.500002v50.500002m1.5-50.500002v50.500002m1.5-50.500002v50.500002m1.5-50.500002v50.500002m1.5-50.500002v50.500002m1.5-50.500002v50.500002m1.5-50.500002v50.500002m1.5-50.500002v50.500002m1.5-50.500002v50.500002m1.5-50.500002v50.500002m1.5-50.500002v50.500002m1.5-50.500002v50.500002m1.5-50.500002v50.500002m1.5-50.500002v50.500002m1.5-50.500002v50.500002m1.5-50.500002v50.500002m1.5-50.500002v50.500002m1.5-50.500002v50.500002m1.5-50.500002v50.500002m1.5-50.500002v50.500002m1.5-50.500002v50.500002m1.5-50.500002v50.500002m1.5-50.500002v50.500002m1.5-50.500002v50.500002m1.5-50.500002v50.500002m1.5-50.500002v50.500002m1.5-50.500002v50.500002m1.5-50.500002v50.500002m1.5-50.500002v50.500002m1.5-50.500002v50.500002m1.5-50.500002v50.500002m1.5-50.500002v50.500002m1.5-50.500002v50.500002m1.5-50.500002v50.500002m1.5-50.500002v50.500002m1.5-50.500002v50.500002m-63-50.750002h78v51.000002h-78z" overflow="visible" shape-rendering="crispEdges" transform="translate(126.65394 -74.000355)"/></clipPath><clipPath id="g"><path id="path23" clip-path="url(#d)" d="m140.39096 73.855438v44.000002m1.6-44.000002v44.000002m1.6-44.000002v44.000002m1.6-44.000002v44.000002m1.6-44.000002v44.000002m1.6-44.000002v44.000002m1.6-44.000002v44.000002m1.6-44.000002v44.000002m1.6-44.000002v44.000002m1.6-44.000002v44.000002m1.6-44.000002v44.000002m1.6-44.000002v44.000002m1.6-44.000002v44.000002m1.6-44.000002v44.000002m1.6-44.000002v44.000002m1.6-44.000002v44.000002m1.6-44.000002v44.000002m1.6-44.000002v44.000002m1.6-44.000002v44.000002m1.6-44.000002v44.000002m1.6-44.000002v44.000002m1.6-44.000002v44.000002m1.6-44.000002v44.000002m1.6-44.000002v44.000002m1.6-44.000002v44.000002m1.6-44.000002v44.000002m1.6-44.000002v44.000002m1.6-44.000002v44.000002m1.6-44.000002v44.000002m1.6-44.000002v44.000002m1.6-44.000002v44.000002m1.6-44.000002v44.000002m1.6-44.000002v44.000002m1.6-44.000002v44.000002m1.6-44.000002v44.000002m1.6-44.000002v44.000002m1.6-44.000002v44.000002m1.6-44.000002v44.000002m1.6-44.000002v44.000002m1.6-44.000002v44.000002m1.6-44.000002v44.000002m1.6-44.000002v44.000002m1.6-44.000002v44.000002m1.6-44.000002v44.000002m1.6-44.000002v44.000002m1.6-44.000002v44.000002m1.6-44.000002v44.000002m1.6-44.000002v44.000002m1.6-44.000002v44.000002m1.6-44.000002v44.000002m1.6-44.000002v44.000002m1.6-44.000002v44.000002m1.6-44.000002v44.000002m1.6-44.000002v44.000002m1.6-44.000002v44.000002m1.6-44.000002v44.000002m1.6-44.000002v44.000002m-89.6-44.000002h90m-90 1.6h90m-90 1.6h90m-90 1.6h90m-90 1.6h90m-90 1.6h90m-90 1.6h90m-90 1.6h90m-90 1.6h90m-90 1.6h90m-90 1.6h90m-90 1.6h90m-90 1.600001h90m-90 1.6h90m-90 1.6h90m-90 1.6h90m-90 1.6h90m-90 1.600001h90m-90 1.6h90m-90 1.6h90m-90 1.6h90m-90 1.6h90m-90 1.6h90m-90 1.6h90m-90 1.6h90m-90 1.6h90m-90 1.6h90m-90 1.6h90m-90-43.200002h90v44.000002h-90z" shape-rendering="crispEdges" transform="translate(47.51115 -24.355435)"/></clipPath><clipPath id="h"><path id="path26" clip-path="url(#e)" d="m140.25317 40.5839v43m1.6-43v43m1.6-43v43m1.6-43v43m1.6-43v43m1.6-43v43m1.6-43v43m1.6-43v43m1.6-43v43m1.6-43v43m1.6-43v43m1.6-43v43m1.6-43v43m1.6-43v43m1.6-43v43m1.6-43v43m1.6-43v43m1.6-43v43m1.6-43v43m1.6-43v43m1.6-43v43m1.6-43v43m1.6-43v43m1.6-43v43m1.6-43v43m1.6-43v43m1.6-43v43m1.6-43v43m1.6-43v43m1.6-43v43m1.6-43v43m1.6-43v43m1.6-43v43m1.6-43v43m1.6-43v43m1.6-43v43m1.6-43v43m1.6-43v43m1.6-43v43m1.6-43v43m1.6-43v43m-64-43h65m-65 1.6h65m-65 1.6h65m-65 1.600001h65m-65 1.6h65m-65 1.6h65m-65 1.6h65m-65 1.6h65m-65 1.6h65m-65 1.6h65m-65 1.6h65m-65 1.6h65m-65 1.6h65m-65 1.6h65m-65 1.6h65m-65 1.6h65m-65 1.6h65m-65 1.6h65m-65 1.6h65m-65 1.6h65m-65 1.6h65m-65 1.6h65m-65 1.6h65m-65 1.6h65m-65 1.6h65m-65 1.6h65m-65 1.6h65m-65-41.600001h65v43h-65z" shape-rendering="crispEdges" transform="translate(15.89309 9.3561024)"/></clipPath><clipPath id="j"><path id="path32" clip-path="url(#f)" d="m151.5928-19.098305v88m1.6-88v88m1.6-88v88m1.6-88v88m1.6-88v88m1.6-88v88m1.6-88v88m1.6-88v88m1.6-88v88m1.6-88v88m1.6-88v88m1.6-88v88m1.6-88v88m1.6-88v88m1.6-88v88m1.6-88v88m1.6-88v88m1.6-88v88m1.6-88v88m1.6-88v88m1.6-88v88m1.6-88v88m1.6-88v88m1.6-88v88m1.6-88v88m1.6-88v88m1.6-88v88m1.6-88v88m1.6-88v88m1.6-88v88m1.6-88v88m1.6-88v88m1.6-88v88m1.6-88v88m1.6-88v88m1.6-88v88m1.6-88v88m1.6-88v88m1.6-88v88m1.6-88v88m1.6-88v88m1.6-88v88m1.6-88v88m1.6-88v88m1.60001-88v88m1.6-88v88m1.6-88v88m-73.60001-88h74m-74 1.6h74m-74 1.6h74m-74 1.6h74m-74 1.6h74m-74 1.6h74m-74 1.6000004h74m-74 1.6h74m-74 1.6h74m-74 1.6000001h74m-74 1.6h74m-74 1.6h74m-74 1.60000004h74m-74 1.60000006h74m-74 1.6h74m-74 1.6h74m-74 1.6h74m-74 1.6000001h74m-74 1.6h74m-74 1.6000003h74m-74 1.6h74m-74 1.6h74m-74 1.6h74m-74 1.6h74m-74 1.6h74m-74 1.6h74m-74 1.6h74m-74 1.6h74m-74 1.6h74m-74 1.6h74m-74 1.6h74m-74 1.6h74m-74 1.6h74m-74 1.6h74m-74 1.6h74m-74 1.6h74m-74 1.6h74m-74 1.6h74m-74 1.6h74m-74 1.6h74m-74 1.6h74m-74 1.6h74m-74 1.6h74m-74 1.6h74m-74 1.6h74m-74 1.6h74m-74 1.6h74m-74 1.6h74m-74 1.6h74m-74 1.6h74m-74 1.6h74m-74 1.6h74m-74 1.6h74m-74 1.600001h74m-74 1.6h74m-74-86.400002h74v88h-74z" shape-rendering="crispEdges" transform="translate(-243.40128 45.723308)"/></clipPath><g id="layer1"><rect id="breakerRear" fill="#575d5e" fill-rule="evenodd" height="187" shape-rendering="crispEdges" stroke="#333" stroke-width=".80000001" width="131.2"/><g id="RC_Sel"><g id="g40"><rect id="rect42" fill="#575d5e" fill-rule="evenodd" height="130" stroke="#333" stroke-width=".80000001" width="30" y="21.000002"/><g id="g44"><rect id="rect46" fill="#575d5e" height="38" stroke="#333" stroke-linecap="round" stroke-linejoin="round" stroke-width=".5" width="30" y="113.15"/><path id="path48" d="m2.7960341 129.35487h6.564002" style="overflow:visible;fill:#fff;fill-rule:evenodd;stroke:#fff;stroke-width:.80000001;stroke-linecap:round;stroke-dasharray:.80000001 3.20000003;shape-rendering:crispEdges"/><path id="path50" d="m2.7960341 126.38347h9.0668299" style="overflow:visible;fill:#fff;fill-rule:evenodd;stroke:#fff;stroke-width:.80000001;stroke-linecap:round;stroke-dasharray:.80000001 3.20000005;shape-rendering:crispEdges"/><path id="path52" d="m3.2550753 120.83686h6.564002" style="overflow:visible;fill:#fff;fill-rule:evenodd;stroke:#fff;stroke-width:.80000001;stroke-linecap:round;stroke-dasharray:.80000001 3.20000003;shape-rendering:crispEdges"/><circle id="circle54" cx="21.75" cy="142.75" fill="#b6b9bc" r="5.3499999" shape-rendering="crispEdges" stroke="#4d4d4d" stroke-linecap="round" stroke-width="1.20000005"/><path id="path56" d="m21.75 139.25c0 6.72001 0 7 0 7" fill="none" shape-rendering="crispEdges" stroke="#8a8d90"/><circle id="circle58" cx="25.6" cy="119.4" fill="#0e0e11" r="2.5999999"/><path id="path60" d="m2.2535606 123.34398h25.5095344" fill="none" stroke="#e8e9f3" stroke-linecap="round" stroke-width=".49999991"/></g></g><g id="g62"><rect id="rect64" fill="#575d5e" fill-rule="evenodd" height="45" stroke="#333" stroke-width=".80000001" width="30" y="49"/><circle id="circle66" cx="15" cy="87" fill="#f9f9f9" r="2" shape-rendering="crispEdges"/><path id="path68" d="m17.264004 52.437294l3.792141 5.595695-5.477816-4.666769 5.567905 4.743519-6.282911-3.090361 6.295532 3.096569-6.22467-1.420947 6.074905 1.386759h-5.215853" fill="none" stroke="#fff" stroke-width=".25"/><g id="g70"><path id="path72" d="m19.099995 52.150011a3.7666667 3.75 0 0 1 3.766666 3.75 3.7666667 3.75 0 0 1 -3.766666 3.75v-3.75z" fill="none" stroke="#fff" stroke-linecap="round" stroke-width=".5"/><circle id="circle74" cx="19.099995" cy="55.900009" fill="#f9f9f9" r="3.0999994"/></g><g id="g76" transform="translate(0 .00000152)"/><circle id="circle78" cx="7.4293823" cy="74.5" fill="#006f3d" r="3.9293823" stroke="#333" stroke-linecap="round" stroke-width=".5"/><circle id="circle80" cx="4.125" cy="52.974998" fill="#f6b600" r="1.375" stroke="#333" stroke-linecap="round" stroke-width=".25"/><g id="g82" fill="#fff"><path id="path84" d="m23.202158 80.743018v.850818a2.0076607 1.9710056 0 1 0 0 3.901579v.85082a2.8680867 2.8157223 0 1 1 0-5.603217z"/><path id="path86" d="m25.830072 83.122268a2.0076607 1.9710056 0 0 1 2.247833-1.528432v-.850818a2.8680867 2.8157223 0 1 0 0 5.603217v-.85082a2.0076607 1.9710056 0 0 1 -2.247833-1.528431h1.674216v-.844716z"/></g><text id="text88" line-height="100%" style="font-weight:bold;font-size:5.39302158;font-family:sans-serif;letter-spacing:0;word-spacing:0;overflow:visible;fill:#fff;shape-rendering:crispEdges" x="1.2028561" xml:space="preserve" y="92.866348"><tspan id="tspan90" fill="#fff" font-family="sans-serif" font-size="3.75" font-weight="bold" line-height="100%" x="1.2028561" y="92.866348">RC Inst </tspan></text></g></g><g id="rotaryDriveAxle" shape-rendering="crispEdges"><rect id="rect94" fill="#575d5e" height="76" stroke="#333" stroke-width=".80000001" width="76" x="55.099998" y="17.000004"/><g id="g96"><circle id="circle98" cx="93.099998" cy="48.379238" fill="#c5c7c4" r="15" stroke="#000" stroke-width=".5"/><circle id="circle100" cx="93.099998" cy="48.379238" r="8"/><rect id="rect102" fill="#e6e6e6" height="6" overflow="visible" width="6" x="90.099998" y="45.379238"/></g></g><g id="largeRotaryHandle"><rect id="rect106" fill="#575d5e" height="76" shape-rendering="crispEdges" stroke="#333" stroke-width=".80000001" width="76" x="55.099998" y="17.000004"/><path id="path108" d="m55.749998 22.350005v69.999998m1.45-69.999998v69.999998m1.75-69.999998v69.999998m1.45-69.999998v69.999998m1.6-69.999998v69.999998m1.6-69.999998v69.999998m1.6-69.999998v69.999998m1.6-69.999998v69.999998m1.6-69.999998v69.999998m1.6-69.999998v69.999998m1.6-69.999998v69.999998m1.6-69.999998v69.999998m1.6-69.999998v69.999998m1.6-69.999998v69.999998m1.6-69.999998v69.999998m1.6-69.999998v69.999998m1.6-69.999998v69.999998m1.6-69.999998v69.999998m1.6-69.999998v69.999998m1.6-69.999998v69.999998m1.6-69.999998v69.999998m1.6-69.999998v69.999998m1.6-69.999998v69.999998m1.6-69.999998v69.999998m1.6-69.999998v69.999998m1.6-69.999998v69.999998m1.6-69.999998v69.999998m1.6-69.999998v69.999998m1.600002-69.999998v69.999998m1.6-69.999998v69.999998m1.6-69.999998v69.999998m1.6-69.999998v69.999998m1.6-69.999998v69.999998m1.6-69.999998v69.999998m1.6-69.999998v69.999998m1.6-69.999998v69.999998m1.6-69.999998v69.999998m1.6-69.999998v69.999998m1.6-69.999998v69.999998m1.6-69.999998v69.999998m1.6-69.999998v69.999998m1.6-69.999998v69.999998m1.6-69.999998v69.999998m1.6-69.999998v69.999998m1.6-69.999998v69.999998m1.6-69.999998v69.999998m1.6-69.999998v69.999998m-73.450002-69.999998h74.700002m-74.700002 1.6h74.700002m-74.700002 1.6h74.700002m-74.700002 1.6h74.700002m-74.700002 1.6h74.700002m-74.700002 1.6h74.700002m-74.700002 1.6h74.700002m-74.700002 1.6h74.700002m-74.700002 1.6h74.700002m-74.700002 1.6h74.700002m-74.700002 1.6h74.700002m-74.700002 1.6h74.700002m-74.700002 1.6h74.700002m-74.700002 1.6h74.700002m-74.700002 1.6h74.700002m-74.700002 1.6h74.700002m-74.700002 1.6h74.700002m-74.700002 1.6h74.700002m-74.700002 1.6h74.700002m-74.700002 1.6h74.700002m-74.700002 1.6h74.700002m-74.700002 1.6h74.700002m-74.700002 1.6h74.700002m-74.700002 1.6h74.700002m-74.700002 1.6h74.700002m-74.700002 1.6h74.700002m-74.700002 1.6h74.700002m-74.700002 1.6h74.700002m-74.700002 1.600001h74.700002m-74.700002 1.6h74.700002m-74.700002 1.6h74.700002m-74.700002 1.6h74.700002m-74.700002 1.6h74.700002m-74.700002 1.6h74.700002m-74.700002 1.6h74.700002m-74.700002 1.6h74.700002m-74.700002 1.6h74.700002m-74.700002 1.6h74.700002m-74.700002 1.599997h74.700002m-74.700002 1.6h74.700002m-74.700002 1.6h74.700002m-74.700002 1.6h74.700002m-74.700002 1.6h74.700002m-74.700002 1.6h74.700002m-74.700002-68.799998h74.700002v69.999998h-74.700002z" style="overflow:visible;fill:#4d4d4d;fill-rule:evenodd;stroke:#575d5e;stroke-width:.4pt;shape-rendering:crispEdges"/><g id="g110"/><g id="g112" shape-rendering="crispEdges"><rect id="rect114" fill="#bb1e10" height="7.5" width="75.199997" x="55.5" y="17.400002"/><path id="path116" d="m55.499999 25.400003h75.200001" fill="none" stroke="#fff"/><text id="text118" line-height="100%" style="font-weight:bold;font-size:5.39302158;font-family:sans-serif;letter-spacing:0;word-spacing:0;fill:#fff" x="107.63897" xml:space="preserve" y="22.365837"><tspan id="tspan120" fill="#fff" font-family="sans-serif" font-size="3.75" font-weight="bold" line-height="100%" x="107.63897" y="22.365837">TMax XT3</tspan></text><path id="path122" d="m58.457148 18.650002l-.655857 2.450006h1.354884v-2.450006zm.799029 0v2.450006h1.354888l-.655759-2.450006zm2.800014 0v2.450006h1.450005v-2.450006zm1.550007 0v2.450006h1.517879a1.5000067 1.5000067 0 0 0 -.519045-.344451 1.125005 1.125005 0 0 0  .576272-.980541 1.125005 1.125005 0 0 0 -1.125004-1.125014 1.125005 1.125005 0 0 0 -.000102 0zm2.35001 0v2.450006h1.450005v-2.450006zm1.550007 0v2.450006h1.517879a1.5000067 1.5000067 0 0 0 -.519045-.344451 1.125005 1.125005 0 0 0  .576272-.980541 1.125005 1.125005 0 0 0 -1.125004-1.125014 1.125005 1.125005 0 0 0 -.000102 0zm-9.731681 2.549993l-.655862 2.450006h1.250006l.265036-1.000001h.522461v-1.450005zm1.481643 0v1.450005h.522563l.264943 1.000001h1.250007l-.655765-2.450006zm2.800014 0v2.450006h1.450005v-2.450006zm1.550007 0v2.450006h.450005a1.5000067 1.5000067 0 0 0  .000097 0 1.5000067 1.5000067 0 0 0  1.500007-1.500001 1.5000067 1.5000067 0 0 0 -.341702-.950005h-1.608402zm2.35001 0v2.450006h1.450005v-2.450006zm1.550007 0v2.450006h.45a1.5000067 1.5000067 0 0 0  .000102 0 1.5000067 1.5000067 0 0 0  1.500007-1.500001 1.5000067 1.5000067 0 0 0 -.341697-.950005z" fill="#fff"/></g><g id="g124" shape-rendering="crispEdges"><circle id="circle126" cx="93.099998" cy="48.500004" fill="#5e6163" r="30.1"/><path id="path128" d="m63.406711 52.778868a30 30 0 0 1  .348859-10.516218l29.344428 6.237351z" fill="#808000"/><path id="path130" d="m82.348958 20.492589a30 30 0 0 1 21.453182-.01872l-10.702142 28.026132z" fill="#f00"/><path id="path132" d="m65.80116 36.059205a30 30 0 0 1 16.547798-15.566616l10.75104 28.007412z" fill="#ff0"/><circle id="circle134" cx="93.099998" cy="48.500004" fill="#5e6163" r="25" stroke="#333"/><text id="text136" fill="#fff" font-family="sans-serif" font-size="12.5" letter-spacing="0" line-height="125%" word-spacing="0" x="92.672272" xml:space="preserve" y="22.630554"><tspan id="tspan138" fill="#fff" font-family="FreesiaUPC" font-size="7.5" x="92.672272" y="22.630554">I</tspan></text><text id="text140" fill="#fff" font-family="sans-serif" font-size="12.5" letter-spacing="0" line-height="125%" word-spacing="0" x="63.998238" xml:space="preserve" y="49.234211"><tspan id="tspan142" fill="#fff" font-family="FreesiaUPC" font-size="7.5" x="63.998238" y="49.234211">O</tspan></text></g><g id="g144" shape-rendering="crispEdges"><path id="path146" d="m68.1 49.707424v35.222658.57031.25 36.957028 5.79297c0 1.03875.173926 2.05303.505859 3.03125.331934.97822.820313 1.92047 1.451172 2.81836.63086.89789 1.404004 1.75107 2.300781 2.54883.896778.79775 1.917188 1.54094 3.046876 2.21875 1.129692.67781 2.367672 1.29006 3.697262 1.82812 1.32959.53807 2.75157 1.00039 4.24805 1.37891 1.49648.37852 3.06885.67389 4.69922.87305 1.63037.19916 3.31953.30273 5.05078.30273 1.73125 0 3.41846-.10357 5.04883-.30273 1.63037-.19916 3.20273-.49453 4.69922-.87305 1.49648-.37852 2.91845-.84084 4.24804-1.37891 1.32959-.53806 2.56758-1.15031 3.69727-1.82812 1.12969-.67781 2.1501-1.421 3.04687-2.21875.89678-.79776 1.66993-1.65094 2.30079-2.54883.63086-.89789 1.11923-1.84014 1.45117-2.81836.33193-.97822.50781-1.9925.50781-3.03125v-42.999998-.57031-35.222658c0-8.31-11.15-15-25-15-13.85 0-25 6.69-25 15z" fill="#575d5e" stroke="#363636" stroke-linejoin="round" stroke-width=".5"/><path id="path148" d="m68.1 48.500393a25 25 0 0 0  .0098.3125c-.002.086-.0098.171462-.0098.257812v35.859377.57031 36.570308 6.42969c0 1.03875.173926 2.05303.505859 3.03125.331934.97822.820313 1.92047 1.451172 2.81836.63086.89789 1.404004 1.75107 2.300781 2.54883.896778.79775 1.917188 1.54094 3.046876 2.21875 1.129692.67781 2.367672 1.29006 3.697262 1.82812 1.32959.53807 2.75157 1.00039 4.24805 1.37891 1.49648.37852 3.06885.67389 4.69922.87305 1.63037.19916 3.31953.30273 5.05078.30273 1.73125 0 3.41846-.10357 5.04883-.30273 1.63037-.19916 3.20273-.49453 4.69922-.87305 1.49648-.37852 2.91845-.84084 4.24804-1.37891 1.32959-.53806 2.56758-1.15031 3.69727-1.82812 1.12969-.67781 2.1501-1.421 3.04687-2.21875.89678-.79776 1.66993-1.65094 2.30079-2.54883.63086-.89789 1.11923-1.84014 1.45117-2.81836.33193-.97822.50781-1.9925.50781-3.03125v-6.42969-36.570308-.57031-35.859377c0-.1027-.0122-.204441-.0156-.306641a25 25 0 0 0  .0156-.263671 25 25 0 0 0 -25-25 25 25 0 0 0 -25 25z" fill="none" stroke="#333"/><path id="path150" d="m93.09903 29.53762c-8.31 0-15 6.69-15 15v58.82617.17383 8.56836c0 3.56378 2.23 6.43164 5 6.43164h10 10c2.77 0 5-2.86786 5-6.43164v-8.56836-.17383-58.82617c0-8.31-6.69-15-15-15z" fill="#fff" stroke="#999" stroke-linecap="round" stroke-linejoin="bevel" stroke-width=".80000007"/><path id="path152" d="m103.42129 62.498567c1.75976 0 3.17774-.25577 3.17774-.57226v-2.85548c0-.3165-1.41798-.57226-3.17774-.57226h-20.64648c-1.75976 0-3.17578.25576-3.17578.57226v2.85548c0 .31649 1.41602.57226 3.17578.57226zm0-6.44922c1.75976 0 3.17774-.25573 3.17774-.57227v-2.85547c0-.31648-1.41798-.57226-3.17774-.57226h-20.64648c-1.75976 0-3.17578.25578-3.17578.57226v2.85547c0 .31654 1.41602.57227 3.17578.57227zm0-6.45118c1.75976 0 3.17774-.25575 3.17774-.57226v-2.85547c0-.31651-1.41798-.57227-3.17774-.57227h-20.64648c-1.75976 0-3.17578.25576-3.17578.57227v2.85547c0 .31651 1.41602.57226 3.17578.57226z" fill="#e6e6e6"/></g><g id="g154" shape-rendering="crispEdges"><circle id="circle156" cx="124.6" cy="87.565681" r="2.5" style="overflow:visible;fill:#c7cacc;fill-rule:evenodd;stroke:#333;stroke-width:.25;stroke-linecap:round;stroke-linejoin:round"/><text id="text158" line-height="125%" style="font-size:12.5;font-family:sans-serif;letter-spacing:0;word-spacing:0;overflow:visible;fill:#4d4d4d;fill-opacity:.9372549" x="123.00637" xml:space="preserve" y="88.020088"><tspan id="tspan160" fill="#4d4d4d" fill-opacity=".9372549" font-size="1.25" x="123.00637" y="88.020088">TEST</tspan></text></g></g><g id="rotaryDrive"><rect id="rect164" fill="#5e6163" height="76" shape-rendering="crispEdges" stroke="#333" stroke-width=".80000001" width="76" x="55.099998" y="17.000004"/><path id="path166" d="m55.75 22.225003v70m1.45-70v70m1.75-70v70m1.45-70v70m1.6-70v70m1.6-70v70m1.6-70v70m1.6-70v70m1.6-70v70m1.6-70v70m1.6-70v70m1.6-70v70m1.6-70v70m1.6-70v70m1.6-70v70m1.6-70v70m1.6-70v70m1.6-70v70m1.6-70v70m1.6-70v70m1.6-70v70m1.6-70v70m1.6-70v70m1.6-70v70m1.6-70v70m1.6-70v70m1.6-70v70m1.6-70v70m1.6-70v70m1.6-70v70m1.6-70v70m1.6-70v70m1.6-70v70m1.6-70v70m1.6-70v70m1.6-70v70m1.6-70v70m1.6-70v70m1.6-70v70m1.6-70v70m1.6-70v70m1.6-70v70m1.6-70v70m1.6-70v70m1.6-70v70m1.6-70v70m1.6-70v70m-73.45-70h74.7m-74.7 1.6h74.7m-74.7 1.6h74.7m-74.7 1.6h74.7m-74.7 1.6h74.7m-74.7 1.6h74.7m-74.7 1.6h74.7m-74.7 1.6h74.7m-74.7 1.6h74.7m-74.7 1.6h74.7m-74.7 1.6h74.7m-74.7 1.6h74.7m-74.7 1.6h74.7m-74.7 1.6h74.7m-74.7 1.6h74.7m-74.7 1.6h74.7m-74.7 1.6h74.7m-74.7 1.6h74.7m-74.7 1.6h74.7m-74.7 1.6h74.7m-74.7 1.6h74.7m-74.7 1.6h74.7m-74.7 1.6h74.7m-74.7 1.6h74.7m-74.7 1.6h74.7m-74.7 1.6h74.7m-74.7 1.6h74.7m-74.7 1.6h74.7m-74.7 1.600001h74.7m-74.7 1.6h74.7m-74.7 1.6h74.7m-74.7 1.6h74.7m-74.7 1.6h74.7m-74.7 1.6h74.7m-74.7 1.6h74.7m-74.7 1.6h74.7m-74.7 1.6h74.7m-74.7 1.6h74.7m-74.7 1.6h74.7m-74.7 1.6h74.7m-74.7 1.6h74.7m-74.7 1.6h74.7m-74.7 1.6h74.7m-74.7 1.6h74.7m-74.7-68.800001h74.7v70h-74.7z" fill="#4d4d4d" fill-rule="evenodd" stroke="#5e6163" stroke-width=".4pt"/><g id="g168"/><g id="g170" shape-rendering="crispEdges"><rect id="rect172" fill="#bb1e10" height="7.5" width="75.199997" x="55.5" y="17.400002"/><path id="path174" d="m57.744175 18.52642l-.655859 2.45h1.354883v-2.45zm.799023 0v2.45h1.354884l-.655762-2.45zm2.800002 0v2.45h1.45v-2.45zm1.549999 0v2.45h1.517872a1.5000004 1.5000004 0 0 0 -.519043-.344436 1.1250003 1.1250003 0 0 0  .576269-.980565 1.1250003 1.1250003 0 0 0 -1.125-1.124999 1.1250003 1.1250003 0 0 0 -.000085 0h-.449999zm2.350001 0v2.45h1.45v-2.45zm1.55 0v2.45h1.517872a1.5000004 1.5000004 0 0 0 -.519043-.344436 1.1250003 1.1250003 0 0 0  .57627-.980565 1.1250003 1.1250003 0 0 0 -1.125-1.124999 1.1250003 1.1250003 0 0 0 -.000085 0h-.450001zm-9.731643 2.550003l-.655859 2.449998h1.25l.265039-.999997h.522462v-1.450001zm1.481641 0v1.450001h.522559l.264942.999997h1.25l-.655762-2.449998zm2.800002 0v2.449998h1.45v-2.449998zm1.549999 0v2.449998h.450001a1.5000004 1.5000004 0 0 0  .000085 0 1.5000004 1.5000004 0 0 0  1.5-1.499999 1.5000004 1.5000004 0 0 0 -.3417-.949999h-1.608399zm2.350001 0v2.449998h1.45v-2.449998zm1.55 0v2.449998h.45a1.5000004 1.5000004 0 0 0  .000085 0 1.5000004 1.5000004 0 0 0  1.5-1.499999 1.5000004 1.5000004 0 0 0 -.3417-.949999h-1.608398z" fill="#fff"/><path id="path176" d="m55.500001 25.400004h75.199999" fill="none" stroke="#fff"/><text id="text178" line-height="100%" style="font-weight:bold;font-size:5.39302158;font-family:sans-serif;letter-spacing:0;word-spacing:0;fill:#fff" x="107.63898" xml:space="preserve" y="22.388725"><tspan id="tspan180" fill="#fff" font-family="sans-serif" font-size="3.75" font-weight="bold" line-height="100%" x="107.63898" y="22.388725">TMax XT2</tspan></text></g><g id="g182" shape-rendering="crispEdges"><circle id="circle184" cx="93.099998" cy="48.5" fill="#575d5e" r="30.1"/><path id="path186" d="m63.406713 52.778869a30 30 0 0 1  .348859-10.516218l29.344428 6.237351z" fill="#808000"/><path id="path188" d="m82.34896 20.49259a30 30 0 0 1 21.45318-.01872l-10.70214 28.026132z" fill="#f00"/><path id="path190" d="m65.801162 36.059206a30 30 0 0 1 16.547798-15.566616l10.75104 28.007412z" fill="#ff0"/><circle id="circle192" cx="93.099998" cy="48.5" fill="#575d5e" r="25" stroke="#333"/><rect id="rect194" fill="#575d5e" height="13.8" rx="2" ry="5" stroke="#333" stroke-linecap="round" stroke-linejoin="round" stroke-width=".80000001" transform="rotate(90)" width="50.200001" x="23.400005" y="-100"/><rect id="rect196" height="9" rx="1.0888889" ry="4.5" style="fill:#fff;fill-rule:evenodd;stroke:#999;stroke-width:.5;stroke-linecap:round;stroke-linejoin:round" transform="rotate(90)" width="49" x="26.000004" y="-97.599998"/><text id="text198" fill="#fff" font-family="sans-serif" font-size="12.5" letter-spacing="0" line-height="125%" word-spacing="0" x="92.672264" xml:space="preserve" y="22.630554"><tspan id="tspan200" fill="#fff" font-family="FreesiaUPC" font-size="7.5" x="92.672264" y="22.630554">I</tspan></text><text id="text202" fill="#fff" font-family="sans-serif" font-size="12.5" letter-spacing="0" line-height="125%" word-spacing="0" x="63.998238" xml:space="preserve" y="49.234207"><tspan id="tspan204" fill="#fff" font-family="FreesiaUPC" font-size="7.5" x="63.998238" y="49.234207">O</tspan></text><path id="path206" d="m93.1 27.279691l-3 5.195312h6zm-3.25 8.820312c-.554 0-1 .446-1 1v5c0 .554.446 1 1 1h6.5c.554 0 1-.446 1-1v-5c0-.554-.446-1-1-1zm0 8.449219c-.554 0-1 .446-1 1v5c0 .554.446 1 1 1h6.5c.554 0 1-.446 1-1v-5c0-.554-.446-1-1-1zm0 8.451172c-.554 0-1 .446-1 1v5c0 .554.446 1 1 1h6.5c.554 0 1-.446 1-1v-5c0-.554-.446-1-1-1z" fill="#e6e6e6"/><path id="path208" d="m89.357052 71.899953h7.485895m-7.485895-2h7.485895m-7.485895-2h7.485895m-7.485895-2h7.485895m-7.485895-2h7.485895m-7.485895-2h7.485895" fill="none" stroke="#e6e6e6" stroke-linecap="round" stroke-width=".99999976"/></g><g id="g210" shape-rendering="crispEdges"><circle id="circle212" cx="124.6" cy="87.565689" r="2.5" style="overflow:visible;fill:#c7cacc;fill-rule:evenodd;stroke:#333;stroke-width:.25;stroke-linecap:round;stroke-linejoin:round"/><text id="text214" line-height="125%" style="font-size:12.5;font-family:sans-serif;letter-spacing:0;word-spacing:0;overflow:visible;fill:#4d4d4d;fill-opacity:.9372549" x="123.00637" xml:space="preserve" y="88.020096"><tspan id="tspan216" fill="#4d4d4d" fill-opacity=".9372549" font-size="1.25" x="123.00637" y="88.020096">TEST</tspan></text></g></g><g id="motorDrive"><rect id="rect220" fill="#575d5e" height="98" shape-rendering="crispEdges" stroke="#333" stroke-width=".80000001" width="76" x="55.099998" y="17.000004"/><path id="path222" clip-path="url(#j)" d="m-92.308479 26.625003v87.999997m1.6-87.999997v87.999997m1.6-87.999997v87.999997m1.6-87.999997v87.999997m1.6-87.999997v87.999997m1.6-87.999997v87.999997m1.6-87.999997v87.999997m1.6-87.999997v87.999997m1.6-87.999997v87.999997m1.6-87.999997v87.999997m1.6-87.999997v87.999997m1.6-87.999997v87.999997m1.6-87.999997v87.999997m1.6-87.999997v87.999997m1.6-87.999997v87.999997m1.6-87.999997v87.999997m1.6-87.999997v87.999997m1.6-87.999997v87.999997m1.6-87.999997v87.999997m1.6-87.999997v87.999997m1.6-87.999997v87.999997m1.6-87.999997v87.999997m1.6-87.999997v87.999997m1.6-87.999997v87.999997m1.6-87.999997v87.999997m1.6-87.999997v87.999997m1.6-87.999997v87.999997m1.6-87.999997v87.999997m1.6-87.999997v87.999997m1.6-87.999997v87.999997m1.6-87.999997v87.999997m1.6-87.999997v87.999997m1.6-87.999997v87.999997m1.6-87.999997v87.999997m1.600001-87.999997v87.999997m1.6-87.999997v87.999997m1.6-87.999997v87.999997m1.6-87.999997v87.999997m1.6-87.999997v87.999997m1.6-87.999997v87.999997m1.6-87.999997v87.999997m1.6-87.999997v87.999997m1.6-87.999997v87.999997m1.6-87.999997v87.999997m1.6-87.999997v87.999997m1.6-87.999997v87.999997m1.6-87.999997v87.999997m-73.600001-87.999997h75m-75 1.6h75m-75 1.6h75m-75 1.6h75m-75 1.6h75m-75 1.6h75m-75 1.6h75m-75 1.6h75m-75 1.6h75m-75 1.6h75m-75 1.6h75m-75 1.6h75m-75 1.6h75m-75 1.6h75m-75 1.6h75m-75 1.6h75m-75 1.6h75m-75 1.600001h75m-75 1.6h75m-75 1.6h75m-75 1.6h75m-75 1.6h75m-75 1.6h75m-75 1.6h75m-75 1.6h75m-75 1.6h75m-75 1.6h75m-75 1.6h75m-75 1.6h75m-75 1.6h75m-75 1.6h75m-75 1.6h75m-75 1.6h75m-75 1.6h75m-75 1.6h75m-75 1.6h75m-75 1.6h75m-75 1.6h75m-75 1.6h75m-75 1.6h75m-75 1.6h75m-75 1.6h75m-75 1.6h75m-75 1.6h75m-75 1.6h75m-75 1.6h75m-75 1.599996h75m-75 1.6h75m-75 1.6h75m-75 1.6h75m-75 1.6h75m-75 1.6h75m-75 1.6h75m-75 1.6h75m-75 1.6h75m-75-86.399997h75v87.999997h-75z" fill="#4d4d4d" fill-rule="evenodd" stroke="#575d5e" stroke-width=".4pt" transform="translate(147.90848)"/><rect id="rect224" fill="#c2c5c8" height="27.051039" shape-rendering="crispEdges" stroke="#333" stroke-linejoin="round" stroke-width=".5" width="4" x="59.599998" y="26.948963"/><g id="g226" fill-rule="evenodd" shape-rendering="crispEdges" stroke-linecap="round" stroke-linejoin="round"><circle id="circle228" cx="67.599998" cy="65.5" fill="#c4c7ca" r="7" stroke="#333" stroke-width=".5"/><circle id="circle230" cx="67.599998" cy="65.5" fill="#000003" r="2" stroke="#000"/></g><rect id="rect232" fill="#575d5e" height="18" shape-rendering="crispEdges" stroke="#333" stroke-width=".80000001" width="13" x="55.099998" y="97"/><g id="g234" shape-rendering="crispEdges" stroke-linecap="round"><circle id="circle236" cx="106.1" cy="105.5" fill="#d40000" fill-rule="evenodd" r="8.5" stroke="#333" stroke-linejoin="round" stroke-width=".80000001"/><circle id="circle238" cx="106.1" cy="105.5" fill="none" r="2.75" stroke="#fff" stroke-width=".5"/></g><g id="g240" shape-rendering="crispEdges"><rect id="rect242" fill="#bb1e10" height="7.1999998" width="75.199997" x="55.5" y="17.400003"/><path id="path244" d="m55.499996 25.099999h75.199994" fill="none" stroke="#fff" stroke-width=".99999982"/><path id="path246" d="m57.83847 18.500002l-.65586 2.45h1.35489v-2.45zm.79903 0v2.45h1.35488l-.65576-2.45zm2.8 0v2.45h1.45v-2.45zm1.55 0v2.45h1.51787a1.5000004 1.5000004 0 0 0 -.51904-.344436 1.1250003 1.1250003 0 0 0  .57627-.980565 1.1250003 1.1250003 0 0 0 -1.125-1.124999 1.1250003 1.1250003 0 0 0 -.00009 0h-.45zm2.35 0v2.45h1.45v-2.45zm1.55 0v2.45h1.51787a1.5000004 1.5000004 0 0 0 -.51904-.344436 1.1250003 1.1250003 0 0 0  .57627-.980565 1.1250003 1.1250003 0 0 0 -1.125-1.124999 1.1250003 1.1250003 0 0 0 -.00009 0h-.45zm-9.73164 2.550003l-.65586 2.449998h1.25l.26504-.999997h.52246v-1.450001zm1.48164 0v1.450001h.52256l.26494.999997h1.25l-.65576-2.449998zm2.8 0v2.449998h1.45v-2.449998zm1.55 0v2.449998h.45a1.5000004 1.5000004 0 0 0  .00008 0 1.5000004 1.5000004 0 0 0  1.5-1.499999 1.5000004 1.5000004 0 0 0 -.3417-.949999h-1.6084zm2.35 0v2.449998h1.45v-2.449998zm1.55 0v2.449998h.45a1.5000004 1.5000004 0 0 0  .00008 0 1.5000004 1.5000004 0 0 0  1.5-1.499999 1.5000004 1.5000004 0 0 0 -.3417-.949999h-1.60839z" fill="#fff"/><text id="text248" line-height="100%" style="font-weight:bold;font-size:5.39302158;font-family:sans-serif;letter-spacing:0;word-spacing:0;fill:#fff" x="107.63898" xml:space="preserve" y="22.33942"><tspan id="tspan250" fill="#fff" font-family="sans-serif" font-size="3.75" font-weight="bold" line-height="100%" x="107.63898" y="22.33942"><tspan id="tspan252" font-family="sans-serif" font-weight="bold">TMax</tspan> XT1</tspan></text></g><g id="g254" shape-rendering="crispEdges" stroke="#333" stroke-width=".5"><path id="path256" d="m78.373637 26.958054l.464953.01506c3.887843.125958 7.837197 1.750539 9.111101 7.131261l2.607291 11.012694c1.212522 5.121459-3.069604 6.882934-6.88252 6.882934h-11.012032c-3.812916 0-8.010707-1.879427-6.882521-6.882934l2.483134-11.012694c1.164435-5.164267 6.014964-7.279016 10.110594-7.146321z" fill="#575d5e"/><g id="g258" stroke-linecap="round" stroke-linejoin="round"><circle id="circle260" cx="70.473373" cy="46.30872" fill-rule="evenodd" r="2.75"/><circle id="circle262" cx="85.885208" cy="46.30872" fill-rule="evenodd" r="2.75"/><circle id="circle264" cx="78.179291" cy="36.893433" r="7.1000004"/></g></g><rect id="rect266" height="11.295487" style="fill:#450006;stroke:#333;stroke-width:.80000001;stroke-linecap:round;stroke-linejoin:round;shape-rendering:crispEdges" width="4.5920873" x="119.5" y="26.304516"/><g id="g268" shape-rendering="crispEdges" stroke-linecap="round"><g id="g270" fill="#c4c7ca" stroke-linejoin="round" stroke-width=".5"><path id="path272" d="m104.46328 64.451175c-1.84254 0-3.32617 1.484283-3.32617 3.326172v8.023437.826172c0 .536901.13706 1.036386.36133 1.484375a7.75 7.75 0 0 0 7.38867 5.439453 7.75 7.75 0 0 0  7.36914-5.363281h3.41211v-3h-3.03125v-4.460938h3.1582v-3h-3.16406c-.0277-1.817655-1.49521-3.27539-3.32031-3.27539z" fill-rule="evenodd" stroke="#333"/><g id="g274" stroke="#666"><circle id="circle276" cx="110.85" cy="76.650002" r="4.3499999"/><rect id="rect278" height="3" width="8" x="106.85" y="75.150002"/></g></g><path id="path280" d="m122.11424 68.999903h4.97476" fill="#ececec" fill-rule="evenodd" stroke="#ececec" stroke-width="2"/><path id="path282" d="m122.11424 76.499903h4.97476" fill="#ececec" fill-rule="evenodd" stroke="#ececec" stroke-width="2"/></g></g><g id="rockerLever"><rect id="RL_Base" fill="#575d5e" height="45" shape-rendering="crispEdges" stroke="#333" stroke-width=".80000001" width="96" x="32.599998" y="49.000004"/><path id="path4p" clip-path="url(#g)" d="m187.40211 49.500004v44m1.6-44v44m1.6-44v44m1.6-44v44m1.6-44v44m1.6-44v44m1.60001-44v44m1.6-44v44m1.6-44v44m1.6-44v44m1.6-44v44m1.6-44v44m1.6-44v44m1.6-44v44m1.6-44v44m1.6-44v44m1.6-44v44m1.6-44v44m1.6-44v44m1.6-44v44m1.6-44v44m1.6-44v44m1.6-44v44m1.6-44v44m1.6-44v44m1.6-44v44m1.6-44v44m1.6-44v44m1.6-44v44m1.6-44v44m1.6-44v44m1.6-44v44m1.6-44v44m1.6-44v44m1.6-44v44m1.6-44v44m1.6-44v44m1.6-44v44m1.6-44v44m1.6-44v44m1.6-44v44m1.6-44v44m1.6-44v44m1.6-44v44m1.6-44v44m1.6-44v44m1.6-44v44m1.6-44v44m1.6-44v44m1.6-44v44m1.6-44v44m1.6-44v44m1.6-44v44m1.6-44v44m1.6-44v44m1.6-44v44m1.6-44v44m-89.60001-44h91m-91 1.6h91m-91 1.6h91m-91 1.6h91m-91 1.6h91m-91 1.6h91m-91 1.6h91m-91 1.6h91m-91 1.6h91m-91 1.6h91m-91 1.6h91m-91 1.6h91m-91 1.6h91m-91 1.600001h91m-91 1.6h91m-91 1.6h91m-91 1.6h91m-91 1.6h91m-91 1.6h91m-91 1.6h91m-91 1.6h91m-91 1.6h91m-91 1.6h91m-91 1.6h91m-91 1.6h91m-91 1.6h91m-91 1.6h91m-91 1.6h91m-91-43.200001h91v44h-91z" fill="#4d4d4d" fill-rule="evenodd" stroke="#575d5e" stroke-width=".4pt" transform="translate(-152.30211)"/><path id="path3p" clip-path="url(#h)" d="m156.14626 49.440004v43.999996m1.6-43.999996v43.999996m1.6-43.999996v43.999996m1.6-43.999996v43.999996m1.6-43.999996v43.999996m1.6-43.999996v43.999996m1.6-43.999996v43.999996m1.6-43.999996v43.999996m1.6-43.999996v43.999996m1.6-43.999996v43.999996m1.6-43.999996v43.999996m1.6-43.999996v43.999996m1.6-43.999996v43.999996m1.6-43.999996v43.999996m1.6-43.999996v43.999996m1.6-43.999996v43.999996m1.6-43.999996v43.999996m1.6-43.999996v43.999996m1.6-43.999996v43.999996m1.6-43.999996v43.999996m1.6-43.999996v43.999996m1.6-43.999996v43.999996m1.6-43.999996v43.999996m1.6-43.999996v43.999996m1.6-43.999996v43.999996m1.6-43.999996v43.999996m1.6-43.999996v43.999996m1.6-43.999996v43.999996m1.6-43.999996v43.999996m1.6-43.999996v43.999996m1.6-43.999996v43.999996m1.6-43.999996v43.999996m1.6-43.999996v43.999996m1.6-43.999996v43.999996m1.6-43.999996v43.999996m1.6-43.999996v43.999996m1.6-43.999996v43.999996m1.6-43.999996v43.999996m1.6-43.999996v43.999996m1.6-43.999996v43.999996m1.6-43.999996v43.999996m-64-43.999996h65m-65 1.6h65m-65 1.6h65m-65 1.6h65m-65 1.6h65m-65 1.6h65m-65 1.6h65m-65 1.6h65m-65 1.6h65m-65 1.6h65m-65 1.6h65m-65 1.6h65m-65 1.6h65m-65 1.6h65m-65 1.6h65m-65 1.599996h65m-65 1.6h65m-65 1.6h65m-65 1.6h65m-65 1.6h65m-65 1.6h65m-65 1.6h65m-65 1.6h65m-65 1.6h65m-65 1.6h65m-65 1.6h65m-65 1.6h65m-65 1.6h65m-65-43.199996h65v43.999996h-65z" fill="#4d4d4d" fill-rule="evenodd" stroke="#575d5e" stroke-width=".4pt" transform="translate(-95.546262)"/><g id="RL_Drive"><rect id="rect294" fill="#575d5e" height="41" shape-rendering="crispEdges" stroke="#333" stroke-width=".80000001" width="45" x="70.599998" y="50.940002"/><g id="g296" shape-rendering="crispEdges"><g id="g298"><rect id="rect300" fill="#bb1e10" height="7.0999999" width="44.200001" x="71" y="51.340004"/><path id="path302" d="m71 58.190027h44.2" fill="none" stroke="#f1f0ea" stroke-width=".49999997"/></g><text id="text304" line-height="100%" style="font-weight:bold;font-size:5.39302158;font-family:sans-serif;letter-spacing:0;word-spacing:0;fill:#fff" x="92.83329" xml:space="preserve" y="56.275764"><tspan id="tspan306" fill="#fff" font-family="sans-serif" font-size="3.75" font-weight="bold" line-height="100%" x="92.83329" y="56.275764">TMax XT1</tspan></text></g><path id="path308" d="m74.269685 52.089775l-.655859 2.45h1.354883v-2.45zm.799023 0v2.45h1.354884l-.655762-2.45zm2.800002 0v2.45h1.45v-2.45zm1.549999 0v2.45h1.517872a1.5000004 1.5000004 0 0 0 -.519043-.344436 1.1250003 1.1250003 0 0 0  .576269-.980565 1.1250003 1.1250003 0 0 0 -1.125-1.124999 1.1250003 1.1250003 0 0 0 -.000085 0h-.449999zm2.350001 0v2.45h1.45v-2.45zm1.55 0v2.45h1.517872a1.5000004 1.5000004 0 0 0 -.519043-.344436 1.1250003 1.1250003 0 0 0  .57627-.980565 1.1250003 1.1250003 0 0 0 -1.125-1.124999 1.1250003 1.1250003 0 0 0 -.000085 0h-.450001zm-9.731643 2.550003l-.655859 2.449998h1.25l.265039-.999997h.522462v-1.450001zm1.481641 0v1.450001h.522559l.264942.999997h1.25l-.655762-2.449998zm2.800002 0v2.449998h1.45v-2.449998zm1.549999 0v2.449998h.450001a1.5000004 1.5000004 0 0 0  .000085 0 1.5000004 1.5000004 0 0 0  1.5-1.499999 1.5000004 1.5000004 0 0 0 -.3417-.949999h-1.608399zm2.350001 0v2.449998h1.45v-2.449998zm1.55 0v2.449998h.45a1.5000004 1.5000004 0 0 0  .000085 0 1.5000004 1.5000004 0 0 0  1.5-1.499999 1.5000004 1.5000004 0 0 0 -.3417-.949999h-1.608398z" fill="#fff" shape-rendering="crispEdges"/><g id="g310" shape-rendering="crispEdges"><path id="path312" d="m76.099997 84.099777h15.499999" fill="#f00" fill-rule="evenodd" stroke="#808000" stroke-width=".99999994"/><path id="path314" d="m110.1 84.099777h4" fill="none" stroke="#fff"/><path id="path316" d="m72.099997 84.099777h4" fill="none" stroke="#fff"/><path id="path318" d="m76.099997 72.440027c8.544457 0 8.68453 0 8.68453 0" fill="none" stroke="#ff0"/><path id="path320" d="m100.71511 72.440027h9.38489" fill="none" stroke="#808000"/><path id="path322" d="m110.1 72.438887h4" fill="none" stroke="#fff"/><path id="path324" d="m72.099997 72.440027h4" fill="none" stroke="#fff"/><path id="path326" d="m76.099997 66.440027h34.000003" fill="#f00" fill-rule="evenodd" stroke="#f00"/><path id="path328" d="m110.1 66.438887h4" fill="none" stroke="#fff"/><path id="path330" d="m72.099997 66.440027h4" fill="none" stroke="#fff"/><path id="path332" d="m94.600003 84.099767h15.499997" fill="#f00" fill-rule="evenodd" stroke="#808000" stroke-width=".99999994"/><circle id="circle334" cx="80.350006" cy="80.208794" fill="none" r="2.5" stroke="#fff" stroke-width=".5"/></g><g id="g336" shape-rendering="crispEdges"><path id="path338" d="m84.600002 57.647947h16.999998v32.83564c-5.666665 1.58783-11.333331 1.68229-16.999998 0z" fill="#d4d5df" stroke="#000" stroke-linejoin="round" stroke-width=".5"/><path id="path340" d="m85.363669 70.960367c5.562624-1.52999 10.424614-1.37538 15.472661 0 .14419.0393.26367.19756.26367.44296v15.3747c0 .24541-.11965.38357-.26367.44298-5.151398 2.12519-9.798959 2.13601-15.472661 0-.144655-.0545-.263667-.19757-.263667-.44298v-15.3747c0-.2454.119513-.40331.263667-.44296z" fill="none" stroke="#808080" stroke-linejoin="round" stroke-width=".5"/><path id="path342" d="m86.827107 85.835417c3.9498.75 7.86835.78125 11.75565 0" fill="none" stroke="#000" stroke-linecap="round" stroke-width=".80000001"/><path id="path344" d="m86.827107 81.335417c3.9498.75 7.86835.78125 11.75565 0" fill="none" stroke="#000" stroke-linecap="round" stroke-width=".88"/><path id="path346" d="m86.827107 82.835417c3.9498.75 7.86835.78125 11.75565 0" fill="none" stroke="#000" stroke-linecap="round" stroke-width=".80000001"/><path id="path348" d="m86.827107 84.335417c3.9498.75 7.86835.78125 11.75565 0" fill="none" stroke="#000" stroke-linecap="round" stroke-width=".80000001"/></g><g id="g350"/><g id="g352" shape-rendering="crispEdges"><circle id="circle354" cx="109.35" cy="87.949776" r="2.5" style="overflow:visible;fill:#c7cacc;fill-rule:evenodd;stroke:#333;stroke-width:.5;stroke-linecap:round;stroke-linejoin:round"/><text id="text356" line-height="125%" style="font-size:12.5;font-family:sans-serif;letter-spacing:0;word-spacing:0;overflow:visible;fill:#4d4d4d;fill-opacity:.9372549" x="107.75637" xml:space="preserve" y="88.404182"><tspan id="tspan358" fill="#4d4d4d" fill-opacity=".9372549" font-size="1.25" x="107.75637" y="88.404182">TEST</tspan></text></g><text id="text360" line-height="125%" style="font-size:12.5;font-family:sans-serif;letter-spacing:0;word-spacing:0;overflow:visible;fill:#fff;shape-rendering:crispEdges" x="103.34121" xml:space="preserve" y="65.345413"><tspan id="tspan362" fill="#fff" font-size="6.25" x="103.34121" y="65.345413">on</tspan></text><text id="text364" line-height="125%" style="font-size:12.5;font-family:sans-serif;letter-spacing:0;word-spacing:0;overflow:visible;fill:#fff;shape-rendering:crispEdges" x="103.34121" xml:space="preserve" y="82.864113"><tspan id="tspan366" fill="#fff" font-size="6.25" x="103.34121" y="82.864113">off</tspan></text><text id="text368" line-height="125%" style="font-size:12.5;font-family:sans-serif;letter-spacing:0;word-spacing:0;overflow:visible;fill:#fff;shape-rendering:crispEdges" x="79.320953" xml:space="preserve" y="65.440018"><tspan id="tspan370" fill="#fff" font-size="7.5" x="79.320953" y="65.440018">l</tspan></text></g></g></g></svg>