<svg id="svg2" height="205" overflow="visible" shape-rendering="crispEdges" viewBox="0 0 120 205" width="120" xmlns="http://www.w3.org/2000/svg" xmlns:xlink="http://www.w3.org/1999/xlink"><clipPath id="a"><rect id="rect5" height="53.9375" shape-rendering="crispEdges" width="113.2" x="3.4000001" y="41.400002"/></clipPath><clipPath id="b"><path id="path8" d="m14.400391 17.400391v76.5h90.199219v-76.5zm63.599609 57.599609h16v16h-16z" shape-rendering="crispEdges"/></clipPath><clipPath id="c"><rect id="rect11" height="75.199997" shape-rendering="crispEdges" width="75.199997" x="21.4" y="17.4"/></clipPath><g id="layer1"><rect id="breakerRear" fill="#575d5e" fill-rule="evenodd" height="205" stroke="#333" stroke-width=".80000001" width="120"/><g id="rotaryDriveAxle" transform="translate(15)"><rect id="rect19" fill="#575d5e" height="76" shape-rendering="crispEdges" stroke="#333" stroke-width=".80000001" width="76" x="22" y="17"/><g id="g21"><circle id="circle23" cx="60" cy="48.5" fill="#c0c0c0" r="15" shape-rendering="crispEdges" stroke="#000" stroke-width=".5"/><circle id="circle25" cx="60" cy="48.5" r="8" shape-rendering="crispEdges" stroke="#000"/><rect id="rect27" fill="#e6e6e6" height="6" width="6" x="57" y="45.5"/></g></g><g id="rotaryHandle" transform="translate(15)"><rect id="rect31" fill="#575d5e" height="76" shape-rendering="crispEdges" stroke="#333" stroke-width=".80000001" width="76" x="22" y="17"/><path id="path33" d="m96.972 68.650002h-16.5m16.5 1.5h-16.5m16.5 1.5h-16.5m16.5 1.5h-16.5m16.5 1.5h-16.5m16.5 1.5h-16.5m16.5 1.5h-16.5m16.5 1.5h-16.5m16.5 1.5h-16.5m16.5 1.5h-16.5m16.5 1.5h-16.5m16.5 1.5h-16.5m16.5 1.5h-16.5m16.5 1.5h-16.5m16.5 1.5h-16.5m16.5 1.5h-16.5m16.5 1.5h-16.5m16.5.299997h-16.5m16.25-24.049997v23.799997m-16-23.799997v23.799997m1.5-23.799997v23.799997m1.5-23.799997v23.799997m1.5-23.799997v23.799997m1.5-23.799997v23.799997m1.5-23.799997v23.799997m1.5-23.799997v23.799997m1.5-23.799997v23.799997m1.5-23.799997v23.799997m1.5-23.799997v23.799997m1.5-24.499998v24.499998m-15-24.049997h16v24.299997h-16zm16.25-51.000442h-16.5m16.5 1.5h-16.5m16.5 1.5h-16.5m16.5 1.5h-16.5m16.5 1.5h-16.5m16.5 1.5h-16.5m16.5 1.5h-16.5m16.5 1.5h-16.5m16.5 1.5h-16.5m16.5 1.5h-16.5m16.5 1.5h-16.5m16.5 1.5h-16.5m16.5 1.5h-16.5m16.5 1.5h-16.5m16.5 1.5h-16.5m16.5 1.5h-16.5m16.5 1.5h-16.5m16.5 1.5h-16.5m16.5 1.5h-16.5m16.5 1.5h-16.5m16.5 1.5h-16.5m16.5 1.500002h-16.5m16.5 1.5h-16.5m16.5 1.5h-16.5m16.5 1.5h-16.5m16.5 1.5h-16.5m16.5 1.5h-16.5m16.5 1.5h-16.5m16.5 1.5h-16.5m16.5 1.5h-16.5m16.5 1.5h-16.5m16.5 1.5h-16.5m16.5 1.5h-16.5m16.5 1.5h-16.5m16.5 1.5h-16.5m16.25-50.750002v50.500002m-16-50.500002v50.500002m1.5-50.500002v50.500002m1.5-50.500002v50.500002m1.5-50.500002v50.500002m1.5-50.500002v50.500002m1.5-50.500002v50.500002m1.5-50.500002v50.500002m1.5-50.500002v50.500002m1.5-50.500002v50.500002m1.5-50.500002v50.500002m1.5-50.500002v50.500002m-15-50.750002h16v51.000002h-16zm .249649 51.000442h-59.999649m59.999649 1.5h-59.999649m59.999649 1.5h-59.999649m59.999649 1.5h-59.999649m59.999649 1.5h-59.999649m59.999649 1.5h-59.999649m59.999649 1.5h-59.999649m59.999649 1.5h-59.999649m59.999649 1.5h-59.999649m59.999649 1.5h-59.999649m59.999649 1.5h-59.999649m59.999649 1.5h-59.999649m59.999649 1.5h-59.999649m59.999649 1.5h-59.999649m59.999649 1.5h-59.999649m59.999649 1.5h-59.999649m59.999649 1.5h-59.999649m59.999649.299997h-59.999649m46.249649-24.049997v23.799997m1.5-23.799997v23.799997m1.5-23.799997v23.799997m1.5-23.799997v23.799997m1.5-23.799997v23.799997m1.5-23.799997v23.799997m1.5-23.799997v23.799997m1.5-23.799997v23.799997m1.5-23.799997v23.799997m1.5-23.799997v23.799997m-59.499649-23.799997v23.799997m.999649-23.799997v23.799997m1.5-23.799997v23.799997m1.5-23.799997v23.799997m1.5-23.799997v23.799997m1.5-23.799997v23.799997m1.5-23.799997v23.799997m1.5-23.799997v23.799997m1.5-23.799997v23.799997m1.5-23.799997v23.799997m1.5-23.799997v23.799997m1.5-23.799997v23.799997m1.5-23.799997v23.799997m1.5-23.799997v23.799997m1.5-23.799997v23.799997m1.5-23.799997v23.799997m1.5-23.799997v23.799997m1.5-23.799997v23.799997m1.5-23.799997v23.799997m1.5-23.799997v23.799997m1.5-23.799997v23.799997m1.5-23.799997v23.799997m1.5-23.799997v23.799997m1.5-23.799997v23.799997m1.5-23.799997v23.799997m1.5-23.799997v23.799997m1.5-23.799997v23.799997m1.5-23.799997v23.799997m1.5-23.799997v23.799997m1.5-23.799997v23.799997m1.5-23.799997v23.799997m-44.499649-24.049997h59.499649v24.299997h-59.499649zm59.749649-51.000442h-59.999649m59.999649 1.5h-59.999649m59.999649 1.5h-59.999649m59.999649 1.5h-59.999649m59.999649 1.5h-59.999649m59.999649 1.5h-59.999649m59.999649 1.5h-59.999649m59.999649 1.5h-59.999649m59.999649 1.5h-59.999649m59.999649 1.5h-59.999649m59.999649 1.5h-59.999649m59.999649 1.5h-59.999649m59.999649 1.5h-59.999649m59.999649 1.5h-59.999649m59.999649 1.5h-59.999649m59.999649 1.5h-59.999649m59.999649 1.5h-59.999649m59.999649 1.5h-59.999649m59.999649 1.5h-59.999649m59.999649 1.5h-59.999649m59.999649 1.5h-59.999649m59.999649 1.500002h-59.999649m59.999649 1.5h-59.999649m59.999649 1.5h-59.999649m59.999649 1.5h-59.999649m59.999649 1.5h-59.999649m59.999649 1.5h-59.999649m59.999649 1.5h-59.999649m59.999649 1.5h-59.999649m59.999649 1.5h-59.999649m59.999649 1.5h-59.999649m59.999649 1.5h-59.999649m59.999649 1.5h-59.999649m59.999649 1.5h-59.999649m59.999649 1.5h-59.999649m46.249649-50.750002v50.500002m1.5-50.500002v50.500002m1.5-50.500002v50.500002m1.5-50.500002v50.500002m1.5-50.500002v50.500002m1.5-50.500002v50.500002m1.5-50.500002v50.500002m1.5-50.500002v50.500002m1.5-50.500002v50.500002m1.5-50.500002v50.500002m-59.499649-50.500002v50.500002m.999649-50.500002v50.500002m1.5-50.500002v50.500002m1.5-50.500002v50.500002m1.5-50.500002v50.500002m1.5-50.500002v50.500002m1.5-50.500002v50.500002m1.5-50.500002v50.500002m1.5-50.500002v50.500002m1.5-50.500002v50.500002m1.5-50.500002v50.500002m1.5-50.500002v50.500002m1.5-50.500002v50.500002m1.5-50.500002v50.500002m1.5-50.500002v50.500002m1.5-50.500002v50.500002m1.5-50.500002v50.500002m1.5-50.500002v50.500002m1.5-50.500002v50.500002m1.5-50.500002v50.500002m1.5-50.500002v50.500002m1.5-50.500002v50.500002m1.5-50.500002v50.500002m1.5-50.500002v50.500002m1.5-50.500002v50.500002m1.5-50.500002v50.500002m1.5-50.500002v50.500002m1.5-50.500002v50.500002m1.5-50.500002v50.500002m1.5-50.500002v50.500002m1.5-50.500002v50.500002m-44.499649-50.750002h59.499649v51.000002h-59.499649z" style="fill:#4d4d4d;fill-rule:evenodd;stroke:#575d5e;stroke-width:.5;shape-rendering:crispEdges;clip-path:url(#c)" transform="translate(1)"/><g id="g35"/><g id="g37" shape-rendering="crispEdges"><rect id="rect39" fill="#bb1e10" height="7.5" width="75.199997" x="22.4" y="17.4"/><path id="path41" d="m22.400001 25.400001h75.199998" fill="none" stroke="#fff"/><text id="text43" line-height="100%" style="font-weight:bold;font-size:5.39302158;font-family:sans-serif;letter-spacing:0;word-spacing:0;fill:#fff" x="74.538979" xml:space="preserve" y="22.365833"><tspan id="tspan45" fill="#fff" font-family="sans-serif" font-size="3.75" font-weight="bold" line-height="100%" x="74.538979" y="22.365833">TMax XT2</tspan></text><path id="path47" d="m25.35715 18.65l-.655857 2.450006h1.354884v-2.450006zm.799029 0v2.450006h1.354888l-.655759-2.450006zm2.800014 0v2.450006h1.450005v-2.450006zm1.550007 0v2.450006h1.517879a1.5000067 1.5000067 0 0 0 -.519045-.344451 1.125005 1.125005 0 0 0  .576272-.980541 1.125005 1.125005 0 0 0 -1.125004-1.125014 1.125005 1.125005 0 0 0 -.000102 0zm2.35001 0v2.450006h1.450005v-2.450006zm1.550007 0v2.450006h1.517879a1.5000067 1.5000067 0 0 0 -.519045-.344451 1.125005 1.125005 0 0 0  .576272-.980541 1.125005 1.125005 0 0 0 -1.125004-1.125014 1.125005 1.125005 0 0 0 -.000102 0zm-9.731681 2.549993l-.655862 2.450006h1.250006l.265036-1.000001h.522461v-1.450005zm1.481643 0v1.450005h.522563l.264943 1.000001h1.250007l-.655765-2.450006zm2.800014 0v2.450006h1.450005v-2.450006zm1.550007 0v2.450006h.450005a1.5000067 1.5000067 0 0 0  .000097 0 1.5000067 1.5000067 0 0 0  1.500007-1.500001 1.5000067 1.5000067 0 0 0 -.341702-.950005h-1.608402zm2.35001 0v2.450006h1.450005v-2.450006zm1.550007 0v2.450006h.45a1.5000067 1.5000067 0 0 0  .000102 0 1.5000067 1.5000067 0 0 0  1.500007-1.500001 1.5000067 1.5000067 0 0 0 -.341697-.950005z" fill="#fff"/></g><g id="g49"><circle id="circle51" cx="60" cy="48.5" fill="#5e6163" r="30.1" shape-rendering="crispEdges"/><path id="path53" d="m30.306713 52.778866a30 30 0 0 1  .348859-10.516218l29.344428 6.237351z" fill="#808000" shape-rendering="crispEdges"/><path id="path55" d="m49.24896 20.492587a30 30 0 0 1 21.45318-.01872l-10.70214 28.026132z" fill="#f00" shape-rendering="crispEdges"/><path id="path57" d="m32.701162 36.059203a30 30 0 0 1 16.547798-15.566616l10.75104 28.007412z" fill="#ff0" shape-rendering="crispEdges"/><circle id="circle59" cx="60" cy="48.5" fill="#5e6163" r="25" shape-rendering="crispEdges" stroke="#333"/><rect id="rect61" height="13.8" rx="2" ry="5" style="fill:#5e6163;stroke:#333;stroke-width:.80000001;stroke-linecap:round;stroke-linejoin:round;shape-rendering:crispEdges" transform="rotate(90)" width="50.200001" x="23.400002" y="-66.900002"/><rect id="rect63" height="9" rx="1.0888889" ry="4.5" style="fill:#fff;fill-rule:evenodd;stroke:#999;stroke-width:.5;stroke-linecap:round;stroke-linejoin:round;shape-rendering:crispEdges" transform="rotate(90)" width="49" x="26" y="-64.5"/><text id="text65" line-height="125%" style="font-size:12.5;font-family:sans-serif;letter-spacing:0;word-spacing:0;fill:#fff;shape-rendering:crispEdges" x="59.572266" xml:space="preserve" y="22.63055"><tspan id="tspan67" fill="#fff" font-family="FreesiaUPC" font-size="7.5" x="59.572266" y="22.63055">I</tspan></text><text id="text69" line-height="125%" style="font-size:12.5;font-family:sans-serif;letter-spacing:0;word-spacing:0;fill:#fff;shape-rendering:crispEdges" x="30.898239" xml:space="preserve" y="49.234207"><tspan id="tspan71" fill="#fff" font-family="FreesiaUPC" font-size="7.5" x="30.898239" y="49.234207">O</tspan></text><path id="path73" d="m60 27.279688l-3 5.195312h6zm-3.25 8.820312c-.554 0-1 .446-1 1v5c0 .554.446 1 1 1h6.5c.554 0 1-.446 1-1v-5c0-.554-.446-1-1-1zm0 8.449219c-.554 0-1 .446-1 1v5c0 .554.446 1 1 1h6.5c.554 0 1-.446 1-1v-5c0-.554-.446-1-1-1zm0 8.451172c-.554 0-1 .446-1 1v5c0 .554.446 1 1 1h6.5c.554 0 1-.446 1-1v-5c0-.554-.446-1-1-1z" fill="#e6e6e6"/><path id="path75" d="m56.257052 71.89995h7.485895m-7.485895-2h7.485895m-7.485895-2h7.485895m-7.485895-2h7.485895m-7.485895-2h7.485895m-7.485895-2h7.485895" fill="none" stroke="#e6e6e6" stroke-linecap="round" stroke-width=".99999976"/></g><g id="g77" shape-rendering="crispEdges"><circle id="circle79" cx="91.5" cy="87.565681" r="2.5" style="overflow:visible;fill:#c7cacc;fill-rule:evenodd;stroke:#333;stroke-width:.25;stroke-linecap:round;stroke-linejoin:round"/><text id="text81" line-height="125%" style="font-size:12.5;font-family:sans-serif;letter-spacing:0;word-spacing:0;overflow:visible;fill:#4d4d4d;fill-opacity:.9372549" x="89.906372" xml:space="preserve" y="88.020088"><tspan id="tspan83" fill="#4d4d4d" fill-opacity=".9372549" font-size="1.25" x="89.906372" y="88.020088">TEST</tspan></text></g></g><g id="motorDrive" transform="translate(15)"><rect id="rect87" fill="none" height="77.300003" shape-rendering="crispEdges" stroke="#333" stroke-linejoin="round" stroke-width=".80000001" width="90" x="15" y="17"/><path id="path89" d="m101.84956 16.636247h-42.500002m42.500002 1h-42.500002m42.500002 1.5h-42.500002m42.500002 1.5h-42.500002m42.500002 1.5h-42.500002m42.500002 1.5h-42.500002m42.500002 1.5h-42.500002m42.500002 1.5h-42.500002m42.500002 1.5h-42.500002m42.500002 1.5h-42.500002m42.500002 1.5h-42.500002m42.500002 1.5h-42.500002m42.500002 1.5h-42.500002m42.500002 1.5h-42.500002m42.500002 1.5h-42.500002m42.500002 1.5h-42.500002m42.500002 1.500002h-42.500002m42.500002 1.5h-42.500002m42.500002 1.5h-42.500002m42.500002 1.5h-42.500002m42.500002 1.5h-42.500002m42.500002 1.5h-42.500002m42.500002 1.5h-42.500002m42.500002 1.5h-42.500002m42.500002 1.5h-42.500002m42.500002 1.5h-42.500002m42.500002 1.5h-42.500002m42.500002 1.5h-42.500002m42.500002 1.5h-42.500002m42.500002 1.5h-42.500002m.25-42.750002v42.500002m1.5-42.500002v42.500002m1.5-42.500002v42.500002m1.5-42.500002v42.500002m1.5-42.500002v42.500002m1.5-42.500002v42.500002m1.5-42.500002v42.500002m1.5-42.500002v42.500002m1.5-42.500002v42.500002m1.5-42.500002v42.500002m1.5-42.500002v42.500002m1.5-42.500002v42.500002m1.5-42.500002v42.500002m1.5-42.500002v42.500002m1.5-42.500002v42.500002m1.5-42.500002v42.500002m1.5-42.500002v42.500002m1.5-42.500002v42.500002m1.5-42.500002v42.500002m1.5-42.500002v42.500002m1.5-42.500002v42.500002m1.5-42.500002v42.500002m1.5-42.500002v42.500002m1.5-42.500002v42.500002m1.5-42.500002v42.500002m1.5-42.500002v42.500002m1.5-42.500002v42.500002m1.500002-42.500002v42.500002m1.5-42.500002v42.500002m-42.000002-42.750002h42.000002v43.000002h-42.000002zm.25 0h-46.500001m46.500001 1h-46.500001m46.500001 1.5h-46.500001m46.500001 1.5h-46.500001m46.500001 1.5h-46.500001m46.500001 1.5h-46.500001m46.500001 1.5h-46.500001m46.500001 1.5h-46.500001m46.500001 1.5h-46.500001m46.500001 1.5h-46.500001m46.500001 1.5h-46.500001m46.500001 1.5h-46.500001m46.500001 1.5h-46.500001m46.500001 1.5h-46.500001m46.500001 1.5h-46.500001m46.500001 1.5h-46.500001m46.500001 1.500002h-46.500001m46.500001 1.5h-46.500001m46.500001 1.5h-46.500001m46.500001 1.5h-46.500001m46.500001 1.5h-46.500001m46.500001 1.5h-46.500001m46.500001 1.5h-46.500001m46.500001 1.5h-46.500001m46.500001 1.5h-46.500001m46.500001 1.5h-46.500001m46.500001 1.5h-46.500001m46.500001 1.5h-46.500001m46.500001 1.5h-46.500001m46.500001 1.5h-46.500001m32.750002-42.750002v42.500002m1.5-42.500002v42.500002m1.499999-42.500002v42.500002m1.5-42.500002v42.500002m1.5-42.500002v42.500002m1.5-42.500002v42.500002m1.5-42.500002v42.500002m1.5-42.500002v42.500002m1.5-42.500002v42.500002m1.5-42.500002v42.500002m-46.000001-42.500002v42.500002m1-42.500002v42.500002m1.5-42.500002v42.500002m1.5-42.500002v42.500002m1.500005-42.500002v42.500002m1.5-42.500002v42.500002m1.499999-42.500002v42.500002m1.5-42.500002v42.500002m1.5-42.500002v42.500002m1.5-42.500002v42.500002m1.5-42.500002v42.500002m1.5-42.500002v42.500002m1.5-42.500002v42.500002m1.5-42.500002v42.500002m1.5-42.500002v42.500002m1.5-42.500002v42.500002m1.5-42.500002v42.500002m1.5-42.500002v42.500002m1.5-42.500002v42.500002m1.5-42.500002v42.500002m1.5-42.500002v42.500002m1.5-42.500002v42.500002m-31.000004-42.750002h46.000001v43.000002h-46.000001zm88.250003 43.00003h-42.500002m42.500002 1.5h-42.500002m42.500002 1.499997h-42.500002m42.500002 1.5h-42.500002m42.500002 1.5h-42.500002m42.500002 1.5h-42.500002m42.500002 1.5h-42.500002m42.500002 1.5h-42.500002m42.500002 1.5h-42.500002m42.500002 1.5h-42.500002m42.500002 1.5h-42.500002m42.500002 1.5h-42.500002m42.500002 1.5h-42.500002m42.500002 1.5h-42.500002m42.500002 1.5h-42.500002m42.500002 1.5h-42.500002m42.500002 1.5h-42.500002m42.500002 1.5h-42.500002m42.500002 1.5h-42.500002m42.500002 1.5h-42.500002m42.500002 1.5h-42.500002m42.500002 1.5h-42.500002m42.500442 1.5h-42.500442m.25-32.749997v34.499993m1.5-34.499993v34.499993m1.5-34.499993v34.499993m1.5-34.499993v34.499993m1.5-34.499993v34.499993m1.5-34.499993v34.499993m1.5-34.499993v34.499993m1.5-34.499993v34.499993m1.5-34.499993v34.499993m1.5-34.499993v34.499993m1.5-34.499993v34.499993m1.5-34.499993v34.499993m1.5-34.499993v34.499993m1.5-34.499993v34.499993m1.5-34.499993v34.499993m1.5-34.499993v34.499993m1.5-34.499993v34.499993m1.5-34.499993v34.499993m1.5-34.499993v34.499993m1.5-34.499993v34.499993m1.5-34.499993v34.499993m1.5-34.499993v34.499993m1.5-34.499993v34.499993m1.5-34.499993v34.499993m1.5-34.499993v34.499993m1.5-34.499993v34.499993m1.5-34.499993v34.499993m1.500002-34.499993v34.499993m1.5-34.499993v34.499993m-42.000002-34.749993h42.000002v34.999993h-42.000002zm.25 0h-46.500001m46.500001 1.5h-46.500001m46.500001 1.499997h-46.500001m46.500001 1.5h-46.500001m46.500001 1.5h-46.500001m46.500001 1.5h-46.500001m46.500001 1.5h-46.500001m46.500001 1.5h-46.500001m46.500001 1.5h-46.500001m46.500001 1.5h-46.500001m46.500001 1.5h-46.500001m46.500001 1.5h-46.500001m46.500001 1.5h-46.500001m46.500001 1.5h-46.500001m46.500001 1.5h-46.500001m46.500001 1.5h-46.500001m46.500001 1.5h-46.500001m46.500001 1.5h-46.500001m46.500001 1.5h-46.500001m46.500001 1.5h-46.500001m46.500001 1.5h-46.500001m46.500001 1.5h-46.500001m46.500001 1.5h-46.500001m46.500001 1.5h-46.500001m46.500001.499996h-46.500001m32.750002-34.749993v34.499993m1.5-34.499993v34.499993m1.499999-34.499993v34.499993m1.5-34.499993v34.499993m1.5-34.499993v34.499993m1.5-34.499993v34.499993m1.5-34.499993v34.499993m1.5-34.499993v34.499993m1.5-34.499993v34.499993m1.5-34.499993v34.499993m-46.000001-34.499993v34.499993m1-34.499993v34.499993m1.5-34.499993v34.499993m1.5-34.499993v34.499993m1.500005-34.499993v34.499993m1.5-34.499993v34.499993m1.499999-34.499993v34.499993m1.5-34.499993v34.499993m1.5-34.499993v34.499993m1.5-34.499993v34.499993m1.5-34.499993v34.499993m1.5-34.499993v34.499993m1.5-34.499993v34.499993m1.5-34.499993v34.499993m1.5-34.499993v34.499993m1.5-34.499993v34.499993m1.5-34.499993v34.499993m1.5-34.499993v34.499993m1.5-34.499993v34.499993m1.5-34.499993v34.499993m1.5-34.499993v34.499993m1.5-34.499993v34.499993m-31.000004-34.749993h46.000001v34.999993h-46.000001z" style="fill:#4d4d4d;fill-rule:evenodd;stroke:#575d5e;stroke-width:.5;shape-rendering:crispEdges;clip-path:url(#b)" transform="translate(1.8748045)"/><g id="g91"><rect id="rect93" fill="#1a1a1a" height="13.999999" shape-rendering="crispEdges" stroke="#1a1a1a" stroke-linejoin="round" width="19" x="17.25" y="26.626053"/><g id="g95"><path id="path97" d="m17.5 26.876053h5l5 8.523307v23.648306 32.171614h-10z" fill="#5b5e60" shape-rendering="crispEdges" stroke="#1a1a1a" stroke-linejoin="round" stroke-width="1.5"/><path id="path99" d="m18.25 67.101303c0-.708334.120583 1.853612 1.006 3.030697.885416 1.177083 2.435666.969303 3.144.969303.708334 0 2.270709.20778 3.156125-.969303.885417-1.177084 1.200322-3.739002 1.193875-3.030697v17.568361c-1.216263-.40758-.416539 2.061035-2.003614 2.704309-1.587076.643277-6.496386.032287-6.496386.032287z" fill="#333" shape-rendering="crispEdges"/><path id="path101" d="m18.25 87.963h8.5" fill="#333" fill-rule="evenodd" stroke="#333" stroke-width=".49999997"/></g></g><g id="g103" shape-rendering="crispEdges"><rect id="rect105" fill="#007b00" height="16" stroke="#333" stroke-linejoin="round" stroke-width=".5" width="16" x="79.699997" y="75"/><text id="text107" line-height="100%" style="font-weight:bold;font-size:7.5;font-family:Arial;letter-spacing:0;word-spacing:0;fill:#fff" x="85.945313" xml:space="preserve" y="85.684334"><tspan id="tspan109" x="85.945313" y="85.684334">I</tspan></text></g><g id="g111"><g id="g113" shape-rendering="crispEdges"><rect id="rect115" fill="#bb1e10" height="7.1999998" width="89.199997" x="15.4" y="17.4"/><path id="path117" d="m15.399998 25.065677h89.200002" fill="none" stroke="#fff" stroke-width=".99999976"/></g><text id="text119" line-height="100%" style="font-weight:bold;font-size:5.39302158;font-family:sans-serif;letter-spacing:0;word-spacing:0;fill:#fff;shape-rendering:crispEdges" x="82.839081" xml:space="preserve" y="22.365833"><tspan id="tspan121" fill="#fff" font-family="sans-serif" font-size="3.75" font-weight="bold" line-height="100%" x="82.839081" y="22.365833">TMax XT2</tspan></text><path id="path123" d="m19.186815 18.500001l-.655857 2.450006h1.354883v-2.450006zm.799028 0v2.450006h1.354889l-.65576-2.450006zm2.800014 0v2.450006h1.450006v-2.450006zm1.550008 0v2.450006h1.517879a1.5000067 1.5000067 0 0 0 -.519046-.344451 1.125005 1.125005 0 0 0  .576272-.980541 1.125005 1.125005 0 0 0 -1.125003-1.125014 1.125005 1.125005 0 0 0 -.000103 0zm2.350009 0v2.450006h1.450006v-2.450006zm1.550008 0v2.450006h1.517879a1.5000067 1.5000067 0 0 0 -.519046-.344451 1.125005 1.125005 0 0 0  .576272-.980541 1.125005 1.125005 0 0 0 -1.125003-1.125014 1.125005 1.125005 0 0 0 -.000103 0zm-9.731681 2.549993l-.655862 2.450006h1.250006l.265035-1.000001h.522461v-1.450005zm1.481642 0v1.450005h.522564l.264943 1.000001h1.250006l-.655764-2.450006zm2.800014 0v2.450006h1.450006v-2.450006zm1.550008 0v2.450006h.450004a1.5000067 1.5000067 0 0 0  .000098 0 1.5000067 1.5000067 0 0 0  1.500006-1.500001 1.5000067 1.5000067 0 0 0 -.341701-.950005h-1.608402zm2.350009 0v2.450006h1.450006v-2.450006zm1.550008 0v2.450006h.449999a1.5000067 1.5000067 0 0 0  .000103 0 1.5000067 1.5000067 0 0 0  1.500006-1.500001 1.5000067 1.5000067 0 0 0 -.341696-.950005z" fill="#fff"/></g><g id="g125"><rect id="rect127" fill="#575d5e" height="53.397243" shape-rendering="crispEdges" stroke="#333" stroke-width=".80000001" width="18.200001" x="42.900002" y="40.90276"/><g id="g129" shape-rendering="crispEdges"><rect id="rect131" fill="#f00" height="16" stroke="#333" stroke-linejoin="round" stroke-width=".5" width="16" x="44" y="75"/><text id="text133" line-height="100%" style="font-weight:bold;font-size:7.5;font-family:sans-serif;letter-spacing:0;word-spacing:0;fill:#fff" x="48.812134" xml:space="preserve" y="85.72644"><tspan id="tspan135" x="48.812134" y="85.72644">O</tspan><tspan id="tspan137" x="48.812134" y="93.22644"/></text></g><rect id="rect139" fill="#450" height="5" shape-rendering="crispEdges" stroke="#333" stroke-linejoin="round" stroke-width=".5" width="16" x="44" y="61.400002"/><g id="g141"><rect id="rect143" fill="#fff" height="5" shape-rendering="crispEdges" stroke="#333" stroke-linejoin="round" stroke-width=".5" width="16" x="44" y="42.068001"/><path id="path145" d="m46.386654 44.336225h10.966632" fill="none" stroke="#000" stroke-dasharray="1.60000002 1.60000002" stroke-linecap="round" stroke-width=".80000001"/></g></g><circle id="circle147" cx="66.75" cy="89.315681" fill="#e9e8ec" fill-rule="evenodd" r="2.75"/><circle id="circle149" cx="66.75" cy="75.315681" fill="#e9e8ec" fill-rule="evenodd" r="2.75"/><circle id="circle151" cx="75.000015" cy="61.065666" fill="#000003" fill-rule="evenodd" r="3"/><rect id="rect153" fill="#c7c9cc" height="29" stroke="#333" stroke-linecap="round" stroke-linejoin="round" width="5.5" x="97.300003" y="45.166"/><g id="g155"><rect id="rect157" fill="#333" height="14.500001" shape-rendering="crispEdges" stroke="#000" stroke-linejoin="round" stroke-width=".5" width="7" x="86.5" y="49.065678"/><rect id="rect159" fill="#505356" height="3.2" stroke="#000" stroke-linecap="round" stroke-linejoin="round" stroke-width=".5" width="5.5999999" x="87.199997" y="54.715675"/><path id="path161" d="m79.829452 50.433788c4.451801 0 4.451801 0 4.451801 0" fill="none" stroke="#fff" stroke-linecap="round" stroke-width=".80000001"/><path id="path163" d="m79.829452 56.433788c4.451801 0 4.451801 0 4.451801 0" fill="none" stroke="#fff" stroke-linecap="round"/></g></g><g id="RC_Sel"><rect id="rect167" fill="#4d4d4d" fill-rule="evenodd" height="58" stroke="#333" stroke-width=".80000001" width="114" x="3" y="132.89999"/><g id="g169"><rect id="rect171" fill="#575d5e" fill-rule="evenodd" height="52" width="110" x="5" y="135.89999"/><path id="path173" d="m36 187.9v-52" fill="none" stroke="#333" stroke-width=".5"/><path id="path175" d="m54.96528 182.96568h22.885091" fill="none" stroke="#fff" stroke-width=".5"/><path id="path177" d="m54.75 143.46568h22.885091" fill="none" stroke="#fff" stroke-width=".5"/><path id="path179" d="m54.994526 187.9v-52" fill="none" stroke="#333" stroke-width=".49999997"/><path id="path181" d="m77.501864 187.89999v-51.99999" fill="none" stroke="#333" stroke-width=".5"/><path id="path183" d="m54.75 142.96568h22.885091" fill="none" stroke="#333" stroke-width=".5"/><path id="path185" d="m35.75 182.96561h-30.75" fill="none" stroke="#fff" stroke-width=".5"/><path id="path187" d="m77.850367 169.83675h18.511358" fill="none" stroke="#333" stroke-width=".5"/><path id="path189" d="m77.850367 170.33675h18.511358" fill="none" stroke="#fff" stroke-width=".5"/><path id="path191" d="m96.158203 136.16838v21.50347h-2.599609v.004a4 3.9366337 0 0 0 -.05859-.004 4 3.9366337 0 0 0 -4 3.93664 4 3.9366337 0 0 0  4 3.93663 4 3.9366337 0 0 0  .05859-.002v.002h2.599609v7.09286 1.96832h2 16.572267v-1.96832h-16.572267v-36.4696z" fill="none" stroke="#4d4d4d" stroke-linecap="round" stroke-linejoin="round" stroke-width=".5"/><path id="path193" d="m35.75 182.46561h-30.75" fill="#333" fill-rule="evenodd" stroke="#333" stroke-width=".5"/><path id="path195" d="m36.5 187.9v-51.985" fill="#fff" fill-rule="evenodd" stroke="#fff" stroke-width=".5"/><path id="path197" d="m54.96528 182.46568h22.885091" fill="none" stroke="#333" stroke-width=".5"/><path id="path199" d="m55.494526 187.9v-52" fill="none" stroke="#fff" stroke-width=".49999997"/><path id="path201" d="m78.001864 187.89999v-51.99999" fill="none" stroke="#fff" stroke-width=".5"/><circle id="circle203" cx="14.15" cy="172.21567" fill="#008000" r="3.75" shape-rendering="crispEdges" stroke="#787876" stroke-linecap="square" stroke-width=".5"/><circle id="circle205" cx="18.5" cy="158.71567" fill="#ff0" r="1.85" stroke="#787876" stroke-linecap="round" stroke-linejoin="round" stroke-width=".5"/><circle id="circle207" cx="18.5" cy="152.71567" fill="#808000" r="1.85" stroke="#787876" stroke-linecap="round" stroke-linejoin="round" stroke-width=".5"/><path id="path209" d="m24.928764 172.46568h9.06683" style="fill:#fff;fill-rule:evenodd;stroke:#fff;stroke-width:.80000001;stroke-linecap:round;stroke-dasharray:.80000001 3.20000005"/><path id="path211" d="m24.816774 158.46568h6.564002" style="fill:#fff;fill-rule:evenodd;stroke:#fff;stroke-width:.80000001;stroke-linecap:round;stroke-dasharray:.80000001 3.20000003"/><circle id="circle213" cx="46.5" cy="152.89999" fill="#f2f2f2" r="2.5" shape-rendering="crispEdges"/><circle id="circle215" cx="46.5" cy="170.89999" fill="#f2f2f2" r="2.5" shape-rendering="crispEdges"/><path id="path217" d="m46.51811 156.9c0 10.26667 0 10 0 10" fill="#ececec" fill-rule="evenodd" shape-rendering="crispEdges" stroke="#e6e6e6" stroke-width=".5"/><circle id="circle219" cx="88.900017" cy="180.80003" fill="#ececec" r="4" shape-rendering="crispEdges" stroke="#333" stroke-linecap="square" stroke-width=".5"/><path id="path221" d="m100.14598 179.35996h11.0139" style="fill:#fff;fill-rule:evenodd;stroke:#fff;stroke-width:.79999995;stroke-linecap:round;stroke-dasharray:.79999998 3.19999995"/><path id="path223" d="m102.45104 183.42582h6.40378" style="fill:#fff;fill-rule:evenodd;stroke:#fff;stroke-width:.79999995;stroke-linecap:round;stroke-dasharray:.79999998 3.19999994"/><path id="path225" d="m62.395978 185.98496h11.013902" style="fill:#fff;fill-rule:evenodd;stroke:#fff;stroke-width:.79999995;stroke-linecap:round;stroke-dasharray:.79999998 3.19999995"/><rect id="rect227" fill="#4d4d4d" height="6" stroke="#666" stroke-linecap="round" stroke-linejoin="round" stroke-width=".25" width="1.5" x="98.800003" y="151.21568"/><path id="path229" d="m47.831338 171.45301h-2.662676l1.331338-2.30595z" fill="#b3b3b3"/><path id="path231" d="m47.831338-152.34706h-2.662676l1.331338-2.30594z" fill="#b3b3b3" transform="scale(1 -1)"/><path id="path233" d="m86.400017-182.16493h5l-2.5 4.33012z" fill="#b3b3b3" transform="scale(1 -1)"/><text id="text235" line-height="100%" style="font-weight:bold;font-size:5.39302158;font-family:sans-serif;letter-spacing:0;word-spacing:0;fill:#fff;shape-rendering:crispEdges" x="7.3101578" xml:space="preserve" y="187.00525"><tspan id="tspan237" fill="#fff" font-family="sans-serif" font-size="3.75" font-weight="bold" line-height="100%" x="7.3101578" y="187.00525">RC sel </tspan></text><g id="g239" shape-rendering="crispEdges" transform="translate(2.3090581 75.631786)"/><g id="g241" shape-rendering="crispEdges"><circle id="circle243" cx="91.250008" cy="85.969536" r="2.5" style="overflow:visible;fill:#c7cacc;fill-rule:evenodd;stroke:#333;stroke-width:.25;stroke-linecap:round;stroke-linejoin:round" transform="translate(2.3090581 75.631786)"/><text id="text245" line-height="125%" style="font-size:12.5;font-family:sans-serif;letter-spacing:0;word-spacing:0;overflow:visible;fill:#4d4d4d;fill-opacity:.9372549" x="91.965439" xml:space="preserve" y="162.05573"><tspan id="tspan247" fill="#4d4d4d" fill-opacity=".9372549" font-size="1.25" x="91.965439" y="162.05573">TEST</tspan></text></g></g></g><g id="rockerLever"><rect id="RL_Base" fill="#575d5e" height="73" stroke="#333" stroke-width=".80000001" width="114" x="3" y="41"/><path id="path4p" d="m116.6 41.649998h-78.5m78.5 1.5h-78.5m78.5 1.5h-78.5m78.5 1.5h-78.5m78.5 1.5h-78.5m78.5 1.5h-78.5m78.5 1.5h-78.5m78.5 1.5h-78.5m78.5 1.5h-78.5m78.5 1.5h-78.5m78.5 1.5h-78.5m78.5 1.5h-78.5m78.5 1.5h-78.5m78.5 1.5h-78.5m78.5 1.5h-78.5m78.5 1.5h-78.5m78.5 1.5h-78.5m78.5 1.5h-78.5m78.5 1.5h-78.5m78.5 1.5h-78.5m78.5 1.5h-78.5m78.5 1.500002h-78.5m78.5 1.5h-78.5m78.5 1.5h-78.5m78.5 1.5h-78.5m78.5 1.5h-78.5m78.5 1.5h-78.5m78.5 1.5h-78.5m78.5 1.5h-78.5m78.5 1.5h-78.5m78.5 1.5h-78.5m78.5 1.5h-78.5m78.5 1.5h-78.5m78.5 1.5h-78.5m78.5 1.5h-78.5m64.75-50.750002v50.500002m1.5-50.500002v50.500002m1.5-50.500002v50.500002m1.5-50.500002v50.500002m1.5-50.500002v50.500002m1.5-50.500002v50.500002m1.5-50.500002v50.500002m1.5-50.500002v50.500002m1.5-50.500002v50.500002m1.5-50.500002v50.500002m-78-50.500002v50.500002m1.5-50.500002v50.500002m1.5-50.500002v50.500002m1.5-50.500002v50.500002m1.5-50.500002v50.500002m1.5-50.500002v50.500002m1.5-50.500002v50.500002m1.5-50.500002v50.500002m1.5-50.500002v50.500002m1.5-50.500002v50.500002m1.5-50.500002v50.500002m1.5-50.500002v50.500002m1.5-50.500002v50.500002m1.5-50.500002v50.500002m1.5-50.500002v50.500002m1.5-50.500002v50.500002m1.5-50.500002v50.500002m1.5-50.500002v50.500002m1.5-50.500002v50.500002m1.5-50.500002v50.500002m1.5-50.500002v50.500002m1.5-50.500002v50.500002m1.5-50.500002v50.500002m1.5-50.500002v50.500002m1.5-50.500002v50.500002m1.5-50.500002v50.500002m1.5-50.500002v50.500002m1.5-50.500002v50.500002m1.5-50.500002v50.500002m1.5-50.500002v50.500002m1.5-50.500002v50.500002m1.5-50.500002v50.500002m1.5-50.500002v50.500002m1.5-50.500002v50.500002m1.5-50.500002v50.500002m1.5-50.500002v50.500002m1.5-50.500002v50.500002m1.5-50.500002v50.500002m1.5-50.500002v50.500002m1.5-50.500002v50.500002m1.5-50.500002v50.500002m1.5-50.500002v50.500002m1.5-50.500002v50.500002m-63-50.750002h78v51.000002h-78zm .25 1.5h-36.5m36.5 1.5h-36.5m36.5 1.5h-36.5m36.5 1.5h-36.5m36.5 1.5h-36.5m36.5 1.5h-36.5m36.5 1.5h-36.5m36.5 1.5h-36.5m36.5 1.5h-36.5m36.5 1.5h-36.5m36.5 1.5h-36.5m36.5 1.5h-36.5m36.5 1.5h-36.5m36.5 1.5h-36.5m36.5 1.5h-36.5m36.5 1.5h-36.5m36.5 1.5h-36.5m36.5 1.5h-36.5m36.5 1.5h-36.5m36.5 1.5h-36.5m36.5 1.500002h-36.5m36.5 1.5h-36.5m36.5 1.5h-36.5m36.5 1.5h-36.5m36.5 1.5h-36.5m36.5 1.5h-36.5m36.5 1.5h-36.5m36.5 1.5h-36.5m36.5 1.5h-36.5m36.5 1.5h-36.5m36.5 1.5h-36.5m36.5 1.5h-36.5m36.5 1.5h-36.5m36.5 1.5h-36.5m22.75-50.750002v50.500002m1.5-50.500002v50.500002m1.5-50.500002v50.500002m1.5-50.500002v50.500002m1.5-50.500002v50.500002m1.5-50.500002v50.500002m1.5-50.500002v50.500002m1.5-50.500002v50.500002m1.5-50.500002v50.500002m1.5-50.500002v50.500002m-34.5-50.500002v50.500002m1.5-50.500002v50.500002m1.5-50.500002v50.500002m1.5-50.500002v50.500002m1.5-50.500002v50.500002m1.5-50.500002v50.500002m1.5-50.500002v50.500002m1.5-50.500002v50.500002m1.5-50.500002v50.500002m1.5-50.500002v50.500002m1.5-50.500002v50.500002m1.5-50.500002v50.500002m1.5-50.500002v50.500002m1.5-50.500002v50.500002m-21-50.750002h36v51.000002h-36z" style="fill:#4d4d4d;fill-rule:evenodd;stroke:#575d5e;stroke-width:.5;shape-rendering:crispEdges;clip-path:url(#a)"/><path id="path3p" d="m116.6 41.649998h-78.5m78.5 1.5h-78.5m78.5 1.5h-78.5m78.5 1.5h-78.5m78.5 1.5h-78.5m78.5 1.5h-78.5m78.5 1.5h-78.5m78.5 1.5h-78.5m78.5 1.5h-78.5m78.5 1.5h-78.5m78.5 1.5h-78.5m78.5 1.5h-78.5m78.5 1.5h-78.5m78.5 1.5h-78.5m78.5 1.5h-78.5m78.5 1.5h-78.5m78.5 1.5h-78.5m78.5 1.5h-78.5m78.5 1.5h-78.5m78.5 1.5h-78.5m78.5 1.5h-78.5m78.5 1.500002h-78.5m78.5 1.5h-78.5m78.5 1.5h-78.5m78.5 1.5h-78.5m78.5 1.5h-78.5m78.5 1.5h-78.5m78.5 1.5h-78.5m78.5 1.5h-78.5m78.5 1.5h-78.5m78.5 1.5h-78.5m78.5 1.5h-78.5m78.5 1.5h-78.5m78.5 1.5h-78.5m78.5 1.5h-78.5m64.75-50.750002v50.500002m1.5-50.500002v50.500002m1.5-50.500002v50.500002m1.5-50.500002v50.500002m1.5-50.500002v50.500002m1.5-50.500002v50.500002m1.5-50.500002v50.500002m1.5-50.500002v50.500002m1.5-50.500002v50.500002m1.5-50.500002v50.500002m-78-50.500002v50.500002m1.5-50.500002v50.500002m1.5-50.500002v50.500002m1.5-50.500002v50.500002m1.5-50.500002v50.500002m1.5-50.500002v50.500002m1.5-50.500002v50.500002m1.5-50.500002v50.500002m1.5-50.500002v50.500002m1.5-50.500002v50.500002m1.5-50.500002v50.500002m1.5-50.500002v50.500002m1.5-50.500002v50.500002m1.5-50.500002v50.500002m1.5-50.500002v50.500002m1.5-50.500002v50.500002m1.5-50.500002v50.500002m1.5-50.500002v50.500002m1.5-50.500002v50.500002m1.5-50.500002v50.500002m1.5-50.500002v50.500002m1.5-50.500002v50.500002m1.5-50.500002v50.500002m1.5-50.500002v50.500002m1.5-50.500002v50.500002m1.5-50.500002v50.500002m1.5-50.500002v50.500002m1.5-50.500002v50.500002m1.5-50.500002v50.500002m1.5-50.500002v50.500002m1.5-50.500002v50.500002m1.5-50.500002v50.500002m1.5-50.500002v50.500002m1.5-50.500002v50.500002m1.5-50.500002v50.500002m1.5-50.500002v50.500002m1.5-50.500002v50.500002m1.5-50.500002v50.500002m1.5-50.500002v50.500002m1.5-50.500002v50.500002m1.5-50.500002v50.500002m1.5-50.500002v50.500002m1.5-50.500002v50.500002m-63-50.750002h78v51.000002h-78z" fill="#4d4d4d" fill-rule="evenodd" shape-rendering="crispEdges" stroke="#575d5e" stroke-width=".5"/><g id="RL_Drive"><rect id="rect259" fill="#575d5e" height="41" shape-rendering="crispEdges" stroke="#000" stroke-width=".80000001" width="45" x="52.5" y="49"/><g id="g261" shape-rendering="crispEdges"><g id="g263"><rect id="rect265" fill="#bb1e10" height="6.5" width="44.200001" x="52.899998" y="49.400002"/><path id="path267" d="m52.9 56.150004h44.2" fill="none" stroke="#fff" stroke-width=".5"/><path id="path269" d="m55.66965 50.150002l-.655857 2.450006h1.354883v-2.450006zm.799028 0v2.450006h1.354889l-.65576-2.450006zm2.800014 0v2.450006h1.450006v-2.450006zm1.550008 0v2.450006h1.517879a1.5000067 1.5000067 0 0 0 -.519046-.344451 1.125005 1.125005 0 0 0  .576272-.980541 1.125005 1.125005 0 0 0 -1.125003-1.125014 1.125005 1.125005 0 0 0 -.000103 0zm2.350009 0v2.450006h1.450006v-2.450006zm1.550008 0v2.450006h1.517879a1.5000067 1.5000067 0 0 0 -.519046-.344451 1.125005 1.125005 0 0 0  .576272-.980541 1.125005 1.125005 0 0 0 -1.125003-1.125014 1.125005 1.125005 0 0 0 -.000103 0zm-9.731681 2.549993l-.655862 2.450006h1.250006l.265035-1.000001h.522461v-1.450005zm1.481642 0v1.450005h.522564l.264943 1.000001h1.250006l-.655764-2.450006zm2.800014 0v2.450006h1.450006v-2.450006zm1.550008 0v2.450006h.450004a1.5000067 1.5000067 0 0 0  .000098 0 1.5000067 1.5000067 0 0 0  1.500006-1.500001 1.5000067 1.5000067 0 0 0 -.341701-.950005h-1.608402zm2.350009 0v2.450006h1.450006v-2.450006zm1.550008 0v2.450006h.449999a1.5000067 1.5000067 0 0 0  .000103 0 1.5000067 1.5000067 0 0 0  1.500006-1.500001 1.5000067 1.5000067 0 0 0 -.341696-.950005z" fill="#fff"/></g><g id="g271" style="font-weight:bold;font-size:5.39302158;font-family:sans-serif;letter-spacing:0;word-spacing:0;fill:#fff"><text id="text273" line-height="100%" x="74.733292" xml:space="preserve" y="54.335762"><tspan id="tspan275" fill="#fff" font-family="sans-serif" font-size="3.75" font-weight="bold" line-height="100%" x="74.733292" y="54.335762">TMax XT2</tspan></text></g></g><g id="g277" shape-rendering="crispEdges"><path id="path279" d="m57.999997 81.500004h15.499999" fill="#f00" fill-rule="evenodd" stroke="#808000" stroke-width=".99999994"/><path id="path281" d="m92.000002 81.500004h4" fill="none" stroke="#fff"/><path id="path283" d="m53.999997 81.500004h4" fill="none" stroke="#fff"/><path id="path285" d="m57.999997 70.500024c8.544457 0 8.68453 0 8.68453 0" fill="none" stroke="#ff0"/><path id="path287" d="m82.615112 70.500024h9.38489" fill="none" stroke="#808000"/><path id="path289" d="m92.000002 70.498884h4" fill="none" stroke="#fff"/><path id="path291" d="m53.999997 70.500024h4" fill="none" stroke="#fff"/><path id="path293" d="m57.999997 64.500024h34.000005" fill="#f00" fill-rule="evenodd" stroke="#f00"/><path id="path295" d="m92.000002 64.498884h4" fill="none" stroke="#fff"/><path id="path297" d="m53.999997 64.500024h4" fill="none" stroke="#fff"/><path id="path299" d="m76.500003 81.499994h15.499999" fill="#f00" fill-rule="evenodd" stroke="#808000" stroke-width=".99999994"/><circle id="circle301" cx="62.250008" cy="77.608803" fill="none" r="2.5" stroke="#fff" stroke-width=".5"/><text id="text303" line-height="125%" style="font-size:12.5;font-family:sans-serif;letter-spacing:0;word-spacing:0;overflow:visible;fill:#fff" x="85.241211" xml:space="preserve" y="63.405407"><tspan id="tspan305" fill="#fff" font-size="6.25" x="85.241211" y="63.405407">on</tspan></text><text id="text307" line-height="125%" style="font-size:12.5;font-family:sans-serif;letter-spacing:0;word-spacing:0;overflow:visible;fill:#fff" x="85.241211" xml:space="preserve" y="80.264259"><tspan id="tspan309" fill="#fff" font-size="6.25" x="85.241211" y="80.264259">off</tspan></text><text id="text311" line-height="125%" style="font-size:12.5;font-family:sans-serif;letter-spacing:0;word-spacing:0;overflow:visible;fill:#fff" x="61.220951" xml:space="preserve" y="63.500011"><tspan id="tspan313" fill="#fff" font-size="7.5" x="61.220951" y="63.500011">l</tspan></text></g><g id="g315" shape-rendering="crispEdges"><path id="path317" d="m66.500002 55.707944h17v32.83564c-5.666667 1.58783-11.333333 1.68229-17 0z" fill="#d4d5df" stroke="#000" stroke-linejoin="round" stroke-width=".5"/><path id="path319" d="m67.263669 69.020364c5.562624-1.52999 10.424614-1.37538 15.472662 0 .144189.0393.263671.19756.263671.44296v15.3747c0 .24541-.119652.38357-.263671.44298-5.151399 2.12519-9.79896 2.13601-15.472662 0-.144655-.0545-.263667-.19757-.263667-.44298v-15.3747c0-.2454.119513-.40331.263667-.44296z" fill="none" stroke="#808080" stroke-linejoin="round" stroke-width=".5"/><path id="path321" d="m68.727107 83.895414c3.9498.75 7.86835.78125 11.75565 0" fill="none" stroke="#000" stroke-linecap="round" stroke-width=".80000001"/><path id="path323" d="m68.727107 79.395414c3.9498.75 7.86835.78125 11.75565 0" fill="none" stroke="#000" stroke-linecap="round" stroke-width=".88"/><path id="path325" d="m68.727107 80.895414c3.9498.75 7.86835.78125 11.75565 0" fill="none" stroke="#000" stroke-linecap="round" stroke-width=".80000001"/><path id="path327" d="m68.727107 82.395414c3.9498.75 7.86835.78125 11.75565 0" fill="none" stroke="#000" stroke-linecap="round" stroke-width=".80000001"/></g><g id="g329"/><g id="g331" shape-rendering="crispEdges"><circle id="circle333" cx="91.250008" cy="85.969536" r="2.5" style="overflow:visible;fill:#c7cacc;fill-rule:evenodd;stroke:#333;stroke-width:.25;stroke-linecap:round;stroke-linejoin:round"/><text id="text335" line-height="125%" style="font-size:12.5;font-family:sans-serif;letter-spacing:0;word-spacing:0;overflow:visible;fill:#4d4d4d;fill-opacity:.9372549" x="89.65638" xml:space="preserve" y="86.423943"><tspan id="tspan337" fill="#4d4d4d" fill-opacity=".9372549" font-size="1.25" x="89.65638" y="86.423943">TEST</tspan></text></g></g></g></g></svg>