<svg id="svg2" height="223" overflow="visible" shape-rendering="crispEdges" viewBox="0 0 170 223" width="170" xmlns="http://www.w3.org/2000/svg" xmlns:xlink="http://www.w3.org/1999/xlink"><clipPath id="a"><rect id="rect5" height="75.199997" shape-rendering="crispEdges" width="75.199997" x="21.4" y="17.4"/></clipPath><clipPath id="b"><path id="path8" d="m62.14198 54.90205v28.38086h-37.453125v40.16796h13.462891v19.45118h26.535156v-19.4961h19.953125v19.4961h14.548828v-29.58985h-31.466796v-21.38672h31.466796v-37.02343h-5.513672v11.9414h-6.4375v-11.9414zm-34.925781 29.57226h18.421875v18.37305h-18.421875z" shape-rendering="crispEdges"/></clipPath><clipPath id="c"><path id="path11" d="m70 63v44h95v-44zm4.599609 3.5h9v9h-9zm71.900391 4h13v30h-13z" shape-rendering="crispEdges"/></clipPath><clipPath id="d"><path id="path14" d="m35 63v44h130v-44zm4 2.5h9v9h-9zm107.80078 5h12.5v30h-12.5z" shape-rendering="crispEdges"/></clipPath><clipPath id="e"><rect id="rect17" height="75.199997" shape-rendering="crispEdges" width="75.199997" x="21.4" y="17.4"/></clipPath><clipPath id="f"><path id="path20" clip-path="url(#c)" d="m165.791 61.919416h-20.5m20.5.5h-20.5m20.5 1.5h-20.5m20.5 1.5h-20.5m20.5 1.5h-20.5m20.5 1.5h-20.5m20.5 1.5h-20.5m20.5 1.5h-20.5m20.5 1.5h-20.5m20.5 1.5h-20.5m20.5 1.5h-20.5m20.5 1.5h-20.5m20.5 1.5h-20.5m20.5 1.5h-20.5m20.5 1.5h-20.5m20.5 1.5h-20.5m20.5 1.5h-20.5m20.5 1.5h-20.5m20.5 1.5h-20.5m20.5 1.5h-20.5m20.5 1.5h-20.5m20.5 1.5h-20.5m20.5 1.5h-20.5m20.5 1.5h-20.5m20.5 1.5h-20.5m20.5 1.5h-20.5m20.5 1.5h-20.5m20.5 1.500004h-20.5m20.5 1.5h-20.5m20.5 1.5h-20.5m20.5 1.5h-20.5m20.5 1.5h-20.5m20.5 1.5h-20.5m20.25-46.750004v46.500004m-20-46.500004v46.500004m1.5-46.500004v46.500004m1.5-46.500004v46.500004m1.5-46.500004v46.500004m1.5-46.500004v46.500004m1.5-46.500004v46.500004m1.5-46.500004v46.500004m1.5-46.500004v46.500004m1.5-46.500004v46.500004m1.5-46.500004v46.500004m1.5-46.500004v46.500004m1.5-46.500004v46.500004m1.5-46.500004v46.500004m1.5-46.500004v46.500004m-19.5-46.750004h20v47.000004h-20zm .24974 0h-76.500002m76.500002.5h-76.500002m76.500002 1.5h-76.500002m76.500002 1.5h-76.500002m76.500002 1.5h-76.500002m76.500002 1.5h-76.500002m76.500002 1.5h-76.500002m76.500002 1.5h-76.500002m76.500002 1.5h-76.500002m76.500002 1.5h-76.500002m76.500002 1.5h-76.500002m76.500002 1.5h-76.500002m76.500002 1.5h-76.500002m76.500002 1.5h-76.500002m76.500002 1.5h-76.500002m76.500002 1.5h-76.500002m76.500002 1.5h-76.500002m76.500002 1.5h-76.500002m76.500002 1.5h-76.500002m76.500002 1.5h-76.500002m76.500002 1.5h-76.500002m76.500002 1.5h-76.500002m76.500002 1.5h-76.500002m76.500002 1.5h-76.500002m76.500002 1.5h-76.500002m76.500002 1.5h-76.500002m76.500002 1.5h-76.500002m76.500002 1.500004h-76.500002m76.500002 1.5h-76.500002m76.500002 1.5h-76.500002m76.500002 1.5h-76.500002m76.500002 1.5h-76.500002m76.500002 1.5h-76.500002m62.750002-46.750004v46.500004m1.5-46.500004v46.500004m1.5-46.500004v46.500004m1.5-46.500004v46.500004m1.5-46.500004v46.500004m1.5-46.500004v46.500004m1.5-46.500004v46.500004m1.5-46.500004v46.500004m1.5-46.500004v46.500004m1.5-46.500004v46.500004m-76.000002-46.500004v46.500004m1-46.500004v46.500004m1.5-46.500004v46.500004m1.5-46.500004v46.500004m1.5-46.500004v46.500004m1.5-46.500004v46.500004m1.5-46.500004v46.500004m1.5-46.500004v46.500004m1.5-46.500004v46.500004m1.5-46.500004v46.500004m1.5-46.500004v46.500004m1.5-46.500004v46.500004m1.5-46.500004v46.500004m1.5-46.500004v46.500004m1.5-46.500004v46.500004m1.5-46.500004v46.500004m1.499999-46.500004v46.500004m1.500005-46.500004v46.500004m1.5-46.500004v46.500004m1.5-46.500004v46.500004m1.5-46.500004v46.500004m1.499998-46.500004v46.500004m1.5-46.500004v46.500004m1.5-46.500004v46.500004m1.5-46.500004v46.500004m1.5-46.500004v46.500004m1.5-46.500004v46.500004m1.5-46.500004v46.500004m1.5-46.500004v46.500004m1.5-46.500004v46.500004m1.5-46.500004v46.500004m1.5-46.500004v46.500004m1.5-46.500004v46.500004m1.5-46.500004v46.500004m1.5-46.500004v46.500004m1.5-46.500004v46.500004m1.5-46.500004v46.500004m1.5-46.500004v46.500004m1.5-46.500004v46.500004m1.5-46.500004v46.500004m1.5-46.500004v46.500004m1.5-46.500004v46.500004m-61.000002-46.750004c17.913372-17.913372 76.000002 0 76.000002 0v47.000004h-76.000002c0 0-11.078007-35.921997 0-47.000004z" shape-rendering="crispEdges" transform="translate(-165.88039)"/></clipPath><g id="layer1"><rect id="breakerRear" fill="#575d5e" fill-rule="evenodd" height="223" stroke="#333" stroke-width=".80000001" width="170"/><g id="rotaryDriveAxle" shape-rendering="crispEdges"><rect id="rect28" fill="#575d5e" height="76" stroke="#333" stroke-width=".80000001" width="76" x="79" y="37.150002"/><g id="g30"><circle id="circle32" cx="117" cy="68.650002" fill="#c0c0c0" r="15" stroke="#000" stroke-width=".5"/><circle id="circle34" cx="117" cy="68.650002" r="8" stroke="#000"/><rect id="rect36" fill="#e6e6e6" height="6" width="6" x="114" y="65.650002"/></g></g><g id="rotaryHandle"><rect id="rect40" fill="#575d5e" height="76" shape-rendering="crispEdges" stroke="#333" stroke-width=".80000001" width="76" x="79" y="37.150002"/><path id="path42" d="m96.972 68.650002h-16.5m16.5 1.5h-16.5m16.5 1.5h-16.5m16.5 1.5h-16.5m16.5 1.5h-16.5m16.5 1.5h-16.5m16.5 1.5h-16.5m16.5 1.5h-16.5m16.5 1.5h-16.5m16.5 1.5h-16.5m16.5 1.5h-16.5m16.5 1.5h-16.5m16.5 1.5h-16.5m16.5 1.5h-16.5m16.5 1.5h-16.5m16.5 1.5h-16.5m16.5 1.5h-16.5m16.5.499998h-16.5m16.25-24.249998v23.999998m-16-23.999998v23.999998m1.5-23.999998v23.999998m1.5-23.999998v23.999998m1.5-23.999998v23.999998m1.5-23.999998v23.999998m1.5-23.999998v23.999998m1.5-23.999998v23.999998m1.5-23.999998v23.999998m1.5-23.999998v23.999998m1.5-23.999998v23.999998m1.5-23.999998v23.999998m-15-24.249998h16v24.499998h-16zm16.25-51.000442h-16.5m16.5 1.5h-16.5m16.5 1.5h-16.5m16.5 1.5h-16.5m16.5 1.5h-16.5m16.5 1.5h-16.5m16.5 1.5h-16.5m16.5 1.5h-16.5m16.5 1.5h-16.5m16.5 1.5h-16.5m16.5 1.5h-16.5m16.5 1.5h-16.5m16.5 1.5h-16.5m16.5 1.5h-16.5m16.5 1.5h-16.5m16.5 1.5h-16.5m16.5 1.5h-16.5m16.5 1.5h-16.5m16.5 1.5h-16.5m16.5 1.5h-16.5m16.5 1.5h-16.5m16.5 1.500002h-16.5m16.5 1.5h-16.5m16.5 1.5h-16.5m16.5 1.5h-16.5m16.5 1.5h-16.5m16.5 1.5h-16.5m16.5 1.5h-16.5m16.5 1.5h-16.5m16.5 1.5h-16.5m16.5 1.5h-16.5m16.5 1.5h-16.5m16.5 1.5h-16.5m16.5 1.5h-16.5m16.5 1.5h-16.5m16.25-50.750002v50.500002m-16-50.500002v50.500002m1.5-50.500002v50.500002m1.5-50.500002v50.500002m1.5-50.500002v50.500002m1.5-50.500002v50.500002m1.5-50.500002v50.500002m1.5-50.500002v50.500002m1.5-50.500002v50.500002m1.5-50.500002v50.500002m1.5-50.500002v50.500002m1.5-50.500002v50.500002m-15-50.750002h16v51.000002h-16zm .249649 51.000442h-60.099649m60.099649 1.5h-60.099649m60.099649 1.5h-60.099649m60.099649 1.5h-60.099649m60.099649 1.5h-60.099649m60.099649 1.5h-60.099649m60.099649 1.5h-60.099649m60.099649 1.5h-60.099649m60.099649 1.5h-60.099649m60.099649 1.5h-60.099649m60.099649 1.5h-60.099649m60.099649 1.5h-60.099649m60.099649 1.5h-60.099649m60.099649 1.5h-60.099649m60.099649 1.5h-60.099649m60.099649 1.5h-60.099649m60.099649 1.5h-60.099649m60.099649.499998h-60.099649m46.349649-24.249998v23.999998m1.5-23.999998v23.999998m1.5-23.999998v23.999998m1.5-23.999998v23.999998m1.5-23.999998v23.999998m1.5-23.999998v23.999998m1.5-23.999998v23.999998m1.5-23.999998v23.999998m1.5-23.999998v23.999998m1.5-23.999998v23.999998m-59.599649-23.999998v23.999998m1.099649-23.999998v23.999998m1.5-23.999998v23.999998m1.5-23.999998v23.999998m1.5-23.999998v23.999998m1.5-23.999998v23.999998m1.5-23.999998v23.999998m1.5-23.999998v23.999998m1.5-23.999998v23.999998m1.5-23.999998v23.999998m1.5-23.999998v23.999998m1.5-23.999998v23.999998m1.5-23.999998v23.999998m1.5-23.999998v23.999998m1.5-23.999998v23.999998m1.5-23.999998v23.999998m1.5-23.999998v23.999998m1.5-23.999998v23.999998m1.5-23.999998v23.999998m1.5-23.999998v23.999998m1.5-23.999998v23.999998m1.5-23.999998v23.999998m1.5-23.999998v23.999998m1.5-23.999998v23.999998m1.5-23.999998v23.999998m1.5-23.999998v23.999998m1.5-23.999998v23.999998m1.5-23.999998v23.999998m1.5-23.999998v23.999998m1.5-23.999998v23.999998m1.5-23.999998v23.999998m-44.599649-24.249998h59.599649v24.499998h-59.599649zm59.849649-51.000442h-60.099649m60.099649 1.5h-60.099649m60.099649 1.5h-60.099649m60.099649 1.5h-60.099649m60.099649 1.5h-60.099649m60.099649 1.5h-60.099649m60.099649 1.5h-60.099649m60.099649 1.5h-60.099649m60.099649 1.5h-60.099649m60.099649 1.5h-60.099649m60.099649 1.5h-60.099649m60.099649 1.5h-60.099649m60.099649 1.5h-60.099649m60.099649 1.5h-60.099649m60.099649 1.5h-60.099649m60.099649 1.5h-60.099649m60.099649 1.5h-60.099649m60.099649 1.5h-60.099649m60.099649 1.5h-60.099649m60.099649 1.5h-60.099649m60.099649 1.5h-60.099649m60.099649 1.500002h-60.099649m60.099649 1.5h-60.099649m60.099649 1.5h-60.099649m60.099649 1.5h-60.099649m60.099649 1.5h-60.099649m60.099649 1.5h-60.099649m60.099649 1.5h-60.099649m60.099649 1.5h-60.099649m60.099649 1.5h-60.099649m60.099649 1.5h-60.099649m60.099649 1.5h-60.099649m60.099649 1.5h-60.099649m60.099649 1.5h-60.099649m60.099649 1.5h-60.099649m46.349649-50.750002v50.500002m1.5-50.500002v50.500002m1.5-50.500002v50.500002m1.5-50.500002v50.500002m1.5-50.500002v50.500002m1.5-50.500002v50.500002m1.5-50.500002v50.500002m1.5-50.500002v50.500002m1.5-50.500002v50.500002m1.5-50.500002v50.500002m-59.599649-50.500002v50.500002m1.099649-50.500002v50.500002m1.5-50.500002v50.500002m1.5-50.500002v50.500002m1.5-50.500002v50.500002m1.5-50.500002v50.500002m1.5-50.500002v50.500002m1.5-50.500002v50.500002m1.5-50.500002v50.500002m1.5-50.500002v50.500002m1.5-50.500002v50.500002m1.5-50.500002v50.500002m1.5-50.500002v50.500002m1.5-50.500002v50.500002m1.5-50.500002v50.500002m1.5-50.500002v50.500002m1.5-50.500002v50.500002m1.5-50.500002v50.500002m1.5-50.500002v50.500002m1.5-50.500002v50.500002m1.5-50.500002v50.500002m1.5-50.500002v50.500002m1.5-50.500002v50.500002m1.5-50.500002v50.500002m1.5-50.500002v50.500002m1.5-50.500002v50.500002m1.5-50.500002v50.500002m1.5-50.500002v50.500002m1.5-50.500002v50.500002m1.5-50.500002v50.500002m1.5-50.500002v50.500002m-44.599649-50.750002h59.599649v51.000002h-59.599649z" style="fill:#4d4d4d;fill-rule:evenodd;stroke:#575d5e;stroke-width:.5;shape-rendering:crispEdges;clip-path:url(#a)" transform="translate(58 20.15)"/><g id="g44"/><g id="g46" shape-rendering="crispEdges"><rect id="rect48" fill="#bb1e10" height="7.5" width="75.199997" x="79.400002" y="37.549999"/><path id="path50" d="m79.400001 45.550001h75.199999" fill="none" stroke="#fff"/><text id="text52" line-height="100%" style="font-weight:bold;font-size:5.39302158;font-family:sans-serif;letter-spacing:0;word-spacing:0;fill:#fff" x="131.53897" xml:space="preserve" y="42.515835"><tspan id="tspan54" fill="#fff" font-family="sans-serif" font-size="3.75" font-weight="bold" line-height="100%" x="131.53897" y="42.515835">TMax XT3</tspan></text><path id="path56" d="m82.35715 38.8l-.655857 2.450006h1.354884v-2.450006zm.799029 0v2.450006h1.354888l-.655759-2.450006zm2.800014 0v2.450006h1.450005v-2.450006zm1.550007 0v2.450006h1.517879a1.5000067 1.5000067 0 0 0 -.519045-.344451 1.125005 1.125005 0 0 0  .576272-.980541 1.125005 1.125005 0 0 0 -1.125004-1.125014 1.125005 1.125005 0 0 0 -.000102 0zm2.35001 0v2.450006h1.450005v-2.450006zm1.550007 0v2.450006h1.517879a1.5000067 1.5000067 0 0 0 -.519045-.344451 1.125005 1.125005 0 0 0  .576272-.980541 1.125005 1.125005 0 0 0 -1.125004-1.125014 1.125005 1.125005 0 0 0 -.000102 0zm-9.731681 2.549993l-.655862 2.450006h1.250006l.265036-1.000001h.522461v-1.450005zm1.481643 0v1.450005h.522563l.264943 1.000001h1.250007l-.655765-2.450006zm2.800014 0v2.450006h1.450005v-2.450006zm1.550007 0v2.450006h.450005a1.5000067 1.5000067 0 0 0  .000097 0 1.5000067 1.5000067 0 0 0  1.500007-1.500001 1.5000067 1.5000067 0 0 0 -.341702-.950005h-1.608402zm2.35001 0v2.450006h1.450005v-2.450006zm1.550007 0v2.450006h.45a1.5000067 1.5000067 0 0 0  .000102 0 1.5000067 1.5000067 0 0 0  1.500007-1.500001 1.5000067 1.5000067 0 0 0 -.341697-.950005z" fill="#fff"/></g><g id="g58" shape-rendering="crispEdges"><circle id="circle60" cx="117" cy="68.650002" fill="#5e6163" r="30.1"/><path id="path62" d="m87.306713 72.928866a30 30 0 0 1  .348859-10.516218l29.344428 6.237351z" fill="#808000"/><path id="path64" d="m106.24896 40.642587a30 30 0 0 1 21.45318-.01872l-10.70214 28.026132z" fill="#f00"/><path id="path66" d="m89.701162 56.209203a30 30 0 0 1 16.547798-15.566616l10.75104 28.007412z" fill="#ff0"/><circle id="circle68" cx="117" cy="68.650002" fill="#5e6163" r="25" stroke="#333"/><rect id="rect70" fill="#5e6163" height="13.8" rx="2" ry="5" stroke="#333" stroke-linecap="round" stroke-linejoin="round" stroke-width=".80000001" transform="rotate(90)" width="50.200001" x="43.550003" y="-123.9"/><rect id="rect72" height="9" rx="1.0888889" ry="4.5" style="fill:#fff;fill-rule:evenodd;stroke:#999;stroke-width:.5;stroke-linecap:round;stroke-linejoin:round" transform="rotate(90)" width="49" x="46.150002" y="-121.5"/><text id="text74" fill="#fff" font-family="sans-serif" font-size="12.5" letter-spacing="0" line-height="125%" word-spacing="0" x="116.57227" xml:space="preserve" y="42.780552"><tspan id="tspan76" fill="#fff" font-family="FreesiaUPC" font-size="7.5" x="116.57227" y="42.780552">I</tspan></text><text id="text78" fill="#fff" font-family="sans-serif" font-size="12.5" letter-spacing="0" line-height="125%" word-spacing="0" x="87.898239" xml:space="preserve" y="69.384209"><tspan id="tspan80" fill="#fff" font-family="FreesiaUPC" font-size="7.5" x="87.898239" y="69.384209">O</tspan></text><path id="path82" d="m117 47.429688l-3 5.195312h6zm-3.25 8.820312c-.554 0-1 .446-1 1v5c0 .554.446 1 1 1h6.5c.554 0 1-.446 1-1v-5c0-.554-.446-1-1-1zm0 8.449219c-.554 0-1 .446-1 1v5c0 .554.446 1 1 1h6.5c.554 0 1-.446 1-1v-5c0-.554-.446-1-1-1zm0 8.451172c-.554 0-1 .446-1 1v5c0 .554.446 1 1 1h6.5c.554 0 1-.446 1-1v-5c0-.554-.446-1-1-1z" fill="#e6e6e6"/><path id="path84" d="m113.25705 92.04995h7.4859m-7.4859-2h7.4859m-7.4859-2h7.4859m-7.4859-2h7.4859m-7.4859-2h7.4859m-7.4859-2h7.4859" fill="none" stroke="#e6e6e6" stroke-linecap="round" stroke-width=".99999976"/></g><g id="g86" shape-rendering="crispEdges"><circle id="circle88" cx="148.5" cy="107.71568" r="2.5" style="overflow:visible;fill:#c7cacc;fill-rule:evenodd;stroke:#333;stroke-width:.25;stroke-linecap:round;stroke-linejoin:round"/><text id="text90" line-height="125%" style="font-size:12.5;font-family:sans-serif;letter-spacing:0;word-spacing:0;overflow:visible;fill:#4d4d4d;fill-opacity:.9372549" x="146.90637" xml:space="preserve" y="108.17009"><tspan id="tspan92" fill="#4d4d4d" fill-opacity=".9372549" font-size="1.25" x="146.90637" y="108.17009">TEST</tspan></text></g></g><g id="largeRotaryHandle"><rect id="rect96" fill="#575d5e" height="76" shape-rendering="crispEdges" stroke="#333" stroke-width=".80000001" width="76" x="79" y="37.150002"/><path id="path98" d="m96.972 68.650002h-16.5m16.5 1.5h-16.5m16.5 1.5h-16.5m16.5 1.5h-16.5m16.5 1.5h-16.5m16.5 1.5h-16.5m16.5 1.5h-16.5m16.5 1.5h-16.5m16.5 1.5h-16.5m16.5 1.5h-16.5m16.5 1.5h-16.5m16.5 1.5h-16.5m16.5 1.5h-16.5m16.5 1.5h-16.5m16.5 1.5h-16.5m16.5 1.5h-16.5m16.5 1.5h-16.5m16.5.399998h-16.5m16.25-24.149998v23.899998m-16-23.899998v23.899998m1.5-23.899998v23.899998m1.5-23.899998v23.899998m1.5-23.899998v23.899998m1.5-23.899998v23.899998m1.5-23.899998v23.899998m1.5-23.899998v23.899998m1.5-23.899998v23.899998m1.5-23.899998v23.899998m1.5-23.899998v23.899998m1.5-23.899998v23.899998m-15-24.149998h16v24.399998h-16zm16.25-51.000442h-16.5m16.5 1.5h-16.5m16.5 1.5h-16.5m16.5 1.5h-16.5m16.5 1.5h-16.5m16.5 1.5h-16.5m16.5 1.5h-16.5m16.5 1.5h-16.5m16.5 1.5h-16.5m16.5 1.5h-16.5m16.5 1.5h-16.5m16.5 1.5h-16.5m16.5 1.5h-16.5m16.5 1.5h-16.5m16.5 1.5h-16.5m16.5 1.5h-16.5m16.5 1.5h-16.5m16.5 1.5h-16.5m16.5 1.5h-16.5m16.5 1.5h-16.5m16.5 1.5h-16.5m16.5 1.500002h-16.5m16.5 1.5h-16.5m16.5 1.5h-16.5m16.5 1.5h-16.5m16.5 1.5h-16.5m16.5 1.5h-16.5m16.5 1.5h-16.5m16.5 1.5h-16.5m16.5 1.5h-16.5m16.5 1.5h-16.5m16.5 1.5h-16.5m16.5 1.5h-16.5m16.5 1.5h-16.5m16.5 1.5h-16.5m16.25-50.750002v50.500002m-16-50.500002v50.500002m1.5-50.500002v50.500002m1.5-50.500002v50.500002m1.5-50.500002v50.500002m1.5-50.500002v50.500002m1.5-50.500002v50.500002m1.5-50.500002v50.500002m1.5-50.500002v50.500002m1.5-50.500002v50.500002m1.5-50.500002v50.500002m1.5-50.500002v50.500002m-15-50.750002h16v51.000002h-16zm .249649 51.000442h-60.099649m60.099649 1.5h-60.099649m60.099649 1.5h-60.099649m60.099649 1.5h-60.099649m60.099649 1.5h-60.099649m60.099649 1.5h-60.099649m60.099649 1.5h-60.099649m60.099649 1.5h-60.099649m60.099649 1.5h-60.099649m60.099649 1.5h-60.099649m60.099649 1.5h-60.099649m60.099649 1.5h-60.099649m60.099649 1.5h-60.099649m60.099649 1.5h-60.099649m60.099649 1.5h-60.099649m60.099649 1.5h-60.099649m60.099649 1.5h-60.099649m60.099649.399998h-60.099649m46.349649-24.149998v23.899998m1.5-23.899998v23.899998m1.5-23.899998v23.899998m1.5-23.899998v23.899998m1.5-23.899998v23.899998m1.5-23.899998v23.899998m1.5-23.899998v23.899998m1.5-23.899998v23.899998m1.5-23.899998v23.899998m1.5-23.899998v23.899998m-59.599649-23.899998v23.899998m1.099649-23.899998v23.899998m1.5-23.899998v23.899998m1.5-23.899998v23.899998m1.5-23.899998v23.899998m1.5-23.899998v23.899998m1.5-23.899998v23.899998m1.5-23.899998v23.899998m1.5-23.899998v23.899998m1.5-23.899998v23.899998m1.5-23.899998v23.899998m1.5-23.899998v23.899998m1.5-23.899998v23.899998m1.5-23.899998v23.899998m1.5-23.899998v23.899998m1.5-23.899998v23.899998m1.5-23.899998v23.899998m1.5-23.899998v23.899998m1.5-23.899998v23.899998m1.5-23.899998v23.899998m1.5-23.899998v23.899998m1.5-23.899998v23.899998m1.5-23.899998v23.899998m1.5-23.899998v23.899998m1.5-23.899998v23.899998m1.5-23.899998v23.899998m1.5-23.899998v23.899998m1.5-23.899998v23.899998m1.5-23.899998v23.899998m1.5-23.899998v23.899998m1.5-23.899998v23.899998m-44.599649-24.149998h59.599649v24.399998h-59.599649zm59.849649-51.000442h-60.099649m60.099649 1.5h-60.099649m60.099649 1.5h-60.099649m60.099649 1.5h-60.099649m60.099649 1.5h-60.099649m60.099649 1.5h-60.099649m60.099649 1.5h-60.099649m60.099649 1.5h-60.099649m60.099649 1.5h-60.099649m60.099649 1.5h-60.099649m60.099649 1.5h-60.099649m60.099649 1.5h-60.099649m60.099649 1.5h-60.099649m60.099649 1.5h-60.099649m60.099649 1.5h-60.099649m60.099649 1.5h-60.099649m60.099649 1.5h-60.099649m60.099649 1.5h-60.099649m60.099649 1.5h-60.099649m60.099649 1.5h-60.099649m60.099649 1.5h-60.099649m60.099649 1.500002h-60.099649m60.099649 1.5h-60.099649m60.099649 1.5h-60.099649m60.099649 1.5h-60.099649m60.099649 1.5h-60.099649m60.099649 1.5h-60.099649m60.099649 1.5h-60.099649m60.099649 1.5h-60.099649m60.099649 1.5h-60.099649m60.099649 1.5h-60.099649m60.099649 1.5h-60.099649m60.099649 1.5h-60.099649m60.099649 1.5h-60.099649m60.099649 1.5h-60.099649m46.349649-50.750002v50.500002m1.5-50.500002v50.500002m1.5-50.500002v50.500002m1.5-50.500002v50.500002m1.5-50.500002v50.500002m1.5-50.500002v50.500002m1.5-50.500002v50.500002m1.5-50.500002v50.500002m1.5-50.500002v50.500002m1.5-50.500002v50.500002m-59.599649-50.500002v50.500002m1.099649-50.500002v50.500002m1.5-50.500002v50.500002m1.5-50.500002v50.500002m1.5-50.500002v50.500002m1.5-50.500002v50.500002m1.5-50.500002v50.500002m1.5-50.500002v50.500002m1.5-50.500002v50.500002m1.5-50.500002v50.500002m1.5-50.500002v50.500002m1.5-50.500002v50.500002m1.5-50.500002v50.500002m1.5-50.500002v50.500002m1.5-50.500002v50.500002m1.5-50.500002v50.500002m1.5-50.500002v50.500002m1.5-50.500002v50.500002m1.5-50.500002v50.500002m1.5-50.500002v50.500002m1.5-50.500002v50.500002m1.5-50.500002v50.500002m1.5-50.500002v50.500002m1.5-50.500002v50.500002m1.5-50.500002v50.500002m1.5-50.500002v50.500002m1.5-50.500002v50.500002m1.5-50.500002v50.500002m1.5-50.500002v50.500002m1.5-50.500002v50.500002m1.5-50.500002v50.500002m-44.599649-50.750002h59.599649v51.000002h-59.599649z" style="fill:#4d4d4d;fill-rule:evenodd;stroke:#575d5e;stroke-width:.5;shape-rendering:crispEdges;clip-path:url(#e)" transform="translate(58 20.15)"/><g id="g100"/><g id="g102" shape-rendering="crispEdges"><rect id="rect104" fill="#bb1e10" height="7.5" width="75.199997" x="79.400002" y="37.549999"/><path id="path106" d="m79.400001 45.550001h75.199999" fill="none" stroke="#fff"/><text id="text108" line-height="100%" style="font-weight:bold;font-size:5.39302158;font-family:sans-serif;letter-spacing:0;word-spacing:0;fill:#fff" x="131.53897" xml:space="preserve" y="42.515835"><tspan id="tspan110" fill="#fff" font-family="sans-serif" font-size="3.75" font-weight="bold" line-height="100%" x="131.53897" y="42.515835">TMax XT3</tspan></text><path id="path112" d="m82.35715 38.8l-.655857 2.450006h1.354884v-2.450006zm.799029 0v2.450006h1.354888l-.655759-2.450006zm2.800014 0v2.450006h1.450005v-2.450006zm1.550007 0v2.450006h1.517879a1.5000067 1.5000067 0 0 0 -.519045-.344451 1.125005 1.125005 0 0 0  .576272-.980541 1.125005 1.125005 0 0 0 -1.125004-1.125014 1.125005 1.125005 0 0 0 -.000102 0zm2.35001 0v2.450006h1.450005v-2.450006zm1.550007 0v2.450006h1.517879a1.5000067 1.5000067 0 0 0 -.519045-.344451 1.125005 1.125005 0 0 0  .576272-.980541 1.125005 1.125005 0 0 0 -1.125004-1.125014 1.125005 1.125005 0 0 0 -.000102 0zm-9.731681 2.549993l-.655862 2.450006h1.250006l.265036-1.000001h.522461v-1.450005zm1.481643 0v1.450005h.522563l.264943 1.000001h1.250007l-.655765-2.450006zm2.800014 0v2.450006h1.450005v-2.450006zm1.550007 0v2.450006h.450005a1.5000067 1.5000067 0 0 0  .000097 0 1.5000067 1.5000067 0 0 0  1.500007-1.500001 1.5000067 1.5000067 0 0 0 -.341702-.950005h-1.608402zm2.35001 0v2.450006h1.450005v-2.450006zm1.550007 0v2.450006h.45a1.5000067 1.5000067 0 0 0  .000102 0 1.5000067 1.5000067 0 0 0  1.500007-1.500001 1.5000067 1.5000067 0 0 0 -.341697-.950005z" fill="#fff"/></g><g id="g114" shape-rendering="crispEdges"><circle id="circle116" cx="117" cy="68.650002" fill="#5e6163" r="30.1"/><path id="path118" d="m87.306713 72.928866a30 30 0 0 1  .348859-10.516218l29.344428 6.237351z" fill="#808000"/><path id="path120" d="m106.24896 40.642587a30 30 0 0 1 21.45318-.01872l-10.70214 28.026132z" fill="#f00"/><path id="path122" d="m89.701162 56.209203a30 30 0 0 1 16.547798-15.566616l10.75104 28.007412z" fill="#ff0"/><circle id="circle124" cx="117" cy="68.650002" fill="#5e6163" r="25" stroke="#333"/><text id="text126" fill="#fff" font-family="sans-serif" font-size="12.5" letter-spacing="0" line-height="125%" word-spacing="0" x="116.57227" xml:space="preserve" y="42.780552"><tspan id="tspan128" fill="#fff" font-family="FreesiaUPC" font-size="7.5" x="116.57227" y="42.780552">I</tspan></text><text id="text130" fill="#fff" font-family="sans-serif" font-size="12.5" letter-spacing="0" line-height="125%" word-spacing="0" x="87.898239" xml:space="preserve" y="69.384209"><tspan id="tspan132" fill="#fff" font-family="FreesiaUPC" font-size="7.5" x="87.898239" y="69.384209">O</tspan></text></g><g id="g134" shape-rendering="crispEdges"><path id="path136" d="m92 69.857422v35.222658.57031.25 36.95703 5.79297c0 1.03875.173926 2.05303.505859 3.03125.331934.97822.820313 1.92047 1.451172 2.81836.63086.89789 1.404004 1.75107 2.300781 2.54883.896778.79775 1.917188 1.54094 3.046876 2.21875 1.129692.67781 2.367672 1.29006 3.697262 1.82812 1.32959.53807 2.75157 1.00039 4.24805 1.37891 1.49648.37852 3.06885.67389 4.69922.87305 1.63037.19916 3.31953.30273 5.05078.30273 1.73125 0 3.41846-.10357 5.04883-.30273 1.63037-.19916 3.20273-.49453 4.69922-.87305 1.49648-.37852 2.91845-.84084 4.24804-1.37891 1.32959-.53806 2.56758-1.15031 3.69727-1.82812 1.12969-.67781 2.1501-1.421 3.04687-2.21875.89678-.79776 1.66993-1.65094 2.30079-2.54883.63086-.89789 1.11923-1.84014 1.45117-2.81836.33193-.97822.50781-1.9925.50781-3.03125v-43-.57031-35.222658c0-8.31-11.15-15-25-15-13.85 0-25 6.69-25 15z" fill="#575d5e" stroke="#363636" stroke-linejoin="round" stroke-width=".5"/><path id="path138" d="m92 68.650391a25 25 0 0 0  .0098.3125c-.002034.086-.0098.171462-.0098.257812v35.859377.57031 36.57031 6.42969c0 1.03875.173926 2.05303.505859 3.03125.331934.97822.820313 1.92047 1.451172 2.81836.63086.89789 1.404004 1.75107 2.300781 2.54883.896778.79775 1.917188 1.54094 3.046876 2.21875 1.129692.67781 2.367672 1.29006 3.697262 1.82812 1.32959.53807 2.75157 1.00039 4.24805 1.37891 1.49648.37852 3.06885.67389 4.69922.87305 1.63037.19916 3.31953.30273 5.05078.30273 1.73125 0 3.41846-.10357 5.04883-.30273 1.63037-.19916 3.20273-.49453 4.69922-.87305 1.49648-.37852 2.91845-.84084 4.24804-1.37891 1.32959-.53806 2.56758-1.15031 3.69727-1.82812 1.12969-.67781 2.1501-1.421 3.04687-2.21875.89678-.79776 1.66993-1.65094 2.30079-2.54883.63086-.89789 1.11923-1.84014 1.45117-2.81836.33193-.97822.50781-1.9925.50781-3.03125v-6.42969-36.57031-.57031-35.859377c0-.1027-.0122-.204441-.0156-.306641a25 25 0 0 0  .0156-.263671 25 25 0 0 0 -25-25 25 25 0 0 0 -25 25z" fill="none" stroke="#333"/><path id="path140" d="m116.99903 49.68762c-8.31 0-15 6.69-15 15v58.82617.17383 8.56836c0 3.56378 2.23 6.43164 5 6.43164h10 10c2.77 0 5-2.86786 5-6.43164v-8.56836-.17383-58.82617c0-8.31-6.69-15-15-15z" fill="#fff" stroke="#999" stroke-linecap="round" stroke-linejoin="bevel" stroke-width=".80000007"/><path id="path142" d="m127.32129 82.648565c1.75976 0 3.17774-.25577 3.17774-.57226v-2.85548c0-.3165-1.41798-.57226-3.17774-.57226h-20.64648c-1.75976 0-3.17578.25576-3.17578.57226v2.85548c0 .31649 1.41602.57226 3.17578.57226zm0-6.44922c1.75976 0 3.17774-.25573 3.17774-.57227v-2.85547c0-.31648-1.41798-.57226-3.17774-.57226h-20.64648c-1.75976 0-3.17578.25578-3.17578.57226v2.85547c0 .31654 1.41602.57227 3.17578.57227zm0-6.45118c1.75976 0 3.17774-.25575 3.17774-.57226v-2.85547c0-.31651-1.41798-.57227-3.17774-.57227h-20.64648c-1.75976 0-3.17578.25576-3.17578.57227v2.85547c0 .31651 1.41602.57226 3.17578.57226z" fill="#e6e6e6"/></g><g id="g144" shape-rendering="crispEdges"><circle id="circle146" cx="148.5" cy="107.71568" r="2.5" style="overflow:visible;fill:#c7cacc;fill-rule:evenodd;stroke:#333;stroke-width:.25;stroke-linecap:round;stroke-linejoin:round"/><text id="text148" line-height="125%" style="font-size:12.5;font-family:sans-serif;letter-spacing:0;word-spacing:0;overflow:visible;fill:#4d4d4d;fill-opacity:.9372549" x="146.90637" xml:space="preserve" y="108.17009"><tspan id="tspan150" fill="#4d4d4d" fill-opacity=".9372549" font-size="1.25" x="146.90637" y="108.17009">TEST</tspan></text></g></g><g id="motorDrive" shape-rendering="crispEdges"><rect id="rect154" fill="#575d5e" height="98" stroke="#333" stroke-width=".80000001" width="76" x="79" y="36"/><path id="path156" d="m100.6 53.649998h-62.5m62.5 0h-62.5m62.5 1.5h-62.5m62.5 1.5h-62.5m62.5 1.5h-62.5m62.5 1.5h-62.5m62.5 1.5h-62.5m62.5 1.5h-62.5m62.5 1.5h-62.5m62.5 1.5h-62.5m62.5 1.5h-62.5m62.5 1.5h-62.5m62.5 1.5h-62.5m62.5 1.5h-62.5m62.5 1.500002h-62.5m62.5 1.5h-62.5m62.5 1.5h-62.5m62.5 1.5h-62.5m62.5 1.5h-62.5m62.5 1.5h-62.5m62.5 1.5h-62.5m62.5 1.5h-62.5m62.5 1.5h-62.5m62.5 1.5h-62.5m62.5 1.5h-62.5m62.5 1.5h-62.5m62.5 1.5h-62.5m62.5 1.5h-62.5m62.25-38.750002v38.500002m-62-38.500002v38.500002m1.5-38.500002v38.500002m1.5-38.500002v38.500002m1.5-38.500002v38.500002m1.5-38.500002v38.500002m1.5-38.500002v38.500002m1.5-38.500002v38.500002m1.5-38.500002v38.500002m1.5-38.500002v38.500002m1.5-38.500002v38.500002m1.5-38.500002v38.500002m1.5-38.500002v38.500002m1.5-38.500002v38.500002m1.5-38.500002v38.500002m1.5-38.500002v38.500002m1.5-38.500002v38.500002m1.5-38.500002v38.500002m1.5-38.500002v38.500002m1.5-38.500002v38.500002m1.5-38.500002v38.500002m1.5-38.500002v38.500002m1.5-38.500002v38.500002m1.5-38.500002v38.500002m1.5-38.500002v38.500002m1.5-38.500002v38.500002m1.5-38.500002v38.500002m1.5-38.500002v38.500002m1.5-38.500002v38.500002m1.5-38.500002v38.500002m1.5-38.500002v38.500002m1.5-38.500002v38.500002m1.5-38.500002v38.500002m1.5-38.500002v38.500002m1.5-38.500002v38.500002m1.5-38.500002v38.500002m1.5-38.500002v38.500002m1.5-38.500002v38.500002m1.5-38.500002v38.500002m1.5-38.500002v38.500002m1.5-38.500002v38.500002m1.5-38.500002v38.500002m-60-38.750002h62v39.000002h-62zm .25 0h-14.5m14.5 0h-14.5m14.5 1.5h-14.5m14.5 1.5h-14.5m14.5 1.5h-14.5m14.5 1.5h-14.5m14.5 1.5h-14.5m14.5 1.5h-14.5m14.5 1.5h-14.5m14.5 1.5h-14.5m14.5 1.5h-14.5m14.5 1.5h-14.5m14.5 1.5h-14.5m14.5 1.5h-14.5m14.5 1.500002h-14.5m14.5 1.5h-14.5m14.5 1.5h-14.5m14.5 1.5h-14.5m14.5 1.5h-14.5m14.5 1.5h-14.5m14.5 1.5h-14.5m14.5 1.5h-14.5m14.5 1.5h-14.5m14.5 1.5h-14.5m14.5 1.5h-14.5m14.5 1.5h-14.5m14.5 1.5h-14.5m14.5 1.5h-14.5m.75-38.750002v38.500002m1.5-38.500002v38.500002m1.5-38.500002v38.500002m1.5-38.500002v38.500002m1.5-38.500002v38.500002m1.5-38.500002v38.500002m1.5-38.500002v38.500002m1.5-38.500002v38.500002m1.5-38.500002v38.500002m1.5-38.500002v38.500002m-14-38.500002v38.500002m0-38.750002h14v39.000002h-14zm76.25 38.99976h-62.5m62.5 1.5h-62.5m62.5 1.5h-62.5m62.5 1.5h-62.5m62.5 1.5h-62.5m62.5 1.500002h-62.5m62.5 1.5h-62.5m62.5 1.5h-62.5m62.5 1.5h-62.5m62.5 1.5h-62.5m62.5 1.5h-62.5m62.5 1.5h-62.5m62.5 1.5h-62.5m62.5 1.5h-62.5m62.5 1.5h-62.5m62.5 1.5h-62.5m62.5 1.5h-62.5m62.5 1.5h-62.5m62.5 1.5h-62.5m62.5 1.5h-62.5m62.5 1.5h-62.5m62.5 1.5h-62.5m62.5 1.5h-62.5m62.5 1.5h-62.5m62.5 1.5h-62.5m62.5 1.5h-62.5m62.5 1.5h-62.5m62.5 1.5h-62.5m62.5 1.5h-62.5m62.5 1.5h-62.5m62.5 1.5h-62.5m62.5 1.5h-62.5m62.5 1.5h-62.5m62.5 1.5h-62.5m62.5 1.5h-62.5m62.25-50.750002v50.500002m-62-50.500002v50.500002m1.5-50.500002v50.500002m1.5-50.500002v50.500002m1.5-50.500002v50.500002m1.5-50.500002v50.500002m1.5-50.500002v50.500002m1.5-50.500002v50.500002m1.5-50.500002v50.500002m1.5-50.500002v50.500002m1.5-50.500002v50.500002m1.5-50.500002v50.500002m1.5-50.500002v50.500002m1.5-50.500002v50.500002m1.5-50.500002v50.500002m1.5-50.500002v50.500002m1.5-50.500002v50.500002m1.5-50.500002v50.500002m1.5-50.500002v50.500002m1.5-50.500002v50.500002m1.5-50.500002v50.500002m1.5-50.500002v50.500002m1.5-50.500002v50.500002m1.5-50.500002v50.500002m1.5-50.500002v50.500002m1.5-50.500002v50.500002m1.5-50.500002v50.500002m1.5-50.500002v50.500002m1.5-50.500002v50.500002m1.5-50.500002v50.500002m1.5-50.500002v50.500002m1.5-50.500002v50.500002m1.5-50.500002v50.500002m1.5-50.500002v50.500002m1.5-50.500002v50.500002m1.5-50.500002v50.500002m1.5-50.500002v50.500002m1.5-50.500002v50.500002m1.5-50.500002v50.500002m1.5-50.500002v50.500002m1.5-50.500002v50.500002m1.5-50.500002v50.500002m-60-50.750002h62v51.000002h-62zm .25 0h-14.5m14.5 1.5h-14.5m14.5 1.5h-14.5m14.5 1.5h-14.5m14.5 1.5h-14.5m14.5 1.500002h-14.5m14.5 1.5h-14.5m14.5 1.5h-14.5m14.5 1.5h-14.5m14.5 1.5h-14.5m14.5 1.5h-14.5m14.5 1.5h-14.5m14.5 1.5h-14.5m14.5 1.5h-14.5m14.5 1.5h-14.5m14.5 1.5h-14.5m14.5 1.5h-14.5m14.5 1.5h-14.5m14.5 1.5h-14.5m14.5 1.5h-14.5m14.5 1.5h-14.5m14.5 1.5h-14.5m14.5 1.5h-14.5m14.5 1.5h-14.5m14.5 1.5h-14.5m14.5 1.5h-14.5m14.5 1.5h-14.5m14.5 1.5h-14.5m14.5 1.5h-14.5m14.5 1.5h-14.5m14.5 1.5h-14.5m14.5 1.5h-14.5m14.5 1.5h-14.5m14.5 1.5h-14.5m14.5 1.5h-14.5m.75-50.750002v50.500002m1.5-50.500002v50.500002m1.5-50.500002v50.500002m1.5-50.500002v50.500002m1.5-50.500002v50.500002m1.5-50.500002v50.500002m1.5-50.500002v50.500002m1.5-50.500002v50.500002m1.5-50.500002v50.500002m1.5-50.500002v50.500002m-14-50.500002v50.500002m0-50.750002h14v51.000002h-14z" style="overflow:visible;fill:#4d4d4d;fill-rule:evenodd;stroke:#575d5e;stroke-width:.5;clip-path:url(#b)" transform="translate(55.311147 -9.402051)"/><rect id="rect158" fill="#c2c5c8" height="27.051039" stroke="#333" stroke-linejoin="round" stroke-width=".5" width="4" x="83.5" y="45.948959"/><g id="g160" fill-rule="evenodd" stroke-linecap="round" stroke-linejoin="round"><circle id="circle162" cx="91.5" cy="84.499992" fill="#c4c7ca" r="7" stroke="#333" stroke-width=".5"/><circle id="circle164" cx="91.5" cy="84.499992" fill="#000003" r="2" stroke="#000"/></g><rect id="rect166" fill="#575d5e" height="18" stroke="#333" stroke-width=".80000001" width="13" x="79" y="115.99999"/><g id="g168" stroke-linecap="round"><circle id="circle170" cx="130" cy="124.49999" fill="#d40000" fill-rule="evenodd" r="8.5" stroke="#333" stroke-linejoin="round" stroke-width=".80000001"/><circle id="circle172" cx="130" cy="124.49999" fill="none" r="2.75" stroke="#fff" stroke-width=".5"/></g><g id="g174"><rect id="rect176" fill="#bb1e10" height="7.1999998" width="75.199997" x="79.400002" y="36.399998"/><path id="path178" d="m79.399998 44.099995h75.199992" fill="none" stroke="#fff" stroke-width=".99999982"/><path id="path180" d="m81.738472 37.499998l-.65586 2.45h1.35489v-2.45zm.79903 0v2.45h1.35488l-.65576-2.45zm2.8 0v2.45h1.45v-2.45zm1.55 0v2.45h1.51787a1.5000004 1.5000004 0 0 0 -.51904-.344436 1.1250003 1.1250003 0 0 0  .57627-.980565 1.1250003 1.1250003 0 0 0 -1.125-1.124999 1.1250003 1.1250003 0 0 0 -.00009 0h-.45zm2.35 0v2.45h1.45v-2.45zm1.55 0v2.45h1.51787a1.5000004 1.5000004 0 0 0 -.51904-.344436 1.1250003 1.1250003 0 0 0  .57627-.980565 1.1250003 1.1250003 0 0 0 -1.125-1.124999 1.1250003 1.1250003 0 0 0 -.00009 0h-.45zm-9.73164 2.550003l-.65586 2.449998h1.25l.26504-.999997h.52246v-1.450001zm1.48164 0v1.450001h.52256l.26494.999997h1.25l-.65576-2.449998zm2.8 0v2.449998h1.45v-2.449998zm1.55 0v2.449998h.45a1.5000004 1.5000004 0 0 0  .00008 0 1.5000004 1.5000004 0 0 0  1.5-1.499999 1.5000004 1.5000004 0 0 0 -.3417-.949999h-1.6084zm2.35 0v2.449998h1.45v-2.449998zm1.55 0v2.449998h.45a1.5000004 1.5000004 0 0 0  .00008 0 1.5000004 1.5000004 0 0 0  1.5-1.499999 1.5000004 1.5000004 0 0 0 -.3417-.949999h-1.60839z" fill="#fff"/><text id="text182" line-height="100%" style="font-weight:bold;font-size:5.39302158;font-family:sans-serif;letter-spacing:0;word-spacing:0;fill:#fff" x="131.53899" xml:space="preserve" y="41.339417"><tspan id="tspan184" fill="#fff" font-family="sans-serif" font-size="3.75" font-weight="bold" line-height="100%" x="131.53899" y="41.339417"><tspan id="tspan186" font-family="sans-serif" font-weight="bold">TMax</tspan> XT3</tspan></text></g><g id="g188" stroke="#333" stroke-width=".5"><path id="path190" d="m102.27364 45.95805l.46495.01506c3.88785.125958 7.8372 1.750539 9.1111 7.131261l2.60729 11.012694c1.21253 5.121459-3.0696 6.882934-6.88252 6.882934h-11.012028c-3.812916 0-8.010707-1.879427-6.882521-6.882934l2.483134-11.012694c1.164435-5.164267 6.014964-7.279016 10.110595-7.146321z" fill="#575d5e"/><g id="g192" stroke-linecap="round" stroke-linejoin="round"><circle id="circle194" cx="94.373375" cy="65.308716" fill-rule="evenodd" r="2.75"/><circle id="circle196" cx="109.78521" cy="65.308716" fill-rule="evenodd" r="2.75"/><circle id="circle198" cx="102.07929" cy="55.893429" r="7.1000004"/></g></g><rect id="rect200" fill="#450006" height="11.295487" stroke="#333" stroke-linecap="round" stroke-linejoin="round" stroke-width=".80000001" width="4.5920873" x="143.40001" y="45.304512"/><g id="g202" stroke-linecap="round"><g id="g204" fill="#c4c7ca" stroke-linejoin="round" stroke-width=".5"><path id="path206" d="m128.36328 83.451171c-1.84254 0-3.32617 1.484283-3.32617 3.326172v8.023437.826172c0 .536901.13706 1.036386.36133 1.484375a7.75 7.75 0 0 0 7.38867 5.439453 7.75 7.75 0 0 0  7.36914-5.363281h3.41211v-3h-3.03125v-4.460938h3.1582v-3h-3.16406c-.0277-1.817655-1.49521-3.27539-3.32031-3.27539z" fill-rule="evenodd" stroke="#333"/><circle id="circle208" cx="134.75" cy="95.649994" r="4.3499999" stroke="#666"/><rect id="rect210" height="3" stroke="#666" width="8" x="130.75" y="94.149994"/></g><path id="path212" d="m146.01424 87.999899h4.97476" fill="#ececec" fill-rule="evenodd" stroke="#ececec" stroke-width="2"/><path id="path214" d="m146.01424 95.499899h4.97476" fill="#ececec" fill-rule="evenodd" stroke="#ececec" stroke-width="2"/></g></g><g id="rockerLever"><rect id="RL_Base" fill="#575d5e" height="45" stroke="#333" stroke-width=".80000001" width="134.8" x="32.599998" y="62.5"/><path id="path4p" d="m166.42499 62.78575h-60.49999m60.49999 0h-60.49999m60.49999 1.5h-60.49999m60.49999 1.5h-60.49999m60.49999 1.5h-60.49999m60.49999 1.5h-60.49999m60.49999 1.5h-60.49999m60.49999 1.5h-60.49999m60.49999 1.5h-60.49999m60.49999 1.5h-60.49999m60.49999 1.5h-60.49999m60.49999 1.5h-60.49999m60.49999 1.5h-60.49999m60.49999 1.5h-60.49999m60.49999 1.5h-60.49999m60.49999 1.5h-60.49999m60.49999 1.5h-60.49999m60.49999 1.5h-60.49999m60.49999 1.5h-60.49999m60.49999 1.499999h-60.49999m60.49999 1.5h-60.49999m60.49999 1.5h-60.49999m60.49999 1.5h-60.49999m60.49999 1.5h-60.49999m60.49999 1.5h-60.49999m60.49999 1.5h-60.49999m60.49999 1.500001h-60.49999m60.49999 1.5h-60.49999m60.49999 1.5h-60.49999m60.49999 1.5h-60.49999m60.49999 1.5h-60.49999m60.49999 1.5h-60.49999m60.24999-44.75v44.5m-59.99999-44.5v44.5m1.5-44.5v44.5m1.5-44.5v44.5m1.5-44.5v44.5m1.5-44.5v44.5m1.5-44.5v44.5m1.5-44.5v44.5m1.5-44.5v44.5m1.5-44.5v44.5m1.5-44.5v44.5m1.5-44.5v44.5m1.5-44.5v44.5m1.5-44.5v44.5m1.5-44.5v44.5m1.5-44.5v44.5m1.5-44.5v44.5m1.5-44.5v44.5m1.5-44.5v44.5m1.5-44.5v44.5m1.5-44.5v44.5m1.5-44.5v44.5m1.5-44.5v44.5m1.5-44.5v44.5m1.5-44.5v44.5m1.5-44.5v44.5m1.5-44.5v44.5m1.5-44.5v44.5m1.5-44.5v44.5m1.5-44.5v44.5m1.5-44.5v44.5m1.5-44.5v44.5m1.5-44.5v44.5m1.5-44.5v44.5m1.5-44.5v44.5m1.5-44.5v44.5m1.5-44.5v44.5m1.5-44.5v44.5m1.5-44.5v44.5m1.5-44.5v44.5m1.5-44.5v44.5m-58.5-44.75h59.99999v45h-59.99999zm.25014 0h-72.499995m72.499995 0h-72.499995m72.499995 1.5h-72.499995m72.499995 1.5h-72.499995m72.499995 1.5h-72.499995m72.499995 1.5h-72.499995m72.499995 1.5h-72.499995m72.499995 1.5h-72.499995m72.499995 1.5h-72.499995m72.499995 1.5h-72.499995m72.499995 1.5h-72.499995m72.499995 1.5h-72.499995m72.499995 1.5h-72.499995m72.499995 1.5h-72.499995m72.499995 1.5h-72.499995m72.499995 1.5h-72.499995m72.499995 1.5h-72.499995m72.499995 1.5h-72.499995m72.499995 1.5h-72.499995m72.499995 1.499999h-72.499995m72.499995 1.5h-72.499995m72.499995 1.5h-72.499995m72.499995 1.5h-72.499995m72.499995 1.5h-72.499995m72.499995 1.5h-72.499995m72.499995 1.5h-72.499995m72.499995 1.500001h-72.499995m72.499995 1.5h-72.499995m72.499995 1.5h-72.499995m72.499995 1.5h-72.499995m72.499995 1.5h-72.499995m72.499995 1.5h-72.499995m58.75-44.75v44.5m1.5-44.5v44.5m1.5-44.5v44.5m1.5-44.5v44.5m1.5-44.5v44.5m1.499995-44.5v44.5m1.5-44.5v44.5m1.5-44.5v44.5m1.5-44.5v44.5m1.5-44.5v44.5m-71.999995-44.5v44.5m1.5-44.5v44.5m1.5-44.5v44.5m1.5-44.5v44.5m1.5-44.5v44.5m1.5-44.5v44.5m1.5-44.5v44.5m1.5-44.5v44.5m1.5-44.5v44.5m1.5-44.5v44.5m1.5-44.5v44.5m1.5-44.5v44.5m1.5-44.5v44.5m1.5-44.5v44.5m1.5-44.5v44.5m1.5-44.5v44.5m1.5-44.5v44.5m1.5-44.5v44.5m1.5-44.5v44.5m1.5-44.5v44.5m1.5-44.5v44.5m1.5-44.5v44.5m1.5-44.5v44.5m1.5-44.5v44.5m1.5-44.5v44.5m1.5-44.5v44.5m1.5-44.5v44.5m1.5-44.5v44.5m1.5-44.5v44.5m1.5-44.5v44.5m1.5-44.5v44.5m1.5-44.5v44.5m1.5-44.5v44.5m1.5-44.5v44.5m1.5-44.5v44.5m1.5-44.5v44.5m1.5-44.5v44.5m1.5-44.5v44.5m1.5-44.5v44.5m-57-44.75h71.999995v45h-71.999995z" style="fill:#4d4d4d;fill-rule:evenodd;stroke:#575d5e;stroke-width:.5;shape-rendering:crispEdges;clip-path:url(#d)"/><path id="path3p" clip-path="url(#f)" d="m-95.880386 63v44m1.6-44v44m1.6-44v44m1.6-44v44m1.6-44v44m1.6-44v44m1.6-44v44m1.6-44v44m1.6-44v44m1.6-44v44m1.6-44v44m1.6-44v44m1.6-44v44m1.6-44v44m1.6-44v44m1.6-44v44m1.6-44v44m1.6-44v44m1.6-44v44m1.6-44v44m1.6-44v44m1.6-44v44m1.6-44v44m1.6-44v44m1.6-44v44m1.6-44v44m1.6-44v44m1.6-44v44m1.6-44v44m1.6-44v44m1.6-44v44m1.6-44v44m1.6-44v44m1.6-44v44m1.6-44v44m1.6-44v44m1.600001-44v44m1.6-44v44m1.6-44v44m1.6-44v44m1.6-44v44m1.6-44v44m1.6-44v44m1.6-44v44m1.6-44v44m1.6-44v44m1.6-44v44m1.6-44v44m1.6-44v44m1.6-44v44m1.6-44v44m1.6-44v44m1.6-44v44m1.6-44v44m1.5999999-44v44m1.6000001-44v44m1.6-44v44m1.6-44v44m1.6-44v44m1.6000001-44v44m-94.4000011-44h94.99999965m-94.99999965 1.6h94.99999965m-94.99999965 1.6h94.99999965m-94.99999965 1.6h94.99999965m-94.99999965 1.6h94.99999965m-94.99999965 1.6h94.99999965m-94.99999965 1.6h94.99999965m-94.99999965 1.6h94.99999965m-94.99999965 1.6h94.99999965m-94.99999965 1.6h94.99999965m-94.99999965 1.6h94.99999965m-94.99999965 1.6h94.99999965m-94.99999965 1.6h94.99999965m-94.99999965 1.6h94.99999965m-94.99999965 1.6h94.99999965m-94.99999965 1.6h94.99999965m-94.99999965 1.6h94.99999965m-94.99999965 1.6h94.99999965m-94.99999965 1.6h94.99999965m-94.99999965 1.6h94.99999965m-94.99999965 1.6h94.99999965m-94.99999965 1.6h94.99999965m-94.99999965 1.6h94.99999965m-94.99999965 1.6h94.99999965m-94.99999965 1.6h94.99999965m-94.99999965 1.6h94.99999965m-94.99999965 1.6h94.99999965m-94.99999965 1.6h94.99999965m-94.99999965-43.2h94.99999965v44h-94.99999965z" fill="#4d4d4d" fill-rule="evenodd" stroke="#575d5e" stroke-width=".4pt" transform="translate(165.88039)"/><g id="RL_Drive"><rect id="rect226" fill="#575d5e" height="41" shape-rendering="crispEdges" stroke="#000" stroke-width=".80000001" width="45" x="95" y="64.5"/><g id="g228" shape-rendering="crispEdges"><g id="g230"><rect id="rect232" fill="#bb1e10" height="6.5" width="44.200001" x="95.399994" y="64.900002"/><path id="path234" d="m95.4 71.650004h44.2" fill="none" stroke="#fff" stroke-width=".5"/><path id="path236" d="m98.16965 65.650002l-.655857 2.450006h1.354883v-2.450006zm.799028 0v2.450006h1.354892l-.655763-2.450006zm2.800012 0v2.450006h1.45001v-2.450006zm1.55001 0v2.450006h1.51788a1.5000067 1.5000067 0 0 0 -.51905-.344451 1.125005 1.125005 0 0 0  .57627-.980541 1.125005 1.125005 0 0 0 -1.125-1.125014 1.125005 1.125005 0 0 0 -.0001 0zm2.35001 0v2.450006h1.45v-2.450006zm1.55001 0v2.450006h1.51788a1.5000067 1.5000067 0 0 0 -.51905-.344451 1.125005 1.125005 0 0 0  .57627-.980541 1.125005 1.125005 0 0 0 -1.125-1.125014 1.125005 1.125005 0 0 0 -.0001 0zm-9.731684 2.549993l-.655862 2.450006h1.250006l.265035-1.000001h.522461v-1.450005zm1.481642 0v1.450005h.522564l.264943 1.000001h1.250005l-.65576-2.450006zm2.800012 0v2.450006h1.45001v-2.450006zm1.55001 0v2.450006h.45a1.5000067 1.5000067 0 0 0  .0001 0 1.5000067 1.5000067 0 0 0  1.50001-1.500001 1.5000067 1.5000067 0 0 0 -.3417-.950005zm2.35001 0v2.450006h1.45v-2.450006zm1.55001 0v2.450006h.45a1.5000067 1.5000067 0 0 0  .0001 0 1.5000067 1.5000067 0 0 0  1.5-1.500001 1.5000067 1.5000067 0 0 0 -.34169-.950005z" fill="#fff"/></g><g id="g238" style="font-weight:bold;font-size:5.39302158;font-family:sans-serif;letter-spacing:0;word-spacing:0;fill:#fff"><text id="text240" line-height="100%" x="117.23329" xml:space="preserve" y="69.835762"><tspan id="tspan242" fill="#fff" font-family="sans-serif" font-size="3.75" font-weight="bold" line-height="100%" x="117.23329" y="69.835762">TMax XT3</tspan></text></g></g><g id="g244" shape-rendering="crispEdges"><path id="path246" d="m100.5 97.000004h15.5" fill="#f00" fill-rule="evenodd" stroke="#808000" stroke-width=".99999994"/><path id="path248" d="m134.5 97.000004h4" fill="none" stroke="#fff"/><path id="path250" d="m96.499997 97.000004h4.000003" fill="none" stroke="#fff"/><path id="path252" d="m100.5 86.000024c8.54445 0 8.68453 0 8.68453 0" fill="none" stroke="#ff0"/><path id="path254" d="m125.11511 86.000024h9.38489" fill="none" stroke="#808000"/><path id="path256" d="m134.5 85.998884h4" fill="none" stroke="#fff"/><path id="path258" d="m96.499997 86.000024h4.000003" fill="none" stroke="#fff"/><path id="path260" d="m100.5 80.000024h34" fill="#f00" fill-rule="evenodd" stroke="#f00"/><path id="path262" d="m134.5 79.998884h4" fill="none" stroke="#fff"/><path id="path264" d="m96.499997 80.000024h4.000003" fill="none" stroke="#fff"/><path id="path266" d="m119 96.999994h15.5" fill="#f00" fill-rule="evenodd" stroke="#808000" stroke-width=".99999994"/><circle id="circle268" cx="104.75001" cy="93.108803" fill="none" r="2.5" stroke="#fff" stroke-width=".5"/><text id="text270" line-height="125%" style="font-size:12.5;font-family:sans-serif;letter-spacing:0;word-spacing:0;overflow:visible;fill:#fff" x="127.74152" xml:space="preserve" y="79.103653"><tspan id="tspan272" fill="#fff" font-size="6.25" x="127.74152" y="79.103653">on</tspan></text><text id="text274" line-height="125%" style="font-size:12.5;font-family:sans-serif;letter-spacing:0;word-spacing:0;overflow:visible;fill:#fff" x="127.74152" xml:space="preserve" y="95.962509"><tspan id="tspan276" fill="#fff" font-size="6.25" x="127.74152" y="95.962509">off</tspan></text><text id="text278" line-height="125%" style="font-size:12.5;font-family:sans-serif;letter-spacing:0;word-spacing:0;overflow:visible;fill:#fff" x="103.72125" xml:space="preserve" y="79.198257"><tspan id="tspan280" fill="#fff" font-size="7.5" x="103.72125" y="79.198257">l</tspan></text></g><g id="g282" shape-rendering="crispEdges"><path id="path284" d="m109 71.207944h17v32.835636c-5.66667 1.58783-11.33333 1.68229-17 0z" fill="#d4d5df" stroke="#000" stroke-linejoin="round" stroke-width=".5"/><path id="path286" d="m109.76367 84.520364c5.56262-1.52999 10.42461-1.37538 15.47266 0 .14419.0393.26367.19756.26367.44296v15.374696c0 .24541-.11965.38357-.26367.44298-5.1514 2.12519-9.79896 2.13601-15.47266 0-.14466-.0545-.26367-.19757-.26367-.44298v-15.374696c0-.2454.11951-.40331.26367-.44296z" fill="none" stroke="#808080" stroke-linejoin="round" stroke-width=".5"/><path id="path288" d="m111.22711 99.395414c3.9498.749996 7.86835.781246 11.75565 0" fill="none" stroke="#000" stroke-linecap="round" stroke-width=".80000001"/><path id="path290" d="m111.22711 94.895414c3.9498.75 7.86835.78125 11.75565 0" fill="none" stroke="#000" stroke-linecap="round" stroke-width=".88"/><path id="path292" d="m111.22711 96.395414c3.9498.75 7.86835.78125 11.75565 0" fill="none" stroke="#000" stroke-linecap="round" stroke-width=".80000001"/><path id="path294" d="m111.22711 97.895414c3.9498.75 7.86835.78125 11.75565 0" fill="none" stroke="#000" stroke-linecap="round" stroke-width=".80000001"/></g><g id="g296"/><g id="g298" shape-rendering="crispEdges"><circle id="circle300" cx="133.75" cy="101.46954" r="2.5" style="overflow:visible;fill:#c7cacc;fill-rule:evenodd;stroke:#333;stroke-width:.25;stroke-linecap:round;stroke-linejoin:round"/><text id="text302" line-height="125%" style="font-size:12.5;font-family:sans-serif;letter-spacing:0;word-spacing:0;overflow:visible;fill:#4d4d4d;fill-opacity:.9372549" x="132.15637" xml:space="preserve" y="101.92395"><tspan id="tspan304" fill="#4d4d4d" fill-opacity=".9372549" font-size="1.25" x="132.15637" y="101.92395">TEST</tspan></text></g></g></g><g id="RC_Sel" shape-rendering="crispEdges"><g id="g308"><rect id="rect310" fill="#575d5e" fill-rule="evenodd" height="130" stroke="#333" stroke-width=".80000001" width="30" y="34.5"/><g id="g312"><rect id="rect314" fill="#575d5e" height="38" stroke="#333" stroke-linecap="round" stroke-linejoin="round" stroke-width=".5" width="30" y="126.65"/><path id="path316" d="m2.7960341 142.85487h6.564002" style="overflow:visible;fill:#fff;fill-rule:evenodd;stroke:#fff;stroke-width:.80000001;stroke-linecap:round;stroke-dasharray:.80000001 3.20000003"/><path id="path318" d="m2.7960341 139.88347h9.0668299" style="overflow:visible;fill:#fff;fill-rule:evenodd;stroke:#fff;stroke-width:.80000001;stroke-linecap:round;stroke-dasharray:.80000001 3.20000005"/><path id="path320" d="m3.2550753 134.33686h6.564002" style="overflow:visible;fill:#fff;fill-rule:evenodd;stroke:#fff;stroke-width:.80000001;stroke-linecap:round;stroke-dasharray:.80000001 3.20000003"/><circle id="circle322" cx="21.75" cy="156.25" fill="#b6b9bc" r="5.3499999" stroke="#4d4d4d" stroke-linecap="round" stroke-width="1.20000005"/><path id="path324" d="m21.75 152.75c0 6.72001 0 7 0 7" fill="none" stroke="#8a8d90"/><circle id="circle326" cx="25.6" cy="132.89999" fill="#0e0e11" r="2.5999999"/><path id="path328" d="m2.2535606 136.84398h25.5095344" fill="none" stroke="#e8e9f3" stroke-linecap="round" stroke-width=".49999991"/></g></g><g id="g330"><rect id="rect332" fill="#575d5e" fill-rule="evenodd" height="45" stroke="#333" stroke-width=".80000001" width="30" y="62.499996"/><circle id="circle334" cx="15" cy="100.5" fill="#f9f9f9" r="2"/><path id="path336" d="m17.264004 65.937292l3.792141 5.595695-5.477816-4.666769 5.567905 4.743519-6.282911-3.090361 6.295532 3.096569-6.22467-1.420947 6.074905 1.386759h-5.215853" fill="none" stroke="#fff" stroke-width=".25"/><g id="g338"><path id="path340" d="m19.099995 65.650009a3.7666667 3.75 0 0 1 3.766666 3.75 3.7666667 3.75 0 0 1 -3.766666 3.75v-3.75z" fill="none" stroke="#fff" stroke-linecap="round" stroke-width=".5"/><circle id="circle342" cx="19.099995" cy="69.400009" fill="#f9f9f9" r="3.0999994"/></g><g id="g344" transform="translate(0 13.5)"/><circle id="circle346" cx="7.4293823" cy="88" fill="#006f3d" r="3.9293823" stroke="#333" stroke-linecap="round" stroke-width=".5"/><circle id="circle348" cx="4.125" cy="66.474998" fill="#f6b600" r="1.375" stroke="#333" stroke-linecap="round" stroke-width=".25"/><g id="g350" fill="#fff"><path id="path352" d="m23.202158 94.243016v.850818a2.0076607 1.9710056 0 1 0 0 3.901579v.85082a2.8680867 2.8157223 0 1 1 0-5.603217z"/><path id="path354" d="m25.830072 96.622266a2.0076607 1.9710056 0 0 1 2.247833-1.528432v-.850818a2.8680867 2.8157223 0 1 0 0 5.603217v-.85082a2.0076607 1.9710056 0 0 1 -2.247833-1.528431h1.674216v-.844716z"/></g><text id="text356" line-height="100%" style="font-weight:bold;font-size:5.39302158;font-family:sans-serif;letter-spacing:0;word-spacing:0;overflow:visible;fill:#fff" x="1.2028561" xml:space="preserve" y="106.36635"><tspan id="tspan358" fill="#fff" font-family="sans-serif" font-size="3.75" font-weight="bold" line-height="100%" x="1.2028561" y="106.36635">RC Inst </tspan></text></g></g></g></svg>