<svg id="svg2" height="236" overflow="visible" shape-rendering="crispEdges" viewBox="0 0 140 236" width="140" xmlns="http://www.w3.org/2000/svg" xmlns:xlink="http://www.w3.org/1999/xlink"><clipPath id="a"><path id="path5" d="m12.499999-9.599609v59.999999h95.000001v-59.999999zm9.199219 6.599609h9v9h-9zm66.300781 6h13.000001v30h-13.000001z" shape-rendering="crispEdges"/></clipPath><clipPath id="b"><path id="path8" d="m5 56.400391v59.999999h130v-59.999999zm6 4.099609h9v9h-9zm105 8.849609h13v30h-13z" shape-rendering="crispEdges"/></clipPath><clipPath id="c"><path id="path11" clip-path="url(#b)" d="m21.000002 107.65h-16.500002m16.500002 1.5h-16.500002m16.500002 1.5h-16.500002m16.500002 1.5h-16.500002m16.500002 1.5h-16.500002m16.500002 1.5h-16.500002m16.500002 1.5h-16.500002m16.500002-1.5h-16.500002m16.500002 1.5h-16.500002m2.750002-8.75v8.5m1.5-8.5v8.5m1.5-8.5v8.5m1.5-8.5v8.5m1.5-8.5v8.5m1.5-8.5v8.5m1.5-8.5v8.5m1.5-8.5v8.5m1.5-8.5v8.5m1.5-8.5v8.5m-16.000002-8.5v8.5m1.000002-8.5v8.5m-1.000002-8.75h16.000002v9h-16.000002zm.25 1.5h-.5m.5 1.5h-.5m.5 1.5h-.5m.5 1.5h-.5m.5 1.5h-.5m.5 1.5h-.5m.5 1.5h-.5m.5 1.5h-.5m.5 1.5h-.5m.5-6h-.5m.5 1.5h-.5m.25-8.75v8.5m0-8.75l0 0v9c-45.389655 5.06621 0 31.38952 0-9zm16.250002-50.999613h-16.500002m16.500002 1.5h-16.500002m16.500002 1.5h-16.500002m16.500002 1.5h-16.500002m16.500002 1.5h-16.500002m16.500002 1.5h-16.500002m16.500002 1.5h-16.500002m16.500002 1.5h-16.500002m16.500002 1.5h-16.500002m16.500002 1.5h-16.500002m16.500002 1.5h-16.500002m16.500002 1.5h-16.500002m16.500002 1.5h-16.500002m16.500002 1.5h-16.500002m16.500002 1.5h-16.500002m16.500002 1.5h-16.500002m16.500002 1.5h-16.500002m16.500002 1.5h-16.500002m16.500002 1.5h-16.500002m16.500002 1.5h-16.500002m16.500002 1.5h-16.500002m16.500002 1.500002h-16.500002m16.500002 1.5h-16.500002m16.500002 1.5h-16.500002m16.500002 1.5h-16.500002m16.500002 1.5h-16.500002m16.500002 1.5h-16.500002m16.500002 1.5h-16.500002m16.500002 1.5h-16.500002m16.500002 1.500001h-16.500002m16.500002 1.5h-16.500002m16.500002 1.5h-16.500002m16.500002 1.5h-16.500002m16.500002 1.5h-16.500002m16.500002 1.5h-16.500002m2.750002-50.750003v50.500003m1.5-50.500003v50.500003m1.5-50.500003v50.500003m1.5-50.500003v50.500003m1.5-50.500003v50.500003m1.5-50.500003v50.500003m1.5-50.500003v50.500003m1.5-50.500003v50.500003m1.5-50.500003v50.500003m1.5-50.500003v50.500003m-16.000002-50.500003v50.500003m1.000002-50.500003v50.500003m-1.000002-50.750003h16.000002v51.000003h-16.000002zm.25 1.5h-.5m.5 1.5h-.5m.5 1.5h-.5m.5 1.5h-.5m.5 1.5h-.5m.5 1.5h-.5m.5 1.5h-.5m.5 1.5h-.5m.5 1.5h-.5m.5 1.5h-.5m.5 1.5h-.5m.5 1.5h-.5m.5 1.5h-.5m.5 1.5h-.5m.5 1.5h-.5m.5 1.5h-.5m.5 1.5h-.5m.5 1.5h-.5m.5 1.5h-.5m.5 1.5h-.5m.5 1.500002h-.5m.5 1.5h-.5m.5 1.5h-.5m.5 1.5h-.5m.5 1.5h-.5m.5 1.5h-.5m.5 1.5h-.5m.5 1.5h-.5m.5 1.500001h-.5m.5 1.5h-.5m.5 1.5h-.5m.5 1.5h-.5m.5 1.5h-.5m.5 1.5h-.5m-1.25-50.750003v50.500003m1.5-50.500003v50.500003m0-50.750003l0 0v51.000003l0 0zm130.25 50.999613h-78.499996m78.499996 1.5h-78.499996m78.499996 1.5h-78.499996m78.499996 1.5h-78.499996m78.499996 1.5h-78.499996m78.499996 1.5h-78.499996m78.499996 1.5h-78.499996m78.499996-1.5h-78.499996m78.499996 1.5h-78.499996m64.749996-8.75v8.5m1.5-8.5v8.5m1.5-8.5v8.5m1.5-8.5v8.5m1.5-8.5v8.5m1.5-8.5v8.5m1.5-8.5v8.5m1.5-8.5v8.5m1.5-8.5v8.5m1.5-8.5v8.5m-77.999996-8.5v8.5m1.5-8.5v8.5m1.5-8.5v8.5m1.5-8.5v8.5m1.5-8.5v8.5m1.5-8.5v8.5m1.5-8.5v8.5m1.5-8.5v8.5m1.5-8.5v8.5m1.5-8.5v8.5m1.5-8.5v8.5m1.5-8.5v8.5m1.5-8.5v8.5m1.5-8.5v8.5m1.5-8.5v8.5m1.5-8.5v8.5m1.5-8.5v8.5m1.5-8.5v8.5m1.5-8.5v8.5m1.5-8.5v8.5m1.5-8.5v8.5m1.5-8.5v8.5m1.5-8.5v8.5m1.5-8.5v8.5m1.5-8.5v8.5m1.5-8.5v8.5m1.5-8.5v8.5m1.5-8.5v8.5m1.5-8.5v8.5m1.499996-8.5v8.5m1.5-8.5v8.5m1.5-8.5v8.5m1.5-8.5v8.5m1.5-8.5v8.5m1.5-8.5v8.5m1.5-8.5v8.5m1.5-8.5v8.5m1.5-8.5v8.5m1.5-8.5v8.5m1.5-8.5v8.5m1.5-8.5v8.5m1.5-8.5v8.5m1.5-8.5v8.5m-62.999996-8.75h77.999996v9h-77.999996zm.25 1.5h-36.5m36.5 1.5h-36.5m36.5 1.5h-36.5m36.5 1.5h-36.5m36.5 1.5h-36.5m36.5 1.5h-36.5m36.5-1.5h-36.5m36.5 1.5h-36.5m22.75-8.75v8.5m1.5-8.5v8.5m1.5-8.5v8.5m1.5-8.5v8.5m1.5-8.5v8.5m1.5-8.5v8.5m1.5-8.5v8.5m1.5-8.5v8.5m1.5-8.5v8.5m1.5-8.5v8.5m-34.5-8.5v8.5m1.5-8.5v8.5m1.5-8.5v8.5m1.5-8.5v8.5m1.5-8.5v8.5m1.5-8.5v8.5m1.5-8.5v8.5m1.5-8.5v8.5m1.5-8.5v8.5m1.5-8.5v8.5m1.5-8.5v8.5m1.5-8.5v8.5m1.5-8.5v8.5m1.5-8.5v8.5m-21-8.75h36v9h-36zm114.249996-50.999613h-78.499996m78.499996 1.5h-78.499996m78.499996 1.5h-78.499996m78.499996 1.5h-78.499996m78.499996 1.5h-78.499996m78.499996 1.5h-78.499996m78.499996 1.5h-78.499996m78.499996 1.5h-78.499996m78.499996 1.5h-78.499996m78.499996 1.5h-78.499996m78.499996 1.5h-78.499996m78.499996 1.5h-78.499996m78.499996 1.5h-78.499996m78.499996 1.5h-78.499996m78.499996 1.5h-78.499996m78.499996 1.5h-78.499996m78.499996 1.5h-78.499996m78.499996 1.5h-78.499996m78.499996 1.5h-78.499996m78.499996 1.5h-78.499996m78.499996 1.5h-78.499996m78.499996 1.500002h-78.499996m78.499996 1.5h-78.499996m78.499996 1.5h-78.499996m78.499996 1.5h-78.499996m78.499996 1.5h-78.499996m78.499996 1.5h-78.499996m78.499996 1.5h-78.499996m78.499996 1.5h-78.499996m78.499996 1.500001h-78.499996m78.499996 1.5h-78.499996m78.499996 1.5h-78.499996m78.499996 1.5h-78.499996m78.499996 1.5h-78.499996m78.499996 1.5h-78.499996m64.749996-50.750003v50.500003m1.5-50.500003v50.500003m1.5-50.500003v50.500003m1.5-50.500003v50.500003m1.5-50.500003v50.500003m1.5-50.500003v50.500003m1.5-50.500003v50.500003m1.5-50.500003v50.500003m1.5-50.500003v50.500003m1.5-50.500003v50.500003m-77.999996-50.500003v50.500003m1.5-50.500003v50.500003m1.5-50.500003v50.500003m1.5-50.500003v50.500003m1.5-50.500003v50.500003m1.5-50.500003v50.500003m1.5-50.500003v50.500003m1.5-50.500003v50.500003m1.5-50.500003v50.500003m1.5-50.500003v50.500003m1.5-50.500003v50.500003m1.5-50.500003v50.500003m1.5-50.500003v50.500003m1.5-50.500003v50.500003m1.5-50.500003v50.500003m1.5-50.500003v50.500003m1.5-50.500003v50.500003m1.5-50.500003v50.500003m1.5-50.500003v50.500003m1.5-50.500003v50.500003m1.5-50.500003v50.500003m1.5-50.500003v50.500003m1.5-50.500003v50.500003m1.5-50.500003v50.500003m1.5-50.500003v50.500003m1.5-50.500003v50.500003m1.5-50.500003v50.500003m1.5-50.500003v50.500003m1.5-50.500003v50.500003m1.499996-50.500003v50.500003m1.5-50.500003v50.500003m1.5-50.500003v50.500003m1.5-50.500003v50.500003m1.5-50.500003v50.500003m1.5-50.500003v50.500003m1.5-50.500003v50.500003m1.5-50.500003v50.500003m1.5-50.500003v50.500003m1.5-50.500003v50.500003m1.5-50.500003v50.500003m1.5-50.500003v50.500003m1.5-50.500003v50.500003m1.5-50.500003v50.500003m-62.999996-50.750003h77.999996v51.000003h-77.999996zm.25 1.5h-36.5m36.5 1.5h-36.5m36.5 1.5h-36.5m36.5 1.5h-36.5m36.5 1.5h-36.5m36.5 1.5h-36.5m36.5 1.5h-36.5m36.5 1.5h-36.5m36.5 1.5h-36.5m36.5 1.5h-36.5m36.5 1.5h-36.5m36.5 1.5h-36.5m36.5 1.5h-36.5m36.5 1.5h-36.5m36.5 1.5h-36.5m36.5 1.5h-36.5m36.5 1.5h-36.5m36.5 1.5h-36.5m36.5 1.5h-36.5m36.5 1.5h-36.5m36.5 1.500002h-36.5m36.5 1.5h-36.5m36.5 1.5h-36.5m36.5 1.5h-36.5m36.5 1.5h-36.5m36.5 1.5h-36.5m36.5 1.5h-36.5m36.5 1.5h-36.5m36.5 1.500001h-36.5m36.5 1.5h-36.5m36.5 1.5h-36.5m36.5 1.5h-36.5m36.5 1.5h-36.5m36.5 1.5h-36.5m22.75-50.750003v50.500003m1.5-50.500003v50.500003m1.5-50.500003v50.500003m1.5-50.500003v50.500003m1.5-50.500003v50.500003m1.5-50.500003v50.500003m1.5-50.500003v50.500003m1.5-50.500003v50.500003m1.5-50.500003v50.500003m1.5-50.500003v50.500003m-34.5-50.500003v50.500003m1.5-50.500003v50.500003m1.5-50.500003v50.500003m1.5-50.500003v50.500003m1.5-50.500003v50.500003m1.5-50.500003v50.500003m1.5-50.500003v50.500003m1.5-50.500003v50.500003m1.5-50.500003v50.500003m1.5-50.500003v50.500003m1.5-50.500003v50.500003m1.5-50.500003v50.500003m1.5-50.500003v50.500003m1.5-50.500003v50.500003m-21-50.750003h36v51.000003h-36z" shape-rendering="crispEdges" transform="translate(-159.54863)"/></clipPath><g id="layer1"><rect id="breakerRear" height="236" style="fill:#575d5e;fill-rule:evenodd;stroke:#333;stroke-width:.80000001;stroke-linecap:round;stroke-linejoin:round" width="140"/><g id="operationGroup" fill="#575d5e" stroke="#333"><rect id="rect19" fill-rule="evenodd" height="120" stroke-linecap="round" stroke-linejoin="round" stroke-width=".80000001" width="26" x="114" y="24"/><circle id="circle21" cx="124" cy="100" r="5" shape-rendering="crispEdges" stroke-linecap="square" stroke-width=".5"/></g><g id="rotaryDriveAxle" shape-rendering="crispEdges"><rect id="rect25" fill="#575d5e" height="76" stroke="#333" stroke-width=".80000001" width="76" x="49.5" y="31.65"/><g id="g27"><circle id="circle29" cx="87.5" cy="63.150002" fill="#c0c0c0" r="15" stroke="#000" stroke-width=".5"/><circle id="circle31" cx="87.5" cy="63.150002" r="8" stroke="#000"/><rect id="rect33" fill="#e6e6e6" height="6" width="6" x="84.5" y="60.150002"/></g></g><g id="rotaryHandle"><rect id="rect37" fill="#575d5e" height="76" shape-rendering="crispEdges" stroke="#333" stroke-width=".80000001" width="76" x="49.5" y="31.65"/><path id="path39" d="m50.149998 36.999997v70.000003m1.45-70.000003v70.000003m1.75-70.000003v70.000003m1.45-70.000003v70.000003m1.6-70.000003v70.000003m1.6-70.000003v70.000003m1.6-70.000003v70.000003m1.6-70.000003v70.000003m1.6-70.000003v70.000003m1.6-70.000003v70.000003m1.6-70.000003v70.000003m1.6-70.000003v70.000003m1.6-70.000003v70.000003m1.6-70.000003v70.000003m1.6-70.000003v70.000003m1.6-70.000003v70.000003m1.6-70.000003v70.000003m1.6-70.000003v70.000003m1.6-70.000003v70.000003m1.6-70.000003v70.000003m1.6-70.000003v70.000003m1.6-70.000003v70.000003m1.6-70.000003v70.000003m1.6-70.000003v70.000003m1.6-70.000003v70.000003m1.6-70.000003v70.000003m1.6-70.000003v70.000003m1.6-70.000003v70.000003m1.6-70.000003v70.000003m1.6-70.000003v70.000003m1.6-70.000003v70.000003m1.6-70.000003v70.000003m1.600002-70.000003v70.000003m1.6-70.000003v70.000003m1.6-70.000003v70.000003m1.6-70.000003v70.000003m1.6-70.000003v70.000003m1.6-70.000003v70.000003m1.6-70.000003v70.000003m1.6-70.000003v70.000003m1.6-70.000003v70.000003m1.6-70.000003v70.000003m1.6-70.000003v70.000003m1.6-70.000003v70.000003m1.6-70.000003v70.000003m1.6-70.000003v70.000003m1.6-70.000003v70.000003m-73.450002-70.000003h74.700002m-74.700002 1.6h74.700002m-74.700002 1.6h74.700002m-74.700002 1.6h74.700002m-74.700002 1.6h74.700002m-74.700002 1.6h74.700002m-74.700002 1.6h74.700002m-74.700002 1.6h74.700002m-74.700002 1.6h74.700002m-74.700002 1.6h74.700002m-74.700002 1.6h74.700002m-74.700002 1.6h74.700002m-74.700002 1.6h74.700002m-74.700002 1.6h74.700002m-74.700002 1.6h74.700002m-74.700002 1.6h74.700002m-74.700002 1.6h74.700002m-74.700002 1.6h74.700002m-74.700002 1.6h74.700002m-74.700002 1.6h74.700002m-74.700002 1.6h74.700002m-74.700002 1.6h74.700002m-74.700002 1.6h74.700002m-74.700002 1.6h74.700002m-74.700002 1.6h74.700002m-74.700002 1.6h74.700002m-74.700002 1.6h74.700002m-74.700002 1.6h74.700002m-74.700002 1.6h74.700002m-74.700002 1.6h74.700002m-74.700002 1.6h74.700002m-74.700002 1.6h74.700002m-74.700002 1.6h74.700002m-74.700002 1.6h74.700002m-74.700002 1.6h74.700002m-74.700002 1.6h74.700002m-74.700002 1.6h74.700002m-74.700002 1.6h74.700002m-74.700002 1.6h74.700002m-74.700002 1.6h74.700002m-74.700002 1.600003h74.700002m-74.700002 1.6h74.700002m-74.700002 1.6h74.700002m-74.700002 1.6h74.700002m-74.700002-68.800003h74.700002v70.000003h-74.700002z" style="overflow:visible;fill:#4d4d4d;fill-rule:evenodd;stroke:#5e6163;stroke-width:.4pt;shape-rendering:crispEdges"/><g id="g41"/><g id="g43" shape-rendering="crispEdges"><rect id="rect45" fill="#bb1e10" height="7.5" width="75.199997" x="49.900002" y="32.049999"/><path id="path47" d="m49.900001 40.050001h75.199999" fill="none" stroke="#fff"/><text id="text49" line-height="100%" style="font-weight:bold;font-size:5.39302158;font-family:sans-serif;letter-spacing:0;word-spacing:0;fill:#fff" x="102.03898" xml:space="preserve" y="37.015835"><tspan id="tspan51" fill="#fff" font-family="sans-serif" font-size="3.75" font-weight="bold" line-height="100%" x="102.03898" y="37.015835">TMax XT4</tspan></text><path id="path53" d="m52.85715 33.3l-.655857 2.450006h1.354884v-2.450006zm.799029 0v2.450006h1.354888l-.655759-2.450006zm2.800014 0v2.450006h1.450005v-2.450006zm1.550007 0v2.450006h1.517879a1.5000067 1.5000067 0 0 0 -.519045-.344451 1.125005 1.125005 0 0 0  .576272-.980541 1.125005 1.125005 0 0 0 -1.125004-1.125014 1.125005 1.125005 0 0 0 -.000102 0zm2.35001 0v2.450006h1.450005v-2.450006zm1.550007 0v2.450006h1.517879a1.5000067 1.5000067 0 0 0 -.519045-.344451 1.125005 1.125005 0 0 0  .576272-.980541 1.125005 1.125005 0 0 0 -1.125004-1.125014 1.125005 1.125005 0 0 0 -.000102 0zm-9.731681 2.549993l-.655862 2.450006h1.250006l.265036-1.000001h.522461v-1.450005zm1.481643 0v1.450005h.522563l.264943 1.000001h1.250007l-.655765-2.450006zm2.800014 0v2.450006h1.450005v-2.450006zm1.550007 0v2.450006h.450005a1.5000067 1.5000067 0 0 0  .000097 0 1.5000067 1.5000067 0 0 0  1.500007-1.500001 1.5000067 1.5000067 0 0 0 -.341702-.950005h-1.608402zm2.35001 0v2.450006h1.450005v-2.450006zm1.550007 0v2.450006h.45a1.5000067 1.5000067 0 0 0  .000102 0 1.5000067 1.5000067 0 0 0  1.500007-1.500001 1.5000067 1.5000067 0 0 0 -.341697-.950005z" fill="#fff"/></g><g id="g55" shape-rendering="crispEdges"><circle id="circle57" cx="87.5" cy="63.150002" fill="#5e6163" r="30.1"/><path id="path59" d="m57.806713 67.428866a30 30 0 0 1  .348859-10.516218l29.344428 6.237351z" fill="#808000"/><path id="path61" d="m76.74896 35.142587a30 30 0 0 1 21.45318-.01872l-10.70214 28.026132z" fill="#f00"/><path id="path63" d="m60.201162 50.709203a30 30 0 0 1 16.547798-15.566616l10.75104 28.007412z" fill="#ff0"/><circle id="circle65" cx="87.5" cy="63.150002" fill="#5e6163" r="25" stroke="#333"/><rect id="rect67" fill="#5e6163" height="13.8" rx="2" ry="5" stroke="#333" stroke-linecap="round" stroke-linejoin="round" stroke-width=".80000001" transform="rotate(90)" width="50.200001" x="38.050003" y="-94.400002"/><rect id="rect69" height="9" rx="1.0888889" ry="4.5" style="fill:#fff;fill-rule:evenodd;stroke:#999;stroke-width:.5;stroke-linecap:round;stroke-linejoin:round" transform="rotate(90)" width="49" x="40.650002" y="-92"/><text id="text71" fill="#fff" font-family="sans-serif" font-size="12.5" letter-spacing="0" line-height="125%" word-spacing="0" x="87.072266" xml:space="preserve" y="37.280552"><tspan id="tspan73" fill="#fff" font-family="FreesiaUPC" font-size="7.5" x="87.072266" y="37.280552">I</tspan></text><text id="text75" fill="#fff" font-family="sans-serif" font-size="12.5" letter-spacing="0" line-height="125%" word-spacing="0" x="58.398239" xml:space="preserve" y="63.884209"><tspan id="tspan77" fill="#fff" font-family="FreesiaUPC" font-size="7.5" x="58.398239" y="63.884209">O</tspan></text><path id="path79" d="m87.5 41.929688l-3 5.195312h6zm-3.25 8.820312c-.554 0-1 .446-1 1v5c0 .554.446 1 1 1h6.5c.554 0 1-.446 1-1v-5c0-.554-.446-1-1-1zm0 8.449219c-.554 0-1 .446-1 1v5c0 .554.446 1 1 1h6.5c.554 0 1-.446 1-1v-5c0-.554-.446-1-1-1zm0 8.451172c-.554 0-1 .446-1 1v5c0 .554.446 1 1 1h6.5c.554 0 1-.446 1-1v-5c0-.554-.446-1-1-1z" fill="#e6e6e6"/><path id="path81" d="m83.757052 86.54995h7.485895m-7.485895-2h7.485895m-7.485895-2h7.485895m-7.485895-2h7.485895m-7.485895-2h7.485895m-7.485895-2h7.485895" fill="none" stroke="#e6e6e6" stroke-linecap="round" stroke-width=".99999976"/></g><g id="g83" shape-rendering="crispEdges"><circle id="circle85" cx="119" cy="102.21568" r="2.5" style="overflow:visible;fill:#c7cacc;fill-rule:evenodd;stroke:#333;stroke-width:.25;stroke-linecap:round;stroke-linejoin:round"/><text id="text87" line-height="125%" style="font-size:12.5;font-family:sans-serif;letter-spacing:0;word-spacing:0;overflow:visible;fill:#4d4d4d;fill-opacity:.9372549" x="117.40637" xml:space="preserve" y="102.67009"><tspan id="tspan89" fill="#4d4d4d" fill-opacity=".9372549" font-size="1.25" x="117.40637" y="102.67009">TEST</tspan></text></g></g><g id="motorDrive"><rect id="rect93" fill="none" height="77.300003" shape-rendering="crispEdges" stroke="#333" stroke-linejoin="round" stroke-width=".80000001" width="90" x="42.5" y="31.999996"/><path id="path95" d="m44.325 38.650388v70.000002m1.6-70.000002v70.000002m1.6-70.000002v70.000002m1.6-70.000002v70.000002m1.6-70.000002v70.000002m1.6-70.000002v70.000002m1.6-70.000002v70.000002m1.6-70.000002v70.000002m1.6-70.000002v70.000002m1.6-70.000002v70.000002m1.6-70.000002v70.000002m1.6-70.000002v70.000002m1.6-70.000002v70.000002m1.6-70.000002v70.000002m1.6-70.000002v70.000002m1.6-70.000002v70.000002m1.6-70.000002v70.000002m1.6-70.000002v70.000002m1.6-70.000002v70.000002m1.6-70.000002v70.000002m1.6-70.000002v70.000002m1.6-70.000002v70.000002m1.6-70.000002v70.000002m1.6-70.000002v70.000002m1.6-70.000002v70.000002m1.6-70.000002v70.000002m1.6-70.000002v70.000002m1.6-70.000002v70.000002m1.6-70.000002v70.000002m1.6-70.000002v70.000002m1.6-70.000002v70.000002m1.6-70.000002v70.000002m1.6-70.000002v70.000002m1.6-70.000002v70.000002m1.6-70.000002v70.000002m1.6-70.000002v70.000002m1.6-70.000002v70.000002m1.6-70.000002v70.000002m1.6-70.000002v70.000002m1.6-70.000002v70.000002m1.6-70.000002v70.000002m1.6-70.000002v70.000002m1.6-70.000002v70.000002m1.6-70.000002v70.000002m1.6-70.000002v70.000002m1.6-70.000002v70.000002m1.6-70.000002v70.000002m1.6-70.000002v70.000002m1.6-70.000002v70.000002m1.6-70.000002v70.000002m1.6-70.000002v70.000002m1.6-70.000002v70.000002m1.6-70.000002v70.000002m1.6-70.000002v70.000002m1.6-70.000002v70.000002m-86.400001-69.600002h87.000001m-87.000001 1.6h87.000001m-87.000001 1.6h87.000001m-87.000001 1.6h87.000001m-87.000001 1.6h87.000001m-87.000001 1.6h87.000001m-87.000001 1.6h87.000001m-87.000001 1.6h87.000001m-87.000001 1.6h87.000001m-87.000001 1.6h87.000001m-87.000001 1.6h87.000001m-87.000001 1.6h87.000001m-87.000001 1.6h87.000001m-87.000001 1.6h87.000001m-87.000001 1.6h87.000001m-87.000001 1.6h87.000001m-87.000001 1.6h87.000001m-87.000001 1.6h87.000001m-87.000001 1.6h87.000001m-87.000001 1.6h87.000001m-87.000001 1.600001h87.000001m-87.000001 1.6h87.000001m-87.000001 1.6h87.000001m-87.000001 1.6h87.000001m-87.000001 1.6h87.000001m-87.000001 1.6h87.000001m-87.000001 1.6h87.000001m-87.000001 1.6h87.000001m-87.000001 1.6h87.000001m-87.000001 1.6h87.000001m-87.000001 1.6h87.000001m-87.000001 1.6h87.000001m-87.000001 1.6h87.000001m-87.000001 1.6h87.000001m-87.000001 1.6h87.000001m-87.000001 1.6h87.000001m-87.000001 1.6h87.000001m-87.000001 1.6h87.000001m-87.000001 1.6h87.000001m-87.000001 1.600001h87.000001m-87.000001 1.6h87.000001m-87.000001 1.6h87.000001m-87.000001 1.6h87.000001m-87.000001 1.6h87.000001m-87.400001-69.200002h87.000001v70.000002h-87.000001z" fill="#4d4d4d" fill-rule="evenodd" stroke="#575d5e" stroke-width=".4pt"/><g id="g97" shape-rendering="crispEdges"><rect id="rect99" fill="#1a1a1a" height="13.999999" stroke="#1a1a1a" stroke-linejoin="round" width="19" x="44.75" y="41.626049"/><g id="g101"><path id="path103" d="m45 41.87605h5l5 8.523307v23.648306 32.171617h-10z" fill="#5b5e60" stroke="#1a1a1a" stroke-linejoin="round" stroke-width="1.5"/><path id="path105" d="m45.75 82.1013c0-.708334.120583 1.853612 1.006 3.030697.885416 1.177083 2.435666.969303 3.144.969303.708334 0 2.270709.20778 3.156125-.969303.885417-1.177084 1.200322-3.739002 1.193875-3.030697v17.568361c-1.216263-.40758-.416539 2.061039-2.003614 2.704309-1.587076.64328-6.496386.0323-6.496386.0323z" fill="#333"/><path id="path107" d="m45.75 102.963h8.5" fill="#333" fill-rule="evenodd" stroke="#333" stroke-width=".49999997"/></g></g><g id="g109" shape-rendering="crispEdges"><rect id="rect111" fill="#007b00" height="16" stroke="#333" stroke-linejoin="round" stroke-width=".5" width="16" x="107.2" y="90"/><text id="text113" line-height="100%" style="font-weight:bold;font-size:7.5;font-family:Arial;letter-spacing:0;word-spacing:0;fill:#fff" x="113.44531" xml:space="preserve" y="100.68433"><tspan id="tspan115" x="113.44531" y="100.68433">I</tspan></text></g><g id="g117" shape-rendering="crispEdges"><rect id="rect119" fill="#bb1e10" height="7.1999998" width="89.199997" x="42.900002" y="32.399998"/><path id="path121" d="m42.899998 40.065674h89.200002" fill="none" stroke="#fff" stroke-width=".99999976"/><text id="text123" line-height="100%" style="font-weight:bold;font-size:5.39302158;font-family:sans-serif;letter-spacing:0;word-spacing:0;fill:#fff" x="110.33908" xml:space="preserve" y="37.365829"><tspan id="tspan125" fill="#fff" font-family="sans-serif" font-size="3.75" font-weight="bold" line-height="100%" x="110.33908" y="37.365829">TMax XT4</tspan></text><path id="path127" d="m46.686815 33.499998l-.655857 2.450006h1.354883v-2.450006zm.799028 0v2.450006h1.354889l-.65576-2.450006zm2.800014 0v2.450006h1.450006v-2.450006zm1.550008 0v2.450006h1.517879a1.5000067 1.5000067 0 0 0 -.519046-.344451 1.125005 1.125005 0 0 0  .576272-.980541 1.125005 1.125005 0 0 0 -1.125003-1.125014 1.125005 1.125005 0 0 0 -.000103 0zm2.350009 0v2.450006h1.450006v-2.450006zm1.550008 0v2.450006h1.517879a1.5000067 1.5000067 0 0 0 -.519046-.344451 1.125005 1.125005 0 0 0  .576272-.980541 1.125005 1.125005 0 0 0 -1.125003-1.125014 1.125005 1.125005 0 0 0 -.000103 0zm-9.731681 2.549993l-.655862 2.450006h1.250006l.265035-1.000001h.522461v-1.450005zm1.481642 0v1.450005h.522564l.264943 1.000001h1.250006l-.655764-2.450006zm2.800014 0v2.450006h1.450006v-2.450006zm1.550008 0v2.450006h.450004a1.5000067 1.5000067 0 0 0  .000098 0 1.5000067 1.5000067 0 0 0  1.500006-1.500001 1.5000067 1.5000067 0 0 0 -.341701-.950005h-1.608402zm2.350009 0v2.450006h1.450006v-2.450006zm1.550008 0v2.450006h.449999a1.5000067 1.5000067 0 0 0  .000103 0 1.5000067 1.5000067 0 0 0  1.500006-1.500001 1.5000067 1.5000067 0 0 0 -.341696-.950005z" fill="#fff"/></g><g id="g129" shape-rendering="crispEdges"><rect id="rect131" fill="#575d5e" height="53.397243" stroke="#333" stroke-width=".80000001" width="18.200001" x="70.400002" y="55.902756"/><g id="g133"><rect id="rect135" fill="#f00" height="16" stroke="#333" stroke-linejoin="round" stroke-width=".5" width="16" x="71.5" y="90"/><text id="text137" line-height="100%" style="font-weight:bold;font-size:7.5;font-family:sans-serif;letter-spacing:0;word-spacing:0;fill:#fff" x="76.312134" xml:space="preserve" y="100.72644"><tspan id="tspan139" x="76.312134" y="100.72644">O</tspan><tspan id="tspan141" x="76.312134" y="108.22644"/></text></g><rect id="rect143" fill="#450" height="5" stroke="#333" stroke-linejoin="round" stroke-width=".5" width="16" x="71.5" y="76.400002"/><g id="g145"><rect id="rect147" fill="#fff" height="5" stroke="#333" stroke-linejoin="round" stroke-width=".5" width="16" x="71.5" y="57.067997"/><path id="path149" d="m73.886654 59.336222h10.966632" fill="none" stroke="#000" stroke-dasharray="1.60000002 1.60000002" stroke-linecap="round" stroke-width=".80000001"/></g></g><circle id="circle151" cx="94.25" cy="104.31568" fill="#e9e8ec" fill-rule="evenodd" r="2.75" shape-rendering="crispEdges"/><circle id="circle153" cx="94.25" cy="90.315681" fill="#e9e8ec" fill-rule="evenodd" r="2.75" shape-rendering="crispEdges"/><circle id="circle155" cx="102.50002" cy="76.065666" fill="#000003" fill-rule="evenodd" r="3" shape-rendering="crispEdges"/><rect id="rect157" fill="#c7c9cc" height="29" shape-rendering="crispEdges" stroke="#333" stroke-linecap="round" stroke-linejoin="round" width="5.5" x="124.8" y="60.165997"/><g id="g159" shape-rendering="crispEdges"><rect id="rect161" fill="#333" height="14.500001" stroke="#000" stroke-linejoin="round" stroke-width=".5" width="7" x="114" y="64.065674"/><rect id="rect163" fill="#505356" height="3.2" stroke="#000" stroke-linecap="round" stroke-linejoin="round" stroke-width=".5" width="5.5999999" x="114.7" y="69.715675"/><path id="path165" d="m107.32945 65.433785c4.4518 0 4.4518 0 4.4518 0" fill="none" stroke="#fff" stroke-linecap="round" stroke-width=".80000001"/><path id="path167" d="m107.32945 71.433785c4.4518 0 4.4518 0 4.4518 0" fill="none" stroke="#fff" stroke-linecap="round"/></g></g><g id="rockerLever"><rect id="RL_Base" fill="#575d5e" height="87" shape-rendering="crispEdges" stroke="#333" stroke-width=".80000001" width="135" x="2.5" y="56"/><path id="path4p" clip-path="url(#c)" d="m-154.22363 56.400391v59.999999m1.6-59.999999v59.999999m1.6-59.999999v59.999999m1.6-59.999999v59.999999m1.6-59.999999v59.999999m1.6-59.999999v59.999999m1.6-59.999999v59.999999m1.6-59.999999v59.999999m1.6-59.999999v59.999999m1.6-59.999999v59.999999m1.6-59.999999v59.999999m1.6-59.999999v59.999999m1.6-59.999999v59.999999m1.6-59.999999v59.999999m1.6-59.999999v59.999999m1.6-59.999999v59.999999m1.6-59.999999v59.999999m1.6-59.999999v59.999999m1.6-59.999999v59.999999m1.6-59.999999v59.999999m1.6-59.999999v59.999999m1.6-59.999999v59.999999m1.6-59.999999v59.999999m1.6-59.999999v59.999999m1.6-59.999999v59.999999m1.6-59.999999v59.999999m1.6-59.999999v59.999999m1.6-59.999999v59.999999m1.6-59.999999v59.999999m1.6-59.999999v59.999999m1.6-59.999999v59.999999m1.6-59.999999v59.999999m1.6-59.999999v59.999999m1.6-59.999999v59.999999m1.600002-59.999999v59.999999m1.6-59.999999v59.999999m1.6-59.999999v59.999999m1.6-59.999999v59.999999m1.6-59.999999v59.999999m1.6-59.999999v59.999999m1.6-59.999999v59.999999m1.6-59.999999v59.999999m1.6-59.999999v59.999999m1.6-59.999999v59.999999m1.6-59.999999v59.999999m1.6-59.999999v59.999999m1.6-59.999999v59.999999m1.6-59.999999v59.999999m1.6-59.999999v59.999999m1.6-59.999999v59.999999m1.6-59.999999v59.999999m1.6-59.999999v59.999999m1.6-59.999999v59.999999m1.6-59.999999v59.999999m1.6-59.999999v59.999999m1.6-59.999999v59.999999m1.6-59.999999v59.999999m1.6-59.999999v59.999999m1.6-59.999999v59.999999m1.6-59.999999v59.999999m1.6-59.999999v59.999999m1.6-59.999999v59.999999m1.6-59.999999v59.999999m1.600001-59.999999v59.999999m1.6-59.999999v59.999999m1.6-59.999999v59.999999m1.6-59.999999v59.999999m1.6-59.999999v59.999999m1.6-59.999999v59.999999m1.6-59.999999v59.999999m1.6-59.999999v59.999999m1.6-59.999999v59.999999m1.6-59.999999v59.999999m1.6-59.999999v59.999999m1.6-59.999999v59.999999m1.6-59.999999v59.999999m1.6-59.999999v59.999999m1.6-59.999999v59.999999m1.6-59.999999v59.999999m1.6-59.999999v59.999999m1.6-59.999999v59.999999m-128.000003-59.599999h130.000001m-130.000001 1.6h130.000001m-130.000001 1.6h130.000001m-130.000001 1.6h130.000001m-130.000001 1.599999h130.000001m-130.000001 1.6h130.000001m-130.000001 1.6h130.000001m-130.000001 1.6h130.000001m-130.000001 1.6h130.000001m-130.000001 1.6h130.000001m-130.000001 1.6h130.000001m-130.000001 1.6h130.000001m-130.000001 1.6h130.000001m-130.000001 1.6h130.000001m-130.000001 1.6h130.000001m-130.000001 1.6h130.000001m-130.000001 1.6h130.000001m-130.000001 1.6h130.000001m-130.000001 1.6h130.000001m-130.000001 1.6h130.000001m-130.000001 1.6h130.000001m-130.000001 1.6h130.000001m-130.000001 1.6h130.000001m-130.000001 1.6h130.000001m-130.000001 1.6h130.000001m-130.000001 1.6h130.000001m-130.000001 1.6h130.000001m-130.000001 1.6h130.000001m-130.000001 1.6h130.000001m-130.000001 1.6h130.000001m-130.000001 1.6h130.000001m-130.000001 1.6h130.000001m-130.000001 1.6h130.000001m-130.000001 1.6h130.000001m-130.000001 1.6h130.000001m-130.000001 1.6h130.000001m-130.000001 1.6h130.000001m-130.000001 1.6h130.000001m-130.400001-59.599999h130.000001v59.999999h-130.000001z" fill="#4d4d4d" fill-rule="evenodd" stroke="#575d5e" stroke-width=".4pt" transform="translate(159.71113)"/><path id="path3p" d="m108.6 41.649998h-70.5m70.5 1.5h-70.5m70.5 1.5h-70.5m70.5 1.5h-70.5m70.5 1.5h-70.5m70.5 1.5h-70.5m70.5 1.500002h-70.5m64.75-8.750002v8.500002m1.5-8.500002v8.500002m1.5-8.500002v8.500002m1.5-8.500002v8.500002m1-8.500002v8.500002m-70-8.500002v8.500002m1.5-8.500002v8.500002m1.5-8.500002v8.500002m1.5-8.500002v8.500002m1.5-8.500002v8.500002m1.5-8.500002v8.500002m1.5-8.500002v8.500002m1.5-8.500002v8.500002m1.5-8.500002v8.500002m1.5-8.500002v8.500002m1.5-8.500002v8.500002m1.5-8.500002v8.500002m1.5-8.500002v8.500002m1.5-8.500002v8.500002m1.5-8.500002v8.500002m1.5-8.500002v8.500002m1.5-8.500002v8.500002m1.5-8.500002v8.500002m1.5-8.500002v8.500002m1.5-8.500002v8.500002m1.5-8.500002v8.500002m1.5-8.500002v8.500002m1.5-8.500002v8.500002m1.5-8.500002v8.500002m1.5-8.500002v8.500002m1.5-8.500002v8.500002m1.5-8.500002v8.500002m1.5-8.500002v8.500002m1.5-8.500002v8.500002m1.5-8.500002v8.500002m1.5-8.500002v8.500002m1.5-8.500002v8.500002m1.5-8.500002v8.500002m1.5-8.500002v8.500002m1.5-8.500002v8.500002m1.5-8.500002v8.500002m1.5-8.500002v8.500002m1.5-8.500002v8.500002m1.5-8.500002v8.500002m1.5-8.500002v8.500002m1.5-8.500002v8.500002m1.5-8.500002v8.500002m1.5-8.500002v8.500002m-63-8.750002h70v9.000002h-70zm .25 1.5h-36.5m36.5 1.5h-36.5m36.5 1.5h-36.5m36.5 1.5h-36.5m36.5 1.5h-36.5m36.5 1.500002h-36.5m22.75-8.750002v8.500002m1.5-8.500002v8.500002m1.5-8.500002v8.500002m1.5-8.500002v8.500002m1.5-8.500002v8.500002m1.5-8.500002v8.500002m1.5-8.500002v8.500002m1.5-8.500002v8.500002m1.5-8.500002v8.500002m1.5-8.500002v8.500002m-34.5-8.500002v8.500002m1.5-8.500002v8.500002m1.5-8.500002v8.500002m1.5-8.500002v8.500002m1.5-8.500002v8.500002m1.5-8.500002v8.500002m1.5-8.500002v8.500002m1.5-8.500002v8.500002m1.5-8.500002v8.500002m1.5-8.500002v8.500002m1.5-8.500002v8.500002m1.5-8.500002v8.500002m1.5-8.500002v8.500002m1.5-8.500002v8.500002m-21-8.750002h36v9.000002h-36zm106.25-51h-70.5m70.5 1.5h-70.5m70.5 1.5h-70.5m70.5 1.5h-70.5m70.5 1.5h-70.5m70.5 1.5h-70.5m70.5 1.5h-70.5m70.5 1.5h-70.5m70.5 1.5h-70.5m70.5 1.5h-70.5m70.5 1.5h-70.5m70.5 1.5h-70.5m70.5 1.5h-70.5m70.5 1.5h-70.5m70.5 1.5h-70.5m70.5 1.5h-70.5m70.5 1.5h-70.5m70.5 1.5h-70.5m70.5 1.5h-70.5m70.5 1.5h-70.5m70.5 1.5h-70.5m70.5 1.500002h-70.5m70.5 1.5h-70.5m70.5 1.5h-70.5m70.5 1.5h-70.5m70.5 1.5h-70.5m70.5 1.5h-70.5m70.5 1.5h-70.5m70.5 1.5h-70.5m70.5 1.5h-70.5m70.5 1.5h-70.5m70.5 1.5h-70.5m70.5 1.5h-70.5m70.5 1.5h-70.5m70.5 1.5h-70.5m64.75-50.750002v50.500002m1.5-50.500002v50.500002m1.5-50.500002v50.500002m1.5-50.500002v50.500002m1-50.500002v50.500002m-70-50.500002v50.500002m1.5-50.500002v50.500002m1.5-50.500002v50.500002m1.5-50.500002v50.500002m1.5-50.500002v50.500002m1.5-50.500002v50.500002m1.5-50.500002v50.500002m1.5-50.500002v50.500002m1.5-50.500002v50.500002m1.5-50.500002v50.500002m1.5-50.500002v50.500002m1.5-50.500002v50.500002m1.5-50.500002v50.500002m1.5-50.500002v50.500002m1.5-50.500002v50.500002m1.5-50.500002v50.500002m1.5-50.500002v50.500002m1.5-50.500002v50.500002m1.5-50.500002v50.500002m1.5-50.500002v50.500002m1.5-50.500002v50.500002m1.5-50.500002v50.500002m1.5-50.500002v50.500002m1.5-50.500002v50.500002m1.5-50.500002v50.500002m1.5-50.500002v50.500002m1.5-50.500002v50.500002m1.5-50.500002v50.500002m1.5-50.500002v50.500002m1.5-50.500002v50.500002m1.5-50.500002v50.500002m1.5-50.500002v50.500002m1.5-50.500002v50.500002m1.5-50.500002v50.500002m1.5-50.500002v50.500002m1.5-50.500002v50.500002m1.5-50.500002v50.500002m1.5-50.500002v50.500002m1.5-50.500002v50.500002m1.5-50.500002v50.500002m1.5-50.500002v50.500002m1.5-50.500002v50.500002m1.5-50.500002v50.500002m-63-50.750002h70v51.000002h-70zm .25 1.5h-36.5m36.5 1.5h-36.5m36.5 1.5h-36.5m36.5 1.5h-36.5m36.5 1.5h-36.5m36.5 1.5h-36.5m36.5 1.5h-36.5m36.5 1.5h-36.5m36.5 1.5h-36.5m36.5 1.5h-36.5m36.5 1.5h-36.5m36.5 1.5h-36.5m36.5 1.5h-36.5m36.5 1.5h-36.5m36.5 1.5h-36.5m36.5 1.5h-36.5m36.5 1.5h-36.5m36.5 1.5h-36.5m36.5 1.5h-36.5m36.5 1.5h-36.5m36.5 1.500002h-36.5m36.5 1.5h-36.5m36.5 1.5h-36.5m36.5 1.5h-36.5m36.5 1.5h-36.5m36.5 1.5h-36.5m36.5 1.5h-36.5m36.5 1.5h-36.5m36.5 1.5h-36.5m36.5 1.5h-36.5m36.5 1.5h-36.5m36.5 1.5h-36.5m36.5 1.5h-36.5m36.5 1.5h-36.5m22.75-50.750002v50.500002m1.5-50.500002v50.500002m1.5-50.500002v50.500002m1.5-50.500002v50.500002m1.5-50.500002v50.500002m1.5-50.500002v50.500002m1.5-50.500002v50.500002m1.5-50.500002v50.500002m1.5-50.500002v50.500002m1.5-50.500002v50.500002m-34.5-50.500002v50.500002m1.5-50.500002v50.500002m1.5-50.500002v50.500002m1.5-50.500002v50.500002m1.5-50.500002v50.500002m1.5-50.500002v50.500002m1.5-50.500002v50.500002m1.5-50.500002v50.500002m1.5-50.500002v50.500002m1.5-50.500002v50.500002m1.5-50.500002v50.500002m1.5-50.500002v50.500002m1.5-50.500002v50.500002m1.5-50.500002v50.500002m-21-50.750002h36v51.000002h-36z" style="fill:#4d4d4d;fill-rule:evenodd;stroke:#575d5e;stroke-width:.5;shape-rendering:crispEdges;clip-path:url(#a)" transform="translate(27.500001 66)"/><g id="RL_Drive"><rect id="rect179" fill="#575d5e" height="41" shape-rendering="crispEdges" stroke="#000" stroke-width=".80000001" width="45" x="65" y="64"/><g id="g181" shape-rendering="crispEdges"><g id="g183"><rect id="rect185" fill="#bb1e10" height="6.5" width="44.200001" x="65.399994" y="64.400002"/><path id="path187" d="m65.4 71.150004h44.2" fill="none" stroke="#fff" stroke-width=".5"/><path id="path189" d="m68.16965 65.150002l-.655857 2.450006h1.354883v-2.450006zm.799028 0v2.450006h1.354889l-.65576-2.450006zm2.800014 0v2.450006h1.450006v-2.450006zm1.550008 0v2.450006h1.517879a1.5000067 1.5000067 0 0 0 -.519046-.344451 1.125005 1.125005 0 0 0  .576272-.980541 1.125005 1.125005 0 0 0 -1.125003-1.125014 1.125005 1.125005 0 0 0 -.000103 0zm2.350009 0v2.450006h1.450006v-2.450006zm1.550008 0v2.450006h1.517879a1.5000067 1.5000067 0 0 0 -.519046-.344451 1.125005 1.125005 0 0 0  .576272-.980541 1.125005 1.125005 0 0 0 -1.125003-1.125014 1.125005 1.125005 0 0 0 -.000103 0zm-9.731681 2.549993l-.655862 2.450006h1.250006l.265035-1.000001h.522461v-1.450005zm1.481642 0v1.450005h.522564l.264943 1.000001h1.250006l-.655764-2.450006zm2.800014 0v2.450006h1.450006v-2.450006zm1.550008 0v2.450006h.450004a1.5000067 1.5000067 0 0 0  .000098 0 1.5000067 1.5000067 0 0 0  1.500006-1.500001 1.5000067 1.5000067 0 0 0 -.341701-.950005h-1.608402zm2.350009 0v2.450006h1.450006v-2.450006zm1.550008 0v2.450006h.449999a1.5000067 1.5000067 0 0 0  .000103 0 1.5000067 1.5000067 0 0 0  1.500006-1.500001 1.5000067 1.5000067 0 0 0 -.341696-.950005z" fill="#fff"/></g><g id="g191" style="font-weight:bold;font-size:5.39302158;font-family:sans-serif;letter-spacing:0;word-spacing:0;fill:#fff"><text id="text193" line-height="100%" x="87.233292" xml:space="preserve" y="69.335762"><tspan id="tspan195" fill="#fff" font-family="sans-serif" font-size="3.75" font-weight="bold" line-height="100%" x="87.233292" y="69.335762">TMax XT4</tspan></text></g></g><g id="g197" shape-rendering="crispEdges"><path id="path199" d="m70.499997 96.500004h15.499999" fill="#f00" fill-rule="evenodd" stroke="#808000" stroke-width=".99999994"/><path id="path201" d="m104.5 96.500004h4" fill="none" stroke="#fff"/><path id="path203" d="m66.499997 96.500004h4" fill="none" stroke="#fff"/><path id="path205" d="m70.499997 85.500024c8.544457 0 8.68453 0 8.68453 0" fill="none" stroke="#ff0"/><path id="path207" d="m95.115112 85.500024h9.384888" fill="none" stroke="#808000"/><path id="path209" d="m104.5 85.498884h4" fill="none" stroke="#fff"/><path id="path211" d="m66.499997 85.500024h4" fill="none" stroke="#fff"/><path id="path213" d="m70.499997 79.500024h34.000003" fill="#f00" fill-rule="evenodd" stroke="#f00"/><path id="path215" d="m104.5 79.498884h4" fill="none" stroke="#fff"/><path id="path217" d="m66.499997 79.500024h4" fill="none" stroke="#fff"/><path id="path219" d="m89.000003 96.499994h15.499997" fill="#f00" fill-rule="evenodd" stroke="#808000" stroke-width=".99999994"/><circle id="circle221" cx="74.750008" cy="92.608803" fill="none" r="2.5" stroke="#fff" stroke-width=".5"/><text id="text223" line-height="125%" style="font-size:12.5;font-family:sans-serif;letter-spacing:0;word-spacing:0;overflow:visible;fill:#fff" x="97.741516" xml:space="preserve" y="78.603653"><tspan id="tspan225" fill="#fff" font-size="6.25" x="97.741516" y="78.603653">on</tspan></text><text id="text227" line-height="125%" style="font-size:12.5;font-family:sans-serif;letter-spacing:0;word-spacing:0;overflow:visible;fill:#fff" x="97.741516" xml:space="preserve" y="95.462502"><tspan id="tspan229" fill="#fff" font-size="6.25" x="97.741516" y="95.462502">off</tspan></text><text id="text231" line-height="125%" style="font-size:12.5;font-family:sans-serif;letter-spacing:0;word-spacing:0;overflow:visible;fill:#fff" x="73.721252" xml:space="preserve" y="78.698257"><tspan id="tspan233" fill="#fff" font-size="7.5" x="73.721252" y="78.698257">l</tspan></text></g><g id="g235" shape-rendering="crispEdges"><path id="path237" d="m79.000002 70.707944h17v32.835636c-5.666667 1.58783-11.333333 1.68229-17 0z" fill="#d4d5df" stroke="#000" stroke-linejoin="round" stroke-width=".5"/><path id="path239" d="m79.763669 84.020364c5.562624-1.52999 10.424614-1.37538 15.472662 0 .144189.0393.263671.19756.263671.44296v15.3747c0 .245406-.119652.383566-.263671.442976-5.151399 2.12519-9.79896 2.13601-15.472662 0-.144655-.0545-.263667-.19757-.263667-.442976v-15.3747c0-.2454.119513-.40331.263667-.44296z" fill="none" stroke="#808080" stroke-linejoin="round" stroke-width=".5"/><path id="path241" d="m81.227107 98.895414c3.9498.75 7.86835.78125 11.75565 0" fill="none" stroke="#000" stroke-linecap="round" stroke-width=".80000001"/><path id="path243" d="m81.227107 94.395414c3.9498.75 7.86835.78125 11.75565 0" fill="none" stroke="#000" stroke-linecap="round" stroke-width=".88"/><path id="path245" d="m81.227107 95.895414c3.9498.75 7.86835.78125 11.75565 0" fill="none" stroke="#000" stroke-linecap="round" stroke-width=".80000001"/><path id="path247" d="m81.227107 97.395414c3.9498.75 7.86835.78125 11.75565 0" fill="none" stroke="#000" stroke-linecap="round" stroke-width=".80000001"/></g><g id="g249"/><g id="g251" shape-rendering="crispEdges"><circle id="circle253" cx="103.75001" cy="100.96954" r="2.5" style="overflow:visible;fill:#c7cacc;fill-rule:evenodd;stroke:#333;stroke-width:.25;stroke-linecap:round;stroke-linejoin:round"/><text id="text255" line-height="125%" style="font-size:12.5;font-family:sans-serif;letter-spacing:0;word-spacing:0;overflow:visible;fill:#4d4d4d;fill-opacity:.9372549" x="102.15638" xml:space="preserve" y="101.42395"><tspan id="tspan257" fill="#4d4d4d" fill-opacity=".9372549" font-size="1.25" x="102.15638" y="101.42395">TEST</tspan></text></g></g></g><g id="RC_Sel"><rect id="rect261" fill="#4d4d4d" fill-rule="evenodd" height="58" shape-rendering="crispEdges" stroke="#333" stroke-width=".80000001" width="134" x="3" y="161"/><g id="g263"><rect id="rect265" fill="#575d5e" fill-rule="evenodd" height="52" shape-rendering="crispEdges" width="130" x="5" y="164"/><path id="path267" d="m36 216.00001v-52" fill="none" shape-rendering="crispEdges" stroke="#333" stroke-width=".5"/><path id="path269" d="m64.96528 211.06569h22.885091" fill="none" shape-rendering="crispEdges" stroke="#fff" stroke-width=".5"/><path id="path271" d="m64.75 171.56569h22.885091" fill="none" shape-rendering="crispEdges" stroke="#fff" stroke-width=".5"/><path id="path273" d="m64.994526 216.00001v-52" fill="none" shape-rendering="crispEdges" stroke="#333" stroke-width=".49999997"/><path id="path275" d="m87.501864 216v-51.99999" fill="none" shape-rendering="crispEdges" stroke="#333" stroke-width=".5"/><path id="path277" d="m64.75 171.06569h22.885091" fill="none" shape-rendering="crispEdges" stroke="#333" stroke-width=".5"/><path id="path279" d="m35.75 211.06562h-30.75" fill="none" shape-rendering="crispEdges" stroke="#fff" stroke-width=".5"/><path id="path281" d="m87.850376 197.93676h28.310994" fill="none" shape-rendering="crispEdges" stroke="#333" stroke-width=".5"/><path id="path283" d="m87.850376 198.43676h28.310994" fill="none" shape-rendering="crispEdges" stroke="#fff" stroke-width=".5"/><path id="path285" d="m116.15819 164.26839v21.50347h-2.59961v.004a4 3.9366337 0 0 0 -.0586-.004 4 3.9366337 0 0 0 -3.99999 3.93664 4 3.9366337 0 0 0  3.99999 3.93663 4 3.9366337 0 0 0  .0586-.002v.002h2.59961v7.09286 1.96832h2 16.57226v-1.96832h-16.57226v-36.4696z" style="fill:none;stroke:#4d4d4d;stroke-width:.5;stroke-linecap:round;stroke-linejoin:round;shape-rendering:crispEdges"/><path id="path287" d="m35.75 210.56562h-30.75" fill="#333" fill-rule="evenodd" shape-rendering="crispEdges" stroke="#333" stroke-width=".5"/><path id="path289" d="m36.5 216.00001v-51.985" fill="#fff" fill-rule="evenodd" shape-rendering="crispEdges" stroke="#fff" stroke-width=".5"/><path id="path291" d="m64.96528 210.56569h22.885091" fill="none" shape-rendering="crispEdges" stroke="#333" stroke-width=".5"/><path id="path293" d="m65.494526 216.00001v-52" fill="none" shape-rendering="crispEdges" stroke="#fff" stroke-width=".49999997"/><path id="path295" d="m88.001864 216v-51.99999" fill="none" shape-rendering="crispEdges" stroke="#fff" stroke-width=".5"/><circle id="circle297" cx="14.15" cy="200.31567" fill="#008000" r="3.75" shape-rendering="crispEdges" stroke="#787876" stroke-linecap="square" stroke-width=".5"/><circle id="circle299" cx="18.499989" cy="186.81567" r="1.85" style="fill:#ff0;stroke:#787876;stroke-width:.5;stroke-linecap:round;stroke-linejoin:round;shape-rendering:crispEdges"/><circle id="circle301" cx="18.499989" cy="180.81567" r="1.85" style="fill:#808000;stroke:#787876;stroke-width:.5;stroke-linecap:round;stroke-linejoin:round;shape-rendering:crispEdges"/><path id="path303" d="m24.928764 200.56569h9.06683" style="fill:#fff;fill-rule:evenodd;stroke:#fff;stroke-width:.80000001;stroke-linecap:round;stroke-dasharray:.80000001 3.20000005;shape-rendering:crispEdges"/><path id="path305" d="m24.816774 186.56569h6.564002" style="fill:#fff;fill-rule:evenodd;stroke:#fff;stroke-width:.80000001;stroke-linecap:round;stroke-dasharray:.80000001 3.20000003;shape-rendering:crispEdges"/><circle id="circle307" cx="51.199997" cy="181" fill="#f2f2f2" r="2.5" shape-rendering="crispEdges"/><circle id="circle309" cx="51.199997" cy="199" fill="#f2f2f2" r="2.5" shape-rendering="crispEdges"/><path id="path311" d="m51.218105 185.00001c0 10.26667 0 10 0 10" fill="#ececec" fill-rule="evenodd" shape-rendering="crispEdges" stroke="#e6e6e6" stroke-width=".5"/><circle id="circle313" cx="108.9" cy="208.90004" fill="#ececec" r="4" shape-rendering="crispEdges" stroke="#333" stroke-linecap="square" stroke-width=".5"/><path id="path315" d="m120.14596 207.45997h11.0139" style="fill:#fff;fill-rule:evenodd;stroke:#fff;stroke-width:.79999995;stroke-linecap:round;stroke-dasharray:.79999998 3.19999995;shape-rendering:crispEdges"/><path id="path317" d="m122.45102 211.52583h6.40378" style="fill:#fff;fill-rule:evenodd;stroke:#fff;stroke-width:.79999995;stroke-linecap:round;stroke-dasharray:.79999998 3.19999994;shape-rendering:crispEdges"/><path id="path319" d="m72.395978 214.08497h11.013902" style="fill:#fff;fill-rule:evenodd;stroke:#fff;stroke-width:.79999995;stroke-linecap:round;stroke-dasharray:.79999998 3.19999995;shape-rendering:crispEdges"/><rect id="rect321" height="6" style="fill:#4d4d4d;stroke:#666;stroke-width:.25;stroke-linecap:round;stroke-linejoin:round;shape-rendering:crispEdges" width="1.5" x="118.79998" y="179.31569"/><path id="path323" d="m52.531333 199.55302h-2.662676l1.331338-2.30595z" fill="#b3b3b3" shape-rendering="crispEdges"/><path id="path325" d="m52.531333 180.44707h-2.662676l1.331338 2.30594z" fill="#b3b3b3" shape-rendering="crispEdges"/><path id="path327" d="m106.40001 210.26494h4.99999l-2.49999-4.33012z" fill="#b3b3b3" shape-rendering="crispEdges"/><text id="text329" line-height="100%" style="font-weight:bold;font-size:5.39302158;font-family:sans-serif;letter-spacing:0;word-spacing:0;fill:#fff;shape-rendering:crispEdges" x="7.3101592" xml:space="preserve" y="215.10526"><tspan id="tspan331" fill="#fff" font-family="sans-serif" font-size="3.75" font-weight="bold" line-height="100%" x="7.3101592" y="215.10526">RC sel </tspan></text><g id="g333"/><g id="g335" shape-rendering="crispEdges"><circle id="circle337" cx="113.55905" cy="189.70132" r="2.5" style="overflow:visible;fill:#c7cacc;fill-rule:evenodd;stroke:#333;stroke-width:.25;stroke-linecap:round;stroke-linejoin:round"/><text id="text339" line-height="125%" style="font-size:12.5;font-family:sans-serif;letter-spacing:0;word-spacing:0;overflow:visible;fill:#4d4d4d;fill-opacity:.9372549" x="111.96542" xml:space="preserve" y="190.15573"><tspan id="tspan341" fill="#4d4d4d" fill-opacity=".9372549" font-size="1.25" x="111.96542" y="190.15573">TEST</tspan></text></g></g></g></g></svg>