<svg id="svg2" height="297" overflow="visible" viewBox="0 0 420 297" width="420" xmlns="http://www.w3.org/2000/svg"><g id="g4531" stroke-width=".5"><rect id="mainFrame" fill="none" height="277" stroke="#000" stroke-linecap="square" width="390" x="10" y="10"/><rect id="innerFrame" fill="none" height="267" stroke="#000" stroke-linecap="square" width="380" x="15" y="15"/><rect id="drawingArea" fill="none" height="240" width="375" x="17.5" y="16.5"/><line id="line4374" stroke="#000" x1="29" x2="29" y1="258" y2="282"/><line id="line4376" stroke="#000" x1="50" x2="50" y1="258" y2="282"/><line id="line4378" stroke="#000" x1="65" x2="65" y1="258" y2="282"/><line id="line4380" stroke="#000" x1="80" x2="80" y1="258" y2="282"/><line id="line4382" stroke="#000" x1="102" x2="102" y1="258" y2="282"/><line id="line4384" stroke="#000" x1="130" x2="130" y1="258" y2="282"/><line id="line4386" stroke="#000" x1="205.3" x2="205.3" y1="258" y2="282"/><line id="line4388" stroke="#000" x1="246" x2="246" y1="258" y2="282"/><line id="line4390" stroke="#000" x1="333" x2="333" y1="258" y2="282"/><line id="line4392" stroke="#000" x1="367" x2="367" y1="258" y2="270"/><line id="line4394" stroke="#000" x1="375" x2="375" y1="270" y2="282"/><line id="line4325" stroke="#000" x1="395" x2="400" y1="237.5" y2="237.5"/><line id="line4327" stroke="#000" x1="395" x2="400" y1="192.5" y2="192.5"/><line id="line4329" stroke="#000" x1="395" x2="400" y1="148.2" y2="148.2"/><line id="line4331" stroke="#000" x1="395" x2="400" y1="104.3" y2="104.3"/><line id="line4333" stroke="#000" x1="395" x2="400" y1="59.200001" y2="59.200001"/><line id="line4335" stroke="#000" x1="10" x2="15" y1="237.5" y2="237.5"/><line id="line4337" stroke="#000" x1="10" x2="15" y1="192.5" y2="192.5"/><line id="line4339" stroke="#000" x1="10" x2="15" y1="148.2" y2="148.2"/><line id="line4341" stroke="#000" x1="10" x2="15" y1="104.3" y2="104.3"/><line id="line4343" stroke="#000" x1="10" x2="15" y1="59.200001" y2="59.200001"/><line id="line4345" stroke="#000" x1="62.5" x2="62.5" y1="10" y2="15"/><line id="line4347" stroke="#000" x1="110.3" x2="110.3" y1="10" y2="15"/><line id="line4349" stroke="#000" x1="157.2" x2="157.2" y1="10" y2="15"/><line id="line4351" stroke="#000" x1="205.3" x2="205.3" y1="10" y2="15"/><line id="line4353" stroke="#000" x1="252.2" x2="252.2" y1="10" y2="15"/><line id="line4355" stroke="#000" x1="300.29999" x2="300.29999" y1="10" y2="15"/><line id="line4357" stroke="#000" x1="347.79999" x2="347.79999" y1="10" y2="15"/><line id="line4359" stroke="#000" x1="62.5" x2="62.5" y1="282" y2="287"/><line id="line4361" stroke="#000" x1="110.3" x2="110.3" y1="282" y2="287"/><line id="line4363" stroke="#000" x1="157.2" x2="157.2" y1="282" y2="287"/><line id="line4365" stroke="#000" x1="205.3" x2="205.3" y1="282" y2="287"/><line id="line4367" stroke="#000" x1="252.2" x2="252.2" y1="282" y2="287"/><line id="line4369" stroke="#000" x1="300.29999" x2="300.29999" y1="282" y2="287"/><line id="line4371" stroke="#000" x1="347.79999" x2="347.79999" y1="282" y2="287"/><line id="line4373" stroke="#000" x1="15" x2="130" y1="264" y2="264"/><line id="line4315" stroke="#000" x1="15" x2="130" y1="270" y2="270"/><line id="line4317" stroke="#000" x1="15" x2="246" y1="276" y2="276"/><line id="line4319" stroke="#000" x1="333" x2="395" y1="270" y2="270"/><line id="line4321" stroke="#000" x1="367" x2="395" y1="264" y2="264"/><line id="line4323" stroke="#000" x1="375" x2="395" y1="276" y2="276"/><line id="line3523" stroke="#000" x1="168" x2="168" y1="276" y2="282"/><text id="text4183" font-family="ABBvoice" font-size="3.75" letter-spacing="0" line-height="125%" text-anchor="middle" word-spacing="0" x="37.445999" xml:space="preserve" y="13.847656"><tspan id="tspan4185" stroke-width=".5" x="37.445999" y="13.847656">1</tspan></text><text id="text4187" font-family="ABBvoice" font-size="3.75" letter-spacing="0" line-height="125%" text-anchor="middle" word-spacing="0" x="86.390991" xml:space="preserve" y="13.847656"><tspan id="tspan4217" stroke-width=".5" x="86.390991" y="13.847656">2</tspan></text><text id="text4191" font-family="ABBvoice" font-size="3.75" letter-spacing="0" line-height="125%" text-anchor="middle" word-spacing="0" x="133.89099" xml:space="preserve" y="13.823853"><tspan id="tspan4219" stroke-width=".5" x="133.89099" y="13.823853">3</tspan></text><text id="text4195" font-family="ABBvoice" font-size="3.75" letter-spacing="0" line-height="125%" text-anchor="middle" word-spacing="0" x="181.39099" xml:space="preserve" y="13.842163"><tspan id="tspan4221" stroke-width=".5" x="181.39099" y="13.842163">4</tspan></text><text id="text4199" font-family="ABBvoice" font-size="3.75" letter-spacing="0" line-height="125%" text-anchor="middle" word-spacing="0" x="228.89099" xml:space="preserve" y="13.800964"><tspan id="tspan4223" stroke-width=".5" x="228.89099" y="13.800964">5</tspan></text><text id="text4205" font-family="ABBvoice" font-size="3.75" letter-spacing="0" line-height="125%" text-anchor="middle" word-spacing="0" x="276.39099" xml:space="preserve" y="13.824768"><tspan id="tspan4225" stroke-width=".5" x="276.39099" y="13.824768">6</tspan></text><text id="text4209" font-family="ABBvoice" font-size="3.75" letter-spacing="0" line-height="125%" text-anchor="middle" word-spacing="0" x="323.89099" xml:space="preserve" y="13.824768"><tspan id="tspan4227" stroke-width=".5" x="323.89099" y="13.824768">7</tspan></text><text id="text4213" font-family="ABBvoice" font-size="3.75" letter-spacing="0" line-height="125%" text-anchor="middle" word-spacing="0" x="373.89099" xml:space="preserve" y="13.824768"><tspan id="tspan4229" stroke-width=".5" x="373.89099" y="13.824768">8</tspan></text><text id="text4241" font-family="ABBvoice" font-size="3.75" letter-spacing="0" line-height="125%" text-anchor="middle" word-spacing="0" x="37.445999" xml:space="preserve" y="285.84766"><tspan id="tspan4243" stroke-width=".5" x="37.445999" y="285.84766">1</tspan></text><text id="text4245" font-family="ABBvoice" font-size="3.75" letter-spacing="0" line-height="125%" text-anchor="middle" word-spacing="0" x="86.390991" xml:space="preserve" y="285.84766"><tspan id="tspan4247" stroke-width=".5" x="86.390991" y="285.84766">2</tspan></text><text id="text4249" font-family="ABBvoice" font-size="3.75" letter-spacing="0" line-height="125%" text-anchor="middle" word-spacing="0" x="133.89099" xml:space="preserve" y="285.82385"><tspan id="tspan4251" stroke-width=".5" x="133.89099" y="285.82385">3</tspan></text><text id="text4253" font-family="ABBvoice" font-size="3.75" letter-spacing="0" line-height="125%" text-anchor="middle" word-spacing="0" x="181.39099" xml:space="preserve" y="285.84216"><tspan id="tspan4255" stroke-width=".5" x="181.39099" y="285.84216">4</tspan></text><text id="text4259" font-family="ABBvoice" font-size="3.75" letter-spacing="0" line-height="125%" text-anchor="middle" word-spacing="0" x="228.89099" xml:space="preserve" y="285.80096"><tspan id="tspan4261" stroke-width=".5" x="228.89099" y="285.80096">5</tspan></text><text id="text4263" font-family="ABBvoice" font-size="3.75" letter-spacing="0" line-height="125%" text-anchor="middle" word-spacing="0" x="276.39099" xml:space="preserve" y="285.82477"><tspan id="tspan4265" stroke-width=".5" x="276.39099" y="285.82477">6</tspan></text><text id="text4267" font-family="ABBvoice" font-size="3.75" letter-spacing="0" line-height="125%" text-anchor="middle" word-spacing="0" x="323.89099" xml:space="preserve" y="285.82477"><tspan id="tspan4269" stroke-width=".5" x="323.89099" y="285.82477">7</tspan></text><text id="text4271" font-family="ABBvoice" font-size="3.75" letter-spacing="0" line-height="125%" text-anchor="middle" word-spacing="0" x="373.89099" xml:space="preserve" y="285.82477"><tspan id="tspan4273" stroke-width=".5" x="373.89099" y="285.82477">8</tspan></text><text id="text4285" font-family="ABBvoice" font-size="3.75" letter-spacing="0" line-height="125%" text-anchor="middle" word-spacing="0" x="12.501831" xml:space="preserve" y="38.597656"><tspan id="tspan4301" stroke-width=".5" x="12.501831" y="38.597656">A</tspan></text><text id="text4289" font-family="ABBvoice" font-size="3.75" letter-spacing="0" line-height="125%" text-anchor="middle" word-spacing="0" x="12.464294" xml:space="preserve" y="83.097656"><tspan id="tspan4303" stroke-width=".5" x="12.464294" y="83.097656">B</tspan></text><text id="text4293" font-family="ABBvoice" font-size="3.75" letter-spacing="0" line-height="125%" text-anchor="middle" word-spacing="0" x="12.481689" xml:space="preserve" y="127.59766"><tspan id="tspan4305" stroke-width=".5" x="12.481689" y="127.59766">C</tspan></text><text id="text4297" font-family="ABBvoice" font-size="3.75" letter-spacing="0" line-height="125%" text-anchor="middle" word-spacing="0" x="12.456055" xml:space="preserve" y="172.09766"><tspan id="tspan4307" stroke-width=".5" x="12.456055" y="172.09766">D</tspan></text><text id="text4317" font-family="ABBvoice" font-size="3.75" letter-spacing="0" line-height="125%" text-anchor="middle" word-spacing="0" x="397.50183" xml:space="preserve" y="38.597656"><tspan id="tspan4319" stroke-width=".5" x="397.50183" y="38.597656">A</tspan></text><text id="text4321" font-family="ABBvoice" font-size="3.75" letter-spacing="0" line-height="125%" text-anchor="middle" word-spacing="0" x="397.48169" xml:space="preserve" y="127.59766"><tspan id="tspan4367" stroke-width=".5" x="397.48169" y="127.59766">C</tspan></text><text id="text4333" font-family="ABBvoice" font-size="3.75" letter-spacing="0" line-height="125%" text-anchor="middle" word-spacing="0" x="12.454224" xml:space="preserve" y="216.59766"><tspan id="tspan4353" stroke-width=".5" x="12.454224" y="216.59766">E</tspan></text><text id="text4337" font-family="ABBvoice" font-size="3.75" letter-spacing="0" line-height="125%" text-anchor="middle" word-spacing="0" x="12.433167" xml:space="preserve" y="261.09766"><tspan id="tspan4355" stroke-width=".5" x="12.433167" y="261.09766">F</tspan></text><text id="text4341" font-family="ABBvoice" font-size="3.75" letter-spacing="0" line-height="125%" text-anchor="middle" word-spacing="0" x="397.45422" xml:space="preserve" y="216.59766"><tspan id="tspan4357" stroke-width=".5" x="397.45422" y="216.59766">E</tspan></text><text id="text4345" font-family="ABBvoice" font-size="3.75" letter-spacing="0" line-height="125%" text-anchor="middle" word-spacing="0" x="397.43317" xml:space="preserve" y="261.09766"><tspan id="tspan4359" stroke-width=".5" x="397.43317" y="261.09766">F</tspan></text><text id="text4349" font-family="ABBvoice" font-size="3.75" letter-spacing="0" line-height="125%" text-anchor="middle" word-spacing="0" x="397.46429" xml:space="preserve" y="83.097656"><tspan id="tspan4351" stroke-width=".5" x="397.46429" y="83.097656">B</tspan></text><text id="text4363" font-family="ABBvoice" font-size="3.75" letter-spacing="0" line-height="125%" text-anchor="middle" word-spacing="0" x="397.45605" xml:space="preserve" y="172.09766"><tspan id="tspan4365" stroke-width=".5" x="397.45605" y="172.09766">D</tspan></text><text id="text8578" font-family="ABBvoice" font-size="3.75" letter-spacing="0" line-height="125%" word-spacing="0" x="368.94598" xml:space="preserve" y="262.34766"><tspan id="tspan8582" stroke-width=".5" x="368.94598" y="262.34766">=</tspan></text><text id="text8584" font-family="ABBvoice" font-size="3.75" letter-spacing="0" line-height="125%" word-spacing="0" x="368.94598" xml:space="preserve" y="268.34766"><tspan id="tspan8588" stroke-width=".5" x="368.94598" y="268.34766">+</tspan></text><text id="textState" font-family="ABBvoice" font-size="3.75" letter-spacing="0" line-height="125%" text-anchor="middle" word-spacing="0" x="21.445999" xml:space="preserve" y="274.40015"><tspan id="tspan4409" font-family="ABBvoice" stroke-width=".5" x="21.445999" y="274.40015">State</tspan></text><text id="textChange" font-family="ABBvoice" font-size="3.75" letter-spacing="0" line-height="125%" text-anchor="middle" word-spacing="0" x="39.445999" xml:space="preserve" y="274.5314"><tspan id="tspan4415" font-family="ABBvoice" stroke-width=".5" x="39.445999" y="274.5314">Change</tspan></text><text id="textDate" font-family="ABBvoice" font-size="3.75" letter-spacing="0" line-height="125%" text-anchor="middle" word-spacing="0" x="57.445999" xml:space="preserve" y="274.34766"><tspan id="tspan4421" font-family="ABBvoice" stroke-width=".5" x="57.445999" y="274.34766">Date</tspan></text><text id="textName" font-family="ABBvoice" font-size="3.75" letter-spacing="0" line-height="125%" text-anchor="middle" word-spacing="0" x="72.445999" xml:space="preserve" y="280.34766"><tspan id="tspan4427" font-family="ABBvoice" stroke-width=".5" x="72.445999" y="280.34766">Name</tspan></text><text id="textNorm" font-family="ABBvoice" font-size="3.75" letter-spacing="0" line-height="125%" word-spacing="0" x="103.71436" xml:space="preserve" y="280.34766"><tspan id="tspan4433" font-family="ABBvoice" stroke-width=".5" x="103.71436" y="280.34766">Norm</tspan></text><text id="textInspect" font-family="ABBvoice" font-size="3.75" letter-spacing="0" line-height="125%" word-spacing="0" x="103.65028" xml:space="preserve" y="274.34766"><tspan id="tspan4439" font-family="ABBvoice" stroke-width=".5" x="103.65028" y="274.34766">Inspect</tspan></text><text id="textPlanedBy" font-family="ABBvoice" font-size="3.75" letter-spacing="0" line-height="125%" word-spacing="0" x="103.71069" xml:space="preserve" y="268.34766"><tspan id="tspan4445" font-family="ABBvoice" stroke-width=".5" x="103.71069" y="268.34766">Planned by</tspan></text><text id="textReleaseDate" font-family="ABBvoice" font-size="3.75" letter-spacing="0" line-height="125%" word-spacing="0" x="103.71069" xml:space="preserve" y="262.34766"><tspan id="tspan4451" font-family="ABBvoice" stroke-width=".5" x="103.71069" y="262.34766">Date</tspan></text><text id="textProject" font-family="ABBvoice" font-size="3.75" letter-spacing="0" line-height="125%" word-spacing="0" x="145.94569" xml:space="preserve" y="265.34766"><tspan id="tspan4519" font-family="ABBvoice" stroke-width=".5" x="145.94569" y="265.34766">Project</tspan></text><text id="textSwitchboard" font-family="ABBvoice" font-size="3.75" letter-spacing="0" line-height="125%" word-spacing="0" x="155.94554" xml:space="preserve" y="271.84766"><tspan id="tspan4525" font-family="ABBvoice" stroke-width=".5" x="155.94554" y="271.84766">Switchboard</tspan></text><text id="text4286" font-family="ABBvoice" font-size="3.75" letter-spacing="0" line-height="125%" word-spacing="0" x="247.94598" xml:space="preserve" y="273.84766"><tspan id="tspan8512" font-family="ABBvoice" stroke-width=".5" x="247.94598" y="273.84766">Tel.</tspan></text><text id="text4279" font-family="ABBvoice" font-size="3.75" letter-spacing="0" line-height="125%" word-spacing="0" x="247.73724" xml:space="preserve" y="279.34766"><tspan id="tspan8520" font-family="ABBvoice" stroke-width=".5" x="247.73724" y="279.34766">Email</tspan></text><text id="text4288" font-family="ABBvoice" font-size="3.75" letter-spacing="0" line-height="125%" word-spacing="0" x="333.94598" xml:space="preserve" y="274.34766"><tspan id="tspan4290" font-family="ABBvoice" stroke-width=".5" x="333.94598" y="274.34766">Project num.:</tspan></text><text id="textProjectNumber" font-family="ABBvoice" font-size="3.75" letter-spacing="0" line-height="125%" word-spacing="0" x="358.94568" xml:space="preserve" y="274.34766"><tspan id="tspan8552" font-family="ABBvoice" stroke-width=".5" x="358.94568" y="274.34766">N</tspan></text><text id="textOurReference" font-family="ABBvoice" font-size="3.75" letter-spacing="0" line-height="125%" word-spacing="0" x="333.94598" xml:space="preserve" y="279.84766"><tspan id="tspan8548" font-family="ABBvoice" stroke-width=".5" x="333.94598" y="279.84766">Our reference:</tspan></text><text id="textPage" font-family="ABBvoice" font-size="3.75" letter-spacing="0" line-height="125%" word-spacing="0" x="387.94202" xml:space="preserve" y="274.34766"><tspan id="tspan8570" font-family="ABBvoice" stroke-width=".5" x="387.94202" y="274.34766">N</tspan></text><text id="textPages" font-family="ABBvoice" font-size="3.75" letter-spacing="0" line-height="125%" word-spacing="0" x="387.94568" xml:space="preserve" y="280.34766"><tspan id="tspan8576" font-family="ABBvoice" stroke-width=".5" x="387.94568" y="280.34766">N</tspan></text><text id="textEmail" font-family="ABBvoice" font-size="3.75" letter-spacing="0" line-height="125%" word-spacing="0" x="262.73737" xml:space="preserve" y="279.34766"><tspan id="tspan4277" font-family="ABBvoice" stroke-width=".5" x="262.73737" y="279.34766">Email</tspan></text><text id="textPhone" font-family="ABBvoice" font-size="3.75" letter-spacing="0" line-height="125%" word-spacing="0" x="262.94611" xml:space="preserve" y="273.84766"><tspan id="tspan4283" font-family="ABBvoice" stroke-width=".5" x="262.94611" y="273.84766">Tel.</tspan></text><text id="text4292" font-family="ABBvoice" font-size="3.75" letter-spacing="0" line-height="125%" word-spacing="0" x="375.94598" xml:space="preserve" y="280.34766"><tspan id="tspan4294" font-family="ABBvoice" stroke-width=".5" x="375.94598" y="280.34766">Pages:</tspan></text><text id="text4296" font-family="ABBvoice" font-size="3.75" letter-spacing="0" line-height="125%" word-spacing="0" x="375.94598" xml:space="preserve" y="274.34766"><tspan id="tspan4298" font-family="ABBvoice" stroke-width=".5" x="375.94598" y="274.34766">Page:</tspan></text><text id="text4300" font-family="ABBvoice" font-size="3.75" letter-spacing="0" line-height="125%" word-spacing="0" x="130.946" xml:space="preserve" y="265.34766"><tspan id="tspan4302" font-family="ABBvoice" stroke-width=".5" x="130.946" y="265.34766">Project:</tspan></text><text id="text4304" font-family="ABBvoice" font-size="3.75" letter-spacing="0" line-height="125%" word-spacing="0" x="130.946" xml:space="preserve" y="271.84766"><tspan id="tspan4306" font-family="ABBvoice" stroke-width=".5" x="130.946" y="271.84766">Switchboard:</tspan></text><text id="text4308" font-family="ABBvoice" font-size="3.75" letter-spacing="0" line-height="125%" word-spacing="0" x="81.445999" xml:space="preserve" y="262.34766"><tspan id="tspan4310" font-family="ABBvoice" stroke-width=".5" x="81.445999" y="262.34766">Date</tspan></text><text id="text4312" font-family="ABBvoice" font-size="3.75" letter-spacing="0" line-height="125%" word-spacing="0" x="81.445999" xml:space="preserve" y="268.34766"><tspan id="tspan4314" font-family="ABBvoice" stroke-width=".5" x="81.445999" y="268.34766">Planned by</tspan></text><text id="text4316" font-family="ABBvoice" font-size="3.75" letter-spacing="0" line-height="125%" word-spacing="0" x="81.385574" xml:space="preserve" y="274.34766"><tspan id="tspan4318" font-family="ABBvoice" stroke-width=".5" x="81.385574" y="274.34766">Inspect</tspan></text><text id="text4320" font-family="ABBvoice" font-size="3.75" letter-spacing="0" line-height="125%" word-spacing="0" x="81.445999" xml:space="preserve" y="280.34766"><tspan id="tspan4322" font-family="ABBvoice" stroke-width=".5" x="81.445999" y="280.34766">Norm</tspan></text><path id="path5180" d="m215.83936 262l-1.31172 4.9h2.70977v-4.9zm1.59805 0v4.9h2.70976l-1.31152-4.9zm5.6 0v4.9h2.9v-4.9zm3.1 0v4.9h3.03574a3.0000009 3.0000009 0 0 0 -1.03808-.68887 2.2500007 2.2500007 0 0 0  1.15254-1.96113 2.2500007 2.2500007 0 0 0 -2.25-2.25 2.2500007 2.2500007 0 0 0 -.00018 0h-.9zm4.7 0v4.9h2.9v-4.9zm3.1 0v4.9h3.03575a3.0000009 3.0000009 0 0 0 -1.03809-.68887 2.2500007 2.2500007 0 0 0  1.15254-1.96113 2.2500007 2.2500007 0 0 0 -2.25-2.25 2.2500007 2.2500007 0 0 0 -.00018 0h-.9zm-19.46328 5.1l-1.31172 4.9h2.5l.53008-2h1.04492v-2.9zm2.96328 0v2.9h1.04511l.52989 2h2.5l-1.31152-4.9zm5.6 0v4.9h2.9v-4.9zm3.1 0v4.9h.9a3.0000009 3.0000009 0 0 0  .00018 0 3.0000009 3.0000009 0 0 0  3-3 3.0000009 3.0000009 0 0 0 -.6834-1.9h-3.2168zm4.7 0v4.9h2.9v-4.9zm3.1 0v4.9h.9a3.0000009 3.0000009 0 0 0  .00018 0 3.0000009 3.0000009 0 0 0  3-3 3.0000009 3.0000009 0 0 0 -.6834-1.9h-3.21679z" fill="#bb1e10"/><rect id="rect4296" fill="none" height="243" stroke="#000" stroke-linecap="square" width="380" x="15" y="15"/><text id="text4298" font-family="ABBvoice" font-size="3.75" letter-spacing="0" line-height="125%" text-anchor="middle" word-spacing="0" x="57.445999" xml:space="preserve" y="280.34766"><tspan id="tspan4300" font-family="ABBvoice" stroke-width=".5" x="57.445999" y="280.34766">Date</tspan></text><text id="text4302" font-family="ABBvoice" font-size="3.75" letter-spacing="0" line-height="125%" text-anchor="middle" word-spacing="0" x="39.445999" xml:space="preserve" y="280.5314"><tspan id="tspan4304" font-family="ABBvoice" stroke-width=".5" x="39.445999" y="280.5314">Change</tspan></text><text id="text4306" font-family="ABBvoice" font-size="3.75" letter-spacing="0" line-height="125%" text-anchor="middle" word-spacing="0" x="21.445999" xml:space="preserve" y="280.40015"><tspan id="tspan4308" font-family="ABBvoice" stroke-width=".5" x="21.445999" y="280.40015">State</tspan></text></g></svg>