<svg id="svg2" height="45.689346" overflow="visible" viewBox="0 0 48 45.689347" width="48" xmlns="http://www.w3.org/2000/svg"><path id="path4" d="m48 21.689345q0 1.632863-1.139923 2.772786l-20.056483 20.087291q-1.20154 1.139923-2.803594 1.139923-1.632863 0-2.772786-1.139923l-20.0564823-20.087291q-1.1707317-1.109115-1.1707317-2.772786 0-1.632863 1.1707317-2.803594l2.279846-2.310655q1.2015404-1.139923 2.8035943-1.139923 1.6328627 0 2.7727856 1.139923l9.0577664 9.057766v-21.689345q0-1.602054 1.170732-2.772786 1.170731-1.170731 2.772785-1.170731h3.943518q1.602054 0 2.772785 1.170731 1.170732 1.170732 1.170732 2.772786v21.689345l9.057766-9.057766q1.139923-1.139923 2.772786-1.139923 1.602054 0 2.803594 1.139923l2.310655 2.310655q1.139923 1.20154 1.139923 2.803594z"/></svg>