<svg id="svg2" height="58.880001" overflow="visible" viewBox="0 0 62.32 58.880001" width="62.32" xmlns="http://www.w3.org/2000/svg"><path id="path4" d="m62.32 31.16q0 2.04-1.48 3.6l-3 3q-1.52 1.52-3.64 1.52-2.16 0-3.6-1.52l-11.76-11.72v28.16q0 2.08-1.5 3.38-1.5 1.3-3.62 1.3h-5.12q-2.12 0-3.62-1.3-1.5-1.3-1.5-3.38v-28.16l-11.76 11.72q-1.44 1.52-3.6 1.52-2.16 0-3.6-1.52l-3-3q-1.52-1.52-1.52-3.6 0-2.12 1.52-3.64l26.04-26.04q1.4-1.48 3.6-1.48 2.16 0 3.64 1.48l26.04 26.04q1.48 1.56 1.48 3.64z"/></svg>