<svg id="svg2" height="45.350449" overflow="visible" viewBox="0 0 48 45.350449" width="48" xmlns="http://www.w3.org/2000/svg"><path id="path4" d="m48 24q0 1.571245-1.139923 2.772785l-2.310655 2.310655q-1.170732 1.170732-2.803594 1.170732-1.663671 0-2.772786-1.170732l-9.057766-9.026958v21.689346q0 1.602054-1.155327 2.603338-1.155328 1.001283-2.78819 1.001283h-3.943518q-1.632862 0-2.78819-1.001283-1.155327-1.001284-1.155327-2.603338v-21.689346l-9.0577663 9.026958q-1.1091143 1.170732-2.7727856 1.170732-1.6636714 0-2.7727858-1.170732l-2.3106546-2.310655q-1.1707317-1.170732-1.1707317-2.772785 0-1.632863 1.1707317-2.803595l20.0564823-20.056482q1.078306-1.139923 2.772786-1.139923 1.663671 0 2.803595 1.139923l20.056482 20.056482q1.139923 1.201541 1.139923 2.803595z" stroke-width=".1"/></svg>