<svg id="svg2" height="343.79999" overflow="visible" viewBox="0 0 348.79999 343.79999" width="348.79999" xmlns="http://www.w3.org/2000/svg" xmlns:xlink="http://www.w3.org/1999/xlink"><clipPath id="clipPath5057"><path id="path5059" d="m532.30078 237.69922v56h209.19922v-56zm36.39844.70117h104.20117v54.69922h-104.20117z"/></clipPath><clipPath id="clipPath5083"><path id="path5085" d="m602.42885 23.814525v106.900385h71.19922v-106.900385zm3.09961 8.10156h65v42h-65zm .5 71.599605h64v23.5h-64z"/></clipPath><clipPath id="clipPath5384"><path id="path5386" d="m424.22675 258.00967v109h57.94922v-77.44922h-19.30078v-18.5h19.30078.69922 9.30078v95.94922h.65039v-107.69922h72v107.69922h68.59961v-109zm15.97266 17.72656h18.5v8.5h-18.5zm-14.37305 65.82422h19v10h-19z"/></clipPath><clipPath id="clipPath4808"><path id="path4810" clip-path="url(#clipPath5083)" d="m755.27835-12.235001h-78.5m78.5 1.5h-78.5m78.5 1.499999h-78.5m78.5 1.5h-78.5m78.5 1.5h-78.5m78.5 1.5h-78.5m78.5 1.5h-78.5m78.5 1.499999h-78.5m78.5 1.49999995h-78.5m78.5 1.50000005h-78.5m78.5 1.5h-78.5m78.5 1.5h-78.5m78.5 1.5h-78.5m78.5 1.5h-78.5m78.5 1.5h-78.5m78.5 1.5h-78.5m78.5 1.500001h-78.5m78.5 1.5h-78.5m78.5 1.5h-78.5m78.5 1.5h-78.5m78.5 1.5h-78.5m78.5 1.5h-78.5m78.5 1.49999h-78.5m78.5 1.5h-78.5m78.5 1.5h-78.5m78.5 1.5h-78.5m78.5 1.5h-78.5m78.5 1.5h-78.5m78.5 1.5h-78.5m78.5 1.5h-78.5m78.5 1.5h-78.5m78.5 1.5h-78.5m78.5 1.5h-78.5m78.5 1.5h-78.5m78.5 1.5h-78.5m64.75-50.749989v50.499989m1.5-50.499989v50.499989m1.5-50.499989v50.499989m1.5-50.499989v50.499989m1.5-50.499989v50.499989m1.5-50.499989v50.499989m1.5-50.499989v50.499989m1.5-50.499989v50.499989m1.5-50.499989v50.499989m1.5-50.499989v50.499989m-78-50.499989v50.499989m1.5-50.499989v50.499989m1.5-50.499989v50.499989m1.5-50.499989v50.499989m1.5-50.499989v50.499989m1.5-50.499989v50.499989m1.5-50.499989v50.499989m1.5-50.499989v50.499989m1.5-50.499989v50.499989m1.5-50.499989v50.499989m1.5-50.499989v50.499989m1.5-50.499989v50.499989m1.5-50.499989v50.499989m1.5-50.499989v50.499989m1.5-50.499989v50.499989m1.5-50.499989v50.499989m1.5-50.499989v50.499989m1.5-50.499989v50.499989m1.5-50.499989v50.499989m1.5-50.499989v50.499989m1.5-50.499989v50.499989m1.5-50.499989v50.499989m1.5-50.499989v50.499989m1.5-50.499989v50.499989m1.5-50.499989v50.499989m1.5-50.499989v50.499989m1.5-50.499989v50.499989m1.5-50.499989v50.499989m1.5-50.499989v50.499989m1.5-50.499989v50.499989m1.5-50.499989v50.499989m1.5-50.499989v50.499989m1.5-50.499989v50.499989m1.5-50.499989v50.499989m1.5-50.499989v50.499989m1.5-50.499989v50.499989m1.5-50.499989v50.499989m1.5-50.499989v50.499989m1.5-50.499989v50.499989m1.5-50.499989v50.499989m1.5-50.499989v50.499989m1.5-50.499989v50.499989m1.5-50.499989v50.499989m-63-50.749989h78v50.999989h-78zm .25 0h-78.5m78.5 1.5h-78.5m78.5 1.499999h-78.5m78.5 1.5h-78.5m78.5 1.5h-78.5m78.5 1.5h-78.5m78.5 1.5h-78.5m78.5 1.499999h-78.5m78.5 1.49999995h-78.5m78.5 1.50000005h-78.5m78.5 1.5h-78.5m78.5 1.5h-78.5m78.5 1.5h-78.5m78.5 1.5h-78.5m78.5 1.5h-78.5m78.5 1.5h-78.5m78.5 1.500001h-78.5m78.5 1.5h-78.5m78.5 1.5h-78.5m78.5 1.5h-78.5m78.5 1.5h-78.5m78.5 1.5h-78.5m78.5 1.49999h-78.5m78.5 1.5h-78.5m78.5 1.5h-78.5m78.5 1.5h-78.5m78.5 1.5h-78.5m78.5 1.5h-78.5m78.5 1.5h-78.5m78.5 1.5h-78.5m78.5 1.5h-78.5m78.5 1.5h-78.5m78.5 1.5h-78.5m78.5 1.5h-78.5m78.5 1.5h-78.5m64.75-50.749989v50.499989m1.5-50.499989v50.499989m1.5-50.499989v50.499989m1.5-50.499989v50.499989m1.5-50.499989v50.499989m1.5-50.499989v50.499989m1.5-50.499989v50.499989m1.5-50.499989v50.499989m1.5-50.499989v50.499989m1.5-50.499989v50.499989m-78-50.499989v50.499989m1.5-50.499989v50.499989m1.5-50.499989v50.499989m1.5-50.499989v50.499989m1.5-50.499989v50.499989m1.5-50.499989v50.499989m1.5-50.499989v50.499989m1.5-50.499989v50.499989m1.5-50.499989v50.499989m1.5-50.499989v50.499989m1.5-50.499989v50.499989m1.5-50.499989v50.499989m1.5-50.499989v50.499989m1.5-50.499989v50.499989m1.5-50.499989v50.499989m1.5-50.499989v50.499989m1.5-50.499989v50.499989m1.5-50.499989v50.499989m1.5-50.499989v50.499989m1.5-50.499989v50.499989m1.5-50.499989v50.499989m1.5-50.499989v50.499989m1.5-50.499989v50.499989m1.5-50.499989v50.499989m1.5-50.499989v50.499989m1.5-50.499989v50.499989m1.5-50.499989v50.499989m1.5-50.499989v50.499989m1.5-50.499989v50.499989m1.5-50.499989v50.499989m1.5-50.499989v50.499989m1.5-50.499989v50.499989m1.5-50.499989v50.499989m1.5-50.499989v50.499989m1.5-50.499989v50.499989m1.5-50.499989v50.499989m1.5-50.499989v50.499989m1.5-50.499989v50.499989m1.5-50.499989v50.499989m1.5-50.499989v50.499989m1.5-50.499989v50.499989m1.5-50.499989v50.499989m1.5-50.499989v50.499989m-63-50.749989h78v50.999989h-78zm .25022 0h-78.5m78.5 1.5h-78.5m78.5 1.499999h-78.5m78.5 1.5h-78.5m78.5 1.5h-78.5m78.5 1.5h-78.5m78.5 1.5h-78.5m78.5 1.499999h-78.5m78.5 1.49999995h-78.5m78.5 1.50000005h-78.5m78.5 1.5h-78.5m78.5 1.5h-78.5m78.5 1.5h-78.5m78.5 1.5h-78.5m78.5 1.5h-78.5m78.5 1.5h-78.5m78.5 1.500001h-78.5m78.5 1.5h-78.5m78.5 1.5h-78.5m78.5 1.5h-78.5m78.5 1.5h-78.5m78.5 1.5h-78.5m78.5 1.49999h-78.5m78.5 1.5h-78.5m78.5 1.5h-78.5m78.5 1.5h-78.5m78.5 1.5h-78.5m78.5 1.5h-78.5m78.5 1.5h-78.5m78.5 1.5h-78.5m78.5 1.5h-78.5m78.5 1.5h-78.5m78.5 1.5h-78.5m78.5 1.5h-78.5m78.5 1.5h-78.5m64.75-50.749989v50.499989m1.5-50.499989v50.499989m1.5-50.499989v50.499989m1.5-50.499989v50.499989m1.5-50.499989v50.499989m1.5-50.499989v50.499989m1.5-50.499989v50.499989m1.5-50.499989v50.499989m1.5-50.499989v50.499989m1.5-50.499989v50.499989m-78-50.499989v50.499989m1.5-50.499989v50.499989m1.5-50.499989v50.499989m1.5-50.499989v50.499989m1.5-50.499989v50.499989m1.5-50.499989v50.499989m1.5-50.499989v50.499989m1.5-50.499989v50.499989m1.5-50.499989v50.499989m1.5-50.499989v50.499989m1.5-50.499989v50.499989m1.5-50.499989v50.499989m1.5-50.499989v50.499989m1.5-50.499989v50.499989m1.5-50.499989v50.499989m1.5-50.499989v50.499989m1.5-50.499989v50.499989m1.5-50.499989v50.499989m1.5-50.499989v50.499989m1.5-50.499989v50.499989m1.5-50.499989v50.499989m1.5-50.499989v50.499989m1.5-50.499989v50.499989m1.5-50.499989v50.499989m1.5-50.499989v50.499989m1.5-50.499989v50.499989m1.5-50.499989v50.499989m1.5-50.499989v50.499989m1.5-50.499989v50.499989m1.5-50.499989v50.499989m1.5-50.499989v50.499989m1.5-50.499989v50.499989m1.5-50.499989v50.499989m1.5-50.499989v50.499989m1.5-50.499989v50.499989m1.5-50.499989v50.499989m1.5-50.499989v50.499989m1.5-50.499989v50.499989m1.5-50.499989v50.499989m1.5-50.499989v50.499989m1.5-50.499989v50.499989m1.5-50.499989v50.499989m1.5-50.499989v50.499989m-63-50.749989h78v50.999989h-78zm234.24978-50.99967h-78.5m78.5 1.5h-78.5m78.5 1.5h-78.5m78.5 1.5h-78.5m78.5 1.5h-78.5m78.5 1.5h-78.5m78.5 1.5h-78.5m78.5 1.5h-78.5m78.5 1.5h-78.5m78.5 1.5h-78.5m78.5 1.5h-78.5m78.5 1.5h-78.5m78.5 1.5h-78.5m78.5 1.5h-78.5m78.5 1.5h-78.5m78.5 1.5h-78.5m78.5 1.5h-78.5m78.5 1.5h-78.5m78.5 1.5h-78.5m78.5 1.5h-78.5m78.5 1.5h-78.5m78.5 1.5h-78.5m78.5 1.49999h-78.5m78.5 1.5h-78.5m78.5 1.5h-78.5m78.5 1.5h-78.5m78.5 1.5h-78.5m78.5 1.5h-78.5m78.5 1.5h-78.5m78.5 1.5h-78.5m78.5 1.5h-78.5m78.5 1.5h-78.5m78.5 1.5h-78.5m78.5 1.5h-78.5m78.5 1.5h-78.5m64.75-50.74999v50.49999m1.5-50.49999v50.49999m1.5-50.49999v50.49999m1.5-50.49999v50.49999m1.5-50.49999v50.49999m1.5-50.49999v50.49999m1.5-50.49999v50.49999m1.5-50.49999v50.49999m1.5-50.49999v50.49999m1.5-50.49999v50.49999m-78-50.49999v50.49999m1.5-50.49999v50.49999m1.5-50.49999v50.49999m1.5-50.49999v50.49999m1.5-50.49999v50.49999m1.5-50.49999v50.49999m1.5-50.49999v50.49999m1.5-50.49999v50.49999m1.5-50.49999v50.49999m1.5-50.49999v50.49999m1.5-50.49999v50.49999m1.5-50.49999v50.49999m1.5-50.49999v50.49999m1.5-50.49999v50.49999m1.5-50.49999v50.49999m1.5-50.49999v50.49999m1.5-50.49999v50.49999m1.5-50.49999v50.49999m1.5-50.49999v50.49999m1.5-50.49999v50.49999m1.5-50.49999v50.49999m1.5-50.49999v50.49999m1.5-50.49999v50.49999m1.5-50.49999v50.49999m1.5-50.49999v50.49999m1.5-50.49999v50.49999m1.5-50.49999v50.49999m1.5-50.49999v50.49999m1.5-50.49999v50.49999m1.5-50.49999v50.49999m1.5-50.49999v50.49999m1.5-50.49999v50.49999m1.5-50.49999v50.49999m1.5-50.49999v50.49999m1.5-50.49999v50.49999m1.5-50.49999v50.49999m1.5-50.49999v50.49999m1.5-50.49999v50.49999m1.5-50.49999v50.49999m1.5-50.49999v50.49999m1.5-50.49999v50.49999m1.5-50.49999v50.49999m1.5-50.49999v50.49999m-63-50.74999h78v50.99999h-78zm .25 0h-78.5m78.5 1.5h-78.5m78.5 1.5h-78.5m78.5 1.5h-78.5m78.5 1.5h-78.5m78.5 1.5h-78.5m78.5 1.5h-78.5m78.5 1.5h-78.5m78.5 1.5h-78.5m78.5 1.5h-78.5m78.5 1.5h-78.5m78.5 1.5h-78.5m78.5 1.5h-78.5m78.5 1.5h-78.5m78.5 1.5h-78.5m78.5 1.5h-78.5m78.5 1.5h-78.5m78.5 1.5h-78.5m78.5 1.5h-78.5m78.5 1.5h-78.5m78.5 1.5h-78.5m78.5 1.5h-78.5m78.5 1.49999h-78.5m78.5 1.5h-78.5m78.5 1.5h-78.5m78.5 1.5h-78.5m78.5 1.5h-78.5m78.5 1.5h-78.5m78.5 1.5h-78.5m78.5 1.5h-78.5m78.5 1.5h-78.5m78.5 1.5h-78.5m78.5 1.5h-78.5m78.5 1.5h-78.5m78.5 1.5h-78.5m64.75-50.74999v50.49999m1.5-50.49999v50.49999m1.5-50.49999v50.49999m1.5-50.49999v50.49999m1.5-50.49999v50.49999m1.5-50.49999v50.49999m1.5-50.49999v50.49999m1.5-50.49999v50.49999m1.5-50.49999v50.49999m1.5-50.49999v50.49999m-78-50.49999v50.49999m1.5-50.49999v50.49999m1.5-50.49999v50.49999m1.5-50.49999v50.49999m1.5-50.49999v50.49999m1.5-50.49999v50.49999m1.5-50.49999v50.49999m1.5-50.49999v50.49999m1.5-50.49999v50.49999m1.5-50.49999v50.49999m1.5-50.49999v50.49999m1.5-50.49999v50.49999m1.5-50.49999v50.49999m1.5-50.49999v50.49999m1.5-50.49999v50.49999m1.5-50.49999v50.49999m1.5-50.49999v50.49999m1.5-50.49999v50.49999m1.5-50.49999v50.49999m1.5-50.49999v50.49999m1.5-50.49999v50.49999m1.5-50.49999v50.49999m1.5-50.49999v50.49999m1.5-50.49999v50.49999m1.5-50.49999v50.49999m1.5-50.49999v50.49999m1.5-50.49999v50.49999m1.5-50.49999v50.49999m1.5-50.49999v50.49999m1.5-50.49999v50.49999m1.5-50.49999v50.49999m1.5-50.49999v50.49999m1.5-50.49999v50.49999m1.5-50.49999v50.49999m1.5-50.49999v50.49999m1.5-50.49999v50.49999m1.5-50.49999v50.49999m1.5-50.49999v50.49999m1.5-50.49999v50.49999m1.5-50.49999v50.49999m1.5-50.49999v50.49999m1.5-50.49999v50.49999m1.5-50.49999v50.49999m-63-50.74999h78v50.99999h-78zm .25022 0h-78.5m78.5 1.5h-78.5m78.5 1.5h-78.5m78.5 1.5h-78.5m78.5 1.5h-78.5m78.5 1.5h-78.5m78.5 1.5h-78.5m78.5 1.5h-78.5m78.5 1.5h-78.5m78.5 1.5h-78.5m78.5 1.5h-78.5m78.5 1.5h-78.5m78.5 1.5h-78.5m78.5 1.5h-78.5m78.5 1.5h-78.5m78.5 1.5h-78.5m78.5 1.5h-78.5m78.5 1.5h-78.5m78.5 1.5h-78.5m78.5 1.5h-78.5m78.5 1.5h-78.5m78.5 1.5h-78.5m78.5 1.49999h-78.5m78.5 1.5h-78.5m78.5 1.5h-78.5m78.5 1.5h-78.5m78.5 1.5h-78.5m78.5 1.5h-78.5m78.5 1.5h-78.5m78.5 1.5h-78.5m78.5 1.5h-78.5m78.5 1.5h-78.5m78.5 1.5h-78.5m78.5 1.5h-78.5m78.5 1.5h-78.5m64.75-50.74999v50.49999m1.5-50.49999v50.49999m1.5-50.49999v50.49999m1.5-50.49999v50.49999m1.5-50.49999v50.49999m1.5-50.49999v50.49999m1.5-50.49999v50.49999m1.5-50.49999v50.49999m1.5-50.49999v50.49999m1.5-50.49999v50.49999m-78-50.49999v50.49999m1.5-50.49999v50.49999m1.5-50.49999v50.49999m1.5-50.49999v50.49999m1.5-50.49999v50.49999m1.5-50.49999v50.49999m1.5-50.49999v50.49999m1.5-50.49999v50.49999m1.5-50.49999v50.49999m1.5-50.49999v50.49999m1.5-50.49999v50.49999m1.5-50.49999v50.49999m1.5-50.49999v50.49999m1.5-50.49999v50.49999m1.5-50.49999v50.49999m1.5-50.49999v50.49999m1.5-50.49999v50.49999m1.5-50.49999v50.49999m1.5-50.49999v50.49999m1.5-50.49999v50.49999m1.5-50.49999v50.49999m1.5-50.49999v50.49999m1.5-50.49999v50.49999m1.5-50.49999v50.49999m1.5-50.49999v50.49999m1.5-50.49999v50.49999m1.5-50.49999v50.49999m1.5-50.49999v50.49999m1.5-50.49999v50.49999m1.5-50.49999v50.49999m1.5-50.49999v50.49999m1.5-50.49999v50.49999m1.5-50.49999v50.49999m1.5-50.49999v50.49999m1.5-50.49999v50.49999m1.5-50.49999v50.49999m1.5-50.49999v50.49999m1.5-50.49999v50.49999m1.5-50.49999v50.49999m1.5-50.49999v50.49999m1.5-50.49999v50.49999m1.5-50.49999v50.49999m1.5-50.49999v50.49999m-63-50.74999h78v50.99999h-78zm234.24978 152.999232h-78.5m78.5 1.5h-78.5m78.5 1.5h-78.5m78.5 1.5h-78.5m78.5 1.5h-78.5m78.5 1.5h-78.5m78.5 1.5h-78.5m78.5 1.499999h-78.5m78.5 1.5h-78.5m78.5 1.5h-78.5m78.5 1.5h-78.5m78.5 1.5h-78.5m78.5 1.5h-78.5m78.5 1.5h-78.5m78.5 1.5h-78.5m78.5 1.5h-78.5m78.5 1.5h-78.5m78.5 1.5h-78.5m78.5 1.5h-78.5m78.5 1.5h-78.5m78.5 1.5h-78.5m78.5 1.5h-78.5m78.5 1.49999h-78.5m78.5 1.5h-78.5m78.5 1.5h-78.5m78.5 1.5h-78.5m78.5 1.5h-78.5m78.5 1.5h-78.5m78.5 1.5h-78.5m78.5 1.5h-78.5m78.5 1.5h-78.5m78.5 1.5h-78.5m78.5 1.5h-78.5m78.5 1.5h-78.5m78.5 1.5h-78.5m64.75-50.749989v50.499989m1.5-50.499989v50.499989m1.5-50.499989v50.499989m1.5-50.499989v50.499989m1.5-50.499989v50.499989m1.5-50.499989v50.499989m1.5-50.499989v50.499989m1.5-50.499989v50.499989m1.5-50.499989v50.499989m1.5-50.499989v50.499989m-78-50.499989v50.499989m1.5-50.499989v50.499989m1.5-50.499989v50.499989m1.5-50.499989v50.499989m1.5-50.499989v50.499989m1.5-50.499989v50.499989m1.5-50.499989v50.499989m1.5-50.499989v50.499989m1.5-50.499989v50.499989m1.5-50.499989v50.499989m1.5-50.499989v50.499989m1.5-50.499989v50.499989m1.5-50.499989v50.499989m1.5-50.499989v50.499989m1.5-50.499989v50.499989m1.5-50.499989v50.499989m1.5-50.499989v50.499989m1.5-50.499989v50.499989m1.5-50.499989v50.499989m1.5-50.499989v50.499989m1.5-50.499989v50.499989m1.5-50.499989v50.499989m1.5-50.499989v50.499989m1.5-50.499989v50.499989m1.5-50.499989v50.499989m1.5-50.499989v50.499989m1.5-50.499989v50.499989m1.5-50.499989v50.499989m1.5-50.499989v50.499989m1.5-50.499989v50.499989m1.5-50.499989v50.499989m1.5-50.499989v50.499989m1.5-50.499989v50.499989m1.5-50.499989v50.499989m1.5-50.499989v50.499989m1.5-50.499989v50.499989m1.5-50.499989v50.499989m1.5-50.499989v50.499989m1.5-50.499989v50.499989m1.5-50.499989v50.499989m1.5-50.499989v50.499989m1.5-50.499989v50.499989m1.5-50.499989v50.499989m-63-50.749989h78v50.999989h-78zm .25 0h-78.5m78.5 1.5h-78.5m78.5 1.5h-78.5m78.5 1.5h-78.5m78.5 1.5h-78.5m78.5 1.5h-78.5m78.5 1.5h-78.5m78.5 1.499999h-78.5m78.5 1.5h-78.5m78.5 1.5h-78.5m78.5 1.5h-78.5m78.5 1.5h-78.5m78.5 1.5h-78.5m78.5 1.5h-78.5m78.5 1.5h-78.5m78.5 1.5h-78.5m78.5 1.5h-78.5m78.5 1.5h-78.5m78.5 1.5h-78.5m78.5 1.5h-78.5m78.5 1.5h-78.5m78.5 1.5h-78.5m78.5 1.49999h-78.5m78.5 1.5h-78.5m78.5 1.5h-78.5m78.5 1.5h-78.5m78.5 1.5h-78.5m78.5 1.5h-78.5m78.5 1.5h-78.5m78.5 1.5h-78.5m78.5 1.5h-78.5m78.5 1.5h-78.5m78.5 1.5h-78.5m78.5 1.5h-78.5m78.5 1.5h-78.5m64.75-50.749989v50.499989m1.5-50.499989v50.499989m1.5-50.499989v50.499989m1.5-50.499989v50.499989m1.5-50.499989v50.499989m1.5-50.499989v50.499989m1.5-50.499989v50.499989m1.5-50.499989v50.499989m1.5-50.499989v50.499989m1.5-50.499989v50.499989m-78-50.499989v50.499989m1.5-50.499989v50.499989m1.5-50.499989v50.499989m1.5-50.499989v50.499989m1.5-50.499989v50.499989m1.5-50.499989v50.499989m1.5-50.499989v50.499989m1.5-50.499989v50.499989m1.5-50.499989v50.499989m1.5-50.499989v50.499989m1.5-50.499989v50.499989m1.5-50.499989v50.499989m1.5-50.499989v50.499989m1.5-50.499989v50.499989m1.5-50.499989v50.499989m1.5-50.499989v50.499989m1.5-50.499989v50.499989m1.5-50.499989v50.499989m1.5-50.499989v50.499989m1.5-50.499989v50.499989m1.5-50.499989v50.499989m1.5-50.499989v50.499989m1.5-50.499989v50.499989m1.5-50.499989v50.499989m1.5-50.499989v50.499989m1.5-50.499989v50.499989m1.5-50.499989v50.499989m1.5-50.499989v50.499989m1.5-50.499989v50.499989m1.5-50.499989v50.499989m1.5-50.499989v50.499989m1.5-50.499989v50.499989m1.5-50.499989v50.499989m1.5-50.499989v50.499989m1.5-50.499989v50.499989m1.5-50.499989v50.499989m1.5-50.499989v50.499989m1.5-50.499989v50.499989m1.5-50.499989v50.499989m1.5-50.499989v50.499989m1.5-50.499989v50.499989m1.5-50.499989v50.499989m1.5-50.499989v50.499989m-63-50.749989h78v50.999989h-78zm .25022 0h-78.5m78.5 1.5h-78.5m78.5 1.5h-78.5m78.5 1.5h-78.5m78.5 1.5h-78.5m78.5 1.5h-78.5m78.5 1.5h-78.5m78.5 1.499999h-78.5m78.5 1.5h-78.5m78.5 1.5h-78.5m78.5 1.5h-78.5m78.5 1.5h-78.5m78.5 1.5h-78.5m78.5 1.5h-78.5m78.5 1.5h-78.5m78.5 1.5h-78.5m78.5 1.5h-78.5m78.5 1.5h-78.5m78.5 1.5h-78.5m78.5 1.5h-78.5m78.5 1.5h-78.5m78.5 1.5h-78.5m78.5 1.49999h-78.5m78.5 1.5h-78.5m78.5 1.5h-78.5m78.5 1.5h-78.5m78.5 1.5h-78.5m78.5 1.5h-78.5m78.5 1.5h-78.5m78.5 1.5h-78.5m78.5 1.5h-78.5m78.5 1.5h-78.5m78.5 1.5h-78.5m78.5 1.5h-78.5m78.5 1.5h-78.5m64.75-50.749989v50.499989m1.5-50.499989v50.499989m1.5-50.499989v50.499989m1.5-50.499989v50.499989m1.5-50.499989v50.499989m1.5-50.499989v50.499989m1.5-50.499989v50.499989m1.5-50.499989v50.499989m1.5-50.499989v50.499989m1.5-50.499989v50.499989m-78-50.499989v50.499989m1.5-50.499989v50.499989m1.5-50.499989v50.499989m1.5-50.499989v50.499989m1.5-50.499989v50.499989m1.5-50.499989v50.499989m1.5-50.499989v50.499989m1.5-50.499989v50.499989m1.5-50.499989v50.499989m1.5-50.499989v50.499989m1.5-50.499989v50.499989m1.5-50.499989v50.499989m1.5-50.499989v50.499989m1.5-50.499989v50.499989m1.5-50.499989v50.499989m1.5-50.499989v50.499989m1.5-50.499989v50.499989m1.5-50.499989v50.499989m1.5-50.499989v50.499989m1.5-50.499989v50.499989m1.5-50.499989v50.499989m1.5-50.499989v50.499989m1.5-50.499989v50.499989m1.5-50.499989v50.499989m1.5-50.499989v50.499989m1.5-50.499989v50.499989m1.5-50.499989v50.499989m1.5-50.499989v50.499989m1.5-50.499989v50.499989m1.5-50.499989v50.499989m1.5-50.499989v50.499989m1.5-50.499989v50.499989m1.5-50.499989v50.499989m1.5-50.499989v50.499989m1.5-50.499989v50.499989m1.5-50.499989v50.499989m1.5-50.499989v50.499989m1.5-50.499989v50.499989m1.5-50.499989v50.499989m1.5-50.499989v50.499989m1.5-50.499989v50.499989m1.5-50.499989v50.499989m1.5-50.499989v50.499989m-63-50.749989h78v50.999989h-78zm234.24978-50.99967h-78.5m78.5 1.5h-78.5m78.5 1.5h-78.5m78.5 1.5h-78.5m78.5 1.5h-78.5m78.5 1.5h-78.5m78.5 1.5h-78.5m78.5 1.5h-78.5m78.5 1.5h-78.5m78.5 1.5h-78.5m78.5 1.5h-78.5m78.5 1.5h-78.5m78.5 1.5h-78.5m78.5 1.5h-78.5m78.5 1.5h-78.5m78.5 1.5h-78.5m78.5 1.5h-78.5m78.5 1.5h-78.5m78.5 1.5h-78.5m78.5 1.5h-78.5m78.5 1.5h-78.5m78.5 1.5h-78.5m78.5 1.49999h-78.5m78.5 1.5h-78.5m78.5 1.5h-78.5m78.5 1.5h-78.5m78.5 1.5h-78.5m78.5 1.5h-78.5m78.5 1.5h-78.5m78.5 1.5h-78.5m78.5 1.5h-78.5m78.5 1.5h-78.5m78.5 1.5h-78.5m78.5 1.5h-78.5m78.5 1.5h-78.5m64.75-50.74999v50.49999m1.5-50.49999v50.49999m1.5-50.49999v50.49999m1.5-50.49999v50.49999m1.5-50.49999v50.49999m1.5-50.49999v50.49999m1.5-50.49999v50.49999m1.5-50.49999v50.49999m1.5-50.49999v50.49999m1.5-50.49999v50.49999m-78-50.49999v50.49999m1.5-50.49999v50.49999m1.5-50.49999v50.49999m1.5-50.49999v50.49999m1.5-50.49999v50.49999m1.5-50.49999v50.49999m1.5-50.49999v50.49999m1.5-50.49999v50.49999m1.5-50.49999v50.49999m1.5-50.49999v50.49999m1.5-50.49999v50.49999m1.5-50.49999v50.49999m1.5-50.49999v50.49999m1.5-50.49999v50.49999m1.5-50.49999v50.49999m1.5-50.49999v50.49999m1.5-50.49999v50.49999m1.5-50.49999v50.49999m1.5-50.49999v50.49999m1.5-50.49999v50.49999m1.5-50.49999v50.49999m1.5-50.49999v50.49999m1.5-50.49999v50.49999m1.5-50.49999v50.49999m1.5-50.49999v50.49999m1.5-50.49999v50.49999m1.5-50.49999v50.49999m1.5-50.49999v50.49999m1.5-50.49999v50.49999m1.5-50.49999v50.49999m1.5-50.49999v50.49999m1.5-50.49999v50.49999m1.5-50.49999v50.49999m1.5-50.49999v50.49999m1.5-50.49999v50.49999m1.5-50.49999v50.49999m1.5-50.49999v50.49999m1.5-50.49999v50.49999m1.5-50.49999v50.49999m1.5-50.49999v50.49999m1.5-50.49999v50.49999m1.5-50.49999v50.49999m1.5-50.49999v50.49999m-63-50.74999h78v50.99999h-78zm .25 0h-78.5m78.5 1.5h-78.5m78.5 1.5h-78.5m78.5 1.5h-78.5m78.5 1.5h-78.5m78.5 1.5h-78.5m78.5 1.5h-78.5m78.5 1.5h-78.5m78.5 1.5h-78.5m78.5 1.5h-78.5m78.5 1.5h-78.5m78.5 1.5h-78.5m78.5 1.5h-78.5m78.5 1.5h-78.5m78.5 1.5h-78.5m78.5 1.5h-78.5m78.5 1.5h-78.5m78.5 1.5h-78.5m78.5 1.5h-78.5m78.5 1.5h-78.5m78.5 1.5h-78.5m78.5 1.5h-78.5m78.5 1.49999h-78.5m78.5 1.5h-78.5m78.5 1.5h-78.5m78.5 1.5h-78.5m78.5 1.5h-78.5m78.5 1.5h-78.5m78.5 1.5h-78.5m78.5 1.5h-78.5m78.5 1.5h-78.5m78.5 1.5h-78.5m78.5 1.5h-78.5m78.5 1.5h-78.5m78.5 1.5h-78.5m64.75-50.74999v50.49999m1.5-50.49999v50.49999m1.5-50.49999v50.49999m1.5-50.49999v50.49999m1.5-50.49999v50.49999m1.5-50.49999v50.49999m1.5-50.49999v50.49999m1.5-50.49999v50.49999m1.5-50.49999v50.49999m1.5-50.49999v50.49999m-78-50.49999v50.49999m1.5-50.49999v50.49999m1.5-50.49999v50.49999m1.5-50.49999v50.49999m1.5-50.49999v50.49999m1.5-50.49999v50.49999m1.5-50.49999v50.49999m1.5-50.49999v50.49999m1.5-50.49999v50.49999m1.5-50.49999v50.49999m1.5-50.49999v50.49999m1.5-50.49999v50.49999m1.5-50.49999v50.49999m1.5-50.49999v50.49999m1.5-50.49999v50.49999m1.5-50.49999v50.49999m1.5-50.49999v50.49999m1.5-50.49999v50.49999m1.5-50.49999v50.49999m1.5-50.49999v50.49999m1.5-50.49999v50.49999m1.5-50.49999v50.49999m1.5-50.49999v50.49999m1.5-50.49999v50.49999m1.5-50.49999v50.49999m1.5-50.49999v50.49999m1.5-50.49999v50.49999m1.5-50.49999v50.49999m1.5-50.49999v50.49999m1.5-50.49999v50.49999m1.5-50.49999v50.49999m1.5-50.49999v50.49999m1.5-50.49999v50.49999m1.5-50.49999v50.49999m1.5-50.49999v50.49999m1.5-50.49999v50.49999m1.5-50.49999v50.49999m1.5-50.49999v50.49999m1.5-50.49999v50.49999m1.5-50.49999v50.49999m1.5-50.49999v50.49999m1.5-50.49999v50.49999m1.5-50.49999v50.49999m-63-50.74999h78v50.99999h-78zm .25022 0h-78.5m78.5 1.5h-78.5m78.5 1.5h-78.5m78.5 1.5h-78.5m78.5 1.5h-78.5m78.5 1.5h-78.5m78.5 1.5h-78.5m78.5 1.5h-78.5m78.5 1.5h-78.5m78.5 1.5h-78.5m78.5 1.5h-78.5m78.5 1.5h-78.5m78.5 1.5h-78.5m78.5 1.5h-78.5m78.5 1.5h-78.5m78.5 1.5h-78.5m78.5 1.5h-78.5m78.5 1.5h-78.5m78.5 1.5h-78.5m78.5 1.5h-78.5m78.5 1.5h-78.5m78.5 1.5h-78.5m78.5 1.49999h-78.5m78.5 1.5h-78.5m78.5 1.5h-78.5m78.5 1.5h-78.5m78.5 1.5h-78.5m78.5 1.5h-78.5m78.5 1.5h-78.5m78.5 1.5h-78.5m78.5 1.5h-78.5m78.5 1.5h-78.5m78.5 1.5h-78.5m78.5 1.5h-78.5m78.5 1.5h-78.5m64.75-50.74999v50.49999m1.5-50.49999v50.49999m1.5-50.49999v50.49999m1.5-50.49999v50.49999m1.5-50.49999v50.49999m1.5-50.49999v50.49999m1.5-50.49999v50.49999m1.5-50.49999v50.49999m1.5-50.49999v50.49999m1.5-50.49999v50.49999m-78-50.49999v50.49999m1.5-50.49999v50.49999m1.5-50.49999v50.49999m1.5-50.49999v50.49999m1.5-50.49999v50.49999m1.5-50.49999v50.49999m1.5-50.49999v50.49999m1.5-50.49999v50.49999m1.5-50.49999v50.49999m1.5-50.49999v50.49999m1.5-50.49999v50.49999m1.5-50.49999v50.49999m1.5-50.49999v50.49999m1.5-50.49999v50.49999m1.5-50.49999v50.49999m1.5-50.49999v50.49999m1.5-50.49999v50.49999m1.5-50.49999v50.49999m1.5-50.49999v50.49999m1.5-50.49999v50.49999m1.5-50.49999v50.49999m1.5-50.49999v50.49999m1.5-50.49999v50.49999m1.5-50.49999v50.49999m1.5-50.49999v50.49999m1.5-50.49999v50.49999m1.5-50.49999v50.49999m1.5-50.49999v50.49999m1.5-50.49999v50.49999m1.5-50.49999v50.49999m1.5-50.49999v50.49999m1.5-50.49999v50.49999m1.5-50.49999v50.49999m1.5-50.49999v50.49999m1.5-50.49999v50.49999m1.5-50.49999v50.49999m1.5-50.49999v50.49999m1.5-50.49999v50.49999m1.5-50.49999v50.49999m1.5-50.49999v50.49999m1.5-50.49999v50.49999m1.5-50.49999v50.49999m1.5-50.49999v50.49999m-63-50.74999h78v50.99999h-78z" shape-rendering="crispEdges" transform="translate(-792.6382 136.98527)"/></clipPath><g id="layer1"><rect id="breakerRear" fill="#575d5e" fill-rule="evenodd" height="343" stroke="#333" stroke-width=".80000001" width="348"/><g id="operationGroup" stroke="#333" stroke-width=".80000001"><rect id="rect5200" fill="#575d5e" fill-rule="evenodd" height="204" stroke-linecap="square" width="42" x="306" y="81.499992"/><circle id="circle5202" cx="327" cy="103.74998" fill="none" r="8.75" stroke-linecap="round" stroke-linejoin="round"/><circle id="circle5204" cx="327" cy="134.89999" fill="none" r="12.5" stroke-linecap="round" stroke-linejoin="round"/><circle id="circle5206" cx="327" cy="166.89996" fill="none" r="12.5" stroke-linecap="round" stroke-linejoin="round"/></g><g id="breakerFront"><rect id="rect4146-9" fill="#575d5e" height="204" stroke="#333" stroke-width=".80000001" width="210" x="87.5" y="81.499985"/><path id="path5358" clip-path="url(#clipPath5384)" d="m633.22926 335.65775h-41.49999m41.49999 1.5h-41.49999m41.49999 1.5h-41.49999m41.49999 1.5h-41.49999m41.49999 1.5h-41.49999m41.49999 1.5h-41.49999m41.49999 1.5h-41.49999m41.49999 1.5h-41.49999m41.49999 1.5h-41.49999m41.49999 1.5h-41.49999m41.49999 1.5h-41.49999m41.49999 1.5h-41.49999m41.49999 1.5h-41.49999m41.49999 1.5h-41.49999m41.49999 1.5h-41.49999m41.49999 1.5h-41.49999m41.49999 1.5h-41.49999m41.49999 1.5h-41.49999m41.49999 1.5h-41.49999m41.49999 1.5h-41.49999m41.49999 1.5h-41.49999m41.49999 1.5h-41.49999m41.49999.49992h-41.49999m41.49999-.5h-41.49999m.5-31.99992v32.49992m1.5-32.49992v32.49992m1.5-32.49992v32.49992m1.5-32.49992v32.49992m1.5-32.49992v32.49992m1.5-32.49992v32.49992m1.5-32.49992v32.49992m1.5-32.49992v32.49992m1.49999-32.49992v32.49992m1.5-32.49992v32.49992m1.5-32.49992v32.49992m1.5-32.49992v32.49992m1.5-32.49992v32.49992m1.5-32.49992v32.49992m1.5-32.49992v32.49992m1.5-32.49992v32.49992m1.5-32.49992v32.49992m1.5-32.49992v32.49992m1.5-32.49992v32.49992m1.5-32.49992v32.49992m1.5-32.49992v32.49992m1.5-32.49992v32.49992m1.5-32.49992v32.49992m1.5-32.49992v32.49992m1.5-32.49992v32.49992m1.5-32.49992v32.49992m1.5-32.49992v32.49992m1.5-32.49992v32.49992m0-32.49992v32.49992m-40.49999-31.99992h40.49999v31.49992h-40.49999zm.49999 0h-65.49999m65.49999 1.5h-65.49999m65.49999 1.5h-65.49999m65.49999 1.5h-65.49999m65.49999 1.5h-65.49999m65.49999 1.5h-65.49999m65.49999 1.5h-65.49999m65.49999 1.5h-65.49999m65.49999 1.5h-65.49999m65.49999 1.5h-65.49999m65.49999 1.5h-65.49999m65.49999 1.5h-65.49999m65.49999 1.5h-65.49999m65.49999 1.5h-65.49999m65.49999 1.5h-65.49999m65.49999 1.5h-65.49999m65.49999 1.5h-65.49999m65.49999 1.5h-65.49999m65.49999 1.5h-65.49999m65.49999 1.5h-65.49999m65.49999 1.5h-65.49999m65.49999 1.5h-65.49999m65.49999.49992h-65.49999m65.49999-.5h-65.49999m.5-31.99992v32.49992m1.5-32.49992v32.49992m1.5-32.49992v32.49992m1.5-32.49992v32.49992m1.5-32.49992v32.49992m1.5-32.49992v32.49992m1.5-32.49992v32.49992m1.5-32.49992v32.49992m1.49999-32.49992v32.49992m1.5-32.49992v32.49992m1.5-32.49992v32.49992m1.5-32.49992v32.49992m1.5-32.49992v32.49992m1.5-32.49992v32.49992m1.5-32.49992v32.49992m1.5-32.49992v32.49992m1.5-32.49992v32.49992m1.5-32.49992v32.49992m1.5-32.49992v32.49992m1.5-32.49992v32.49992m1.5-32.49992v32.49992m1.5-32.49992v32.49992m1.5-32.49992v32.49992m1.5-32.49992v32.49992m1.5-32.49992v32.49992m1.5-32.49992v32.49992m1.5-32.49992v32.49992m1.5-32.49992v32.49992m1.5-32.49992v32.49992m1.5-32.49992v32.49992m1.5-32.49992v32.49992m1.5-32.49992v32.49992m1.5-32.49992v32.49992m1.5-32.49992v32.49992m1.5-32.49992v32.49992m1.5-32.49992v32.49992m1.5-32.49992v32.49992m1.5-32.49992v32.49992m1.5-32.49992v32.49992m1.5-32.49992v32.49992m1.5-32.49992v32.49992m1.5-32.49992v32.49992m1.5-32.49992v32.49992m1.5-32.49992v32.49992m-64.49999-31.99992h64.49999v31.49992h-64.49999zm.49999 0h-65.49999m65.49999 1.5h-65.49999m65.49999 1.5h-65.49999m65.49999 1.5h-65.49999m65.49999 1.5h-65.49999m65.49999 1.5h-65.49999m65.49999 1.5h-65.49999m65.49999 1.5h-65.49999m65.49999 1.5h-65.49999m65.49999 1.5h-65.49999m65.49999 1.5h-65.49999m65.49999 1.5h-65.49999m65.49999 1.5h-65.49999m65.49999 1.5h-65.49999m65.49999 1.5h-65.49999m65.49999 1.5h-65.49999m65.49999 1.5h-65.49999m65.49999 1.5h-65.49999m65.49999 1.5h-65.49999m65.49999 1.5h-65.49999m65.49999 1.5h-65.49999m65.49999 1.5h-65.49999m65.49999.49992h-65.49999m65.49999-.5h-65.49999m.5-31.99992v32.49992m1.5-32.49992v32.49992m1.5-32.49992v32.49992m1.5-32.49992v32.49992m1.5-32.49992v32.49992m1.5-32.49992v32.49992m1.5-32.49992v32.49992m1.5-32.49992v32.49992m1.49999-32.49992v32.49992m1.5-32.49992v32.49992m1.5-32.49992v32.49992m1.5-32.49992v32.49992m1.5-32.49992v32.49992m1.5-32.49992v32.49992m1.5-32.49992v32.49992m1.5-32.49992v32.49992m1.5-32.49992v32.49992m1.5-32.49992v32.49992m1.5-32.49992v32.49992m1.5-32.49992v32.49992m1.5-32.49992v32.49992m1.5-32.49992v32.49992m1.5-32.49992v32.49992m1.5-32.49992v32.49992m1.5-32.49992v32.49992m1.5-32.49992v32.49992m1.5-32.49992v32.49992m1.5-32.49992v32.49992m1.5-32.49992v32.49992m1.5-32.49992v32.49992m1.5-32.49992v32.49992m1.5-32.49992v32.49992m1.5-32.49992v32.49992m1.5-32.49992v32.49992m1.5-32.49992v32.49992m1.5-32.49992v32.49992m1.5-32.49992v32.49992m1.5-32.49992v32.49992m1.5-32.49992v32.49992m1.5-32.49992v32.49992m1.5-32.49992v32.49992m1.5-32.49992v32.49992m1.5-32.49992v32.49992m1.5-32.49992v32.49992m-64.49999-31.99992h64.49999v31.49992h-64.49999zm.49979 0h-39.99969m39.99969 1.5h-39.99969m39.99969 1.5h-39.99969m39.99969 1.5h-39.99969m39.99969 1.5h-39.99969m39.99969 1.5h-39.99969m39.99969 1.5h-39.99969m39.99969 1.5h-39.99969m39.99969 1.5h-39.99969m39.99969 1.5h-39.99969m39.99969 1.5h-39.99969m39.99969 1.5h-39.99969m39.99969 1.5h-39.99969m39.99969 1.5h-39.99969m39.99969 1.5h-39.99969m39.99969 1.5h-39.99969m39.99969 1.5h-39.99969m39.99969 1.5h-39.99969m39.99969 1.5h-39.99969m39.99969 1.5h-39.99969m39.99969 1.5h-39.99969m39.99969 1.5h-39.99969m39.99969.49992h-39.99969m39.99969-.5h-39.99969m.5-31.99992v32.49992m-.0003-32.49992v32.49992m.00029-32.49992v32.49992m-.0003-32.49992v32.49992m1.5-32.49992v32.49992m1.5-32.49992v32.49992m1.5-32.49992v32.49992m1.5-32.49992v32.49992m1.5-32.49992v32.49992m1.5-32.49992v32.49992m1.5-32.49992v32.49992m1.5-32.49992v32.49992m1.5-32.49992v32.49992m1.5-32.49992v32.49992m1.5-32.49992v32.49992m1.5-32.49992v32.49992m1.5-32.49992v32.49992m1.5-32.49992v32.49992m1.5-32.49992v32.49992m1.5-32.49992v32.49992m1.5-32.49992v32.49992m1.5-32.49992v32.49992m1.5-32.49992v32.49992m1.5-32.49992v32.49992m1.5-32.49992v32.49992m1.5-32.49992v32.49992m1.5-32.49992v32.49992m1.5-32.49992v32.49992m1.5-32.49992v32.49992m1.5-32.49992v32.49992m-38.99969-31.99992h38.99969v31.49992h-38.99969zm208.99989-52.5h-41.49999m41.49999 1.5h-41.49999m41.49999 1.5h-41.49999m41.49999 1.5h-41.49999m41.49999 1.5h-41.49999m41.49999 1.5h-41.49999m41.49999 1.5h-41.49999m41.49999 1.5h-41.49999m41.49999 1.5h-41.49999m41.49999 1.5h-41.49999m41.49999 1.5h-41.49999m41.49999 1.5h-41.49999m41.49999 1.5h-41.49999m41.49999 1.5h-41.49999m41.49999 1.5h-41.49999m41.49999 1.5h-41.49999m41.49999 1.5h-41.49999m41.49999 1.5h-41.49999m41.49999 1.5h-41.49999m41.49999 1.5h-41.49999m41.49999 1.5h-41.49999m41.49999 1.5h-41.49999m41.49999 1.5h-41.49999m41.49999 1.5h-41.49999m41.49999 1.5h-41.49999m41.49999 1.5h-41.49999m41.49999 1.5h-41.49999m41.49999 1.5h-41.49999m41.49999 1.5h-41.49999m41.49999 1.5h-41.49999m41.49999 1.5h-41.49999m41.49999 1.5h-41.49999m41.49999 1.5h-41.49999m41.49999 1.5h-41.49999m41.49999 1.5h-41.49999m41.49999 1.5h-41.49999m.5-53v53.5m1.5-53.5v53.5m1.5-53.5v53.5m1.5-53.5v53.5m1.5-53.5v53.5m1.5-53.5v53.5m1.5-53.5v53.5m1.5-53.5v53.5m1.49999-53.5v53.5m1.5-53.5v53.5m1.5-53.5v53.5m1.5-53.5v53.5m1.5-53.5v53.5m1.5-53.5v53.5m1.5-53.5v53.5m1.5-53.5v53.5m1.5-53.5v53.5m1.5-53.5v53.5m1.5-53.5v53.5m1.5-53.5v53.5m1.5-53.5v53.5m1.5-53.5v53.5m1.5-53.5v53.5m1.5-53.5v53.5m1.5-53.5v53.5m1.5-53.5v53.5m1.5-53.5v53.5m1.5-53.5v53.5m0-53.5v53.5m-40.49999-53h40.49999v52.5h-40.49999zm.49999 0h-65.49999m65.49999 1.5h-65.49999m65.49999 1.5h-65.49999m65.49999 1.5h-65.49999m65.49999 1.5h-65.49999m65.49999 1.5h-65.49999m65.49999 1.5h-65.49999m65.49999 1.5h-65.49999m65.49999 1.5h-65.49999m65.49999 1.5h-65.49999m65.49999 1.5h-65.49999m65.49999 1.5h-65.49999m65.49999 1.5h-65.49999m65.49999 1.5h-65.49999m65.49999 1.5h-65.49999m65.49999 1.5h-65.49999m65.49999 1.5h-65.49999m65.49999 1.5h-65.49999m65.49999 1.5h-65.49999m65.49999 1.5h-65.49999m65.49999 1.5h-65.49999m65.49999 1.5h-65.49999m65.49999 1.5h-65.49999m65.49999 1.5h-65.49999m65.49999 1.5h-65.49999m65.49999 1.5h-65.49999m65.49999 1.5h-65.49999m65.49999 1.5h-65.49999m65.49999 1.5h-65.49999m65.49999 1.5h-65.49999m65.49999 1.5h-65.49999m65.49999 1.5h-65.49999m65.49999 1.5h-65.49999m65.49999 1.5h-65.49999m65.49999 1.5h-65.49999m65.49999 1.5h-65.49999m.5-53v53.5m1.5-53.5v53.5m1.5-53.5v53.5m1.5-53.5v53.5m1.5-53.5v53.5m1.5-53.5v53.5m1.5-53.5v53.5m1.5-53.5v53.5m1.49999-53.5v53.5m1.5-53.5v53.5m1.5-53.5v53.5m1.5-53.5v53.5m1.5-53.5v53.5m1.5-53.5v53.5m1.5-53.5v53.5m1.5-53.5v53.5m1.5-53.5v53.5m1.5-53.5v53.5m1.5-53.5v53.5m1.5-53.5v53.5m1.5-53.5v53.5m1.5-53.5v53.5m1.5-53.5v53.5m1.5-53.5v53.5m1.5-53.5v53.5m1.5-53.5v53.5m1.5-53.5v53.5m1.5-53.5v53.5m1.5-53.5v53.5m1.5-53.5v53.5m1.5-53.5v53.5m1.5-53.5v53.5m1.5-53.5v53.5m1.5-53.5v53.5m1.5-53.5v53.5m1.5-53.5v53.5m1.5-53.5v53.5m1.5-53.5v53.5m1.5-53.5v53.5m1.5-53.5v53.5m1.5-53.5v53.5m1.5-53.5v53.5m1.5-53.5v53.5m1.5-53.5v53.5m-64.49999-53h64.49999v52.5h-64.49999zm.49999 0h-65.49999m65.49999 1.5h-65.49999m65.49999 1.5h-65.49999m65.49999 1.5h-65.49999m65.49999 1.5h-65.49999m65.49999 1.5h-65.49999m65.49999 1.5h-65.49999m65.49999 1.5h-65.49999m65.49999 1.5h-65.49999m65.49999 1.5h-65.49999m65.49999 1.5h-65.49999m65.49999 1.5h-65.49999m65.49999 1.5h-65.49999m65.49999 1.5h-65.49999m65.49999 1.5h-65.49999m65.49999 1.5h-65.49999m65.49999 1.5h-65.49999m65.49999 1.5h-65.49999m65.49999 1.5h-65.49999m65.49999 1.5h-65.49999m65.49999 1.5h-65.49999m65.49999 1.5h-65.49999m65.49999 1.5h-65.49999m65.49999 1.5h-65.49999m65.49999 1.5h-65.49999m65.49999 1.5h-65.49999m65.49999 1.5h-65.49999m65.49999 1.5h-65.49999m65.49999 1.5h-65.49999m65.49999 1.5h-65.49999m65.49999 1.5h-65.49999m65.49999 1.5h-65.49999m65.49999 1.5h-65.49999m65.49999 1.5h-65.49999m65.49999 1.5h-65.49999m65.49999 1.5h-65.49999m.5-53v53.5m1.5-53.5v53.5m1.5-53.5v53.5m1.5-53.5v53.5m1.5-53.5v53.5m1.5-53.5v53.5m1.5-53.5v53.5m1.5-53.5v53.5m1.49999-53.5v53.5m1.5-53.5v53.5m1.5-53.5v53.5m1.5-53.5v53.5m1.5-53.5v53.5m1.5-53.5v53.5m1.5-53.5v53.5m1.5-53.5v53.5m1.5-53.5v53.5m1.5-53.5v53.5m1.5-53.5v53.5m1.5-53.5v53.5m1.5-53.5v53.5m1.5-53.5v53.5m1.5-53.5v53.5m1.5-53.5v53.5m1.5-53.5v53.5m1.5-53.5v53.5m1.5-53.5v53.5m1.5-53.5v53.5m1.5-53.5v53.5m1.5-53.5v53.5m1.5-53.5v53.5m1.5-53.5v53.5m1.5-53.5v53.5m1.5-53.5v53.5m1.5-53.5v53.5m1.5-53.5v53.5m1.5-53.5v53.5m1.5-53.5v53.5m1.5-53.5v53.5m1.5-53.5v53.5m1.5-53.5v53.5m1.5-53.5v53.5m1.5-53.5v53.5m1.5-53.5v53.5m-64.49999-53h64.49999v52.5h-64.49999zm.49979 0h-39.99969m39.99969 1.5h-39.99969m39.99969 1.5h-39.99969m39.99969 1.5h-39.99969m39.99969 1.5h-39.99969m39.99969 1.5h-39.99969m39.99969 1.5h-39.99969m39.99969 1.5h-39.99969m39.99969 1.5h-39.99969m39.99969 1.5h-39.99969m39.99969 1.5h-39.99969m39.99969 1.5h-39.99969m39.99969 1.5h-39.99969m39.99969 1.5h-39.99969m39.99969 1.5h-39.99969m39.99969 1.5h-39.99969m39.99969 1.5h-39.99969m39.99969 1.5h-39.99969m39.99969 1.5h-39.99969m39.99969 1.5h-39.99969m39.99969 1.5h-39.99969m39.99969 1.5h-39.99969m39.99969 1.5h-39.99969m39.99969 1.5h-39.99969m39.99969 1.5h-39.99969m39.99969 1.5h-39.99969m39.99969 1.5h-39.99969m39.99969 1.5h-39.99969m39.99969 1.5h-39.99969m39.99969 1.5h-39.99969m39.99969 1.5h-39.99969m39.99969 1.5h-39.99969m39.99969 1.5h-39.99969m39.99969 1.5h-39.99969m39.99969 1.5h-39.99969m39.99969 1.5h-39.99969m.5-53v53.5m-.0003-53.5v53.5m17.99999-53.5v53.5m-17.9997-53.5v53.5m-.0003-53.5v53.5m1.5-53.5v53.5m1.5-53.5v53.5m1.5-53.5v53.5m1.5-53.5v53.5m1.5-53.5v53.5m1.5-53.5v53.5m1.5-53.5v53.5m1.5-53.5v53.5m1.5-53.5v53.5m1.5-53.5v53.5m1.5-53.5v53.5m1.5-53.5v53.5m1.5-53.5v53.5m1.5-53.5v53.5m1.5-53.5v53.5m1.5-53.5v53.5m1.5-53.5v53.5m1.5-53.5v53.5m1.5-53.5v53.5m1.5-53.5v53.5m1.5-53.5v53.5m1.5-53.5v53.5m1.5-53.5v53.5m1.5-53.5v53.5m1.5-53.5v53.5m1.5-53.5v53.5m-38.99969-53h38.99969v52.5h-38.99969zm208.99989-24.00008h-41.49999m41.49999 0h-41.49999m41.49999-.00029h-41.49999m41.49999 1.5h-41.49999m41.49999 1.5h-41.49999m41.49999 1.5h-41.49999m41.49999 1.5h-41.49999m41.49999 1.5h-41.49999m41.49999 1.5h-41.49999m41.49999 1.5h-41.49999m41.49999 1.5h-41.49999m41.49999 1.5h-41.49999m41.49999 1.5h-41.49999m41.49999 1.5h-41.49999m41.49999 1.5h-41.49999m41.49999 1.5h-41.49999m41.49999 1.5h-41.49999m41.49999 1.5h-41.49999m41.49999 1.5h-41.49999m.5-24.49971v24.99971m1.5-24.99971v24.99971m1.5-24.99971v24.99971m1.5-24.99971v24.99971m1.5-24.99971v24.99971m1.5-24.99971v24.99971m1.5-24.99971v24.99971m1.5-24.99971v24.99971m1.49999-24.99971v24.99971m1.5-24.99971v24.99971m1.5-24.99971v24.99971m1.5-24.99971v24.99971m1.5-24.99971v24.99971m1.5-24.99971v24.99971m1.5-24.99971v24.99971m1.5-24.99971v24.99971m1.5-24.99971v24.99971m1.5-24.99971v24.99971m1.5-24.99971v24.99971m1.5-24.99971v24.99971m1.5-24.99971v24.99971m1.5-24.99971v24.99971m1.5-24.99971v24.99971m1.5-24.99971v24.99971m1.5-24.99971v24.99971m1.5-24.99971v24.99971m1.5-24.99971v24.99971m1.5-24.99971v24.99971m0-24.99971v24.99971m-40.49999-24.49971h40.49999v23.99971h-40.49999zm.49999 0h-65.49999m65.49999 0h-65.49999m65.49999-.00029h-65.49999m65.49999 1.5h-65.49999m65.49999 1.5h-65.49999m65.49999 1.5h-65.49999m65.49999 1.5h-65.49999m65.49999 1.5h-65.49999m65.49999 1.5h-65.49999m65.49999 1.5h-65.49999m65.49999 1.5h-65.49999m65.49999 1.5h-65.49999m65.49999 1.5h-65.49999m65.49999 1.5h-65.49999m65.49999 1.5h-65.49999m65.49999 1.5h-65.49999m65.49999 1.5h-65.49999m65.49999 1.5h-65.49999m65.49999 1.5h-65.49999m.5-24.49971v24.99971m1.5-24.99971v24.99971m1.5-24.99971v24.99971m1.5-24.99971v24.99971m1.5-24.99971v24.99971m1.5-24.99971v24.99971m1.5-24.99971v24.99971m1.5-24.99971v24.99971m1.49999-24.99971v24.99971m1.5-24.99971v24.99971m1.5-24.99971v24.99971m1.5-24.99971v24.99971m1.5-24.99971v24.99971m1.5-24.99971v24.99971m1.5-24.99971v24.99971m1.5-24.99971v24.99971m1.5-24.99971v24.99971m1.5-24.99971v24.99971m1.5-24.99971v24.99971m1.5-24.99971v24.99971m1.5-24.99971v24.99971m1.5-24.99971v24.99971m1.5-24.99971v24.99971m1.5-24.99971v24.99971m1.5-24.99971v24.99971m1.5-24.99971v24.99971m1.5-24.99971v24.99971m1.5-24.99971v24.99971m1.5-24.99971v24.99971m1.5-24.99971v24.99971m1.5-24.99971v24.99971m1.5-24.99971v24.99971m1.5-24.99971v24.99971m1.5-24.99971v24.99971m1.5-24.99971v24.99971m1.5-24.99971v24.99971m1.5-24.99971v24.99971m1.5-24.99971v24.99971m1.5-24.99971v24.99971m1.5-24.99971v24.99971m1.5-24.99971v24.99971m1.5-24.99971v24.99971m1.5-24.99971v24.99971m1.5-24.99971v24.99971m-64.49999-24.49971h64.49999v23.99971h-64.49999zm.49999 0h-65.49999m65.49999 0h-65.49999m65.49999-.00029h-65.49999m65.49999 1.5h-65.49999m65.49999 1.5h-65.49999m65.49999 1.5h-65.49999m65.49999 1.5h-65.49999m65.49999 1.5h-65.49999m65.49999 1.5h-65.49999m65.49999 1.5h-65.49999m65.49999 1.5h-65.49999m65.49999 1.5h-65.49999m65.49999 1.5h-65.49999m65.49999 1.5h-65.49999m65.49999 1.5h-65.49999m65.49999 1.5h-65.49999m65.49999 1.5h-65.49999m65.49999 1.5h-65.49999m65.49999 1.5h-65.49999m.5-24.49971v24.99971m1.5-24.99971v24.99971m1.5-24.99971v24.99971m1.5-24.99971v24.99971m1.5-24.99971v24.99971m1.5-24.99971v24.99971m1.5-24.99971v24.99971m1.5-24.99971v24.99971m1.49999-24.99971v24.99971m1.5-24.99971v24.99971m1.5-24.99971v24.99971m1.5-24.99971v24.99971m1.5-24.99971v24.99971m1.5-24.99971v24.99971m1.5-24.99971v24.99971m1.5-24.99971v24.99971m1.5-24.99971v24.99971m1.5-24.99971v24.99971m1.5-24.99971v24.99971m1.5-24.99971v24.99971m1.5-24.99971v24.99971m1.5-24.99971v24.99971m1.5-24.99971v24.99971m1.5-24.99971v24.99971m1.5-24.99971v24.99971m1.5-24.99971v24.99971m1.5-24.99971v24.99971m1.5-24.99971v24.99971m1.5-24.99971v24.99971m1.5-24.99971v24.99971m1.5-24.99971v24.99971m1.5-24.99971v24.99971m1.5-24.99971v24.99971m1.5-24.99971v24.99971m1.5-24.99971v24.99971m1.5-24.99971v24.99971m1.5-24.99971v24.99971m1.5-24.99971v24.99971m1.5-24.99971v24.99971m1.5-24.99971v24.99971m1.5-24.99971v24.99971m1.5-24.99971v24.99971m1.5-24.99971v24.99971m1.5-24.99971v24.99971m-64.49999-24.49971h64.49999v23.99971h-64.49999zm.49979 0h-39.99969m39.99969 0h-39.99969m39.99969-.00029h-39.99969m39.99969 1.5h-39.99969m39.99969 1.5h-39.99969m39.99969 1.5h-39.99969m39.99969 1.5h-39.99969m39.99969 1.5h-39.99969m39.99969 1.5h-39.99969m39.99969 1.5h-39.99969m39.99969 1.5h-39.99969m39.99969 1.5h-39.99969m39.99969 1.5h-39.99969m39.99969 1.5h-39.99969m39.99969 1.5h-39.99969m39.99969 1.5h-39.99969m39.99969 1.5h-39.99969m39.99969 1.5h-39.99969m39.99969 1.5h-39.99969m.5-24.49971v24.99971m-.0003-24.99971v24.99971m.00029-24.99971v24.99971m-.0003-24.99971v24.99971m1.5-24.99971v24.99971m1.5-24.99971v24.99971m1.5-24.99971v24.99971m1.5-24.99971v24.99971m1.5-24.99971v24.99971m1.5-24.99971v24.99971m1.5-24.99971v24.99971m1.5-24.99971v24.99971m1.5-24.99971v24.99971m1.5-24.99971v24.99971m1.5-24.99971v24.99971m1.5-24.99971v24.99971m1.5-24.99971v24.99971m1.5-24.99971v24.99971m1.5-24.99971v24.99971m1.5-24.99971v24.99971m1.5-24.99971v24.99971m1.5-24.99971v24.99971m1.5-24.99971v24.99971m1.5-24.99971v24.99971m1.5-24.99971v24.99971m1.5-24.99971v24.99971m1.5-24.99971v24.99971m1.5-24.99971v24.99971m1.5-24.99971v24.99971m1.5-24.99971v24.99971m-38.99969-24.49971h38.99969v23.99971h-38.99969z" fill="#4d4d4d" fill-rule="evenodd" stroke="#575d5e" transform="translate(-336.32637 -98.909685)"/><path id="path4997" d="m741.7784 261.81943h-65.00005m65.00005 1.5h-65.00005m65.00005 1.5h-65.00005m65.00005 1.5h-65.00005m65.00005 1.5h-65.00005m65.00005 1.5h-64.5m64.5 1.5h-65.00005m65.00005 1.5h-65.00005m65.00005 1.5h-65.00005m65.00005 1.5h-65.00005m65.00005 1.5h-65.00005m65.00005 1.5h-65.00005m65.00005 1.5h-65.00005m65.00005 1.5h-65.00005m65.00005 1.5h-65.00005m65.00005 1.5h-65.00005m65.00005 1.5h-65.00005m65.00005 1.5h-65.00005m65.00005 1.5h-65.00005m65.00005 1.5h-65.00005m65.00005 1.5h-65.00005m65.00005 1.5h-65.00005m65.00005.59976h-65.00005m65.25005-31.84976l-.50005 31.59976m.00005-31.59976v31.59976m-64.50005-31.59976v31.59976m1.5-31.59976v31.59976m1.5-31.59976v31.59976m1.5-31.59976v31.59976m1.5-31.59976v31.59976m1.5-31.59976v31.59976m1.5-31.59976v31.59976m1.5-31.59976v31.59976m1.5-31.59976v31.59976m1.5-31.59976v31.59976m1.5-31.59976v31.59976m1.5-31.59976v31.59976m1.5-31.59976v31.59976m1.5-31.59976v31.59976m1.5-31.59976v31.59976m1.5-31.59976v31.59976m1.5-31.59976v31.59976m1.5-31.59976v31.59976m1.5-31.59976v31.59976m1.5-31.59976v31.59976m1.5-31.59976v31.59976m1.5-31.59976v31.59976m1.5-31.59976v31.59976m1.5-31.59976v31.59976m1.5-31.59976v31.59976m1.5-31.59976v31.59976m1.5-31.59976v31.59976m1.5-31.59976v31.59976m1.5-31.59976v31.59976m1.5-31.59976v31.59976m1.5-31.59976v31.59976m1.5-31.59976v31.59976m1.5-31.59976v31.59976m1.5-31.59976v31.59976m1.5-31.59976v31.59976m1.5-31.59976v31.59976m1.5-31.59976v31.59976m1.5-31.59976v31.59976m1.5-31.59976v31.59976m1.5-31.59976v31.59976m1.5-31.59976v31.59976m1.5-31.59976v31.59976m1.5-31.59976v31.59976m-63-31.84976h64.50005v32.09976h-64.50005zm.25 0h-78.5m78.5 1.5h-78.5m78.5 1.5h-78.5m78.5 1.5h-78.5m78.5 1.5h-78.5m78.5 1.5h-78.5m78.5 1.5h-78.5m78.5 1.5h-78.5m78.5 1.5h-78.5m78.5 1.5h-78.5m78.5 1.5h-78.5m78.5 1.5h-78.5m78.5 1.5h-78.5m78.5 1.5h-78.5m78.5 1.5h-78.5m78.5 1.5h-78.5m78.5 1.5h-78.5m78.5 1.5h-78.5m78.5 1.5h-78.5m78.5 1.5h-78.5m78.5 1.5h-78.5m78.5 1.5h-78.5m78.5.59976h-78.5m64.75-31.84976v31.59976m1.5-31.59976v31.59976m1.5-31.59976v31.59976m1.5-31.59976v31.59976m1.5-31.59976v31.59976m1.5-31.59976v31.59976m1.5-31.59976v31.59976m1.5-31.59976v31.59976m1.5-31.59976v31.59976m1.5-31.59976v31.59976m-78-31.59976v31.59976m1.5-31.59976v31.59976m1.5-31.59976v31.59976m1.5-31.59976v31.59976m1.5-31.59976v31.59976m1.5-31.59976v31.59976m1.5-31.59976v31.59976m1.5-31.59976v31.59976m1.5-31.59976v31.59976m1.5-31.59976v31.59976m1.5-31.59976v31.59976m1.5-31.59976v31.59976m1.5-31.59976v31.59976m1.5-31.59976v31.59976m1.5-31.59976v31.59976m1.5-31.59976v31.59976m1.5-31.59976v31.59976m1.5-31.59976v31.59976m1.5-31.59976v31.59976m1.5-31.59976v31.59976m1.5-31.59976v31.59976m1.5-31.59976v31.59976m1.5-31.59976v31.59976m1.5-31.59976v31.59976m1.5-31.59976v31.59976m1.5-31.59976v31.59976m1.5-31.59976v31.59976m1.5-31.59976v31.59976m1.5-31.59976v31.59976m1.5-31.59976v31.59976m1.5-31.59976v31.59976m1.5-31.59976v31.59976m1.5-31.59976v31.59976m1.5-31.59976v31.59976m1.5-31.59976v31.59976m1.5-31.59976v31.59976m1.5-31.59976v31.59976m1.5-31.59976v31.59976m1.5-31.59976v31.59976m1.5-31.59976v31.59976m1.5-31.59976v31.59976m1.5-31.59976v31.59976m1.5-31.59976v31.59976m-63-31.84976h78v32.09976h-78zm .25022 0h-67.50017m67.50017 1.5h-67.50017m67.50017 1.5h-67.50017m67.50017 1.5h-67.50017m67.50017 1.5h-67.50017m67.50017 1.5h-67.50017m67.50017 1.5h-67.50017m67.50017 1.5h-67.50017m67.50017 1.5h-67.50017m67.50017 1.5h-67.50017m67.50017 1.5h-67.50017m67.50017 1.5h-67.50017m67.50017 1.5h-67.50017m67.50017 1.5h-67.50017m67.50017 1.5h-67.50017m67.50017 1.5h-67.50017m67.50017 1.5h-67.50017m67.50017 1.5h-67.50017m67.50017 1.5h-67.50017m67.50017 1.5h-67.50017m67.50017 1.5h-67.50017m67.50017 1.5h-67.50017m67.50017.59976h-67.50017m53.75017-31.84976v31.59976m1.5-31.59976v31.59976m1.5-31.59976v31.59976m1.5-31.59976v31.59976m1.5-31.59976v31.59976m1.5-31.59976v31.59976m1.5-31.59976v31.59976m1.5-31.59976v31.59976m1.5-31.59976v31.59976m1.5-31.59976v31.59976m-67.00017-31.59976v31.59976m1.00017-31.59976v31.59976m1.5-31.59976v31.59976m1.5-31.59976v31.59976m1.5-31.59976v31.59976m1.5-31.59976v31.59976m1.5-31.59976v31.59976m1.5-31.59976v31.59976m1.5-31.59976v31.59976m1.5-31.59976v31.59976m1.5-31.59976v31.59976m1.5-31.59976v31.59976m1.5-31.59976v31.59976m1.5-31.59976v31.59976m1.5-31.59976v31.59976m1.5-31.59976v31.59976m1.5-31.59976v31.59976m1.5-31.59976v31.59976m1.5-31.59976v31.59976m1.5-31.59976v31.59976m1.5-31.59976v31.59976m1.5-31.59976v31.59976m1.5-31.59976v31.59976m1.5-31.59976v31.59976m1.5-31.59976v31.59976m1.5-31.59976v31.59976m1.5-31.59976v31.59976m1.5-31.59976v31.59976m1.5-31.59976v31.59976m1.5-31.59976v31.59976m1.5-31.59976v31.59976m1.5-31.59976v31.59976m1.5-31.59976v31.59976m1.5-31.59976v31.59976m1.5-31.59976v31.59976m1.5-31.59976v31.59976m-52.00017-31.84976h67.00017v32.09976h-67.00017zm209.75-23.99924h-65.00005m65.00005-.00043h-65.00005m65.00005 1.5h-65.00005m65.00005 1.5h-65.00005m65.00005 1.5h-65.00005m65.00005 1.49999h-65.00005m65.00005 1.5h-65.00005m65.00005 1.5h-65.00005m65.00005 1.5h-65.00005m65.00005 1.5h-65.00005m65.00005 1.5h-65.00005m65.00005 1.5h-65.00005m65.00005 1.5h-65.00005m65.00005 1.5h-65.00005m65.00005 1.5h-65.00005m65.00005 1.5h-65.00005m65.00005 1.5h-65.00005m65.00005 1.5h-65.00005m64.75-23.74956v23.49956m.00005-23.49956v23.49956m-64.50005-23.49956v23.49956m1.5-23.49956v23.49956m1.5-23.49956v23.49956m1.5-23.49956v23.49956m1.5-23.49956v23.49956m1.5-23.49956v23.49956m1.5-23.49956v23.49956m1.5-23.49956v23.49956m1.5-23.49956v23.49956m1.5-23.49956v23.49956m1.5-23.49956v23.49956m1.5-23.49956v23.49956m1.5-23.49956v23.49956m1.5-23.49956v23.49956m1.5-23.49956v23.49956m1.5-23.49956v23.49956m1.5-23.49956v23.49956m1.5-23.49956v23.49956m1.5-23.49956v23.49956m1.5-23.49956v23.49956m1.5-23.49956v23.49956m1.5-23.49956v23.49956m1.5-23.49956v23.49956m1.5-23.49956v23.49956m1.5-23.49956v23.49956m1.5-23.49956v23.49956m1.5-23.49956v23.49956m1.5-23.49956v23.49956m1.5-23.49956v23.49956m1.5-23.49956v23.49956m1.5-23.49956v23.49956m1.5-23.49956v23.49956m1.5-23.49956v23.49956m1.5-23.49956v23.49956m1.5-23.49956v23.49956m1.5-23.49956v23.49956m1.5-23.49956v23.49956m1.5-23.49956v23.49956m1.5-23.49956v23.49956m1.5-23.49956v23.49956m1.5-23.49956v23.49956m1.5-23.49956v23.49956m1.5-23.49956v23.49956m-63-23.74956h64.50005v23.99956h-64.50005zm.25 0h-78.5m78.5-.00043h-78.5m78.5 1.5h-78.5m78.5 1.5h-78.5m78.5 1.5h-78.5m78.5 1.49999h-78.5m78.5 1.5h-78.5m78.5 1.5h-78.5m78.5 1.5h-78.5m78.5 1.5h-78.5m78.5 1.5h-78.5m78.5 1.5h-78.5m78.5 1.5h-78.5m78.5 1.5h-78.5m78.5 1.5h-78.5m78.5 1.5h-78.5m78.5 1.5h-78.5m78.5 1.5h-78.5m64.75-23.74956v23.49956m1.5-23.49956v23.49956m1.5-23.49956v23.49956m1.5-23.49956v23.49956m1.5-23.49956v23.49956m1.5-23.49956v23.49956m1.5-23.49956v23.49956m1.5-23.49956v23.49956m1.5-23.49956v23.49956m1.5-23.49956v23.49956m-78-23.49956v23.49956m1.5-23.49956v23.49956m1.5-23.49956v23.49956m1.5-23.49956v23.49956m1.5-23.49956v23.49956m1.5-23.49956v23.49956m1.5-23.49956v23.49956m1.5-23.49956v23.49956m1.5-23.49956v23.49956m1.5-23.49956v23.49956m1.5-23.49956v23.49956m1.5-23.49956v23.49956m1.5-23.49956v23.49956m1.5-23.49956v23.49956m1.5-23.49956v23.49956m1.5-23.49956v23.49956m1.5-23.49956v23.49956m1.5-23.49956v23.49956m1.5-23.49956v23.49956m1.5-23.49956v23.49956m1.5-23.49956v23.49956m1.5-23.49956v23.49956m1.5-23.49956v23.49956m1.5-23.49956v23.49956m1.5-23.49956v23.49956m1.5-23.49956v23.49956m1.5-23.49956v23.49956m1.5-23.49956v23.49956m1.5-23.49956v23.49956m1.5-23.49956v23.49956m1.5-23.49956v23.49956m1.5-23.49956v23.49956m1.5-23.49956v23.49956m1.5-23.49956v23.49956m1.5-23.49956v23.49956m1.5-23.49956v23.49956m1.5-23.49956v23.49956m1.5-23.49956v23.49956m1.5-23.49956v23.49956m1.5-23.49956v23.49956m1.5-23.49956v23.49956m1.5-23.49956v23.49956m1.5-23.49956v23.49956m-63-23.74956h78v23.99956h-78zm .25022 0h-67.50017m67.50017-.00043h-67.50017m67.50017 1.5h-67.50017m67.50017 1.5h-67.50017m67.50017 1.5h-67.50017m67.50017 1.49999h-67.50017m67.50017 1.5h-67.50017m67.50017 1.5h-67.50017m67.50017 1.5h-67.50017m67.50017 1.5h-67.50017m67.50017 1.5h-67.50017m67.50017 1.5h-67.50017m67.50017 1.5h-67.50017m67.50017 1.5h-67.50017m67.50017 1.5h-67.50017m67.50017 1.5h-67.50017m67.50017 1.5h-67.50017m67.50017 1.5h-67.50017m53.75017-23.74956v23.49956m1.5-23.49956v23.49956m1.5-23.49956v23.49956m1.5-23.49956v23.49956m1.5-23.49956v23.49956m1.5-23.49956v23.49956m1.5-23.49956v23.49956m1.5-23.49956v23.49956m1.5-23.49956v23.49956m1.5-23.49956v23.49956m-67.00017-23.49956v23.49956m1.00017-23.49956v23.49956m1.5-23.49956v23.49956m1.5-23.49956v23.49956m1.5-23.49956v23.49956m1.5-23.49956v23.49956m1.5-23.49956v23.49956m1.5-23.49956v23.49956m1.5-23.49956v23.49956m1.5-23.49956v23.49956m1.5-23.49956v23.49956m1.5-23.49956v23.49956m1.5-23.49956v23.49956m1.5-23.49956v23.49956m1.5-23.49956v23.49956m1.5-23.49956v23.49956m1.5-23.49956v23.49956m1.5-23.49956v23.49956m1.5-23.49956v23.49956m1.5-23.49956v23.49956m1.5-23.49956v23.49956m1.5-23.49956v23.49956m1.5-23.49956v23.49956m1.5-23.49956v23.49956m1.5-23.49956v23.49956m1.5-23.49956v23.49956m1.5-23.49956v23.49956m1.5-23.49956v23.49956m1.5-23.49956v23.49956m1.5-23.49956v23.49956m1.5-23.49956v23.49956m1.5-23.49956v23.49956m1.5-23.49956v23.49956m1.5-23.49956v23.49956m1.5-23.49956v23.49956m1.5-23.49956v23.49956m-52.00017-23.74956h67.00017v23.99956h-67.00017z" style="fill:#4d4d4d;fill-rule:evenodd;stroke:#575d5e;stroke-width:.5;shape-rendering:crispEdges;clip-path:url(#clipPath5057)" transform="translate(-444.4004 -147.3992)"/><path id="path4677" d="m87.899992 268.49999h209.199998" fill="#333" fill-rule="evenodd" stroke="#1a1a1a" stroke-width=".80000007"/><g id="g4998"><path id="rect4831-4" d="m126.54921 172.15078v18.5h19.30078v77.59961h10v-96.09961h-9.30078-.69922z" fill="#1a1a1a" overflow="visible" stroke="#333" stroke-width=".5"/><rect id="rect5860-0" fill="#5b5e60" height="95.099998" rx="1" ry="1.1527268" shape-rendering="crispEdges" stroke="#333" stroke-width=".5" width="9" x="146.34999" y="172.64998"/><path id="rect4356-4-8-5" d="m146.59999 236.91038c0-.58208.12058 1.52311 1.00599 2.49031.8854.96714 2.43563.79646 3.14395.79646.70833 0 2.27069.17068 3.15611-.79646.8854-.9672 1.20029-3.07235 1.19385-2.49031v14.43578c-1.21625-.33491-.41653 1.69353-2.00359 2.22208-1.58706.52861-6.49631.0264-6.49631.0264z" fill="#333" overflow="visible" shape-rendering="crispEdges"/></g><g id="g5020"><rect id="rect4647" fill="#bb1e10" height="11.999997" width="209.2" x="87.899994" y="146.30002"/><path id="path4655" d="m87.899993 158.69999h209.200007" fill="none" stroke="#fff" stroke-width=".80000007"/><path id="path5180-5-3-2-7-1-2-3" d="m97.560272 147.80002l-1.18056 4.41h2.43881v-4.41zm1.43825 0v4.41h2.438768l-1.18035-4.41zm5.039988 0v4.41h2.61v-4.41zm2.79 0v4.41h2.73218a2.7000003 2.7000003 0 0 0 -.93429-.61997 2.0250001 2.0250001 0 0 0  1.03729-1.76503 2.0250001 2.0250001 0 0 0 -2.025-2.025 2.0250001 2.0250001 0 0 0 -.00016 0h-.81zm4.23 0v4.41h2.61v-4.41zm2.79 0v4.41h2.73218a2.7000003 2.7000003 0 0 0 -.93429-.61997 2.0250001 2.0250001 0 0 0  1.03729-1.76503 2.0250001 2.0250001 0 0 0 -2.025-2.025 2.0250001 2.0250001 0 0 0 -.00016 0h-.81zm-17.516948 4.59l-1.180535 4.41h2.249995l.47706-1.79999h.94044v-2.61001zm2.66696 0v2.61001h.9406l.476898 1.79999h2.24999l-1.18037-4.41zm5.039988 0v4.41h2.61v-4.41zm2.79 0v4.41h.81a2.7000003 2.7000003 0 0 0  .00014 0 2.7000003 2.7000003 0 0 0  2.7-2.7 2.7000003 2.7000003 0 0 0 -.61506-1.71h-2.89512zm4.23 0v4.41h2.61v-4.41zm2.79 0v4.41h.81a2.7000003 2.7000003 0 0 0  .00014 0 2.7000003 2.7000003 0 0 0  2.7-2.7 2.7000003 2.7000003 0 0 0 -.61506-1.71h-2.89511z" fill="#fff" overflow="visible" shape-rendering="crispEdges"/><text id="text6321-4-4-4-1-7-4" line-height="100%" style="font-weight:bold;font-size:5.39302158;font-family:sans-serif;letter-spacing:0;word-spacing:0;overflow:visible;fill:#fff;shape-rendering:crispEdges" x="243.63904" xml:space="preserve" y="155.41678"><tspan id="tspan6323-9-5-8-9-5-4" fill="#fff" font-family="sans-serif" font-size="8.75" font-weight="bold" line-height="100%" x="243.63904" y="155.41678">Emax 1.2</tspan></text></g><rect id="rect6263" fill="none" height="26.700001" stroke="#333" stroke-width=".5" width="29.5" x="246.64998" y="241.14998"/><g id="g5063"><path id="path4799" clip-path="url(#clipPath4808)" d="m-190.10974 161.24999v106m1.6-106v106m1.6-106v106m1.6-106v106m1.6-106v106m1.6-106v106m1.6-106v106m1.6-106v106m1.6-106v106m1.6-106v106m1.6-106v106m1.6-106v106m1.6-106v106m1.6-106v106m1.6-106v106m1.6-106v106m1.6-106v106m1.6-106v106m1.6-106v106m1.6-106v106m1.6-106v106m1.6-106v106m1.6-106v106m1.6-106v106m1.6-106v106m1.6-106v106m1.6-106v106m1.6-106v106m1.6-106v106m1.6-106v106m1.6-106v106m1.6-106v106m1.6-106v106m1.6-106v106m1.6-106v106m1.6-106v106m1.6-106v106m1.6-106v106m1.6-106v106m1.6-106v106m1.6-106v106m1.6-106v106m1.6-106v106m1.6-106v106m1.6-106v106m-70.4-106h71m-71 1.6h71m-71 1.6h71m-71 1.6h71m-71 1.6h71m-71 1.6h71m-71 1.6h71m-71 1.6h71m-71 1.6h71m-71 1.6h71m-71 1.6h71m-71 1.6h71m-71 1.6h71m-71 1.6h71m-71 1.6h71m-71 1.6h71m-71 1.6h71m-71 1.6h71m-71 1.6h71m-71 1.6h71m-71 1.6h71m-71 1.6h71m-71 1.6h71m-71 1.6h71m-71 1.6h71m-71 1.6h71m-71 1.6h71m-71 1.6h71m-71 1.6h71m-71 1.6h71m-71 1.6h71m-71 1.6h71m-71 1.6h71m-71 1.6h71m-71 1.6h71m-71 1.6h71m-71 1.6h71m-71 1.6h71m-71 1.6h71m-71 1.6h71m-71 1.6h71m-71 1.6h71m-71 1.6h71m-71 1.6h71m-71 1.6h71m-71 1.6h71m-71 1.6h71m-71 1.6h71m-71 1.6h71m-71 1.6h71m-71 1.6h71m-71 1.6h71m-71 1.6h71m-71 1.6h71m-71 1.6h71m-71 1.6h71m-71 1.6h71m-71 1.6h71m-71 1.6h71m-71 1.6h71m-71 1.6h71m-71 1.6h71m-71 1.6h71m-71 1.6h71m-71 1.6h71m-71 1.6h71m-71 1.6h71m-71-105.6h71v106h-71z" fill="#4d4d4d" fill-rule="evenodd" stroke="#575d5e" stroke-width=".4pt" transform="translate(347.10974)"/><rect id="rect4633" fill="none" height="107.7" stroke="#ccc" stroke-linecap="round" stroke-linejoin="bevel" stroke-width=".80000001" width="72" x="156.49998" y="160.39998"/><g id="g5104" shape-rendering="crispEdges"><rect id="rect5826" fill="#fff" height="9.8000002" stroke="#333" stroke-width=".5" width="22" x="161.24992" y="212.74998"/><path id="path4694-7-1" d="m166.7666 215.74998h10.96664" style="overflow:visible;fill:none;stroke:#000;stroke-width:.80000001;stroke-linecap:round;stroke-dasharray:1.60000002 1.60000002"/><path id="path4829" d="m169.21076 219.74998h6.07832" style="overflow:visible;fill:none;stroke:#000;stroke-width:.80000001;stroke-linecap:round;stroke-dasharray:1.60000002 1.60000002"/></g><g id="g5113"><rect id="rect5842-7" fill="#f00" height="22" shape-rendering="crispEdges" stroke="#333" stroke-width=".5" width="22" x="161.24992" y="241.24998"/><circle id="path19055-1-7-9" cx="172.24992" cy="256.68909" fill="none" overflow="visible" r="3.5999999" shape-rendering="crispEdges" stroke="#fff"/><text id="text4767-4-6" line-height="125%" style="font-size:3.125;font-family:sans-serif;letter-spacing:0;word-spacing:0;overflow:visible;fill:#fff" x="163.31895" xml:space="preserve" y="247.53233"><tspan id="tspan4769-1-7" font-size="3.75" x="163.31895" y="247.53233">Push OFF</tspan></text></g><g id="g5124"><rect id="rect6024" fill="#007b00" height="22" shape-rendering="crispEdges" stroke="#333" stroke-width=".5" width="22" x="201.75008" y="241.24998"/><text id="text5834-4" line-height="125%" style="font-weight:bold;font-size:10.80000019;font-family:Arial;letter-spacing:0;word-spacing:0;overflow:visible;fill:#fff;shape-rendering:crispEdges" x="211.23132" xml:space="preserve" y="260.78909"><tspan id="tspan5836-9" x="211.23132" y="260.78909">I</tspan></text><text id="text4767-4-6-6" line-height="125%" style="font-size:3.125;font-family:sans-serif;letter-spacing:0;word-spacing:0;overflow:visible;fill:#fff" x="204.72639" xml:space="preserve" y="247.53233"><tspan id="tspan4769-1-7-0" font-size="3.75" x="204.72639" y="247.53233">Push ON</tspan></text></g><g id="g5135"><rect id="rect5629" fill="#007b00" height="9.8000002" stroke="#333" stroke-linecap="round" stroke-width=".5" width="22" x="201.75008" y="212.74998"/><circle id="path19055-1-7-9-2" cx="206.68022" cy="217.74998" fill="none" overflow="visible" r="2.5" shape-rendering="crispEdges" stroke="#fff"/><text id="text4767-4-6-6-6" line-height="125%" style="font-size:3.125;font-family:sans-serif;letter-spacing:0;word-spacing:0;overflow:visible;fill:#fff" x="211.75655" xml:space="preserve" y="219.14616"><tspan id="tspan4769-1-7-0-6" font-size="3.75" x="211.75655" y="219.14616">OPEN</tspan></text></g><g id="g5154" stroke="#fff"><path id="path4942" d="m165.23974 185.46212h55" fill="none" stroke-width=".49999997"/><path id="path4944" d="m165.23974 189.46212h55" fill="none" stroke-width=".49999997"/><path id="path4946" d="m206.78749 189.21212v20" fill="none" stroke-width=".5"/><path id="path4948" d="m188.78749 189.21212v20" fill="none" stroke-width=".5"/><path id="path4694-7-1-01" d="m168.46557 193.525h17.01885" style="overflow:visible;fill:#fff;fill-rule:evenodd;stroke-width:.80000001;stroke-linecap:round;stroke-dasharray:1.60000004 1.60000004;shape-rendering:crispEdges"/><path id="path4965" d="m168.24167 203.52499h10.96664" style="overflow:visible;fill:#fff;fill-rule:evenodd;stroke-width:.80000001;stroke-linecap:round;stroke-dasharray:1.60000002 1.60000002;shape-rendering:crispEdges"/><path id="path4967" d="m192.24167 193.52499h10.96664" style="overflow:visible;fill:none;stroke-width:.80000001;stroke-linecap:round;stroke-dasharray:1.60000002 1.60000002;shape-rendering:crispEdges"/><path id="path4969" d="m192.24167 197.52499h10.96664" style="overflow:visible;fill:none;stroke-width:.80000001;stroke-linecap:round;stroke-dasharray:1.60000002 1.60000002;shape-rendering:crispEdges"/><path id="path4971" d="m211.60637 203.52499h7.61224" style="overflow:visible;fill:none;stroke-width:.80000001;stroke-linecap:round;stroke-dasharray:1.60000002 1.60000002;shape-rendering:crispEdges"/><path id="path4973" d="m210.24167 205.52499h10.96664" style="overflow:visible;fill:none;stroke-width:.80000001;stroke-linecap:round;stroke-dasharray:1.60000002 1.60000002;shape-rendering:crispEdges"/><path id="path4975" d="m168.46557 187.525h17.01885" style="overflow:visible;fill:#fff;fill-rule:evenodd;stroke-linecap:round;stroke-dasharray:2 2;shape-rendering:crispEdges"/><path id="path4977" d="m168.46557 171.525h17.01885" style="overflow:visible;fill:#fff;fill-rule:evenodd;stroke-width:2;stroke-linecap:round;stroke-dasharray:4 4;shape-rendering:crispEdges"/><path id="path4979" d="m213.15623 171.525h6.63753" style="overflow:visible;fill:#fff;fill-rule:evenodd;stroke-linecap:round;stroke-dasharray:2.00000001 2.00000001;shape-rendering:crispEdges"/></g></g><g id="g5171" shape-rendering="crispEdges" stroke-width=".80000001"><rect id="rect5826-9" fill="#575d5e" height="10" overflow="visible" stroke="#333" width="19" x="89.5" y="242.64998"/><path id="path4965-4" d="m93.516672 247.64999h10.966638" style="overflow:visible;fill:#fff;fill-rule:evenodd;stroke:#fff;stroke-linecap:round;stroke-dasharray:1.60000002 1.60000002"/></g><g id="g5178"><rect id="rect5826-9-9" fill="#333" height="8.5" overflow="visible" shape-rendering="crispEdges" stroke="#fff" stroke-width=".5" width="18.5" x="103.87313" y="176.82607"/><text id="text4767-4-6-6-6-8" line-height="125%" style="font-size:3.125;font-family:sans-serif;letter-spacing:0;word-spacing:0;overflow:visible;fill:#fff" x="106.78522" xml:space="preserve" y="182.89491"><tspan id="tspan4769-1-7-0-6-5" font-size="5" x="106.78522" y="182.89491">9999</tspan></text></g><g id="ekip"><rect id="rect4148-6" height="54.700001" stroke="#fff" stroke-linejoin="round" stroke-width=".80000001" width="104.2" x="124.3" y="90.999985"/><rect id="rect4489" fill="#04a" height="53.450001" stroke="#fff" stroke-linecap="round" stroke-linejoin="round" stroke-width=".24999999" width="69.75" x="124.925" y="91.624985"/><ellipse id="path5707" cx="217.87497" cy="131.15982" fill="#0aa9d5" rx="2.6000001" ry="2.5999999" stroke="#fff" stroke-linecap="round" stroke-linejoin="round" stroke-width=".25"/><path id="path5711" d="m217.87499 103.6692l1.60001 2.60002 1.60002 2.60002h-3.20003-3.20003l1.60002-2.60002z" fill="#717479" stroke="#fff" stroke-linecap="round" stroke-linejoin="round" stroke-width=".5"/><rect id="rect5713" fill="#707278" height="4.1999998" stroke="#fff" stroke-linecap="round" stroke-linejoin="round" stroke-width=".5" width="6.6999998" x="214.52498" y="95.689224"/><g id="g5349"><rect id="rect5670" fill="#fff" height="10" width="70" x="124.8" y="135.19998"/><path id="path5180-5-3-2-7-1-2-3-2" d="m174.21779 136.69999l-.91821 3.43h1.89685v-3.43zm1.11864 0v3.43h1.89682l-.91805-3.43zm3.91999 0v3.43h2.03v-3.43zm2.17 0v3.43h2.12503a2.1000002 2.1000002 0 0 0 -.72667-.4822 1.5750001 1.5750001 0 0 0  .80678-1.3728 1.5750001 1.5750001 0 0 0 -1.575-1.575 1.5750001 1.5750001 0 0 0 -.00012 0h-.63zm3.29 0v3.43h2.03v-3.43zm2.17 0v3.43h2.12503a2.1000002 2.1000002 0 0 0 -.72667-.4822 1.5750001 1.5750001 0 0 0  .80678-1.3728 1.5750001 1.5750001 0 0 0 -1.575-1.575 1.5750001 1.5750001 0 0 0 -.00012 0h-.63zm-13.62429 3.57l-.91819 3.43h1.74999l.37105-1.39999h.73145v-2.03001zm2.0743 0v2.03001h.73158l.37092 1.39999h1.74999l-.91806-3.43zm3.91999 0v3.43h2.03v-3.43zm2.17 0v3.43h.63a2.1000002 2.1000002 0 0 0  .00011 0 2.1000002 2.1000002 0 0 0  2.1-2.1 2.1000002 2.1000002 0 0 0 -.47838-1.33h-2.25176zm3.29 0v3.43h2.03v-3.43zm2.17 0v3.43h.63a2.1000002 2.1000002 0 0 0  .00011 0 2.1000002 2.1000002 0 0 0  2.1-2.1 2.1000002 2.1000002 0 0 0 -.47838-1.33h-2.25175z" fill="#bb1e10" overflow="visible" shape-rendering="crispEdges"/></g><g id="g5355"><ellipse id="path5709" cx="217.87497" cy="116.53291" fill="#0aa9d5" rx="3.8750002" ry="3.875" stroke="#fff" stroke-linecap="round" stroke-linejoin="round" stroke-width=".25"/><path id="path5207" d="m217.87499 114.0332l-2.61133 2.4961c-.0434.0421-.044.11235-.002.15625.0421.0435.11225.0459.15625.004l2.45703-2.35156 2.45703 2.35156c.0213.0204.0488.0293.0762.0293.029 0 .0585-.0106.0801-.0332.0425-.044.04-.11415-.004-.15625l-2.60938-2.4961zm.88086.37305c-.0609 0-.10938.0486-.10938.10937 0 .0608.0485.11133.10938.11133h.66211v.66016c0 .0608.0485.10937.10937.10937.0609 0 .11133-.0486.11133-.10937v-.88086zm-2.75391 2.20313c-.061 0-.10937.0486-.10937.10937v2.31445h1.54101v-1.43164h.88282v1.43164h1.54101v-2.20312c0-.0608-.0485-.11133-.10937-.11133-.0609 0-.10938.0505-.10938.11133v1.98242h-1.10351v-1.43164h-1.32032v1.43164h-1.10156v-2.09375c0-.0608-.0504-.10937-.11133-.10937z" fill="#fff"/></g><g id="g5362"><rect id="rect5689" fill="#2a7fff" height="12.332421" rx=".5" width="11.30472" x="132.84291" y="96.735138"/><path id="path7024" d="m140.51502 104.18702v-2.76195h-2.95464m-2.89042 5.84505l5.62025-5.62024m-5.9414-3.115226c0 8.414316 0 8.735466 0 8.735466h8.28584" fill="none" stroke="#fff" stroke-linecap="round" stroke-width=".80000001"/><path id="path4971-0" d="m134.68915 111.2635h7.61224" style="overflow:visible;fill:none;stroke:#fff;stroke-width:.80000001;stroke-linecap:round;stroke-dasharray:1.60000002 1.60000002;shape-rendering:crispEdges"/></g><g id="g5370"><rect id="rect5687" fill="#2a7fff" height="12.332421" rx=".5" width="11.30472" x="154.14764" y="96.735138"/><path id="path7011" d="m161.81974 104.18702v-2.76195h-2.95464m-2.89041 5.84505l5.62024-5.62024m-5.9414-3.115226c0 8.414316 0 8.735466 0 8.735466h8.28585" fill="none" stroke="#fff" stroke-linecap="round" stroke-width=".80000001"/><path id="path5246" d="m155.99316 111.2635h7.61224" style="overflow:visible;fill:none;stroke:#fff;stroke-width:.80000001;stroke-linecap:round;stroke-dasharray:1.60000002 1.60000002;shape-rendering:crispEdges"/></g><g id="g5379"><rect id="rect5685" fill="#2a7fff" height="12.332421" rx=".5" width="11.30472" x="175.45236" y="96.735138"/><ellipse id="path5715" cx="181.10472" cy="102.90135" fill="#fff" rx="3.5999999" ry="3.6000001" stroke="#00f" stroke-linecap="round" stroke-linejoin="round" stroke-width=".80000001"/><path id="ellipse5007" d="m178.11327 104.89878a3.5999999 3.6000001 0 0 0 2.99219 1.60352 3.5999999 3.6000001 0 0 0  2.99219-1.60352z" fill="#2a2aff" stroke="#00f" stroke-linecap="round" stroke-linejoin="round" stroke-width=".80000001"/><path id="path5248" d="m177.29859 111.2635h7.61224" style="overflow:visible;fill:none;stroke:#fff;stroke-width:.80000001;stroke-linecap:round;stroke-dasharray:1.60000002 1.60000002;shape-rendering:crispEdges"/></g><g id="g5388"><rect id="rect5683" fill="#5fd38d" height="12.332421" rx=".5" width="11.30472" x="132.84291" y="117.06757"/><path id="path3065" d="m140.80722 125.29408c.25419.25419.24402.66089-.0101.92519-.26436.25419-.67101.25419-.9252-.0101l-1.63696-1.72848-1.52508 1.84027c-.14234.15251-.39653.15251-.54904 0l-.39653-.4067c-.15252-.1423-.15252-.39648 0-.549l1.74876-1.62679-.84391-.8134c-.27452-.26436-.43725-.3457-.66089-.27453-.22368.0813-.53887.0813-.83368-.11184-.63038-.4067-.58977-1.16926-.58977-1.16926l.0508-.0813c0 0 .56938.36603.64055.4067.0916.0712.4067.21351.69145-.22368.29485-.43721.0508-.71173-.0306-.76257-.0711-.0407-.64056-.41687-.64056-.41687l.0508-.0813c0 0 .66088-.33552 1.28105.0305 0 .0203.15252.11185.21352.16268.39653.35587.39653.7524.32536 1.07776-.061.29485 0 .39653.23385.65072l.8439.8439 1.00659-1.02692.73201.7524-.96586.98625 1.78947 1.60646zm1.51496-2.57237l-.54905.55921c-.11184.11184-.28474.11184-.40669 0l-.12201-.13218c-.0915-.0813-.13218-.23386-.0813-.30502.0915-.061.061-.24402-.11185-.4067-.24402-.25419-.55921-.26436-.68117-.13218-.0508.0407-.21351.21352-.21351.21352l-.7524-.74223.12201-.12201c0 0 .0305-.0305.0915-.10168.23385-.23385-.0101-.49821-.0101-.49821-.66089-.65072-1.58608-.64055-1.58608-.64055l-.0101-.23385c1.86065-.47787 2.56216.33553 2.81635.58971.23385.23386.47782.47782.53888.53888.13217.13218 0 .50838.19318.7219.0915.0915.21352.13217.30502.13217.10168-.0915.26436-.061.3457.0305l.11184.12201c.11179.11184.11179.28469-.00005.4067zm-1.74876 2.78584c-.13223-.13218-.34569-.13218-.48809 0-.12196.13218-.12196.35586 0 .47787.1424.13218.35586.15251.48809.0101.13213-.12196.13213-.35586 0-.48804z" fill="#f9f9f9"/><path id="path5250" d="m134.68915 131.0135h7.61224" style="overflow:visible;fill:none;stroke:#fff;stroke-width:.80000001;stroke-linecap:round;stroke-dasharray:1.60000002 1.60000002;shape-rendering:crispEdges"/></g><g id="g5396"><rect id="rect5681" fill="#0aa9d5" height="12.332421" rx=".5" width="11.30472" x="154.14764" y="117.06757"/><path id="path4978" d="m156.73826 120.87205h6.12346m-3.06173-.4v1.53086 1.53087 1.53086 1.53087" fill="#fff" fill-rule="evenodd" stroke="#fff" stroke-width="2"/><path id="path5252" d="m155.99387 131.0135h7.61224" style="overflow:visible;fill:none;stroke:#fff;stroke-width:.80000001;stroke-linecap:round;stroke-dasharray:1.60000002 1.60000002;shape-rendering:crispEdges"/></g><g id="g5404"><rect id="rect5679" fill="#37c871" height="12.332421" rx=".5" width="11.30472" x="175.45236" y="117.06757"/><path id="path4870-5" d="m181.04744 121.06304a.70309869.70312015 0 0 0 -.72352.70269.70309869.70312015 0 0 0  1.4054 0 .70309869.70312015 0 0 0 -.68188-.70269zm.72352 1.87645l-1.9155.0677v.31751c.2788-.009.67414-.0577.67147.24725v1.92591c-.0153.1525-.065.23318-.27067.23944l-.34354.005v.32011h2.44122v-.32011l-.3123-.005c-.19475-.02-.27468-.0688-.27068-.23944v-2.55834z" fill="#fff" overflow="visible"/><path id="path5254" d="m177.29859 131.0135h7.61224" style="overflow:visible;fill:none;stroke:#fff;stroke-width:.80000001;stroke-linecap:round;stroke-dasharray:1.60000002 1.60000002;shape-rendering:crispEdges"/></g><rect id="rect4489-0" height="7.5" style="overflow:visible;fill:none;stroke:#fff;stroke-width:.24999993;stroke-linecap:round;stroke-linejoin:round" width="19.799999" x="207.97498" y="137.57498"/><text id="text4767-4-6-6-6-8-2" line-height="125%" style="font-size:3.125;font-family:sans-serif;letter-spacing:0;word-spacing:0;overflow:visible;fill:#fff" x="123.53378" xml:space="preserve" y="87.545006"><tspan id="tspan4769-1-7-0-6-5-5" font-size="3.75" x="123.53378" y="87.545006">Ekip Touch LSIG</tspan></text><path id="path5295" d="m219.09076 85.312326c.15866.158664.28141.340846.36826.546596.0904.21309.13552.436221.13552.668975 0 .232779-.0452.45591-.13552.669-.0872.206118-.20999.388325-.36826.546989-.15867.158664-.34085.281411-.5466.368268-.21348.09032-.43659.135489-.66937.135489-.23278 0-.45591-.04517-.66897-.135489-.20615-.08686-.38835-.209604-.54662-.368268-.15867-.158664-.28142-.340871-.36827-.546621-.0903-.213065-.13549-.436196-.13549-.668975 0-.232779.0452-.455885.13549-.668976.0868-.206142.2096-.388324.36827-.546595.0332-.03322.0734-.04981.12083-.04981.0475 0 .088.01669.12235.04981.034.03319.051.07333.051.120808 0 .04748-.0169.0884-.051.122355-.12621.126234-.22465.271788-.29567.436589-.0718.171798-.10733.350519-.10733.535819 0 .1853.0359.364021.10733.535819.0706.164825.16907.310355.29567.436589.12624.126209.27177.224653.43659.295675.1718.07181.35052.10733.53582.10733.1853 0 .36402-.03592.53582-.10733.1648-.07063.31036-.169073.43657-.295675.12623-.126234.22467-.271764.29569-.436589.0718-.171798.10731-.350519.10731-.535819 0-.1853-.0359-.364021-.10731-.535819-.0707-.164801-.16907-.310355-.29569-.436589-.034-.03395-.051-.07488-.051-.122355 0-.04748.0169-.08762.051-.120808.034-.03322.0749-.04981.12237-.04981.0471 0 .0876.0162.12121.04942zm-1.21597-.564689c.0475 0 .088.01694.1216.05057.0336.03358.0506.07411.0506.121618v1.058921c0 .04748-.0167.08801-.0506.121594-.0336.03358-.0741.05057-.1216.05057-.0475 0-.088-.01669-.12159-.05057-.0336-.03358-.0506-.07412-.0506-.121594v-1.059313c0-.0475.0169-.08801.0506-.121619.034-.03317.0745-.05018.12159-.05018z" fill="#0f0"/></g><rect id="rect4491" fill="none" height="78.5" stroke="#fff" stroke-linecap="round" stroke-linejoin="round" stroke-width=".5" width="210" x="87.5" y="81.499985"/></g></g></svg>