<svg id="svg2" height="425.79999" overflow="visible" viewBox="0 0 929.8 425.79999" width="929.79999" xmlns="http://www.w3.org/2000/svg" xmlns:xlink="http://www.w3.org/1999/xlink"><clipPath id="clipPath5186"><path id="path5188" d="m470.95868 154.10921v228.20117h100.19922v-228.20117zm63.5 32.65039h32v80h-32zm-59.83398 122.93164h90v70h-90z" overflow="visible"/></clipPath><clipPath id="clipPath5212"><path id="path5214" d="m120.5-169.9163v56.5h53.31641v-56.5zm55.31641 0v56.5h31.58398v-56.5zm139.58398 0v56.5h60.09961v-56.5z"/></clipPath><clipPath id="clipPath5307"><path id="path5309" d="m110.40039 141.05078v230h72.59961v-230zm202.59961 0v230h72.59961v-230z"/></clipPath><g id="layer1"><rect id="breakerRear" fill="#575d5e" fill-rule="evenodd" height="425" stroke="#333" stroke-width=".80000001" width="929"/><g id="frontRear"><rect id="rect4146-9" fill="#575d5e" height="325" stroke="#333" stroke-width=".80000001" width="276" x="326.5" y="63.999977"/><path id="path5175" d="m599.30844 344.70979h-78.5m78.5 1.5h-78.5m78.5 1.5h-78.5m78.5 1.5h-78.5m78.5 1.5h-78.5m78.5 1.5h-78.5m78.5 1.5h-78.5m78.5 1.5h-78.5m78.5 1.5h-78.5m78.5 1.5h-78.5m78.5 1.5h-78.5m78.5 1.5h-78.5m78.5 1.5h-78.5m78.5 1.5h-78.5m78.5 1.5h-78.5m78.5 1.5h-78.5m78.5 1.5h-78.5m78.5 1.5h-78.5m78.5 1.5h-78.5m78.5 1.5h-78.5m78.5 1.5h-78.5m78.5 1.5h-78.5m78.5 1.5h-78.5m78.5 1.5h-78.5m78.5 1.5h-78.5m78.5 1.5h-78.5m78.5 1.5h-78.5m78.5 1.5h-78.5m78.5 1.5h-78.5m78.5 1.5h-78.5m78.5 1.5h-78.5m78.5 1.5h-78.5m78.5 1.5h-78.5m78.5 1.5h-78.5m78.5 1.5h-78.5m64.75-50.75v50.5m1.5-50.5v50.5m1.5-50.5v50.5m1.5-50.5v50.5m1.5-50.5v50.5m1.5-50.5v50.5m1.5-50.5v50.5m1.5-50.5v50.5m1.5-50.5v50.5m1.5-50.5v50.5m-78-50.5v50.5m1.5-50.5v50.5m1.5-50.5v50.5m1.5-50.5v50.5m1.5-50.5v50.5m1.5-50.5v50.5m1.5-50.5v50.5m1.5-50.5v50.5m1.5-50.5v50.5m1.5-50.5v50.5m1.5-50.5v50.5m1.5-50.5v50.5m1.5-50.5v50.5m1.5-50.5v50.5m1.5-50.5v50.5m1.5-50.5v50.5m1.5-50.5v50.5m1.5-50.5v50.5m1.5-50.5v50.5m1.5-50.5v50.5m1.5-50.5v50.5m1.5-50.5v50.5m1.5-50.5v50.5m1.5-50.5v50.5m1.5-50.5v50.5m1.5-50.5v50.5m1.5-50.5v50.5m1.5-50.5v50.5m1.5-50.5v50.5m1.5-50.5v50.5m1.5-50.5v50.5m1.5-50.5v50.5m1.5-50.5v50.5m1.5-50.5v50.5m1.5-50.5v50.5m1.5-50.5v50.5m1.5-50.5v50.5m1.5-50.5v50.5m1.5-50.5v50.5m1.5-50.5v50.5m1.5-50.5v50.5m1.5-50.5v50.5m1.5-50.5v50.5m-63-50.75h78v51h-78zm78.25-51h-78.5m78.5 1.5h-78.5m78.5 1.5h-78.5m78.5 1.5h-78.5m78.5 1.5h-78.5m78.5 1.5h-78.5m78.5 1.5h-78.5m78.5 1.5h-78.5m78.5 1.5h-78.5m78.5 1.5h-78.5m78.5 1.5h-78.5m78.5 1.5h-78.5m78.5 1.5h-78.5m78.5 1.5h-78.5m78.5 1.5h-78.5m78.5 1.5h-78.5m78.5 1.5h-78.5m78.5 1.5h-78.5m78.5 1.5h-78.5m78.5 1.5h-78.5m78.5 1.5h-78.5m78.5 1.5h-78.5m78.5 1.5h-78.5m78.5 1.5h-78.5m78.5 1.5h-78.5m78.5 1.5h-78.5m78.5 1.5h-78.5m78.5 1.5h-78.5m78.5 1.5h-78.5m78.5 1.5h-78.5m78.5 1.5h-78.5m78.5 1.5h-78.5m78.5 1.5h-78.5m78.5 1.5h-78.5m78.5 1.5h-78.5m64.75-50.75v50.5m1.5-50.5v50.5m1.5-50.5v50.5m1.5-50.5v50.5m1.5-50.5v50.5m1.5-50.5v50.5m1.5-50.5v50.5m1.5-50.5v50.5m1.5-50.5v50.5m1.5-50.5v50.5m-78-50.5v50.5m1.5-50.5v50.5m1.5-50.5v50.5m1.5-50.5v50.5m1.5-50.5v50.5m1.5-50.5v50.5m1.5-50.5v50.5m1.5-50.5v50.5m1.5-50.5v50.5m1.5-50.5v50.5m1.5-50.5v50.5m1.5-50.5v50.5m1.5-50.5v50.5m1.5-50.5v50.5m1.5-50.5v50.5m1.5-50.5v50.5m1.5-50.5v50.5m1.5-50.5v50.5m1.5-50.5v50.5m1.5-50.5v50.5m1.5-50.5v50.5m1.5-50.5v50.5m1.5-50.5v50.5m1.5-50.5v50.5m1.5-50.5v50.5m1.5-50.5v50.5m1.5-50.5v50.5m1.5-50.5v50.5m1.5-50.5v50.5m1.5-50.5v50.5m1.5-50.5v50.5m1.5-50.5v50.5m1.5-50.5v50.5m1.5-50.5v50.5m1.5-50.5v50.5m1.5-50.5v50.5m1.5-50.5v50.5m1.5-50.5v50.5m1.5-50.5v50.5m1.5-50.5v50.5m1.5-50.5v50.5m1.5-50.5v50.5m1.5-50.5v50.5m-63-50.75h78v51h-78zm78.25-51h-78.5m78.5 1.5h-78.5m78.5 1.5h-78.5m78.5 1.5h-78.5m78.5 1.5h-78.5m78.5 1.5h-78.5m78.5 1.5h-78.5m78.5 1.5h-78.5m78.5 1.5h-78.5m78.5 1.5h-78.5m78.5 1.5h-78.5m78.5 1.5h-78.5m78.5 1.5h-78.5m78.5 1.5h-78.5m78.5 1.5h-78.5m78.5 1.5h-78.5m78.5 1.5h-78.5m78.5 1.5h-78.5m78.5 1.5h-78.5m78.5 1.5h-78.5m78.5 1.5h-78.5m78.5 1.5h-78.5m78.5 1.5h-78.5m78.5 1.5h-78.5m78.5 1.5h-78.5m78.5 1.5h-78.5m78.5 1.5h-78.5m78.5 1.5h-78.5m78.5 1.5h-78.5m78.5 1.5h-78.5m78.5 1.5h-78.5m78.5 1.5h-78.5m78.5 1.5h-78.5m78.5 1.5h-78.5m78.5 1.5h-78.5m64.75-50.75v50.5m1.5-50.5v50.5m1.5-50.5v50.5m1.5-50.5v50.5m1.5-50.5v50.5m1.5-50.5v50.5m1.5-50.5v50.5m1.5-50.5v50.5m1.5-50.5v50.5m1.5-50.5v50.5m-78-50.5v50.5m1.5-50.5v50.5m1.5-50.5v50.5m1.5-50.5v50.5m1.5-50.5v50.5m1.5-50.5v50.5m1.5-50.5v50.5m1.5-50.5v50.5m1.5-50.5v50.5m1.5-50.5v50.5m1.5-50.5v50.5m1.5-50.5v50.5m1.5-50.5v50.5m1.5-50.5v50.5m1.5-50.5v50.5m1.5-50.5v50.5m1.5-50.5v50.5m1.5-50.5v50.5m1.5-50.5v50.5m1.5-50.5v50.5m1.5-50.5v50.5m1.5-50.5v50.5m1.5-50.5v50.5m1.5-50.5v50.5m1.5-50.5v50.5m1.5-50.5v50.5m1.5-50.5v50.5m1.5-50.5v50.5m1.5-50.5v50.5m1.5-50.5v50.5m1.5-50.5v50.5m1.5-50.5v50.5m1.5-50.5v50.5m1.5-50.5v50.5m1.5-50.5v50.5m1.5-50.5v50.5m1.5-50.5v50.5m1.5-50.5v50.5m1.5-50.5v50.5m1.5-50.5v50.5m1.5-50.5v50.5m1.5-50.5v50.5m1.5-50.5v50.5m-63-50.75h78v51h-78zm78.25-51h-78.5m78.5 1.5h-78.5m78.5 1.5h-78.5m78.5 1.5h-78.5m78.5 1.5h-78.5m78.5 1.5h-78.5m78.5 1.5h-78.5m78.5 1.5h-78.5m78.5 1.5h-78.5m78.5 1.5h-78.5m78.5 1.5h-78.5m78.5 1.5h-78.5m78.5 1.5h-78.5m78.5 1.5h-78.5m78.5 1.5h-78.5m78.5 1.5h-78.5m78.5 1.5h-78.5m78.5 1.5h-78.5m78.5 1.5h-78.5m78.5 1.5h-78.5m78.5 1.5h-78.5m78.5 1.5h-78.5m78.5 1.5h-78.5m78.5 1.5h-78.5m78.5 1.5h-78.5m78.5 1.5h-78.5m78.5 1.5h-78.5m78.5 1.5h-78.5m78.5 1.5h-78.5m78.5 1.5h-78.5m78.5 1.5h-78.5m78.5 1.5h-78.5m78.5 1.5h-78.5m78.5 1.5h-78.5m78.5 1.5h-78.5m64.75-50.75v50.5m1.5-50.5v50.5m1.5-50.5v50.5m1.5-50.5v50.5m1.5-50.5v50.5m1.5-50.5v50.5m1.5-50.5v50.5m1.5-50.5v50.5m1.5-50.5v50.5m1.5-50.5v50.5m-78-50.5v50.5m1.5-50.5v50.5m1.5-50.5v50.5m1.5-50.5v50.5m1.5-50.5v50.5m1.5-50.5v50.5m1.5-50.5v50.5m1.5-50.5v50.5m1.5-50.5v50.5m1.5-50.5v50.5m1.5-50.5v50.5m1.5-50.5v50.5m1.5-50.5v50.5m1.5-50.5v50.5m1.5-50.5v50.5m1.5-50.5v50.5m1.5-50.5v50.5m1.5-50.5v50.5m1.5-50.5v50.5m1.5-50.5v50.5m1.5-50.5v50.5m1.5-50.5v50.5m1.5-50.5v50.5m1.5-50.5v50.5m1.5-50.5v50.5m1.5-50.5v50.5m1.5-50.5v50.5m1.5-50.5v50.5m1.5-50.5v50.5m1.5-50.5v50.5m1.5-50.5v50.5m1.5-50.5v50.5m1.5-50.5v50.5m1.5-50.5v50.5m1.5-50.5v50.5m1.5-50.5v50.5m1.5-50.5v50.5m1.5-50.5v50.5m1.5-50.5v50.5m1.5-50.5v50.5m1.5-50.5v50.5m1.5-50.5v50.5m1.5-50.5v50.5m-63-50.75h78v51h-78zm78.25-50.99999h-78.5m78.5 1.5h-78.5m78.5 1.5h-78.5m78.5 1.5h-78.5m78.5 1.5h-78.5m78.5 1.5h-78.5m78.5 1.5h-78.5m78.5 1.5h-78.5m78.5 1.5h-78.5m78.5 1.5h-78.5m78.5 1.5h-78.5m78.5 1.5h-78.5m78.5 1.5h-78.5m78.5 1.5h-78.5m78.5 1.5h-78.5m78.5 1.5h-78.5m78.5 1.5h-78.5m78.5 1.5h-78.5m78.5 1.5h-78.5m78.5 1.5h-78.5m78.5 1.5h-78.5m78.5 1.5h-78.5m78.5 1.5h-78.5m78.5 1.5h-78.5m78.5 1.5h-78.5m78.5 1.5h-78.5m78.5 1.5h-78.5m78.5 1.5h-78.5m78.5 1.5h-78.5m78.5 1.5h-78.5m78.5 1.5h-78.5m78.5 1.5h-78.5m78.5 1.5h-78.5m78.5 1.5h-78.5m78.5 1.5h-78.5m64.75-50.75v50.5m1.5-50.5v50.5m1.5-50.5v50.5m1.5-50.5v50.5m1.5-50.5v50.5m1.5-50.5v50.5m1.5-50.5v50.5m1.5-50.5v50.5m1.5-50.5v50.5m1.5-50.5v50.5m-78-50.5v50.5m1.5-50.5v50.5m1.5-50.5v50.5m1.5-50.5v50.5m1.5-50.5v50.5m1.5-50.5v50.5m1.5-50.5v50.5m1.5-50.5v50.5m1.5-50.5v50.5m1.5-50.5v50.5m1.5-50.5v50.5m1.5-50.5v50.5m1.5-50.5v50.5m1.5-50.5v50.5m1.5-50.5v50.5m1.5-50.5v50.5m1.5-50.5v50.5m1.5-50.5v50.5m1.5-50.5v50.5m1.5-50.5v50.5m1.5-50.5v50.5m1.5-50.5v50.5m1.5-50.5v50.5m1.5-50.5v50.5m1.5-50.5v50.5m1.5-50.5v50.5m1.5-50.5v50.5m1.5-50.5v50.5m1.5-50.5v50.5m1.5-50.5v50.5m1.5-50.5v50.5m1.5-50.5v50.5m1.5-50.5v50.5m1.5-50.5v50.5m1.5-50.5v50.5m1.5-50.5v50.5m1.5-50.5v50.5m1.5-50.5v50.5m1.5-50.5v50.5m1.5-50.5v50.5m1.5-50.5v50.5m1.5-50.5v50.5m1.5-50.5v50.5m-63-50.75h78v51h-78zm .2497 203.99999h-78.5m78.5 1.5h-78.5m78.5 1.5h-78.5m78.5 1.5h-78.5m78.5 1.5h-78.5m78.5 1.5h-78.5m78.5 1.5h-78.5m78.5 1.5h-78.5m78.5 1.5h-78.5m78.5 1.5h-78.5m78.5 1.5h-78.5m78.5 1.5h-78.5m78.5 1.5h-78.5m78.5 1.5h-78.5m78.5 1.5h-78.5m78.5 1.5h-78.5m78.5 1.5h-78.5m78.5 1.5h-78.5m78.5 1.5h-78.5m78.5 1.5h-78.5m78.5 1.5h-78.5m78.5 1.5h-78.5m78.5 1.5h-78.5m78.5 1.5h-78.5m78.5 1.5h-78.5m78.5 1.5h-78.5m78.5 1.5h-78.5m78.5 1.5h-78.5m78.5 1.5h-78.5m78.5 1.5h-78.5m78.5 1.5h-78.5m78.5 1.5h-78.5m78.5 1.5h-78.5m78.5 1.5h-78.5m78.5 1.5h-78.5m64.75-50.75v50.5m1.5-50.5v50.5m1.5-50.5v50.5m1.5-50.5v50.5m1.5-50.5v50.5m1.5-50.5v50.5m1.5-50.5v50.5m1.5-50.5v50.5m1.5-50.5v50.5m1.5-50.5v50.5m-78-50.5v50.5m1.5-50.5v50.5m1.5-50.5v50.5m1.5-50.5v50.5m1.5-50.5v50.5m1.5-50.5v50.5m1.5-50.5v50.5m1.5-50.5v50.5m1.5-50.5v50.5m1.5-50.5v50.5m1.5-50.5v50.5m1.5-50.5v50.5m1.5-50.5v50.5m1.5-50.5v50.5m1.5-50.5v50.5m1.5-50.5v50.5m1.5-50.5v50.5m1.5-50.5v50.5m1.5-50.5v50.5m1.5-50.5v50.5m1.5-50.5v50.5m1.5-50.5v50.5m1.5-50.5v50.5m1.5-50.5v50.5m1.5-50.5v50.5m1.5-50.5v50.5m1.5-50.5v50.5m1.5-50.5v50.5m1.5-50.5v50.5m1.5-50.5v50.5m1.5-50.5v50.5m1.5-50.5v50.5m1.5-50.5v50.5m1.5-50.5v50.5m1.5-50.5v50.5m1.5-50.5v50.5m1.5-50.5v50.5m1.5-50.5v50.5m1.5-50.5v50.5m1.5-50.5v50.5m1.5-50.5v50.5m1.5-50.5v50.5m1.5-50.5v50.5m-63-50.75h78v51h-78zm78.25-51h-78.5m78.5 1.5h-78.5m78.5 1.5h-78.5m78.5 1.5h-78.5m78.5 1.5h-78.5m78.5 1.5h-78.5m78.5 1.5h-78.5m78.5 1.5h-78.5m78.5 1.5h-78.5m78.5 1.5h-78.5m78.5 1.5h-78.5m78.5 1.5h-78.5m78.5 1.5h-78.5m78.5 1.5h-78.5m78.5 1.5h-78.5m78.5 1.5h-78.5m78.5 1.5h-78.5m78.5 1.5h-78.5m78.5 1.5h-78.5m78.5 1.5h-78.5m78.5 1.5h-78.5m78.5 1.5h-78.5m78.5 1.5h-78.5m78.5 1.5h-78.5m78.5 1.5h-78.5m78.5 1.5h-78.5m78.5 1.5h-78.5m78.5 1.5h-78.5m78.5 1.5h-78.5m78.5 1.5h-78.5m78.5 1.5h-78.5m78.5 1.5h-78.5m78.5 1.5h-78.5m78.5 1.5h-78.5m78.5 1.5h-78.5m64.75-50.75v50.5m1.5-50.5v50.5m1.5-50.5v50.5m1.5-50.5v50.5m1.5-50.5v50.5m1.5-50.5v50.5m1.5-50.5v50.5m1.5-50.5v50.5m1.5-50.5v50.5m1.5-50.5v50.5m-78-50.5v50.5m1.5-50.5v50.5m1.5-50.5v50.5m1.5-50.5v50.5m1.5-50.5v50.5m1.5-50.5v50.5m1.5-50.5v50.5m1.5-50.5v50.5m1.5-50.5v50.5m1.5-50.5v50.5m1.5-50.5v50.5m1.5-50.5v50.5m1.5-50.5v50.5m1.5-50.5v50.5m1.5-50.5v50.5m1.5-50.5v50.5m1.5-50.5v50.5m1.5-50.5v50.5m1.5-50.5v50.5m1.5-50.5v50.5m1.5-50.5v50.5m1.5-50.5v50.5m1.5-50.5v50.5m1.5-50.5v50.5m1.5-50.5v50.5m1.5-50.5v50.5m1.5-50.5v50.5m1.5-50.5v50.5m1.5-50.5v50.5m1.5-50.5v50.5m1.5-50.5v50.5m1.5-50.5v50.5m1.5-50.5v50.5m1.5-50.5v50.5m1.5-50.5v50.5m1.5-50.5v50.5m1.5-50.5v50.5m1.5-50.5v50.5m1.5-50.5v50.5m1.5-50.5v50.5m1.5-50.5v50.5m1.5-50.5v50.5m1.5-50.5v50.5m-63-50.75h78v51h-78zm78.25-51h-78.5m78.5 1.5h-78.5m78.5 1.5h-78.5m78.5 1.5h-78.5m78.5 1.5h-78.5m78.5 1.5h-78.5m78.5 1.5h-78.5m78.5 1.5h-78.5m78.5 1.5h-78.5m78.5 1.5h-78.5m78.5 1.5h-78.5m78.5 1.5h-78.5m78.5 1.5h-78.5m78.5 1.5h-78.5m78.5 1.5h-78.5m78.5 1.5h-78.5m78.5 1.5h-78.5m78.5 1.5h-78.5m78.5 1.5h-78.5m78.5 1.5h-78.5m78.5 1.5h-78.5m78.5 1.5h-78.5m78.5 1.5h-78.5m78.5 1.5h-78.5m78.5 1.5h-78.5m78.5 1.5h-78.5m78.5 1.5h-78.5m78.5 1.5h-78.5m78.5 1.5h-78.5m78.5 1.5h-78.5m78.5 1.5h-78.5m78.5 1.5h-78.5m78.5 1.5h-78.5m78.5 1.5h-78.5m78.5 1.5h-78.5m64.75-50.75v50.5m1.5-50.5v50.5m1.5-50.5v50.5m1.5-50.5v50.5m1.5-50.5v50.5m1.5-50.5v50.5m1.5-50.5v50.5m1.5-50.5v50.5m1.5-50.5v50.5m1.5-50.5v50.5m-78-50.5v50.5m1.5-50.5v50.5m1.5-50.5v50.5m1.5-50.5v50.5m1.5-50.5v50.5m1.5-50.5v50.5m1.5-50.5v50.5m1.5-50.5v50.5m1.5-50.5v50.5m1.5-50.5v50.5m1.5-50.5v50.5m1.5-50.5v50.5m1.5-50.5v50.5m1.5-50.5v50.5m1.5-50.5v50.5m1.5-50.5v50.5m1.5-50.5v50.5m1.5-50.5v50.5m1.5-50.5v50.5m1.5-50.5v50.5m1.5-50.5v50.5m1.5-50.5v50.5m1.5-50.5v50.5m1.5-50.5v50.5m1.5-50.5v50.5m1.5-50.5v50.5m1.5-50.5v50.5m1.5-50.5v50.5m1.5-50.5v50.5m1.5-50.5v50.5m1.5-50.5v50.5m1.5-50.5v50.5m1.5-50.5v50.5m1.5-50.5v50.5m1.5-50.5v50.5m1.5-50.5v50.5m1.5-50.5v50.5m1.5-50.5v50.5m1.5-50.5v50.5m1.5-50.5v50.5m1.5-50.5v50.5m1.5-50.5v50.5m1.5-50.5v50.5m-63-50.75h78v51h-78zm78.25-51h-78.5m78.5 1.5h-78.5m78.5 1.5h-78.5m78.5 1.5h-78.5m78.5 1.5h-78.5m78.5 1.5h-78.5m78.5 1.5h-78.5m78.5 1.5h-78.5m78.5 1.5h-78.5m78.5 1.5h-78.5m78.5 1.5h-78.5m78.5 1.5h-78.5m78.5 1.5h-78.5m78.5 1.5h-78.5m78.5 1.5h-78.5m78.5 1.5h-78.5m78.5 1.5h-78.5m78.5 1.5h-78.5m78.5 1.5h-78.5m78.5 1.5h-78.5m78.5 1.5h-78.5m78.5 1.5h-78.5m78.5 1.5h-78.5m78.5 1.5h-78.5m78.5 1.5h-78.5m78.5 1.5h-78.5m78.5 1.5h-78.5m78.5 1.5h-78.5m78.5 1.5h-78.5m78.5 1.5h-78.5m78.5 1.5h-78.5m78.5 1.5h-78.5m78.5 1.5h-78.5m78.5 1.5h-78.5m78.5 1.5h-78.5m64.75-50.75v50.5m1.5-50.5v50.5m1.5-50.5v50.5m1.5-50.5v50.5m1.5-50.5v50.5m1.5-50.5v50.5m1.5-50.5v50.5m1.5-50.5v50.5m1.5-50.5v50.5m1.5-50.5v50.5m-78-50.5v50.5m1.5-50.5v50.5m1.5-50.5v50.5m1.5-50.5v50.5m1.5-50.5v50.5m1.5-50.5v50.5m1.5-50.5v50.5m1.5-50.5v50.5m1.5-50.5v50.5m1.5-50.5v50.5m1.5-50.5v50.5m1.5-50.5v50.5m1.5-50.5v50.5m1.5-50.5v50.5m1.5-50.5v50.5m1.5-50.5v50.5m1.5-50.5v50.5m1.5-50.5v50.5m1.5-50.5v50.5m1.5-50.5v50.5m1.5-50.5v50.5m1.5-50.5v50.5m1.5-50.5v50.5m1.5-50.5v50.5m1.5-50.5v50.5m1.5-50.5v50.5m1.5-50.5v50.5m1.5-50.5v50.5m1.5-50.5v50.5m1.5-50.5v50.5m1.5-50.5v50.5m1.5-50.5v50.5m1.5-50.5v50.5m1.5-50.5v50.5m1.5-50.5v50.5m1.5-50.5v50.5m1.5-50.5v50.5m1.5-50.5v50.5m1.5-50.5v50.5m1.5-50.5v50.5m1.5-50.5v50.5m1.5-50.5v50.5m1.5-50.5v50.5m-63-50.75h78v51h-78zm78.25-50.99999h-78.5m78.5 1.5h-78.5m78.5 1.5h-78.5m78.5 1.5h-78.5m78.5 1.5h-78.5m78.5 1.5h-78.5m78.5 1.5h-78.5m78.5 1.5h-78.5m78.5 1.5h-78.5m78.5 1.5h-78.5m78.5 1.5h-78.5m78.5 1.5h-78.5m78.5 1.5h-78.5m78.5 1.5h-78.5m78.5 1.5h-78.5m78.5 1.5h-78.5m78.5 1.5h-78.5m78.5 1.5h-78.5m78.5 1.5h-78.5m78.5 1.5h-78.5m78.5 1.5h-78.5m78.5 1.5h-78.5m78.5 1.5h-78.5m78.5 1.5h-78.5m78.5 1.5h-78.5m78.5 1.5h-78.5m78.5 1.5h-78.5m78.5 1.5h-78.5m78.5 1.5h-78.5m78.5 1.5h-78.5m78.5 1.5h-78.5m78.5 1.5h-78.5m78.5 1.5h-78.5m78.5 1.5h-78.5m78.5 1.5h-78.5m64.75-50.75v50.5m1.5-50.5v50.5m1.5-50.5v50.5m1.5-50.5v50.5m1.5-50.5v50.5m1.5-50.5v50.5m1.5-50.5v50.5m1.5-50.5v50.5m1.5-50.5v50.5m1.5-50.5v50.5m-78-50.5v50.5m1.5-50.5v50.5m1.5-50.5v50.5m1.5-50.5v50.5m1.5-50.5v50.5m1.5-50.5v50.5m1.5-50.5v50.5m1.5-50.5v50.5m1.5-50.5v50.5m1.5-50.5v50.5m1.5-50.5v50.5m1.5-50.5v50.5m1.5-50.5v50.5m1.5-50.5v50.5m1.5-50.5v50.5m1.5-50.5v50.5m1.5-50.5v50.5m1.5-50.5v50.5m1.5-50.5v50.5m1.5-50.5v50.5m1.5-50.5v50.5m1.5-50.5v50.5m1.5-50.5v50.5m1.5-50.5v50.5m1.5-50.5v50.5m1.5-50.5v50.5m1.5-50.5v50.5m1.5-50.5v50.5m1.5-50.5v50.5m1.5-50.5v50.5m1.5-50.5v50.5m1.5-50.5v50.5m1.5-50.5v50.5m1.5-50.5v50.5m1.5-50.5v50.5m1.5-50.5v50.5m1.5-50.5v50.5m1.5-50.5v50.5m1.5-50.5v50.5m1.5-50.5v50.5m1.5-50.5v50.5m1.5-50.5v50.5m1.5-50.5v50.5m-63-50.75h78v51h-78z" style="fill:#4d4d4d;fill-rule:evenodd;stroke:#575d5e;stroke-width:.5;shape-rendering:crispEdges;clip-path:url(#clipPath5186)" transform="translate(-45.55768 -12.259822)"/><path id="path4556" d="m326.9 371.24998h275.19998" fill="none" stroke="#3b3e44" stroke-width=".79999989"/><g id="g5499"><rect id="rect4592" fill="#bb1e10" height="12" width="275.20001" x="326.89999" y="126.99552"/><path id="path5180-5-3-2-7-1-2-3-2-1" d="m337.02366 128.49553l-1.18056 4.41h2.43881v-4.41zm1.43825 0v4.41h2.43877l-1.18035-4.41zm5.03998 0v4.41h2.61v-4.41zm2.79 0v4.41h2.73219a2.7000003 2.7000003 0 0 0 -.93429-.61997 2.0250001 2.0250001 0 0 0  1.03728-1.76503 2.0250001 2.0250001 0 0 0 -2.025-2.025 2.0250001 2.0250001 0 0 0 -.00015 0h-.81zm4.23 0v4.41h2.61v-4.41zm2.79 0v4.41h2.73219a2.7000003 2.7000003 0 0 0 -.93429-.61997 2.0250001 2.0250001 0 0 0  1.03728-1.76503 2.0250001 2.0250001 0 0 0 -2.025-2.025 2.0250001 2.0250001 0 0 0 -.00015 0h-.81zm-17.51694 4.59l-1.18053 4.41h2.24999l.47706-1.79999h.94044v-2.61001zm2.66696 0v2.61001h.9406l.4769 1.79999h2.24998l-1.18036-4.41zm5.03998 0v4.41h2.61v-4.41zm2.79 0v4.41h.81a2.7000003 2.7000003 0 0 0  .00015 0 2.7000003 2.7000003 0 0 0  2.7-2.7 2.7000003 2.7000003 0 0 0 -.61506-1.71h-2.89512zm4.23 0v4.41h2.61v-4.41zm2.79 0v4.41h.81a2.7000003 2.7000003 0 0 0  .00015 0 2.7000003 2.7000003 0 0 0  2.7-2.7 2.7000003 2.7000003 0 0 0 -.61506-1.71h-2.89511z" fill="#fff" overflow="visible" shape-rendering="crispEdges"/><path id="path4600" d="m326.9 139.39553h275.19999" fill="none" stroke="#fff" stroke-width=".79999995"/><text id="text6321-4-4-4-1-7-4-4" line-height="100%" style="font-weight:bold;font-size:5.39302158;font-family:sans-serif;letter-spacing:0;word-spacing:0;overflow:visible;fill:#fff;shape-rendering:crispEdges" x="541.53979" xml:space="preserve" y="136.17422"><tspan id="tspan6323-9-5-8-9-5-4-8" fill="#fff" font-family="sans-serif" font-size="8.75" font-weight="bold" line-height="100%" x="541.53979" y="136.17422">Emax 2.2</tspan></text></g><rect id="rect4633-8" height="229" style="overflow:visible;fill:none;stroke:#ccc;stroke-width:.80000001;stroke-linecap:round;stroke-linejoin:bevel" width="123" x="403" y="141.44997"/><g id="g5546"><rect id="rect4148-6-0" height="54.700001" stroke="#fff" stroke-linejoin="round" stroke-width=".80000001" width="104.2" x="425.79999" y="71.895523"/><rect id="rect4489-03" fill="#04a" height="53.450001" stroke="#fff" stroke-linecap="round" stroke-linejoin="round" stroke-width=".24999999" width="69.75" x="426.42499" y="72.520523"/><ellipse id="path5707-6" cx="519.375" cy="112.05535" fill="#0aa9d5" rx="2.6000001" ry="2.5999999" stroke="#fff" stroke-linecap="round" stroke-linejoin="round" stroke-width=".25"/><path id="path5711-6" d="m519.37499 84.564739l1.60001 2.60002 1.60002 2.60002h-3.20003-3.20003l1.60002-2.60002z" fill="#717479" stroke="#fff" stroke-linecap="round" stroke-linejoin="round" stroke-width=".5"/><rect id="rect5713-0" fill="#707278" height="4.1999998" stroke="#fff" stroke-linecap="round" stroke-linejoin="round" stroke-width=".5" width="6.6999998" x="516.02496" y="76.584763"/><g id="g5590"><rect id="rect5670-4" fill="#fff" height="10" width="70" x="426.29999" y="116.09553"/><path id="path5180-5-3-2-7-1-2-3-2-8" d="m475.71779 117.59553l-.91821 3.43h1.89685v-3.43zm1.11864 0v3.43h1.89682l-.91805-3.43zm3.91999 0v3.43h2.03v-3.43zm2.17 0v3.43h2.12503a2.1000002 2.1000002 0 0 0 -.72667-.4822 1.5750001 1.5750001 0 0 0  .80678-1.3728 1.5750001 1.5750001 0 0 0 -1.575-1.575 1.5750001 1.5750001 0 0 0 -.00012 0h-.63zm3.29 0v3.43h2.03v-3.43zm2.17 0v3.43h2.12503a2.1000002 2.1000002 0 0 0 -.72667-.4822 1.5750001 1.5750001 0 0 0  .80678-1.3728 1.5750001 1.5750001 0 0 0 -1.575-1.575 1.5750001 1.5750001 0 0 0 -.00012 0h-.63zm-13.62429 3.57l-.91819 3.43h1.74999l.37105-1.39999h.73145v-2.03001zm2.0743 0v2.03001h.73158l.37092 1.39999h1.74999l-.91806-3.43zm3.91999 0v3.43h2.03v-3.43zm2.17 0v3.43h.63a2.1000002 2.1000002 0 0 0  .00011 0 2.1000002 2.1000002 0 0 0  2.1-2.1 2.1000002 2.1000002 0 0 0 -.47838-1.33h-2.25176zm3.29 0v3.43h2.03v-3.43zm2.17 0v3.43h.63a2.1000002 2.1000002 0 0 0  .00011 0 2.1000002 2.1000002 0 0 0  2.1-2.1 2.1000002 2.1000002 0 0 0 -.47838-1.33h-2.25175z" fill="#bb1e10" overflow="visible" shape-rendering="crispEdges"/></g><g id="g5596"><ellipse id="path5709-2" cx="519.375" cy="97.428452" fill="#0aa9d5" rx="3.8750002" ry="3.875" stroke="#fff" stroke-linecap="round" stroke-linejoin="round" stroke-width=".25"/><path id="path5207-4" d="m519.37499 94.928739l-2.61133 2.4961c-.0434.0421-.044.11235-.002.15625.0421.0435.11225.0459.15625.004l2.45703-2.35156 2.45703 2.35156c.0213.0204.0488.0293.0762.0293.029 0 .0585-.0106.0801-.0332.0425-.044.04-.11415-.004-.15625l-2.60938-2.4961zm.88086.37305c-.0609 0-.10938.0486-.10938.10937 0 .0608.0485.11133.10938.11133h.66211v.66016c0 .0608.0485.10937.10937.10937.0609 0 .11133-.0486.11133-.10937v-.88086zm-2.75391 2.20313c-.061 0-.10937.0486-.10937.10937v2.31445h1.54101v-1.43164h.88282v1.43164h1.54101v-2.20312c0-.0608-.0485-.11133-.10937-.11133-.0609 0-.10938.0505-.10938.11133v1.98242h-1.10351v-1.43164h-1.32032v1.43164h-1.10156v-2.09375c0-.0608-.0504-.10937-.11133-.10937z" fill="#fff"/></g><g id="g5603"><rect id="rect5689-3" fill="#2a7fff" height="12.332421" rx=".5" width="11.30472" x="434.3429" y="77.630676"/><path id="path7024-9" d="m442.01502 85.082559v-2.76195h-2.95464m-2.89042 5.84505l5.62025-5.62024m-5.9414-3.115226c0 8.414316 0 8.735466 0 8.735466h8.28584" fill="none" stroke="#fff" stroke-linecap="round" stroke-width=".80000001"/><path id="path4971-0-2" d="m436.18915 92.159039h7.61224" style="overflow:visible;fill:none;stroke:#fff;stroke-width:.80000001;stroke-linecap:round;stroke-dasharray:1.60000002 1.60000002;shape-rendering:crispEdges"/></g><g id="g5611"><rect id="rect5687-3" fill="#2a7fff" height="12.332421" rx=".5" width="11.30472" x="455.64764" y="77.630676"/><path id="path7011-8" d="m463.31974 85.082559v-2.76195h-2.95464m-2.89041 5.84505l5.62024-5.62024m-5.9414-3.115226c0 8.414316 0 8.735466 0 8.735466h8.28585" fill="none" stroke="#fff" stroke-linecap="round" stroke-width=".80000001"/><path id="path5246-3" d="m457.49316 92.159039h7.61224" style="overflow:visible;fill:none;stroke:#fff;stroke-width:.80000001;stroke-linecap:round;stroke-dasharray:1.60000002 1.60000002;shape-rendering:crispEdges"/></g><g id="g5620"><rect id="rect5685-8" fill="#2a7fff" height="12.332421" rx=".5" width="11.30472" x="476.95236" y="77.630676"/><ellipse id="path5715-0" cx="482.60474" cy="83.79689" fill="#fff" rx="3.5999999" ry="3.6000001" stroke="#00f" stroke-linecap="round" stroke-linejoin="round" stroke-width=".80000001"/><path id="ellipse5007-5" d="m479.61327 85.794319a3.5999999 3.6000001 0 0 0 2.99219 1.60352 3.5999999 3.6000001 0 0 0  2.99219-1.60352z" fill="#2a2aff" stroke="#00f" stroke-linecap="round" stroke-linejoin="round" stroke-width=".80000001"/><path id="path5248-0" d="m478.79859 92.159039h7.61224" style="overflow:visible;fill:none;stroke:#fff;stroke-width:.80000001;stroke-linecap:round;stroke-dasharray:1.60000002 1.60000002;shape-rendering:crispEdges"/></g><g id="g5629"><rect id="rect5683-0" fill="#5fd38d" height="12.332421" rx=".5" width="11.30472" x="434.3429" y="97.963112"/><path id="path3065-2" d="m442.30722 106.18962c.25419.25419.24402.66089-.0101.92519-.26436.25419-.67101.25419-.9252-.0101l-1.63696-1.72848-1.52508 1.84027c-.14234.15251-.39653.15251-.54904 0l-.39653-.4067c-.15252-.1423-.15252-.39648 0-.549l1.74876-1.62679-.84391-.8134c-.27452-.26436-.43725-.3457-.66089-.27453-.22368.0813-.53887.0813-.83368-.11184-.63038-.4067-.58977-1.16926-.58977-1.16926l.0508-.0813c0 0 .56938.36603.64055.4067.0916.0712.4067.21351.69145-.22368.29485-.43721.0508-.71173-.0306-.76257-.0711-.0407-.64056-.41687-.64056-.41687l.0508-.0813c0 0 .66088-.33552 1.28105.0305 0 .0203.15252.11185.21352.16268.39653.35587.39653.7524.32536 1.07776-.061.29485 0 .39653.23385.65072l.8439.8439 1.00659-1.02692.73201.7524-.96586.98625 1.78947 1.60646zm1.51496-2.57237l-.54905.55921c-.11184.11184-.28474.11184-.40669 0l-.12201-.13218c-.0915-.0813-.13218-.23386-.0813-.30502.0915-.061.061-.24402-.11185-.4067-.24402-.25419-.55921-.26436-.68117-.13218-.0508.0407-.21351.21352-.21351.21352l-.7524-.74223.12201-.12201c0 0 .0305-.0305.0915-.10168.23385-.23385-.0101-.49821-.0101-.49821-.66089-.65072-1.58608-.64055-1.58608-.64055l-.0101-.23385c1.86065-.47787 2.56216.33553 2.81635.58971.23385.23386.47782.47782.53888.53888.13217.13218 0 .50838.19318.7219.0915.0915.21352.13217.30502.13217.10168-.0915.26436-.061.3457.0305l.11184.12201c.11179.11184.11179.28469-.00005.4067zm-1.74876 2.78584c-.13223-.13218-.34569-.13218-.48809 0-.12196.13218-.12196.35586 0 .47787.1424.13218.35586.15251.48809.0101.13213-.12196.13213-.35586 0-.48804z" fill="#f9f9f9"/><path id="path5250-6" d="m436.18915 111.90904h7.61224" style="overflow:visible;fill:none;stroke:#fff;stroke-width:.80000001;stroke-linecap:round;stroke-dasharray:1.60000002 1.60000002;shape-rendering:crispEdges"/></g><g id="g5637"><rect id="rect5681-3" fill="#0aa9d5" height="12.332421" rx=".5" width="11.30472" x="455.64764" y="97.963112"/><path id="path4978-9" d="m458.23826 101.76759h6.12346m-3.06173-.4v1.53086 1.53087 1.53086 1.53087" fill="#fff" fill-rule="evenodd" stroke="#fff" stroke-width="2"/><path id="path5252-4" d="m457.49387 111.90904h7.61224" style="overflow:visible;fill:none;stroke:#fff;stroke-width:.80000001;stroke-linecap:round;stroke-dasharray:1.60000002 1.60000002;shape-rendering:crispEdges"/></g><g id="g5645"><rect id="rect5679-0" fill="#37c871" height="12.332421" rx=".5" width="11.30472" x="476.95236" y="97.963112"/><path id="path4870-5-7" d="m482.54744 101.95858a.70309869.70312015 0 0 0 -.72352.70269.70309869.70312015 0 0 0  1.4054 0 .70309869.70312015 0 0 0 -.68188-.70269zm.72352 1.87645l-1.9155.0677v.31751c.2788-.009.67414-.0577.67147.24725v1.92591c-.0153.1525-.065.23318-.27067.23944l-.34354.005v.32011h2.44122v-.32011l-.3123-.005c-.19475-.02-.27468-.0688-.27068-.23944v-2.55834z" fill="#fff" overflow="visible"/><path id="path5254-0" d="m478.79859 111.90904h7.61224" style="overflow:visible;fill:none;stroke:#fff;stroke-width:.80000001;stroke-linecap:round;stroke-dasharray:1.60000002 1.60000002;shape-rendering:crispEdges"/></g><rect id="rect4489-0-8" height="7.5" style="overflow:visible;fill:none;stroke:#fff;stroke-width:.24999993;stroke-linecap:round;stroke-linejoin:round" width="19.799999" x="509.47498" y="118.47053"/><text id="text4767-4-6-6-6-8-2-7" line-height="125%" style="font-size:3.125;font-family:sans-serif;letter-spacing:0;word-spacing:0;overflow:visible;fill:#fff" x="425.03378" xml:space="preserve" y="68.440544"><tspan id="tspan4769-1-7-0-6-5-5-0" font-size="3.75" x="425.03378" y="68.440544">Ekip Touch LSIG</tspan></text><path id="path5295-5" d="m520.59076 66.207865c.15866.158664.28141.340846.36826.546596.0904.21309.13552.436221.13552.668975 0 .232779-.0452.45591-.13552.669-.0872.206118-.20999.388325-.36826.546989-.15867.158664-.34085.281411-.5466.368268-.21348.09032-.43659.135489-.66937.135489-.23278 0-.45591-.04517-.66897-.135489-.20615-.08686-.38835-.209604-.54662-.368268-.15867-.158664-.28142-.340871-.36827-.546621-.0903-.213065-.13549-.436196-.13549-.668975 0-.232779.0452-.455885.13549-.668976.0868-.206142.2096-.388324.36827-.546595.0332-.03322.0734-.04981.12083-.04981.0475 0 .088.01669.12235.04981.034.03319.051.07333.051.120808 0 .04748-.0169.0884-.051.122355-.12621.126234-.22465.271788-.29567.436589-.0718.171798-.10733.350519-.10733.535819 0 .1853.0359.364021.10733.535819.0706.164825.16907.310355.29567.436589.12624.126209.27177.224653.43659.295675.1718.07181.35052.10733.53582.10733.1853 0 .36402-.03592.53582-.10733.1648-.07063.31036-.169073.43657-.295675.12623-.126234.22467-.271764.29569-.436589.0718-.171798.10731-.350519.10731-.535819 0-.1853-.0359-.364021-.10731-.535819-.0707-.164801-.16907-.310355-.29569-.436589-.034-.03395-.051-.07488-.051-.122355 0-.04748.0169-.08762.051-.120808.034-.03322.0749-.04981.12237-.04981.0471 0 .0876.0162.12121.04942zm-1.21597-.564689c.0475 0 .088.01694.1216.05057.0336.03358.0506.07411.0506.121618v1.058921c0 .04748-.0167.08801-.0506.121594-.0336.03358-.0741.05057-.1216.05057-.0475 0-.088-.01669-.12159-.05057-.0336-.03358-.0506-.07412-.0506-.121594v-1.059313c0-.0475.0169-.08801.0506-.121619.034-.03317.0745-.05018.12159-.05018z" fill="#0f0"/></g><g id="g5653" shape-rendering="crispEdges"><rect id="rect4973" fill="#1a1a1a" height="225.5" overflow="visible" rx="2.2777779" ry="2.7333322" stroke="#333" stroke-width="1.5" width="20.5" x="404.14999" y="143.74997"/><rect id="rect5860-0-9" fill="#5b5e60" height="203.5" overflow="visible" rx="2.2777779" ry="2.4666655" stroke="#333" stroke-width="1.5" width="20.5" x="404.14999" y="165.74997"/><path id="rect4356-4-8-5-6" d="m404.9 308.42896c0-1.30118.26968 3.4047 2.2488 5.56656 1.97883 2.16179 5.44424 1.78031 7.02744 1.78031 1.58342 0 5.07572.38148 7.05479-1.78031 1.97921-2.16186 2.683-6.8676 2.66876-5.56656v32.26802c-2.71874-.74867-.93109 3.78553-4.4787 4.96697-3.54745 1.18157-14.52109.0579-14.52109.0579z" fill="#333" overflow="visible"/></g><g id="g5663"><rect id="rect6024-3" fill="#007b00" height="30.5" overflow="visible" shape-rendering="crispEdges" stroke="#333" stroke-width=".5" width="27.5" x="491.14999" y="221.99997"/><text id="text5834-4-8" line-height="125%" style="font-weight:bold;font-size:10.80000019;font-family:Arial;letter-spacing:0;word-spacing:0;overflow:visible;fill:#fff;shape-rendering:crispEdges" x="503.38126" xml:space="preserve" y="248.03909"><tspan id="tspan5836-9-5" x="503.38126" y="248.03909">I</tspan></text><text id="text4767-4-6-6-4" line-height="125%" style="font-size:3.125;font-family:sans-serif;letter-spacing:0;word-spacing:0;overflow:visible;fill:#fff" x="494.20175" xml:space="preserve" y="232.78232"><tspan id="tspan4769-1-7-0-9" font-size="5" x="494.20175" y="232.78232">Push ON</tspan></text></g><g id="g5674"><rect id="rect5842-7-2" fill="#f00" height="30.5" overflow="visible" shape-rendering="crispEdges" stroke="#333" stroke-width=".5" width="27.5" x="491.14999" y="176.49997"/><circle id="path19055-1-7-9-7" cx="504.89999" cy="198.43907" fill="none" overflow="visible" r="3.5999999" shape-rendering="crispEdges" stroke="#fff"/><text id="text4767-4-6-9" line-height="125%" style="font-size:3.125;font-family:sans-serif;letter-spacing:0;word-spacing:0;overflow:visible;fill:#fff" x="492.99203" xml:space="preserve" y="187.28232"><tspan id="tspan4769-1-7-4" font-size="5" x="492.99203" y="187.28232">Push OFF</tspan></text></g><g id="g5683" shape-rendering="crispEdges"><rect id="rect5826-6" fill="#fff" height="10" overflow="visible" stroke="#333" stroke-width=".5" width="27.5" x="491.14999" y="282.79999"/><path id="path4694-7-1-5" d="m499.41668 285.99998h10.96664" style="overflow:visible;fill:none;stroke:#000;stroke-width:.80000001;stroke-linecap:round;stroke-dasharray:1.60000002 1.60000002"/><path id="path4829-4" d="m501.86084 289.99998h6.07832" style="overflow:visible;fill:none;stroke:#000;stroke-width:.80000001;stroke-linecap:round;stroke-dasharray:1.60000002 1.60000002"/></g><g id="g5692"><rect id="rect5629-8" fill="#007b00" height="10" overflow="visible" stroke="#333" stroke-linecap="round" stroke-width=".49999997" width="27.5" x="491.14999" y="154.29997"/><circle id="path19055-1-7-9-2-5" cx="498.08014" cy="159.29997" fill="none" overflow="visible" r="2.5" shape-rendering="crispEdges" stroke="#fff"/><text id="text4767-4-6-6-6-6" line-height="125%" style="font-size:3.125;font-family:sans-serif;letter-spacing:0;word-spacing:0;overflow:visible;fill:#fff" x="503.15646" xml:space="preserve" y="160.66319"><tspan id="tspan4769-1-7-0-6-6" font-size="3.75" x="503.15646" y="160.66319">OPEN</tspan></text></g><g id="g5723"><path id="path4942-7" d="m432.5 329.86921h83.13148" fill="none" stroke="#fff" stroke-width=".49999994"/><path id="path4944-4" d="m432.5 333.95439h83.13148" fill="none" stroke="#fff" stroke-width=".49999994"/><path id="path4946-9" d="m455.29845 309.69997v20.4" fill="none" stroke="#fff" stroke-width=".49999985"/><path id="path4948-6" d="m476.09501 333.69994v29.50001" fill="none" stroke="#fff" stroke-width=".5"/><path id="path4694-7-1-01-0" d="m437.37579 336.13523h25.72367" style="overflow:visible;fill:#fff;fill-rule:evenodd;stroke:#fff;stroke-width:.80000001;stroke-linecap:round;stroke-dasharray:1.59999999 1.59999999;shape-rendering:crispEdges"/><path id="path4965-6" d="m437.03736 351.34817h16.57588" style="overflow:visible;fill:#fff;fill-rule:evenodd;stroke:#fff;stroke-width:.80000001;stroke-linecap:round;stroke-dasharray:1.59999997 1.59999997;shape-rendering:crispEdges"/><path id="path4971-04" d="m488.58225 353.34817h11.50576" style="overflow:visible;fill:none;stroke:#fff;stroke-width:.80000001;stroke-linecap:round;stroke-dasharray:1.59999997 1.59999997;shape-rendering:crispEdges"/><path id="path4973-8" d="m486.51953 356.39076h16.57587" style="overflow:visible;fill:none;stroke:#fff;stroke-width:.80000001;stroke-linecap:round;stroke-dasharray:1.59999997 1.59999997;shape-rendering:crispEdges"/><path id="path4975-9" d="m437.39228 327.00745h4.1907" style="overflow:visible;fill:#fff;fill-rule:evenodd;stroke:#fff;stroke-linecap:round;stroke-dasharray:1.99999991 1.99999991;shape-rendering:crispEdges"/><path id="path4977-7" d="m437.37579 302.66672h25.72367" style="overflow:visible;fill:#fff;fill-rule:evenodd;stroke:#fff;stroke-width:2;stroke-linecap:round;stroke-dasharray:3.99999987 3.99999987;shape-rendering:crispEdges"/><path id="path4979-7" d="m502.92488 302.66672h10.0325" style="overflow:visible;fill:#fff;fill-rule:evenodd;stroke:#fff;stroke-linecap:round;stroke-dasharray:1.99999994 1.99999994;shape-rendering:crispEdges"/><path id="path5659" d="m437.03736 343.34816h16.57588" style="overflow:visible;fill:#fff;fill-rule:evenodd;stroke:#fff;stroke-width:.80000001;stroke-linecap:round;stroke-dasharray:1.59999997 1.59999997;shape-rendering:crispEdges"/><path id="path5661" d="m488.58225 349.34817h11.50576" style="overflow:visible;fill:none;stroke:#fff;stroke-width:.80000001;stroke-linecap:round;stroke-dasharray:1.59999997 1.59999997;shape-rendering:crispEdges"/><path id="path5663" d="m488.58225 345.34816h11.50576" style="overflow:visible;fill:none;stroke:#fff;stroke-width:.80000001;stroke-linecap:round;stroke-dasharray:1.59999997 1.59999997;shape-rendering:crispEdges"/><path id="path5665" d="m488.58225 341.34816h11.50576" style="overflow:visible;fill:none;stroke:#fff;stroke-width:.80000001;stroke-linecap:round;stroke-dasharray:1.59999997 1.59999997;shape-rendering:crispEdges"/><path id="path5671" d="m495.29859 309.69997v20.4" fill="none" stroke="#fff" stroke-width=".49999985"/><path id="path5673" d="m432.5 305.86918h83.13148" fill="none" stroke="#fff" stroke-width=".49999994"/><path id="path5675" d="m432.5 309.95436h83.13148" fill="none" stroke="#fff" stroke-width=".49999994"/><path id="path5677" d="m437.39228 323.00745h4.1907" style="overflow:visible;fill:#fff;fill-rule:evenodd;stroke:#fff;stroke-linecap:round;stroke-dasharray:1.99999991 1.99999991;shape-rendering:crispEdges"/><path id="path5679" d="m437.39228 319.00744h4.1907" style="overflow:visible;fill:#fff;fill-rule:evenodd;stroke:#fff;stroke-linecap:round;stroke-dasharray:1.99999991 1.99999991;shape-rendering:crispEdges"/><path id="path5681" d="m437.39228 315.00744h4.1907" style="overflow:visible;fill:#fff;fill-rule:evenodd;stroke:#fff;stroke-linecap:round;stroke-dasharray:1.99999991 1.99999991;shape-rendering:crispEdges"/><path id="path3006" d="m504.66406 317.64844a1.7615068 1.7577588 0 1 0  .24805 3.50586v-.53125a1.2330547 1.2304312 0 1 1 0-2.43555v-.53125a1.7615068 1.7577588 0 0 0 -.24805-.008zm3.06836 0a1.7615068 1.7577588 0 1 0  .17578 3.50586v-.53125a1.2330547 1.2304312 0 0 1 -1.38086-.95313h1.02735v-.52734h-1.02735a1.2330547 1.2304312 0 0 1 1.38086-.95508v-.53125a1.7615068 1.7577588 0 0 0 -.17578-.008z" fill="#fff"/></g><path id="path5277" clip-path="url(#clipPath5307)" d="m385.6 351.55h-65.5m65.5 1.5h-65.5m65.5 1.5h-65.5m65.5 1.5h-65.5m65.5 1.5h-65.5m65.5 1.5h-65.5m65.5 1.5h-65.5m65.5 1.5h-65.5m65.5 1.5h-65.5m65.5 1.5h-65.5m65.5 1.5h-65.5m65.5 1.5h-65.5m65.5 1.5h-65.5m65.5 1.5h-65.5m65.5 1.5h-65.5m65.5 1.5h-65.5m65.5 1.5h-65.5m65.5 1.5h-65.5m65.5 1.5h-65.5m65.5 1.5h-65.5m65.5 1.5h-65.5m65.5 1.5h-65.5m65.5 1.5h-65.5m65.5 1.5h-65.5m65.5 1.5h-65.5m65.5 1.5h-65.5m65.5 1.5h-65.5m65.5 1.5h-65.5m65.5 1.5h-65.5m65.5 1.5h-65.5m65.5 1.5h-65.5m65.5 1.5h-65.5m65.5 1.5h-65.5m65.5 1.5h-65.5m65.5 1.5h-65.5m65.5 1.5h-65.5m.5-53v53.5m1.5-53.5v53.5m1.5-53.5v53.5m1.5-53.5v53.5m1.5-53.5v53.5m1.5-53.5v53.5m1.5-53.5v53.5m1.5-53.5v53.5m1.5-53.5v53.5m1.5-53.5v53.5m1.5-53.5v53.5m1.5-53.5v53.5m1.5-53.5v53.5m1.5-53.5v53.5m1.5-53.5v53.5m1.5-53.5v53.5m1.5-53.5v53.5m1.5-53.5v53.5m1.5-53.5v53.5m1.5-53.5v53.5m1.5-53.5v53.5m1.5-53.5v53.5m1.5-53.5v53.5m1.5-53.5v53.5m1.5-53.5v53.5m1.5-53.5v53.5m1.5-53.5v53.5m1.5-53.5v53.5m1.5-53.5v53.5m1.5-53.5v53.5m1.5-53.5v53.5m1.5-53.5v53.5m1.5-53.5v53.5m1.5-53.5v53.5m1.5-53.5v53.5m1.5-53.5v53.5m1.5-53.5v53.5m1.5-53.5v53.5m1.5-53.5v53.5m1.5-53.5v53.5m1.5-53.5v53.5m1.5-53.5v53.5m1.5-53.5v53.5m1.5-53.5v53.5m-64.5-53h64.5v52.5h-64.5zm65-52.5h-65.5m65.5 1.5h-65.5m65.5 1.5h-65.5m65.5 1.5h-65.5m65.5 1.5h-65.5m65.5 1.5h-65.5m65.5 1.5h-65.5m65.5 1.5h-65.5m65.5 1.5h-65.5m65.5 1.5h-65.5m65.5 1.5h-65.5m65.5 1.5h-65.5m65.5 1.5h-65.5m65.5 1.5h-65.5m65.5 1.5h-65.5m65.5 1.5h-65.5m65.5 1.5h-65.5m65.5 1.5h-65.5m65.5 1.5h-65.5m65.5 1.5h-65.5m65.5 1.5h-65.5m65.5 1.5h-65.5m65.5 1.5h-65.5m65.5 1.5h-65.5m65.5 1.5h-65.5m65.5 1.5h-65.5m65.5 1.5h-65.5m65.5 1.5h-65.5m65.5 1.5h-65.5m65.5 1.5h-65.5m65.5 1.5h-65.5m65.5 1.5h-65.5m65.5 1.5h-65.5m65.5 1.5h-65.5m65.5 1.5h-65.5m65.5 1.5h-65.5m.5-53v53.5m1.5-53.5v53.5m1.5-53.5v53.5m1.5-53.5v53.5m1.5-53.5v53.5m1.5-53.5v53.5m1.5-53.5v53.5m1.5-53.5v53.5m1.5-53.5v53.5m1.5-53.5v53.5m1.5-53.5v53.5m1.5-53.5v53.5m1.5-53.5v53.5m1.5-53.5v53.5m1.5-53.5v53.5m1.5-53.5v53.5m1.5-53.5v53.5m1.5-53.5v53.5m1.5-53.5v53.5m1.5-53.5v53.5m1.5-53.5v53.5m1.5-53.5v53.5m1.5-53.5v53.5m1.5-53.5v53.5m1.5-53.5v53.5m1.5-53.5v53.5m1.5-53.5v53.5m1.5-53.5v53.5m1.5-53.5v53.5m1.5-53.5v53.5m1.5-53.5v53.5m1.5-53.5v53.5m1.5-53.5v53.5m1.5-53.5v53.5m1.5-53.5v53.5m1.5-53.5v53.5m1.5-53.5v53.5m1.5-53.5v53.5m1.5-53.5v53.5m1.5-53.5v53.5m1.5-53.5v53.5m1.5-53.5v53.5m1.5-53.5v53.5m1.5-53.5v53.5m-64.5-53h64.5v52.5h-64.5zm65-52.5h-65.5m65.5 1.5h-65.5m65.5 1.5h-65.5m65.5 1.5h-65.5m65.5 1.5h-65.5m65.5 1.5h-65.5m65.5 1.5h-65.5m65.5 1.5h-65.5m65.5 1.5h-65.5m65.5 1.5h-65.5m65.5 1.5h-65.5m65.5 1.5h-65.5m65.5 1.5h-65.5m65.5 1.5h-65.5m65.5 1.5h-65.5m65.5 1.5h-65.5m65.5 1.5h-65.5m65.5 1.5h-65.5m65.5 1.5h-65.5m65.5 1.5h-65.5m65.5 1.5h-65.5m65.5 1.5h-65.5m65.5 1.5h-65.5m65.5 1.5h-65.5m65.5 1.5h-65.5m65.5 1.5h-65.5m65.5 1.5h-65.5m65.5 1.5h-65.5m65.5 1.5h-65.5m65.5 1.5h-65.5m65.5 1.5h-65.5m65.5 1.5h-65.5m65.5 1.5h-65.5m65.5 1.5h-65.5m65.5 1.5h-65.5m65.5 1.5h-65.5m.5-53v53.5m1.5-53.5v53.5m1.5-53.5v53.5m1.5-53.5v53.5m1.5-53.5v53.5m1.5-53.5v53.5m1.5-53.5v53.5m1.5-53.5v53.5m1.5-53.5v53.5m1.5-53.5v53.5m1.5-53.5v53.5m1.5-53.5v53.5m1.5-53.5v53.5m1.5-53.5v53.5m1.5-53.5v53.5m1.5-53.5v53.5m1.5-53.5v53.5m1.5-53.5v53.5m1.5-53.5v53.5m1.5-53.5v53.5m1.5-53.5v53.5m1.5-53.5v53.5m1.5-53.5v53.5m1.5-53.5v53.5m1.5-53.5v53.5m1.5-53.5v53.5m1.5-53.5v53.5m1.5-53.5v53.5m1.5-53.5v53.5m1.5-53.5v53.5m1.5-53.5v53.5m1.5-53.5v53.5m1.5-53.5v53.5m1.5-53.5v53.5m1.5-53.5v53.5m1.5-53.5v53.5m1.5-53.5v53.5m1.5-53.5v53.5m1.5-53.5v53.5m1.5-53.5v53.5m1.5-53.5v53.5m1.5-53.5v53.5m1.5-53.5v53.5m1.5-53.5v53.5m-64.5-53h64.5v52.5h-64.5zm65-52.5h-65.5m65.5 1.5h-65.5m65.5 1.5h-65.5m65.5 1.5h-65.5m65.5 1.5h-65.5m65.5 1.5h-65.5m65.5 1.5h-65.5m65.5 1.5h-65.5m65.5 1.5h-65.5m65.5 1.5h-65.5m65.5 1.5h-65.5m65.5 1.5h-65.5m65.5 1.5h-65.5m65.5 1.5h-65.5m65.5 1.5h-65.5m65.5 1.5h-65.5m65.5 1.5h-65.5m65.5 1.5h-65.5m65.5 1.5h-65.5m65.5 1.5h-65.5m65.5 1.5h-65.5m65.5 1.5h-65.5m65.5 1.5h-65.5m65.5 1.5h-65.5m65.5 1.5h-65.5m65.5 1.5h-65.5m65.5 1.5h-65.5m65.5 1.5h-65.5m65.5 1.5h-65.5m65.5 1.5h-65.5m65.5 1.5h-65.5m65.5 1.5h-65.5m65.5 1.5h-65.5m65.5 1.5h-65.5m65.5 1.5h-65.5m65.5 1.5h-65.5m.5-53v53.5m1.5-53.5v53.5m1.5-53.5v53.5m1.5-53.5v53.5m1.5-53.5v53.5m1.5-53.5v53.5m1.5-53.5v53.5m1.5-53.5v53.5m1.5-53.5v53.5m1.5-53.5v53.5m1.5-53.5v53.5m1.5-53.5v53.5m1.5-53.5v53.5m1.5-53.5v53.5m1.5-53.5v53.5m1.5-53.5v53.5m1.5-53.5v53.5m1.5-53.5v53.5m1.5-53.5v53.5m1.5-53.5v53.5m1.5-53.5v53.5m1.5-53.5v53.5m1.5-53.5v53.5m1.5-53.5v53.5m1.5-53.5v53.5m1.5-53.5v53.5m1.5-53.5v53.5m1.5-53.5v53.5m1.5-53.5v53.5m1.5-53.5v53.5m1.5-53.5v53.5m1.5-53.5v53.5m1.5-53.5v53.5m1.5-53.5v53.5m1.5-53.5v53.5m1.5-53.5v53.5m1.5-53.5v53.5m1.5-53.5v53.5m1.5-53.5v53.5m1.5-53.5v53.5m1.5-53.5v53.5m1.5-53.5v53.5m1.5-53.5v53.5m1.5-53.5v53.5m-64.5-53h64.5v52.5h-64.5zm65-52.5h-65.5m65.5 1.5h-65.5m65.5 1.5h-65.5m65.5 1.5h-65.5m65.5 1.5h-65.5m65.5 1.5h-65.5m65.5 1.5h-65.5m65.5 1.5h-65.5m65.5 1.5h-65.5m65.5 1.5h-65.5m65.5 1.5h-65.5m65.5 1.5h-65.5m65.5 1.5h-65.5m65.5 1.5h-65.5m65.5 1.5h-65.5m65.5 1.5h-65.5m65.5 1.5h-65.5m65.5 1.5h-65.5m65.5 1.5h-65.5m65.5 1.5h-65.5m65.5 1.5h-65.5m65.5 1.5h-65.5m65.5 1.5h-65.5m65.5 1.5h-65.5m65.5 1.5h-65.5m65.5 1.5h-65.5m65.5 1.5h-65.5m65.5 1.5h-65.5m65.5 1.5h-65.5m65.5 1.5h-65.5m65.5 1.5h-65.5m65.5 1.5h-65.5m65.5 1.5h-65.5m65.5 1.5h-65.5m65.5 1.5h-65.5m65.5 1.5h-65.5m.5-53v53.5m1.5-53.5v53.5m1.5-53.5v53.5m1.5-53.5v53.5m1.5-53.5v53.5m1.5-53.5v53.5m1.5-53.5v53.5m1.5-53.5v53.5m1.5-53.5v53.5m1.5-53.5v53.5m1.5-53.5v53.5m1.5-53.5v53.5m1.5-53.5v53.5m1.5-53.5v53.5m1.5-53.5v53.5m1.5-53.5v53.5m1.5-53.5v53.5m1.5-53.5v53.5m1.5-53.5v53.5m1.5-53.5v53.5m1.5-53.5v53.5m1.5-53.5v53.5m1.5-53.5v53.5m1.5-53.5v53.5m1.5-53.5v53.5m1.5-53.5v53.5m1.5-53.5v53.5m1.5-53.5v53.5m1.5-53.5v53.5m1.5-53.5v53.5m1.5-53.5v53.5m1.5-53.5v53.5m1.5-53.5v53.5m1.5-53.5v53.5m1.5-53.5v53.5m1.5-53.5v53.5m1.5-53.5v53.5m1.5-53.5v53.5m1.5-53.5v53.5m1.5-53.5v53.5m1.5-53.5v53.5m1.5-53.5v53.5m1.5-53.5v53.5m1.5-53.5v53.5m-64.5-53h64.5v52.5h-64.5zm.5 210h-65.5m65.5 1.5h-65.5m65.5 1.5h-65.5m65.5 1.5h-65.5m65.5 1.5h-65.5m65.5 1.5h-65.5m65.5 1.5h-65.5m65.5 1.5h-65.5m65.5 1.5h-65.5m65.5 1.5h-65.5m65.5 1.5h-65.5m65.5 1.5h-65.5m65.5 1.5h-65.5m65.5 1.5h-65.5m65.5 1.5h-65.5m65.5 1.5h-65.5m65.5 1.5h-65.5m65.5 1.5h-65.5m65.5 1.5h-65.5m65.5 1.5h-65.5m65.5 1.5h-65.5m65.5 1.5h-65.5m65.5 1.5h-65.5m65.5 1.5h-65.5m65.5 1.5h-65.5m65.5 1.5h-65.5m65.5 1.5h-65.5m65.5 1.5h-65.5m65.5 1.5h-65.5m65.5 1.5h-65.5m65.5 1.5h-65.5m65.5 1.5h-65.5m65.5 1.5h-65.5m65.5 1.5h-65.5m65.5 1.5h-65.5m65.5 1.5h-65.5m.5-53v53.5m1.5-53.5v53.5m1.5-53.5v53.5m1.5-53.5v53.5m1.5-53.5v53.5m1.5-53.5v53.5m1.5-53.5v53.5m1.5-53.5v53.5m1.5-53.5v53.5m1.5-53.5v53.5m1.5-53.5v53.5m1.5-53.5v53.5m1.5-53.5v53.5m1.5-53.5v53.5m1.5-53.5v53.5m1.5-53.5v53.5m1.5-53.5v53.5m1.5-53.5v53.5m1.5-53.5v53.5m1.5-53.5v53.5m1.5-53.5v53.5m1.5-53.5v53.5m1.5-53.5v53.5m1.5-53.5v53.5m1.5-53.5v53.5m1.5-53.5v53.5m1.5-53.5v53.5m1.5-53.5v53.5m1.5-53.5v53.5m1.5-53.5v53.5m1.5-53.5v53.5m1.5-53.5v53.5m1.5-53.5v53.5m1.5-53.5v53.5m1.5-53.5v53.5m1.5-53.5v53.5m1.5-53.5v53.5m1.5-53.5v53.5m1.5-53.5v53.5m1.5-53.5v53.5m1.5-53.5v53.5m1.5-53.5v53.5m1.5-53.5v53.5m1.5-53.5v53.5m-64.5-53h64.5v52.5h-64.5zm65-52.5h-65.5m65.5 1.5h-65.5m65.5 1.5h-65.5m65.5 1.5h-65.5m65.5 1.5h-65.5m65.5 1.5h-65.5m65.5 1.5h-65.5m65.5 1.5h-65.5m65.5 1.5h-65.5m65.5 1.5h-65.5m65.5 1.5h-65.5m65.5 1.5h-65.5m65.5 1.5h-65.5m65.5 1.5h-65.5m65.5 1.5h-65.5m65.5 1.5h-65.5m65.5 1.5h-65.5m65.5 1.5h-65.5m65.5 1.5h-65.5m65.5 1.5h-65.5m65.5 1.5h-65.5m65.5 1.5h-65.5m65.5 1.5h-65.5m65.5 1.5h-65.5m65.5 1.5h-65.5m65.5 1.5h-65.5m65.5 1.5h-65.5m65.5 1.5h-65.5m65.5 1.5h-65.5m65.5 1.5h-65.5m65.5 1.5h-65.5m65.5 1.5h-65.5m65.5 1.5h-65.5m65.5 1.5h-65.5m65.5 1.5h-65.5m65.5 1.5h-65.5m.5-53v53.5m1.5-53.5v53.5m1.5-53.5v53.5m1.5-53.5v53.5m1.5-53.5v53.5m1.5-53.5v53.5m1.5-53.5v53.5m1.5-53.5v53.5m1.5-53.5v53.5m1.5-53.5v53.5m1.5-53.5v53.5m1.5-53.5v53.5m1.5-53.5v53.5m1.5-53.5v53.5m1.5-53.5v53.5m1.5-53.5v53.5m1.5-53.5v53.5m1.5-53.5v53.5m1.5-53.5v53.5m1.5-53.5v53.5m1.5-53.5v53.5m1.5-53.5v53.5m1.5-53.5v53.5m1.5-53.5v53.5m1.5-53.5v53.5m1.5-53.5v53.5m1.5-53.5v53.5m1.5-53.5v53.5m1.5-53.5v53.5m1.5-53.5v53.5m1.5-53.5v53.5m1.5-53.5v53.5m1.5-53.5v53.5m1.5-53.5v53.5m1.5-53.5v53.5m1.5-53.5v53.5m1.5-53.5v53.5m1.5-53.5v53.5m1.5-53.5v53.5m1.5-53.5v53.5m1.5-53.5v53.5m1.5-53.5v53.5m1.5-53.5v53.5m1.5-53.5v53.5m-64.5-53h64.5v52.5h-64.5zm65-52.5h-65.5m65.5 1.5h-65.5m65.5 1.5h-65.5m65.5 1.5h-65.5m65.5 1.5h-65.5m65.5 1.5h-65.5m65.5 1.5h-65.5m65.5 1.5h-65.5m65.5 1.5h-65.5m65.5 1.5h-65.5m65.5 1.5h-65.5m65.5 1.5h-65.5m65.5 1.5h-65.5m65.5 1.5h-65.5m65.5 1.5h-65.5m65.5 1.5h-65.5m65.5 1.5h-65.5m65.5 1.5h-65.5m65.5 1.5h-65.5m65.5 1.5h-65.5m65.5 1.5h-65.5m65.5 1.5h-65.5m65.5 1.5h-65.5m65.5 1.5h-65.5m65.5 1.5h-65.5m65.5 1.5h-65.5m65.5 1.5h-65.5m65.5 1.5h-65.5m65.5 1.5h-65.5m65.5 1.5h-65.5m65.5 1.5h-65.5m65.5 1.5h-65.5m65.5 1.5h-65.5m65.5 1.5h-65.5m65.5 1.5h-65.5m65.5 1.5h-65.5m.5-53v53.5m1.5-53.5v53.5m1.5-53.5v53.5m1.5-53.5v53.5m1.5-53.5v53.5m1.5-53.5v53.5m1.5-53.5v53.5m1.5-53.5v53.5m1.5-53.5v53.5m1.5-53.5v53.5m1.5-53.5v53.5m1.5-53.5v53.5m1.5-53.5v53.5m1.5-53.5v53.5m1.5-53.5v53.5m1.5-53.5v53.5m1.5-53.5v53.5m1.5-53.5v53.5m1.5-53.5v53.5m1.5-53.5v53.5m1.5-53.5v53.5m1.5-53.5v53.5m1.5-53.5v53.5m1.5-53.5v53.5m1.5-53.5v53.5m1.5-53.5v53.5m1.5-53.5v53.5m1.5-53.5v53.5m1.5-53.5v53.5m1.5-53.5v53.5m1.5-53.5v53.5m1.5-53.5v53.5m1.5-53.5v53.5m1.5-53.5v53.5m1.5-53.5v53.5m1.5-53.5v53.5m1.5-53.5v53.5m1.5-53.5v53.5m1.5-53.5v53.5m1.5-53.5v53.5m1.5-53.5v53.5m1.5-53.5v53.5m1.5-53.5v53.5m1.5-53.5v53.5m-64.5-53h64.5v52.5h-64.5zm65-52.5h-65.5m65.5 1.5h-65.5m65.5 1.5h-65.5m65.5 1.5h-65.5m65.5 1.5h-65.5m65.5 1.5h-65.5m65.5 1.5h-65.5m65.5 1.5h-65.5m65.5 1.5h-65.5m65.5 1.5h-65.5m65.5 1.5h-65.5m65.5 1.5h-65.5m65.5 1.5h-65.5m65.5 1.5h-65.5m65.5 1.5h-65.5m65.5 1.5h-65.5m65.5 1.5h-65.5m65.5 1.5h-65.5m65.5 1.5h-65.5m65.5 1.5h-65.5m65.5 1.5h-65.5m65.5 1.5h-65.5m65.5 1.5h-65.5m65.5 1.5h-65.5m65.5 1.5h-65.5m65.5 1.5h-65.5m65.5 1.5h-65.5m65.5 1.5h-65.5m65.5 1.5h-65.5m65.5 1.5h-65.5m65.5 1.5h-65.5m65.5 1.5h-65.5m65.5 1.5h-65.5m65.5 1.5h-65.5m65.5 1.5h-65.5m65.5 1.5h-65.5m.5-53v53.5m1.5-53.5v53.5m1.5-53.5v53.5m1.5-53.5v53.5m1.5-53.5v53.5m1.5-53.5v53.5m1.5-53.5v53.5m1.5-53.5v53.5m1.5-53.5v53.5m1.5-53.5v53.5m1.5-53.5v53.5m1.5-53.5v53.5m1.5-53.5v53.5m1.5-53.5v53.5m1.5-53.5v53.5m1.5-53.5v53.5m1.5-53.5v53.5m1.5-53.5v53.5m1.5-53.5v53.5m1.5-53.5v53.5m1.5-53.5v53.5m1.5-53.5v53.5m1.5-53.5v53.5m1.5-53.5v53.5m1.5-53.5v53.5m1.5-53.5v53.5m1.5-53.5v53.5m1.5-53.5v53.5m1.5-53.5v53.5m1.5-53.5v53.5m1.5-53.5v53.5m1.5-53.5v53.5m1.5-53.5v53.5m1.5-53.5v53.5m1.5-53.5v53.5m1.5-53.5v53.5m1.5-53.5v53.5m1.5-53.5v53.5m1.5-53.5v53.5m1.5-53.5v53.5m1.5-53.5v53.5m1.5-53.5v53.5m1.5-53.5v53.5m1.5-53.5v53.5m-64.5-53h64.5v52.5h-64.5zm65-52.5h-65.5m65.5 1.5h-65.5m65.5 1.5h-65.5m65.5 1.5h-65.5m65.5 1.5h-65.5m65.5 1.5h-65.5m65.5 1.5h-65.5m65.5 1.5h-65.5m65.5 1.5h-65.5m65.5 1.5h-65.5m65.5 1.5h-65.5m65.5 1.5h-65.5m65.5 1.5h-65.5m65.5 1.5h-65.5m65.5 1.5h-65.5m65.5 1.5h-65.5m65.5 1.5h-65.5m65.5 1.5h-65.5m65.5 1.5h-65.5m65.5 1.5h-65.5m65.5 1.5h-65.5m65.5 1.5h-65.5m65.5 1.5h-65.5m65.5 1.5h-65.5m65.5 1.5h-65.5m65.5 1.5h-65.5m65.5 1.5h-65.5m65.5 1.5h-65.5m65.5 1.5h-65.5m65.5 1.5h-65.5m65.5 1.5h-65.5m65.5 1.5h-65.5m65.5 1.5h-65.5m65.5 1.5h-65.5m65.5 1.5h-65.5m65.5 1.5h-65.5m.5-53v53.5m1.5-53.5v53.5m1.5-53.5v53.5m1.5-53.5v53.5m1.5-53.5v53.5m1.5-53.5v53.5m1.5-53.5v53.5m1.5-53.5v53.5m1.5-53.5v53.5m1.5-53.5v53.5m1.5-53.5v53.5m1.5-53.5v53.5m1.5-53.5v53.5m1.5-53.5v53.5m1.5-53.5v53.5m1.5-53.5v53.5m1.5-53.5v53.5m1.5-53.5v53.5m1.5-53.5v53.5m1.5-53.5v53.5m1.5-53.5v53.5m1.5-53.5v53.5m1.5-53.5v53.5m1.5-53.5v53.5m1.5-53.5v53.5m1.5-53.5v53.5m1.5-53.5v53.5m1.5-53.5v53.5m1.5-53.5v53.5m1.5-53.5v53.5m1.5-53.5v53.5m1.5-53.5v53.5m1.5-53.5v53.5m1.5-53.5v53.5m1.5-53.5v53.5m1.5-53.5v53.5m1.5-53.5v53.5m1.5-53.5v53.5m1.5-53.5v53.5m1.5-53.5v53.5m1.5-53.5v53.5m1.5-53.5v53.5m1.5-53.5v53.5m1.5-53.5v53.5m-64.5-53h64.5v52.5h-64.5zm-15.7 210h-65.5m65.5 1.5h-65.5m65.5 1.5h-65.5m65.5 1.5h-65.5m65.5 1.5h-65.5m65.5 1.5h-65.5m65.5 1.5h-65.5m65.5 1.5h-65.5m65.5 1.5h-65.5m65.5 1.5h-65.5m65.5 1.5h-65.5m65.5 1.5h-65.5m65.5 1.5h-65.5m65.5 1.5h-65.5m65.5 1.5h-65.5m65.5 1.5h-65.5m65.5 1.5h-65.5m65.5 1.5h-65.5m65.5 1.5h-65.5m65.5 1.5h-65.5m65.5 1.5h-65.5m65.5 1.5h-65.5m65.5 1.5h-65.5m65.5 1.5h-65.5m65.5 1.5h-65.5m65.5 1.5h-65.5m65.5 1.5h-65.5m65.5 1.5h-65.5m65.5 1.5h-65.5m65.5 1.5h-65.5m65.5 1.5h-65.5m65.5 1.5h-65.5m65.5 1.5h-65.5m65.5 1.5h-65.5m65.5 1.5h-65.5m65.5 1.5h-65.5m.5-53v53.5m1.5-53.5v53.5m1.5-53.5v53.5m1.5-53.5v53.5m1.5-53.5v53.5m1.5-53.5v53.5m1.5-53.5v53.5m1.5-53.5v53.5m1.5-53.5v53.5m1.5-53.5v53.5m1.5-53.5v53.5m1.5-53.5v53.5m1.5-53.5v53.5m1.5-53.5v53.5m1.5-53.5v53.5m1.5-53.5v53.5m1.5-53.5v53.5m1.5-53.5v53.5m1.5-53.5v53.5m1.5-53.5v53.5m1.5-53.5v53.5m1.5-53.5v53.5m1.5-53.5v53.5m1.5-53.5v53.5m1.5-53.5v53.5m1.5-53.5v53.5m1.5-53.5v53.5m1.5-53.5v53.5m1.5-53.5v53.5m1.5-53.5v53.5m1.5-53.5v53.5m1.5-53.5v53.5m1.5-53.5v53.5m1.5-53.5v53.5m1.5-53.5v53.5m1.5-53.5v53.5m1.5-53.5v53.5m1.5-53.5v53.5m1.5-53.5v53.5m1.5-53.5v53.5m1.5-53.5v53.5m1.5-53.5v53.5m1.5-53.5v53.5m1.5-53.5v53.5m-64.5-53h64.5v52.5h-64.5zm65-52.5h-65.5m65.5 1.5h-65.5m65.5 1.5h-65.5m65.5 1.5h-65.5m65.5 1.5h-65.5m65.5 1.5h-65.5m65.5 1.5h-65.5m65.5 1.5h-65.5m65.5 1.5h-65.5m65.5 1.5h-65.5m65.5 1.5h-65.5m65.5 1.5h-65.5m65.5 1.5h-65.5m65.5 1.5h-65.5m65.5 1.5h-65.5m65.5 1.5h-65.5m65.5 1.5h-65.5m65.5 1.5h-65.5m65.5 1.5h-65.5m65.5 1.5h-65.5m65.5 1.5h-65.5m65.5 1.5h-65.5m65.5 1.5h-65.5m65.5 1.5h-65.5m65.5 1.5h-65.5m65.5 1.5h-65.5m65.5 1.5h-65.5m65.5 1.5h-65.5m65.5 1.5h-65.5m65.5 1.5h-65.5m65.5 1.5h-65.5m65.5 1.5h-65.5m65.5 1.5h-65.5m65.5 1.5h-65.5m65.5 1.5h-65.5m65.5 1.5h-65.5m.5-53v53.5m1.5-53.5v53.5m1.5-53.5v53.5m1.5-53.5v53.5m1.5-53.5v53.5m1.5-53.5v53.5m1.5-53.5v53.5m1.5-53.5v53.5m1.5-53.5v53.5m1.5-53.5v53.5m1.5-53.5v53.5m1.5-53.5v53.5m1.5-53.5v53.5m1.5-53.5v53.5m1.5-53.5v53.5m1.5-53.5v53.5m1.5-53.5v53.5m1.5-53.5v53.5m1.5-53.5v53.5m1.5-53.5v53.5m1.5-53.5v53.5m1.5-53.5v53.5m1.5-53.5v53.5m1.5-53.5v53.5m1.5-53.5v53.5m1.5-53.5v53.5m1.5-53.5v53.5m1.5-53.5v53.5m1.5-53.5v53.5m1.5-53.5v53.5m1.5-53.5v53.5m1.5-53.5v53.5m1.5-53.5v53.5m1.5-53.5v53.5m1.5-53.5v53.5m1.5-53.5v53.5m1.5-53.5v53.5m1.5-53.5v53.5m1.5-53.5v53.5m1.5-53.5v53.5m1.5-53.5v53.5m1.5-53.5v53.5m1.5-53.5v53.5m1.5-53.5v53.5m-64.5-53h64.5v52.5h-64.5zm65-52.5h-65.5m65.5 1.5h-65.5m65.5 1.5h-65.5m65.5 1.5h-65.5m65.5 1.5h-65.5m65.5 1.5h-65.5m65.5 1.5h-65.5m65.5 1.5h-65.5m65.5 1.5h-65.5m65.5 1.5h-65.5m65.5 1.5h-65.5m65.5 1.5h-65.5m65.5 1.5h-65.5m65.5 1.5h-65.5m65.5 1.5h-65.5m65.5 1.5h-65.5m65.5 1.5h-65.5m65.5 1.5h-65.5m65.5 1.5h-65.5m65.5 1.5h-65.5m65.5 1.5h-65.5m65.5 1.5h-65.5m65.5 1.5h-65.5m65.5 1.5h-65.5m65.5 1.5h-65.5m65.5 1.5h-65.5m65.5 1.5h-65.5m65.5 1.5h-65.5m65.5 1.5h-65.5m65.5 1.5h-65.5m65.5 1.5h-65.5m65.5 1.5h-65.5m65.5 1.5h-65.5m65.5 1.5h-65.5m65.5 1.5h-65.5m65.5 1.5h-65.5m.5-53v53.5m1.5-53.5v53.5m1.5-53.5v53.5m1.5-53.5v53.5m1.5-53.5v53.5m1.5-53.5v53.5m1.5-53.5v53.5m1.5-53.5v53.5m1.5-53.5v53.5m1.5-53.5v53.5m1.5-53.5v53.5m1.5-53.5v53.5m1.5-53.5v53.5m1.5-53.5v53.5m1.5-53.5v53.5m1.5-53.5v53.5m1.5-53.5v53.5m1.5-53.5v53.5m1.5-53.5v53.5m1.5-53.5v53.5m1.5-53.5v53.5m1.5-53.5v53.5m1.5-53.5v53.5m1.5-53.5v53.5m1.5-53.5v53.5m1.5-53.5v53.5m1.5-53.5v53.5m1.5-53.5v53.5m1.5-53.5v53.5m1.5-53.5v53.5m1.5-53.5v53.5m1.5-53.5v53.5m1.5-53.5v53.5m1.5-53.5v53.5m1.5-53.5v53.5m1.5-53.5v53.5m1.5-53.5v53.5m1.5-53.5v53.5m1.5-53.5v53.5m1.5-53.5v53.5m1.5-53.5v53.5m1.5-53.5v53.5m1.5-53.5v53.5m1.5-53.5v53.5m-64.5-53h64.5v52.5h-64.5zm65-52.5h-65.5m65.5 1.5h-65.5m65.5 1.5h-65.5m65.5 1.5h-65.5m65.5 1.5h-65.5m65.5 1.5h-65.5m65.5 1.5h-65.5m65.5 1.5h-65.5m65.5 1.5h-65.5m65.5 1.5h-65.5m65.5 1.5h-65.5m65.5 1.5h-65.5m65.5 1.5h-65.5m65.5 1.5h-65.5m65.5 1.5h-65.5m65.5 1.5h-65.5m65.5 1.5h-65.5m65.5 1.5h-65.5m65.5 1.5h-65.5m65.5 1.5h-65.5m65.5 1.5h-65.5m65.5 1.5h-65.5m65.5 1.5h-65.5m65.5 1.5h-65.5m65.5 1.5h-65.5m65.5 1.5h-65.5m65.5 1.5h-65.5m65.5 1.5h-65.5m65.5 1.5h-65.5m65.5 1.5h-65.5m65.5 1.5h-65.5m65.5 1.5h-65.5m65.5 1.5h-65.5m65.5 1.5h-65.5m65.5 1.5h-65.5m65.5 1.5h-65.5m.5-53v53.5m1.5-53.5v53.5m1.5-53.5v53.5m1.5-53.5v53.5m1.5-53.5v53.5m1.5-53.5v53.5m1.5-53.5v53.5m1.5-53.5v53.5m1.5-53.5v53.5m1.5-53.5v53.5m1.5-53.5v53.5m1.5-53.5v53.5m1.5-53.5v53.5m1.5-53.5v53.5m1.5-53.5v53.5m1.5-53.5v53.5m1.5-53.5v53.5m1.5-53.5v53.5m1.5-53.5v53.5m1.5-53.5v53.5m1.5-53.5v53.5m1.5-53.5v53.5m1.5-53.5v53.5m1.5-53.5v53.5m1.5-53.5v53.5m1.5-53.5v53.5m1.5-53.5v53.5m1.5-53.5v53.5m1.5-53.5v53.5m1.5-53.5v53.5m1.5-53.5v53.5m1.5-53.5v53.5m1.5-53.5v53.5m1.5-53.5v53.5m1.5-53.5v53.5m1.5-53.5v53.5m1.5-53.5v53.5m1.5-53.5v53.5m1.5-53.5v53.5m1.5-53.5v53.5m1.5-53.5v53.5m1.5-53.5v53.5m1.5-53.5v53.5m1.5-53.5v53.5m-64.5-53h64.5v52.5h-64.5zm65-52.5h-65.5m65.5 1.5h-65.5m65.5 1.5h-65.5m65.5 1.5h-65.5m65.5 1.5h-65.5m65.5 1.5h-65.5m65.5 1.5h-65.5m65.5 1.5h-65.5m65.5 1.5h-65.5m65.5 1.5h-65.5m65.5 1.5h-65.5m65.5 1.5h-65.5m65.5 1.5h-65.5m65.5 1.5h-65.5m65.5 1.5h-65.5m65.5 1.5h-65.5m65.5 1.5h-65.5m65.5 1.5h-65.5m65.5 1.5h-65.5m65.5 1.5h-65.5m65.5 1.5h-65.5m65.5 1.5h-65.5m65.5 1.5h-65.5m65.5 1.5h-65.5m65.5 1.5h-65.5m65.5 1.5h-65.5m65.5 1.5h-65.5m65.5 1.5h-65.5m65.5 1.5h-65.5m65.5 1.5h-65.5m65.5 1.5h-65.5m65.5 1.5h-65.5m65.5 1.5h-65.5m65.5 1.5h-65.5m65.5 1.5h-65.5m65.5 1.5h-65.5m.5-53v53.5m1.5-53.5v53.5m1.5-53.5v53.5m1.5-53.5v53.5m1.5-53.5v53.5m1.5-53.5v53.5m1.5-53.5v53.5m1.5-53.5v53.5m1.5-53.5v53.5m1.5-53.5v53.5m1.5-53.5v53.5m1.5-53.5v53.5m1.5-53.5v53.5m1.5-53.5v53.5m1.5-53.5v53.5m1.5-53.5v53.5m1.5-53.5v53.5m1.5-53.5v53.5m1.5-53.5v53.5m1.5-53.5v53.5m1.5-53.5v53.5m1.5-53.5v53.5m1.5-53.5v53.5m1.5-53.5v53.5m1.5-53.5v53.5m1.5-53.5v53.5m1.5-53.5v53.5m1.5-53.5v53.5m1.5-53.5v53.5m1.5-53.5v53.5m1.5-53.5v53.5m1.5-53.5v53.5m1.5-53.5v53.5m1.5-53.5v53.5m1.5-53.5v53.5m1.5-53.5v53.5m1.5-53.5v53.5m1.5-53.5v53.5m1.5-53.5v53.5m1.5-53.5v53.5m1.5-53.5v53.5m1.5-53.5v53.5m1.5-53.5v53.5m1.5-53.5v53.5m-64.5-53h64.5v52.5h-64.5zm.5 210h-65.5m65.5 1.5h-65.5m65.5 1.5h-65.5m65.5 1.5h-65.5m65.5 1.5h-65.5m65.5 1.5h-65.5m65.5 1.5h-65.5m65.5 1.5h-65.5m65.5 1.5h-65.5m65.5 1.5h-65.5m65.5 1.5h-65.5m65.5 1.5h-65.5m65.5 1.5h-65.5m65.5 1.5h-65.5m65.5 1.5h-65.5m65.5 1.5h-65.5m65.5 1.5h-65.5m65.5 1.5h-65.5m65.5 1.5h-65.5m65.5 1.5h-65.5m65.5 1.5h-65.5m65.5 1.5h-65.5m65.5 1.5h-65.5m65.5 1.5h-65.5m65.5 1.5h-65.5m65.5 1.5h-65.5m65.5 1.5h-65.5m65.5 1.5h-65.5m65.5 1.5h-65.5m65.5 1.5h-65.5m65.5 1.5h-65.5m65.5 1.5h-65.5m65.5 1.5h-65.5m65.5 1.5h-65.5m65.5 1.5h-65.5m65.5 1.5h-65.5m.5-53v53.5m1.5-53.5v53.5m1.5-53.5v53.5m1.5-53.5v53.5m1.5-53.5v53.5m1.5-53.5v53.5m1.5-53.5v53.5m1.5-53.5v53.5m1.5-53.5v53.5m1.5-53.5v53.5m1.5-53.5v53.5m1.5-53.5v53.5m1.5-53.5v53.5m1.5-53.5v53.5m1.5-53.5v53.5m1.5-53.5v53.5m1.5-53.5v53.5m1.5-53.5v53.5m1.5-53.5v53.5m1.5-53.5v53.5m1.5-53.5v53.5m1.5-53.5v53.5m1.5-53.5v53.5m1.5-53.5v53.5m1.5-53.5v53.5m1.5-53.5v53.5m1.5-53.5v53.5m1.5-53.5v53.5m1.5-53.5v53.5m1.5-53.5v53.5m1.5-53.5v53.5m1.5-53.5v53.5m1.5-53.5v53.5m1.5-53.5v53.5m1.5-53.5v53.5m1.5-53.5v53.5m1.5-53.5v53.5m1.5-53.5v53.5m1.5-53.5v53.5m1.5-53.5v53.5m1.5-53.5v53.5m1.5-53.5v53.5m1.5-53.5v53.5m1.5-53.5v53.5m-64.5-53h64.5v52.5h-64.5zm65-52.5h-65.5m65.5 1.5h-65.5m65.5 1.5h-65.5m65.5 1.5h-65.5m65.5 1.5h-65.5m65.5 1.5h-65.5m65.5 1.5h-65.5m65.5 1.5h-65.5m65.5 1.5h-65.5m65.5 1.5h-65.5m65.5 1.5h-65.5m65.5 1.5h-65.5m65.5 1.5h-65.5m65.5 1.5h-65.5m65.5 1.5h-65.5m65.5 1.5h-65.5m65.5 1.5h-65.5m65.5 1.5h-65.5m65.5 1.5h-65.5m65.5 1.5h-65.5m65.5 1.5h-65.5m65.5 1.5h-65.5m65.5 1.5h-65.5m65.5 1.5h-65.5m65.5 1.5h-65.5m65.5 1.5h-65.5m65.5 1.5h-65.5m65.5 1.5h-65.5m65.5 1.5h-65.5m65.5 1.5h-65.5m65.5 1.5h-65.5m65.5 1.5h-65.5m65.5 1.5h-65.5m65.5 1.5h-65.5m65.5 1.5h-65.5m65.5 1.5h-65.5m.5-53v53.5m1.5-53.5v53.5m1.5-53.5v53.5m1.5-53.5v53.5m1.5-53.5v53.5m1.5-53.5v53.5m1.5-53.5v53.5m1.5-53.5v53.5m1.5-53.5v53.5m1.5-53.5v53.5m1.5-53.5v53.5m1.5-53.5v53.5m1.5-53.5v53.5m1.5-53.5v53.5m1.5-53.5v53.5m1.5-53.5v53.5m1.5-53.5v53.5m1.5-53.5v53.5m1.5-53.5v53.5m1.5-53.5v53.5m1.5-53.5v53.5m1.5-53.5v53.5m1.5-53.5v53.5m1.5-53.5v53.5m1.5-53.5v53.5m1.5-53.5v53.5m1.5-53.5v53.5m1.5-53.5v53.5m1.5-53.5v53.5m1.5-53.5v53.5m1.5-53.5v53.5m1.5-53.5v53.5m1.5-53.5v53.5m1.5-53.5v53.5m1.5-53.5v53.5m1.5-53.5v53.5m1.5-53.5v53.5m1.5-53.5v53.5m1.5-53.5v53.5m1.5-53.5v53.5m1.5-53.5v53.5m1.5-53.5v53.5m1.5-53.5v53.5m1.5-53.5v53.5m-64.5-53h64.5v52.5h-64.5zm65-52.5h-65.5m65.5 1.5h-65.5m65.5 1.5h-65.5m65.5 1.5h-65.5m65.5 1.5h-65.5m65.5 1.5h-65.5m65.5 1.5h-65.5m65.5 1.5h-65.5m65.5 1.5h-65.5m65.5 1.5h-65.5m65.5 1.5h-65.5m65.5 1.5h-65.5m65.5 1.5h-65.5m65.5 1.5h-65.5m65.5 1.5h-65.5m65.5 1.5h-65.5m65.5 1.5h-65.5m65.5 1.5h-65.5m65.5 1.5h-65.5m65.5 1.5h-65.5m65.5 1.5h-65.5m65.5 1.5h-65.5m65.5 1.5h-65.5m65.5 1.5h-65.5m65.5 1.5h-65.5m65.5 1.5h-65.5m65.5 1.5h-65.5m65.5 1.5h-65.5m65.5 1.5h-65.5m65.5 1.5h-65.5m65.5 1.5h-65.5m65.5 1.5h-65.5m65.5 1.5h-65.5m65.5 1.5h-65.5m65.5 1.5h-65.5m65.5 1.5h-65.5m.5-53v53.5m1.5-53.5v53.5m1.5-53.5v53.5m1.5-53.5v53.5m1.5-53.5v53.5m1.5-53.5v53.5m1.5-53.5v53.5m1.5-53.5v53.5m1.5-53.5v53.5m1.5-53.5v53.5m1.5-53.5v53.5m1.5-53.5v53.5m1.5-53.5v53.5m1.5-53.5v53.5m1.5-53.5v53.5m1.5-53.5v53.5m1.5-53.5v53.5m1.5-53.5v53.5m1.5-53.5v53.5m1.5-53.5v53.5m1.5-53.5v53.5m1.5-53.5v53.5m1.5-53.5v53.5m1.5-53.5v53.5m1.5-53.5v53.5m1.5-53.5v53.5m1.5-53.5v53.5m1.5-53.5v53.5m1.5-53.5v53.5m1.5-53.5v53.5m1.5-53.5v53.5m1.5-53.5v53.5m1.5-53.5v53.5m1.5-53.5v53.5m1.5-53.5v53.5m1.5-53.5v53.5m1.5-53.5v53.5m1.5-53.5v53.5m1.5-53.5v53.5m1.5-53.5v53.5m1.5-53.5v53.5m1.5-53.5v53.5m1.5-53.5v53.5m1.5-53.5v53.5m-64.5-53h64.5v52.5h-64.5zm65-52.5h-65.5m65.5 1.5h-65.5m65.5 1.5h-65.5m65.5 1.5h-65.5m65.5 1.5h-65.5m65.5 1.5h-65.5m65.5 1.5h-65.5m65.5 1.5h-65.5m65.5 1.5h-65.5m65.5 1.5h-65.5m65.5 1.5h-65.5m65.5 1.5h-65.5m65.5 1.5h-65.5m65.5 1.5h-65.5m65.5 1.5h-65.5m65.5 1.5h-65.5m65.5 1.5h-65.5m65.5 1.5h-65.5m65.5 1.5h-65.5m65.5 1.5h-65.5m65.5 1.5h-65.5m65.5 1.5h-65.5m65.5 1.5h-65.5m65.5 1.5h-65.5m65.5 1.5h-65.5m65.5 1.5h-65.5m65.5 1.5h-65.5m65.5 1.5h-65.5m65.5 1.5h-65.5m65.5 1.5h-65.5m65.5 1.5h-65.5m65.5 1.5h-65.5m65.5 1.5h-65.5m65.5 1.5h-65.5m65.5 1.5h-65.5m65.5 1.5h-65.5m.5-53v53.5m1.5-53.5v53.5m1.5-53.5v53.5m1.5-53.5v53.5m1.5-53.5v53.5m1.5-53.5v53.5m1.5-53.5v53.5m1.5-53.5v53.5m1.5-53.5v53.5m1.5-53.5v53.5m1.5-53.5v53.5m1.5-53.5v53.5m1.5-53.5v53.5m1.5-53.5v53.5m1.5-53.5v53.5m1.5-53.5v53.5m1.5-53.5v53.5m1.5-53.5v53.5m1.5-53.5v53.5m1.5-53.5v53.5m1.5-53.5v53.5m1.5-53.5v53.5m1.5-53.5v53.5m1.5-53.5v53.5m1.5-53.5v53.5m1.5-53.5v53.5m1.5-53.5v53.5m1.5-53.5v53.5m1.5-53.5v53.5m1.5-53.5v53.5m1.5-53.5v53.5m1.5-53.5v53.5m1.5-53.5v53.5m1.5-53.5v53.5m1.5-53.5v53.5m1.5-53.5v53.5m1.5-53.5v53.5m1.5-53.5v53.5m1.5-53.5v53.5m1.5-53.5v53.5m1.5-53.5v53.5m1.5-53.5v53.5m1.5-53.5v53.5m1.5-53.5v53.5m-64.5-53h64.5v52.5h-64.5zm65-52.5h-65.5m65.5 1.5h-65.5m65.5 1.5h-65.5m65.5 1.5h-65.5m65.5 1.5h-65.5m65.5 1.5h-65.5m65.5 1.5h-65.5m65.5 1.5h-65.5m65.5 1.5h-65.5m65.5 1.5h-65.5m65.5 1.5h-65.5m65.5 1.5h-65.5m65.5 1.5h-65.5m65.5 1.5h-65.5m65.5 1.5h-65.5m65.5 1.5h-65.5m65.5 1.5h-65.5m65.5 1.5h-65.5m65.5 1.5h-65.5m65.5 1.5h-65.5m65.5 1.5h-65.5m65.5 1.5h-65.5m65.5 1.5h-65.5m65.5 1.5h-65.5m65.5 1.5h-65.5m65.5 1.5h-65.5m65.5 1.5h-65.5m65.5 1.5h-65.5m65.5 1.5h-65.5m65.5 1.5h-65.5m65.5 1.5h-65.5m65.5 1.5h-65.5m65.5 1.5h-65.5m65.5 1.5h-65.5m65.5 1.5h-65.5m65.5 1.5h-65.5m.5-53v53.5m1.5-53.5v53.5m1.5-53.5v53.5m1.5-53.5v53.5m1.5-53.5v53.5m1.5-53.5v53.5m1.5-53.5v53.5m1.5-53.5v53.5m1.5-53.5v53.5m1.5-53.5v53.5m1.5-53.5v53.5m1.5-53.5v53.5m1.5-53.5v53.5m1.5-53.5v53.5m1.5-53.5v53.5m1.5-53.5v53.5m1.5-53.5v53.5m1.5-53.5v53.5m1.5-53.5v53.5m1.5-53.5v53.5m1.5-53.5v53.5m1.5-53.5v53.5m1.5-53.5v53.5m1.5-53.5v53.5m1.5-53.5v53.5m1.5-53.5v53.5m1.5-53.5v53.5m1.5-53.5v53.5m1.5-53.5v53.5m1.5-53.5v53.5m1.5-53.5v53.5m1.5-53.5v53.5m1.5-53.5v53.5m1.5-53.5v53.5m1.5-53.5v53.5m1.5-53.5v53.5m1.5-53.5v53.5m1.5-53.5v53.5m1.5-53.5v53.5m1.5-53.5v53.5m1.5-53.5v53.5m1.5-53.5v53.5m1.5-53.5v53.5m1.5-53.5v53.5m-64.5-53h64.5v52.5h-64.5z" fill="#4d4d4d" fill-rule="evenodd" stroke="#575d5e" transform="translate(216.5 -.00002444)"/><rect id="rect5842-7-2-7" fill="none" height="30.5" overflow="visible" shape-rendering="crispEdges" stroke="#333" stroke-width=".5" width="27.5" x="536.7262" y="176.29997"/><rect id="rect5629-8-1" fill="none" height="10" overflow="visible" stroke="#333" stroke-linecap="round" stroke-width=".49999997" width="27.5" x="536.7262" y="154.29997"/><rect id="rect5629-8-1-1" fill="none" height="10" overflow="visible" stroke="#333" stroke-linecap="round" stroke-width=".49999997" width="27.5" x="536.7262" y="221.79997"/><path id="path5199" d="m270.51759-223.89821v78.50001m1.5-78.50001v78.50001m1.5-78.50001v78.50001m1.5-78.50001v78.50001m1.5-78.50001v78.50001m1.5-78.50001v78.50001m1.5-78.50001v78.50001m1.5-78.50001v78.50001m1.5-78.50001v78.50001m1.5-78.50001v78.50001m1.5-78.50001v78.50001m1.5-78.50001v78.50001m1.50001-78.50001v78.50001m1.5-78.50001v78.50001m1.5-78.50001v78.50001m1.5-78.50001v78.50001m1.5-78.50001v78.50001m1.5-78.50001v78.50001m1.5-78.50001v78.50001m1.5-78.50001v78.50001m1.5-78.50001v78.50001m1.5-78.50001v78.50001m1.5-78.50001v78.50001m1.5-78.50001v78.50001m1.5-78.50001v78.50001m1.5-78.50001v78.50001m1.5-78.50001v78.50001m1.5-78.50001v78.50001m1.5-78.50001v78.50001m1.5-78.50001v78.50001m1.5-78.50001v78.50001m1.5-78.50001v78.50001m1.5-78.50001v78.50001m1.5-78.50001v78.50001m1.5-78.50001v78.50001m-50.75001-64.75001h50.50001m-50.50001-1.5h50.50001m-50.50001-1.5h50.50001m-50.50001-1.5h50.50001m-50.50001-1.5h50.50001m-50.50001-1.5h50.50001m-50.50001-1.5h50.50001m-50.50001-1.5h50.50001m-50.50001-1.5h50.50001m-50.50001-1.5h50.50001m-50.50001 78.00001h50.50001m-50.50001-1.5h50.50001m-50.50001-1.50001h50.50001m-50.50001-1.5h50.50001m-50.50001-1.5h50.50001m-50.50001-1.5h50.50001m-50.50001-1.5h50.50001m-50.50001-1.5h50.50001m-50.50001-1.5h50.50001m-50.50001-1.5h50.50001m-50.50001-1.5h50.50001m-50.50001-1.5h50.50001m-50.50001-1.5h50.50001m-50.50001-1.5h50.50001m-50.50001-1.5h50.50001m-50.50001-1.5h50.50001m-50.50001-1.5h50.50001m-50.50001-1.5h50.50001m-50.50001-1.5h50.50001m-50.50001-1.5h50.50001m-50.50001-1.5h50.50001m-50.50001-1.5h50.50001m-50.50001-1.5h50.50001m-50.50001-1.5h50.50001m-50.50001-1.5h50.50001m-50.50001-1.5h50.50001m-50.50001-1.5h50.50001m-50.50001-1.5h50.50001m-50.50001-1.5h50.50001m-50.50001-1.5h50.50001m-50.50001-1.5h50.50001m-50.50001-1.5h50.50001m-50.50001-1.5h50.50001m-50.50001-1.5h50.50001m-50.50001-1.5h50.50001m-50.50001-1.5h50.50001m-50.50001-1.5h50.50001m-50.50001-1.5h50.50001m-50.50001-1.5h50.50001m-50.50001-1.5h50.50001m-50.50001-1.5h50.50001m-50.50001-1.5h50.50001m-50.50001-1.5h50.50001m-50.75001 63.00001v-78.00001h51.00001v78.00001zm-51-78.25001v78.50001m1.5-78.50001v78.50001m1.5-78.50001v78.50001m1.5-78.50001v78.50001m1.5-78.50001v78.50001m1.5-78.50001v78.50001m1.5-78.50001v78.50001m1.5-78.50001v78.50001m1.5-78.50001v78.50001m1.5-78.50001v78.50001m1.5-78.50001v78.50001m1.5-78.50001v78.50001m1.5-78.50001v78.50001m1.5-78.50001v78.50001m1.5-78.50001v78.50001m1.5-78.50001v78.50001m1.5-78.50001v78.50001m1.5-78.50001v78.50001m1.5-78.50001v78.50001m1.5-78.50001v78.50001m1.5-78.50001v78.50001m1.5-78.50001v78.50001m1.5-78.50001v78.50001m1.5-78.50001v78.50001m1.5-78.50001v78.50001m1.5-78.50001v78.50001m1.5-78.50001v78.50001m1.5-78.50001v78.50001m1.5-78.50001v78.50001m1.5-78.50001v78.50001m1.5-78.50001v78.50001m1.5-78.50001v78.50001m1.5-78.50001v78.50001m1.5-78.50001v78.50001m1.5-78.50001v78.50001m-50.75-64.75001h50.5m-50.5-1.5h50.5m-50.5-1.5h50.5m-50.5-1.5h50.5m-50.5-1.5h50.5m-50.5-1.5h50.5m-50.5-1.5h50.5m-50.5-1.5h50.5m-50.5-1.5h50.5m-50.5-1.5h50.5m-50.5 78.00001h50.5m-50.5-1.5h50.5m-50.5-1.50001h50.5m-50.5-1.5h50.5m-50.5-1.5h50.5m-50.5-1.5h50.5m-50.5-1.5h50.5m-50.5-1.5h50.5m-50.5-1.5h50.5m-50.5-1.5h50.5m-50.5-1.5h50.5m-50.5-1.5h50.5m-50.5-1.5h50.5m-50.5-1.5h50.5m-50.5-1.5h50.5m-50.5-1.5h50.5m-50.5-1.5h50.5m-50.5-1.5h50.5m-50.5-1.5h50.5m-50.5-1.5h50.5m-50.5-1.5h50.5m-50.5-1.5h50.5m-50.5-1.5h50.5m-50.5-1.5h50.5m-50.5-1.5h50.5m-50.5-1.5h50.5m-50.5-1.5h50.5m-50.5-1.5h50.5m-50.5-1.5h50.5m-50.5-1.5h50.5m-50.5-1.5h50.5m-50.5-1.5h50.5m-50.5-1.5h50.5m-50.5-1.5h50.5m-50.5-1.5h50.5m-50.5-1.5h50.5m-50.5-1.5h50.5m-50.5-1.5h50.5m-50.5-1.5h50.5m-50.5-1.5h50.5m-50.5-1.5h50.5m-50.5-1.5h50.5m-50.5-1.5h50.5m-50.75 63.00001v-78.00001h51v78.00001zm-51-78.25001v78.50001m1.5-78.50001v78.50001m1.5-78.50001v78.50001m1.5-78.50001v78.50001m1.5-78.50001v78.50001m1.5-78.50001v78.50001m1.5-78.50001v78.50001m1.5-78.50001v78.50001m1.5-78.50001v78.50001m1.5-78.50001v78.50001m1.5-78.50001v78.50001m1.5-78.50001v78.50001m1.5-78.50001v78.50001m1.5-78.50001v78.50001m1.5-78.50001v78.50001m1.5-78.50001v78.50001m1.5-78.50001v78.50001m1.5-78.50001v78.50001m1.5-78.50001v78.50001m1.5-78.50001v78.50001m1.5-78.50001v78.50001m1.5-78.50001v78.50001m1.5-78.50001v78.50001m1.5-78.50001v78.50001m1.5-78.50001v78.50001m1.5-78.50001v78.50001m1.5-78.50001v78.50001m1.5-78.50001v78.50001m1.5-78.50001v78.50001m1.5-78.50001v78.50001m1.5-78.50001v78.50001m1.5-78.50001v78.50001m1.5-78.50001v78.50001m1.5-78.50001v78.50001m1.5-78.50001v78.50001m-50.75-64.75001h50.5m-50.5-1.5h50.5m-50.5-1.5h50.5m-50.5-1.5h50.5m-50.5-1.5h50.5m-50.5-1.5h50.5m-50.5-1.5h50.5m-50.5-1.5h50.5m-50.5-1.5h50.5m-50.5-1.5h50.5m-50.5 78.00001h50.5m-50.5-1.5h50.5m-50.5-1.50001h50.5m-50.5-1.5h50.5m-50.5-1.5h50.5m-50.5-1.5h50.5m-50.5-1.5h50.5m-50.5-1.5h50.5m-50.5-1.5h50.5m-50.5-1.5h50.5m-50.5-1.5h50.5m-50.5-1.5h50.5m-50.5-1.5h50.5m-50.5-1.5h50.5m-50.5-1.5h50.5m-50.5-1.5h50.5m-50.5-1.5h50.5m-50.5-1.5h50.5m-50.5-1.5h50.5m-50.5-1.5h50.5m-50.5-1.5h50.5m-50.5-1.5h50.5m-50.5-1.5h50.5m-50.5-1.5h50.5m-50.5-1.5h50.5m-50.5-1.5h50.5m-50.5-1.5h50.5m-50.5-1.5h50.5m-50.5-1.5h50.5m-50.5-1.5h50.5m-50.5-1.5h50.5m-50.5-1.5h50.5m-50.5-1.5h50.5m-50.5-1.5h50.5m-50.5-1.5h50.5m-50.5-1.5h50.5m-50.5-1.5h50.5m-50.5-1.5h50.5m-50.5-1.5h50.5m-50.5-1.5h50.5m-50.5-1.5h50.5m-50.5-1.5h50.5m-50.5-1.5h50.5m-50.75 63.00001v-78.00001h51v78.00001zm-51-78.25001v78.50001m1.5-78.50001v78.50001m1.5-78.50001v78.50001m1.5-78.50001v78.50001m1.5-78.50001v78.50001m1.5-78.50001v78.50001m1.5-78.50001v78.50001m1.5-78.50001v78.50001m1.5-78.50001v78.50001m1.5-78.50001v78.50001m1.5-78.50001v78.50001m1.5-78.50001v78.50001m1.5-78.50001v78.50001m1.5-78.50001v78.50001m1.5-78.50001v78.50001m1.5-78.50001v78.50001m1.5-78.50001v78.50001m1.5-78.50001v78.50001m1.5-78.50001v78.50001m1.5-78.50001v78.50001m1.5-78.50001v78.50001m1.5-78.50001v78.50001m1.5-78.50001v78.50001m1.5-78.50001v78.50001m1.5-78.50001v78.50001m1.5-78.50001v78.50001m1.5-78.50001v78.50001m1.5-78.50001v78.50001m1.5-78.50001v78.50001m1.5-78.50001v78.50001m1.5-78.50001v78.50001m1.5-78.50001v78.50001m1.5-78.50001v78.50001m1.5-78.50001v78.50001m1.5-78.50001v78.50001m-50.75-64.75001h50.5m-50.5-1.5h50.5m-50.5-1.5h50.5m-50.5-1.5h50.5m-50.5-1.5h50.5m-50.5-1.5h50.5m-50.5-1.5h50.5m-50.5-1.5h50.5m-50.5-1.5h50.5m-50.5-1.5h50.5m-50.5 78.00001h50.5m-50.5-1.5h50.5m-50.5-1.50001h50.5m-50.5-1.5h50.5m-50.5-1.5h50.5m-50.5-1.5h50.5m-50.5-1.5h50.5m-50.5-1.5h50.5m-50.5-1.5h50.5m-50.5-1.5h50.5m-50.5-1.5h50.5m-50.5-1.5h50.5m-50.5-1.5h50.5m-50.5-1.5h50.5m-50.5-1.5h50.5m-50.5-1.5h50.5m-50.5-1.5h50.5m-50.5-1.5h50.5m-50.5-1.5h50.5m-50.5-1.5h50.5m-50.5-1.5h50.5m-50.5-1.5h50.5m-50.5-1.5h50.5m-50.5-1.5h50.5m-50.5-1.5h50.5m-50.5-1.5h50.5m-50.5-1.5h50.5m-50.5-1.5h50.5m-50.5-1.5h50.5m-50.5-1.5h50.5m-50.5-1.5h50.5m-50.5-1.5h50.5m-50.5-1.5h50.5m-50.5-1.5h50.5m-50.5-1.5h50.5m-50.5-1.5h50.5m-50.5-1.5h50.5m-50.5-1.5h50.5m-50.5-1.5h50.5m-50.5-1.5h50.5m-50.5-1.5h50.5m-50.5-1.5h50.5m-50.5-1.5h50.5m-50.75 63.00001v-78.00001h51v78.00001zm-50.999985-78.25001v78.50001m1.5-78.50001v78.50001m1.5-78.50001v78.50001m1.5-78.50001v78.50001m1.5-78.50001v78.50001m1.5-78.50001v78.50001m1.5-78.50001v78.50001m1.5-78.50001v78.50001m1.5-78.50001v78.50001m1.5-78.50001v78.50001m1.5-78.50001v78.50001m1.5-78.50001v78.50001m1.5-78.50001v78.50001m1.5-78.50001v78.50001m1.5-78.50001v78.50001m1.5-78.50001v78.50001m1.5-78.50001v78.50001m1.5-78.50001v78.50001m1.5-78.50001v78.50001m1.5-78.50001v78.50001m1.5-78.50001v78.50001m1.5-78.50001v78.50001m1.5-78.50001v78.50001m1.499995-78.50001v78.50001m1.5-78.50001v78.50001m1.5-78.50001v78.50001m1.5-78.50001v78.50001m1.5-78.50001v78.50001m1.5-78.50001v78.50001m1.5-78.50001v78.50001m1.5-78.50001v78.50001m1.5-78.50001v78.50001m1.5-78.50001v78.50001m1.5-78.50001v78.50001m1.5-78.50001v78.50001m-50.749995-64.75001h50.499995m-50.499995-1.5h50.499995m-50.499995-1.5h50.499995m-50.499995-1.5h50.499995m-50.499995-1.5h50.499995m-50.499995-1.5h50.499995m-50.499995-1.5h50.499995m-50.499995-1.5h50.499995m-50.499995-1.5h50.499995m-50.499995-1.5h50.499995m-50.499995 78.00001h50.499995m-50.499995-1.5h50.499995m-50.499995-1.50001h50.499995m-50.499995-1.5h50.499995m-50.499995-1.5h50.499995m-50.499995-1.5h50.499995m-50.499995-1.5h50.499995m-50.499995-1.5h50.499995m-50.499995-1.5h50.499995m-50.499995-1.5h50.499995m-50.499995-1.5h50.499995m-50.499995-1.5h50.499995m-50.499995-1.5h50.499995m-50.499995-1.5h50.499995m-50.499995-1.5h50.499995m-50.499995-1.5h50.499995m-50.499995-1.5h50.499995m-50.499995-1.5h50.499995m-50.499995-1.5h50.499995m-50.499995-1.5h50.499995m-50.499995-1.5h50.499995m-50.499995-1.5h50.499995m-50.499995-1.5h50.499995m-50.499995-1.5h50.499995m-50.499995-1.5h50.499995m-50.499995-1.5h50.499995m-50.499995-1.5h50.499995m-50.499995-1.5h50.499995m-50.499995-1.5h50.499995m-50.499995-1.5h50.499995m-50.499995-1.5h50.499995m-50.499995-1.5h50.499995m-50.499995-1.5h50.499995m-50.499995-1.5h50.499995m-50.499995-1.5h50.499995m-50.499995-1.5h50.499995m-50.499995-1.5h50.499995m-50.499995-1.5h50.499995m-50.499995-1.5h50.499995m-50.499995-1.5h50.499995m-50.499995-1.5h50.499995m-50.499995-1.5h50.499995m-50.499995-1.5h50.499995m-50.749995 63.00001v-78.00001h50.999995v78.00001zm203.999985-.2497v78.499997m1.5-78.499997v78.499997m1.5-78.499997v78.499997m1.5-78.499997v78.499997m1.5-78.499997v78.499997m1.5-78.499997v78.499997m1.5-78.499997v78.499997m1.5-78.499997v78.499997m1.5-78.499997v78.499997m1.5-78.499997v78.499997m1.5-78.499997v78.499997m1.5-78.499997v78.499997m1.50001-78.499997v78.499997m1.5-78.499997v78.499997m1.5-78.499997v78.499997m1.5-78.499997v78.499997m1.5-78.499997v78.499997m1.5-78.499997v78.499997m1.5-78.499997v78.499997m1.5-78.499997v78.499997m1.5-78.499997v78.499997m1.5-78.499997v78.499997m1.5-78.499997v78.499997m1.5-78.499997v78.499997m1.5-78.499997v78.499997m1.5-78.499997v78.499997m1.5-78.499997v78.499997m1.5-78.499997v78.499997m1.5-78.499997v78.499997m1.5-78.499997v78.499997m1.5-78.499997v78.499997m1.5-78.499997v78.499997m1.5-78.499997v78.499997m1.5-78.499997v78.499997m1.5-78.499997v78.499997m-50.75001-64.749997h50.50001m-50.50001-1.5h50.50001m-50.50001-1.5h50.50001m-50.50001-1.5h50.50001m-50.50001-1.5h50.50001m-50.50001-1.5h50.50001m-50.50001-1.5h50.50001m-50.50001-1.5h50.50001m-50.50001-1.5h50.50001m-50.50001-1.5h50.50001m-50.50001 77.999997h50.50001m-50.50001-1.5h50.50001m-50.50001-1.5h50.50001m-50.50001-1.5h50.50001m-50.50001-1.5h50.50001m-50.50001-1.5h50.50001m-50.50001-1.5h50.50001m-50.50001-1.5h50.50001m-50.50001-1.5h50.50001m-50.50001-1.5h50.50001m-50.50001-1.5h50.50001m-50.50001-1.5h50.50001m-50.50001-1.5h50.50001m-50.50001-1.5h50.50001m-50.50001-1.5h50.50001m-50.50001-1.5h50.50001m-50.50001-1.5h50.50001m-50.50001-1.5h50.50001m-50.50001-1.5h50.50001m-50.50001-1.5h50.50001m-50.50001-1.5h50.50001m-50.50001-1.5h50.50001m-50.50001-1.499997h50.50001m-50.50001-1.5h50.50001m-50.50001-1.5h50.50001m-50.50001-1.5h50.50001m-50.50001-1.5h50.50001m-50.50001-1.5h50.50001m-50.50001-1.5h50.50001m-50.50001-1.5h50.50001m-50.50001-1.5h50.50001m-50.50001-1.5h50.50001m-50.50001-1.5h50.50001m-50.50001-1.5h50.50001m-50.50001-1.5h50.50001m-50.50001-1.5h50.50001m-50.50001-1.5h50.50001m-50.50001-1.5h50.50001m-50.50001-1.5h50.50001m-50.50001-1.5h50.50001m-50.50001-1.5h50.50001m-50.50001-1.5h50.50001m-50.50001-1.5h50.50001m-50.75001 62.999997v-77.999997h51.00001v77.999997zm-51-78.249997v78.499997m1.5-78.499997v78.499997m1.5-78.499997v78.499997m1.5-78.499997v78.499997m1.5-78.499997v78.499997m1.5-78.499997v78.499997m1.5-78.499997v78.499997m1.5-78.499997v78.499997m1.5-78.499997v78.499997m1.5-78.499997v78.499997m1.5-78.499997v78.499997m1.5-78.499997v78.499997m1.5-78.499997v78.499997m1.5-78.499997v78.499997m1.5-78.499997v78.499997m1.5-78.499997v78.499997m1.5-78.499997v78.499997m1.5-78.499997v78.499997m1.5-78.499997v78.499997m1.5-78.499997v78.499997m1.5-78.499997v78.499997m1.5-78.499997v78.499997m1.5-78.499997v78.499997m1.5-78.499997v78.499997m1.5-78.499997v78.499997m1.5-78.499997v78.499997m1.5-78.499997v78.499997m1.5-78.499997v78.499997m1.5-78.499997v78.499997m1.5-78.499997v78.499997m1.5-78.499997v78.499997m1.5-78.499997v78.499997m1.5-78.499997v78.499997m1.5-78.499997v78.499997m1.5-78.499997v78.499997m-50.75-64.749997h50.5m-50.5-1.5h50.5m-50.5-1.5h50.5m-50.5-1.5h50.5m-50.5-1.5h50.5m-50.5-1.5h50.5m-50.5-1.5h50.5m-50.5-1.5h50.5m-50.5-1.5h50.5m-50.5-1.5h50.5m-50.5 77.999997h50.5m-50.5-1.5h50.5m-50.5-1.5h50.5m-50.5-1.5h50.5m-50.5-1.5h50.5m-50.5-1.5h50.5m-50.5-1.5h50.5m-50.5-1.5h50.5m-50.5-1.5h50.5m-50.5-1.5h50.5m-50.5-1.5h50.5m-50.5-1.5h50.5m-50.5-1.5h50.5m-50.5-1.5h50.5m-50.5-1.5h50.5m-50.5-1.5h50.5m-50.5-1.5h50.5m-50.5-1.5h50.5m-50.5-1.5h50.5m-50.5-1.5h50.5m-50.5-1.5h50.5m-50.5-1.5h50.5m-50.5-1.499997h50.5m-50.5-1.5h50.5m-50.5-1.5h50.5m-50.5-1.5h50.5m-50.5-1.5h50.5m-50.5-1.5h50.5m-50.5-1.5h50.5m-50.5-1.5h50.5m-50.5-1.5h50.5m-50.5-1.5h50.5m-50.5-1.5h50.5m-50.5-1.5h50.5m-50.5-1.5h50.5m-50.5-1.5h50.5m-50.5-1.5h50.5m-50.5-1.5h50.5m-50.5-1.5h50.5m-50.5-1.5h50.5m-50.5-1.5h50.5m-50.5-1.5h50.5m-50.5-1.5h50.5m-50.75 62.999997v-77.999997h51v77.999997zm-51-78.249997v78.499997m1.5-78.499997v78.499997m1.5-78.499997v78.499997m1.5-78.499997v78.499997m1.5-78.499997v78.499997m1.5-78.499997v78.499997m1.5-78.499997v78.499997m1.5-78.499997v78.499997m1.5-78.499997v78.499997m1.5-78.499997v78.499997m1.5-78.499997v78.499997m1.5-78.499997v78.499997m1.5-78.499997v78.499997m1.5-78.499997v78.499997m1.5-78.499997v78.499997m1.5-78.499997v78.499997m1.5-78.499997v78.499997m1.5-78.499997v78.499997m1.5-78.499997v78.499997m1.5-78.499997v78.499997m1.5-78.499997v78.499997m1.5-78.499997v78.499997m1.5-78.499997v78.499997m1.5-78.499997v78.499997m1.5-78.499997v78.499997m1.5-78.499997v78.499997m1.5-78.499997v78.499997m1.5-78.499997v78.499997m1.5-78.499997v78.499997m1.5-78.499997v78.499997m1.5-78.499997v78.499997m1.5-78.499997v78.499997m1.5-78.499997v78.499997m1.5-78.499997v78.499997m1.5-78.499997v78.499997m-50.75-64.749997h50.5m-50.5-1.5h50.5m-50.5-1.5h50.5m-50.5-1.5h50.5m-50.5-1.5h50.5m-50.5-1.5h50.5m-50.5-1.5h50.5m-50.5-1.5h50.5m-50.5-1.5h50.5m-50.5-1.5h50.5m-50.5 77.999997h50.5m-50.5-1.5h50.5m-50.5-1.5h50.5m-50.5-1.5h50.5m-50.5-1.5h50.5m-50.5-1.5h50.5m-50.5-1.5h50.5m-50.5-1.5h50.5m-50.5-1.5h50.5m-50.5-1.5h50.5m-50.5-1.5h50.5m-50.5-1.5h50.5m-50.5-1.5h50.5m-50.5-1.5h50.5m-50.5-1.5h50.5m-50.5-1.5h50.5m-50.5-1.5h50.5m-50.5-1.5h50.5m-50.5-1.5h50.5m-50.5-1.5h50.5m-50.5-1.5h50.5m-50.5-1.5h50.5m-50.5-1.499997h50.5m-50.5-1.5h50.5m-50.5-1.5h50.5m-50.5-1.5h50.5m-50.5-1.5h50.5m-50.5-1.5h50.5m-50.5-1.5h50.5m-50.5-1.5h50.5m-50.5-1.5h50.5m-50.5-1.5h50.5m-50.5-1.5h50.5m-50.5-1.5h50.5m-50.5-1.5h50.5m-50.5-1.5h50.5m-50.5-1.5h50.5m-50.5-1.5h50.5m-50.5-1.5h50.5m-50.5-1.5h50.5m-50.5-1.5h50.5m-50.5-1.5h50.5m-50.5-1.5h50.5m-50.75 62.999997v-77.999997h51v77.999997zm-51-78.249997v78.499997m1.5-78.499997v78.499997m1.5-78.499997v78.499997m1.5-78.499997v78.499997m1.5-78.499997v78.499997m1.5-78.499997v78.499997m1.5-78.499997v78.499997m1.5-78.499997v78.499997m1.5-78.499997v78.499997m1.5-78.499997v78.499997m1.5-78.499997v78.499997m1.5-78.499997v78.499997m1.5-78.499997v78.499997m1.5-78.499997v78.499997m1.5-78.499997v78.499997m1.5-78.499997v78.499997m1.5-78.499997v78.499997m1.5-78.499997v78.499997m1.5-78.499997v78.499997m1.5-78.499997v78.499997m1.5-78.499997v78.499997m1.5-78.499997v78.499997m1.5-78.499997v78.499997m1.5-78.499997v78.499997m1.5-78.499997v78.499997m1.5-78.499997v78.499997m1.5-78.499997v78.499997m1.5-78.499997v78.499997m1.5-78.499997v78.499997m1.5-78.499997v78.499997m1.5-78.499997v78.499997m1.5-78.499997v78.499997m1.5-78.499997v78.499997m1.5-78.499997v78.499997m1.5-78.499997v78.499997m-50.75-64.749997h50.5m-50.5-1.5h50.5m-50.5-1.5h50.5m-50.5-1.5h50.5m-50.5-1.5h50.5m-50.5-1.5h50.5m-50.5-1.5h50.5m-50.5-1.5h50.5m-50.5-1.5h50.5m-50.5-1.5h50.5m-50.5 77.999997h50.5m-50.5-1.5h50.5m-50.5-1.5h50.5m-50.5-1.5h50.5m-50.5-1.5h50.5m-50.5-1.5h50.5m-50.5-1.5h50.5m-50.5-1.5h50.5m-50.5-1.5h50.5m-50.5-1.5h50.5m-50.5-1.5h50.5m-50.5-1.5h50.5m-50.5-1.5h50.5m-50.5-1.5h50.5m-50.5-1.5h50.5m-50.5-1.5h50.5m-50.5-1.5h50.5m-50.5-1.5h50.5m-50.5-1.5h50.5m-50.5-1.5h50.5m-50.5-1.5h50.5m-50.5-1.5h50.5m-50.5-1.499997h50.5m-50.5-1.5h50.5m-50.5-1.5h50.5m-50.5-1.5h50.5m-50.5-1.5h50.5m-50.5-1.5h50.5m-50.5-1.5h50.5m-50.5-1.5h50.5m-50.5-1.5h50.5m-50.5-1.5h50.5m-50.5-1.5h50.5m-50.5-1.5h50.5m-50.5-1.5h50.5m-50.5-1.5h50.5m-50.5-1.5h50.5m-50.5-1.5h50.5m-50.5-1.5h50.5m-50.5-1.5h50.5m-50.5-1.5h50.5m-50.5-1.5h50.5m-50.5-1.5h50.5m-50.75 62.999997v-77.999997h51v77.999997zm-50.999985-78.249997v78.499997m1.5-78.499997v78.499997m1.5-78.499997v78.499997m1.5-78.499997v78.499997m1.5-78.499997v78.499997m1.5-78.499997v78.499997m1.5-78.499997v78.499997m1.5-78.499997v78.499997m1.5-78.499997v78.499997m1.5-78.499997v78.499997m1.5-78.499997v78.499997m1.5-78.499997v78.499997m1.5-78.499997v78.499997m1.5-78.499997v78.499997m1.5-78.499997v78.499997m1.5-78.499997v78.499997m1.5-78.499997v78.499997m1.5-78.499997v78.499997m1.5-78.499997v78.499997m1.5-78.499997v78.499997m1.5-78.499997v78.499997m1.5-78.499997v78.499997m1.5-78.499997v78.499997m1.499995-78.499997v78.499997m1.5-78.499997v78.499997m1.5-78.499997v78.499997m1.5-78.499997v78.499997m1.5-78.499997v78.499997m1.5-78.499997v78.499997m1.5-78.499997v78.499997m1.5-78.499997v78.499997m1.5-78.499997v78.499997m1.5-78.499997v78.499997m1.5-78.499997v78.499997m1.5-78.499997v78.499997m-50.749995-64.749997h50.499995m-50.499995-1.5h50.499995m-50.499995-1.5h50.499995m-50.499995-1.5h50.499995m-50.499995-1.5h50.499995m-50.499995-1.5h50.499995m-50.499995-1.5h50.499995m-50.499995-1.5h50.499995m-50.499995-1.5h50.499995m-50.499995-1.5h50.499995m-50.499995 77.999997h50.499995m-50.499995-1.5h50.499995m-50.499995-1.5h50.499995m-50.499995-1.5h50.499995m-50.499995-1.5h50.499995m-50.499995-1.5h50.499995m-50.499995-1.5h50.499995m-50.499995-1.5h50.499995m-50.499995-1.5h50.499995m-50.499995-1.5h50.499995m-50.499995-1.5h50.499995m-50.499995-1.5h50.499995m-50.499995-1.5h50.499995m-50.499995-1.5h50.499995m-50.499995-1.5h50.499995m-50.499995-1.5h50.499995m-50.499995-1.5h50.499995m-50.499995-1.5h50.499995m-50.499995-1.5h50.499995m-50.499995-1.5h50.499995m-50.499995-1.5h50.499995m-50.499995-1.5h50.499995m-50.499995-1.499997h50.499995m-50.499995-1.5h50.499995m-50.499995-1.5h50.499995m-50.499995-1.5h50.499995m-50.499995-1.5h50.499995m-50.499995-1.5h50.499995m-50.499995-1.5h50.499995m-50.499995-1.5h50.499995m-50.499995-1.5h50.499995m-50.499995-1.5h50.499995m-50.499995-1.5h50.499995m-50.499995-1.5h50.499995m-50.499995-1.5h50.499995m-50.499995-1.5h50.499995m-50.499995-1.5h50.499995m-50.499995-1.5h50.499995m-50.499995-1.5h50.499995m-50.499995-1.5h50.499995m-50.499995-1.5h50.499995m-50.499995-1.5h50.499995m-50.499995-1.5h50.499995m-50.749995 62.999997v-77.999997h50.999995v77.999997zm459.000385-156.250307v78.50001m1.5-78.50001v78.50001m1.5-78.50001v78.50001m1.5-78.50001v78.50001m1.5-78.50001v78.50001m1.5-78.50001v78.50001m1.5-78.50001v78.50001m1.5-78.50001v78.50001m1.5-78.50001v78.50001m1.5-78.50001v78.50001m1.5-78.50001v78.50001m1.5-78.50001v78.50001m1.50001-78.50001v78.50001m1.5-78.50001v78.50001m1.5-78.50001v78.50001m1.5-78.50001v78.50001m1.5-78.50001v78.50001m1.5-78.50001v78.50001m1.5-78.50001v78.50001m1.5-78.50001v78.50001m1.5-78.50001v78.50001m1.5-78.50001v78.50001m1.5-78.50001v78.50001m1.5-78.50001v78.50001m1.5-78.50001v78.50001m1.5-78.50001v78.50001m1.5-78.50001v78.50001m1.5-78.50001v78.50001m1.5-78.50001v78.50001m1.5-78.50001v78.50001m1.5-78.50001v78.50001m1.5-78.50001v78.50001m1.5-78.50001v78.50001m1.5-78.50001v78.50001m1.5-78.50001v78.50001m-50.75001-64.75001h50.50001m-50.50001-1.5h50.50001m-50.50001-1.5h50.50001m-50.50001-1.5h50.50001m-50.50001-1.5h50.50001m-50.50001-1.5h50.50001m-50.50001-1.5h50.50001m-50.50001-1.5h50.50001m-50.50001-1.5h50.50001m-50.50001-1.5h50.50001m-50.50001 78.00001h50.50001m-50.50001-1.5h50.50001m-50.50001-1.50001h50.50001m-50.50001-1.5h50.50001m-50.50001-1.5h50.50001m-50.50001-1.5h50.50001m-50.50001-1.5h50.50001m-50.50001-1.5h50.50001m-50.50001-1.5h50.50001m-50.50001-1.5h50.50001m-50.50001-1.5h50.50001m-50.50001-1.5h50.50001m-50.50001-1.5h50.50001m-50.50001-1.5h50.50001m-50.50001-1.5h50.50001m-50.50001-1.5h50.50001m-50.50001-1.5h50.50001m-50.50001-1.5h50.50001m-50.50001-1.5h50.50001m-50.50001-1.5h50.50001m-50.50001-1.5h50.50001m-50.50001-1.5h50.50001m-50.50001-1.5h50.50001m-50.50001-1.5h50.50001m-50.50001-1.5h50.50001m-50.50001-1.5h50.50001m-50.50001-1.5h50.50001m-50.50001-1.5h50.50001m-50.50001-1.5h50.50001m-50.50001-1.5h50.50001m-50.50001-1.5h50.50001m-50.50001-1.5h50.50001m-50.50001-1.5h50.50001m-50.50001-1.5h50.50001m-50.50001-1.5h50.50001m-50.50001-1.5h50.50001m-50.50001-1.5h50.50001m-50.50001-1.5h50.50001m-50.50001-1.5h50.50001m-50.50001-1.5h50.50001m-50.50001-1.5h50.50001m-50.50001-1.5h50.50001m-50.50001-1.5h50.50001m-50.75001 63.00001v-78.00001h51.00001v78.00001zm-51-78.25001v78.50001m1.5-78.50001v78.50001m1.5-78.50001v78.50001m1.5-78.50001v78.50001m1.5-78.50001v78.50001m1.5-78.50001v78.50001m1.5-78.50001v78.50001m1.5-78.50001v78.50001m1.5-78.50001v78.50001m1.5-78.50001v78.50001m1.5-78.50001v78.50001m1.5-78.50001v78.50001m1.5-78.50001v78.50001m1.5-78.50001v78.50001m1.5-78.50001v78.50001m1.5-78.50001v78.50001m1.5-78.50001v78.50001m1.5-78.50001v78.50001m1.5-78.50001v78.50001m1.5-78.50001v78.50001m1.5-78.50001v78.50001m1.5-78.50001v78.50001m1.5-78.50001v78.50001m1.5-78.50001v78.50001m1.5-78.50001v78.50001m1.5-78.50001v78.50001m1.5-78.50001v78.50001m1.5-78.50001v78.50001m1.5-78.50001v78.50001m1.5-78.50001v78.50001m1.5-78.50001v78.50001m1.5-78.50001v78.50001m1.5-78.50001v78.50001m1.5-78.50001v78.50001m1.5-78.50001v78.50001m-50.75-64.75001h50.5m-50.5-1.5h50.5m-50.5-1.5h50.5m-50.5-1.5h50.5m-50.5-1.5h50.5m-50.5-1.5h50.5m-50.5-1.5h50.5m-50.5-1.5h50.5m-50.5-1.5h50.5m-50.5-1.5h50.5m-50.5 78.00001h50.5m-50.5-1.5h50.5m-50.5-1.50001h50.5m-50.5-1.5h50.5m-50.5-1.5h50.5m-50.5-1.5h50.5m-50.5-1.5h50.5m-50.5-1.5h50.5m-50.5-1.5h50.5m-50.5-1.5h50.5m-50.5-1.5h50.5m-50.5-1.5h50.5m-50.5-1.5h50.5m-50.5-1.5h50.5m-50.5-1.5h50.5m-50.5-1.5h50.5m-50.5-1.5h50.5m-50.5-1.5h50.5m-50.5-1.5h50.5m-50.5-1.5h50.5m-50.5-1.5h50.5m-50.5-1.5h50.5m-50.5-1.5h50.5m-50.5-1.5h50.5m-50.5-1.5h50.5m-50.5-1.5h50.5m-50.5-1.5h50.5m-50.5-1.5h50.5m-50.5-1.5h50.5m-50.5-1.5h50.5m-50.5-1.5h50.5m-50.5-1.5h50.5m-50.5-1.5h50.5m-50.5-1.5h50.5m-50.5-1.5h50.5m-50.5-1.5h50.5m-50.5-1.5h50.5m-50.5-1.5h50.5m-50.5-1.5h50.5m-50.5-1.5h50.5m-50.5-1.5h50.5m-50.5-1.5h50.5m-50.5-1.5h50.5m-50.75 63.00001v-78.00001h51v78.00001zm-51-78.25001v78.50001m1.5-78.50001v78.50001m1.5-78.50001v78.50001m1.5-78.50001v78.50001m1.5-78.50001v78.50001m1.5-78.50001v78.50001m1.5-78.50001v78.50001m1.5-78.50001v78.50001m1.5-78.50001v78.50001m1.5-78.50001v78.50001m1.5-78.50001v78.50001m1.5-78.50001v78.50001m1.5-78.50001v78.50001m1.5-78.50001v78.50001m1.5-78.50001v78.50001m1.5-78.50001v78.50001m1.5-78.50001v78.50001m1.5-78.50001v78.50001m1.5-78.50001v78.50001m1.5-78.50001v78.50001m1.5-78.50001v78.50001m1.5-78.50001v78.50001m1.5-78.50001v78.50001m1.5-78.50001v78.50001m1.5-78.50001v78.50001m1.5-78.50001v78.50001m1.5-78.50001v78.50001m1.5-78.50001v78.50001m1.5-78.50001v78.50001m1.5-78.50001v78.50001m1.5-78.50001v78.50001m1.5-78.50001v78.50001m1.5-78.50001v78.50001m1.5-78.50001v78.50001m1.5-78.50001v78.50001m-50.75-64.75001h50.5m-50.5-1.5h50.5m-50.5-1.5h50.5m-50.5-1.5h50.5m-50.5-1.5h50.5m-50.5-1.5h50.5m-50.5-1.5h50.5m-50.5-1.5h50.5m-50.5-1.5h50.5m-50.5-1.5h50.5m-50.5 78.00001h50.5m-50.5-1.5h50.5m-50.5-1.50001h50.5m-50.5-1.5h50.5m-50.5-1.5h50.5m-50.5-1.5h50.5m-50.5-1.5h50.5m-50.5-1.5h50.5m-50.5-1.5h50.5m-50.5-1.5h50.5m-50.5-1.5h50.5m-50.5-1.5h50.5m-50.5-1.5h50.5m-50.5-1.5h50.5m-50.5-1.5h50.5m-50.5-1.5h50.5m-50.5-1.5h50.5m-50.5-1.5h50.5m-50.5-1.5h50.5m-50.5-1.5h50.5m-50.5-1.5h50.5m-50.5-1.5h50.5m-50.5-1.5h50.5m-50.5-1.5h50.5m-50.5-1.5h50.5m-50.5-1.5h50.5m-50.5-1.5h50.5m-50.5-1.5h50.5m-50.5-1.5h50.5m-50.5-1.5h50.5m-50.5-1.5h50.5m-50.5-1.5h50.5m-50.5-1.5h50.5m-50.5-1.5h50.5m-50.5-1.5h50.5m-50.5-1.5h50.5m-50.5-1.5h50.5m-50.5-1.5h50.5m-50.5-1.5h50.5m-50.5-1.5h50.5m-50.5-1.5h50.5m-50.5-1.5h50.5m-50.5-1.5h50.5m-50.75 63.00001v-78.00001h51v78.00001zm-51-78.25001v78.50001m1.5-78.50001v78.50001m1.5-78.50001v78.50001m1.5-78.50001v78.50001m1.5-78.50001v78.50001m1.5-78.50001v78.50001m1.5-78.50001v78.50001m1.5-78.50001v78.50001m1.5-78.50001v78.50001m1.5-78.50001v78.50001m1.5-78.50001v78.50001m1.5-78.50001v78.50001m1.5-78.50001v78.50001m1.5-78.50001v78.50001m1.5-78.50001v78.50001m1.5-78.50001v78.50001m1.5-78.50001v78.50001m1.5-78.50001v78.50001m1.5-78.50001v78.50001m1.5-78.50001v78.50001m1.5-78.50001v78.50001m1.5-78.50001v78.50001m1.5-78.50001v78.50001m1.5-78.50001v78.50001m1.5-78.50001v78.50001m1.5-78.50001v78.50001m1.5-78.50001v78.50001m1.5-78.50001v78.50001m1.5-78.50001v78.50001m1.5-78.50001v78.50001m1.5-78.50001v78.50001m1.5-78.50001v78.50001m1.5-78.50001v78.50001m1.5-78.50001v78.50001m1.5-78.50001v78.50001m-50.75-64.75001h50.5m-50.5-1.5h50.5m-50.5-1.5h50.5m-50.5-1.5h50.5m-50.5-1.5h50.5m-50.5-1.5h50.5m-50.5-1.5h50.5m-50.5-1.5h50.5m-50.5-1.5h50.5m-50.5-1.5h50.5m-50.5 78.00001h50.5m-50.5-1.5h50.5m-50.5-1.50001h50.5m-50.5-1.5h50.5m-50.5-1.5h50.5m-50.5-1.5h50.5m-50.5-1.5h50.5m-50.5-1.5h50.5m-50.5-1.5h50.5m-50.5-1.5h50.5m-50.5-1.5h50.5m-50.5-1.5h50.5m-50.5-1.5h50.5m-50.5-1.5h50.5m-50.5-1.5h50.5m-50.5-1.5h50.5m-50.5-1.5h50.5m-50.5-1.5h50.5m-50.5-1.5h50.5m-50.5-1.5h50.5m-50.5-1.5h50.5m-50.5-1.5h50.5m-50.5-1.5h50.5m-50.5-1.5h50.5m-50.5-1.5h50.5m-50.5-1.5h50.5m-50.5-1.5h50.5m-50.5-1.5h50.5m-50.5-1.5h50.5m-50.5-1.5h50.5m-50.5-1.5h50.5m-50.5-1.5h50.5m-50.5-1.5h50.5m-50.5-1.5h50.5m-50.5-1.5h50.5m-50.5-1.5h50.5m-50.5-1.5h50.5m-50.5-1.5h50.5m-50.5-1.5h50.5m-50.5-1.5h50.5m-50.5-1.5h50.5m-50.5-1.5h50.5m-50.5-1.5h50.5m-50.75 63.00001v-78.00001h51v78.00001zm-50.99999-78.25001v78.50001m1.5-78.50001v78.50001m1.5-78.50001v78.50001m1.5-78.50001v78.50001m1.5-78.50001v78.50001m1.5-78.50001v78.50001m1.5-78.50001v78.50001m1.5-78.50001v78.50001m1.5-78.50001v78.50001m1.5-78.50001v78.50001m1.5-78.50001v78.50001m1.5-78.50001v78.50001m1.5-78.50001v78.50001m1.5-78.50001v78.50001m1.5-78.50001v78.50001m1.5-78.50001v78.50001m1.5-78.50001v78.50001m1.5-78.50001v78.50001m1.5-78.50001v78.50001m1.5-78.50001v78.50001m1.5-78.50001v78.50001m1.5-78.50001v78.50001m1.5-78.50001v78.50001m1.5-78.50001v78.50001m1.5-78.50001v78.50001m1.5-78.50001v78.50001m1.5-78.50001v78.50001m1.5-78.50001v78.50001m1.5-78.50001v78.50001m1.5-78.50001v78.50001m1.5-78.50001v78.50001m1.5-78.50001v78.50001m1.5-78.50001v78.50001m1.5-78.50001v78.50001m1.5-78.50001v78.50001m-50.75-64.75001h50.5m-50.5-1.5h50.5m-50.5-1.5h50.5m-50.5-1.5h50.5m-50.5-1.5h50.5m-50.5-1.5h50.5m-50.5-1.5h50.5m-50.5-1.5h50.5m-50.5-1.5h50.5m-50.5-1.5h50.5m-50.5 78.00001h50.5m-50.5-1.5h50.5m-50.5-1.50001h50.5m-50.5-1.5h50.5m-50.5-1.5h50.5m-50.5-1.5h50.5m-50.5-1.5h50.5m-50.5-1.5h50.5m-50.5-1.5h50.5m-50.5-1.5h50.5m-50.5-1.5h50.5m-50.5-1.5h50.5m-50.5-1.5h50.5m-50.5-1.5h50.5m-50.5-1.5h50.5m-50.5-1.5h50.5m-50.5-1.5h50.5m-50.5-1.5h50.5m-50.5-1.5h50.5m-50.5-1.5h50.5m-50.5-1.5h50.5m-50.5-1.5h50.5m-50.5-1.5h50.5m-50.5-1.5h50.5m-50.5-1.5h50.5m-50.5-1.5h50.5m-50.5-1.5h50.5m-50.5-1.5h50.5m-50.5-1.5h50.5m-50.5-1.5h50.5m-50.5-1.5h50.5m-50.5-1.5h50.5m-50.5-1.5h50.5m-50.5-1.5h50.5m-50.5-1.5h50.5m-50.5-1.5h50.5m-50.5-1.5h50.5m-50.5-1.5h50.5m-50.5-1.5h50.5m-50.5-1.5h50.5m-50.5-1.5h50.5m-50.5-1.5h50.5m-50.5-1.5h50.5m-50.75 63.00001v-78.00001h51v78.00001zm203.99999-.2497v78.499997m1.5-78.499997v78.499997m1.5-78.499997v78.499997m1.5-78.499997v78.499997m1.5-78.499997v78.499997m1.5-78.499997v78.499997m1.5-78.499997v78.499997m1.5-78.499997v78.499997m1.5-78.499997v78.499997m1.5-78.499997v78.499997m1.5-78.499997v78.499997m1.5-78.499997v78.499997m1.50001-78.499997v78.499997m1.5-78.499997v78.499997m1.5-78.499997v78.499997m1.5-78.499997v78.499997m1.5-78.499997v78.499997m1.5-78.499997v78.499997m1.5-78.499997v78.499997m1.5-78.499997v78.499997m1.5-78.499997v78.499997m1.5-78.499997v78.499997m1.5-78.499997v78.499997m1.5-78.499997v78.499997m1.5-78.499997v78.499997m1.5-78.499997v78.499997m1.5-78.499997v78.499997m1.5-78.499997v78.499997m1.5-78.499997v78.499997m1.5-78.499997v78.499997m1.5-78.499997v78.499997m1.5-78.499997v78.499997m1.5-78.499997v78.499997m1.5-78.499997v78.499997m1.5-78.499997v78.499997m-50.75001-64.749997h50.50001m-50.50001-1.5h50.50001m-50.50001-1.5h50.50001m-50.50001-1.5h50.50001m-50.50001-1.5h50.50001m-50.50001-1.5h50.50001m-50.50001-1.5h50.50001m-50.50001-1.5h50.50001m-50.50001-1.5h50.50001m-50.50001-1.5h50.50001m-50.50001 77.999997h50.50001m-50.50001-1.5h50.50001m-50.50001-1.5h50.50001m-50.50001-1.5h50.50001m-50.50001-1.5h50.50001m-50.50001-1.5h50.50001m-50.50001-1.5h50.50001m-50.50001-1.5h50.50001m-50.50001-1.5h50.50001m-50.50001-1.5h50.50001m-50.50001-1.5h50.50001m-50.50001-1.5h50.50001m-50.50001-1.5h50.50001m-50.50001-1.5h50.50001m-50.50001-1.5h50.50001m-50.50001-1.5h50.50001m-50.50001-1.5h50.50001m-50.50001-1.5h50.50001m-50.50001-1.5h50.50001m-50.50001-1.5h50.50001m-50.50001-1.5h50.50001m-50.50001-1.5h50.50001m-50.50001-1.499997h50.50001m-50.50001-1.5h50.50001m-50.50001-1.5h50.50001m-50.50001-1.5h50.50001m-50.50001-1.5h50.50001m-50.50001-1.5h50.50001m-50.50001-1.5h50.50001m-50.50001-1.5h50.50001m-50.50001-1.5h50.50001m-50.50001-1.5h50.50001m-50.50001-1.5h50.50001m-50.50001-1.5h50.50001m-50.50001-1.5h50.50001m-50.50001-1.5h50.50001m-50.50001-1.5h50.50001m-50.50001-1.5h50.50001m-50.50001-1.5h50.50001m-50.50001-1.5h50.50001m-50.50001-1.5h50.50001m-50.50001-1.5h50.50001m-50.50001-1.5h50.50001m-50.75001 62.999997v-77.999997h51.00001v77.999997zm-51-78.249997v78.499997m1.5-78.499997v78.499997m1.5-78.499997v78.499997m1.5-78.499997v78.499997m1.5-78.499997v78.499997m1.5-78.499997v78.499997m1.5-78.499997v78.499997m1.5-78.499997v78.499997m1.5-78.499997v78.499997m1.5-78.499997v78.499997m1.5-78.499997v78.499997m1.5-78.499997v78.499997m1.5-78.499997v78.499997m1.5-78.499997v78.499997m1.5-78.499997v78.499997m1.5-78.499997v78.499997m1.5-78.499997v78.499997m1.5-78.499997v78.499997m1.5-78.499997v78.499997m1.5-78.499997v78.499997m1.5-78.499997v78.499997m1.5-78.499997v78.499997m1.5-78.499997v78.499997m1.5-78.499997v78.499997m1.5-78.499997v78.499997m1.5-78.499997v78.499997m1.5-78.499997v78.499997m1.5-78.499997v78.499997m1.5-78.499997v78.499997m1.5-78.499997v78.499997m1.5-78.499997v78.499997m1.5-78.499997v78.499997m1.5-78.499997v78.499997m1.5-78.499997v78.499997m1.5-78.499997v78.499997m-50.75-64.749997h50.5m-50.5-1.5h50.5m-50.5-1.5h50.5m-50.5-1.5h50.5m-50.5-1.5h50.5m-50.5-1.5h50.5m-50.5-1.5h50.5m-50.5-1.5h50.5m-50.5-1.5h50.5m-50.5-1.5h50.5m-50.5 77.999997h50.5m-50.5-1.5h50.5m-50.5-1.5h50.5m-50.5-1.5h50.5m-50.5-1.5h50.5m-50.5-1.5h50.5m-50.5-1.5h50.5m-50.5-1.5h50.5m-50.5-1.5h50.5m-50.5-1.5h50.5m-50.5-1.5h50.5m-50.5-1.5h50.5m-50.5-1.5h50.5m-50.5-1.5h50.5m-50.5-1.5h50.5m-50.5-1.5h50.5m-50.5-1.5h50.5m-50.5-1.5h50.5m-50.5-1.5h50.5m-50.5-1.5h50.5m-50.5-1.5h50.5m-50.5-1.5h50.5m-50.5-1.499997h50.5m-50.5-1.5h50.5m-50.5-1.5h50.5m-50.5-1.5h50.5m-50.5-1.5h50.5m-50.5-1.5h50.5m-50.5-1.5h50.5m-50.5-1.5h50.5m-50.5-1.5h50.5m-50.5-1.5h50.5m-50.5-1.5h50.5m-50.5-1.5h50.5m-50.5-1.5h50.5m-50.5-1.5h50.5m-50.5-1.5h50.5m-50.5-1.5h50.5m-50.5-1.5h50.5m-50.5-1.5h50.5m-50.5-1.5h50.5m-50.5-1.5h50.5m-50.5-1.5h50.5m-50.75 62.999997v-77.999997h51v77.999997zm-51-78.249997v78.499997m1.5-78.499997v78.499997m1.5-78.499997v78.499997m1.5-78.499997v78.499997m1.5-78.499997v78.499997m1.5-78.499997v78.499997m1.5-78.499997v78.499997m1.5-78.499997v78.499997m1.5-78.499997v78.499997m1.5-78.499997v78.499997m1.5-78.499997v78.499997m1.5-78.499997v78.499997m1.5-78.499997v78.499997m1.5-78.499997v78.499997m1.5-78.499997v78.499997m1.5-78.499997v78.499997m1.5-78.499997v78.499997m1.5-78.499997v78.499997m1.5-78.499997v78.499997m1.5-78.499997v78.499997m1.5-78.499997v78.499997m1.5-78.499997v78.499997m1.5-78.499997v78.499997m1.5-78.499997v78.499997m1.5-78.499997v78.499997m1.5-78.499997v78.499997m1.5-78.499997v78.499997m1.5-78.499997v78.499997m1.5-78.499997v78.499997m1.5-78.499997v78.499997m1.5-78.499997v78.499997m1.5-78.499997v78.499997m1.5-78.499997v78.499997m1.5-78.499997v78.499997m1.5-78.499997v78.499997m-50.75-64.749997h50.5m-50.5-1.5h50.5m-50.5-1.5h50.5m-50.5-1.5h50.5m-50.5-1.5h50.5m-50.5-1.5h50.5m-50.5-1.5h50.5m-50.5-1.5h50.5m-50.5-1.5h50.5m-50.5-1.5h50.5m-50.5 77.999997h50.5m-50.5-1.5h50.5m-50.5-1.5h50.5m-50.5-1.5h50.5m-50.5-1.5h50.5m-50.5-1.5h50.5m-50.5-1.5h50.5m-50.5-1.5h50.5m-50.5-1.5h50.5m-50.5-1.5h50.5m-50.5-1.5h50.5m-50.5-1.5h50.5m-50.5-1.5h50.5m-50.5-1.5h50.5m-50.5-1.5h50.5m-50.5-1.5h50.5m-50.5-1.5h50.5m-50.5-1.5h50.5m-50.5-1.5h50.5m-50.5-1.5h50.5m-50.5-1.5h50.5m-50.5-1.5h50.5m-50.5-1.499997h50.5m-50.5-1.5h50.5m-50.5-1.5h50.5m-50.5-1.5h50.5m-50.5-1.5h50.5m-50.5-1.5h50.5m-50.5-1.5h50.5m-50.5-1.5h50.5m-50.5-1.5h50.5m-50.5-1.5h50.5m-50.5-1.5h50.5m-50.5-1.5h50.5m-50.5-1.5h50.5m-50.5-1.5h50.5m-50.5-1.5h50.5m-50.5-1.5h50.5m-50.5-1.5h50.5m-50.5-1.5h50.5m-50.5-1.5h50.5m-50.5-1.5h50.5m-50.5-1.5h50.5m-50.75 62.999997v-77.999997h51v77.999997zm-51-78.249997v78.499997m1.5-78.499997v78.499997m1.5-78.499997v78.499997m1.5-78.499997v78.499997m1.5-78.499997v78.499997m1.5-78.499997v78.499997m1.5-78.499997v78.499997m1.5-78.499997v78.499997m1.5-78.499997v78.499997m1.5-78.499997v78.499997m1.5-78.499997v78.499997m1.5-78.499997v78.499997m1.5-78.499997v78.499997m1.5-78.499997v78.499997m1.5-78.499997v78.499997m1.5-78.499997v78.499997m1.5-78.499997v78.499997m1.5-78.499997v78.499997m1.5-78.499997v78.499997m1.5-78.499997v78.499997m1.5-78.499997v78.499997m1.5-78.499997v78.499997m1.5-78.499997v78.499997m1.5-78.499997v78.499997m1.5-78.499997v78.499997m1.5-78.499997v78.499997m1.5-78.499997v78.499997m1.5-78.499997v78.499997m1.5-78.499997v78.499997m1.5-78.499997v78.499997m1.5-78.499997v78.499997m1.5-78.499997v78.499997m1.5-78.499997v78.499997m1.5-78.499997v78.499997m1.5-78.499997v78.499997m-50.75-64.749997h50.5m-50.5-1.5h50.5m-50.5-1.5h50.5m-50.5-1.5h50.5m-50.5-1.5h50.5m-50.5-1.5h50.5m-50.5-1.5h50.5m-50.5-1.5h50.5m-50.5-1.5h50.5m-50.5-1.5h50.5m-50.5 77.999997h50.5m-50.5-1.5h50.5m-50.5-1.5h50.5m-50.5-1.5h50.5m-50.5-1.5h50.5m-50.5-1.5h50.5m-50.5-1.5h50.5m-50.5-1.5h50.5m-50.5-1.5h50.5m-50.5-1.5h50.5m-50.5-1.5h50.5m-50.5-1.5h50.5m-50.5-1.5h50.5m-50.5-1.5h50.5m-50.5-1.5h50.5m-50.5-1.5h50.5m-50.5-1.5h50.5m-50.5-1.5h50.5m-50.5-1.5h50.5m-50.5-1.5h50.5m-50.5-1.5h50.5m-50.5-1.5h50.5m-50.5-1.499997h50.5m-50.5-1.5h50.5m-50.5-1.5h50.5m-50.5-1.5h50.5m-50.5-1.5h50.5m-50.5-1.5h50.5m-50.5-1.5h50.5m-50.5-1.5h50.5m-50.5-1.5h50.5m-50.5-1.5h50.5m-50.5-1.5h50.5m-50.5-1.5h50.5m-50.5-1.5h50.5m-50.5-1.5h50.5m-50.5-1.5h50.5m-50.5-1.5h50.5m-50.5-1.5h50.5m-50.5-1.5h50.5m-50.5-1.5h50.5m-50.5-1.5h50.5m-50.5-1.5h50.5m-50.75 62.999997v-77.999997h51v77.999997zm-50.99999-78.249997v78.499997m1.5-78.499997v78.499997m1.5-78.499997v78.499997m1.5-78.499997v78.499997m1.5-78.499997v78.499997m1.5-78.499997v78.499997m1.5-78.499997v78.499997m1.5-78.499997v78.499997m1.5-78.499997v78.499997m1.5-78.499997v78.499997m1.5-78.499997v78.499997m1.5-78.499997v78.499997m1.5-78.499997v78.499997m1.5-78.499997v78.499997m1.5-78.499997v78.499997m1.5-78.499997v78.499997m1.5-78.499997v78.499997m1.5-78.499997v78.499997m1.5-78.499997v78.499997m1.5-78.499997v78.499997m1.5-78.499997v78.499997m1.5-78.499997v78.499997m1.5-78.499997v78.499997m1.5-78.499997v78.499997m1.5-78.499997v78.499997m1.5-78.499997v78.499997m1.5-78.499997v78.499997m1.5-78.499997v78.499997m1.5-78.499997v78.499997m1.5-78.499997v78.499997m1.5-78.499997v78.499997m1.5-78.499997v78.499997m1.5-78.499997v78.499997m1.5-78.499997v78.499997m1.5-78.499997v78.499997m-50.75-64.749997h50.5m-50.5-1.5h50.5m-50.5-1.5h50.5m-50.5-1.5h50.5m-50.5-1.5h50.5m-50.5-1.5h50.5m-50.5-1.5h50.5m-50.5-1.5h50.5m-50.5-1.5h50.5m-50.5-1.5h50.5m-50.5 77.999997h50.5m-50.5-1.5h50.5m-50.5-1.5h50.5m-50.5-1.5h50.5m-50.5-1.5h50.5m-50.5-1.5h50.5m-50.5-1.5h50.5m-50.5-1.5h50.5m-50.5-1.5h50.5m-50.5-1.5h50.5m-50.5-1.5h50.5m-50.5-1.5h50.5m-50.5-1.5h50.5m-50.5-1.5h50.5m-50.5-1.5h50.5m-50.5-1.5h50.5m-50.5-1.5h50.5m-50.5-1.5h50.5m-50.5-1.5h50.5m-50.5-1.5h50.5m-50.5-1.5h50.5m-50.5-1.5h50.5m-50.5-1.499997h50.5m-50.5-1.5h50.5m-50.5-1.5h50.5m-50.5-1.5h50.5m-50.5-1.5h50.5m-50.5-1.5h50.5m-50.5-1.5h50.5m-50.5-1.5h50.5m-50.5-1.5h50.5m-50.5-1.5h50.5m-50.5-1.5h50.5m-50.5-1.5h50.5m-50.5-1.5h50.5m-50.5-1.5h50.5m-50.5-1.5h50.5m-50.5-1.5h50.5m-50.5-1.5h50.5m-50.5-1.5h50.5m-50.5-1.5h50.5m-50.5-1.5h50.5m-50.5-1.5h50.5m-50.75 62.999997v-77.999997h51v77.999997z" style="fill:#4d4d4d;fill-rule:evenodd;stroke:#575d5e;stroke-width:.5;shape-rendering:crispEdges;clip-path:url(#clipPath5212)" transform="translate(216.5 240.41183)"/><rect id="rect5464" fill="none" height="76.800003" stroke="#fff" stroke-linecap="round" stroke-linejoin="round" stroke-width=".49999997" width="276" x="326.5" y="63.999973"/></g><g id="operationGroup"><rect id="rect6193" fill="#575d5e" height="43.75" overflow="visible" stroke="#333" stroke-width=".80000001" width="276" x="326.5" y="371.25"/><circle id="path6197" cx="550.90002" cy="393.125" fill="none" overflow="visible" r="8.4978285" stroke="#333" stroke-width="1.00434327"/><ellipse id="path6199" cx="583.59998" cy="393.125" fill="#f9f9f9" overflow="visible" rx="7.1916032" ry="7.1916022" stroke="#333" stroke-width=".61679381"/><rect id="rect5551" fill="#f9f9f9" height="15" stroke="#ccc" stroke-linecap="round" stroke-linejoin="round" width="15" x="505.2998" y="385.625"/></g></g></svg>