<svg id="svg2" height="662.79999" overflow="visible" viewBox="0 0 50.799999 662.79999" width="50.799999" xmlns="http://www.w3.org/2000/svg"><g id="layer1" stroke-width=".80000001"><rect id="breaker" fill="#87cefa" fill-rule="evenodd" height="662" stroke="#000" stroke-linecap="square" width="50"/><g id="gripsRight" fill="#a9a9a9" stroke="#000" stroke-linecap="square"><rect id="grip3Right" height="74" width="4.8000002" x="43.200001" y="468"/><rect id="grip2Right" height="74" width="4.8000002" x="43.200001" y="99.999985"/><rect id="grip1Right" height="74" width="4.8000002" x="43.200001" y="284"/></g><g id="grip3" fill="#a9a9a9" stroke="#000" stroke-linecap="square"><rect id="grip3Left" height="74" width="4.8000002" x="2" y="468"/><rect id="grip3Bottom" height="28" width="46" x="2" y="542"/><rect id="grip3Top" height="18" width="46" x="2" y="450"/></g><g id="grip2" fill="#a9a9a9" stroke="#000" stroke-linecap="square"><rect id="grip2Left" height="74" width="4.8000002" x="2" y="99.999985"/><rect id="grip2Bottom" height="28" width="46" x="2" y="173.99998"/><rect id="grip2Top" height="18" width="46" x="2" y="81.999985"/></g><g id="grip1" fill="#a9a9a9" stroke="#000" stroke-linecap="square"><rect id="grip1left" height="74" width="4.8000002" x="2" y="284"/><rect id="grip1Bottom" height="28" width="46" x="2" y="358"/><rect id="grip1Top" height="18" width="46" x="2" y="266"/></g><g id="description"><rect id="breaker-2" fill="#f00" fill-rule="evenodd" height="10" stroke="#000" stroke-linecap="square" width="50" y="-.00001285"/><text id="text4456" font-family="sans-serif" font-size="6.25" font-weight="bold" letter-spacing="0" line-height="125%" word-spacing="0" x="17.199707" xml:space="preserve" y="7.3437371"><tspan id="tspan4458" stroke-width=".80000001" x="17.199707" y="7.3437371">Efen</tspan></text></g><g id="fuseSize"><rect id="breaker-2-5" fill="#fff" fill-rule="evenodd" height="10" stroke="#000" stroke-linecap="square" width="50" y="652"/><text id="fuseText" font-family="sans-serif" font-size="6.25" font-weight="bold" letter-spacing="0" line-height="125%" word-spacing="0" x="15.170288" xml:space="preserve" y="659.27051"><tspan id="tspan4519" stroke-width=".80000001" x="15.170288" y="659.27051">NH00</tspan></text><rect id="rect4163" fill="#fff" fill-rule="evenodd" height="18" stroke="#000" stroke-linecap="square" width="50" y="619.39996"/><text id="textBottom" font-family="sans-serif" font-size="6.25" font-weight="bold" letter-spacing="0" line-height="125%" word-spacing="0" x=".78341794" xml:space="preserve" y="634.26245"><tspan id="tspan4167" font-family="ABBvoice" font-size="17.5" font-weight="bold" stroke-width=".80000001" x=".78341794" y="634.26245">NH00</tspan></text></g><text id="pointText" font-family="sans-serif" font-size="17.5" letter-spacing="0" line-height="125%" transform="rotate(90)" word-spacing="0" x="296.61517" xml:space="preserve" y="-18.749388"><tspan id="tspan4155" stroke-width=".80000001" x="296.61517" y="-18.749388">Text</tspan></text></g></svg>