<svg id="svg2" height="662.79999" overflow="visible" viewBox="0 0 100.8 662.79999" width="100.8" xmlns="http://www.w3.org/2000/svg"><g id="layer1"><rect id="breaker" fill="#87cefa" fill-rule="evenodd" height="662" stroke="#000" stroke-linecap="square" stroke-width=".80000001" width="100" y="-.00001351"/><g id="gripsRight" fill="#a9a9a9" stroke="#000" stroke-linecap="square" stroke-width=".80000001"><rect id="grip3Right" height="74" width="4.8000002" x="93.199997" y="468"/><rect id="grip2Right" height="74" width="4.8000002" x="93.199997" y="99.999985"/><rect id="grip1Right" height="74" width="4.8000002" x="93.199997" y="284"/></g><g id="grip3" fill="#a9a9a9" stroke="#000" stroke-linecap="square" stroke-width=".80000001"><rect id="grip3Left" height="74" width="4.8000002" x="2" y="468"/><rect id="grip3Bottom" height="28" width="96" x="2" y="542"/><rect id="grip3Top" height="18" width="96" x="2" y="450"/></g><g id="grip2" fill="#a9a9a9" stroke="#000" stroke-linecap="square" stroke-width=".80000001"><rect id="grip2Left" height="74" width="4.8000002" x="2" y="99.999985"/><rect id="grip2Bottom" height="28" width="96" x="2" y="173.99998"/><rect id="grip2Top" height="18" width="96" x="2" y="81.999985"/></g><g id="grip1" fill="#a9a9a9" stroke="#000" stroke-linecap="square" stroke-width=".80000001"><rect id="grip1left" height="74" width="4.8000002" x="2" y="284"/><rect id="grip1Bottom" height="28" width="96" x="2" y="358"/><rect id="grip1Top" height="18" width="96" x="2" y="266"/></g><g id="description"><rect id="breaker-2" fill="#f00" fill-rule="evenodd" height="10" stroke="#000" stroke-linecap="square" stroke-width=".80000001" width="50" x="25" y="-.0000135"/><text id="text4456" font-family="sans-serif" font-size="6.25" font-weight="bold" letter-spacing="0" line-height="125%" word-spacing="0" x="42.199707" xml:space="preserve" y="7.3437366"><tspan id="tspan4458" x="42.199707" y="7.3437366">Efen</tspan></text></g><g id="fuseSize"><rect id="breaker-2-5" fill="#fff" fill-rule="evenodd" height="10" stroke="#000" stroke-linecap="square" stroke-width=".80000001" width="100" y="652"/><text id="fuseText" font-family="sans-serif" font-size="6.25" font-weight="bold" letter-spacing="0" line-height="125%" word-spacing="0" x="40.170288" xml:space="preserve" y="659.27051"><tspan id="tspan4519" x="40.170288" y="659.27051">NH00</tspan></text><rect id="rect4163" fill="#fff" fill-rule="evenodd" height="18" stroke="#000" stroke-linecap="square" stroke-width=".80000001" width="100" y="619.39996"/><text id="textBottom" font-family="sans-serif" font-size="6.25" font-weight="bold" letter-spacing="0" line-height="125%" word-spacing="0" x="25.783419" xml:space="preserve" y="634.26245"><tspan id="tspan4167" font-family="ABBvoice" font-size="17.5" font-weight="bold" x="25.783419" y="634.26245">NH00</tspan></text></g><text id="pointText" font-family="sans-serif" font-size="17.5" letter-spacing="0" line-height="125%" transform="rotate(90)" word-spacing="0" x="295.6152" xml:space="preserve" y="-41.638657"><tspan id="tspan4155" x="295.6152" y="-41.638657">Text</tspan></text></g></svg>