<svg id="svg2" height="100" viewBox="0 0 1099 100" width="1099" overflow="visible" xmlns="http://www.w3.org/2000/svg"><g id="layer1" stroke="#000"><g id="middlePart" fill="#c0c0c0" fill-rule="evenodd" stroke-width="2"><rect id="rect3338" height="100" width="200" x="449.5"/><rect id="rect4227" height="10" width="5" x="495.5"/><rect id="rect4229" height="10" width="5" x="601.5"/><rect id="rect4231" height="10" width="5" x="495.5" y="90"/><rect id="rect4233" height="10" width="5" x="601.5" y="90"/></g><g id="cornerLeft" fill-rule="evenodd" stroke-linejoin="round"><path id="path4153" d="m100 0l-17.5 17.5v65l17.5 17.5z" fill="#c0c0c0" stroke-width="2"/><path id="path4190" d="m17.5 17.5h65l17.5-17.5h-100z" fill="#c0c0c0" stroke-width="2.00002"/><path id="path4192" d="m0 100h100l-17.5-17.5h-65z" fill="#c0c0c0" stroke-linecap="round" stroke-width="2"/><path id="path4194" d="m0 0v100l17.5-17.5v-65z" fill="#c0c0c0" stroke-width="2"/><circle id="circle4174" cx="30" cy="89" fill="#e0e0e0" r="3.5" stroke-linecap="round"/><circle id="circle4172" cx="70" cy="89" fill="#e0e0e0" r="3.5" stroke-linecap="round"/><circle id="circle4168" cx="70" cy="11" fill="#e0e0e0" r="3.5" stroke-linecap="round"/><circle id="circle4170" cx="30" cy="11" fill="#e0e0e0" r="3.5" stroke-linecap="round"/><circle id="circle4166" cx="89" cy="70" fill="#e0e0e0" r="3.5" stroke-linecap="round"/><circle id="circle4164" cx="89" cy="30" fill="#e0e0e0" r="3.5" stroke-linecap="round"/><circle id="circle4162" cx="89" cy="50" fill="#e0e0e0" r="2.7" stroke-linecap="round"/><circle id="circle4158" cx="11" cy="50" fill="#e0e0e0" r="3.5" stroke-linecap="round"/></g><rect id="coverCornerLeft" fill="#c0c0c0" fill-rule="evenodd" height="100" stroke-width="2" width="100"/><g id="cornerRight" fill-rule="evenodd" stroke-linejoin="round"><path id="path4230" d="m1099 0l-17.5 17.5v65l17.5 17.5z" fill="#c0c0c0" stroke-width="2"/><path id="path4232" d="m1016.5 17.5h65l17.5-17.5h-100z" fill="#c0c0c0" stroke-width="2.00002"/><path id="path4234" d="m999 100h100l-17.5-17.5h-65z" fill="#c0c0c0" stroke-linecap="round" stroke-width="2"/><path id="path4236" d="m999 0v100l17.5-17.5v-65z" fill="#c0c0c0" stroke-width="2"/><circle id="circle4193" cx="1088" cy="50" fill="#e0e0e0" r="3.5" stroke-linecap="round"/><circle id="circle4203" cx="1069" cy="89" fill="#e0e0e0" r="3.5" stroke-linecap="round"/><circle id="circle4205" cx="1029" cy="89" fill="#e0e0e0" r="3.5" stroke-linecap="round"/><circle id="circle4201" cx="1029" cy="11" fill="#e0e0e0" r="3.5" stroke-linecap="round"/><circle id="circle4199" cx="1069" cy="11" fill="#e0e0e0" r="3.5" stroke-linecap="round"/><circle id="circle4197" cx="1010" cy="70" fill="#e0e0e0" r="3.5" stroke-linecap="round"/><circle id="circle4195" cx="1010" cy="30" fill="#e0e0e0" r="3.5" stroke-linecap="round"/><circle id="circle4191" cx="1010" cy="50" fill="#e0e0e0" r="2.7" stroke-linecap="round"/></g><rect id="coverCornerRight" fill="#c0c0c0" fill-rule="evenodd" height="100" stroke-width="2" width="100" x="999"/><rect id="frontCover" fill="#575d5e" fill-rule="evenodd" height="100" stroke-width="2" width="1099"/><g id="screwML" fill-rule="evenodd" stroke-linecap="round" stroke-linejoin="round"><circle id="circle4208" cx="463.19" cy="50" fill="#ebebeb" r="6.5601001"/><path id="path4210" d="m465.21 53.651l-1.96-1.936-2.01 2.008-1.77-1.758 2-1.993-2-1.977 1.73-1.718 1.97 1.972 1.97-1.944 1.72 1.741-1.91 1.929 1.96 1.958z" fill="#c0c0c0"/></g><g id="screwMR" fill-rule="evenodd" stroke-linecap="round" stroke-linejoin="round"><circle id="circle4214" cx="635.56" cy="50" fill="#ebebeb" r="6.5601001"/><path id="path4216" d="m637.58 53.651l-1.96-1.936-2.01 2.008-1.77-1.758 2-1.993-2-1.977 1.73-1.718 1.97 1.972 1.97-1.944 1.72 1.741-1.91 1.929 1.96 1.958z" fill="#c0c0c0"/></g><path id="middleLine" d="m549.5-.00001v100.00001" fill="none" stroke-width="2"/><g id="screwLeft" fill-rule="evenodd" stroke-linecap="round" stroke-linejoin="round"><circle id="path4176-6" cx="89.06" cy="50.06" fill="#ebebeb" r="6.5601"/><path id="path4192-7" d="m91.078 53.711l-1.96-1.936-2.009 2.008-1.766-1.758 2.002-1.993-2.008-1.977 1.739-1.718 1.962 1.972 1.974-1.944 1.715 1.741-1.905 1.929 1.961 1.958z" fill="#c0c0c0"/></g><g id="screwRight" fill-rule="evenodd" stroke-linecap="round" stroke-linejoin="round"><circle id="circle4202" cx="1010" cy="50.06" fill="#ebebeb" r="6.5601"/><path id="path4204" d="m1012 53.711l-1.9-1.936-2.1 2.008-1.7-1.758 2-1.993-2-1.977 1.7-1.718 2 1.972 2-1.944 1.7 1.741-1.9 1.929 1.9 1.958z" fill="#c0c0c0"/></g></g></svg>