<svg id="svg4171" height="50.799999" overflow="visible" viewBox="0 0 590.79999 50.799999" width="590.79999" xmlns="http://www.w3.org/2000/svg"><g id="layer1"><rect id="rect4170" fill="#575d5e" height="50" stroke="#000" stroke-linejoin="round" stroke-width=".80000001" width="590"/><path id="path4231" d="m553.50001 49.499999v-48.99999977" fill="none" stroke="#363636" stroke-width=".80000001"/><path id="rect4517" d="m500.5 5.9999992h30v2h-30zm-412.60736 0h47v1.99999h-47zm51.65866 0h47v1.99999h-47zm51.65863 0h47v1.99999h-47zm51.65866 0h47v1.99999h-47zm51.65863 0h47v1.99999h-47zm51.65863 0h47v1.99999h-47zm51.65863 0h47v1.99999h-47zm51.65863 0h47v1.99999h-47zm-395.00311 0h30v2h-30zm446 5.9999998h30v2h-30zm-412.60736 0h47v1.99999h-47zm51.65866 0h47v1.99999h-47zm51.65863 0h47v1.99999h-47zm51.65866 0h47v1.99999h-47zm51.65863 0h47v1.99999h-47zm51.65863 0h47v1.99999h-47zm51.65863 0h47v1.99999h-47zm51.65863 0h47v1.99999h-47zm-395.00311 0h30v2h-30zm446 6h30v2h-30zm-412.60736 0h47v1.99999h-47zm51.65866 0h47v1.99999h-47zm51.65863 0h47v1.99999h-47zm51.65866 0h47v1.99999h-47zm51.65863 0h47v1.99999h-47zm51.65863 0h47v1.99999h-47zm51.65863 0h47v1.99999h-47zm51.65863 0h47v1.99999h-47zm-395.00311 0h30v2h-30zm446 6h30v2h-30zm-412.60736 0h47v1.99999h-47zm51.65866 0h47v1.99999h-47zm51.65863 0h47v1.99999h-47zm51.65866 0h47v1.99999h-47zm51.65863 0h47v1.99999h-47zm51.65863 0h47v1.99999h-47zm51.65863 0h47v1.99999h-47zm51.65863 0h47v1.99999h-47zm-395.00311 0h30v2h-30zm446 6h30v2h-30zm-412.60736 0h47v1.99999h-47zm51.65866 0h47v1.99999h-47zm51.65863 0h47v1.99999h-47zm51.65866 0h47v1.99999h-47zm51.65863 0h47v1.99999h-47zm51.65863 0h47v1.99999h-47zm51.65863 0h47v1.99999h-47zm51.65863 0h47v1.99999h-47zm-395.00311 0h30v2h-30zm446 6h30v2h-30zm-412.60736 0h47v1.99999h-47zm51.65866 0h47v1.99999h-47zm51.65863 0h47v1.99999h-47zm51.65866 0h47v1.99999h-47zm51.65863 0h47v1.99999h-47zm51.65863 0h47v1.99999h-47zm51.65863 0h47v1.99999h-47zm51.65863 0h47v1.99999h-47zm-395.00311 0h30v2h-30zm446 6h30v2h-30zm-412.60736 0h47v1.99999h-47zm51.65866 0h47v1.99999h-47zm51.65863 0h47v1.99999h-47zm51.65866 0h47v1.99999h-47zm51.65863 0h47v1.99999h-47zm51.65863 0h47v1.99999h-47zm51.65863 0h47v1.99999h-47zm51.65863 0h47v1.99999h-47zm-395.00311 0h30v2h-30z" fill="#444548" stroke="#353535" stroke-linejoin="bevel" stroke-width=".5"/><path id="circle4943" d="m25 24.999999a7.5000005 7.5000005 0 0 1 -7.5 7.5 7.5000005 7.5000005 0 0 1 -7.5-7.5 7.5000005 7.5000005 0 0 1  7.5-7.5 7.5000005 7.5000005 0 0 1  7.5 7.5zm554.5 0a7.5000005 7.5000005 0 0 1 -7.5 7.5 7.5000005 7.5000005 0 0 1 -7.5-7.5 7.5000005 7.5000005 0 0 1  7.5-7.5 7.5000005 7.5000005 0 0 1  7.5 7.5z" fill="#454649" stroke="#363636" stroke-linejoin="bevel" stroke-width=".80000001"/><path id="circle4945" d="m21 24.999999a3.5 3.5 0 0 1 -3.5 3.5 3.5 3.5 0 0 1 -3.5-3.5 3.5 3.5 0 0 1  3.5-3.5 3.5 3.5 0 0 1  3.5 3.5zm554.5 0a3.5 3.5 0 0 1 -3.5 3.5 3.5 3.5 0 0 1 -3.5-3.5 3.5 3.5 0 0 1  3.5-3.5 3.5 3.5 0 0 1  3.5 3.5z" fill="#ecedee" stroke-width=".80000001"/></g></svg>