<svg id="svg2" height="2205" overflow="visible" viewBox="0 0 1095 2205" width="1095" xmlns="http://www.w3.org/2000/svg"><g id="layer1"><g id="shutter" fill="#575d5e" fill-opacity=".80000001" stroke="#000" stroke-linecap="round"><path id="shutter2200" d="m0 0v2204h500.00004v-2204zm109.40039 89h281.19925v2026h-281.19925z"/><path id="shutter2100" d="m0 0v2104h500.00004v-2104zm109.40039 89h281.19925v1926h-281.19925z"/><path id="shutter1900" d="m0 0v1904h500.00004v-1904zm109.40039 89h281.19925v1726h-281.19925z"/></g><g id="door1100" fill="#575d5e" fill-opacity=".80000001" fill-rule="evenodd" stroke="#000"><path id="door1100x1900" d="m0 0v1904h1094v-1904zm109.5 89h875v1726h-875z"/><path id="door1100x2100" d="m0 0v2104h1094v-2104zm109.5 89h875v1926h-875z"/><path id="door1100x2200" d="m0 0v2204h1094v-2204zm109.5 89h875v2026h-875z"/></g><g id="door850" fill="#575d5e" fill-opacity=".80000001" fill-rule="evenodd" stroke="#000"><path id="door850x1900" d="m0 0v1904h844v-1904zm109.5 89h625v1726h-625z"/><path id="door850x2100" d="m0 0v2104h844v-2104zm109.5 89h625v1926h-625z"/><path id="door850x2200" d="m0 0v2204h844v-2204zm109.5 89h625v2026h-625z"/></g><g id="door600" fill="#575d5e" fill-opacity=".80000001" fill-rule="evenodd" stroke="#000"><path id="door600x1900" d="m0 0v1904h594v-1904zm109.5 89h375v1726h-375z"/><path id="door600x2100" d="m0 0v2104h594v-2104zm109.5 89h375v1926h-375z"/><path id="door600x2200" d="m0 0v2204h594v-2204zm109.5 89h375v2026h-375z"/></g><path id="imageABB" d="m1044.5 1073.0185l-14.7001-3.935v8.129h14.7001zm0 4.794h-14.7001v8.1295l14.7001-3.9345zm0 16.8h-14.7001v8.7h14.7001zm0 9.3h-14.7001v9.1075a9.000026 9.000026 0 0 0 2.0666-3.1145 6.7500195 6.7500195 0 0 0  5.8836 3.458 6.7500195 6.7500195 0 0 0  6.7499-6.7505 6.7500195 6.7500195 0 0 0  0-.0005zm0 14.1h-14.7001v8.7h14.7001zm0 9.3h-14.7001v9.1075a9.000026 9.000026 0 0 0 2.0666-3.1145 6.7500195 6.7500195 0 0 0  5.8836 3.458 6.7500195 6.7500195 0 0 0  6.7499-6.7505v-2.6995zm-15.2999-58.3895l-14.7001-3.9355v7.5l6.0001 1.59v3.135h8.7zm0 8.8895h-8.7v3.1355l-6.0001 1.5895v7.5l14.7001-3.9345zm0 16.8h-14.7001v8.7h14.7001zm0 9.3h-14.7001v2.7a9.000026 9.000026 0 0 0 9.0001 9 9.000026 9.000026 0 0 0  5.7-2.0505v-9.65zm0 14.1h-14.7001v8.7h14.7001zm0 9.3h-14.7001v2.7a9.000026 9.000026 0 0 0 9.0001 9 9.000026 9.000026 0 0 0  5.7-2.05v-9.6505z" fill="#c5c7c4" overflow="visible"/><g id="gripStrip"><rect id="gripBase" fill="#c5c7c4" fill-rule="evenodd" height="2200" stroke="#000" stroke-width=".99999994" width="74.400002" y="2"/><rect id="gripPane" fill="#c5c7c4" fill-rule="evenodd" height="2200" stroke="#000" stroke-width=".99999994" width="41.599998" x="4.6999998" y="2"/><g id="gripSwivel"><rect id="rect4174-1" fill="#575d5e" height="230" rx="5" stroke="#4d4d4d" stroke-linecap="round" stroke-linejoin="round" stroke-width=".5" width="36" x="7.4999986" y="987"/><rect id="rect4176-6" fill="none" height="227" rx="3.5" stroke="#4d4d4d" stroke-linecap="round" stroke-linejoin="round" stroke-width=".5" width="33" x="9.000001" y="988.5"/><path id="path4188-4" d="m16.805399 999.09998l-1.1805 4.41002h2.4388v-4.41002zm1.4383 0v4.41002h2.4388l-1.1804-4.41002zm5.04 0v4.41002h2.61v-4.41002zm2.79 0v4.41002h2.7322a2.7000007 2.7000007 0 0 0 -.9343-.62 2.0250006 2.0250006 0 0 0  1.0373-1.7651 2.0250006 2.0250006 0 0 0 -2.0251-2.02492 2.0250006 2.0250006 0 0 0 -.0001 0zm4.23 0v4.41002h2.61v-4.41002zm2.79 0v4.41002h2.7322a2.7000007 2.7000007 0 0 0 -.9343-.62 2.0250006 2.0250006 0 0 0  1.0373-1.7651 2.0250006 2.0250006 0 0 0 -2.0251-2.02492 2.0250006 2.0250006 0 0 0 -.0001 0zm-17.517 4.59002l-1.1805 4.41h2.25l.4771-1.8h.9404v-2.61zm2.667 0v2.61h.9405l.4769 1.8h2.25l-1.1804-4.41zm5.04 0v4.41h2.61v-4.41zm2.79 0v4.41h.81a2.7000007 2.7000007 0 0 0  .0001 0 2.7000007 2.7000007 0 0 0  2.7-2.7 2.7000007 2.7000007 0 0 0 -.6151-1.71zm4.23 0v4.41h2.61v-4.41zm2.79 0v4.41h.81a2.7000007 2.7000007 0 0 0  .0001 0 2.7000007 2.7000007 0 0 0  2.7-2.7 2.7000007 2.7000007 0 0 0 -.6151-1.71z" fill="#333"/><rect id="gripBase-18-0" fill="#e0e0e0" fill-rule="evenodd" height="140" rx="4" stroke="#1a1a1a" width="24" x="13.500001" y="1019.3893"/><g id="g4297" stroke="#4d4d4d" stroke-width=".5"><circle id="circle4180-3" cx="25.5" cy="1187.8893" fill="#575d5e" r="11.75" stroke-linecap="round" stroke-linejoin="round"/><circle id="circle4182-8" cx="25.5" cy="1187.8893" fill="#999" r="8.6000004" stroke-linecap="round" stroke-linejoin="round"/><path id="path4679-1" d="m21.235799 1187.8893c0 1.9673 1.378 3.6722 3.3166 4.1094v4.454h1.8952v-4.4558c1.938-.437 3.3138-2.1409 3.3167-4.1076 0-1.9674-1.3781-3.6723-3.3167-4.1094v-4.454h-1.8948v4.4558c-1.9379.4371-3.3141 2.1409-3.317 4.1076z" fill="#808080" overflow="visible" stroke-linejoin="round"/><circle id="circle4681-9" cx="-1187.8893" cy="25.500122" fill="#999" overflow="visible" r="1.5" transform="rotate(-90)"/></g></g></g></g></svg>