<svg id="svg4168" height="600" overflow="visible" viewBox="0 0 600 600" width="600" xmlns="http://www.w3.org/2000/svg"><g id="layer1" fill-rule="evenodd" stroke="#000" stroke-linecap="round" stroke-linejoin="round"><rect id="blindPanel" fill="#c5c7c4" height="599" width="599"/><g id="screwLT"><circle id="path4176-6" cx="28.5" cy="28.5" fill="#ebebeb" r="6.5" stroke-width=".80000001"/><path id="path4192-7" d="m30.518 32.151l-1.96-1.936-2.009 2.008-1.766-1.758 2.002-1.993-2.008-1.977 1.739-1.718 1.962 1.972 1.974-1.944 1.715 1.741-1.905 1.929 1.961 1.958z" fill="#c0c0c0" stroke-width=".5"/></g><g id="screwRT"><circle id="circle4169" cx="570.5" cy="28.5" fill="#ebebeb" r="6.5" stroke-width=".80000001"/><path id="path4171" d="m572.5 32.151l-1.9-1.936-2.1 2.008-1.7-1.758 2-1.993-2-1.977 1.7-1.718 2 1.972 2-1.944 1.7 1.741-1.9 1.929 1.9 1.958z" fill="#c0c0c0" stroke-width=".5"/></g><g id="screwRB"><circle id="circle4177" cx="570.5" cy="570.5" fill="#ebebeb" r="6.5" stroke-width=".80000001"/><path id="path4179" d="m572.5 574.15l-1.9-1.93-2.1 2-1.7-1.75 2-2-2-1.97 1.7-1.72 2 1.97 2-1.94 1.7 1.74-1.9 1.93 1.9 1.95z" fill="#c0c0c0" stroke-width=".5"/></g><g id="screwLB"><circle id="circle4187" cx="28.5" cy="570.5" fill="#ebebeb" r="6.5" stroke-width=".80000001"/><path id="path4189" d="m30.518 574.15l-1.96-1.93-2.009 2-1.766-1.75 2.002-2-2.008-1.97 1.739-1.72 1.962 1.97 1.974-1.94 1.715 1.74-1.905 1.93 1.961 1.95z" fill="#c0c0c0" stroke-width=".5"/></g><rect id="cutout" height="180" style="fill:#fff;fill-rule:nonzero;stroke:#000;stroke-width:.80000001;stroke-linecap:round;stroke-linejoin:miter" width="470" x="64.5" y="130"/></g></svg>