<svg id="svg2" height="799" viewBox="0 0 1099 799" width="1099" overflow="visible" xmlns="http://www.w3.org/2000/svg"><g id="lugMiddleTop" fill-rule="evenodd" stroke="#000" stroke-linecap="round" stroke-linejoin="round"><rect id="rect4160" fill="#c0c0c0" height="60" width="130" x="484.5"/><rect id="rect4162" fill="#c0c0c0" height="7" width="130" x="484.5"/><rect id="rect4164" fill="#c0c0c0" height="7" width="80" x="509.5"/><circle id="circle4166" cx="509.5" cy="30" fill="#fff" r="7"/><circle id="circle4168" cx="589.5" cy="30" fill="#fff" r="7"/></g><g id="lugMiddleBottom" fill-rule="evenodd" stroke="#000" stroke-linecap="round" stroke-linejoin="round"><rect id="rect4141" fill="#c0c0c0" height="60" width="130" x="484.5" y="739"/><rect id="rect4143" fill="#c0c0c0" height="7" width="130" x="484.5" y="792"/><rect id="rect4145" fill="#c0c0c0" height="7" width="80" x="509.5" y="792"/><circle id="path4147" cx="509.5" cy="769" fill="#fff" r="7"/><circle id="circle4149" cx="589.5" cy="769" fill="#fff" r="7"/></g><g id="lugLeftTop" fill-rule="evenodd" stroke="#333" stroke-linecap="round" stroke-linejoin="round"><circle id="path4220" cx="27" cy="17" fill="#c4c4c4" r="17"/><rect id="rectLug" height="12" ry="5" width="54" y="11"/><rect id="rect4221" fill="#999" height="12" ry="5" width="54" y="11"/></g><g id="lugRightTop" fill-rule="evenodd" stroke-linecap="round" stroke-linejoin="round"><circle id="circle4240" cx="1071.5" cy="17" fill="#c4c4c4" r="17" stroke="#000"/><rect id="rect4242" height="12" ry="5" stroke="#000" width="54" x="1044.5" y="11"/><rect id="rect4246" fill="#999" height="12" ry="5" stroke="#333" width="54" x="1044.5" y="11"/></g><g id="lugRightBottom" stroke-linecap="round" stroke-linejoin="round"><circle id="circle4234" cx="1071.5" cy="782" fill="#c4c4c4" fill-rule="evenodd" r="17" stroke="#000"/><rect id="rect4236" fill="#999" fill-rule="evenodd" height="12" ry="5" stroke="#000" width="54" x="1044.5" y="776"/><rect id="rect4271" fill="none" height="12" ry="5" stroke="#333" width="54" x="1044.5" y="776"/></g><g id="lugLeftBottom" fill-rule="evenodd" stroke-linecap="round" stroke-linejoin="round"><circle id="circle4228" cx="27" cy="782" fill="#c4c4c4" r="17" stroke="#333"/><rect id="rect4230" height="12" ry="5" stroke="#000" width="54" y="776"/><rect id="rect4296" fill="#999" height="12" ry="5" stroke="#333" width="54" y="776"/></g></svg>