<svg id="svg2" height="798" overflow="visible" viewBox="0 0 1098 798" width="1098" xmlns="http://www.w3.org/2000/svg"><g id="layer1" fill-rule="evenodd" stroke="#000"><g id="cornerLeftTop"><g id="bracketLetTop"><path id="rect4181" d="m144.5 21c4.71 0 8.5 3.789 8.5 8.496v115.004c0 4.71-3.79 8.5-8.5 8.5h-115.004c-4.707 0-8.496-3.79-8.496-8.5 0-11.55 0-33.86 0-41.5 0-.64 81.79.27 82 0 .2-.27-.6-81.946 0-82 7.95 0 29.43 0 41.5 0z" fill="#c0c0c0"/><path id="circle4193" d="m138 26a5 5 0 0 0 -5 5 5 5 0 0 0  5 5 5 5 0 0 0  5-5 5 5 0 0 0 -5-5zm-107 107a5 5 0 0 0 -5 5 5 5 0 0 0  5 5 5 5 0 0 0  5-5 5 5 0 0 0 -5-5zm107 0a5 5 0 0 0 -5 5 5 5 0 0 0  5 5 5 5 0 0 0  5-5 5 5 0 0 0 -5-5z" fill="#e0e0e0" stroke-linecap="round" stroke-linejoin="round"/><rect id="rect4207" fill="#c0c0c0" height="59" stroke-linecap="round" width="2.5" x="100.27" y="21"/><rect id="rect4209" fill="#c0c0c0" height="2.5" stroke-linecap="round" width="59" x="21" y="100.5"/></g><rect id="rect3338" fill="#c0c0c0" height="100" width="100"/><path id="circle4186" d="m38.5 32.25a6.25 6.25 0 0 0 -6.25 6.25 6.25 6.25 0 0 0  6.25 6.25 6.25 6.25 0 0 0  6.25-6.25 6.25 6.25 0 0 0 -6.25-6.25zm22.5 26.5a2.25 2.25 0 0 0 -2.25 2.25 2.25 2.25 0 0 0  2.25 2.25 2.25 2.25 0 0 0  2.25-2.25 2.25 2.25 0 0 0 -2.25-2.25zm16.583984 12.210938c-1.789316.00749-3.576078.701318-4.941406 2.078124-2.730655 2.753613-2.712597 7.167783.041016 9.898438l7.810547 7.746094c2.753612 2.730655 7.169735 2.712597 9.90039-.041016 2.730655-2.753613 2.710644-7.169736-.042969-9.90039l-7.810546-7.744141c-1.376807-1.365328-3.167715-2.0446-4.957032-2.037109z" fill="#e0e0e0" stroke-linecap="round" stroke-linejoin="round"/></g><g id="cornerRightTop"><g id="bracketRightTop"><path id="path4220" d="m1077 144.5c0 4.71-3.8 8.5-8.5 8.5h-115c-4.71 0-8.5-3.79-8.5-8.5v-115.004c0-4.707 3.79-8.496 8.5-8.496 11.55 0 33.86 0 41.5 0 .64 0-.27 81.79 0 82 .27.2 81.9-.6 82 0 0 7.95 0 29.43 0 41.5z" fill="#c0c0c0"/><path id="circle4222" d="m960 26a5 5 0 0 0 -5 5 5 5 0 0 0  5 5 5 5 0 0 0  5-5 5 5 0 0 0 -5-5zm0 107a5 5 0 0 0 -5 5 5 5 0 0 0  5 5 5 5 0 0 0  5-5 5 5 0 0 0 -5-5zm107 0a5 5 0 0 0 -5 5 5 5 0 0 0  5 5 5 5 0 0 0  5-5 5 5 0 0 0 -5-5z" fill="#e0e0e0" stroke-linecap="round" stroke-linejoin="round"/><rect id="rect4270" fill="#c0c0c0" height="59" stroke-linecap="round" width="2.5" x="995" y="21"/><rect id="rect4272" fill="#c0c0c0" height="2.5" stroke-linecap="round" width="59" x="1018" y="100.5"/></g><rect id="coverCornerRight" fill="#c0c0c0" height="100" width="100" x="998"/><path id="circle4188" d="m1059.5 32.25a6.25 6.25 0 0 0 -6.25 6.25 6.25 6.25 0 0 0  6.25 6.25 6.25 6.25 0 0 0  6.25-6.25 6.25 6.25 0 0 0 -6.25-6.25zm-22.5 26.5a2.25 2.25 0 0 0 -2.25 2.25 2.25 2.25 0 0 0  2.25 2.25 2.25 2.25 0 0 0  2.25-2.25 2.25 2.25 0 0 0 -2.25-2.25zm-16.8535 12.078125c-1.7889.040943-3.5611.765878-4.9004 2.167969l-7.5977 7.955078c-2.6787 2.804182-2.5776 7.217795.2266 9.896484 2.8042 2.67869 7.2178 2.57762 9.8965-.226562l7.5976-7.953125c2.6787-2.804182 2.5777-7.219748-.2265-9.898438-1.4021-1.339345-3.2073-1.982349-4.9961-1.941406z" fill="#e0e0e0" stroke-linecap="round" stroke-linejoin="round"/></g><g id="cornerRightBottom"><g id="bracketRightBottom"><path id="path4230" d="m953.5 777c-4.71 0-8.5-3.79-8.5-8.5v-115c0-4.71 3.79-8.5 8.5-8.5h115c4.7 0 8.5 3.79 8.5 8.5 0 11.55 0 33.86 0 41.5 0 .64-81.79-.27-82 0-.2.27.6 81.95 0 82-7.95 0-29.43 0-41.5 0z" fill="#c0c0c0"/><path id="circle4232" d="m960 655a5 5 0 0 0 -5 5 5 5 0 0 0  5 5 5 5 0 0 0  5-5 5 5 0 0 0 -5-5zm107 0a5 5 0 0 0 -5 5 5 5 0 0 0  5 5 5 5 0 0 0  5-5 5 5 0 0 0 -5-5zm-107 107a5 5 0 0 0 -5 5 5 5 0 0 0  5 5 5 5 0 0 0  5-5 5 5 0 0 0 -5-5z" fill="#e0e0e0" stroke-linecap="round" stroke-linejoin="round"/><rect id="rect4294" fill="#c0c0c0" height="59" stroke-linecap="round" width="2.5" x="995" y="718"/><rect id="rect4296" fill="#c0c0c0" height="2.5" stroke-linecap="round" width="59" x="1018" y="695"/></g><rect id="rect4192" fill="#c0c0c0" height="100" width="100" x="998" y="698"/><path id="circle4190" d="m1011.4648 705.17773c-1.7893.00749-3.576.69937-4.9414 2.07618-2.7306 2.75361-2.7126 7.16973.0411 9.90039l7.8105 7.74609c2.7536 2.73066 7.1678 2.71064 9.8984-.04297 2.7307-2.75361 2.7126-7.16778-.041-9.89844l-7.8105-7.74609c-1.3768-1.36533-3.1677-2.04265-4.9571-2.03516zm25.5352 29.57227a2.25 2.25 0 0 0 -2.25 2.25 2.25 2.25 0 0 0  2.25 2.25 2.25 2.25 0 0 0  2.25-2.25 2.25 2.25 0 0 0 -2.25-2.25zm22.5 18.5a6.25 6.25 0 0 0 -6.25 6.25 6.25 6.25 0 0 0  6.25 6.25 6.25 6.25 0 0 0  6.25-6.25 6.25 6.25 0 0 0 -6.25-6.25z" fill="#e0e0e0" stroke-linecap="round" stroke-linejoin="round"/></g><g id="cornerLeftBottom"><g id="bracketLeftBottom"><path id="path4260" d="m21 653.5c0-4.71 3.79-8.5 8.5-8.5h115c4.71 0 8.5 3.79 8.5 8.5v115c0 4.7-3.79 8.5-8.5 8.5-11.55 0-33.86 0-41.5 0-.64 0 .27-81.79 0-82-.27-.2-81.95.6-82 0 0-7.95 0-29.43 0-41.5z" fill="#c0c0c0"/><path id="circle4262" d="m31 655a5 5 0 0 0 -5 5 5 5 0 0 0  5 5 5 5 0 0 0  5-5 5 5 0 0 0 -5-5zm107 0a5 5 0 0 0 -5 5 5 5 0 0 0  5 5 5 5 0 0 0  5-5 5 5 0 0 0 -5-5zm0 107a5 5 0 0 0 -5 5 5 5 0 0 0  5 5 5 5 0 0 0  5-5 5 5 0 0 0 -5-5z" fill="#e0e0e0" stroke-linecap="round" stroke-linejoin="round"/><rect id="rect4350" fill="#c0c0c0" height="59" stroke-linecap="round" width="2.5" x="100.5" y="718"/><rect id="rect4352" fill="#c0c0c0" height="2.5" stroke-linecap="round" width="59" x="21" y="695"/></g><rect id="rect4184" fill="#c0c0c0" height="100" width="100" y="698"/><path id="path4182" d="m87.021484 704.88281c-1.789304-.01013-3.584067.66405-4.96289 2.02735l-7.822266 7.73437c-2.757646 2.72658-2.78127 7.14275-.054687 9.90039 2.726583 2.75765 7.140791 2.78127 9.898437.05469l7.822266-7.73438c2.757646-2.72658 2.783223-7.14079.05664-9.89843-1.363291-1.37883-3.148196-2.07385-4.9375-2.08399zm-26.021484 29.86719a2.25 2.25 0 0 0 -2.25 2.25 2.25 2.25 0 0 0  2.25 2.25 2.25 2.25 0 0 0  2.25-2.25 2.25 2.25 0 0 0 -2.25-2.25zm-22.5 18.5a6.25 6.25 0 0 0 -6.25 6.25 6.25 6.25 0 0 0  6.25 6.25 6.25 6.25 0 0 0  6.25-6.25 6.25 6.25 0 0 0 -6.25-6.25z" fill="#e0e0e0" stroke-linecap="round" stroke-linejoin="round"/></g><g id="middlePartTop"><rect id="rect4206" fill="#c0c0c0" height="100" stroke-width="2" width="200" x="449.5" y=".5"/><path id="rect4231" d="m495.5.5v10h5v-10zm106 0v10h5v-10z" fill="#c0c0c0" stroke-width="2"/><path id="circle4264" d="m549.5 30a10 10 0 0 0 -10 10 10 10 0 0 0  10 10 10 10 0 0 0  10-10 10 10 0 0 0 -10-10zm-50 13.75a6.25 6.25 0 0 0 -6.25 6.25 6.25 6.25 0 0 0  6.25 6.25 6.25 6.25 0 0 0  6.25-6.25 6.25 6.25 0 0 0 -6.25-6.25zm100 0a6.25 6.25 0 0 0 -6.25 6.25 6.25 6.25 0 0 0  6.25 6.25 6.25 6.25 0 0 0  6.25-6.25 6.25 6.25 0 0 0 -6.25-6.25z" fill="#e0e0e0" stroke-linecap="round" stroke-linejoin="round"/></g><g id="middlePartBottom"><rect id="rect4196" fill="#c0c0c0" height="100" stroke-width="2" width="200" x="449.5" y="697.5"/><path id="rect4198" d="m495.5 787.5v10h5v-10zm106 0v10h5v-10z" fill="#c0c0c0" stroke-width="2"/><path id="circle4273" d="m499.5 741.75a6.25 6.25 0 0 0 -6.25 6.25 6.25 6.25 0 0 0  6.25 6.25 6.25 6.25 0 0 0  6.25-6.25 6.25 6.25 0 0 0 -6.25-6.25zm100 0a6.25 6.25 0 0 0 -6.25 6.25 6.25 6.25 0 0 0  6.25 6.25 6.25 6.25 0 0 0  6.25-6.25 6.25 6.25 0 0 0 -6.25-6.25zm-50 6.25a10 10 0 0 0 -10 10 10 10 0 0 0  10 10 10 10 0 0 0  10-10 10 10 0 0 0 -10-10z" fill="#e0e0e0" stroke-linecap="round" stroke-linejoin="round"/></g><rect id="coverLeft" fill="#c0c0c0" height="798" stroke-linecap="round" stroke-linejoin="round" width="2"/><rect id="coverTop" fill="#c0c0c0" height="2" stroke-linecap="round" stroke-linejoin="round" width="1098"/><rect id="coverRight" fill="#c0c0c0" height="798" stroke-linecap="round" stroke-linejoin="round" width="2" x="1096"/><rect id="coverBottom" fill="#c0c0c0" height="2" stroke-linecap="round" stroke-linejoin="round" width="1098" y="796"/><g id="middlePartRight"><rect id="rect4182" fill="#c0c0c0" height="200" stroke-width="2" width="100" x="997.5" y="299"/><path id="path4184" d="m1097.5 343.5h-10v5h10zm0 106h-10v5h10z" fill="#c0c0c0" stroke-width="2"/><path id="path4186" d="m1068.125 399a10 10 0 0 0 -10-10 10 10 0 0 0 -10 10 10 10 0 0 0  10 10 10 10 0 0 0  10-10zm-13.75-50a6.25 6.25 0 0 0 -6.25-6.25 6.25 6.25 0 0 0 -6.25 6.25 6.25 6.25 0 0 0  6.25 6.25 6.25 6.25 0 0 0  6.25-6.25zm0 100a6.25 6.25 0 0 0 -6.25-6.25 6.25 6.25 0 0 0 -6.25 6.25 6.25 6.25 0 0 0  6.25 6.25 6.25 6.25 0 0 0  6.25-6.25z" fill="#e0e0e0" stroke-linecap="round" stroke-linejoin="round"/></g><g id="middlePartLeft"><rect id="rect4190" fill="#c0c0c0" height="200" stroke-width="2" width="100" x=".5" y="299"/><path id="path4192" d="m10.5 343.5h-10v5h10zm0 106h-10v5h10z" fill="#c0c0c0" stroke-width="2"/><path id="path4194" d="m29.875 399a10 10 0 0 1 10-10 10 10 0 0 1  10 10 10 10 0 0 1 -10 10 10 10 0 0 1 -10-10zm13.75-50a6.25 6.25 0 0 1 6.25-6.25 6.25 6.25 0 0 1  6.25 6.25 6.25 6.25 0 0 1 -6.25 6.25 6.25 6.25 0 0 1 -6.25-6.25zm0 100a6.25 6.25 0 0 1 6.25-6.25 6.25 6.25 0 0 1  6.25 6.25 6.25 6.25 0 0 1 -6.25 6.25 6.25 6.25 0 0 1 -6.25-6.25z" fill="#e0e0e0" stroke-linecap="round" stroke-linejoin="round"/></g></g></svg>