<svg id="svg2" height="1047.9999" overflow="visible" viewBox="0 0 1350 1047.9999" width="1350" xmlns="http://www.w3.org/2000/svg"><g id="layer1" fill-rule="evenodd" stroke="#000" stroke-linecap="round" stroke-linejoin="round"><rect id="blindPanel" fill="#c5c7c4" fill-rule="nonzero" height="1047" stroke="#000" stroke-linecap="round" stroke-linejoin="miter" width="1349"/><rect id="cap" fill="#fff" height="826" stroke-width=".8" width="1128" x="110.50002" y="110.49997"/><g id="screwL1"><circle id="circle4169-9" cx="92" cy="166.99989" fill="#ebebeb" r="6.5"/><path id="path4171-7" d="m94 170.6509l-1.9-1.936-2.1 2.008-1.7-1.758 2-1.993-2-1.977 1.7-1.718 2 1.972 2-1.944 1.7 1.741-1.9 1.929 1.9 1.958z" fill="#c0c0c0"/></g><g id="screwL2"><circle id="circle4187-6" cx="92.000015" cy="523.5" fill="#ebebeb" r="6.5"/><path id="path4189-7" d="m94.018016 527.14997l-1.96-1.93-2.009 2-1.766-1.75 2.002-2-2.008-1.97 1.739-1.72 1.962 1.97 1.974-1.94 1.715 1.74-1.905 1.93 1.961 1.95z" fill="#c0c0c0"/></g><g id="screwL3"><circle id="circle4177-7" cx="92" cy="879.99988" fill="#ebebeb" r="6.5"/><path id="path4179-3" d="m94 883.6499l-1.9-1.93-2.1 2-1.7-1.75 2-2-2-1.97 1.7-1.72 2 1.97 2-1.94 1.7 1.74-1.9 1.93 1.9 1.95z" fill="#c0c0c0"/></g><g id="screwR1"><circle id="circle4400" cx="1257" cy="166.99989" fill="#ebebeb" r="6.5"/><path id="path4402" d="m1259 170.6509l-1.9-1.936-2.1 2.008-1.7-1.758 2-1.993-2-1.977 1.7-1.718 2 1.972 2-1.944 1.7 1.741-1.9 1.929 1.9 1.958z" fill="#c0c0c0"/></g><g id="screwR2"><circle id="circle4412" cx="1257" cy="523.5" fill="#ebebeb" r="6.5"/><path id="path4414" d="m1259.018 527.14997l-1.96-1.93-2.009 2-1.766-1.75 2.002-2-2.008-1.97 1.739-1.72 1.962 1.97 1.974-1.94 1.715 1.74-1.905 1.93 1.961 1.95z" fill="#c0c0c0"/></g><g id="screwR3"><circle id="circle4406" cx="1257" cy="879.99988" fill="#ebebeb" r="6.5"/><path id="path4408" d="m1259 883.6499l-1.9-1.93-2.1 2-1.7-1.75 2-2-2-1.97 1.7-1.72 2 1.97 2-1.94 1.7 1.74-1.9 1.93 1.9 1.95z" fill="#c0c0c0"/></g><g id="screwT1"><circle id="circle4488" cx="167" cy="91.5" fill="#ebebeb" r="6.5"/><path id="path4490" d="m169.018 95.151l-1.96-1.936-2.009 2.008-1.766-1.758 2.002-1.993-2.008-1.977 1.739-1.718 1.962 1.972 1.974-1.944 1.715 1.741-1.905 1.929 1.961 1.958z" fill="#c0c0c0"/></g><g id="screwT2"><circle id="path4176-6-0" cx="674.5" cy="91.5" fill="#ebebeb" r="6.5"/><path id="path4192-7-9" d="m676.51802 95.151l-1.96-1.936-2.009 2.008-1.766-1.758 2.002-1.993-2.008-1.977 1.739-1.718 1.962 1.972 1.974-1.944 1.715 1.741-1.905 1.929 1.961 1.958z" fill="#c0c0c0"/></g><g id="screwT3"><circle id="circle4482" cx="1182" cy="91.5" fill="#ebebeb" r="6.5"/><path id="path4484" d="m1184.018 95.151l-1.96-1.936-2.009 2.008-1.766-1.758 2.002-1.993-2.008-1.977 1.739-1.718 1.962 1.972 1.974-1.944 1.715 1.741-1.905 1.929 1.961 1.958z" fill="#c0c0c0"/></g><g id="screwB1"><circle id="circle4519" cx="167" cy="955.5" fill="#ebebeb" r="6.5"/><path id="path4521" d="m169.018 959.151l-1.96-1.936-2.009 2.008-1.766-1.758 2.002-1.993-2.008-1.977 1.739-1.718 1.962 1.972 1.974-1.944 1.715 1.741-1.905 1.929 1.961 1.958z" fill="#c0c0c0"/></g><g id="screwB2"><circle id="circle4507" cx="674.5" cy="955.5" fill="#ebebeb" r="6.5"/><path id="path4509" d="m676.51802 959.151l-1.96-1.936-2.009 2.008-1.766-1.758 2.002-1.993-2.008-1.977 1.739-1.718 1.962 1.972 1.974-1.944 1.715 1.741-1.905 1.929 1.961 1.958z" fill="#c0c0c0"/></g><g id="screwB3"><circle id="circle4513" cx="1182" cy="955.5" fill="#ebebeb" r="6.5"/><path id="path4515" d="m1184.018 959.151l-1.96-1.936-2.009 2.008-1.766-1.758 2.002-1.993-2.008-1.977 1.739-1.718 1.962 1.972 1.974-1.944 1.715 1.741-1.905 1.929 1.961 1.958z" fill="#c0c0c0"/></g><g id="screwLT"><circle id="circle4569" cx="28.5" cy="28.499901" fill="#ebebeb" r="6.5"/><path id="path4571" d="m30.518 32.1509l-1.96-1.936-2.009 2.008-1.766-1.758 2.002-1.993-2.008-1.977 1.739-1.718 1.962 1.972 1.974-1.944 1.715 1.741-1.905 1.929 1.961 1.958z" fill="#c0c0c0"/></g><g id="screwLB"><circle id="circle4575" cx="28.5" cy="1018.4998" fill="#ebebeb" r="6.5"/><path id="path4577" d="m30.518 1022.1498l-1.96-1.93-2.009 2-1.766-1.75 2.002-2-2.008-1.97 1.739-1.72 1.962 1.97 1.974-1.94 1.715 1.74-1.905 1.93 1.961 1.95z" fill="#c0c0c0"/></g><g id="screwRT"><circle id="circle4641" cx="1320.5" cy="28.499901" fill="#ebebeb" r="6.5"/><path id="path4643" d="m1322.5 32.1509l-1.9-1.936-2.1 2.008-1.7-1.758 2-1.993-2-1.977 1.7-1.718 2 1.972 2-1.944 1.7 1.741-1.9 1.929 1.9 1.958z" fill="#c0c0c0"/></g><g id="screwRB"><circle id="circle4647" cx="1320.5" cy="1018.4998" fill="#ebebeb" r="6.5"/><path id="path4649" d="m1322.5 1022.1498l-1.9-1.93-2.1 2-1.7-1.75 2-2-2-1.97 1.7-1.72 2 1.97 2-1.94 1.7 1.74-1.9 1.93 1.9 1.95z" fill="#c0c0c0"/></g></g></svg>