<?xml version="1.0" encoding="UTF-8" standalone="no"?>
<svg
   xmlns:dc="http://purl.org/dc/elements/1.1/"
   xmlns:cc="http://creativecommons.org/ns#"
   xmlns:rdf="http://www.w3.org/1999/02/22-rdf-syntax-ns#"
   xmlns:svg="http://www.w3.org/2000/svg"
   xmlns="http://www.w3.org/2000/svg"
   xmlns:sodipodi="http://sodipodi.sourceforge.net/DTD/sodipodi-0.dtd"
   xmlns:inkscape="http://www.inkscape.org/namespaces/inkscape"
   id="svg4168"
   height="600"
   overflow="visible"
   viewBox="0 0 600 600"
   width="600"
   version="1.1"
   inkscape:version="0.91 r13725"
   sodipodi:docname="SPEP_openPanel_triLineFlange.svg">
  <metadata
     id="metadata22">
    <rdf:RDF>
      <cc:Work
         rdf:about="">
        <dc:format>image/svg+xml</dc:format>
        <dc:type
           rdf:resource="http://purl.org/dc/dcmitype/StillImage" />
      </cc:Work>
    </rdf:RDF>
  </metadata>
  <defs
     id="defs20" />
  <sodipodi:namedview
     pagecolor="#ffffff"
     bordercolor="#666666"
     borderopacity="1"
     objecttolerance="10"
     gridtolerance="10"
     guidetolerance="10"
     inkscape:pageopacity="0"
     inkscape:pageshadow="2"
     inkscape:window-width="1920"
     inkscape:window-height="1018"
     id="namedview18"
     showgrid="false"
     inkscape:zoom="0.55625733"
     inkscape:cx="337.42273"
     inkscape:cy="480.10651"
     inkscape:window-x="-8"
     inkscape:window-y="-8"
     inkscape:window-maximized="1"
     inkscape:current-layer="svg4168" />
  <g
     id="layer1"
     fill-rule="evenodd"
     stroke="#000"
     stroke-linecap="round"
     stroke-linejoin="round">
    <rect
       id="blindPanel"
       fill="#c5c7c4"
       height="599"
       width="599" />
    <rect
       id="cutout"
       height="180"
       style="fill:#fff;fill-rule:nonzero;stroke:#000;stroke-width:.80000001;stroke-linecap:round;stroke-linejoin:miter"
       width="470"
       x="64.5"
       y="289" />
    <g
       id="screwLT">
      <circle
         id="path4176-6"
         cx="28.5"
         cy="28.5"
         fill="#ebebeb"
         r="6.5"
         stroke-width=".80000001" />
      <path
         id="path4192-7"
         d="m30.518 32.151l-1.96-1.936-2.009 2.008-1.766-1.758 2.002-1.993-2.008-1.977 1.739-1.718 1.962 1.972 1.974-1.944 1.715 1.741-1.905 1.929 1.961 1.958z"
         fill="#c0c0c0"
         stroke-width=".5" />
    </g>
    <g
       id="screwRT">
      <circle
         id="circle4169"
         cx="570.5"
         cy="28.5"
         fill="#ebebeb"
         r="6.5"
         stroke-width=".80000001" />
      <path
         id="path4171"
         d="m572.5 32.151l-1.9-1.936-2.1 2.008-1.7-1.758 2-1.993-2-1.977 1.7-1.718 2 1.972 2-1.944 1.7 1.741-1.9 1.929 1.9 1.958z"
         fill="#c0c0c0"
         stroke-width=".5" />
    </g>
    <g
       id="screwRB">
      <circle
         id="circle4177"
         cx="570.5"
         cy="570.5"
         fill="#ebebeb"
         r="6.5"
         stroke-width=".80000001" />
      <path
         id="path4179"
         d="m572.5 574.15l-1.9-1.93-2.1 2-1.7-1.75 2-2-2-1.97 1.7-1.72 2 1.97 2-1.94 1.7 1.74-1.9 1.93 1.9 1.95z"
         fill="#c0c0c0"
         stroke-width=".5" />
    </g>
    <g
       id="screwLB">
      <circle
         id="circle4187"
         cx="28.5"
         cy="570.5"
         fill="#ebebeb"
         r="6.5"
         stroke-width=".80000001" />
      <path
         id="path4189"
         d="m30.518 574.15l-1.96-1.93-2.009 2-1.766-1.75 2.002-2-2.008-1.97 1.739-1.72 1.962 1.97 1.974-1.94 1.715 1.74-1.905 1.93 1.961 1.95z"
         fill="#c0c0c0"
         stroke-width=".5" />
    </g>
  </g>
</svg>
