<svg id="svg2" height="848" viewBox="0 0 1350 848" width="1350" overflow="visible" xmlns="http://www.w3.org/2000/svg"><g id="layer1" stroke="#000" stroke-linecap="round"><rect id="blindPanel" fill="#c5c7c4" height="847" width="1349"/><g id="screwLT" fill-rule="evenodd" stroke-linejoin="round"><circle id="path4176-6" cx="28.499962" cy="28.5" fill="#ebebeb" r="6.5"/><path id="path4192-7" d="m30.517963 32.151l-1.96-1.936-2.009 2.008-1.766-1.758 2.002-1.993-2.008-1.977 1.739-1.718 1.962 1.972 1.974-1.944 1.715 1.741-1.905 1.929 1.961 1.958z" fill="#c0c0c0"/></g><g id="screwRT" fill-rule="evenodd" stroke-linejoin="round"><circle id="circle4169" cx="1320.5" cy="28.5" fill="#ebebeb" r="6.5"/><path id="path4171" d="m1322.5 32.151l-1.9-1.936-2.1 2.008-1.7-1.758 2-1.993-2-1.977 1.7-1.718 2 1.972 2-1.944 1.7 1.741-1.9 1.929 1.9 1.958z" fill="#c0c0c0"/></g><g id="screwRB" fill-rule="evenodd" stroke-linejoin="round"><circle id="circle4177" cx="1320.5" cy="818.5" fill="#ebebeb" r="6.5"/><path id="path4179" d="m1322.5 822.15l-1.9-1.93-2.1 2-1.7-1.75 2-2-2-1.97 1.7-1.72 2 1.97 2-1.94 1.7 1.74-1.9 1.93 1.9 1.95z" fill="#c0c0c0"/></g><g id="screwLB" fill-rule="evenodd" stroke-linejoin="round"><circle id="circle4187" cx="28.499962" cy="818.5" fill="#ebebeb" r="6.5"/><path id="path4189" d="m30.517963 822.15l-1.96-1.93-2.009 2-1.766-1.75 2.002-2-2.008-1.97 1.739-1.72 1.962 1.97 1.974-1.94 1.715 1.74-1.905 1.93 1.961 1.95z" fill="#c0c0c0"/></g><g id="row1" fill="#f9f9f9"><rect id="co1" height="121" rx="6" width="197" x="76.000008" y="105.00008"/><rect id="co2" height="121" rx="6" width="197" x="325.99997" y="105.00008"/><rect id="co3" height="121" rx="6" width="197" x="576" y="105.00008"/><rect id="co4" height="121" rx="6" width="197" x="826" y="105.00008"/><rect id="co5" height="121" rx="6" width="197" x="1076" y="105.00008"/></g><g id="row2" fill="#f9f9f9"><rect id="co6" height="121" rx="6" width="197" x="76.000008" y="354.99997"/><rect id="co7" height="121" rx="6" width="197" x="325.99997" y="354.99997"/><rect id="co8" height="121" rx="6" width="197" x="576" y="354.99997"/><rect id="co9" height="121" rx="6" width="197" x="826" y="354.99997"/><rect id="co10" height="121" rx="6" width="197" x="1076" y="354.99997"/></g></g></svg>