<svg id="svg2" height="289.79999" overflow="visible" shape-rendering="crispEdges" viewBox="0 0 140.8 289.79999" width="140.8" xmlns="http://www.w3.org/2000/svg" xmlns:xlink="http://www.w3.org/1999/xlink"><clipPath id="a"><path id="path5" d="m-156.09961 233.65039v66.34961h19.59961v7.5h-19.59961v18.84961h104.199221v-18.84961h-19.59961v-7.5h19.59961v-66.34961zm23.09961 23.41211h58.000001v18h-58.000001zm0 35.35156h58.000001v9h-58.000001z" overflow="visible" shape-rendering="crispEdges"/></clipPath><clipPath id="b"><path id="path8" d="m201.46299 166.52349v91.20117h10v5h91v-32.13281h-12.59961v-7h12.59961v-57.06836z" shape-rendering="crispEdges"/></clipPath><clipPath id="c"><path id="path11" d="m-140.38388-164.93339v93.699216h104.199219v-93.699216zm6.09961 1.46289h18.02735v85.999996h-18.02735zm30.5 1.60742h23.999999v45h-23.999999zm30.999999 0h24v45h-24zm-27.749999 56.78321h17.499999c.277002 0 .5.223.5.5v7.499996c0 .277-.222998.5-.5.5h-17.499999c-.277 0-.5-.223-.5-.5v-7.499996c0-.277.223-.5.5-.5z" shape-rendering="crispEdges"/></clipPath><g id="layer1"><rect id="breakerRear" fill="#575d5e" fill-rule="evenodd" height="289" stroke="#000" stroke-width=".80000001" width="140"/><g id="operationGroup" shape-rendering="crispEdges" stroke="#333" stroke-linecap="square"><rect id="rect19" fill="#575d5e" fill-rule="evenodd" height="120" stroke-width=".80000001" width="26" x="114" y="35"/><circle id="circle21" cx="127" cy="112" fill="#f0ffff" r="6"/></g><g id="rotaryDriveAxle" shape-rendering="crispEdges"><rect id="rect25" fill="#575d5e" height="105.5" stroke="#333" stroke-width=".80000001" width="105" x="35" y="42.999989"/><g id="g27"><circle id="circle29" cx="66.599998" cy="85.700188" fill="#c5c7c4" r="15" stroke="#000" stroke-width=".5"/><circle id="circle31" cx="66.599998" cy="85.700188" r="8"/><rect id="rect33" fill="#e6e6e6" height="6" overflow="visible" width="6" x="63.599998" y="82.700188"/></g></g><g id="rotaryDrive"><rect id="rect37" fill="#575d5e" height="105.5" shape-rendering="crispEdges" stroke="#333" stroke-width=".80000001" width="105" x="35" y="42.999989"/><path id="path39" d="m303.625 214.5h-52.5m52.5 1.5h-52.5m52.5 1.5h-52.5m52.5 1.5h-52.5m52.5 1.5h-52.5m52.5 1.5h-52.5m52.5 1.5h-52.5m52.5 1.5h-52.5m52.5 1.5h-52.5m52.5 1.5h-52.5m52.5 1.5h-52.5m52.5 1.5h-52.5m52.5 1.5h-52.5m52.5 1.5h-52.5m52.5 1.5h-52.5m52.5 1.5h-52.5m52.5 1.5h-52.5m52.5 1.5h-52.5m52.5 1.5h-52.5m52.5 1.5h-52.5m52.5 1.5h-52.5m52.5 1.5h-52.5m52.5 1.5h-52.5m52.5 1.5h-52.5m52.5 1.5h-52.5m52.5 1.5h-52.5m52.5 1.5h-52.5m52.5 1.5h-52.5m52.5 1.5h-52.5m52.5 1.5h-52.5m52.5 1.5h-52.5m52.5 1.5h-52.5m52.5 1.5h-52.5m52.5 1.5h-52.5m52.5-.5h-52.5m52.25-48.75v48.5m-52-48.5v48.5m1.5-48.5v48.5m1.5-48.5v48.5m1.5-48.5v48.5m1.5-48.5v48.5m1.5-48.5v48.5m1.5-48.5v48.5m1.5-48.5v48.5m1.5-48.5v48.5m1.5-48.5v48.5m1.5-48.5v48.5m1.5-48.5v48.5m1.5-48.5v48.5m1.5-48.5v48.5m1.5-48.5v48.5m1.5-48.5v48.5m1.5-48.5v48.5m1.5-48.5v48.5m1.5-48.5v48.5m1.5-48.5v48.5m1.5-48.5v48.5m1.5-48.5v48.5m1.5-48.5v48.5m1.5-48.5v48.5m1.5-48.5v48.5m1.5-48.5v48.5m1.5-48.5v48.5m1.5-48.5v48.5m1.5-48.5v48.5m1.5-48.5v48.5m1.5-48.5v48.5m1.5-48.5v48.5m1.5-48.5v48.5m1.5-48.5v48.5m1.5-48.5v48.5m1.5-48.5v48.5m-52.5-48.75h52v49h-52zm52.25-51h-52.5m52.5 1.5h-52.5m52.5 1.5h-52.5m52.5 1.5h-52.5m52.5 1.5h-52.5m52.5 1.5h-52.5m52.5 1.5h-52.5m52.5 1.5h-52.5m52.5 1.5h-52.5m52.5 1.5h-52.5m52.5 1.5h-52.5m52.5 1.5h-52.5m52.5 1.5h-52.5m52.5 1.5h-52.5m52.5 1.5h-52.5m52.5 1.5h-52.5m52.5 1.5h-52.5m52.5 1.5h-52.5m52.5 1.5h-52.5m52.5 1.5h-52.5m52.5 1.5h-52.5m52.5 1.5h-52.5m52.5 1.5h-52.5m52.5 1.5h-52.5m52.5 1.5h-52.5m52.5 1.5h-52.5m52.5 1.5h-52.5m52.5 1.5h-52.5m52.5 1.5h-52.5m52.5 1.5h-52.5m52.5 1.5h-52.5m52.5 1.5h-52.5m52.5 1.5h-52.5m52.5 1.5h-52.5m52.5 1.5h-52.5m52.25-50.75v50.5m-52-50.5v50.5m1.5-50.5v50.5m1.5-50.5v50.5m1.5-50.5v50.5m1.5-50.5v50.5m1.5-50.5v50.5m1.5-50.5v50.5m1.5-50.5v50.5m1.5-50.5v50.5m1.5-50.5v50.5m1.5-50.5v50.5m1.5-50.5v50.5m1.5-50.5v50.5m1.5-50.5v50.5m1.5-50.5v50.5m1.5-50.5v50.5m1.5-50.5v50.5m1.5-50.5v50.5m1.5-50.5v50.5m1.5-50.5v50.5m1.5-50.5v50.5m1.5-50.5v50.5m1.5-50.5v50.5m1.5-50.5v50.5m1.5-50.5v50.5m1.5-50.5v50.5m1.5-50.5v50.5m1.5-50.5v50.5m1.5-50.5v50.5m1.5-50.5v50.5m1.5-50.5v50.5m1.5-50.5v50.5m1.5-50.5v50.5m1.5-50.5v50.5m1.5-50.5v50.5m1.5-50.5v50.5m-52.5-50.75h52v51h-52zm .25 51h-50.5m50.5 1.5h-50.5m50.5 1.5h-50.5m50.5 1.5h-50.5m50.5 1.5h-50.5m50.5 1.5h-50.5m50.5 1.5h-50.5m50.5 1.5h-50.5m50.5 1.5h-50.5m50.5 1.5h-50.5m50.5 1.5h-50.5m50.5 1.5h-50.5m50.5 1.5h-50.5m50.5 1.5h-50.5m50.5 1.5h-50.5m50.5 1.5h-50.5m50.5 1.5h-50.5m50.5 1.5h-50.5m50.5 1.5h-50.5m50.5 1.5h-50.5m50.5 1.5h-50.5m50.5 1.5h-50.5m50.5 1.5h-50.5m50.5 1.5h-50.5m50.5 1.5h-50.5m50.5 1.5h-50.5m50.5 1.5h-50.5m50.5 1.5h-50.5m50.5 1.5h-50.5m50.5 1.5h-50.5m50.5 1.5h-50.5m50.5 1.5h-50.5m50.5 1.5h-50.5m50.5 1.5h-50.5m50.5-.5h-50.5m36.75-48.75v48.5m1.5-48.5v48.5m1.5-48.5v48.5m1.5-48.5v48.5m1.5-48.5v48.5m1.5-48.5v48.5m1.5-48.5v48.5m1.5-48.5v48.5m1.5-48.5v48.5m1.5-48.5v48.5m-52-48.5v48.5m1.5-48.5v48.5m1-48.5v48.5m1.5-48.5v48.5m1.5-48.5v48.5m1.5-48.5v48.5m1.5-48.5v48.5m1.5-48.5v48.5m1.5-48.5v48.5m1.5-48.5v48.5m1.5-48.5v48.5m1.5-48.5v48.5m1.5-48.5v48.5m1.5-48.5v48.5m1.5-48.5v48.5m1.5-48.5v48.5m1.5-48.5v48.5m1.5-48.5v48.5m1.5-48.5v48.5m1.5-48.5v48.5m1.5-48.5v48.5m1.5-48.5v48.5m1.5-48.5v48.5m1.5-48.5v48.5m1.5-48.5v48.5m1.5-48.5v48.5m-37-48.75h52v49h-52zm52.25-51h-50.5m50.5 1.5h-50.5m50.5 1.5h-50.5m50.5 1.5h-50.5m50.5 1.5h-50.5m50.5 1.5h-50.5m50.5 1.5h-50.5m50.5 1.5h-50.5m50.5 1.5h-50.5m50.5 1.5h-50.5m50.5 1.5h-50.5m50.5 1.5h-50.5m50.5 1.5h-50.5m50.5 1.5h-50.5m50.5 1.5h-50.5m50.5 1.5h-50.5m50.5 1.5h-50.5m50.5 1.5h-50.5m50.5 1.5h-50.5m50.5 1.5h-50.5m50.5 1.5h-50.5m50.5 1.5h-50.5m50.5 1.5h-50.5m50.5 1.5h-50.5m50.5 1.5h-50.5m50.5 1.5h-50.5m50.5 1.5h-50.5m50.5 1.5h-50.5m50.5 1.5h-50.5m50.5 1.5h-50.5m50.5 1.5h-50.5m50.5 1.5h-50.5m50.5 1.5h-50.5m50.5 1.5h-50.5m50.5 1.5h-50.5m36.75-50.75v50.5m1.5-50.5v50.5m1.5-50.5v50.5m1.5-50.5v50.5m1.5-50.5v50.5m1.5-50.5v50.5m1.5-50.5v50.5m1.5-50.5v50.5m1.5-50.5v50.5m1.5-50.5v50.5m-52-50.5v50.5m1.5-50.5v50.5m-.5-50.5v50.5m1.5-50.5v50.5m1.5-50.5v50.5m1.5-50.5v50.5m1.5-50.5v50.5m1.5-50.5v50.5m1.5-50.5v50.5m1.5-50.5v50.5m1.5-50.5v50.5m1.5-50.5v50.5m1.5-50.5v50.5m1.5-50.5v50.5m1.5-50.5v50.5m1.5-50.5v50.5m1.5-50.5v50.5m1.5-50.5v50.5m1.5-50.5v50.5m1.5-50.5v50.5m1.5-50.5v50.5m1.5-50.5v50.5m1.5-50.5v50.5m1.5-50.5v50.5m1.5-50.5v50.5m1.5-50.5v50.5m1.5-50.5v50.5m-37-50.75h52v51h-52z" style="fill:#4d4d4d;fill-rule:evenodd;stroke:#575d5e;stroke-width:.5;shape-rendering:crispEdges;clip-path:url(#b)" transform="translate(-164.46299 -114.62448)"/><g id="g41" shape-rendering="crispEdges"><ellipse id="ellipse43" cx="133.30762" cy="112.46744" rx="4.75" ry="2.75" style="overflow:visible;fill:#c7cacc;fill-rule:evenodd;stroke:#333;stroke-width:.49999991;stroke-linecap:round;stroke-linejoin:round"/><text id="text45" line-height="125%" style="font-size:12.5;font-family:sans-serif;letter-spacing:0;word-spacing:0;overflow:visible;fill:#4d4d4d;fill-opacity:.9372549" x="130.91718" xml:space="preserve" y="113.14905"><tspan id="tspan47" fill="#4d4d4d" fill-opacity=".9372549" font-size="1.875" x="130.91718" y="113.14905">TEST</tspan></text></g><g id="g49" shape-rendering="crispEdges"><rect id="rect51" fill="#bb1e10" height="10.5" width="104.2" x="35.400002" y="43.400154"/><path id="path53" d="m35.4 54.400182h104.2" fill="none" stroke="#fff"/><text id="text55" line-height="100%" style="font-weight:bold;font-size:5.39302158;font-family:sans-serif;letter-spacing:0;word-spacing:0;fill:#fff" x="101.53897" xml:space="preserve" y="51.321663"><tspan id="tspan57" fill="#fff" font-family="sans-serif" font-size="7.5" font-weight="bold" line-height="100%" x="101.53897" y="51.321663">TMax T4</tspan></text><path id="path59" d="m41.160237 44.650154l-1.049371 3.92001h2.167814v-3.92001zm1.278447 0v3.92001h2.167821l-1.049215-3.92001zm4.480023 0v3.92001h2.320008v-3.92001zm2.480012 0v3.92001h2.428607a2.4000112 2.4000112 0 0 0 -.830473-.551121 1.8000084 1.8000084 0 0 0  .922036-1.568866 1.8000084 1.8000084 0 0 0 -1.800007-1.800023 1.8000084 1.8000084 0 0 0 -.000163 0zm3.760016 0v3.92001h2.320009v-3.92001zm2.480012 0v3.92001h2.428604a2.4000112 2.4000112 0 0 0 -.83047-.551121 1.8000084 1.8000084 0 0 0  .92204-1.568866 1.8000084 1.8000084 0 0 0 -1.80001-1.800023 1.8000084 1.8000084 0 0 0 -.00016 0zm-15.570693 4.07999l-1.049379 3.92001h2.00001l.424058-1.600002h.835937v-2.320008zm2.37063 0v2.320008h.836101l.423909 1.600002h2.000011l-1.049224-3.92001zm4.480023 0v3.92001h2.320008v-3.92001zm2.480012 0v3.92001h.720008a2.4000112 2.4000112 0 0 0  .000155 0 2.4000112 2.4000112 0 0 0  2.400012-2.400002 2.4000112 2.4000112 0 0 0 -.546724-1.520008h-2.573443zm3.760016 0v3.92001h2.320009v-3.92001zm2.480012 0v3.92001h.720004a2.4000112 2.4000112 0 0 0  .00016 0 2.4000112 2.4000112 0 0 0  2.40001-2.400002 2.4000112 2.4000112 0 0 0 -.54671-1.520008z" fill="#fff"/></g><g id="g61"><circle id="circle63" cx="66.599998" cy="85.70018" fill="#575d5e" r="30.1" shape-rendering="crispEdges"/><g id="g65" shape-rendering="crispEdges"><path id="path67" d="m36.906713 89.978684a30 30 0 0 1  .348859-10.516218l29.344428 6.237351z" fill="#808000"/><path id="path69" d="m55.84896 57.692405a30 30 0 0 1 21.45318-.01872l-10.70214 28.026132z" fill="#f00"/><path id="path71" d="m39.301162 73.259021a30 30 0 0 1 16.547798-15.566616l10.75104 28.007412z" fill="#ff0"/><circle id="circle73" cx="66.599998" cy="85.699814" fill="#575d5e" r="25" stroke="#333"/><text id="text75" fill="#fff" font-family="sans-serif" font-size="12.5" letter-spacing="0" line-height="125%" word-spacing="0" x="66.172272" xml:space="preserve" y="59.830372"><tspan id="tspan77" fill="#fff" font-family="FreesiaUPC" font-size="7.5" x="66.172272" y="59.830372">I</tspan></text><text id="text79" fill="#fff" font-family="sans-serif" font-size="12.5" letter-spacing="0" line-height="125%" word-spacing="0" x="37.498238" xml:space="preserve" y="86.434021"><tspan id="tspan81" fill="#fff" font-family="FreesiaUPC" font-size="7.5" x="37.498238" y="86.434021">O</tspan></text></g><circle id="circle83" cx="66.599998" cy="85.70018" fill="#575d5e" r="25.25" stroke="#363636" stroke-linecap="round" stroke-linejoin="round" stroke-width=".5"/><rect id="rect85" fill="#575d5e" height="42" rx="21" stroke="#333" stroke-linecap="round" stroke-linejoin="round" stroke-width=".5" width="83" x="45.599998" y="64.700172"/><path id="path87" d="m114.0467 85.250002c0-5.4015-4.37456-9.749989-9.80844-9.749989h-38.466164-.113662-5.602812c-2.330342 0-4.205623 1.4495-4.205623 3.249989v6.5 6.5c0 1.8005 1.875281 3.25 4.205623 3.25h5.602812.113662 38.466164c5.43388 0 9.80844-4.3485 9.80844-9.75z" style="fill:none;stroke:#363636;stroke-width:.5;stroke-linecap:round;stroke-linejoin:bevel;shape-rendering:crispEdges"/><path id="path89" d="m43.849999 85.250002c0 5.4015 4.773202 9.75 10.702247 9.75h41.971483.12402 6.113381c2.5427 0 4.58887-1.4495 4.58887-3.25v-6.5-6.5c0-1.800489-2.04617-3.249989-4.58887-3.249989h-6.113381-.12402-41.971483c-5.929045 0-10.702247 4.348489-10.702247 9.749989z" style="fill:#fff;stroke:#999;stroke-width:.49999997;stroke-linecap:round;stroke-linejoin:bevel;shape-rendering:crispEdges"/><path id="path91" d="m80.598174 78.368492c0-1.173159-.25577-2.118479-.57226-2.118479h-2.85548c-.3165 0-.57226.94532-.57226 2.118479v13.76432c0 1.17318.25576 2.11719.57226 2.11719h2.85548c.31649 0 .57226-.94401.57226-2.11719zm-6.44922 0c0-1.173159-.25573-2.118479-.57227-2.118479h-2.85547c-.31648 0-.57226.94532-.57226 2.118479v13.76432c0 1.17318.25578 2.11719.57226 2.11719h2.85547c.31654 0 .57227-.94401.57227-2.11719zm-6.45118 0c0-1.173159-.25575-2.118479-.57226-2.118479h-2.85547c-.31651 0-.57227.94532-.57227 2.118479v13.76432c0 1.17318.25576 2.11719.57227 2.11719h2.85547c.31651 0 .57226-.94401.57226-2.11719z" fill="#e6e6e6" shape-rendering="crispEdges"/><path id="path93" d="m46.242843 91.190272a22.5 22.5 0 0 1 -.680074-5.49007 22.5 22.5 0 0 1  1.09925-6.94678" fill="none" stroke="#999" stroke-linecap="round" stroke-linejoin="round" stroke-width=".5"/></g></g><g id="motorDrive" shape-rendering="crispEdges"><rect id="rect97" fill="#575d5e" height="105" stroke="#333" stroke-width=".80000001" width="105" x="35" y="42.999989"/><path id="path99" clip-path="url(#c)" d="m-35.64727-117.88166h-54.300389m54.300389 1.5h-54.300389m54.300389 1.5h-54.300389m54.300389 1.5h-54.300389m54.300389 1.5h-54.300389m54.300389 1.5h-54.300389m54.300389 1.5h-54.300389m54.300389 1.5h-54.300389m54.300389 1.5h-54.300389m54.300389 1.5h-54.300389m54.300389 1.5h-54.300389m54.300389 1.5h-54.300389m54.300389 1.499999h-54.300389m54.300389 1.5h-54.300389m54.300389 1.5h-54.300389m54.300389 1.5h-54.300389m54.300389 1.5h-54.300389m54.300389 1.5h-54.300389m54.300389 1.5h-54.300389m54.300389 1.5h-54.300389m54.300389 1.5h-54.300389m54.300389 1.5h-54.300389m54.300389 1.5h-54.300389m54.300389 1.5h-54.300389m54.300389 1.5h-54.300389m54.300389 1.5h-54.300389m54.300389 1.5h-54.300389m54.300389 1.5h-54.300389m54.300389 1.5h-54.300389m54.300389 1.5h-54.300389m54.300389 1.5h-54.300389m54.300389 1.5h-54.300389m54.300389.500004h-54.300389m54.050389-46.750003v46.500003m-53.800389-46.500003v46.500003m1.5-46.500003v46.500003m1.5-46.500003v46.500003m1.5-46.500003v46.500003m1.5-46.500003v46.500003m1.5-46.500003v46.500003m1.5-46.500003v46.500003m1.5-46.500003v46.500003m1.5-46.500003v46.500003m1.5-46.500003v46.500003m1.5-46.500003v46.500003m1.5-46.500003v46.500003m1.5-46.500003v46.500003m1.5-46.500003v46.500003m1.5-46.500003v46.500003m1.5-46.500003v46.500003m1.5-46.500003v46.500003m1.5-46.500003v46.500003m1.5-46.500003v46.500003m1.5-46.500003v46.500003m1.5-46.500003v46.500003m1.500001-46.500003v46.500003m1.5-46.500003v46.500003m1.5-46.500003v46.500003m1.5-46.500003v46.500003m1.5-46.500003v46.500003m1.5-46.500003v46.500003m1.5-46.500003v46.500003m1.5-46.500003v46.500003m1.5-46.500003v46.500003m1.5-46.500003v46.500003m1.5-46.500003v46.500003m1.5-46.500003v46.500003m1.5-46.500003v46.500003m1.5-46.500003v46.500003m1.5-46.500003v46.500003m1.5-46.500003v46.500003m-54.000001-46.750003h53.800389v47.000003h-53.800389zm.249701 0h-51.300312m51.300312 1.5h-51.300312m51.300312 1.5h-51.300312m51.300312 1.5h-51.300312m51.300312 1.5h-51.300312m51.300312 1.5h-51.300312m51.300312 1.5h-51.300312m51.300312 1.5h-51.300312m51.300312 1.5h-51.300312m51.300312 1.5h-51.300312m51.300312 1.5h-51.300312m51.300312 1.5h-51.300312m51.300312 1.499999h-51.300312m51.300312 1.5h-51.300312m51.300312 1.5h-51.300312m51.300312 1.5h-51.300312m51.300312 1.5h-51.300312m51.300312 1.5h-51.300312m51.300312 1.5h-51.300312m51.300312 1.5h-51.300312m51.300312 1.5h-51.300312m51.300312 1.5h-51.300312m51.300312 1.5h-51.300312m51.300312 1.5h-51.300312m51.300312 1.5h-51.300312m51.300312 1.5h-51.300312m51.300312 1.5h-51.300312m51.300312 1.5h-51.300312m51.300312 1.5h-51.300312m51.300312 1.5h-51.300312m51.300312 1.5h-51.300312m51.300312 1.5h-51.300312m51.300312.500004h-51.300312m37.55031-46.750003v46.500003m1.5-46.500003v46.500003m1.5-46.500003v46.500003m1.500012-46.500003v46.500003m1.5-46.500003v46.500003m1.5-46.500003v46.500003m1.5-46.500003v46.500003m1.49999-46.500003v46.500003m1.5-46.500003v46.500003m1.5-46.500003v46.500003m-50.800312-46.500003v46.500003m-.19969-46.500003v46.500003m1.5-46.500003v46.500003m1.5-46.500003v46.500003m1.5-46.500003v46.500003m1.5-46.500003v46.500003m1.5-46.500003v46.500003m1.5-46.500003v46.500003m1.5-46.500003v46.500003m1.5-46.500003v46.500003m1.5-46.500003v46.500003m1.5-46.500003v46.500003m1.5-46.500003v46.500003m1.5-46.500003v46.500003m1.5-46.500003v46.500003m1.5-46.500003v46.500003m1.5-46.500003v46.500003m1.5-46.500003v46.500003m1.5-46.500003v46.500003m1.5-46.500003v46.500003m1.5-46.500003v46.500003m1.5-46.500003v46.500003m1.5-46.500003v46.500003m1.5-46.500003v46.500003m1.5-46.500003v46.500003m1.5-46.500003v46.500003m-35.80031-46.750003h50.800312v47.000003h-50.800312zm104.851-46.99963h-54.300389m54.300389-2.5h-54.300389m54.300389 1.5h-54.300389m54.300389 1.5h-54.300389m54.300389 1.5h-54.300389m54.300389 1.5h-54.300389m54.300389 1.5h-54.300389m54.300389 1.5h-54.300389m54.300389 1.5h-54.300389m54.300389 1.5h-54.300389m54.300389 1.5h-54.300389m54.300389 1.5h-54.300389m54.300389 1.5h-54.300389m54.300389 1.5h-54.300389m54.300389 1.5h-54.300389m54.300389 1.5h-54.300389m54.300389 1.5h-54.300389m54.300389 1.5h-54.300389m54.300389 1.5h-54.300389m54.300389 1.5h-54.300389m54.300389 1.5h-54.300389m54.300389 1.5h-54.300389m54.300389 1.5h-54.300389m54.300389 1.5h-54.300389m54.300389 1.5h-54.300389m54.300389 1.5h-54.300389m54.300389 1.5h-54.300389m54.300389 1.5h-54.300389m54.300389 1.5h-54.300389m54.300389 1.5h-54.300389m54.300389 1.5h-54.300389m54.300389 1.5h-54.300389m54.300389 1.5h-54.300389m54.300389 1.5h-54.300389m54.300389 1.5h-54.300389m54.050389-46.75v46.5m-53.800389-46.5v46.5m1.5-46.5v46.5m1.5-46.5v46.5m1.5-46.5v46.5m1.5-46.5v46.5m1.5-46.5v46.5m1.5-46.5v46.5m1.5-46.5v46.5m1.5-46.5v46.5m1.5-46.5v46.5m1.5-46.5v46.5m1.5-46.5v46.5m1.5-46.5v46.5m1.5-46.5v46.5m1.5-46.5v46.5m1.5-46.5v46.5m1.5-46.5v46.5m1.5-46.5v46.5m1.5-46.5v46.5m1.5-46.5v46.5m1.5-46.5v46.5m1.500001-46.5v46.5m1.5-46.5v46.5m1.5-46.5v46.5m1.5-46.5v46.5m1.5-46.5v46.5m1.5-46.5v46.5m1.5-46.5v46.5m1.5-46.5v46.5m1.5-46.5v46.5m1.5-46.5v46.5m1.5-46.5v46.5m1.5-46.5v46.5m1.5-46.5v46.5m1.5-46.5v46.5m1.5-46.5v46.5m1.5-46.5v46.5m-54.000001-46.75h53.800389v47h-53.800389zm.249701 0h-51.300312m51.300312-2.5h-51.300312m51.300312 1.5h-51.300312m51.300312 1.5h-51.300312m51.300312 1.5h-51.300312m51.300312 1.5h-51.300312m51.300312 1.5h-51.300312m51.300312 1.5h-51.300312m51.300312 1.5h-51.300312m51.300312 1.5h-51.300312m51.300312 1.5h-51.300312m51.300312 1.5h-51.300312m51.300312 1.5h-51.300312m51.300312 1.5h-51.300312m51.300312 1.5h-51.300312m51.300312 1.5h-51.300312m51.300312 1.5h-51.300312m51.300312 1.5h-51.300312m51.300312 1.5h-51.300312m51.300312 1.5h-51.300312m51.300312 1.5h-51.300312m51.300312 1.5h-51.300312m51.300312 1.5h-51.300312m51.300312 1.5h-51.300312m51.300312 1.5h-51.300312m51.300312 1.5h-51.300312m51.300312 1.5h-51.300312m51.300312 1.5h-51.300312m51.300312 1.5h-51.300312m51.300312 1.5h-51.300312m51.300312 1.5h-51.300312m51.300312 1.5h-51.300312m51.300312 1.5h-51.300312m51.300312 1.5h-51.300312m51.300312 1.5h-51.300312m37.55031-46.75v46.5m1.5-46.5v46.5m1.5-46.5v46.5m1.500012-46.5v46.5m1.5-46.5v46.5m1.5-46.5v46.5m1.5-46.5v46.5m1.49999-46.5v46.5m1.5-46.5v46.5m1.5-46.5v46.5m-50.800312-46.5v46.5m-.19969-46.5v46.5m1.5-46.5v46.5m1.5-46.5v46.5m1.5-46.5v46.5m1.5-46.5v46.5m1.5-46.5v46.5m1.5-46.5v46.5m1.5-46.5v46.5m1.5-46.5v46.5m1.5-46.5v46.5m1.5-46.5v46.5m1.5-46.5v46.5m1.5-46.5v46.5m1.5-46.5v46.5m1.5-46.5v46.5m1.5-46.5v46.5m1.5-46.5v46.5m1.5-46.5v46.5m1.5-46.5v46.5m1.5-46.5v46.5m1.5-46.5v46.5m1.5-46.5v46.5m1.5-46.5v46.5m1.5-46.5v46.5m1.5-46.5v46.5m-35.80031-46.75h50.800312v47h-50.800312z" fill="#4d4d4d" fill-rule="evenodd" stroke="#575d5e" stroke-width=".5" transform="translate(175.78427 218.83416)"/><g id="g101"><rect id="rect103" fill="#f00" height="17.5" stroke="#333" stroke-width=".5" width="17.5" x="106.25" y="59.249985"/><circle id="circle105" cx="115" cy="67.999985" fill="none" overflow="visible" r="3.5999999" stroke="#fff"/></g><g id="g107"><rect id="rect109" fill="#007b00" height="17.5" stroke="#333" stroke-width=".5" width="17.5" x="75.25" y="58.999989"/><text id="text111" line-height="125%" style="font-weight:bold;font-size:10.80000019;font-family:Arial;letter-spacing:0;word-spacing:0;fill:#fff" x="82.481247" xml:space="preserve" y="71.615417"><tspan id="tspan113" x="82.481247" y="71.615417">I</tspan></text></g><g id="g115" fill="none" stroke="#000" stroke-width=".25"><rect id="rect117" height="7" rx=".25" width="3" x="119.59325" y="114.50403"/></g><g id="g119"><rect id="rect121" fill="#5b5e60" height="82.5" rx="1" stroke="#1a1a1a" stroke-width="1.5" width="14.5" x="43.25" y="57.703625"/><path id="path123" d="m44 110.2426c0-.71142.18442 1.8617 1.538571 3.04393 1.354151 1.18221 3.725094.97351 4.808415.97351 1.083323 0 3.472812.2087 4.826961-.97351 1.354152-1.18223 1.835765-3.75532 1.825905-3.04393v17.64494c-1.860146-.40935-.637051 2.07003-3.064317 2.7161-2.427264.64609-9.935535.0324-9.935535.0324z" fill="#333" overflow="visible"/></g><rect id="rect125" height="27.5" style="overflow:visible;fill:#c7c9cc;stroke:#333;stroke-width:.49999997;stroke-linecap:round;stroke-linejoin:round" transform="rotate(90)" width="4" x="138.82999" y="-133.25"/><path id="path127" d="m78.51668 118.00403h10.96664" style="overflow:visible;fill:none;stroke:#fff;stroke-width:.80000001;stroke-linecap:round;stroke-dasharray:1.60000002 1.60000002"/><g id="g129"><rect id="rect131" fill="#fff" height="6.5" stroke="#333" stroke-width=".5" width="18" x="75" y="93.441925"/><path id="path133" d="m78.516684 96.691928h10.966632" style="overflow:visible;fill:none;stroke:#000;stroke-width:.80000001;stroke-linecap:round;stroke-dasharray:1.60000002 1.60000002"/></g><g id="g135"><rect id="rect137" fill="#fff" height="6.5" stroke="#333" stroke-width=".5" width="18" x="106" y="93.441925"/><circle id="circle139" cx="109" cy="96.691925" fill="none" overflow="visible" r="1.5" stroke="#000" stroke-width=".5"/><path id="path141" d="m114.31862 96.691928h5.61276" style="overflow:visible;fill:none;stroke:#000;stroke-width:.79999995;stroke-linecap:round;stroke-dasharray:1.60000001 1.60000001"/></g><g id="g143"><rect id="rect145" fill="#c7c9cc" height="8.5" rx=".5" stroke="#333" stroke-width=".5" width="18.5" x="105.75" y="113.75403"/><path id="path147" d="m109.51668 125.30477h10.96664" style="overflow:visible;fill:none;stroke:#fff;stroke-width:.80000001;stroke-linecap:round;stroke-dasharray:1.60000002 1.60000002"/></g><g id="g149"><path id="path151" d="m35.399999 54.399987h104.200001" fill="none" stroke="#fff" stroke-width=".99999994"/><rect id="rect153" fill="#bb1e10" height="10.5" width="104.2" x="35.400002" y="43.39999"/><path id="path155" d="m42.021496 44.64999l-1.049378 3.92h2.167821v-3.92zm1.278443 0v3.92h2.167804l-1.049208-3.92zm4.479999 0v3.92h2.32v-3.92zm2.48 0v3.92h2.428595a2.4000002 2.4000002 0 0 0 -.830472-.55109 1.8000001 1.8000001 0 0 0  .922036-1.56891 1.8000001 1.8000001 0 0 0 -1.8-1.8 1.8000001 1.8000001 0 0 0 -.000142 0h-.719999zm3.759999 0v3.92h2.319999v-3.92zm2.479999 0v3.92h2.428596a2.4000002 2.4000002 0 0 0 -.830472-.55109 1.8000001 1.8000001 0 0 0  .922036-1.56891 1.8000001 1.8000001 0 0 0 -1.8-1.8 1.8000001 1.8000001 0 0 0 -.000142 0h-.72zm-15.570618 4.08l-1.049378 3.92h2l .424061-1.59999h.835938v-2.32001zm2.370621 0v2.32001h.836098l.423902 1.59999h1.999999l-1.049217-3.92zm4.479999 0v3.92h2.32v-3.92zm2.48 0v3.92h.719999a2.4000002 2.4000002 0 0 0  .000124 0 2.4000002 2.4000002 0 0 0  2.4-2.4 2.4000002 2.4000002 0 0 0 -.54672-1.52h-2.573439zm3.759999 0v3.92h2.319999v-3.92zm2.479999 0v3.92h.72a2.4000002 2.4000002 0 0 0  .000124 0 2.4000002 2.4000002 0 0 0  2.4-2.4 2.4000002 2.4000002 0 0 0 -.54672-1.52h-2.573422z" fill="#fff" overflow="visible"/><text id="text157" line-height="100%" style="font-weight:bold;font-size:5.39302158;font-family:sans-serif;letter-spacing:0;word-spacing:0;overflow:visible;fill:#fff" x="102.44385" xml:space="preserve" y="51.321499"><tspan id="tspan159" fill="#fff" font-family="sans-serif" font-size="7.5" font-weight="bold" line-height="100%" x="102.44385" y="51.321499">TMax T4</tspan></text></g></g><g id="rockerLever" shape-rendering="crispEdges"><rect id="rect163" fill="#616161" height="105" stroke="#333" stroke-width=".80000001" width="105" x="35" y="42.999989"/><path id="path165" clip-path="url(#a)" d="m-51.749999 280h-52.500001m52.500001 1.5h-52.500001m52.500001 1.5h-52.500001m52.500001 1.5h-52.500001m52.500001 1.5h-52.500001m52.500001 1.5h-52.500001m52.500001 1.5h-52.500001m52.500001 1.5h-52.500001m52.500001 1.5h-52.500001m52.500001 1.5h-52.500001m52.500001 1.5h-52.500001m52.500001 1.5h-52.500001m52.500001 1.5h-52.500001m52.500001 1.5h-52.500001m52.500001 1.5h-52.500001m52.500001 1.5h-52.500001m52.500001 1.5h-52.500001m52.500001 1.5h-52.500001m52.500001 1.5h-52.500001m52.500001 1.5h-52.500001m52.500001 1.5h-52.500001m52.500001 1.5h-52.500001m52.500001 1.5h-52.500001m52.500001 1.5h-52.500001m52.500001 1.49999h-52.500001m52.500001 1.5h-52.500001m52.500001 1.5h-52.500001m52.500001 1.5h-52.500001m52.500001 1.5h-52.500001m52.500001 1.5h-52.500001m52.500001 1.5h-52.500001m52.500001 1.5h-52.500001m52.500001-.99999h-52.500001m52.500001 1.5h-52.500001m52.250001-46.75v46.5m-52.000001-46.5v46.5m1.5-46.5v46.5m1.5-46.5v46.5m1.500001-46.5v46.5m1.5-46.5v46.5m1.5-46.5v46.5m1.5-46.5v46.5m1.5-46.5v46.5m1.5-46.5v46.5m1.5-46.5v46.5m1.5-46.5v46.5m1.5-46.5v46.5m1.5-46.5v46.5m1.5-46.5v46.5m1.5-46.5v46.5m1.5-46.5v46.5m1.5-46.5v46.5m1.5-46.5v46.5m1.5-46.5v46.5m1.5-46.5v46.5m1.5-46.5v46.5m1.5-46.5v46.5m1.5-46.5v46.5m1.5-46.5v46.5m1.5-46.5v46.5m1.5-46.5v46.5m1.5-46.5v46.5m1.5-46.5v46.5m1.5-46.5v46.5m1.5-46.5v46.5m1.5-46.5v46.5m1.5-46.5v46.5m1.5-46.5v46.5m1.5-46.5v46.5m1.5-46.5v46.5m1.5-46.5v46.5m-52.500001-46.75h52.000001v47h-52.000001zm52.250001-49h-52.500001m52.500001 1.5h-52.500001m52.500001-.5h-52.500001m52.500001 1.5h-52.500001m52.500001 1.5h-52.500001m52.500001 1.5h-52.500001m52.500001 1.5h-52.500001m52.500001 1.5h-52.500001m52.500001 1.5h-52.500001m52.500001 1.5h-52.500001m52.500001 1.5h-52.500001m52.500001 1.5h-52.500001m52.500001 1.5h-52.500001m52.500001 1.5h-52.500001m52.500001 1.5h-52.500001m52.500001 1.5h-52.500001m52.500001 1.5h-52.500001m52.500001 1.5h-52.500001m52.500001 1.5h-52.500001m52.500001 1.5h-52.500001m52.500001 1.5h-52.500001m52.500001 1.5h-52.500001m52.500001 1.5h-52.500001m52.500001 1.5h-52.500001m52.500001 1.5h-52.500001m52.500001 1.5h-52.500001m52.500001 1.5h-52.500001m52.500001 1.5h-52.500001m52.500001 1.5h-52.500001m52.500001 1.49999h-52.500001m52.500001 1.5h-52.500001m52.500001 1.5h-52.500001m52.500001 1.5h-52.500001m52.500001 1.50001h-52.500001m52.500001 1.5h-52.500001m52.250001-48.75v48.5m-52.000001-48.5v48.5m1.5-48.5v48.5m1.5-48.5v48.5m1.500001-48.5v48.5m1.5-48.5v48.5m1.5-48.5v48.5m1.5-48.5v48.5m1.5-48.5v48.5m1.5-48.5v48.5m1.5-48.5v48.5m1.5-48.5v48.5m1.5-48.5v48.5m1.5-48.5v48.5m1.5-48.5v48.5m1.5-48.5v48.5m1.5-48.5v48.5m1.5-48.5v48.5m1.5-48.5v48.5m1.5-48.5v48.5m1.5-48.5v48.5m1.5-48.5v48.5m1.5-48.5v48.5m1.5-48.5v48.5m1.5-48.5v48.5m1.5-48.5v48.5m1.5-48.5v48.5m1.5-48.5v48.5m1.5-48.5v48.5m1.5-48.5v48.5m1.5-48.5v48.5m1.5-48.5v48.5m1.5-48.5v48.5m1.5-48.5v48.5m1.5-48.5v48.5m1.5-48.5v48.5m1.5-48.5v48.5m-52.500001-48.75h52.000001v49h-52.000001zm.25 49h-52.5m52.5 1.5h-52.5m52.5 1.5h-52.5m52.5 1.5h-52.5m52.5 1.5h-52.5m52.5 1.5h-52.5m52.5 1.5h-52.5m52.5 1.5h-52.5m52.5 1.5h-52.5m52.5 1.5h-52.5m52.5 1.5h-52.5m52.5 1.5h-52.5m52.5 1.5h-52.5m52.5 1.5h-52.5m52.5 1.5h-52.5m52.5 1.5h-52.5m52.5 1.5h-52.5m52.5 1.5h-52.5m52.5 1.5h-52.5m52.5 1.5h-52.5m52.5 1.5h-52.5m52.5 1.5h-52.5m52.5 1.5h-52.5m52.5 1.5h-52.5m52.5 1.5h-52.5m52.5 1.5h-52.5m52.5 1.5h-52.5m52.5 1.5h-52.5m52.5 1.5h-52.5m52.5 1.49999h-52.5m52.5 1.5h-52.5m52.5 1.5h-52.5m52.5-.99999h-52.5m52.5 1.5h-52.5m38.75-46.75v46.5m1.5-46.5v46.5m1.5-46.5v46.5m1.5-46.5v46.5m1.5-46.5v46.5m1.5-46.5v46.5m1.5-46.5v46.5m1.5-46.5v46.5m1.5-46.5v46.5m1.5-46.5v46.5m-52-46.5v46.5m-.5-46.5v46.5m1.5-46.5v46.5m1.5-46.5v46.5m1.5-46.5v46.5m1.5-46.5v46.5m1.5-46.5v46.5m1.5-46.5v46.5m1.5-46.5v46.5m1.5-46.5v46.5m1.5-46.5v46.5m1.5-46.5v46.5m1.5-46.5v46.5m1.5-46.5v46.5m1.5-46.5v46.5m1.5-46.5v46.5m1.5-46.5v46.5m1.5-46.5v46.5m1.5-46.5v46.5m1.5-46.5v46.5m1.5-46.5v46.5m1.5-46.5v46.5m1.5-46.5v46.5m1.5-46.5v46.5m1.5-46.5v46.5m1.5-46.5v46.5m1.5-46.5v46.5m-37-46.75h50v47h-50zm52.25-49h-52.5m52.5 1.5h-52.5m52.5-.5h-52.5m52.5 1.5h-52.5m52.5 1.5h-52.5m52.5 1.5h-52.5m52.5 1.5h-52.5m52.5 1.5h-52.5m52.5 1.5h-52.5m52.5 1.5h-52.5m52.5 1.5h-52.5m52.5 1.5h-52.5m52.5 1.5h-52.5m52.5 1.5h-52.5m52.5 1.5h-52.5m52.5 1.5h-52.5m52.5 1.5h-52.5m52.5 1.5h-52.5m52.5 1.5h-52.5m52.5 1.5h-52.5m52.5 1.5h-52.5m52.5 1.5h-52.5m52.5 1.5h-52.5m52.5 1.5h-52.5m52.5 1.5h-52.5m52.5 1.5h-52.5m52.5 1.5h-52.5m52.5 1.5h-52.5m52.5 1.5h-52.5m52.5 1.49999h-52.5m52.5 1.5h-52.5m52.5 1.5h-52.5m52.5 1.5h-52.5m52.5 1.50001h-52.5m52.5 1.5h-52.5m38.75-48.75v48.5m1.5-48.5v48.5m1.5-48.5v48.5m1.5-48.5v48.5m1.5-48.5v48.5m1.5-48.5v48.5m1.5-48.5v48.5m1.5-48.5v48.5m1.5-48.5v48.5m1.5-48.5v48.5m-52-48.5v48.5m-.5-48.5v48.5m1.5-48.5v48.5m1.5-48.5v48.5m1.5-48.5v48.5m1.5-48.5v48.5m1.5-48.5v48.5m1.5-48.5v48.5m1.5-48.5v48.5m1.5-48.5v48.5m1.5-48.5v48.5m1.5-48.5v48.5m1.5-48.5v48.5m1.5-48.5v48.5m1.5-48.5v48.5m1.5-48.5v48.5m1.5-48.5v48.5m1.5-48.5v48.5m1.5-48.5v48.5m1.5-48.5v48.5m1.5-48.5v48.5m1.5-48.5v48.5m1.5-48.5v48.5m1.5-48.5v48.5m1.5-48.5v48.5m1.5-48.5v48.5m1.5-48.5v48.5m-37-48.75h52v49h-52z" fill="#4d4d4d" fill-rule="evenodd" stroke="#575d5e" stroke-width=".5" transform="translate(191.5 -178.75001)"/><rect id="rect167" fill="#2b6138" height="7.5" width="28.25" x="87.25" y="87.787132"/><rect id="rect169" fill="#ff0" fill-opacity=".58208953" height="7.5" width="28.25" x="59.249996" y="87.787132"/><g id="g171"><rect id="rect173" fill="#f00" fill-opacity=".39215686" height="7.5" width="56.5" x="58.977566" y="78.749977"/><text id="text175" fill="#fff" font-family="sans-serif" font-size="12.5" letter-spacing="0" line-height="125%" word-spacing="0" x="65.919968" xml:space="preserve" y="85.349098"><tspan id="tspan177" font-size="7.5" x="65.919968" y="85.349098">l</tspan></text><text id="text179" fill="#fff" font-family="sans-serif" font-size="12.5" letter-spacing="0" line-height="125%" word-spacing="0" x="103.15741" xml:space="preserve" y="84.545265"><tspan id="tspan181" font-size="7.5" x="103.15741" y="84.545265">on</tspan></text></g><g id="g183"><rect id="rect185" fill="#008000" fill-opacity=".39215686" height="7.5" width="56.500004" x="59.249996" y="114.41427"/><circle id="circle187" cx="66.949028" cy="118.16425" fill="none" overflow="visible" r="2.5" stroke="#fff" stroke-width=".5"/><text id="text189" fill="#fff" font-family="sans-serif" font-size="12.5" letter-spacing="0" line-height="125%" word-spacing="0" x="103.15741" xml:space="preserve" y="120.97494"><tspan id="tspan191" font-size="7.5" x="103.15741" y="120.97494">off</tspan></text></g><g id="g193" fill="#d4d5df"><rect id="rect195" height="43" stroke="#333" stroke-width=".49999997" width="25" x="75" y="78.750389"/><rect id="rect197" height="25.200001" rx=".5" stroke="#808080" stroke-width=".5" width="23.5" x="75.75" y="100.56438"/></g><rect id="rect199" fill="#616161" height="7" stroke="#333" stroke-linecap="round" stroke-linejoin="bevel" stroke-width=".5" width="23.5" x="75.75" y="127.65199"/><rect id="rect201" fill="#999" height="4" width="17.5" x="78.750008" y="129.15196"/><g id="g203"><rect id="rect205" fill="#bb1e10" height="10.5" width="104.2" x="35.40015" y="43.400394"/><text id="text207" line-height="100%" style="font-weight:bold;font-size:5.39302158;font-family:sans-serif;letter-spacing:0;word-spacing:0;overflow:visible;fill:#fff" x="99.091644" xml:space="preserve" y="51.321903"><tspan id="tspan209" fill="#fff" font-family="sans-serif" font-size="7.5" font-weight="bold" line-height="100%" x="99.091644" y="51.321903">TMax T4</tspan></text><path id="path211" d="m41.537734 44.650391l-1.049378 3.92h2.167821v-3.92zm1.278443 0v3.92h2.167804l-1.049208-3.92zm4.479999 0v3.92h2.32v-3.92zm2.48 0v3.92h2.428595a2.4000002 2.4000002 0 0 0 -.830472-.55109 1.8000001 1.8000001 0 0 0  .922036-1.56891 1.8000001 1.8000001 0 0 0 -1.8-1.8 1.8000001 1.8000001 0 0 0 -.000142 0h-.719999zm3.759999 0v3.92h2.319999v-3.92zm2.479999 0v3.92h2.428596a2.4000002 2.4000002 0 0 0 -.830472-.55109 1.8000001 1.8000001 0 0 0  .922036-1.56891 1.8000001 1.8000001 0 0 0 -1.8-1.8 1.8000001 1.8000001 0 0 0 -.000142 0h-.72zm-15.570618 4.08l-1.049378 3.92h2l .424061-1.59999h.835938v-2.32001zm2.370621 0v2.32001h.836098l.423902 1.59999h1.999999l-1.049217-3.92zm4.479999 0v3.92h2.32v-3.92zm2.48 0v3.92h.719999a2.4000002 2.4000002 0 0 0  .000124 0 2.4000002 2.4000002 0 0 0  2.4-2.4 2.4000002 2.4000002 0 0 0 -.54672-1.52h-2.573439zm3.759999 0v3.92h2.319999v-3.92zm2.479999 0v3.92h.72a2.4000002 2.4000002 0 0 0  .000124 0 2.4000002 2.4000002 0 0 0  2.4-2.4 2.4000002 2.4000002 0 0 0 -.54672-1.52h-2.573422z" fill="#fff" overflow="visible"/><path id="path213" d="m35.400154 54.400391h104.200006" fill="none" stroke="#fff"/></g><rect id="rect215" fill="#d4d5df" height="5" overflow="visible" rx=".5" stroke="#808080" stroke-width=".5" width="23.5" x="75.75" y="120.80531"/><g id="g217"><ellipse id="ellipse219" cx="126" cy="124.99998" rx="4.75" ry="2.75" style="overflow:visible;fill:#c7cacc;fill-rule:evenodd;stroke:#333;stroke-width:.49999991;stroke-linecap:round;stroke-linejoin:round"/><text id="text221" line-height="125%" style="font-size:12.5;font-family:sans-serif;letter-spacing:0;word-spacing:0;overflow:visible;fill:#4d4d4d;fill-opacity:.9372549" x="123.60956" xml:space="preserve" y="125.68159"><tspan id="tspan223" fill="#4d4d4d" fill-opacity=".9372549" font-size="1.875" x="123.60956" y="125.68159">TEST</tspan></text></g></g><g id="RC222"><rect id="rect227" fill="#4d4d4d" fill-rule="evenodd" height="52.5" shape-rendering="crispEdges" stroke="#333" stroke-width=".80000001" width="105" x="35" y="207.24998"/><g id="g229"><rect id="rect231" fill="#575d5e" fill-rule="evenodd" height="46.5" shape-rendering="crispEdges" width="101" x="37" y="210.24998"/><path id="path233" d="m68 256.74954v-46.5" fill="none" shape-rendering="crispEdges" stroke="#333" stroke-width=".49999994"/><path id="path235" d="m86.994526 256.74954v-46.5" fill="none" shape-rendering="crispEdges" stroke="#333" stroke-width=".49999994"/><path id="path237" d="m107.50186 256.74953v-46.49999" fill="none" shape-rendering="crispEdges" stroke="#333" stroke-width=".49999994"/><path id="path239" d="m67.75 249.3156h-30.75" fill="none" shape-rendering="crispEdges" stroke="#fff" stroke-width=".5"/><path id="path241" d="m107.85036 250.18674h17" fill="none" shape-rendering="crispEdges" stroke="#333" stroke-width=".50000006"/><path id="path243" d="m107.85036 250.68674h17" fill="none" shape-rendering="crispEdges" stroke="#fff" stroke-width=".50000006"/><path id="path245" d="m67.75 248.8156h-30.75" fill="#333" fill-rule="evenodd" shape-rendering="crispEdges" stroke="#333" stroke-width=".5"/><path id="path247" d="m68.5 256.74954v-46.48664" fill="#fff" fill-rule="evenodd" shape-rendering="crispEdges" stroke="#fff" stroke-width=".49999994"/><path id="path249" d="m87.494526 256.74954v-46.5" fill="none" shape-rendering="crispEdges" stroke="#fff" stroke-width=".49999994"/><path id="path251" d="m108.00186 256.74953v-46.49999" fill="none" shape-rendering="crispEdges" stroke="#fff" stroke-width=".49999994"/><circle id="circle253" cx="45.149998" cy="241.56566" fill="#008000" r="2.75" shape-rendering="crispEdges" stroke="#787876" stroke-linecap="square" stroke-width=".25"/><circle id="circle255" cx="45.149998" cy="234.04066" r=".875" style="fill:#ff0;stroke:#787876;stroke-width:.25;stroke-linecap:round;stroke-linejoin:round;shape-rendering:crispEdges"/><circle id="circle257" cx="45.149998" cy="228.04066" r=".875" style="fill:#808000;stroke:#787876;stroke-width:.25;stroke-linecap:round;stroke-linejoin:round;shape-rendering:crispEdges"/><path id="path259" d="m54.928764 240.81567h9.06683" style="fill:#fff;fill-rule:evenodd;stroke:#fff;stroke-width:.80000001;stroke-linecap:round;stroke-dasharray:.80000001 3.20000005;shape-rendering:crispEdges"/><path id="path261" d="m54.928764 234.04066h6.564002" style="fill:#fff;fill-rule:evenodd;stroke:#fff;stroke-width:.80000001;stroke-linecap:round;stroke-dasharray:.80000001 3.20000003;shape-rendering:crispEdges"/><circle id="circle263" cx="78.5" cy="227.24998" fill="#f2f2f2" r="2.5" shape-rendering="crispEdges"/><circle id="circle265" cx="78.5" cy="245.24998" fill="#f2f2f2" r="2.5" shape-rendering="crispEdges"/><path id="path267" d="m78.51811 231.24999c0 10.26667 0 10 0 10" fill="#ececec" fill-rule="evenodd" shape-rendering="crispEdges" stroke="#e6e6e6" stroke-width=".5"/><circle id="circle269" cx="96.900017" cy="225.15002" fill="#ececec" r="4" shape-rendering="crispEdges" stroke="#333" stroke-linecap="square" stroke-width=".5"/><path id="path271" d="m112.14598 253.70995h11.0139" style="fill:#fff;fill-rule:evenodd;stroke:#fff;stroke-width:.79999995;stroke-linecap:round;stroke-dasharray:.79999998 3.19999995;shape-rendering:crispEdges"/><path id="path273" d="m92.395978 244.33495h11.013902" style="fill:#fff;fill-rule:evenodd;stroke:#fff;stroke-width:.79999995;stroke-linecap:round;stroke-dasharray:.79999998 3.19999995;shape-rendering:crispEdges"/><rect id="rect275" height="6" style="fill:#4d4d4d;stroke:#666;stroke-width:.25;stroke-linecap:round;stroke-linejoin:round;shape-rendering:crispEdges" width="1.5" x="125.875" y="226.47853"/><path id="path277" d="m79.831338 245.803h-2.662676l1.331338-2.30595z" fill="#b3b3b3" shape-rendering="crispEdges"/><path id="path279" d="m79.831338 226.69705h-2.662676l1.331338 2.30594z" fill="#b3b3b3" shape-rendering="crispEdges"/><path id="path281" d="m94.400017 226.51492h5l-2.5-4.33012z" fill="#b3b3b3" shape-rendering="crispEdges"/><path id="path283" d="m124.60187 256.74953v-46.49999" fill="none" shape-rendering="crispEdges" stroke="#4d4d4d" stroke-width=".49999994"/><g id="g285" shape-rendering="crispEdges"><rect id="rect287" fill="#bb1e10" height="8.5" width="101" x="37.000004" y="210.25"/><path id="path289" d="m37 218.25014h101" fill="none" stroke="#fff"/><path id="path291" d="m42.899203 211l-.762864 2.94h1.575935v-2.94zm.929386 0v2.94h1.575922l-.76274-2.94zm3.256813 0v2.94h1.686564v-2.94zm1.802879 0v2.94h1.76551a1.7447218 1.8000001 0 0 0 -.603726-.41332 1.3085414 1.3500001 0 0 0  .67029-1.17668 1.3085414 1.3500001 0 0 0 -1.308542-1.35 1.3085414 1.3500001 0 0 0 -.000103 0h-.523416zm2.733397 0v2.94h1.686563v-2.94zm1.802878 0v2.94h1.76551a1.7447218 1.8000001 0 0 0 -.603726-.41332 1.3085414 1.3500001 0 0 0  .67029-1.17668 1.3085414 1.3500001 0 0 0 -1.308541-1.35 1.3085414 1.3500001 0 0 0 -.000104 0h-.523416zm-11.319332 3.06l-.762863 2.94h1.453935l.308279-1.19999h.607699v-1.74001zm1.723365 0v1.74001h.607816l.308163 1.19999h1.453933l-.762745-2.94zm3.256813 0v2.94h1.686564v-2.94zm1.802879 0v2.94h.523416a1.7447218 1.8000001 0 0 0  .00009 0 1.7447218 1.8000001 0 0 0  1.744722-1.8 1.7447218 1.8000001 0 0 0 -.397448-1.14h-1.870807zm2.733397 0v2.94h1.686563v-2.94zm1.802878 0v2.94h.523416a1.7447218 1.8000001 0 0 0  .000091 0 1.7447218 1.8000001 0 0 0  1.744721-1.8 1.7447218 1.8000001 0 0 0 -.397447-1.14h-1.870795z" fill="#fff" overflow="visible"/></g><text id="text293" line-height="100%" style="font-weight:bold;font-size:5.39302158;font-family:sans-serif;letter-spacing:0;word-spacing:0;fill:#fff;shape-rendering:crispEdges" x="45.226971" xml:space="preserve" y="254.55043"><tspan id="tspan295" fill="#fff" font-family="sans-serif" font-size="3.75" font-weight="bold" line-height="100%" x="45.226971" y="254.55043">RC222</tspan></text><g id="g297" shape-rendering="crispEdges"><ellipse id="ellipse299" cx="129.55905" cy="253.95131" rx="3.875" ry="1.875" style="overflow:visible;fill:#c7cacc;fill-rule:evenodd;stroke:#333;stroke-width:.24999997;stroke-linecap:round;stroke-linejoin:round"/><text id="text301" line-height="125%" style="font-size:12.5;font-family:sans-serif;letter-spacing:0;word-spacing:0;overflow:visible;fill:#4d4d4d;fill-opacity:.9372549" x="127.16861" xml:space="preserve" y="254.63292"><tspan id="tspan303" fill="#4d4d4d" fill-opacity=".9372549" font-size="1.875" x="127.16861" y="254.63292">TEST</tspan></text></g><path id="path305" d="m54.928764 228.04066h6.564002" style="fill:#fff;fill-rule:evenodd;stroke:#fff;stroke-width:.80000001;stroke-linecap:round;stroke-dasharray:.80000001 3.20000003;shape-rendering:crispEdges"/><rect id="rect307" fill="none" height="20" stroke="#333" stroke-linecap="round" stroke-linejoin="round" stroke-width=".25" width="12" x="125.875" y="219.47853"/><path id="path309" d="m89.755372 231.66604h6.564001" style="fill:#fff;fill-rule:evenodd;stroke:#fff;stroke-width:.80000001;stroke-linecap:round;stroke-dasharray:.80000001 3.20000003;shape-rendering:crispEdges"/><path id="path311" d="m99.630373 231.66604h6.563997" style="fill:#fff;fill-rule:evenodd;stroke:#fff;stroke-width:.80000001;stroke-linecap:round;stroke-dasharray:.80000001 3.20000003;shape-rendering:crispEdges"/></g></g></g></svg>