<svg id="svg2" height="305.79999" overflow="visible" shape-rendering="crispEdges" viewBox="0 0 186.8 305.79999" width="186.8" xmlns="http://www.w3.org/2000/svg" xmlns:xlink="http://www.w3.org/1999/xlink"><clipPath id="a"><path id="path5" d="m-140.38388-164.93339v93.699216h104.199219v-93.699216zm6.09961 1.46289h18.02735v85.999996h-18.02735zm30.5 1.60742h23.999999v45h-23.999999zm30.999999 0h24v45h-24zm-27.749999 56.78321h17.499999c.277002 0 .5.223.5.5v7.499996c0 .277-.222998.5-.5.5h-17.499999c-.277 0-.5-.223-.5-.5v-7.499996c0-.277.223-.5.5-.5z" shape-rendering="crispEdges"/></clipPath><clipPath id="b"><path id="path8" d="m-156.09961 233.65039v66.34961h19.59961v7.5h-19.59961v18.84961h104.199221v-18.84961h-19.59961v-7.5h19.59961v-66.34961zm23.09961 23.41211h58.000001v18h-58.000001zm0 35.35156h58.000001v9h-58.000001z" overflow="visible" shape-rendering="crispEdges"/></clipPath><clipPath id="c"><path id="path11" d="m201.46299 166.52349v91.20117h10v5h91v-32.13281h-12.59961v-7h12.59961v-57.06836z" shape-rendering="crispEdges"/></clipPath><g id="layer1"><rect id="breakerRear" fill="#575d5e" fill-rule="evenodd" height="305" stroke="#333" stroke-width=".80000001" width="186"/><g id="operationGroup" fill="#575d5e" stroke="#333" stroke-linecap="square" stroke-width=".80000001"><rect id="rect19" fill-rule="evenodd" height="120" width="26" x="160" y="34.999989"/><circle id="circle21" cx="173" cy="111.99998" r="6"/></g><g id="RC222"><rect id="rect25" fill="#4d4d4d" fill-rule="evenodd" height="52.5" shape-rendering="crispEdges" stroke="#333" stroke-width=".80000001" width="105" x="63.75" y="207.24998"/><g id="g27"><rect id="rect29" fill="#575d5e" fill-rule="evenodd" height="46.5" shape-rendering="crispEdges" width="101" x="65.75" y="210.24998"/><path id="path31" d="m96.75 256.74954v-46.5" fill="none" shape-rendering="crispEdges" stroke="#333" stroke-width=".49999994"/><path id="path33" d="m115.74453 256.74954v-46.5" fill="none" shape-rendering="crispEdges" stroke="#333" stroke-width=".49999994"/><path id="path35" d="m136.25186 256.74953v-46.49999" fill="none" shape-rendering="crispEdges" stroke="#333" stroke-width=".49999994"/><path id="path37" d="m96.5 249.3156h-30.75" fill="none" shape-rendering="crispEdges" stroke="#fff" stroke-width=".5"/><path id="path39" d="m136.60036 250.18674h17" fill="none" shape-rendering="crispEdges" stroke="#333" stroke-width=".50000006"/><path id="path41" d="m136.60036 250.68674h17" fill="none" shape-rendering="crispEdges" stroke="#fff" stroke-width=".50000006"/><path id="path43" d="m96.5 248.8156h-30.75" fill="#333" fill-rule="evenodd" shape-rendering="crispEdges" stroke="#333" stroke-width=".5"/><path id="path45" d="m97.25 256.74954v-46.48664" fill="#fff" fill-rule="evenodd" shape-rendering="crispEdges" stroke="#fff" stroke-width=".49999994"/><path id="path47" d="m116.24453 256.74954v-46.5" fill="none" shape-rendering="crispEdges" stroke="#fff" stroke-width=".49999994"/><path id="path49" d="m136.75186 256.74953v-46.49999" fill="none" shape-rendering="crispEdges" stroke="#fff" stroke-width=".49999994"/><circle id="circle51" cx="73.899994" cy="241.56566" fill="#008000" r="2.75" shape-rendering="crispEdges" stroke="#787876" stroke-linecap="square" stroke-width=".25"/><circle id="circle53" cx="73.899994" cy="234.04066" r=".875" style="fill:#ff0;stroke:#787876;stroke-width:.25;stroke-linecap:round;stroke-linejoin:round;shape-rendering:crispEdges"/><circle id="circle55" cx="73.899994" cy="228.04066" r=".875" style="fill:#808000;stroke:#787876;stroke-width:.25;stroke-linecap:round;stroke-linejoin:round;shape-rendering:crispEdges"/><path id="path57" d="m83.678764 240.81567h9.06683" style="fill:#fff;fill-rule:evenodd;stroke:#fff;stroke-width:.80000001;stroke-linecap:round;stroke-dasharray:.80000001 3.20000005;shape-rendering:crispEdges"/><path id="path59" d="m83.678764 234.04066h6.564002" style="fill:#fff;fill-rule:evenodd;stroke:#fff;stroke-width:.80000001;stroke-linecap:round;stroke-dasharray:.80000001 3.20000003;shape-rendering:crispEdges"/><circle id="circle61" cx="107.25" cy="227.24998" fill="#f2f2f2" r="2.5" shape-rendering="crispEdges"/><circle id="circle63" cx="107.25" cy="245.24998" fill="#f2f2f2" r="2.5" shape-rendering="crispEdges"/><path id="path65" d="m107.26811 231.24999c0 10.26667 0 10 0 10" fill="#ececec" fill-rule="evenodd" shape-rendering="crispEdges" stroke="#e6e6e6" stroke-width=".5"/><circle id="circle67" cx="125.65002" cy="225.15002" fill="#ececec" r="4" shape-rendering="crispEdges" stroke="#333" stroke-linecap="square" stroke-width=".5"/><path id="path69" d="m140.89598 253.70995h11.0139" style="fill:#fff;fill-rule:evenodd;stroke:#fff;stroke-width:.79999995;stroke-linecap:round;stroke-dasharray:.79999998 3.19999995;shape-rendering:crispEdges"/><path id="path71" d="m121.14598 244.33495h11.0139" style="fill:#fff;fill-rule:evenodd;stroke:#fff;stroke-width:.79999995;stroke-linecap:round;stroke-dasharray:.79999998 3.19999995;shape-rendering:crispEdges"/><rect id="rect73" height="6" style="fill:#4d4d4d;stroke:#666;stroke-width:.25;stroke-linecap:round;stroke-linejoin:round;shape-rendering:crispEdges" width="1.5" x="154.625" y="226.47853"/><path id="path75" d="m108.58134 245.803h-2.66268l1.33134-2.30595z" fill="#b3b3b3" shape-rendering="crispEdges"/><path id="path77" d="m108.58134 226.69705h-2.66268l1.33134 2.30594z" fill="#b3b3b3" shape-rendering="crispEdges"/><path id="path79" d="m123.15002 226.51492h5l-2.5-4.33012z" fill="#b3b3b3" shape-rendering="crispEdges"/><path id="path81" d="m153.35187 256.74953v-46.49999" fill="none" shape-rendering="crispEdges" stroke="#4d4d4d" stroke-width=".49999994"/><g id="g83" shape-rendering="crispEdges" transform="translate(28.75 .00000303)"><rect id="rect85" fill="#bb1e10" height="8.5" width="101" x="37.000004" y="210.25"/><path id="path87" d="m37 218.25014h101" fill="none" stroke="#fff"/><path id="path89" d="m42.899203 211l-.762864 2.94h1.575935v-2.94zm.929386 0v2.94h1.575922l-.76274-2.94zm3.256813 0v2.94h1.686564v-2.94zm1.802879 0v2.94h1.76551a1.7447218 1.8000001 0 0 0 -.603726-.41332 1.3085414 1.3500001 0 0 0  .67029-1.17668 1.3085414 1.3500001 0 0 0 -1.308542-1.35 1.3085414 1.3500001 0 0 0 -.000103 0h-.523416zm2.733397 0v2.94h1.686563v-2.94zm1.802878 0v2.94h1.76551a1.7447218 1.8000001 0 0 0 -.603726-.41332 1.3085414 1.3500001 0 0 0  .67029-1.17668 1.3085414 1.3500001 0 0 0 -1.308541-1.35 1.3085414 1.3500001 0 0 0 -.000104 0h-.523416zm-11.319332 3.06l-.762863 2.94h1.453935l.308279-1.19999h.607699v-1.74001zm1.723365 0v1.74001h.607816l.308163 1.19999h1.453933l-.762745-2.94zm3.256813 0v2.94h1.686564v-2.94zm1.802879 0v2.94h.523416a1.7447218 1.8000001 0 0 0  .00009 0 1.7447218 1.8000001 0 0 0  1.744722-1.8 1.7447218 1.8000001 0 0 0 -.397448-1.14h-1.870807zm2.733397 0v2.94h1.686563v-2.94zm1.802878 0v2.94h.523416a1.7447218 1.8000001 0 0 0  .000091 0 1.7447218 1.8000001 0 0 0  1.744721-1.8 1.7447218 1.8000001 0 0 0 -.397447-1.14h-1.870795z" fill="#fff" overflow="visible"/></g><text id="text91" line-height="100%" style="font-weight:bold;font-size:5.39302158;font-family:sans-serif;letter-spacing:0;word-spacing:0;fill:#fff;shape-rendering:crispEdges" x="73.976974" xml:space="preserve" y="254.55043"><tspan id="tspan93" fill="#fff" font-family="sans-serif" font-size="3.75" font-weight="bold" line-height="100%" x="73.976974" y="254.55043">RC222</tspan></text><g id="g95" shape-rendering="crispEdges"><ellipse id="ellipse97" cx="158.30905" cy="253.95131" rx="3.875" ry="1.875" style="overflow:visible;fill:#c7cacc;fill-rule:evenodd;stroke:#333;stroke-width:.24999997;stroke-linecap:round;stroke-linejoin:round"/><text id="text99" line-height="125%" style="font-size:12.5;font-family:sans-serif;letter-spacing:0;word-spacing:0;overflow:visible;fill:#4d4d4d;fill-opacity:.9372549" x="155.91861" xml:space="preserve" y="254.63292"><tspan id="tspan101" fill="#4d4d4d" fill-opacity=".9372549" font-size="1.875" x="155.91861" y="254.63292">TEST</tspan></text></g><g id="g103"/><path id="path105" d="m83.678764 228.04066h6.564002" style="fill:#fff;fill-rule:evenodd;stroke:#fff;stroke-width:.80000001;stroke-linecap:round;stroke-dasharray:.80000001 3.20000003;shape-rendering:crispEdges"/><rect id="rect107" height="20" style="fill:none;stroke:#333;stroke-width:.25;stroke-linecap:round;stroke-linejoin:round;shape-rendering:crispEdges" width="12" x="154.625" y="219.47853"/><path id="path109" d="m118.50537 231.66604h6.564" style="fill:#fff;fill-rule:evenodd;stroke:#fff;stroke-width:.80000001;stroke-linecap:round;stroke-dasharray:.80000001 3.20000003;shape-rendering:crispEdges"/><path id="path111" d="m128.38037 231.66604h6.564" style="fill:#fff;fill-rule:evenodd;stroke:#fff;stroke-width:.80000001;stroke-linecap:round;stroke-dasharray:.80000001 3.20000003;shape-rendering:crispEdges"/></g></g><g id="rotaryDriveAxle" shape-rendering="crispEdges"><rect id="rect115" fill="#575d5e" height="105.5" stroke="#333" stroke-width=".80000001" width="105" x="63.75" y="42.999989"/><g id="g117"><circle id="circle119" cx="95.349998" cy="85.700188" fill="#c5c7c4" r="15" stroke="#000" stroke-width=".5"/><circle id="circle121" cx="95.349998" cy="85.700188" r="8"/><rect id="rect123" fill="#e6e6e6" height="6" overflow="visible" width="6" x="92.349998" y="82.700188"/></g></g><g id="rotaryDrive"><rect id="rect127" fill="#575d5e" height="105.5" shape-rendering="crispEdges" stroke="#333" stroke-width=".80000001" width="105" x="63.75" y="42.999989"/><path id="path129" d="m303.625 214.5h-52.5m52.5 1.5h-52.5m52.5 1.5h-52.5m52.5 1.5h-52.5m52.5 1.5h-52.5m52.5 1.5h-52.5m52.5 1.5h-52.5m52.5 1.5h-52.5m52.5 1.5h-52.5m52.5 1.5h-52.5m52.5 1.5h-52.5m52.5 1.5h-52.5m52.5 1.5h-52.5m52.5 1.5h-52.5m52.5 1.5h-52.5m52.5 1.5h-52.5m52.5 1.5h-52.5m52.5 1.5h-52.5m52.5 1.5h-52.5m52.5 1.5h-52.5m52.5 1.5h-52.5m52.5 1.5h-52.5m52.5 1.5h-52.5m52.5 1.5h-52.5m52.5 1.5h-52.5m52.5 1.5h-52.5m52.5 1.5h-52.5m52.5 1.5h-52.5m52.5 1.5h-52.5m52.5 1.5h-52.5m52.5 1.5h-52.5m52.5 1.5h-52.5m52.5 1.5h-52.5m52.5.50047h-52.5m52.25-48.25047v48.00047m-52-48.00047v48.00047m1.5-48.00047v48.00047m1.5-48.00047v48.00047m1.5-48.00047v48.00047m1.5-48.00047v48.00047m1.5-48.00047v48.00047m1.5-48.00047v48.00047m1.5-48.00047v48.00047m1.5-48.00047v48.00047m1.5-48.00047v48.00047m1.5-48.00047v48.00047m1.5-48.00047v48.00047m1.5-48.00047v48.00047m1.5-48.00047v48.00047m1.5-48.00047v48.00047m1.5-48.00047v48.00047m1.5-48.00047v48.00047m1.5-48.00047v48.00047m1.5-48.00047v48.00047m1.5-48.00047v48.00047m1.5-48.00047v48.00047m1.5-48.00047v48.00047m1.5-48.00047v48.5m1.5-48.5v48.00047m1.5-48.00047v48.00047m1.5-48.00047v48.00047m1.5-48.00047v48.00047m1.5-48.00047v48.00047m1.5-48.00047v48.00047m1.5-48.00047v48.00047m1.5-48.00047v48.00047m1.5-48.00047v48.00047m1.5-48.00047v48.00047m1.5-48.00047v48.00047m1.5-48.00047v48.00047m1.5-48.00047v48.00047m-52.5-48.25047h52v48.50047h-52zm52.25-51h-52.5m52.5 1.5h-52.5m52.5 1.5h-52.5m52.5 1.5h-52.5m52.5 1.5h-52.5m52.5 1.5h-52.5m52.5 1.5h-52.5m52.5 1.5h-52.5m52.5 1.5h-52.5m52.5 1.5h-52.5m52.5 1.5h-52.5m52.5 1.5h-52.5m52.5 1.5h-52.5m52.5 1.5h-52.5m52.5 1.5h-52.5m52.5 1.5h-52.5m52.5 1.5h-52.5m52.5 1.5h-52.5m52.5 1.5h-52.5m52.5 1.5h-52.5m52.5 1.5h-52.5m52.5 1.5h-52.5m52.5 1.5h-52.5m52.5 1.5h-52.5m52.5 1.5h-52.5m52.5 1.5h-52.5m52.5 1.5h-52.5m52.5 1.5h-52.5m52.5 1.5h-52.5m52.5 1.5h-52.5m52.5 1.5h-52.5m52.5 1.5h-52.5m52.5 1.5h-52.5m52.5 1.5h-52.5m52.5 1.5h-52.5m52.25-50.75v50.5m-52-50.5v50.5m1.5-50.5v50.5m1.5-50.5v50.5m1.5-50.5v50.5m1.5-50.5v50.5m1.5-50.5v50.5m1.5-50.5v50.5m1.5-50.5v50.5m1.5-50.5v50.5m1.5-50.5v50.5m1.5-50.5v50.5m1.5-50.5v50.5m1.5-50.5v50.5m1.5-50.5v50.5m1.5-50.5v50.5m1.5-50.5v50.5m1.5-50.5v50.5m1.5-50.5v50.5m1.5-50.5v50.5m1.5-50.5v50.5m1.5-50.5v50.5m1.5-50.5v50.5m1.5-50.5v50.5m1.5-50.5v50.5m1.5-50.5v50.5m1.5-50.5v50.5m1.5-50.5v50.5m1.5-50.5v50.5m1.5-50.5v50.5m1.5-50.5v50.5m1.5-50.5v50.5m1.5-50.5v50.5m1.5-50.5v50.5m1.5-50.5v50.5m1.5-50.5v50.5m1.5-50.5v50.5m-52.5-50.75h52v51h-52zm .25 51h-50.5m50.5 1.5h-50.5m50.5 1.5h-50.5m50.5 1.5h-50.5m50.5 1.5h-50.5m50.5 1.5h-50.5m50.5 1.5h-50.5m50.5 1.5h-50.5m50.5 1.5h-50.5m50.5 1.5h-50.5m50.5 1.5h-50.5m50.5 1.5h-50.5m50.5 1.5h-50.5m50.5 1.5h-50.5m50.5 1.5h-50.5m50.5 1.5h-50.5m50.5 1.5h-50.5m50.5 1.5h-50.5m50.5 1.5h-50.5m50.5 1.5h-50.5m50.5 1.5h-50.5m50.5 1.5h-50.5m50.5 1.5h-50.5m50.5 1.5h-50.5m50.5 1.5h-50.5m50.5 1.5h-50.5m50.5 1.5h-50.5m50.5 1.5h-50.5m50.5 1.5h-50.5m50.5 1.5h-50.5m50.5 1.5h-50.5m50.5 1.5h-50.5m50.5 1.5h-50.5m50.5.50047h-50.5m36.75-48.25047v48.00047m1.5-48.00047v48.00047m1.5-48.00047v48.00047m1.5-48.00047v48.00047m1.5-48.00047v48.00047m1.5-48.00047v48.00047m1.5-48.00047v48.00047m1.5-48.00047v48.00047m1.5-48.00047v48.00047m1.5-48.00047v48.00047m-50-48.00047v48.00047m-1-48.00047v48.00047m1.5-48.00047v48.00047m1.5-48.00047v48.00047m1.5-48.00047v48.00047m1.5-48.00047v48.00047m1.5-48.00047v48.00047m1.5-48.00047v48.00047m1.5-48.00047v48.00047m1.5-48.00047v48.00047m1.5-48.00047v48.00047m1.5-48.00047v48.00047m1.5-48.00047v48.00047m1.5-48.00047v48.00047m1.5-48.00047v48.00047m1.5-48.00047v48.00047m1.5-48.00047v48.00047m1.5-48.00047v48.00047m1.5-48.00047v48.00047m1.5-48.00047v48.00047m1.5-48.00047v48.00047m1.5-48.00047v48.00047m1.5-48.00047v48.00047m1.5-48.00047v48.00047m1.5-48.00047v48.00047m1.5-48.00047v48.00047m-35-48.25047h50v48.50047h-50zm50.25-51h-50.5m50.5 1.5h-50.5m50.5 1.5h-50.5m50.5 1.5h-50.5m50.5 1.5h-50.5m50.5 1.5h-50.5m50.5 1.5h-50.5m50.5 1.5h-50.5m50.5 1.5h-50.5m50.5 1.5h-50.5m50.5 1.5h-50.5m50.5 1.5h-50.5m50.5 1.5h-50.5m50.5 1.5h-50.5m50.5 1.5h-50.5m50.5 1.5h-50.5m50.5 1.5h-50.5m50.5 1.5h-50.5m50.5 1.5h-50.5m50.5 1.5h-50.5m50.5 1.5h-50.5m50.5 1.5h-50.5m50.5 1.5h-50.5m50.5 1.5h-50.5m50.5 1.5h-50.5m50.5 1.5h-50.5m50.5 1.5h-50.5m50.5 1.5h-50.5m50.5 1.5h-50.5m50.5 1.5h-50.5m50.5 1.5h-50.5m50.5 1.5h-50.5m50.5 1.5h-50.5m50.5 1.5h-50.5m50.5 1.5h-50.5m36.75-50.75v50.5m1.5-50.5v50.5m1.5-50.5v50.5m1.5-50.5v50.5m1.5-50.5v50.5m1.5-50.5v50.5m1.5-50.5v50.5m1.5-50.5v50.5m1.5-50.5v50.5m1.5-50.5v50.5m-50-50.5v50.5m-1-50.5v50.5m1.5-50.5v50.5m1.5-50.5v50.5m1.5-50.5v50.5m1.5-50.5v50.5m1.5-50.5v50.5m1.5-50.5v50.5m1.5-50.5v50.5m1.5-50.5v50.5m1.5-50.5v50.5m1.5-50.5v50.5m1.5-50.5v50.5m1.5-50.5v50.5m1.5-50.5v50.5m1.5-50.5v50.5m1.5-50.5v50.5m1.5-50.5v50.5m1.5-50.5v50.5m1.5-50.5v50.5m1.5-50.5v50.5m1.5-50.5v50.5m1.5-50.5v50.5m1.5-50.5v50.5m1.5-50.5v50.5m1.5-50.5v50.5m-35-50.75h50v51h-50z" style="fill:#4d4d4d;fill-rule:evenodd;stroke:#575d5e;stroke-width:.5;shape-rendering:crispEdges;clip-path:url(#c)" transform="translate(-135.71299 -114.62448)"/><g id="g131" shape-rendering="crispEdges"><rect id="rect133" fill="#bb1e10" height="10.5" width="104.2" x="64.150002" y="43.400154"/><path id="path135" d="m64.15 54.400181h104.2" fill="none" stroke="#fff"/><text id="text137" line-height="100%" style="font-weight:bold;font-size:5.39302158;font-family:sans-serif;letter-spacing:0;word-spacing:0;fill:#fff" x="130.28897" xml:space="preserve" y="51.321663"><tspan id="tspan139" fill="#fff" font-family="sans-serif" font-size="7.5" font-weight="bold" line-height="100%" x="130.28897" y="51.321663">TMax T5</tspan><tspan id="tspan141" fill="#fff" x="130.28897" y="51.321663"/></text><path id="path143" d="m69.910237 44.650153l-1.049371 3.92001h2.167814v-3.92001zm1.278447 0v3.92001h2.167821l-1.049215-3.92001zm4.480023 0v3.92001h2.320008v-3.92001zm2.480012 0v3.92001h2.428607a2.4000112 2.4000112 0 0 0 -.830473-.551121 1.8000084 1.8000084 0 0 0  .922036-1.568866 1.8000084 1.8000084 0 0 0 -1.800007-1.800023 1.8000084 1.8000084 0 0 0 -.000163 0zm3.760016 0v3.92001h2.320009v-3.92001zm2.480012 0v3.92001h2.428604a2.4000112 2.4000112 0 0 0 -.83047-.551121 1.8000084 1.8000084 0 0 0  .92204-1.568866 1.8000084 1.8000084 0 0 0 -1.80001-1.800023 1.8000084 1.8000084 0 0 0 -.00016 0zm-15.570693 4.07999l-1.049379 3.92001h2.00001l.424058-1.600002h.835937v-2.320008zm2.37063 0v2.320008h.836101l.423909 1.600002h2.000011l-1.049224-3.92001zm4.480023 0v3.92001h2.320008v-3.92001zm2.480012 0v3.92001h.720008a2.4000112 2.4000112 0 0 0  .000155 0 2.4000112 2.4000112 0 0 0  2.400012-2.400002 2.4000112 2.4000112 0 0 0 -.546724-1.520008h-2.573443zm3.760016 0v3.92001h2.320009v-3.92001zm2.480012 0v3.92001h.720004a2.4000112 2.4000112 0 0 0  .00016 0 2.4000112 2.4000112 0 0 0  2.40001-2.400002 2.4000112 2.4000112 0 0 0 -.54671-1.520008z" fill="#fff"/></g><g id="g145" shape-rendering="crispEdges"><circle id="circle147" cx="95.349998" cy="85.70018" fill="#575d5e" r="30.1"/><g id="g149"><path id="path151" d="m65.656713 89.978683a30 30 0 0 1  .348859-10.516218l29.344428 6.237351z" fill="#808000"/><path id="path153" d="m84.59896 57.692404a30 30 0 0 1 21.45318-.01872l-10.70214 28.026132z" fill="#f00"/><path id="path155" d="m68.051162 73.25902a30 30 0 0 1 16.547798-15.566616l10.75104 28.007412z" fill="#ff0"/><circle id="circle157" cx="95.349998" cy="85.699814" fill="#575d5e" r="25" stroke="#333"/><text id="text159" fill="#fff" font-family="sans-serif" font-size="12.5" letter-spacing="0" line-height="125%" word-spacing="0" x="94.922272" xml:space="preserve" y="59.830372"><tspan id="tspan161" fill="#fff" font-family="FreesiaUPC" font-size="7.5" x="94.922272" y="59.830372">I</tspan></text><text id="text163" fill="#fff" font-family="sans-serif" font-size="12.5" letter-spacing="0" line-height="125%" word-spacing="0" x="66.248238" xml:space="preserve" y="86.434021"><tspan id="tspan165" fill="#fff" font-family="FreesiaUPC" font-size="7.5" x="66.248238" y="86.434021">O</tspan></text></g><circle id="circle167" cx="95.349998" cy="85.70018" fill="#575d5e" r="25.25" stroke="#363636" stroke-linecap="round" stroke-linejoin="round" stroke-width=".5"/><rect id="rect169" fill="#575d5e" height="42" rx="21" stroke="#333" stroke-linecap="round" stroke-linejoin="round" stroke-width=".5" width="83" x="74.349998" y="64.700172"/><path id="path171" d="m142.7967 85.250001c0-5.4015-4.37456-9.749989-9.80844-9.749989h-38.466164-.113662-5.602812c-2.330342 0-4.205623 1.4495-4.205623 3.249989v6.5 6.5c0 1.8005 1.875281 3.25 4.205623 3.25h5.602812.113662 38.466164c5.43388 0 9.80844-4.3485 9.80844-9.75z" fill="none" stroke="#363636" stroke-linecap="round" stroke-linejoin="bevel" stroke-width=".5"/><path id="path173" d="m72.599999 85.250001c0 5.4015 4.773202 9.75 10.702247 9.75h41.971484.12402 6.11338c2.5427 0 4.58887-1.4495 4.58887-3.25v-6.5-6.5c0-1.800489-2.04617-3.249989-4.58887-3.249989h-6.11338-.12402-41.971484c-5.929045 0-10.702247 4.348489-10.702247 9.749989z" fill="#fff" stroke="#999" stroke-linecap="round" stroke-linejoin="bevel" stroke-width=".49999997"/><path id="path175" d="m109.34817 78.368491c0-1.173159-.25577-2.118479-.57226-2.118479h-2.85548c-.3165 0-.57226.94532-.57226 2.118479v13.76432c0 1.17318.25576 2.11719.57226 2.11719h2.85548c.31649 0 .57226-.94401.57226-2.11719zm-6.44922 0c0-1.173159-.25573-2.118479-.57227-2.118479h-2.855466c-.31648 0-.57226.94532-.57226 2.118479v13.76432c0 1.17318.25578 2.11719.57226 2.11719h2.855466c.31654 0 .57227-.94401.57227-2.11719zm-6.451176 0c0-1.173159-.25575-2.118479-.57226-2.118479h-2.85547c-.31651 0-.57227.94532-.57227 2.118479v13.76432c0 1.17318.25576 2.11719.57227 2.11719h2.85547c.31651 0 .57226-.94401.57226-2.11719z" fill="#e6e6e6"/><path id="path177" d="m74.992843 91.190271a22.5 22.5 0 0 1 -.680074-5.49007 22.5 22.5 0 0 1  1.09925-6.94678" fill="none" stroke="#999" stroke-linecap="round" stroke-linejoin="round" stroke-width=".5"/></g><g id="g179"/><g id="g181" shape-rendering="crispEdges"><ellipse id="ellipse183" cx="162.05762" cy="112.46744" rx="4.75" ry="2.75" style="overflow:visible;fill:#c7cacc;fill-rule:evenodd;stroke:#333;stroke-width:.49999991;stroke-linecap:round;stroke-linejoin:round"/><text id="text185" line-height="125%" style="font-size:12.5;font-family:sans-serif;letter-spacing:0;word-spacing:0;overflow:visible;fill:#4d4d4d;fill-opacity:.9372549" x="159.66718" xml:space="preserve" y="113.14905"><tspan id="tspan187" fill="#4d4d4d" fill-opacity=".9372549" font-size="1.875" x="159.66718" y="113.14905">TEST</tspan></text></g></g><g id="motorDrive" shape-rendering="crispEdges"><rect id="rect191" fill="#575d5e" height="105" stroke="#333" stroke-width=".80000001" width="105" x="63.75" y="42.999989"/><path id="path193" clip-path="url(#a)" d="m-35.647269-117.88166h-54.30039m54.30039 1.5h-54.30039m54.30039 1.5h-54.30039m54.30039 1.5h-54.30039m54.30039 1.5h-54.30039m54.30039 1.5h-54.30039m54.30039 1.5h-54.30039m54.30039 1.5h-54.30039m54.30039 1.5h-54.30039m54.30039 1.5h-54.30039m54.30039 1.5h-54.30039m54.30039 1.5h-54.30039m54.30039 1.499999h-54.30039m54.30039 1.5h-54.30039m54.30039 1.5h-54.30039m54.30039 1.5h-54.30039m54.30039 1.5h-54.30039m54.30039 1.5h-54.30039m54.30039 1.5h-54.30039m54.30039 1.5h-54.30039m54.30039 1.5h-54.30039m54.30039 1.5h-54.30039m54.30039 1.5h-54.30039m54.30039 1.5h-54.30039m54.30039 1.5h-54.30039m54.30039 1.5h-54.30039m54.30039 1.5h-54.30039m54.30039 1.5h-54.30039m54.30039 1.5h-54.30039m54.30039 1.5h-54.30039m54.30039 1.5h-54.30039m54.30039 1.5h-54.30039m54.30039.500004h-54.30039m54.05039-46.750003v46.500003m-53.80039-46.500003v46.500003m1.5-46.500003v46.500003m1.5-46.500003v46.500003m1.5-46.500003v46.500003m1.5-46.500003v46.500003m1.5-46.500003v46.500003m1.5-46.500003v46.500003m1.5-46.500003v46.500003m1.5-46.500003v46.500003m1.5-46.500003v46.500003m1.5-46.500003v46.500003m1.5-46.500003v46.500003m1.5-46.500003v46.500003m1.5-46.500003v46.500003m1.5-46.500003v46.500003m1.5-46.500003v46.500003m1.5-46.500003v46.500003m1.5-46.500003v46.500003m1.5-46.500003v46.500003m1.5-46.500003v46.500003m1.5-46.500003v46.500003m1.500001-46.500003v46.500003m1.5-46.500003v46.500003m1.5-46.500003v46.500003m1.5-46.500003v46.500003m1.5-46.500003v46.500003m1.5-46.500003v46.500003m1.5-46.500003v46.500003m1.5-46.500003v46.500003m1.5-46.500003v46.500003m1.5-46.500003v46.500003m1.5-46.500003v46.500003m1.5-46.500003v46.500003m1.5-46.500003v46.500003m1.5-46.500003v46.500003m1.5-46.500003v46.500003m1.5-46.500003v46.500003m-54.000001-46.750003h53.80039v47.000003h-53.80039zm.249701 0h-51.600462m51.600462 1.5h-51.600462m51.600462 1.5h-51.600462m51.600462 1.5h-51.600462m51.600462 1.5h-51.600462m51.600462 1.5h-51.600462m51.600462 1.5h-51.600462m51.600462 1.5h-51.600462m51.600462 1.5h-51.600462m51.600462 1.5h-51.600462m51.600462 1.5h-51.600462m51.600462 1.5h-51.600462m51.600462 1.499999h-51.600462m51.600462 1.5h-51.600462m51.600462 1.5h-51.600462m51.600462 1.5h-51.600462m51.600462 1.5h-51.600462m51.600462 1.5h-51.600462m51.600462 1.5h-51.600462m51.600462 1.5h-51.600462m51.600462 1.5h-51.600462m51.600462 1.5h-51.600462m51.600462 1.5h-51.600462m51.600462 1.5h-51.600462m51.600462 1.5h-51.600462m51.600462 1.5h-51.600462m51.600462 1.5h-51.600462m51.600462 1.5h-51.600462m51.600462 1.5h-51.600462m51.600462 1.5h-51.600462m51.600462 1.5h-51.600462m51.600462 1.5h-51.600462m51.600462.500004h-51.600462m37.85046-46.750003v46.500003m1.5-46.500003v46.500003m1.5-46.500003v46.500003m1.500012-46.500003v46.500003m1.5-46.500003v46.500003m1.5-46.500003v46.500003m1.5-46.500003v46.500003m1.49999-46.500003v46.500003m1.5-46.500003v46.500003m1.5-46.500003v46.500003m-51.100462-46.500003v46.500003m-.59969-46.500003v46.500003m.70015-46.500003v46.500003m1.59969-46.500003v46.500003m1.40031-46.500003v46.500003m1.5-46.500003v46.500003m1.5-46.500003v46.500003m1.5-46.500003v46.500003m1.5-46.500003v46.500003m1.5-46.500003v46.500003m1.5-46.500003v46.500003m1.5-46.500003v46.500003m1.5-46.500003v46.500003m1.5-46.500003v46.500003m1.5-46.500003v46.500003m1.5-46.500003v46.500003m1.5-46.500003v46.500003m1.5-46.500003v46.500003m1.5-46.500003v46.500003m1.5-46.500003v46.500003m1.5-46.500003v46.500003m1.5-46.500003v46.500003m1.5-46.500003v46.500003m1.5-46.500003v46.500003m1.5-46.500003v46.500003m1.5-46.500003v46.500003m1.5-46.500003v46.500003m-36.10046-46.750003h51.100462v47.000003h-51.100462zm105.151151-50.99963h-54.30039m54.30039 1.5h-54.30039m54.30039 1.5h-54.30039m54.30039 1.5h-54.30039m54.30039 1.5h-54.30039m54.30039 1.5h-54.30039m54.30039 1.5h-54.30039m54.30039 1.5h-54.30039m54.30039 1.5h-54.30039m54.30039 1.5h-54.30039m54.30039 1.5h-54.30039m54.30039 1.5h-54.30039m54.30039 1.5h-54.30039m54.30039 1.5h-54.30039m54.30039 1.5h-54.30039m54.30039 1.5h-54.30039m54.30039 1.5h-54.30039m54.30039 1.5h-54.30039m54.30039 1.5h-54.30039m54.30039 1.5h-54.30039m54.30039 1.5h-54.30039m54.30039 1.5h-54.30039m54.30039 1.5h-54.30039m54.30039 1.5h-54.30039m54.30039 1.5h-54.30039m54.30039 1.5h-54.30039m54.30039 1.5h-54.30039m54.30039 1.5h-54.30039m54.30039 1.5h-54.30039m54.30039 1.5h-54.30039m54.30039 1.5h-54.30039m54.30039 1.5h-54.30039m54.30039 1.5h-54.30039m54.30039 1.5h-54.30039m54.30039 1.5h-54.30039m54.05039-50.75v50.5m-53.80039-50.5v50.5m1.5-50.5v50.5m1.5-50.5v50.5m1.5-50.5v50.5m1.5-50.5v50.5m1.5-50.5v50.5m1.5-50.5v50.5m1.5-50.5v50.5m1.5-50.5v50.5m1.5-50.5v50.5m1.5-50.5v50.5m1.5-50.5v50.5m1.5-50.5v50.5m1.5-50.5v50.5m1.5-50.5v50.5m1.5-50.5v50.5m1.5-50.5v50.5m1.5-50.5v50.5m1.5-50.5v50.5m1.5-50.5v50.5m1.5-50.5v50.5m1.500001-50.5v50.5m1.5-50.5v50.5m1.5-50.5v50.5m1.5-50.5v50.5m1.5-50.5v50.5m1.5-50.5v50.5m1.5-50.5v50.5m1.5-50.5v50.5m1.5-50.5v50.5m1.5-50.5v50.5m1.5-50.5v50.5m1.5-50.5v50.5m1.5-50.5v50.5m1.5-50.5v50.5m1.5-50.5v50.5m1.5-50.5v50.5m-54.199612-50.75h54.000001v51h-54.000001zm.449312 0h-51.600462m51.600462 1.5h-51.600462m51.600462 1.5h-51.600462m51.600462 1.5h-51.600462m51.600462 1.5h-51.600462m51.600462 1.5h-51.600462m51.600462 1.5h-51.600462m51.600462 1.5h-51.600462m51.600462 1.5h-51.600462m51.600462 1.5h-51.600462m51.600462 1.5h-51.600462m51.600462 1.5h-51.600462m51.600462 1.5h-51.600462m51.600462 1.5h-51.600462m51.600462 1.5h-51.600462m51.600462 1.5h-51.600462m51.600462 1.5h-51.600462m51.600462 1.5h-51.600462m51.600462 1.5h-51.600462m51.600462 1.5h-51.600462m51.600462 1.5h-51.600462m51.600462 1.5h-51.600462m51.600462 1.5h-51.600462m51.600462 1.5h-51.600462m51.600462 1.5h-51.600462m51.600462 1.5h-51.600462m51.600462 1.5h-51.600462m51.600462 1.5h-51.600462m51.600462 1.5h-51.600462m51.600462 1.5h-51.600462m51.600462 1.5h-51.600462m51.600462 1.5h-51.600462m51.600462 1.5h-51.600462m51.600462 1.5h-51.600462m51.600462 1.5h-51.600462m37.85046-50.75v50.5m1.5-50.5v50.5m1.5-50.5v50.5m1.500012-50.5v50.5m1.5-50.5v50.5m1.5-50.5v50.5m1.5-50.5v50.5m1.49999-50.5v50.5m1.5-50.5v50.5m1.5-50.5v50.5m-51.100462-50.5v50.5m-.59969-50.5v50.5m.70015-50.5v50.5m1.5-50.5v50.5m1.5-50.5v50.5m1.5-50.5v50.5m1.5-50.5v50.5m1.5-50.5v50.5m1.5-50.5v50.5m1.5-50.5v50.5m1.5-50.5v50.5m1.5-50.5v50.5m1.5-50.5v50.5m1.5-50.5v50.5m1.5-50.5v50.5m1.5-50.5v50.5m1.5-50.5v50.5m1.5-50.5v50.5m1.5-50.5v50.5m1.5-50.5v50.5m1.5-50.5v50.5m1.5-50.5v50.5m1.5-50.5v50.5m1.5-50.5v50.5m1.5-50.5v50.5m1.5-50.5v50.5m1.5-50.5v50.5m-36.10046-50.75h51.100462v51h-51.100462z" fill="#4d4d4d" fill-rule="evenodd" stroke="#575d5e" stroke-width=".5" transform="translate(204.53427 218.83416)"/><g id="g195"><rect id="rect197" fill="#f00" height="17.5" stroke="#333" stroke-width=".5" width="17.5" x="135" y="59.249985"/><circle id="circle199" cx="143.75" cy="67.999985" fill="none" overflow="visible" r="3.5999999" stroke="#fff"/></g><g id="g201"><rect id="rect203" fill="#007b00" height="17.5" stroke="#333" stroke-width=".5" width="17.5" x="104" y="58.999989"/><text id="text205" line-height="125%" style="font-weight:bold;font-size:10.80000019;font-family:Arial;letter-spacing:0;word-spacing:0;fill:#fff" x="111.23125" xml:space="preserve" y="71.615417"><tspan id="tspan207" x="111.23125" y="71.615417">I</tspan></text></g><g id="g209" fill="none" stroke="#000" stroke-width=".25"><rect id="rect211" height="7" rx=".25" width="3" x="148.34325" y="114.50403"/></g><g id="g213"><rect id="rect215" fill="#5b5e60" height="82.5" rx="1" stroke="#1a1a1a" stroke-width="1.5" width="14.5" x="72" y="57.703625"/><path id="path217" d="m72.75 110.2426c0-.71142.18442 1.8617 1.538571 3.04393 1.354151 1.18221 3.725094.97351 4.808415.97351 1.083323 0 3.472812.2087 4.826961-.97351 1.354152-1.18223 1.835765-3.75532 1.825905-3.04393v17.64494c-1.860146-.40935-.637051 2.07003-3.064317 2.7161-2.427264.64609-9.935535.0324-9.935535.0324z" fill="#333" overflow="visible"/></g><rect id="rect219" height="27.5" style="overflow:visible;fill:#c7c9cc;stroke:#333;stroke-width:.49999997;stroke-linecap:round;stroke-linejoin:round" transform="rotate(90)" width="4" x="138.82999" y="-162"/><path id="path221" d="m107.26668 118.00403h10.96664" style="overflow:visible;fill:none;stroke:#fff;stroke-width:.80000001;stroke-linecap:round;stroke-dasharray:1.60000002 1.60000002"/><g id="g223"><rect id="rect225" fill="#fff" height="6.5" stroke="#333" stroke-width=".5" width="18" x="103.75" y="93.441925"/><path id="path227" d="m107.26668 96.691927h10.96664" style="overflow:visible;fill:none;stroke:#000;stroke-width:.80000001;stroke-linecap:round;stroke-dasharray:1.60000002 1.60000002"/></g><g id="g229"><rect id="rect231" fill="#fff" height="6.5" stroke="#333" stroke-width=".5" width="18" x="134.75" y="93.441925"/><circle id="circle233" cx="137.75" cy="96.691925" fill="none" overflow="visible" r="1.5" stroke="#000" stroke-width=".5"/><path id="path235" d="m143.06862 96.691927h5.61276" style="overflow:visible;fill:none;stroke:#000;stroke-width:.79999995;stroke-linecap:round;stroke-dasharray:1.60000001 1.60000001"/></g><g id="g237"><rect id="rect239" fill="#c7c9cc" height="8.5" rx=".5" stroke="#333" stroke-width=".5" width="18.5" x="134.5" y="113.75403"/><path id="path241" d="m138.26668 125.30477h10.96664" style="overflow:visible;fill:none;stroke:#fff;stroke-width:.80000001;stroke-linecap:round;stroke-dasharray:1.60000002 1.60000002"/></g><g id="g243"><path id="path245" d="m64.149999 54.399986h104.200001" fill="none" stroke="#fff" stroke-width=".99999994"/><rect id="rect247" fill="#bb1e10" height="10.5" width="104.2" x="64.150002" y="43.39999"/><path id="path249" d="m70.771496 44.649989l-1.049378 3.92h2.167821v-3.92zm1.278443 0v3.92h2.167804l-1.049208-3.92zm4.479999 0v3.92h2.32v-3.92zm2.48 0v3.92h2.428595a2.4000002 2.4000002 0 0 0 -.830472-.55109 1.8000001 1.8000001 0 0 0  .922036-1.56891 1.8000001 1.8000001 0 0 0 -1.8-1.8 1.8000001 1.8000001 0 0 0 -.000142 0h-.719999zm3.759999 0v3.92h2.319999v-3.92zm2.479999 0v3.92h2.428596a2.4000002 2.4000002 0 0 0 -.830472-.55109 1.8000001 1.8000001 0 0 0  .922036-1.56891 1.8000001 1.8000001 0 0 0 -1.8-1.8 1.8000001 1.8000001 0 0 0 -.000142 0h-.72zm-15.570618 4.08l-1.049378 3.92h2l .424061-1.59999h.835938v-2.32001zm2.370621 0v2.32001h.836098l.423902 1.59999h1.999999l-1.049217-3.92zm4.479999 0v3.92h2.32v-3.92zm2.48 0v3.92h.719999a2.4000002 2.4000002 0 0 0  .000124 0 2.4000002 2.4000002 0 0 0  2.4-2.4 2.4000002 2.4000002 0 0 0 -.54672-1.52h-2.573439zm3.759999 0v3.92h2.319999v-3.92zm2.479999 0v3.92h.72a2.4000002 2.4000002 0 0 0  .000124 0 2.4000002 2.4000002 0 0 0  2.4-2.4 2.4000002 2.4000002 0 0 0 -.54672-1.52h-2.573422z" fill="#fff" overflow="visible"/><text id="text251" line-height="100%" style="font-weight:bold;font-size:5.39302158;font-family:sans-serif;letter-spacing:0;word-spacing:0;overflow:visible;fill:#fff" x="131.19385" xml:space="preserve" y="51.321499"><tspan id="tspan253" fill="#fff" font-family="sans-serif" font-size="7.5" font-weight="bold" line-height="100%" x="131.19385" y="51.321499">TMax T4</tspan></text></g></g><g id="rockerLever"><rect id="rect257" fill="#616161" height="105" shape-rendering="crispEdges" stroke="#333" stroke-width=".80000001" width="105" x="63.75" y="42.999989"/><path id="path259" d="m-51.35 280h-52.9m52.9 1.5h-52.9m52.9 1.5h-52.9m52.9 1.5h-52.9m52.9 1.5h-52.9m52.9 1.5h-52.9m52.9 1.5h-52.9m52.9 1.5h-52.9m52.9 1.5h-52.9m52.9 1.5h-52.9m52.9 1.5h-52.9m52.9 1.5h-52.9m52.9 1.5h-52.9m52.9 1.5h-52.9m52.9 1.5h-52.9m52.9 1.5h-52.9m52.9 1.5h-52.9m52.9 1.5h-52.9m52.9 1.5h-52.9m52.9 1.5h-52.9m52.9 1.5h-52.9m52.9 1.5h-52.9m52.9 1.5h-52.9m52.9 1.5h-52.9m52.9 1.49999h-52.9m52.9 1.5h-52.9m52.9 1.5h-52.9m52.9 1.5h-52.9m52.9 1.5h-54.5m54.5 1.5h-52.9m52.9 1.5h-52.9m52.9 1.5h-52.9m52.9.70001h-52.9m52.65-46.95v46.7m-52.4-46.7v46.7m1.5-46.7v46.7m1.5-46.7v46.7m1.500001-46.7v46.7m1.5-46.7v46.7m1.5-46.7v46.7m1.5-46.7v46.7m1.5-46.7v46.7m1.5-46.7v46.7m1.5-46.7v46.7m1.5-46.7v46.7m1.5-46.7v46.7m1.5-46.7v46.7m1.5-46.7v46.7m1.5-46.7v46.7m1.5-46.7v46.7m1.5-46.7v46.7m1.5-46.7v46.7m1.5-46.7v46.7m1.5-46.7v46.7m1.5-46.7v46.7m1.5-46.7v46.7m1.5-46.7v46.7m1.5-46.7v46.7m1.5-46.7v46.7m1.5-46.7v46.7m1.5-46.7v46.7m1.5-46.7v46.7m1.5-46.7v46.7m1.5-46.7v46.7m1.5-46.7v46.7m1.5-46.7v46.7m1.5-46.7v46.7m1.5-46.7v46.7m1.5-46.7v46.7m1.5-46.7v46.7m-52.500001-46.95h52.4v47.2h-52.4zm52.65-51h-52.9m52.9 1.5h-52.9m52.9 1.5h-52.9m52.9 1.5h-52.9m52.9 1.5h-52.9m52.9 1.5h-52.9m52.9 1.5h-52.9m52.9 1.5h-52.9m52.9 1.5h-52.9m52.9 1.5h-52.9m52.9 1.5h-52.9m52.9 1.5h-52.9m52.9 1.5h-52.9m52.9 1.5h-52.9m52.9 1.5h-52.9m52.9 1.5h-52.9m52.9 1.5h-52.9m52.9 1.5h-52.9m52.9 1.5h-52.9m52.9 1.5h-52.9m52.9 1.5h-52.9m52.9 1.5h-52.9m52.9 1.5h-52.9m52.9 1.5h-52.9m52.9 1.5h-52.9m52.9 1.5h-52.9m52.9 1.5h-52.9m52.9 1.5h-52.9m52.9 1.5h-52.9m52.9 1.49999h-52.9m52.9 1.5h-52.9m52.9 1.5h-52.9m52.9 1.5h-52.9m52.9 1.50001h-52.9m52.9 1.5h-52.9m52.65-50.75v50.5m-52.4-50.5v50.5m1.5-50.5v50.5m1.5-50.5v50.5m1.500001-50.5v50.5m1.5-50.5v50.5m1.5-50.5v50.5m1.5-50.5v50.5m1.5-50.5v50.5m1.5-50.5v50.5m1.5-50.5v50.5m1.5-50.5v50.5m1.5-50.5v50.5m1.5-50.5v50.5m1.5-50.5v50.5m1.5-50.5v50.5m1.5-50.5v50.5m1.5-50.5v50.5m1.5-50.5v50.5m1.5-50.5v50.5m1.5-50.5v50.5m1.5-50.5v50.5m1.5-50.5v50.5m1.5-50.5v50.5m1.5-50.5v50.5m1.5-50.5v50.5m1.5-50.5v50.5m1.5-50.5v50.5m1.5-50.5v50.5m1.5-50.5v50.5m1.5-50.5v50.5m1.5-50.5v50.5m1.5-50.5v50.5m1.5-50.5v50.5m1.5-50.5v50.5m1.5-50.5v50.5m1.5-50.5v50.5m-52.500001-50.75h52.4v51h-52.4zm.25 51h-52.6m52.6 1.5h-52.6m52.6 1.5h-52.6m52.6 1.5h-52.6m52.6 1.5h-52.6m52.6 1.5h-52.6m52.6 1.5h-52.6m52.6 1.5h-52.6m52.6 1.5h-52.6m52.6 1.5h-52.6m52.6 1.5h-52.6m52.6 1.5h-52.6m52.6 1.5h-52.6m52.6 1.5h-52.6m52.6 1.5h-52.6m52.6 1.5h-52.6m52.6 1.5h-52.6m52.6 1.5h-52.6m52.6 1.5h-52.6m52.6 1.5h-52.6m52.6 1.5h-52.6m52.6 1.5h-52.6m52.6 1.5h-52.6m52.6 1.5h-52.6m52.6 1.5h-52.6m52.6 1.5h-52.6m52.6 1.5h-52.6m52.6 1.5h-52.6m52.6 1.5h-52.6m52.6 1.49999h-52.6m52.6 1.5h-52.6m52.6 1.5h-52.6m52.6.70001h-52.6m38.85-46.95v46.7m1.5-46.7v46.7m1.5-46.7v46.7m1.5-46.7v46.7m1.5-46.7v46.7m1.5-46.7v46.7m1.5-46.7v46.7m1.5-46.7v46.7m1.5-46.7v46.7m1.5-46.7v46.7m-52.1-46.7v46.7m-.4-46.7v46.7m1.5-46.7v46.7m1.5-46.7v46.7m1.5-46.7v46.7m1.5-46.7v46.7m1.5-46.7v46.7m1.5-46.7v46.7m1.5-46.7v46.7m1.5-46.7v46.7m1.5-46.7v46.7m1.5-46.7v46.7m1.5-46.7v46.7m1.5-46.7v46.7m1.5-46.7v46.7m1.5-46.7v46.7m1.5-46.7v46.7m1.5-46.7v46.7m1.5-46.7v46.7m1.5-46.7v46.7m1.5-46.7v46.7m1.5-46.7v46.7m1.5-46.7v46.7m1.5-46.7v46.7m1.5-46.7v46.7m1.5-46.7v46.7m1.5-46.7v46.7m-37.1-46.95h52.1v47.2h-52.1zm52.35-51h-52.6m52.6 1.5h-52.6m52.6 1.5h-52.6m52.6 1.5h-52.6m52.6 1.5h-52.6m52.6 1.5h-52.6m52.6 1.5h-52.6m52.6 1.5h-52.6m52.6 1.5h-52.6m52.6 1.5h-52.6m52.6 1.5h-52.6m52.6 1.5h-52.6m52.6 1.5h-52.6m52.6 1.5h-52.6m52.6 1.5h-52.6m52.6 1.5h-52.6m52.6 1.5h-52.6m52.6 1.5h-52.6m52.6 1.5h-52.6m52.6 1.5h-52.6m52.6 1.5h-52.6m52.6 1.5h-52.6m52.6 1.5h-52.6m52.6 1.5h-52.6m52.6 1.5h-52.6m52.6 1.5h-52.6m52.6 1.5h-52.6m52.6 1.5h-52.6m52.6 1.5h-52.6m52.6 1.49999h-52.6m52.6 1.5h-52.6m52.6 1.5h-52.6m52.6 1.5h-52.6m52.6 1.50001h-52.6m52.6 1.5h-52.6m38.85-50.75v50.5m1.5-50.5v50.5m1.5-50.5v50.5m1.5-50.5v50.5m1.5-50.5v50.5m1.5-50.5v50.5m1.5-50.5v50.5m1.5-50.5v50.5m1.5-50.5v50.5m1.5-50.5v50.5m-52.1-50.5v50.5m-.4-50.5v50.5m1.5-50.5v50.5m1.5-50.5v50.5m1.5-50.5v50.5m1.5-50.5v50.5m1.5-50.5v50.5m1.5-50.5v50.5m1.5-50.5v50.5m1.5-50.5v50.5m1.5-50.5v50.5m1.5-50.5v50.5m1.5-50.5v50.5m1.5-50.5v50.5m1.5-50.5v50.5m1.5-50.5v50.5m1.5-50.5v50.5m1.5-50.5v50.5m1.5-50.5v50.5m1.5-50.5v50.5m1.5-50.5v50.5m1.5-50.5v50.5m1.5-50.5v50.5m1.5-50.5v50.5m1.5-50.5v50.5m1.5-50.5v50.5m1.5-50.5v50.5m-37.1-50.75h52.1v51h-52.1z" style="fill:#4d4d4d;fill-rule:evenodd;stroke:#575d5e;stroke-width:.5;shape-rendering:crispEdges;clip-path:url(#b)" transform="translate(220.25 -178.75001)"/><rect id="rect261" fill="#2b6138" height="7.5" shape-rendering="crispEdges" width="28.25" x="116" y="87.787132"/><rect id="rect263" fill="#ff0" fill-opacity=".58208953" height="7.5" shape-rendering="crispEdges" width="28.25" x="88" y="87.787132"/><g id="g265"/><g id="g267" shape-rendering="crispEdges"><rect id="rect269" fill="#f00" fill-opacity=".39215686" height="7.5" width="56.5" x="87.72757" y="78.749977"/><text id="text271" fill="#fff" font-family="sans-serif" font-size="12.5" letter-spacing="0" line-height="125%" word-spacing="0" x="94.669968" xml:space="preserve" y="85.349098"><tspan id="tspan273" font-size="7.5" x="94.669968" y="85.349098">l</tspan></text><text id="text275" fill="#fff" font-family="sans-serif" font-size="12.5" letter-spacing="0" line-height="125%" word-spacing="0" x="131.90741" xml:space="preserve" y="84.545265"><tspan id="tspan277" font-size="7.5" x="131.90741" y="84.545265">on</tspan></text></g><g id="g279" shape-rendering="crispEdges"><rect id="rect281" fill="#008000" fill-opacity=".39215686" height="7.5" width="56.500004" x="88" y="114.41427"/><circle id="circle283" cx="95.699028" cy="118.16425" fill="none" overflow="visible" r="2.5" stroke="#fff" stroke-width=".5"/><text id="text285" fill="#fff" font-family="sans-serif" font-size="12.5" letter-spacing="0" line-height="125%" word-spacing="0" x="131.90741" xml:space="preserve" y="120.97494"><tspan id="tspan287" font-size="7.5" x="131.90741" y="120.97494">off</tspan></text></g><g id="g289" fill="#d4d5df" shape-rendering="crispEdges"><rect id="rect291" height="43" stroke="#333" stroke-width=".49999997" width="25" x="103.75" y="78.750389"/><rect id="rect293" height="25.200001" rx=".5" stroke="#808080" stroke-width=".5" width="23.5" x="104.5" y="100.56438"/></g><rect id="rect295" height="7" style="fill:#616161;stroke:#333;stroke-width:.5;stroke-linecap:round;stroke-linejoin:bevel;shape-rendering:crispEdges" width="23.5" x="104.5" y="127.65199"/><rect id="rect297" fill="#999" height="4" shape-rendering="crispEdges" width="17.5" x="107.50001" y="129.15196"/><g id="g299" shape-rendering="crispEdges"><rect id="rect301" fill="#bb1e10" height="10.5" width="104.2" x="64.150146" y="43.400394"/><text id="text303" line-height="100%" style="font-weight:bold;font-size:5.39302158;font-family:sans-serif;letter-spacing:0;word-spacing:0;overflow:visible;fill:#fff" x="127.84164" xml:space="preserve" y="51.321903"><tspan id="tspan305" fill="#fff" font-family="sans-serif" font-size="7.5" font-weight="bold" line-height="100%" x="127.84164" y="51.321903">TMax T5</tspan></text><path id="path307" d="m70.287734 44.65039l-1.049378 3.92h2.167821v-3.92zm1.278443 0v3.92h2.167804l-1.049208-3.92zm4.479999 0v3.92h2.32v-3.92zm2.48 0v3.92h2.428595a2.4000002 2.4000002 0 0 0 -.830472-.55109 1.8000001 1.8000001 0 0 0  .922036-1.56891 1.8000001 1.8000001 0 0 0 -1.8-1.8 1.8000001 1.8000001 0 0 0 -.000142 0h-.719999zm3.759999 0v3.92h2.319999v-3.92zm2.479999 0v3.92h2.428596a2.4000002 2.4000002 0 0 0 -.830472-.55109 1.8000001 1.8000001 0 0 0  .922036-1.56891 1.8000001 1.8000001 0 0 0 -1.8-1.8 1.8000001 1.8000001 0 0 0 -.000142 0h-.72zm-15.570618 4.08l-1.049378 3.92h2l .424061-1.59999h.835938v-2.32001zm2.370621 0v2.32001h.836098l.423902 1.59999h1.999999l-1.049217-3.92zm4.479999 0v3.92h2.32v-3.92zm2.48 0v3.92h.719999a2.4000002 2.4000002 0 0 0  .000124 0 2.4000002 2.4000002 0 0 0  2.4-2.4 2.4000002 2.4000002 0 0 0 -.54672-1.52h-2.573439zm3.759999 0v3.92h2.319999v-3.92zm2.479999 0v3.92h.72a2.4000002 2.4000002 0 0 0  .000124 0 2.4000002 2.4000002 0 0 0  2.4-2.4 2.4000002 2.4000002 0 0 0 -.54672-1.52h-2.573422z" fill="#fff" overflow="visible"/><path id="path309" d="m64.150154 54.40039h104.200006" fill="none" stroke="#fff"/></g><rect id="rect311" fill="#d4d5df" height="5" overflow="visible" rx=".5" shape-rendering="crispEdges" stroke="#808080" stroke-width=".5" width="23.5" x="104.5" y="120.80531"/><g id="g313" shape-rendering="crispEdges"><ellipse id="ellipse315" cx="154.75" cy="124.99998" rx="4.75" ry="2.75" style="overflow:visible;fill:#c7cacc;fill-rule:evenodd;stroke:#333;stroke-width:.49999991;stroke-linecap:round;stroke-linejoin:round"/><text id="text317" line-height="125%" style="font-size:12.5;font-family:sans-serif;letter-spacing:0;word-spacing:0;overflow:visible;fill:#4d4d4d;fill-opacity:.9372549" x="152.35956" xml:space="preserve" y="125.68159"><tspan id="tspan319" fill="#4d4d4d" fill-opacity=".9372549" font-size="1.875" x="152.35956" y="125.68159">TEST</tspan></text></g></g></g></svg>