<svg id="svg2" height="268.79999" overflow="visible" shape-rendering="crispEdges" viewBox="0 0 280.79999 268.79999" width="280.79999" xmlns="http://www.w3.org/2000/svg" xmlns:xlink="http://www.w3.org/1999/xlink"><clipPath id="a"><path id="path5" d="m201.46299 166.52349v91.20117h10v5h91v-32.13281h-12.59961v-7h12.59961v-57.06836z" shape-rendering="crispEdges"/></clipPath><clipPath id="b"><path id="path8" d="m624.9809-72.663334v82.351562h15v7.500004h-15v2.84961h134v-2.84961h-15v-7.500004h15v-82.351562zm34.5 37.101562h65v9h-65zm0 13.03711h65v9h-65zm0 22.62695305h65v8.99999995h-65z" shape-rendering="crispEdges"/></clipPath><clipPath id="c"><path id="path11" d="m-149.15805 47.258255v114.400385h15v8h-15v5.29883h139.1992198v-5.29883h-14.9999998v-8h14.9999998v-114.400385z" shape-rendering="crispEdges"/></clipPath><clipPath id="d"><path id="path14" d="m350.76644 48.323227v127.699223h139.19922v-127.699223zm38.51758 19.505859h21v52.000004h-21zm48 0h21v52.000004h-21zm-82.13281.757812h20v100.000002h-20zm34.13281 64.250002h21v10h-21zm48.32617 0h21v10h-21z" shape-rendering="crispEdges"/></clipPath><clipPath id="e"><path id="path17" clip-path="url(#b)" d="m770.45514-26.198454h-78.5m78.5 1.5h-78.5m78.5 1.5h-78.5m78.5 1.5h-78.5m78.5 1.5h-78.5m78.5 1.5h-78.5m78.5 1.5h-78.5m78.5 1.5h-78.5m78.5 1.5h-78.5m78.5 1.5h-78.5m78.5 1.5h-78.5m78.5 1.4999999h-78.5m78.5 1.5h-78.5m78.5 1.5h-78.5m78.5 1.5h-78.5m78.5 1.5h-78.5m78.5 1.499997h-78.5m78.5 1.49999999h-78.5m78.5 1.5h-78.5m78.5 1.50000001h-78.5m78.5 1.5h-78.5m78.5 1.5h-78.5m78.5 1.5h-78.5m78.5 1.5h-78.5m78.5 1.499999h-78.5m78.5 1.5000001h-78.5m78.5 1.5h-78.5m78.5 1.5h-78.5m78.5 1.5h-78.5m78.5 1.5h-78.5m78.5 1.5h-78.5m78.5 1.5h-78.5m78.5 1.5h-78.5m78.5 1.5h-78.5m78.5 1.5h-78.5m64.75-50.749996v50.499996m1.5-50.499996v50.499996m1.5-50.499996v50.499996m1.5-50.499996v50.499996m1.5-50.499996v50.499996m1.5-50.499996v50.499996m1.5-50.499996v50.499996m1.5-50.499996v50.499996m1.5-50.499996v50.499996m1.5-50.499996v50.499996m-78-50.499996v50.499996m1.5-50.499996v50.499996m1.5-50.499996v50.499996m1.5-50.499996v50.499996m1.5-50.499996v50.499996m1.5-50.499996v50.499996m1.5-50.499996v50.499996m1.5-50.499996v50.499996m1.5-50.499996v50.499996m1.5-50.499996v50.499996m1.5-50.499996v50.499996m1.5-50.499996v50.499996m1.5-50.499996v50.499996m1.5-50.499996v50.499996m1.5-50.499996v50.499996m1.5-50.499996v50.499996m1.5-50.499996v50.499996m1.5-50.499996v50.499996m1.5-50.499996v50.499996m1.5-50.499996v50.499996m1.5-50.499996v50.499996m1.5-50.499996v50.499996m1.5-50.499996v50.499996m1.5-50.499996v50.499996m1.5-50.499996v50.499996m1.5-50.499996v50.499996m1.5-50.499996v50.499996m1.5-50.499996v50.499996m1.5-50.499996v50.499996m1.5-50.499996v50.499996m1.5-50.499996v50.499996m1.5-50.499996v50.499996m1.5-50.499996v50.499996m1.5-50.499996v50.499996m1.5-50.499996v50.499996m1.5-50.499996v50.499996m1.5-50.499996v50.499996m1.5-50.499996v50.499996m1.5-50.499996v50.499996m1.5-50.499996v50.499996m1.5-50.499996v50.499996m1.5-50.499996v50.499996m1.5-50.499996v50.499996m-63-50.749996h78v50.999996h-78zm .24972 0h-78.5m78.5 1.5h-78.5m78.5 1.5h-78.5m78.5 1.5h-78.5m78.5 1.5h-78.5m78.5 1.5h-78.5m78.5 1.5h-78.5m78.5 1.5h-78.5m78.5 1.5h-78.5m78.5 1.5h-78.5m78.5 1.5h-78.5m78.5 1.4999999h-78.5m78.5 1.5h-78.5m78.5 1.5h-78.5m78.5 1.5h-78.5m78.5 1.5h-78.5m78.5 1.499997h-78.5m78.5 1.49999999h-78.5m78.5 1.5h-78.5m78.5 1.50000001h-78.5m78.5 1.5h-78.5m78.5 1.5h-78.5m78.5 1.5h-78.5m78.5 1.5h-78.5m78.5 1.499999h-78.5m78.5 1.5000001h-78.5m78.5 1.5h-78.5m78.5 1.5h-78.5m78.5 1.5h-78.5m78.5 1.5h-78.5m78.5 1.5h-78.5m78.5 1.5h-78.5m78.5 1.5h-78.5m78.5 1.5h-78.5m78.5 1.5h-78.5m64.75-50.749996v50.499996m1.5-50.499996v50.499996m1.5-50.499996v50.499996m1.5-50.499996v50.499996m1.5-50.499996v50.499996m1.5-50.499996v50.499996m1.5-50.499996v50.499996m1.5-50.499996v50.499996m1.5-50.499996v50.499996m1.5-50.499996v50.499996m-78-50.499996v50.499996m1.5-50.499996v50.499996m1.5-50.499996v50.499996m1.5-50.499996v50.499996m1.5-50.499996v50.499996m1.5-50.499996v50.499996m1.5-50.499996v50.499996m1.5-50.499996v50.499996m1.5-50.499996v50.499996m1.5-50.499996v50.499996m1.5-50.499996v50.499996m1.5-50.499996v50.499996m1.5-50.499996v50.499996m1.5-50.499996v50.499996m1.5-50.499996v50.499996m1.5-50.499996v50.499996m1.5-50.499996v50.499996m1.5-50.499996v50.499996m1.5-50.499996v50.499996m1.5-50.499996v50.499996m1.5-50.499996v50.499996m1.5-50.499996v50.499996m1.5-50.499996v50.499996m1.5-50.499996v50.499996m1.5-50.499996v50.499996m1.5-50.499996v50.499996m1.5-50.499996v50.499996m1.5-50.499996v50.499996m1.5-50.499996v50.499996m1.5-50.499996v50.499996m1.5-50.499996v50.499996m1.5-50.499996v50.499996m1.5-50.499996v50.499996m1.5-50.499996v50.499996m1.5-50.499996v50.499996m1.5-50.499996v50.499996m1.5-50.499996v50.499996m1.5-50.499996v50.499996m1.5-50.499996v50.499996m1.5-50.499996v50.499996m1.5-50.499996v50.499996m1.5-50.499996v50.499996m1.5-50.499996v50.499996m-63-50.749996h78v50.999996h-78zm156.25028-50.999919h-78.5m78.5 1.5h-78.5m78.5 1.5h-78.5m78.5 1.5h-78.5m78.5 1.5h-78.5m78.5 1.5h-78.5m78.5 1.5h-78.5m78.5 1.5h-78.5m78.5 1.5h-78.5m78.5 1.5h-78.5m78.5 1.5h-78.5m78.5 1.5h-78.5m78.5 1.5h-78.5m78.5 1.5h-78.5m78.5 1.5h-78.5m78.5 1.5h-78.5m78.5 1.5h-78.5m78.5 1.5h-78.5m78.5 1.5h-78.5m78.5 1.5h-78.5m78.5 1.5h-78.5m78.5 1.5h-78.5m78.5 1.499999h-78.5m78.5 1.5h-78.5m78.5 1.5h-78.5m78.5 1.5h-78.5m78.5 1.5h-78.5m78.5 1.5h-78.5m78.5 1.5h-78.5m78.5 1.5h-78.5m78.5 1.5h-78.5m78.5 1.5h-78.5m78.5 1.5h-78.5m78.5 1.5h-78.5m78.5 1.5h-78.5m64.75-50.749999v50.499999m1.5-50.499999v50.499999m1.5-50.499999v50.499999m1.5-50.499999v50.499999m1.5-50.499999v50.499999m1.5-50.499999v50.499999m1.5-50.499999v50.499999m1.5-50.499999v50.499999m1.5-50.499999v50.499999m1.5-50.499999v50.499999m-78-50.499999v50.499999m1.5-50.499999v50.499999m1.5-50.499999v50.499999m1.5-50.499999v50.499999m1.5-50.499999v50.499999m1.5-50.499999v50.499999m1.5-50.499999v50.499999m1.5-50.499999v50.499999m1.5-50.499999v50.499999m1.5-50.499999v50.499999m1.5-50.499999v50.499999m1.5-50.499999v50.499999m1.5-50.499999v50.499999m1.5-50.499999v50.499999m1.5-50.499999v50.499999m1.5-50.499999v50.499999m1.5-50.499999v50.499999m1.5-50.499999v50.499999m1.5-50.499999v50.499999m1.5-50.499999v50.499999m1.5-50.499999v50.499999m1.5-50.499999v50.499999m1.5-50.499999v50.499999m1.5-50.499999v50.499999m1.5-50.499999v50.499999m1.5-50.499999v50.499999m1.5-50.499999v50.499999m1.5-50.499999v50.499999m1.5-50.499999v50.499999m1.5-50.499999v50.499999m1.5-50.499999v50.499999m1.5-50.499999v50.499999m1.5-50.499999v50.499999m1.5-50.499999v50.499999m1.5-50.499999v50.499999m1.5-50.499999v50.499999m1.5-50.499999v50.499999m1.5-50.499999v50.499999m1.5-50.499999v50.499999m1.5-50.499999v50.499999m1.5-50.499999v50.499999m1.5-50.499999v50.499999m1.5-50.499999v50.499999m-63-50.749999h78v50.999999h-78zm .24972 0h-78.5m78.5 1.5h-78.5m78.5 1.5h-78.5m78.5 1.5h-78.5m78.5 1.5h-78.5m78.5 1.5h-78.5m78.5 1.5h-78.5m78.5 1.5h-78.5m78.5 1.5h-78.5m78.5 1.5h-78.5m78.5 1.5h-78.5m78.5 1.5h-78.5m78.5 1.5h-78.5m78.5 1.5h-78.5m78.5 1.5h-78.5m78.5 1.5h-78.5m78.5 1.5h-78.5m78.5 1.5h-78.5m78.5 1.5h-78.5m78.5 1.5h-78.5m78.5 1.5h-78.5m78.5 1.5h-78.5m78.5 1.499999h-78.5m78.5 1.5h-78.5m78.5 1.5h-78.5m78.5 1.5h-78.5m78.5 1.5h-78.5m78.5 1.5h-78.5m78.5 1.5h-78.5m78.5 1.5h-78.5m78.5 1.5h-78.5m78.5 1.5h-78.5m78.5 1.5h-78.5m78.5 1.5h-78.5m78.5 1.5h-78.5m64.75-50.749999v50.499999m1.5-50.499999v50.499999m1.5-50.499999v50.499999m1.5-50.499999v50.499999m1.5-50.499999v50.499999m1.5-50.499999v50.499999m1.5-50.499999v50.499999m1.5-50.499999v50.499999m1.5-50.499999v50.499999m1.5-50.499999v50.499999m-78-50.499999v50.499999m1.5-50.499999v50.499999m1.5-50.499999v50.499999m1.5-50.499999v50.499999m1.5-50.499999v50.499999m1.5-50.499999v50.499999m1.5-50.499999v50.499999m1.5-50.499999v50.499999m1.5-50.499999v50.499999m1.5-50.499999v50.499999m1.5-50.499999v50.499999m1.5-50.499999v50.499999m1.5-50.499999v50.499999m1.5-50.499999v50.499999m1.5-50.499999v50.499999m1.5-50.499999v50.499999m1.5-50.499999v50.499999m1.5-50.499999v50.499999m1.5-50.499999v50.499999m1.5-50.499999v50.499999m1.5-50.499999v50.499999m1.5-50.499999v50.499999m1.5-50.499999v50.499999m1.5-50.499999v50.499999m1.5-50.499999v50.499999m1.5-50.499999v50.499999m1.5-50.499999v50.499999m1.5-50.499999v50.499999m1.5-50.499999v50.499999m1.5-50.499999v50.499999m1.5-50.499999v50.499999m1.5-50.499999v50.499999m1.5-50.499999v50.499999m1.5-50.499999v50.499999m1.5-50.499999v50.499999m1.5-50.499999v50.499999m1.5-50.499999v50.499999m1.5-50.499999v50.499999m1.5-50.499999v50.499999m1.5-50.499999v50.499999m1.5-50.499999v50.499999m1.5-50.499999v50.499999m1.5-50.499999v50.499999m-63-50.749999h78v50.999999h-78z" shape-rendering="crispEdges" transform="translate(-603.34022 424.89747)"/></clipPath><clipPath id="f"><path id="path20" clip-path="url(#d)" d="m498.02699 134.03527h-78.5m78.5 1.5h-78.5m78.5 1.5h-78.5m78.5 1.5h-78.5m78.5 1.5h-78.5m78.5 1.5h-78.5m78.5 1.5h-78.5m78.5 1.5h-78.5m78.5 1.5h-78.5m78.5 1.5h-78.5m78.5 1.5h-78.5m78.5 1.5h-78.5m78.5 1.5h-78.5m78.5 1.5h-78.5m78.5 1.5h-78.5m78.5 1.5h-78.5m78.5 1.5h-78.5m78.5 1.5h-78.5m78.5 1.5h-78.5m78.5 1.5h-78.5m78.5 1.5h-78.5m78.5 1.5h-78.5m78.5 1.5h-78.5m78.5 1.5h-78.5m78.5 1.5h-78.5m78.5 1.5h-78.5m78.5 1.5h-78.5m78.5 1.5h-78.5m78.5 1.5h-78.5m78.5 1.5h-78.5m78.5 1.5h-78.5m78.5 1.5h-78.5m78.5 1.5h-78.5m78.5 1.5h-78.5m78.5 1.5h-78.5m64.75-50.75v50.5m1.5-50.5v50.5m1.5-50.5v50.5m1.5-50.5v50.5m1.5-50.5v50.5m1.5-50.5v50.5m1.5-50.5v50.5m1.5-50.5v50.5m1.5-50.5v50.5m1.5-50.5v50.5m-78-50.5v50.5m1.5-50.5v50.5m1.5-50.5v50.5m1.5-50.5v50.5m1.5-50.5v50.5m1.5-50.5v50.5m1.5-50.5v50.5m1.5-50.5v50.5m1.5-50.5v50.5m1.5-50.5v50.5m1.5-50.5v50.5m1.5-50.5v50.5m1.5-50.5v50.5m1.5-50.5v50.5m1.5-50.5v50.5m1.5-50.5v50.5m1.5-50.5v50.5m1.5-50.5v50.5m1.5-50.5v50.5m1.5-50.5v50.5m1.5-50.5v50.5m1.5-50.5v50.5m1.5-50.5v50.5m1.5-50.5v50.5m1.5-50.5v50.5m1.5-50.5v50.5m1.5-50.5v50.5m1.5-50.5v50.5m1.5-50.5v50.5m1.5-50.5v50.5m1.5-50.5v50.5m1.5-50.5v50.5m1.5-50.5v50.5m1.5-50.5v50.5m1.5-50.5v50.5m1.5-50.5v50.5m1.5-50.5v50.5m1.5-50.5v50.5m1.5-50.5v50.5m1.5-50.5v50.5m1.5-50.5v50.5m1.5-50.5v50.5m1.5-50.5v50.5m-63-50.75h78v51h-78zm .25001 0h-78.5m78.5 1.5h-78.5m78.5 1.5h-78.5m78.5 1.5h-78.5m78.5 1.5h-78.5m78.5 1.5h-78.5m78.5 1.5h-78.5m78.5 1.5h-78.5m78.5 1.5h-78.5m78.5 1.5h-78.5m78.5 1.5h-78.5m78.5 1.5h-78.5m78.5 1.5h-78.5m78.5 1.5h-78.5m78.5 1.5h-78.5m78.5 1.5h-78.5m78.5 1.5h-78.5m78.5 1.5h-78.5m78.5 1.5h-78.5m78.5 1.5h-78.5m78.5 1.5h-78.5m78.5 1.5h-78.5m78.5 1.5h-78.5m78.5 1.5h-78.5m78.5 1.5h-78.5m78.5 1.5h-78.5m78.5 1.5h-78.5m78.5 1.5h-78.5m78.5 1.5h-78.5m78.5 1.5h-78.5m78.5 1.5h-78.5m78.5 1.5h-78.5m78.5 1.5h-78.5m78.5 1.5h-78.5m78.5 1.5h-78.5m64.75-50.75v50.5m1.5-50.5v50.5m1.5-50.5v50.5m1.5-50.5v50.5m1.5-50.5v50.5m1.5-50.5v50.5m1.5-50.5v50.5m1.5-50.5v50.5m1.5-50.5v50.5m1.5-50.5v50.5m-78-50.5v50.5m1.5-50.5v50.5m1.5-50.5v50.5m1.5-50.5v50.5m1.5-50.5v50.5m1.5-50.5v50.5m1.5-50.5v50.5m1.5-50.5v50.5m1.5-50.5v50.5m1.5-50.5v50.5m1.5-50.5v50.5m1.5-50.5v50.5m1.5-50.5v50.5m1.5-50.5v50.5m1.5-50.5v50.5m1.5-50.5v50.5m1.5-50.5v50.5m1.5-50.5v50.5m1.5-50.5v50.5m1.5-50.5v50.5m1.5-50.5v50.5m1.5-50.5v50.5m1.5-50.5v50.5m1.5-50.5v50.5m1.5-50.5v50.5m1.5-50.5v50.5m1.5-50.5v50.5m1.5-50.5v50.5m1.5-50.5v50.5m1.5-50.5v50.5m1.5-50.5v50.5m1.5-50.5v50.5m1.5-50.5v50.5m1.5-50.5v50.5m1.5-50.5v50.5m1.5-50.5v50.5m1.5-50.5v50.5m1.5-50.5v50.5m1.5-50.5v50.5m1.5-50.5v50.5m1.5-50.5v50.5m1.5-50.5v50.5m1.5-50.5v50.5m-63-50.75h78v51h-78zm156.24999-50.899997h-78.5m78.5 1.5h-78.5m78.5 1.5h-78.5m78.5 1.5h-78.5m78.5 1.5h-78.5m78.5 1.5h-78.5m78.5 1.5h-78.5m78.5 1.5h-78.5m78.5 1.5h-78.5m78.5 1.5h-78.5m78.5 1.5h-78.5m78.5 1.5h-78.5m78.5 1.499997h-78.5m78.5 1.5h-78.5m78.5 1.5h-78.5m78.5 1.5h-78.5m78.5 1.5h-78.5m78.5 1.5h-78.5m78.5 1.5h-78.5m78.5 1.5h-78.5m78.5 1.5h-78.5m78.5 1.5h-78.5m78.5 1.5h-78.5m78.5 1.5h-78.5m78.5 1.5h-78.5m78.5 1.5h-78.5m78.5 1.5h-78.5m78.5 1.5h-78.5m78.5 1.5h-78.5m78.5 1.5h-78.5m78.5 1.5h-78.5m78.5 1.5h-78.5m78.5 1.5h-78.5m78.5 1.5h-78.5m78.5 1.5h-78.5m64.75-50.749997v50.499997m1.5-50.499997v50.499997m1.5-50.499997v50.499997m1.5-50.499997v50.499997m1.5-50.499997v50.499997m1.5-50.499997v50.499997m1.5-50.499997v50.499997m1.5-50.499997v50.499997m1.5-50.499997v50.499997m1.5-50.499997v50.499997m-78-50.499997v50.499997m1.5-50.499997v50.499997m1.5-50.499997v50.499997m1.5-50.499997v50.499997m1.5-50.499997v50.499997m1.5-50.499997v50.499997m1.5-50.499997v50.499997m1.5-50.499997v50.499997m1.5-50.499997v50.499997m1.5-50.499997v50.499997m1.5-50.499997v50.499997m1.5-50.499997v50.499997m1.5-50.499997v50.499997m1.5-50.499997v50.499997m1.5-50.499997v50.499997m1.5-50.499997v50.499997m1.5-50.499997v50.499997m1.5-50.499997v50.499997m1.5-50.499997v50.499997m1.5-50.499997v50.499997m1.5-50.499997v50.499997m1.5-50.499997v50.499997m1.5-50.499997v50.499997m1.5-50.499997v50.499997m1.5-50.499997v50.499997m1.5-50.499997v50.499997m1.5-50.499997v50.499997m1.5-50.499997v50.499997m1.5-50.499997v50.499997m1.5-50.499997v50.499997m1.5-50.499997v50.499997m1.5-50.499997v50.499997m1.5-50.499997v50.499997m1.5-50.499997v50.499997m1.5-50.499997v50.499997m1.5-50.499997v50.499997m1.5-50.499997v50.499997m1.5-50.499997v50.499997m1.5-50.499997v50.499997m1.5-50.499997v50.499997m1.5-50.499997v50.499997m1.5-50.499997v50.499997m1.5-50.499997v50.499997m-63-50.749997h78v50.999997h-78zm78.25-50.999543h-78.5m78.5 1.5h-78.5m78.5 1.5h-78.5m78.5 1.5h-78.5m78.5 1.5h-78.5m78.5 1.5h-78.5m78.5 1.5h-78.5m78.5 1.5h-78.5m78.5 1.5h-78.5m78.5 1.5h-78.5m78.5 1.5h-78.5m78.5 1.5h-78.5m78.5 1.5h-78.5m78.5 1.5h-78.5m78.5 1.5h-78.5m78.5 1.5h-78.5m78.5 1.500003h-78.5m78.5 1.5h-78.5m78.5 1.5h-78.5m78.5 1.5h-78.5m78.5 1.5h-78.5m78.5 1.5h-78.5m78.5 1.5h-78.5m78.5 1.5h-78.5m78.5 1.5h-78.5m78.5 1.5h-78.5m78.5 1.5h-78.5m78.5 1.5h-78.5m78.5 1.5h-78.5m78.5 1.5h-78.5m78.5 1.5h-78.5m78.5 1.5h-78.5m78.5 1.5h-78.5m78.5 1.5h-78.5m78.5 1.5h-78.5m64.75-50.750003v50.500003m1.5-50.500003v50.500003m1.5-50.500003v50.500003m1.5-50.500003v50.500003m1.5-50.500003v50.500003m1.5-50.500003v50.500003m1.5-50.500003v50.500003m1.5-50.500003v50.500003m1.5-50.500003v50.500003m1.5-50.500003v50.500003m-78-50.500003v50.500003m1.5-50.500003v50.500003m1.5-50.500003v50.500003m1.5-50.500003v50.500003m1.5-50.500003v50.500003m1.5-50.500003v50.500003m1.5-50.500003v50.500003m1.5-50.500003v50.500003m1.5-50.500003v50.500003m1.5-50.500003v50.500003m1.5-50.500003v50.500003m1.5-50.500003v50.500003m1.5-50.500003v50.500003m1.5-50.500003v50.500003m1.5-50.500003v50.500003m1.5-50.500003v50.500003m1.5-50.500003v50.500003m1.5-50.500003v50.500003m1.5-50.500003v50.500003m1.5-50.500003v50.500003m1.5-50.500003v50.500003m1.5-50.500003v50.500003m1.5-50.500003v50.500003m1.5-50.500003v50.500003m1.5-50.500003v50.500003m1.5-50.500003v50.500003m1.5-50.500003v50.500003m1.5-50.500003v50.500003m1.5-50.500003v50.500003m1.5-50.500003v50.500003m1.5-50.500003v50.500003m1.5-50.500003v50.500003m1.5-50.500003v50.500003m1.5-50.500003v50.500003m1.5-50.500003v50.500003m1.5-50.500003v50.500003m1.5-50.500003v50.500003m1.5-50.500003v50.500003m1.5-50.500003v50.500003m1.5-50.500003v50.500003m1.5-50.500003v50.500003m1.5-50.500003v50.500003m1.5-50.500003v50.500003m-63-50.750003h78v51.000003h-78zm .25001 50.999543h-78.5m78.5 1.5h-78.5m78.5 1.5h-78.5m78.5 1.5h-78.5m78.5 1.5h-78.5m78.5 1.5h-78.5m78.5 1.5h-78.5m78.5 1.5h-78.5m78.5 1.5h-78.5m78.5 1.5h-78.5m78.5 1.5h-78.5m78.5 1.5h-78.5m78.5 1.499997h-78.5m78.5 1.5h-78.5m78.5 1.5h-78.5m78.5 1.5h-78.5m78.5 1.5h-78.5m78.5 1.5h-78.5m78.5 1.5h-78.5m78.5 1.5h-78.5m78.5 1.5h-78.5m78.5 1.5h-78.5m78.5 1.5h-78.5m78.5 1.5h-78.5m78.5 1.5h-78.5m78.5 1.5h-78.5m78.5 1.5h-78.5m78.5 1.5h-78.5m78.5 1.5h-78.5m78.5 1.5h-78.5m78.5 1.5h-78.5m78.5 1.5h-78.5m78.5 1.5h-78.5m78.5 1.5h-78.5m78.5 1.5h-78.5m64.75-50.749997v50.499997m1.5-50.499997v50.499997m1.5-50.499997v50.499997m1.5-50.499997v50.499997m1.5-50.499997v50.499997m1.5-50.499997v50.499997m1.5-50.499997v50.499997m1.5-50.499997v50.499997m1.5-50.499997v50.499997m1.5-50.499997v50.499997m-78-50.499997v50.499997m1.5-50.499997v50.499997m1.5-50.499997v50.499997m1.5-50.499997v50.499997m1.5-50.499997v50.499997m1.5-50.499997v50.499997m1.5-50.499997v50.499997m1.5-50.499997v50.499997m1.5-50.499997v50.499997m1.5-50.499997v50.499997m1.5-50.499997v50.499997m1.5-50.499997v50.499997m1.5-50.499997v50.499997m1.5-50.499997v50.499997m1.5-50.499997v50.499997m1.5-50.499997v50.499997m1.5-50.499997v50.499997m1.5-50.499997v50.499997m1.5-50.499997v50.499997m1.5-50.499997v50.499997m1.5-50.499997v50.499997m1.5-50.499997v50.499997m1.5-50.499997v50.499997m1.5-50.499997v50.499997m1.5-50.499997v50.499997m1.5-50.499997v50.499997m1.5-50.499997v50.499997m1.5-50.499997v50.499997m1.5-50.499997v50.499997m1.5-50.499997v50.499997m1.5-50.499997v50.499997m1.5-50.499997v50.499997m1.5-50.499997v50.499997m1.5-50.499997v50.499997m1.5-50.499997v50.499997m1.5-50.499997v50.499997m1.5-50.499997v50.499997m1.5-50.499997v50.499997m1.5-50.499997v50.499997m1.5-50.499997v50.499997m1.5-50.499997v50.499997m1.5-50.499997v50.499997m1.5-50.499997v50.499997m-63-50.749997h78v50.999997h-78zm78.25-50.999543h-78.5m78.5 1.5h-78.5m78.5 1.5h-78.5m78.5 1.5h-78.5m78.5 1.5h-78.5m78.5 1.5h-78.5m78.5 1.5h-78.5m78.5 1.5h-78.5m78.5 1.5h-78.5m78.5 1.5h-78.5m78.5 1.5h-78.5m78.5 1.5h-78.5m78.5 1.5h-78.5m78.5 1.5h-78.5m78.5 1.5h-78.5m78.5 1.5h-78.5m78.5 1.500003h-78.5m78.5 1.5h-78.5m78.5 1.5h-78.5m78.5 1.5h-78.5m78.5 1.5h-78.5m78.5 1.5h-78.5m78.5 1.5h-78.5m78.5 1.5h-78.5m78.5 1.5h-78.5m78.5 1.5h-78.5m78.5 1.5h-78.5m78.5 1.5h-78.5m78.5 1.5h-78.5m78.5 1.5h-78.5m78.5 1.5h-78.5m78.5 1.5h-78.5m78.5 1.5h-78.5m78.5 1.5h-78.5m78.5 1.5h-78.5m64.75-50.750003v50.500003m1.5-50.500003v50.500003m1.5-50.500003v50.500003m1.5-50.500003v50.500003m1.5-50.500003v50.500003m1.5-50.500003v50.500003m1.5-50.500003v50.500003m1.5-50.500003v50.500003m1.5-50.500003v50.500003m1.5-50.500003v50.500003m-78-50.500003v50.500003m1.5-50.500003v50.500003m1.5-50.500003v50.500003m1.5-50.500003v50.500003m1.5-50.500003v50.500003m1.5-50.500003v50.500003m1.5-50.500003v50.500003m1.5-50.500003v50.500003m1.5-50.500003v50.500003m1.5-50.500003v50.500003m1.5-50.500003v50.500003m1.5-50.500003v50.500003m1.5-50.500003v50.500003m1.5-50.500003v50.500003m1.5-50.500003v50.500003m1.5-50.500003v50.500003m1.5-50.500003v50.500003m1.5-50.500003v50.500003m1.5-50.500003v50.500003m1.5-50.500003v50.500003m1.5-50.500003v50.500003m1.5-50.500003v50.500003m1.5-50.500003v50.500003m1.5-50.500003v50.500003m1.5-50.500003v50.500003m1.5-50.500003v50.500003m1.5-50.500003v50.500003m1.5-50.500003v50.500003m1.5-50.500003v50.500003m1.5-50.500003v50.500003m1.5-50.500003v50.500003m1.5-50.500003v50.500003m1.5-50.500003v50.500003m1.5-50.500003v50.500003m1.5-50.500003v50.500003m1.5-50.500003v50.500003m1.5-50.500003v50.500003m1.5-50.500003v50.500003m1.5-50.500003v50.500003m1.5-50.500003v50.500003m1.5-50.500003v50.500003m1.5-50.500003v50.500003m1.5-50.500003v50.500003m-63-50.750003h78v51.000003h-78z" shape-rendering="crispEdges" transform="translate(100.17118 26.500042)"/></clipPath><clipPath id="g"><path id="path23" clip-path="url(#c)" d="m2.5050011 34.08h-78.5000001m78.5000001 1.5h-78.5000001m78.5000001 1.5h-78.5000001m78.5000001 1.5h-78.5000001m78.5000001 1.5h-78.5000001m78.5000001 1.5h-78.5000001m78.5000001 1.5h-78.5000001m78.5000001 1.5h-78.5000001m78.5000001 1.5h-78.5000001m78.5000001 1.5h-78.5000001m78.5000001 1.5h-78.5000001m78.5000001 1.5h-78.5000001m78.5000001 1.5h-78.5000001m78.5000001 1.5h-78.5000001m78.5000001 1.5h-78.5000001m78.5000001 1.5h-78.5000001m78.5000001 1.5h-78.5000001m78.5000001 1.5h-78.5000001m78.5000001 1.5h-78.5000001m78.5000001 1.5h-78.5000001m78.5000001 1.5h-78.5000001m78.5000001 1.5h-78.5000001m78.5000001 1.5h-78.5000001m78.5000001 1.5h-78.5000001m78.5000001 1.5h-78.5000001m78.5000001 1.5h-78.5000001m78.5000001 1.5h-78.5000001m78.5000001 1.5h-78.5000001m78.5000001 1.5h-78.5000001m78.5000001 1.5h-78.5000001m78.5000001 1.5h-78.5000001m78.5000001 1.5h-78.5000001m78.5000001 1.5h-78.5000001m78.5000001 1.5h-78.5000001m78.5000001 1.5h-78.5000001m64.75-50.75v50.5m1.5000001-50.5v50.5m1.5-50.5v50.5m1.5-50.5v50.5m1.5-50.5v50.5m1.5-50.5v50.5m1.5-50.5v50.5m1.49999999-50.5v50.5m1.5-50.5v50.5m1.50000001-50.5v50.5m-78.0000001-50.5v50.5m1.5-50.5v50.5m1.5-50.5v50.5m1.5-50.5v50.5m1.5-50.5v50.5m1.5-50.5v50.5m1.5-50.5v50.5m1.5-50.5v50.5m1.5-50.5v50.5m1.5-50.5v50.5m1.5-50.5v50.5m1.5-50.5v50.5m1.5-50.5v50.5m1.5-50.5v50.5m1.5-50.5v50.5m1.5-50.5v50.5m1.5-50.5v50.5m1.5-50.5v50.5m1.5-50.5v50.5m1.5-50.5v50.5m1.5-50.5v50.5m1.5-50.5v50.5m1.5-50.5v50.5m1.5-50.5v50.5m1.5-50.5v50.5m1.5-50.5v50.5m1.5-50.5v50.5m1.5-50.5v50.5m1.5-50.5v50.5m1.5-50.5v50.5m1.5-50.5v50.5m1.5-50.5v50.5m1.5-50.5v50.5m1.5-50.5v50.5m1.5-50.5v50.5m1.5-50.5v50.5m1.5-50.5v50.5m1.5-50.5v50.5m1.5-50.5v50.5m1.5-50.5v50.5m1.5-50.5v50.5m1.5-50.5v50.5m1.5-50.5v50.5m-63-50.75h78.0000001v51h-78.0000001zm.24983 0h-78.500001m78.500001 1.5h-78.500001m78.500001 1.5h-78.500001m78.500001 1.5h-78.500001m78.500001 1.5h-78.500001m78.500001 1.5h-78.500001m78.500001 1.5h-78.500001m78.500001 1.5h-78.500001m78.500001 1.5h-78.500001m78.500001 1.5h-78.500001m78.500001 1.5h-78.500001m78.500001 1.5h-78.500001m78.500001 1.5h-78.500001m78.500001 1.5h-78.500001m78.500001 1.5h-78.500001m78.500001 1.5h-78.500001m78.500001 1.5h-78.500001m78.500001 1.5h-78.500001m78.500001 1.5h-78.500001m78.500001 1.5h-78.500001m78.500001 1.5h-78.500001m78.500001 1.5h-78.500001m78.500001 1.5h-78.500001m78.500001 1.5h-78.500001m78.500001 1.5h-78.500001m78.500001 1.5h-78.500001m78.500001 1.5h-78.500001m78.500001 1.5h-78.500001m78.500001 1.5h-78.500001m78.500001 1.5h-78.500001m78.500001 1.5h-78.500001m78.500001 1.5h-78.500001m78.500001 1.5h-78.500001m78.500001 1.5h-78.500001m78.500001 1.5h-78.500001m64.750001-50.75v50.5m1.5-50.5v50.5m1.5-50.5v50.5m1.5-50.5v50.5m1.5-50.5v50.5m1.5-50.5v50.5m1.5-50.5v50.5m1.5-50.5v50.5m1.5-50.5v50.5m1.5-50.5v50.5m-78.000001-50.5v50.5m1.5-50.5v50.5m1.5-50.5v50.5m1.5-50.5v50.5m1.5-50.5v50.5m1.5-50.5v50.5m1.5-50.5v50.5m1.5-50.5v50.5m1.5-50.5v50.5m1.5-50.5v50.5m1.5-50.5v50.5m1.5-50.5v50.5m1.5-50.5v50.5m1.5-50.5v50.5m1.5-50.5v50.5m1.5-50.5v50.5m1.5-50.5v50.5m1.5-50.5v50.5m1.5-50.5v50.5m1.5-50.5v50.5m1.5-50.5v50.5m1.5-50.5v50.5m1.5-50.5v50.5m1.5-50.5v50.5m1.5-50.5v50.5m1.5-50.5v50.5m1.5-50.5v50.5m1.5-50.5v50.5m1.5-50.5v50.5m1.5-50.5v50.5m1.5-50.5v50.5m1.5-50.5v50.5m1.5-50.5v50.5m1.5-50.5v50.5m1.5-50.5v50.5m1.5-50.5v50.5m1.500001-50.5v50.5m1.5-50.5v50.5m1.5-50.5v50.5m1.5-50.5v50.5m1.5-50.5v50.5m1.5-50.5v50.5m1.5-50.5v50.5m-63.000001-50.75h78.000001v51h-78.000001zm156.2501711 51h-78.5000001m78.5000001 1.5h-78.5000001m78.5000001 1.5h-78.5000001m78.5000001 1.5h-78.5000001m78.5000001 1.5h-78.5000001m78.5000001 1.5h-78.5000001m78.5000001 1.5h-78.5000001m78.5000001 1.5h-78.5000001m78.5000001 1.5h-78.5000001m78.5000001 1.5h-78.5000001m78.5000001 1.5h-78.5000001m78.5000001 1.5h-78.5000001m78.5000001 1.5h-78.5000001m78.5000001 1.5h-78.5000001m78.5000001 1.5h-78.5000001m78.5000001 1.5h-78.5000001m78.5000001 1.5h-78.5000001m78.5000001 1.5h-78.5000001m78.5000001 1.5h-78.5000001m78.5000001 1.5h-78.5000001m78.5000001 1.5h-78.5000001m78.5000001 1.5h-78.5000001m78.5000001 1.5h-78.5000001m78.5000001 1.5h-78.5000001m78.5000001 1.5h-78.5000001m78.5000001 1.5h-78.5000001m78.5000001 1.5h-78.5000001m78.5000001 1.5h-78.5000001m78.5000001 1.5h-78.5000001m78.5000001 1.5h-78.5000001m78.5000001 1.5h-78.5000001m78.5000001 1.5h-78.5000001m78.5000001 1.5h-78.5000001m78.5000001 1.5h-78.5000001m78.5000001 1.5h-78.5000001m64.75-50.75v50.5m1.5000001-50.5v50.5m1.5-50.5v50.5m1.5-50.5v50.5m1.5-50.5v50.5m1.5-50.5v50.5m1.5-50.5v50.5m1.49999999-50.5v50.5m1.5-50.5v50.5m1.50000001-50.5v50.5m-78.0000001-50.5v50.5m1.5-50.5v50.5m1.5-50.5v50.5m1.5-50.5v50.5m1.5-50.5v50.5m1.5-50.5v50.5m1.5-50.5v50.5m1.5-50.5v50.5m1.5-50.5v50.5m1.5-50.5v50.5m1.5-50.5v50.5m1.5-50.5v50.5m1.5-50.5v50.5m1.5-50.5v50.5m1.5-50.5v50.5m1.5-50.5v50.5m1.5-50.5v50.5m1.5-50.5v50.5m1.5-50.5v50.5m1.5-50.5v50.5m1.5-50.5v50.5m1.5-50.5v50.5m1.5-50.5v50.5m1.5-50.5v50.5m1.5-50.5v50.5m1.5-50.5v50.5m1.5-50.5v50.5m1.5-50.5v50.5m1.5-50.5v50.5m1.5-50.5v50.5m1.5-50.5v50.5m1.5-50.5v50.5m1.5-50.5v50.5m1.5-50.5v50.5m1.5-50.5v50.5m1.5-50.5v50.5m1.5-50.5v50.5m1.5-50.5v50.5m1.5-50.5v50.5m1.5-50.5v50.5m1.5-50.5v50.5m1.5-50.5v50.5m1.5-50.5v50.5m-63-50.75h78.0000001v51h-78.0000001zm.24983 0h-78.500001m78.500001 1.5h-78.500001m78.500001 1.5h-78.500001m78.500001 1.5h-78.500001m78.500001 1.5h-78.500001m78.500001 1.5h-78.500001m78.500001 1.5h-78.500001m78.500001 1.5h-78.500001m78.500001 1.5h-78.500001m78.500001 1.5h-78.500001m78.500001 1.5h-78.500001m78.500001 1.5h-78.500001m78.500001 1.5h-78.500001m78.500001 1.5h-78.500001m78.500001 1.5h-78.500001m78.500001 1.5h-78.500001m78.500001 1.5h-78.500001m78.500001 1.5h-78.500001m78.500001 1.5h-78.500001m78.500001 1.5h-78.500001m78.500001 1.5h-78.500001m78.500001 1.5h-78.500001m78.500001 1.5h-78.500001m78.500001 1.5h-78.500001m78.500001 1.5h-78.500001m78.500001 1.5h-78.500001m78.500001 1.5h-78.500001m78.500001 1.5h-78.500001m78.500001 1.5h-78.500001m78.500001 1.5h-78.500001m78.500001 1.5h-78.500001m78.500001 1.5h-78.500001m78.500001 1.5h-78.500001m78.500001 1.5h-78.500001m78.500001 1.5h-78.500001m64.750001-50.75v50.5m1.5-50.5v50.5m1.5-50.5v50.5m1.5-50.5v50.5m1.5-50.5v50.5m1.5-50.5v50.5m1.5-50.5v50.5m1.5-50.5v50.5m1.5-50.5v50.5m1.5-50.5v50.5m-78.000001-50.5v50.5m1.5-50.5v50.5m1.5-50.5v50.5m1.5-50.5v50.5m1.5-50.5v50.5m1.5-50.5v50.5m1.5-50.5v50.5m1.5-50.5v50.5m1.5-50.5v50.5m1.5-50.5v50.5m1.5-50.5v50.5m1.5-50.5v50.5m1.5-50.5v50.5m1.5-50.5v50.5m1.5-50.5v50.5m1.5-50.5v50.5m1.5-50.5v50.5m1.5-50.5v50.5m1.5-50.5v50.5m1.5-50.5v50.5m1.5-50.5v50.5m1.5-50.5v50.5m1.5-50.5v50.5m1.5-50.5v50.5m1.5-50.5v50.5m1.5-50.5v50.5m1.5-50.5v50.5m1.5-50.5v50.5m1.5-50.5v50.5m1.5-50.5v50.5m1.5-50.5v50.5m1.5-50.5v50.5m1.5-50.5v50.5m1.5-50.5v50.5m1.5-50.5v50.5m1.5-50.5v50.5m1.500001-50.5v50.5m1.5-50.5v50.5m1.5-50.5v50.5m1.5-50.5v50.5m1.5-50.5v50.5m1.5-50.5v50.5m1.5-50.5v50.5m-63.000001-50.75h78.000001v51h-78.000001zm156.2501711 51.00043h-78.5000001m78.5000001 1.5h-78.5000001m78.5000001 1.5h-78.5000001m78.5000001 1.5h-78.5000001m78.5000001 1.5h-78.5000001m78.5000001 1.5h-78.5000001m78.5000001 1.5h-78.5000001m78.5000001 1.5h-78.5000001m78.5000001 1.5h-78.5000001m78.5000001 1.5h-78.5000001m78.5000001 1.5h-78.5000001m78.5000001 1.5h-78.5000001m78.5000001 1.5h-78.5000001m78.5000001 1.5h-78.5000001m78.5000001 1.5h-78.5000001m78.5000001 1.5h-78.5000001m78.5000001 1.5h-78.5000001m78.5000001 1.5h-78.5000001m78.5000001 1.5h-78.5000001m78.5000001 1.5h-78.5000001m78.5000001 1.5h-78.5000001m78.5000001 1.5h-78.5000001m78.5000001 1.5h-78.5000001m78.5000001 1.5h-78.5000001m78.5000001 1.5h-78.5000001m78.5000001 1.5h-78.5000001m78.5000001 1.5h-78.5000001m78.5000001 1.5h-78.5000001m78.5000001 1.5h-78.5000001m78.5000001 1.5h-78.5000001m78.5000001 1.5h-78.5000001m78.5000001 1.5h-78.5000001m78.5000001 1.5h-78.5000001m78.5000001 1.5h-78.5000001m78.5000001 1.5h-78.5000001m64.75-50.75v50.5m1.5000001-50.5v50.5m1.5-50.5v50.5m1.5-50.5v50.5m1.5-50.5v50.5m1.5-50.5v50.5m1.5-50.5v50.5m1.49999999-50.5v50.5m1.5-50.5v50.5m1.50000001-50.5v50.5m-78.0000001-50.5v50.5m1.5-50.5v50.5m1.5-50.5v50.5m1.5-50.5v50.5m1.5-50.5v50.5m1.5-50.5v50.5m1.5-50.5v50.5m1.5-50.5v50.5m1.5-50.5v50.5m1.5-50.5v50.5m1.5-50.5v50.5m1.5-50.5v50.5m1.5-50.5v50.5m1.5-50.5v50.5m1.5-50.5v50.5m1.5-50.5v50.5m1.5-50.5v50.5m1.5-50.5v50.5m1.5-50.5v50.5m1.5-50.5v50.5m1.5-50.5v50.5m1.5-50.5v50.5m1.5-50.5v50.5m1.5-50.5v50.5m1.5-50.5v50.5m1.5-50.5v50.5m1.5-50.5v50.5m1.5-50.5v50.5m1.5-50.5v50.5m1.5-50.5v50.5m1.5-50.5v50.5m1.5-50.5v50.5m1.5-50.5v50.5m1.5-50.5v50.5m1.5-50.5v50.5m1.5-50.5v50.5m1.5-50.5v50.5m1.5-50.5v50.5m1.5-50.5v50.5m1.5-50.5v50.5m1.5-50.5v50.5m1.5-50.5v50.5m1.5-50.5v50.5m-63-50.75h78.0000001v51h-78.0000001zm.24983 0h-78.500001m78.500001 1.5h-78.500001m78.500001 1.5h-78.500001m78.500001 1.5h-78.500001m78.500001 1.5h-78.500001m78.500001 1.5h-78.500001m78.500001 1.5h-78.500001m78.500001 1.5h-78.500001m78.500001 1.5h-78.500001m78.500001 1.5h-78.500001m78.500001 1.5h-78.500001m78.500001 1.5h-78.500001m78.500001 1.5h-78.500001m78.500001 1.5h-78.500001m78.500001 1.5h-78.500001m78.500001 1.5h-78.500001m78.500001 1.5h-78.500001m78.500001 1.5h-78.500001m78.500001 1.5h-78.500001m78.500001 1.5h-78.500001m78.500001 1.5h-78.500001m78.500001 1.5h-78.500001m78.500001 1.5h-78.500001m78.500001 1.5h-78.500001m78.500001 1.5h-78.500001m78.500001 1.5h-78.500001m78.500001 1.5h-78.500001m78.500001 1.5h-78.500001m78.500001 1.5h-78.500001m78.500001 1.5h-78.500001m78.500001 1.5h-78.500001m78.500001 1.5h-78.500001m78.500001 1.5h-78.500001m78.500001 1.5h-78.500001m78.500001 1.5h-78.500001m64.750001-50.75v50.5m1.5-50.5v50.5m1.5-50.5v50.5m1.5-50.5v50.5m1.5-50.5v50.5m1.5-50.5v50.5m1.5-50.5v50.5m1.5-50.5v50.5m1.5-50.5v50.5m1.5-50.5v50.5m-78.000001-50.5v50.5m1.5-50.5v50.5m1.5-50.5v50.5m1.5-50.5v50.5m1.5-50.5v50.5m1.5-50.5v50.5m1.5-50.5v50.5m1.5-50.5v50.5m1.5-50.5v50.5m1.5-50.5v50.5m1.5-50.5v50.5m1.5-50.5v50.5m1.5-50.5v50.5m1.5-50.5v50.5m1.5-50.5v50.5m1.5-50.5v50.5m1.5-50.5v50.5m1.5-50.5v50.5m1.5-50.5v50.5m1.5-50.5v50.5m1.5-50.5v50.5m1.5-50.5v50.5m1.5-50.5v50.5m1.5-50.5v50.5m1.5-50.5v50.5m1.5-50.5v50.5m1.5-50.5v50.5m1.5-50.5v50.5m1.5-50.5v50.5m1.5-50.5v50.5m1.5-50.5v50.5m1.5-50.5v50.5m1.5-50.5v50.5m1.5-50.5v50.5m1.5-50.5v50.5m1.5-50.5v50.5m1.500001-50.5v50.5m1.5-50.5v50.5m1.5-50.5v50.5m1.5-50.5v50.5m1.5-50.5v50.5m1.5-50.5v50.5m1.5-50.5v50.5m-63.000001-50.75h78.000001v51h-78.000001z" shape-rendering="crispEdges" transform="translate(-101.60304 14.142518)"/></clipPath><clipPath id="h"><path id="path26" clip-path="url(#e)" d="m21.640676 353.08472v91m1.600001-91v91m1.6-91v91m1.6-91v91m1.6-91v91m1.6-91v91m1.6-91v91m1.6-91v91m1.6-91v91m1.6-91v91m1.6-91v91m1.6-91v91m1.6-91v91m1.6-91v91m1.6-91v91m1.6-91v91m1.6-91v91m1.6-91v91m1.6-91v91m1.6-91v91m1.6-91v91m1.6-91v91m1.6-91v91m1.6-91v91m1.6-91v91m1.6-91v91m1.6-91v91m1.6-91v91m1.6-91v91m1.6-91v91m1.6-91v91m1.6-91v91m1.6-91v91m1.6-91v91m1.6-91v91m1.6-91v91m1.6-91v91m1.6-91v91m1.6-91v91m1.6-91v91m1.6-91v91m1.6-91v91m1.6-91v91m1.600001-91v91m1.6-91v91m1.6-91v91m1.6-91v91m1.6-91v91m1.6-91v91m1.600002-91v91m1.6-91v91m1.6-91v91m1.6-91v91m1.6-91v91m1.6-91v91m1.6-91v91m1.6-91v91m1.6-91v91m1.6-91v91m1.6-91v91m1.6-91v91m1.6-91v91m1.6-91v91m1.6-91v91m1.6-91v91m1.6-91v91m1.6-91v91m1.6-91v91m1.6-91v91m1.6-91v91m1.6-91v91m1.6-91v91m1.6-91v91m1.6-91v91m1.6-91v91m1.6-91v91m1.6-91v91m1.6-91v91m1.6-91v91m1.6-91v91m1.6-91v91m1.6-91v91m1.6-91v91m1.6-91v91m-132.800004-91h134.000004m-134.000004 1.6h134.000004m-134.000004 1.6h134.000004m-134.000004 1.6h134.000004m-134.000004 1.6h134.000004m-134.000004 1.6h134.000004m-134.000004 1.6h134.000004m-134.000004 1.6h134.000004m-134.000004 1.6h134.000004m-134.000004 1.6h134.000004m-134.000004 1.6h134.000004m-134.000004 1.6h134.000004m-134.000004 1.6h134.000004m-134.000004 1.6h134.000004m-134.000004 1.6h134.000004m-134.000004 1.6h134.000004m-134.000004 1.6h134.000004m-134.000004 1.6h134.000004m-134.000004 1.6h134.000004m-134.000004 1.6h134.000004m-134.000004 1.6h134.000004m-134.000004 1.6h134.000004m-134.000004 1.6h134.000004m-134.000004 1.6h134.000004m-134.000004 1.6h134.000004m-134.000004 1.6h134.000004m-134.000004 1.6h134.000004m-134.000004 1.6h134.000004m-134.000004 1.6h134.000004m-134.000004 1.6h134.000004m-134.000004 1.6h134.000004m-134.000004 1.6h134.000004m-134.000004 1.6h134.000004m-134.000004 1.6h134.000004m-134.000004 1.6h134.000004m-134.000004 1.6h134.000004m-134.000004 1.6h134.000004m-134.000004 1.6h134.000004m-134.000004 1.6h134.000004m-134.000004 1.6h134.000004m-134.000004 1.6h134.000004m-134.000004 1.6h134.000004m-134.000004 1.6h134.000004m-134.000004 1.6h134.000004m-134.000004 1.6h134.000004m-134.000004 1.6h134.000004m-134.000004 1.6h134.000004m-134.000004 1.6h134.000004m-134.000004 1.6h134.000004m-134.000004 1.6h134.000004m-134.000004 1.6h134.000004m-134.000004 1.6h134.000004m-134.000004 1.6h134.000004m-134.000004 1.6h134.000004m-134.000004 1.6h134.000004m-134.000004 1.6h134.000004m-134.000004 1.6h134.000004m-134.000004-89.6h134.000004v91h-134.000004z" shape-rendering="crispEdges" transform="translate(401.18519 -267.10973)"/></clipPath><clipPath id="i"><path id="path29" clip-path="url(#f)" d="m451.03723 75.172882v126.999998m1.6-126.999998v126.999998m1.6-126.999998v126.999998m1.6-126.999998v126.999998m1.6-126.999998v126.999998m1.6-126.999998v126.999998m1.6-126.999998v126.999998m1.6-126.999998v126.999998m1.6-126.999998v126.999998m1.6-126.999998v126.999998m1.6-126.999998v126.999998m1.6-126.999998v126.999998m1.6-126.999998v126.999998m1.6-126.999998v126.999998m1.6-126.999998v126.999998m1.6-126.999998v126.999998m1.6-126.999998v126.999998m1.6-126.999998v126.999998m1.6-126.999998v126.999998m1.6-126.999998v126.999998m1.6-126.999998v126.999998m1.6-126.999998v126.999998m1.6-126.999998v126.999998m1.6-126.999998v126.999998m1.6-126.999998v126.999998m1.6-126.999998v126.999998m1.6-126.999998v126.999998m1.6-126.999998v126.999998m1.6-126.999998v126.999998m1.6-126.999998v126.999998m1.6-126.999998v126.999998m1.6-126.999998v126.999998m1.6-126.999998v126.999998m1.6-126.999998v126.999998m1.6-126.999998v126.999998m1.6-126.999998v126.999998m1.6-126.999998v126.999998m1.6-126.999998v126.999998m1.6-126.999998v126.999998m1.6-126.999998v126.999998m1.6-126.999998v126.999998m1.6-126.999998v126.999998m1.6-126.999998v126.999998m1.6-126.999998v126.999998m1.6-126.999998v126.999998m1.6-126.999998v126.999998m1.6-126.999998v126.999998m1.6-126.999998v126.999998m1.6-126.999998v126.999998m1.6-126.999998v126.999998m1.6-126.999998v126.999998m1.6-126.999998v126.999998m1.6-126.999998v126.999998m1.6-126.999998v126.999998m1.6-126.999998v126.999998m1.6-126.999998v126.999998m1.6-126.999998v126.999998m1.6-126.999998v126.999998m1.6-126.999998v126.999998m1.6-126.999998v126.999998m1.6-126.999998v126.999998m1.6-126.999998v126.999998m1.6-126.999998v126.999998m1.6-126.999998v126.999998m1.6-126.999998v126.999998m1.6-126.999998v126.999998m1.6-126.999998v126.999998m1.6-126.999998v126.999998m1.6-126.999998v126.999998m1.6-126.999998v126.999998m1.6-126.999998v126.999998m1.6-126.999998v126.999998m1.6-126.999998v126.999998m1.6-126.999998v126.999998m1.6-126.999998v126.999998m1.6-126.999998v126.999998m1.6-126.999998v126.999998m1.6-126.999998v126.999998m1.6-126.999998v126.999998m1.6-126.999998v126.999998m1.6-126.999998v126.999998m1.6-126.999998v126.999998m1.6-126.999998v126.999998m1.6-126.999998v126.999998m1.6-126.999998v126.999998m1.6-126.999998v126.999998m1.6-126.999998v126.999998m-137.6-126.999998h139m-139 1.6h139m-139 1.6h139m-139 1.6h139m-139 1.6h139m-139 1.6h139m-139 1.6h139m-139 1.6h139m-139 1.6h139m-139 1.6h139m-139 1.6h139m-139 1.6h139m-139 1.6h139m-139 1.6h139m-139 1.6h139m-139 1.6h139m-139 1.599998h139m-139 1.6h139m-139 1.6h139m-139 1.6h139m-139 1.6h139m-139 1.6h139m-139 1.6h139m-139 1.6h139m-139 1.6h139m-139 1.6h139m-139 1.6h139m-139 1.6h139m-139 1.6h139m-139 1.6h139m-139 1.6h139m-139 1.6h139m-139 1.6h139m-139 1.6h139m-139 1.6h139m-139 1.6h139m-139 1.6h139m-139 1.6h139m-139 1.6h139m-139 1.6h139m-139 1.6h139m-139 1.6h139m-139 1.6h139m-139 1.6h139m-139 1.6h139m-139 1.6h139m-139 1.6h139m-139 1.6h139m-139 1.6h139m-139 1.6h139m-139 1.6h139m-139 1.6h139m-139 1.6h139m-139 1.6h139m-139 1.6h139m-139 1.6h139m-139 1.6h139m-139 1.6h139m-139 1.6h139m-139 1.6h139m-139 1.6h139m-139 1.6h139m-139 1.6h139m-139 1.6h139m-139 1.6h139m-139 1.6h139m-139 1.6h139m-139 1.6h139m-139 1.6h139m-139 1.6h139m-139 1.6h139m-139 1.6h139m-139 1.6h139m-139 1.6h139m-139 1.6h139m-139 1.6h139m-139 1.6h139m-139 1.6h139m-139 1.6h139m-139 1.6h139m-139-126.399998h139v126.999998h-139z" shape-rendering="crispEdges" transform="translate(-165.15249 1.0521078)"/></clipPath><clipPath id="j"><path id="path32" clip-path="url(#g)" d="m-250.66148 61.75038v127m1.6-127v127m1.6-127v127m1.6-127v127m1.6-127v127m1.6-127v127m1.6-127v127m1.6-127v127m1.6-127v127m1.6-127v127m1.6-127v127m1.6-127v127m1.6-127v127m1.6-127v127m1.6-127v127m1.6-127v127m1.6-127v127m1.6-127v127m1.6-127v127m1.6-127v127m1.6-127v127m1.6-127v127m1.6-127v127m1.6-127v127m1.6-127v127m1.6-127v127m1.6-127v127m1.6-127v127m1.6-127v127m1.6-127v127m1.6-127v127m1.6-127v127m1.6-127v127m1.6-127v127m1.6-127v127m1.6-127v127m1.6-127v127m1.6-127v127m1.6-127v127m1.6-127v127m1.6-127v127m1.6-127v127m1.6-127v127m1.6-127v127m1.6-127v127m1.6-127v127m1.6-127v127m1.6-127v127m1.6-127v127m1.6-127v127m1.6-127v127m1.6-127v127m1.6-127v127m1.6-127v127m1.6-127v127m1.6-127v127m1.6-127v127m1.6-127v127m1.6-127v127m1.6-127v127m1.6-127v127m1.6-127v127m1.6-127v127m1.6-127v127m1.6-127v127m1.6-127v127m1.6-127v127m1.6-127v127m1.6-127v127m1.6-127v127m1.6-127v127m1.6-127v127m1.6-127v127m1.6-127v127m1.6-127v127m1.6-127v127m1.6-127v127m1.6-127v127m1.6-127v127m1.6-127v127m1.6-127v127m1.6-127v127m1.6-127v127m1.6-127v127m1.6-127v127m1.6-127v127m1.6-127v127m-137.6-127h139m-139 1.6h139m-139 1.6h139m-139 1.6h139m-139 1.6h139m-139 1.6h139m-139 1.6h139m-139 1.6h139m-139 1.6h139m-139 1.6h139m-139 1.6h139m-139 1.6h139m-139 1.6h139m-139 1.6h139m-139 1.6h139m-139 1.6h139m-139 1.6h139m-139 1.6h139m-139 1.6h139m-139 1.6h139m-139 1.6h139m-139 1.6h139m-139 1.6h139m-139 1.6h139m-139 1.6h139m-139 1.6h139m-139 1.6h139m-139 1.6h139m-139 1.6h139m-139 1.6h139m-139 1.6h139m-139 1.6h139m-139 1.6h139m-139 1.6h139m-139 1.6h139m-139 1.6h139m-139 1.6h139m-139 1.6h139m-139 1.6h139m-139 1.6h139m-139 1.6h139m-139 1.6h139m-139 1.6h139m-139 1.6h139m-139 1.6h139m-139 1.6h139m-139 1.6h139m-139 1.6h139m-139 1.6h139m-139 1.6h139m-139 1.6h139m-139 1.6h139m-139 1.6h139m-139 1.6h139m-139 1.6h139m-139 1.6h139m-139 1.6h139m-139 1.6h139m-139 1.6h139m-139 1.6h139m-139 1.6h139m-139 1.6h139m-139 1.6h139m-139 1.6h139m-139 1.6h139m-139 1.6h139m-139 1.6h139m-139 1.6h139m-139 1.6h139m-139 1.6h139m-139 1.6h139m-139 1.6h139m-139 1.6h139m-139 1.6h139m-139 1.6h139m-139 1.6h139m-139 1.6h139m-139 1.6h139m-139 1.6h139m-139 1.6h139m-139-126.4h139v127h-139z" shape-rendering="crispEdges" transform="translate(630.80207 -.02539221)"/></clipPath><clipPath id="k"><path id="path35" clip-path="url(#a)" d="m329.625 214.5h-78.5m78.5 1.5h-78.5m78.5 1.5h-78.5m78.5 1.5h-78.5m78.5 1.5h-78.5m78.5 1.5h-78.5m78.5 1.5h-78.5m78.5 1.5h-78.5m78.5 1.5h-78.5m78.5 1.5h-78.5m78.5 1.5h-78.5m78.5 1.5h-78.5m78.5 1.5h-78.5m78.5 1.5h-78.5m78.5 1.5h-78.5m78.5 1.5h-78.5m78.5 1.5h-78.5m78.5 1.5h-78.5m78.5 1.5h-78.5m78.5 1.5h-78.5m78.5 1.5h-78.5m78.5 1.5h-78.5m78.5 1.5h-78.5m78.5 1.5h-78.5m78.5 1.5h-78.5m78.5 1.5h-78.5m78.5 1.5h-78.5m78.5 1.5h-78.5m78.5 1.5h-78.5m78.5 1.5h-78.5m78.5 1.5h-78.5m78.5 1.5h-78.5m78.5 1.5h-78.5m78.5 1.5h-78.5m78.5 1.5h-78.5m64.75-50.75v50.5m1.5-50.5v50.5m1.5-50.5v50.5m1.5-50.5v50.5m1.5-50.5v50.5m1.5-50.5v50.5m1.5-50.5v50.5m1.5-50.5v50.5m1.5-50.5v50.5m1.5-50.5v50.5m-78-50.5v50.5m1.5-50.5v50.5m1.5-50.5v50.5m1.5-50.5v50.5m1.5-50.5v50.5m1.5-50.5v50.5m1.5-50.5v50.5m1.5-50.5v50.5m1.5-50.5v50.5m1.5-50.5v50.5m1.5-50.5v50.5m1.5-50.5v50.5m1.5-50.5v50.5m1.5-50.5v50.5m1.5-50.5v50.5m1.5-50.5v50.5m1.5-50.5v50.5m1.5-50.5v50.5m1.5-50.5v50.5m1.5-50.5v50.5m1.5-50.5v50.5m1.5-50.5v50.5m1.5-50.5v50.5m1.5-50.5v50.5m1.5-50.5v50.5m1.5-50.5v50.5m1.5-50.5v50.5m1.5-50.5v50.5m1.5-50.5v50.5m1.5-50.5v50.5m1.5-50.5v50.5m1.5-50.5v50.5m1.5-50.5v50.5m1.5-50.5v50.5m1.5-50.5v50.5m1.5-50.5v50.5m1.5-50.5v50.5m1.5-50.5v50.5m1.5-50.5v50.5m1.5-50.5v50.5m1.5-50.5v50.5m1.5-50.5v50.5m1.5-50.5v50.5m-63-50.75h78v51h-78zm78.25-51h-78.5m78.5 1.5h-78.5m78.5 1.5h-78.5m78.5 1.5h-78.5m78.5 1.5h-78.5m78.5 1.5h-78.5m78.5 1.5h-78.5m78.5 1.5h-78.5m78.5 1.5h-78.5m78.5 1.5h-78.5m78.5 1.5h-78.5m78.5 1.5h-78.5m78.5 1.5h-78.5m78.5 1.5h-78.5m78.5 1.5h-78.5m78.5 1.5h-78.5m78.5 1.5h-78.5m78.5 1.5h-78.5m78.5 1.5h-78.5m78.5 1.5h-78.5m78.5 1.5h-78.5m78.5 1.5h-78.5m78.5 1.5h-78.5m78.5 1.5h-78.5m78.5 1.5h-78.5m78.5 1.5h-78.5m78.5 1.5h-78.5m78.5 1.5h-78.5m78.5 1.5h-78.5m78.5 1.5h-78.5m78.5 1.5h-78.5m78.5 1.5h-78.5m78.5 1.5h-78.5m78.5 1.5h-78.5m78.5 1.5h-78.5m64.75-50.75v50.5m1.5-50.5v50.5m1.5-50.5v50.5m1.5-50.5v50.5m1.5-50.5v50.5m1.5-50.5v50.5m1.5-50.5v50.5m1.5-50.5v50.5m1.5-50.5v50.5m1.5-50.5v50.5m-78-50.5v50.5m1.5-50.5v50.5m1.5-50.5v50.5m1.5-50.5v50.5m1.5-50.5v50.5m1.5-50.5v50.5m1.5-50.5v50.5m1.5-50.5v50.5m1.5-50.5v50.5m1.5-50.5v50.5m1.5-50.5v50.5m1.5-50.5v50.5m1.5-50.5v50.5m1.5-50.5v50.5m1.5-50.5v50.5m1.5-50.5v50.5m1.5-50.5v50.5m1.5-50.5v50.5m1.5-50.5v50.5m1.5-50.5v50.5m1.5-50.5v50.5m1.5-50.5v50.5m1.5-50.5v50.5m1.5-50.5v50.5m1.5-50.5v50.5m1.5-50.5v50.5m1.5-50.5v50.5m1.5-50.5v50.5m1.5-50.5v50.5m1.5-50.5v50.5m1.5-50.5v50.5m1.5-50.5v50.5m1.5-50.5v50.5m1.5-50.5v50.5m1.5-50.5v50.5m1.5-50.5v50.5m1.5-50.5v50.5m1.5-50.5v50.5m1.5-50.5v50.5m1.5-50.5v50.5m1.5-50.5v50.5m1.5-50.5v50.5m1.5-50.5v50.5m-63-50.75h78v51h-78zm .25 51h-78.5m78.5 1.5h-78.5m78.5 1.5h-78.5m78.5 1.5h-78.5m78.5 1.5h-78.5m78.5 1.5h-78.5m78.5 1.5h-78.5m78.5 1.5h-78.5m78.5 1.5h-78.5m78.5 1.5h-78.5m78.5 1.5h-78.5m78.5 1.5h-78.5m78.5 1.5h-78.5m78.5 1.5h-78.5m78.5 1.5h-78.5m78.5 1.5h-78.5m78.5 1.5h-78.5m78.5 1.5h-78.5m78.5 1.5h-78.5m78.5 1.5h-78.5m78.5 1.5h-78.5m78.5 1.5h-78.5m78.5 1.5h-78.5m78.5 1.5h-78.5m78.5 1.5h-78.5m78.5 1.5h-78.5m78.5 1.5h-78.5m78.5 1.5h-78.5m78.5 1.5h-78.5m78.5 1.5h-78.5m78.5 1.5h-78.5m78.5 1.5h-78.5m78.5 1.5h-78.5m78.5 1.5h-78.5m78.5 1.5h-78.5m64.75-50.75v50.5m1.5-50.5v50.5m1.5-50.5v50.5m1.5-50.5v50.5m1.5-50.5v50.5m1.5-50.5v50.5m1.5-50.5v50.5m1.5-50.5v50.5m1.5-50.5v50.5m1.5-50.5v50.5m-78-50.5v50.5m1.5-50.5v50.5m1.5-50.5v50.5m1.5-50.5v50.5m1.5-50.5v50.5m1.5-50.5v50.5m1.5-50.5v50.5m1.5-50.5v50.5m1.5-50.5v50.5m1.5-50.5v50.5m1.5-50.5v50.5m1.5-50.5v50.5m1.5-50.5v50.5m1.5-50.5v50.5m1.5-50.5v50.5m1.5-50.5v50.5m1.5-50.5v50.5m1.5-50.5v50.5m1.5-50.5v50.5m1.5-50.5v50.5m1.5-50.5v50.5m1.5-50.5v50.5m1.5-50.5v50.5m1.5-50.5v50.5m1.5-50.5v50.5m1.5-50.5v50.5m1.5-50.5v50.5m1.5-50.5v50.5m1.5-50.5v50.5m1.5-50.5v50.5m1.5-50.5v50.5m1.5-50.5v50.5m1.5-50.5v50.5m1.5-50.5v50.5m1.5-50.5v50.5m1.5-50.5v50.5m1.5-50.5v50.5m1.5-50.5v50.5m1.5-50.5v50.5m1.5-50.5v50.5m1.5-50.5v50.5m1.5-50.5v50.5m1.5-50.5v50.5m-63-50.75h78v51h-78zm78.25-51h-78.5m78.5 1.5h-78.5m78.5 1.5h-78.5m78.5 1.5h-78.5m78.5 1.5h-78.5m78.5 1.5h-78.5m78.5 1.5h-78.5m78.5 1.5h-78.5m78.5 1.5h-78.5m78.5 1.5h-78.5m78.5 1.5h-78.5m78.5 1.5h-78.5m78.5 1.5h-78.5m78.5 1.5h-78.5m78.5 1.5h-78.5m78.5 1.5h-78.5m78.5 1.5h-78.5m78.5 1.5h-78.5m78.5 1.5h-78.5m78.5 1.5h-78.5m78.5 1.5h-78.5m78.5 1.5h-78.5m78.5 1.5h-78.5m78.5 1.5h-78.5m78.5 1.5h-78.5m78.5 1.5h-78.5m78.5 1.5h-78.5m78.5 1.5h-78.5m78.5 1.5h-78.5m78.5 1.5h-78.5m78.5 1.5h-78.5m78.5 1.5h-78.5m78.5 1.5h-78.5m78.5 1.5h-78.5m78.5 1.5h-78.5m64.75-50.75v50.5m1.5-50.5v50.5m1.5-50.5v50.5m1.5-50.5v50.5m1.5-50.5v50.5m1.5-50.5v50.5m1.5-50.5v50.5m1.5-50.5v50.5m1.5-50.5v50.5m1.5-50.5v50.5m-78-50.5v50.5m1.5-50.5v50.5m1.5-50.5v50.5m1.5-50.5v50.5m1.5-50.5v50.5m1.5-50.5v50.5m1.5-50.5v50.5m1.5-50.5v50.5m1.5-50.5v50.5m1.5-50.5v50.5m1.5-50.5v50.5m1.5-50.5v50.5m1.5-50.5v50.5m1.5-50.5v50.5m1.5-50.5v50.5m1.5-50.5v50.5m1.5-50.5v50.5m1.5-50.5v50.5m1.5-50.5v50.5m1.5-50.5v50.5m1.5-50.5v50.5m1.5-50.5v50.5m1.5-50.5v50.5m1.5-50.5v50.5m1.5-50.5v50.5m1.5-50.5v50.5m1.5-50.5v50.5m1.5-50.5v50.5m1.5-50.5v50.5m1.5-50.5v50.5m1.5-50.5v50.5m1.5-50.5v50.5m1.5-50.5v50.5m1.5-50.5v50.5m1.5-50.5v50.5m1.5-50.5v50.5m1.5-50.5v50.5m1.5-50.5v50.5m1.5-50.5v50.5m1.5-50.5v50.5m1.5-50.5v50.5m1.5-50.5v50.5m1.5-50.5v50.5m-63-50.75h78v51h-78z" shape-rendering="crispEdges" transform="translate(-435.02395 -105.62448)"/></clipPath><g id="layer1"><rect id="breakerRear" fill="#575d5e" fill-rule="evenodd" height="268" stroke="#333" stroke-width=".80000001" width="280"/><g id="operationGroup" fill="#575d5e" stroke="#333" stroke-linecap="square" stroke-width=".80000001"><rect id="rect43" fill-rule="evenodd" height="120" width="26" x="254" y="73.999985"/><circle id="circle45" cx="267" cy="150.99998" r="6"/></g><g id="rotaryDriveAxle" shape-rendering="crispEdges"><rect id="rect49" fill="#575d5e" height="140" stroke="#333" stroke-width=".80000001" width="140" x="105" y="49.499989"/><g id="g51"><circle id="circle53" cx="136.60001" cy="92.20018" fill="#c5c7c4" r="15" stroke="#000" stroke-width=".5"/><circle id="circle55" cx="136.60001" cy="92.20018" r="8"/><rect id="rect57" fill="#e6e6e6" height="6" overflow="visible" width="6" x="133.60001" y="89.20018"/></g></g><g id="rotaryDrive_CD"><rect id="rect61" fill="#575d5e" height="105.5" shape-rendering="crispEdges" stroke="#333" stroke-width=".80000001" width="105" x="105" y="51.999989"/><path id="path63" clip-path="url(#k)" d="m-233.56096 60.999595v96.000005m1.6-96.000005v96.000005m1.6-96.000005v96.000005m1.6-96.000005v96.000005m1.6-96.000005v96.000005m1.6-96.000005v96.000005m1.6-96.000005v96.000005m1.6-96.000005v96.000005m1.6-96.000005v96.000005m1.6-96.000005v96.000005m1.6-96.000005v96.000005m1.6-96.000005v96.000005m1.6-96.000005v96.000005m1.6-96.000005v96.000005m1.6-96.000005v96.000005m1.6-96.000005v96.000005m1.6-96.000005v96.000005m1.6-96.000005v96.000005m1.6-96.000005v96.000005m1.6-96.000005v96.000005m1.6-96.000005v96.000005m1.6-96.000005v96.000005m1.6-96.000005v96.000005m1.6-96.000005v96.000005m1.6-96.000005v96.000005m1.6-96.000005v96.000005m1.6-96.000005v96.000005m1.6-96.000005v96.000005m1.6-96.000005v96.000005m1.6-96.000005v96.000005m1.6-96.000005v96.000005m1.6-96.000005v96.000005m1.6-96.000005v96.000005m1.6-96.000005v96.000005m1.6-96.000005v96.000005m1.6-96.000005v96.000005m1.6-96.000005v96.000005m1.6-96.000005v96.000005m1.6-96.000005v96.000005m1.6-96.000005v96.000005m1.6-96.000005v96.000005m1.6-96.000005v96.000005m1.6-96.000005v96.000005m1.6-96.000005v96.000005m1.6-96.000005v96.000005m1.6-96.000005v96.000005m1.6-96.000005v96.000005m1.6-96.000005v96.000005m1.6-96.000005v96.000005m1.6-96.000005v96.000005m1.6-96.000005v96.000005m1.6-96.000005v96.000005m1.6-96.000005v96.000005m1.6-96.000005v96.000005m1.6-96.000005v96.000005m1.6-96.000005v96.000005m1.6-96.000005v96.000005m1.6-96.000005v96.000005m1.6-96.000005v96.000005m1.6-96.000005v96.000005m1.6-96.000005v96.000005m1.6-96.000005v96.000005m1.6-96.000005v96.000005m1.6-96.000005v96.000005m-100.8-96.000005h101m-101 1.6h101m-101 1.6h101m-101 1.6h101m-101 1.6h101m-101 1.6h101m-101 1.6h101m-101 1.6h101m-101 1.6h101m-101 1.6h101m-101 1.6h101m-101 1.6h101m-101 1.6h101m-101 1.6h101m-101 1.6h101m-101 1.6h101m-101 1.6h101m-101 1.6h101m-101 1.6h101m-101 1.6h101m-101 1.6h101m-101 1.6h101m-101 1.6h101m-101 1.6h101m-101 1.6h101m-101 1.599995h101m-101 1.6h101m-101 1.6h101m-101 1.6h101m-101 1.6h101m-101 1.6h101m-101 1.60001h101m-101 1.6h101m-101 1.6h101m-101 1.6h101m-101 1.6h101m-101 1.6h101m-101 1.6h101m-101 1.6h101m-101 1.6h101m-101 1.6h101m-101 1.6h101m-101 1.6h101m-101 1.6h101m-101 1.6h101m-101 1.6h101m-101 1.6h101m-101 1.6h101m-101 1.6h101m-101 1.6h101m-101 1.6h101m-101 1.6h101m-101 1.6h101m-101 1.6h101m-101 1.6h101m-101 1.6h101m-101 1.6h101m-101 1.6h101m-101 1.6h101m-101 1.6h101m-101-94.400005h101v96.000005h-101z" fill="#4d4d4d" fill-rule="evenodd" stroke="#575d5e" stroke-width=".4pt" transform="translate(340.56096)"/><g id="g65" shape-rendering="crispEdges"><rect id="rect67" fill="#bb1e10" height="10.5" width="104.2" x="105.4" y="52.400154"/><path id="path69" d="m105.4 63.40018h104.2" fill="none" stroke="#fff"/><text id="text71" line-height="100%" style="font-weight:bold;font-size:5.39302158;font-family:sans-serif;letter-spacing:0;word-spacing:0;fill:#fff" x="171.53897" xml:space="preserve" y="60.321663"><tspan id="tspan73" fill="#fff" font-family="sans-serif" font-size="7.5" font-weight="bold" line-height="100%" x="171.53897" y="60.321663">TMax T6</tspan><tspan id="tspan75" fill="#fff" x="171.53897" y="60.321663"/></text><path id="path77" d="m111.16024 53.650152l-1.04937 3.92001h2.16781v-3.92001zm1.27844 0v3.92001h2.16783l-1.04922-3.92001zm4.48003 0v3.92001h2.32001v-3.92001zm2.48001 0v3.92001h2.42861a2.4000112 2.4000112 0 0 0 -.83048-.551121 1.8000084 1.8000084 0 0 0  .92204-1.568866 1.8000084 1.8000084 0 0 0 -1.80001-1.800023 1.8000084 1.8000084 0 0 0 -.00016 0zm3.76001 0v3.92001h2.32001v-3.92001zm2.48002 0v3.92001h2.4286a2.4000112 2.4000112 0 0 0 -.83047-.551121 1.8000084 1.8000084 0 0 0  .92204-1.568866 1.8000084 1.8000084 0 0 0 -1.80001-1.800023 1.8000084 1.8000084 0 0 0 -.00016 0zm-15.5707 4.07999l-1.04938 3.92001h2.00001l.42406-1.600002h.83594v-2.320008zm2.37063 0v2.320008h.8361l.42391 1.600002h2.00001l-1.04922-3.92001zm4.48003 0v3.92001h2.32001v-3.92001zm2.48001 0v3.92001h.72001a2.4000112 2.4000112 0 0 0  .00015 0 2.4000112 2.4000112 0 0 0  2.40001-2.400002 2.4000112 2.4000112 0 0 0 -.54672-1.520008h-2.57344zm3.76001 0v3.92001h2.32001v-3.92001zm2.48002 0v3.92001h.72a2.4000112 2.4000112 0 0 0  .00016 0 2.4000112 2.4000112 0 0 0  2.40001-2.400002 2.4000112 2.4000112 0 0 0 -.54671-1.520008z" fill="#fff"/></g><g id="g79" shape-rendering="crispEdges"><circle id="circle81" cx="136.60001" cy="94.70018" fill="#575d5e" r="30.1"/><g id="g83" transform="translate(41.25 8.9999992)"><path id="path85" d="m65.656713 89.978683a30 30 0 0 1  .348859-10.516218l29.344428 6.237351z" fill="#808000"/><path id="path87" d="m84.59896 57.692404a30 30 0 0 1 21.45318-.01872l-10.70214 28.026132z" fill="#f00"/><path id="path89" d="m68.051162 73.25902a30 30 0 0 1 16.547798-15.566616l10.75104 28.007412z" fill="#ff0"/><circle id="circle91" cx="95.349998" cy="85.699814" fill="#575d5e" r="25" stroke="#333"/><text id="text93" fill="#fff" font-family="sans-serif" font-size="12.5" letter-spacing="0" line-height="125%" word-spacing="0" x="94.922272" xml:space="preserve" y="59.830372"><tspan id="tspan95" fill="#fff" font-family="FreesiaUPC" font-size="7.5" x="94.922272" y="59.830372">I</tspan></text><text id="text97" fill="#fff" font-family="sans-serif" font-size="12.5" letter-spacing="0" line-height="125%" word-spacing="0" x="66.248238" xml:space="preserve" y="86.434021"><tspan id="tspan99" fill="#fff" font-family="FreesiaUPC" font-size="7.5" x="66.248238" y="86.434021">O</tspan></text></g><circle id="circle101" cx="136.60001" cy="94.70018" fill="#575d5e" r="25.25" stroke="#363636" stroke-linecap="round" stroke-linejoin="round" stroke-width=".5"/><rect id="rect103" fill="#575d5e" height="42" rx="21" stroke="#333" stroke-linecap="round" stroke-linejoin="round" stroke-width=".5" width="116" x="115.6" y="73.700172"/><path id="path105" d="m184.0467 94.25c0-5.4015-4.37456-9.749989-9.80844-9.749989h-38.46616-.11367-5.60281c-2.33034 0-4.20562 1.4495-4.20562 3.249989v6.5 6.5c0 1.8005 1.87528 3.25 4.20562 3.25h5.60281.11367 38.46616c5.43388 0 9.80844-4.3485 9.80844-9.75z" fill="none" stroke="#363636" stroke-linecap="round" stroke-linejoin="bevel" stroke-width=".5"/><path id="path107" d="m113.85 94.25c0 5.4015 4.7732 9.75 10.70225 9.75h41.97148.12402 6.11338c2.5427 0 4.58887-1.4495 4.58887-3.25v-6.5-6.5c0-1.800489-2.04617-3.249989-4.58887-3.249989h-6.11338-.12402-41.97148c-5.92905 0-10.70225 4.348489-10.70225 9.749989z" fill="#fff" stroke="#999" stroke-linecap="round" stroke-linejoin="bevel" stroke-width=".49999997"/><path id="path109" d="m150.59817 87.36849c0-1.173159-.25577-2.118479-.57226-2.118479h-2.85548c-.3165 0-.57226.94532-.57226 2.118479v13.76432c0 1.17318.25576 2.11719.57226 2.11719h2.85548c.31649 0 .57226-.94401.57226-2.11719zm-6.44922 0c0-1.173159-.25573-2.118479-.57227-2.118479h-2.85547c-.31648 0-.57226.94532-.57226 2.118479v13.76432c0 1.17318.25578 2.11719.57226 2.11719h2.85547c.31654 0 .57227-.94401.57227-2.11719zm-6.45118 0c0-1.173159-.25575-2.118479-.57226-2.118479h-2.85547c-.31651 0-.57227.94532-.57227 2.118479v13.76432c0 1.17318.25576 2.11719.57227 2.11719h2.85547c.31651 0 .57226-.94401.57226-2.11719z" fill="#e6e6e6"/><path id="path111" d="m116.24284 100.19027a22.5 22.5 0 0 1 -.68007-5.49007 22.5 22.5 0 0 1  1.09925-6.94678" fill="none" stroke="#999" stroke-linecap="round" stroke-linejoin="round" stroke-width=".5"/></g><g id="g113"/><g id="g115" shape-rendering="crispEdges"><ellipse id="ellipse117" cx="203.30762" cy="121.46744" rx="4.75" ry="2.75" style="overflow:visible;fill:#c7cacc;fill-rule:evenodd;stroke:#333;stroke-width:.49999991;stroke-linecap:round;stroke-linejoin:round"/><text id="text119" line-height="125%" style="font-size:12.5;font-family:sans-serif;letter-spacing:0;word-spacing:0;overflow:visible;fill:#4d4d4d;fill-opacity:.9372549" x="200.91718" xml:space="preserve" y="122.14905"><tspan id="tspan121" fill="#4d4d4d" fill-opacity=".9372549" font-size="1.875" x="200.91718" y="122.14905">TEST</tspan></text></g></g><g id="rotaryDrive"><rect id="rect125" fill="#575d5e" height="140" shape-rendering="crispEdges" stroke="#333" stroke-width=".80000001" width="140" x="105" y="49.499989"/><path id="path127" clip-path="url(#j)" d="m380.14059 61.724987v127.000003m1.6-127.000003v127.000003m1.6-127.000003v127.000003m1.6-127.000003v127.000003m1.6-127.000003v127.000003m1.6-127.000003v127.000003m1.6-127.000003v127.000003m1.6-127.000003v127.000003m1.6-127.000003v127.000003m1.6-127.000003v127.000003m1.6-127.000003v127.000003m1.6-127.000003v127.000003m1.6-127.000003v127.000003m1.6-127.000003v127.000003m1.6-127.000003v127.000003m1.6-127.000003v127.000003m1.6-127.000003v127.000003m1.6-127.000003v127.000003m1.6-127.000003v127.000003m1.6-127.000003v127.000003m1.6-127.000003v127.000003m1.6-127.000003v127.000003m1.60001-127.000003v127.000003m1.6-127.000003v127.000003m1.6-127.000003v127.000003m1.6-127.000003v127.000003m1.6-127.000003v127.000003m1.6-127.000003v127.000003m1.6-127.000003v127.000003m1.6-127.000003v127.000003m1.6-127.000003v127.000003m1.6-127.000003v127.000003m1.6-127.000003v127.000003m1.6-127.000003v127.000003m1.6-127.000003v127.000003m1.6-127.000003v127.000003m1.6-127.000003v127.000003m1.6-127.000003v127.000003m1.6-127.000003v127.000003m1.6-127.000003v127.000003m1.6-127.000003v127.000003m1.6-127.000003v127.000003m1.6-127.000003v127.000003m1.6-127.000003v127.000003m1.6-127.000003v127.000003m1.6-127.000003v127.000003m1.6-127.000003v127.000003m1.6-127.000003v127.000003m1.6-127.000003v127.000003m1.6-127.000003v127.000003m1.6-127.000003v127.000003m1.6-127.000003v127.000003m1.6-127.000003v127.000003m1.6-127.000003v127.000003m1.6-127.000003v127.000003m1.6-127.000003v127.000003m1.6-127.000003v127.000003m1.6-127.000003v127.000003m1.6-127.000003v127.000003m1.6-127.000003v127.000003m1.6-127.000003v127.000003m1.6-127.000003v127.000003m1.6-127.000003v127.000003m1.6-127.000003v127.000003m1.6-127.000003v127.000003m1.6-127.000003v127.000003m1.6-127.000003v127.000003m1.6-127.000003v127.000003m1.6-127.000003v127.000003m1.6-127.000003v127.000003m1.6-127.000003v127.000003m1.6-127.000003v127.000003m1.6-127.000003v127.000003m1.6-127.000003v127.000003m1.6-127.000003v127.000003m1.6-127.000003v127.000003m1.6-127.000003v127.000003m1.6-127.000003v127.000003m1.6-127.000003v127.000003m1.6-127.000003v127.000003m1.6-127.000003v127.000003m1.6-127.000003v127.000003m1.6-127.000003v127.000003m1.6-127.000003v127.000003m1.6-127.000003v127.000003m1.6-127.000003v127.000003m1.6-127.000003v127.000003m-137.60001-127.000003h139m-139 1.600002h139m-139 1.6h139m-139 1.6h139m-139 1.6h139m-139 1.6h139m-139 1.6h139m-139 1.6h139m-139 1.6h139m-139 1.6h139m-139 1.6h139m-139 1.6h139m-139 1.6h139m-139 1.6h139m-139 1.6h139m-139 1.6h139m-139 1.6h139m-139 1.6h139m-139 1.6h139m-139 1.6h139m-139 1.6h139m-139 1.6h139m-139 1.6h139m-139 1.6h139m-139 1.600001h139m-139 1.6h139m-139 1.6h139m-139 1.6h139m-139 1.6h139m-139 1.6h139m-139 1.6h139m-139 1.6h139m-139 1.6h139m-139 1.6h139m-139 1.6h139m-139 1.6h139m-139 1.6h139m-139 1.6h139m-139 1.6h139m-139 1.6h139m-139 1.6h139m-139 1.6h139m-139 1.6h139m-139 1.6h139m-139 1.6h139m-139 1.6h139m-139 1.6h139m-139 1.6h139m-139 1.6h139m-139 1.6h139m-139 1.6h139m-139 1.6h139m-139 1.6h139m-139 1.6h139m-139 1.6h139m-139 1.6h139m-139 1.6h139m-139 1.6h139m-139 1.6h139m-139 1.6h139m-139 1.6h139m-139 1.6h139m-139 1.6h139m-139 1.6h139m-139 1.6h139m-139 1.6h139m-139 1.6h139m-139 1.6h139m-139 1.6h139m-139 1.6h139m-139 1.6h139m-139 1.6h139m-139 1.6h139m-139 1.6h139m-139 1.6h139m-139 1.6h139m-139 1.6h139m-139 1.6h139m-139 1.6h139m-139 1.6h139m-139-126.400003h139v127.000003h-139z" fill="#4d4d4d" fill-rule="evenodd" stroke="#575d5e" stroke-width=".4pt" transform="translate(-274.64059)"/><g id="g129" shape-rendering="crispEdges"><rect id="rect131" fill="#bb1e10" height="10.5" width="139.2" x="105.4" y="49.900154"/><path id="path133" d="m105.4 60.900179h139.2" fill="none" stroke="#fff"/><text id="text135" line-height="100%" style="font-weight:bold;font-size:5.39302158;font-family:sans-serif;letter-spacing:0;word-spacing:0;fill:#fff" x="205.53897" xml:space="preserve" y="57.821663"><tspan id="tspan137" fill="#fff" font-family="sans-serif" font-size="7.5" font-weight="bold" line-height="100%" x="205.53897" y="57.821663">TMax T6</tspan><tspan id="tspan139" fill="#fff" x="205.53897" y="57.821663"/></text><path id="path141" d="m111.16024 51.150152l-1.04937 3.92001h2.16781v-3.92001zm1.27844 0v3.92001h2.16783l-1.04922-3.92001zm4.48003 0v3.92001h2.32001v-3.92001zm2.48001 0v3.92001h2.42861a2.4000112 2.4000112 0 0 0 -.83048-.551121 1.8000084 1.8000084 0 0 0  .92204-1.568866 1.8000084 1.8000084 0 0 0 -1.80001-1.800023 1.8000084 1.8000084 0 0 0 -.00016 0zm3.76001 0v3.92001h2.32001v-3.92001zm2.48002 0v3.92001h2.4286a2.4000112 2.4000112 0 0 0 -.83047-.551121 1.8000084 1.8000084 0 0 0  .92204-1.568866 1.8000084 1.8000084 0 0 0 -1.80001-1.800023 1.8000084 1.8000084 0 0 0 -.00016 0zm-15.5707 4.07999l-1.04938 3.92001h2.00001l.42406-1.600002h.83594v-2.320008zm2.37063 0v2.320008h.8361l.42391 1.600002h2.00001l-1.04922-3.92001zm4.48003 0v3.92001h2.32001v-3.92001zm2.48001 0v3.92001h.72001a2.4000112 2.4000112 0 0 0  .00015 0 2.4000112 2.4000112 0 0 0  2.40001-2.400002 2.4000112 2.4000112 0 0 0 -.54672-1.520008h-2.57344zm3.76001 0v3.92001h2.32001v-3.92001zm2.48002 0v3.92001h.72a2.4000112 2.4000112 0 0 0  .00016 0 2.4000112 2.4000112 0 0 0  2.40001-2.400002 2.4000112 2.4000112 0 0 0 -.54671-1.520008z" fill="#fff"/></g><g id="g143" shape-rendering="crispEdges"><circle id="circle145" cx="136.60001" cy="92.20018" fill="#575d5e" r="30.1"/><g id="g147"><path id="path149" d="m106.90671 96.478682a30 30 0 0 1  .34886-10.516218l29.34443 6.237351z" fill="#808000"/><path id="path151" d="m125.84896 64.192403a30 30 0 0 1 21.45318-.01872l-10.70214 28.026132z" fill="#f00"/><path id="path153" d="m109.30116 79.759019a30 30 0 0 1 16.5478-15.566616l10.75104 28.007412z" fill="#ff0"/><circle id="circle155" cx="136.60001" cy="92.199814" fill="#575d5e" r="25" stroke="#333"/><text id="text157" fill="#fff" font-family="sans-serif" font-size="12.5" letter-spacing="0" line-height="125%" word-spacing="0" x="136.17227" xml:space="preserve" y="66.330368"><tspan id="tspan159" fill="#fff" font-family="FreesiaUPC" font-size="7.5" x="136.17227" y="66.330368">I</tspan></text><text id="text161" fill="#fff" font-family="sans-serif" font-size="12.5" letter-spacing="0" line-height="125%" word-spacing="0" x="107.49824" xml:space="preserve" y="92.934021"><tspan id="tspan163" fill="#fff" font-family="FreesiaUPC" font-size="7.5" x="107.49824" y="92.934021">O</tspan></text></g><circle id="circle165" cx="136.60001" cy="92.20018" fill="#575d5e" r="25.25" stroke="#363636" stroke-linecap="round" stroke-linejoin="round" stroke-width=".5"/><rect id="rect167" fill="#575d5e" height="42" rx="21" stroke="#333" stroke-linecap="round" stroke-linejoin="round" stroke-width=".5" width="116" x="115.6" y="71.200172"/><path id="path169" d="m184.0467 91.75c0-5.4015-4.37456-9.749989-9.80844-9.749989h-38.46616-.11367-5.60281c-2.33034 0-4.20562 1.4495-4.20562 3.249989v6.5 6.5c0 1.8005 1.87528 3.25 4.20562 3.25h5.60281.11367 38.46616c5.43388 0 9.80844-4.3485 9.80844-9.75z" fill="none" stroke="#363636" stroke-linecap="round" stroke-linejoin="bevel" stroke-width=".5"/><path id="path171" d="m113.85 91.75c0 5.4015 4.7732 9.75 10.70225 9.75h41.97148.12402 6.11338c2.5427 0 4.58887-1.4495 4.58887-3.25v-6.5-6.5c0-1.800489-2.04617-3.249989-4.58887-3.249989h-6.11338-.12402-41.97148c-5.92905 0-10.70225 4.348489-10.70225 9.749989z" fill="#fff" stroke="#999" stroke-linecap="round" stroke-linejoin="bevel" stroke-width=".49999997"/><path id="path173" d="m150.59817 84.86849c0-1.173159-.25577-2.118479-.57226-2.118479h-2.85548c-.3165 0-.57226.94532-.57226 2.118479v13.76432c0 1.17318.25576 2.11719.57226 2.11719h2.85548c.31649 0 .57226-.94401.57226-2.11719zm-6.44922 0c0-1.173159-.25573-2.118479-.57227-2.118479h-2.85547c-.31648 0-.57226.94532-.57226 2.118479v13.76432c0 1.17318.25578 2.11719.57226 2.11719h2.85547c.31654 0 .57227-.94401.57227-2.11719zm-6.45118 0c0-1.173159-.25575-2.118479-.57226-2.118479h-2.85547c-.31651 0-.57227.94532-.57227 2.118479v13.76432c0 1.17318.25576 2.11719.57227 2.11719h2.85547c.31651 0 .57226-.94401.57226-2.11719z" fill="#e6e6e6"/><path id="path175" d="m116.24284 97.69027a22.5 22.5 0 0 1 -.68007-5.49007 22.5 22.5 0 0 1  1.09925-6.94678" fill="none" stroke="#999" stroke-linecap="round" stroke-linejoin="round" stroke-width=".5"/></g><g id="g177"/><g id="g179" shape-rendering="crispEdges"><ellipse id="ellipse181" cx="236.54164" cy="179.79999" rx="4.75" ry="2.75" style="overflow:visible;fill:#c7cacc;fill-rule:evenodd;stroke:#333;stroke-width:.49999991;stroke-linecap:round;stroke-linejoin:round"/><text id="text183" line-height="125%" style="font-size:12.5;font-family:sans-serif;letter-spacing:0;word-spacing:0;overflow:visible;fill:#4d4d4d;fill-opacity:.9372549" x="234.1512" xml:space="preserve" y="180.4816"><tspan id="tspan185" fill="#4d4d4d" fill-opacity=".9372549" font-size="1.875" x="234.1512" y="180.4816">TEST</tspan></text></g></g><g id="motorDrive"><rect id="rect189" fill="#575d5e" height="140" shape-rendering="crispEdges" stroke="#333" stroke-width=".80000001" width="140" x="105" y="63.999985"/><path id="path191" clip-path="url(#i)" d="m285.88474 76.224989v127.000001m1.6-127.000001v127.000001m1.6-127.000001v127.000001m1.6-127.000001v127.000001m1.6-127.000001v127.000001m1.6-127.000001v127.000001m1.6-127.000001v127.000001m1.6-127.000001v127.000001m1.6-127.000001v127.000001m1.6-127.000001v127.000001m1.6-127.000001v127.000001m1.6-127.000001v127.000001m1.6-127.000001v127.000001m1.6-127.000001v127.000001m1.6-127.000001v127.000001m1.6-127.000001v127.000001m1.6-127.000001v127.000001m1.6-127.000001v127.000001m1.6-127.000001v127.000001m1.6-127.000001v127.000001m1.6-127.000001v127.000001m1.6-127.000001v127.000001m1.6-127.000001v127.000001m1.6-127.000001v127.000001m1.6-127.000001v127.000001m1.6-127.000001v127.000001m1.6-127.000001v127.000001m1.6-127.000001v127.000001m1.6-127.000001v127.000001m1.6-127.000001v127.000001m1.6-127.000001v127.000001m1.6-127.000001v127.000001m1.6-127.000001v127.000001m1.6-127.000001v127.000001m1.6-127.000001v127.000001m1.6-127.000001v127.000001m1.6-127.000001v127.000001m1.6-127.000001v127.000001m1.6-127.000001v127.000001m1.6-127.000001v127.000001m1.6-127.000001v127.000001m1.6-127.000001v127.000001m1.6-127.000001v127.000001m1.6-127.000001v127.000001m1.6-127.000001v127.000001m1.6-127.000001v127.000001m1.6-127.000001v127.000001m1.6-127.000001v127.000001m1.6-127.000001v127.000001m1.6-127.000001v127.000001m1.6-127.000001v127.000001m1.6-127.000001v127.000001m1.6-127.000001v127.000001m1.6-127.000001v127.000001m1.6-127.000001v127.000001m1.6-127.000001v127.000001m1.6-127.000001v127.000001m1.6-127.000001v127.000001m1.6-127.000001v127.000001m1.6-127.000001v127.000001m1.6-127.000001v127.000001m1.6-127.000001v127.000001m1.6-127.000001v127.000001m1.6-127.000001v127.000001m1.6-127.000001v127.000001m1.6-127.000001v127.000001m1.6-127.000001v127.000001m1.6-127.000001v127.000001m1.6-127.000001v127.000001m1.6-127.000001v127.000001m1.6-127.000001v127.000001m1.6-127.000001v127.000001m1.6-127.000001v127.000001m1.6-127.000001v127.000001m1.6-127.000001v127.000001m1.6-127.000001v127.000001m1.6-127.000001v127.000001m1.6-127.000001v127.000001m1.6-127.000001v127.000001m1.6-127.000001v127.000001m1.6-127.000001v127.000001m1.6-127.000001v127.000001m1.6-127.000001v127.000001m1.6-127.000001v127.000001m1.6-127.000001v127.000001m1.6-127.000001v127.000001m1.6-127.000001v127.000001m-137.6-127.000001h139m-139 1.6h139m-139 1.6h139m-139 1.6h139m-139 1.6h139m-139 1.6h139m-139 1.6h139m-139 1.6h139m-139 1.6h139m-139 1.6h139m-139 1.6h139m-139 1.6h139m-139 1.6h139m-139 1.6h139m-139 1.6h139m-139 1.600001h139m-139 1.6h139m-139 1.6h139m-139 1.6h139m-139 1.6h139m-139 1.6h139m-139 1.6h139m-139 1.6h139m-139 1.6h139m-139 1.6h139m-139 1.6h139m-139 1.6h139m-139 1.6h139m-139 1.6h139m-139 1.6h139m-139 1.6h139m-139 1.6h139m-139 1.6h139m-139 1.6h139m-139 1.6h139m-139 1.6h139m-139 1.6h139m-139 1.6h139m-139 1.6h139m-139 1.6h139m-139 1.6h139m-139 1.6h139m-139 1.6h139m-139 1.6h139m-139 1.6h139m-139 1.6h139m-139 1.6h139m-139 1.6h139m-139 1.6h139m-139 1.6h139m-139 1.6h139m-139 1.6h139m-139 1.6h139m-139 1.6h139m-139 1.6h139m-139 1.6h139m-139 1.6h139m-139 1.6h139m-139 1.6h139m-139 1.6h139m-139 1.6h139m-139 1.6h139m-139 1.6h139m-139 1.6h139m-139 1.6h139m-139 1.6h139m-139 1.6h139m-139 1.6h139m-139 1.6h139m-139 1.6h139m-139 1.6h139m-139 1.6h139m-139 1.6h139m-139 1.6h139m-139 1.6h139m-139 1.6h139m-139 1.6h139m-139 1.6h139m-139 1.6h139m-139 1.6h139m-139-126.400001h139v127.000001h-139z" fill="#4d4d4d" fill-rule="evenodd" stroke="#575d5e" stroke-width=".4pt" transform="translate(-180.38474)"/><g id="g193" shape-rendering="crispEdges"><rect id="rect195" fill="#f00" height="17.5" stroke="#333" stroke-width=".5" width="17.5" x="193.668" y="97.999985"/><circle id="circle197" cx="202.418" cy="106.74998" fill="none" overflow="visible" r="3.5999999" stroke="#fff"/></g><g id="g199" shape-rendering="crispEdges"><rect id="rect201" fill="#007b00" height="17.5" stroke="#333" stroke-width=".5" width="17.5" x="145.668" y="97.999985"/><text id="text203" line-height="125%" style="font-weight:bold;font-size:10.80000019;font-family:Arial;letter-spacing:0;word-spacing:0;fill:#fff" x="152.89925" xml:space="preserve" y="110.61542"><tspan id="tspan205" x="152.89925" y="110.61542">I</tspan></text></g><g id="g207" shape-rendering="crispEdges"><rect id="rect209" fill="#c7c9cc" height="8.5" rx=".5" stroke="#333" stroke-width=".5" width="18.5" x="193.418" y="161.16451"/><rect id="rect211" fill="none" height="7" rx=".25" stroke="#000" stroke-width=".25" width="3" x="205.168" y="161.91451"/></g><g id="g213" shape-rendering="crispEdges"><rect id="rect215" fill="#5b5e60" height="93" rx="1" ry="1.1272722" stroke="#1a1a1a" stroke-width="1.50000036" width="14.5" x="112.53574" y="99.664505"/><path id="path217" d="m113.28575 162.70345c0-.71142.18442 1.8617 1.53857 3.04393 1.35415 1.18221 3.72509.97351 4.80841.97351 1.08332 0 3.47281.2087 4.82696-.97351 1.35416-1.18223 1.83577-3.75532 1.82591-3.04393v17.64494c-1.86015-.40935-.63705 2.07003-3.06432 2.7161-2.42726.64609-9.93553.0324-9.93553.0324z" fill="#333" overflow="visible"/></g><rect id="rect219" height="27.5" style="overflow:visible;fill:#c7c9cc;stroke:#333;stroke-width:.49999997;stroke-linecap:round;stroke-linejoin:round;shape-rendering:crispEdges" transform="rotate(90)" width="4" x="191.82999" y="-238.66798"/><path id="path221" d="m148.51668 139.00403h10.96664" style="overflow:visible;fill:none;stroke:#fff;stroke-width:.80000001;stroke-linecap:round;stroke-dasharray:1.60000002 1.60000002;shape-rendering:crispEdges"/><g id="g223" shape-rendering="crispEdges"><rect id="rect225" fill="#fff" height="6.5" stroke="#333" stroke-width=".5" width="18" x="145.418" y="138.44193"/><path id="path227" d="m148.93468 141.69192h10.96664" style="overflow:visible;fill:none;stroke:#000;stroke-width:.80000001;stroke-linecap:round;stroke-dasharray:1.60000002 1.60000002"/></g><g id="g229" shape-rendering="crispEdges"><rect id="rect231" fill="#fff" height="6.5" stroke="#333" stroke-width=".5" width="18" x="193.418" y="138.44193"/><circle id="circle233" cx="196.418" cy="141.69193" fill="none" overflow="visible" r="1.5" stroke="#000" stroke-width=".5"/><path id="path235" d="m201.73662 141.69192h5.61276" style="overflow:visible;fill:none;stroke:#000;stroke-width:.79999995;stroke-linecap:round;stroke-dasharray:1.60000001 1.60000001"/></g><g id="g237" shape-rendering="crispEdges"><path id="path239" d="m105.39999 75.399984h139.20001" fill="none" stroke="#fff" stroke-width=".99999994"/><rect id="rect241" fill="#bb1e10" height="10.5" width="139.2" x="105.39999" y="64.399986"/><path id="path243" d="m112.02149 65.649987l-1.04938 3.92h2.16783v-3.92zm1.27845 0v3.92h2.1678l-1.04921-3.92zm4.47999 0v3.92h2.32v-3.92zm2.48 0v3.92h2.4286a2.4000002 2.4000002 0 0 0 -.83047-.55109 1.8000001 1.8000001 0 0 0  .92203-1.56891 1.8000001 1.8000001 0 0 0 -1.8-1.8 1.8000001 1.8000001 0 0 0 -.00014 0h-.72zm3.76 0v3.92h2.32v-3.92zm2.48 0v3.92h2.4286a2.4000002 2.4000002 0 0 0 -.83047-.55109 1.8000001 1.8000001 0 0 0  .92203-1.56891 1.8000001 1.8000001 0 0 0 -1.8-1.8 1.8000001 1.8000001 0 0 0 -.00014 0h-.72zm-15.57062 4.08l-1.04937 3.92h2l .42406-1.59999h.83594v-2.32001zm2.37063 0v2.32001h.83609l.42391 1.59999h1.99999l-1.04921-3.92zm4.47999 0v3.92h2.32v-3.92zm2.48 0v3.92h.72a2.4000002 2.4000002 0 0 0  .00013 0 2.4000002 2.4000002 0 0 0  2.4-2.4 2.4000002 2.4000002 0 0 0 -.54672-1.52h-2.57344zm3.76 0v3.92h2.32v-3.92zm2.48 0v3.92h.72a2.4000002 2.4000002 0 0 0  .00013 0 2.4000002 2.4000002 0 0 0  2.4-2.4 2.4000002 2.4000002 0 0 0 -.54672-1.52h-2.57343z" fill="#fff" overflow="visible"/><text id="text245" line-height="100%" style="font-weight:bold;font-size:5.39302158;font-family:sans-serif;letter-spacing:0;word-spacing:0;overflow:visible;fill:#fff" x="202.44385" xml:space="preserve" y="72.321495"><tspan id="tspan247" fill="#fff" font-family="sans-serif" font-size="7.5" font-weight="bold" line-height="100%" x="202.44385" y="72.321495">TMax T6</tspan><tspan id="tspan249" fill="#fff" x="202.44385" y="72.321495"/></text></g><path id="path251" d="m197.18468 174.30477h10.96664" style="overflow:visible;fill:none;stroke:#fff;stroke-width:.80000001;stroke-linecap:round;stroke-dasharray:1.60000002 1.60000002;shape-rendering:crispEdges"/></g><g id="rockerLever"><rect id="rect255" fill="#575d5e" height="105" shape-rendering="crispEdges" stroke="#333" stroke-width=".80000001" width="140" x="105" y="72.749985"/><path id="path257" clip-path="url(#h)" d="m422.82587 85.474988v92.000002m1.6-92.000002v92.000002m1.6-92.000002v92.000002m1.6-92.000002v92.000002m1.6-92.000002v92.000002m1.6-92.000002v92.000002m1.6-92.000002v92.000002m1.6-92.000002v92.000002m1.6-92.000002v92.000002m1.6-92.000002v92.000002m1.6-92.000002v92.000002m1.6-92.000002v92.000002m1.6-92.000002v92.000002m1.6-92.000002v92.000002m1.6-92.000002v92.000002m1.6-92.000002v92.000002m1.6-92.000002v92.000002m1.6-92.000002v92.000002m1.6-92.000002v92.000002m1.6-92.000002v92.000002m1.6-92.000002v92.000002m1.6-92.000002v92.000002m1.6-92.000002v92.000002m1.6-92.000002v92.000002m1.6-92.000002v92.000002m1.6-92.000002v92.000002m1.6-92.000002v92.000002m1.6-92.000002v92.000002m1.6-92.000002v92.000002m1.6-92.000002v92.000002m1.6-92.000002v92.000002m1.6-92.000002v92.000002m1.6-92.000002v92.000002m1.6-92.000002v92.000002m1.6-92.000002v92.000002m1.6-92.000002v92.000002m1.6-92.000002v92.000002m1.6-92.000002v92.000002m1.6-92.000002v92.000002m1.6-92.000002v92.000002m1.6-92.000002v92.000002m1.6-92.000002v92.000002m1.6-92.000002v92.000002m1.6-92.000002v92.000002m1.6-92.000002v92.000002m1.6-92.000002v92.000002m1.6-92.000002v92.000002m1.6-92.000002v92.000002m1.6-92.000002v92.000002m1.6-92.000002v92.000002m1.6-92.000002v92.000002m1.6-92.000002v92.000002m1.6-92.000002v92.000002m1.6-92.000002v92.000002m1.6-92.000002v92.000002m1.6-92.000002v92.000002m1.6-92.000002v92.000002m1.6-92.000002v92.000002m1.6-92.000002v92.000002m1.6-92.000002v92.000002m1.6-92.000002v92.000002m1.6-92.000002v92.000002m1.6-92.000002v92.000002m1.6-92.000002v92.000002m1.6-92.000002v92.000002m1.6-92.000002v92.000002m1.6-92.000002v92.000002m1.6-92.000002v92.000002m1.6-92.000002v92.000002m1.6-92.000002v92.000002m1.6-92.000002v92.000002m1.6-92.000002v92.000002m1.6-92.000002v92.000002m1.6-92.000002v92.000002m1.6-92.000002v92.000002m1.6-92.000002v92.000002m1.6-92.000002v92.000002m1.6-92.000002v92.000002m1.6-92.000002v92.000002m1.6-92.000002v92.000002m1.6-92.000002v92.000002m1.6-92.000002v92.000002m1.6-92.000002v92.000002m1.6-92.000002v92.000002m-132.8-92.000002h134m-134 1.6h134m-134 1.6h134m-134 1.6h134m-134 1.6h134m-134 1.6h134m-134 1.6h134m-134 1.6h134m-134 1.6h134m-134 1.6h134m-134 1.600002h134m-134 1.6h134m-134 1.6h134m-134 1.6h134m-134 1.6h134m-134 1.6h134m-134 1.6h134m-134 1.6h134m-134 1.6h134m-134 1.6h134m-134 1.6h134m-134 1.6h134m-134 1.6h134m-134 1.6h134m-134 1.6h134m-134 1.6h134m-134 1.6h134m-134 1.6h134m-134 1.6h134m-134 1.6h134m-134 1.6h134m-134 1.6h134m-134 1.6h134m-134 1.6h134m-134 1.6h134m-134 1.6h134m-134 1.6h134m-134 1.6h134m-134 1.6h134m-134 1.6h134m-134 1.6h134m-134 1.6h134m-134 1.6h134m-134 1.6h134m-134 1.6h134m-134 1.6h134m-134 1.6h134m-134 1.6h134m-134 1.6h134m-134 1.6h134m-134 1.6h134m-134 1.6h134m-134 1.6h134m-134 1.6h134m-134 1.6h134m-134 1.6h134m-134 1.6h134m-134 1.6h134m-134-91.200002h134v92.000002h-134z" fill="#4d4d4d" fill-rule="evenodd" stroke="#575d5e" stroke-width=".4pt" transform="translate(-314.82587 -.70000221)"/><rect id="rect259" fill="#2b6138" height="7.5" shape-rendering="crispEdges" width="28.25" x="146.5" y="135.53712"/><rect id="rect261" fill="#ff0" fill-opacity=".58208953" height="7.5" shape-rendering="crispEdges" width="28.25" x="175.25" y="135.53712"/><g id="g263"/><g id="g265" shape-rendering="crispEdges"><rect id="rect267" fill="#f00" fill-opacity=".39215686" height="7.5" width="56.5" x="146.75002" y="122.49998"/><text id="text269" fill="#fff" font-family="sans-serif" font-size="12.5" letter-spacing="0" line-height="125%" word-spacing="0" x="153.69241" xml:space="preserve" y="129.09909"><tspan id="tspan271" font-size="7.5" x="153.69241" y="129.09909">l</tspan></text><text id="text273" fill="#fff" font-family="sans-serif" font-size="12.5" letter-spacing="0" line-height="125%" word-spacing="0" x="190.92986" xml:space="preserve" y="128.29526"><tspan id="tspan275" font-size="7.5" x="190.92986" y="128.29526">on</tspan></text></g><g id="g277" shape-rendering="crispEdges"><rect id="rect279" fill="#008000" fill-opacity=".39215686" height="7.5" width="56.500004" x="146.75002" y="158.16426"/><circle id="circle281" cx="154.44905" cy="161.91425" fill="none" overflow="visible" r="2.5" stroke="#fff" stroke-width=".5"/><text id="text283" fill="#fff" font-family="sans-serif" font-size="12.5" letter-spacing="0" line-height="125%" word-spacing="0" x="190.65742" xml:space="preserve" y="164.72493"><tspan id="tspan285" font-size="7.5" x="190.65742" y="164.72493">off</tspan></text></g><g id="g287" fill="#d4d5df" shape-rendering="crispEdges" stroke-width=".49999997"><rect id="rect289" height="43" stroke="#333" width="25" x="162.50002" y="122.50039"/><path id="path291" d="m163.75002 144.35531h22.5c.277 0 .5114.29397.5.65873l-.29844 15.94127-.69783 15.94127c-.016.36459-1.22673.65873-1.50373.65873h-18.5c-.277 0-1.48478-.29397-1.49627-.65873 0 0-.53483-10.62499-.70217-15.94127-.16721-5.31208-.30156-15.94127-.30156-15.94127-.0115-.36476.223-.65873.5-.65873z" stroke="#808080"/></g><g id="g293" shape-rendering="crispEdges"><rect id="rect295" fill="#bb1e10" height="10.5" width="139.2" x="105.40015" y="73.150391"/><text id="text297" line-height="100%" style="font-weight:bold;font-size:5.39302158;font-family:sans-serif;letter-spacing:0;word-spacing:0;overflow:visible;fill:#fff" x="205.09166" xml:space="preserve" y="81.071899"><tspan id="tspan299" fill="#fff" font-family="sans-serif" font-size="7.5" font-weight="bold" line-height="100%" x="205.09166" y="81.071899">TMax T6</tspan><tspan id="tspan301" fill="#fff" x="205.09166" y="81.071899"/></text><path id="path303" d="m111.53774 74.400388l-1.04937 3.92h2.16782v-3.92zm1.27845 0v3.92h2.1678l-1.04921-3.92zm4.48 0v3.92h2.32v-3.92zm2.48 0v3.92h2.42859a2.4000002 2.4000002 0 0 0 -.83047-.55109 1.8000001 1.8000001 0 0 0  .92204-1.56891 1.8000001 1.8000001 0 0 0 -1.8-1.8 1.8000001 1.8000001 0 0 0 -.00015 0h-.72zm3.76 0v3.92h2.31999v-3.92zm2.47999 0v3.92h2.4286a2.4000002 2.4000002 0 0 0 -.83047-.55109 1.8000001 1.8000001 0 0 0  .92203-1.56891 1.8000001 1.8000001 0 0 0 -1.8-1.8 1.8000001 1.8000001 0 0 0 -.00014 0h-.72zm-15.57061 4.08l-1.04938 3.92h2l .42406-1.59999h.83594v-2.32001zm2.37062 0v2.32001h.8361l.4239 1.59999h2l-1.04922-3.92zm4.48 0v3.92h2.32v-3.92zm2.48 0v3.92h.72a2.4000002 2.4000002 0 0 0  .00012 0 2.4000002 2.4000002 0 0 0  2.4-2.4 2.4000002 2.4000002 0 0 0 -.54672-1.52h-2.57344zm3.76 0v3.92h2.31999v-3.92zm2.47999 0v3.92h.72a2.4000002 2.4000002 0 0 0  .00013 0 2.4000002 2.4000002 0 0 0  2.4-2.4 2.4000002 2.4000002 0 0 0 -.54672-1.52h-2.57342z" fill="#fff" overflow="visible"/><path id="path305" d="m105.40016 84.150386h139.2" fill="none" stroke="#fff"/></g><g id="g307" stroke="#808080"><rect id="rect309" fill="#d4d5df" height="5" overflow="visible" rx=".45744681" ry=".5" shape-rendering="crispEdges" stroke-width=".49999997" width="21.5" x="164.25" y="172.5553"/><ellipse id="ellipse311" cx="168" cy="175.3047" fill="#4d4d4d" rx="1.0646187" ry="1.2420551" stroke-linecap="round" stroke-linejoin="round" stroke-width=".25"/><ellipse id="ellipse313" cx="182" cy="175.3047" fill="#4d4d4d" rx="1.0646187" ry="1.2420551" stroke-linecap="round" stroke-linejoin="round" stroke-width=".25"/></g><g id="g315" shape-rendering="crispEdges"><ellipse id="ellipse317" cx="236.00002" cy="170.74997" rx="4.75" ry="2.75" style="overflow:visible;fill:#c7cacc;fill-rule:evenodd;stroke:#333;stroke-width:.49999991;stroke-linecap:round;stroke-linejoin:round"/><text id="text319" line-height="125%" style="font-size:12.5;font-family:sans-serif;letter-spacing:0;word-spacing:0;overflow:visible;fill:#4d4d4d;fill-opacity:.9372549" x="233.60957" xml:space="preserve" y="171.43158"><tspan id="tspan321" fill="#4d4d4d" fill-opacity=".9372549" font-size="1.875" x="233.60957" y="171.43158">TEST</tspan></text></g></g></g></svg>