<svg id="svg2" height="269" overflow="visible" viewBox="0 0 211 269" width="211" xmlns="http://www.w3.org/2000/svg" xmlns:xlink="http://www.w3.org/1999/xlink"><clipPath id="a"><path id="path5" d="m462.90629 129.15039v75.09961h16.5v10h-16.5v7.59961h182.19922v-29.59961h-16.5v-10h16.5v-53.09961zm48.34961 1.59961h90.5v12h-90.5zm0 27.78711h90.5v12h-90.5zm0 44.62695h90.5v12h-90.5z" shape-rendering="crispEdges"/></clipPath><clipPath id="b"><path id="path8" d="m4.5962135-254.20217v79.52148h14.9999995v8h-14.9999995v7.17773h47.4999995v-.70117-74h-20v-19.99805h-27.4999995zm59.9999995 0v38.69921h23.599609v56h22.449218v-56h21v56h62.15039v-32.25h-15v-8h15v-54.44922h-129.199217z" shape-rendering="crispEdges"/></clipPath><clipPath id="c"><path id="path11" d="m10.400391-56.398755v61.1992186h29.224609v-61.1992186zm31.224609 0v61.1992186h24v-61.1992186zm117.69922 0v61.1992186h40.27539v-61.1992186zm-91.69922 4.25v53.5527336h89.69922v-53.5527336z"/></clipPath><clipPath id="d"><path id="path14" clip-path="url(#a)" d="m671.256 178.494h-78.5m78.5 1.5h-78.5m78.5 1.5h-78.5m78.5 1.5h-78.5m78.5 1.5h-78.5m78.5 1.5h-78.5m78.5 1.5h-78.5m78.5 1.5h-78.5m78.5 1.5h-78.5m78.5 1.5h-78.5m78.5 1.5h-78.5m78.5 1.5h-78.5m78.5 1.5h-78.5m78.5 1.5h-78.5m78.5 1.5h-78.5m78.5 1.5h-78.5m78.5 1.5h-78.5m78.5 1.5h-78.5m78.5 1.5h-78.5m78.5 1.5h-78.5m78.5 1.5h-78.5m78.5 1.5h-78.5m78.5 1.5h-78.5m78.5 1.5h-78.5m78.5 1.5h-78.5m78.5 1.5h-78.5m78.5 1.5h-78.5m78.5 1.5h-78.5m78.5 1.5h-78.5m78.5 1.5h-78.5m78.5 1.5h-78.5m78.5 1.5h-78.5m78.5 1.5h-78.5m78.5 1.5h-78.5m78.5 1.5h-78.5m64.75-50.75v50.5m1.5-50.5v50.5m1.5-50.5v50.5m1.5-50.5v50.5m1.5-50.5v50.5m1.5-50.5v50.5m1.5-50.5v50.5m1.5-50.5v50.5m1.5-50.5v50.5m1.5-50.5v50.5m-78-50.5v50.5m1.5-50.5v50.5m1.5-50.5v50.5m1.5-50.5v50.5m1.5-50.5v50.5m1.5-50.5v50.5m1.5-50.5v50.5m1.5-50.5v50.5m1.5-50.5v50.5m1.5-50.5v50.5m1.5-50.5v50.5m1.5-50.5v50.5m1.5-50.5v50.5m1.5-50.5v50.5m1.5-50.5v50.5m1.5-50.5v50.5m1.5-50.5v50.5m1.5-50.5v50.5m1.5-50.5v50.5m1.5-50.5v50.5m1.5-50.5v50.5m1.5-50.5v50.5m1.5-50.5v50.5m1.5-50.5v50.5m1.5-50.5v50.5m1.5-50.5v50.5m1.5-50.5v50.5m1.5-50.5v50.5m1.5-50.5v50.5m1.5-50.5v50.5m1.5-50.5v50.5m1.5-50.5v50.5m1.5-50.5v50.5m1.5-50.5v50.5m1.5-50.5v50.5m1.5-50.5v50.5m1.5-50.5v50.5m1.5-50.5v50.5m1.5-50.5v50.5m1.5-50.5v50.5m1.5-50.5v50.5m1.5-50.5v50.5m1.5-50.5v50.5m-63-50.75h78v51h-78zm78.25-50.99955h-78.5m78.5 1.5h-78.5m78.5 1.5h-78.5m78.5 1.5h-78.5m78.5 1.5h-78.5m78.5 1.5h-78.5m78.5 1.5h-78.5m78.5 1.5h-78.5m78.5 1.5h-78.5m78.5 1.5h-78.5m78.5 1.5h-78.5m78.5 1.5h-78.5m78.5 1.5h-78.5m78.5 1.5h-78.5m78.5 1.5h-78.5m78.5 1.5h-78.5m78.5 1.5h-78.5m78.5 1.5h-78.5m78.5 1.5h-78.5m78.5 1.5h-78.5m78.5 1.5h-78.5m78.5 1.5h-78.5m78.5 1.5h-78.5m78.5 1.5h-78.5m78.5 1.5h-78.5m78.5 1.5h-78.5m78.5 1.5h-78.5m78.5 1.5h-78.5m78.5 1.5h-78.5m78.5 1.5h-78.5m78.5 1.5h-78.5m78.5 1.5h-78.5m78.5 1.5h-78.5m78.5 1.5h-78.5m78.5 1.5h-78.5m64.75-50.75v50.5m1.5-50.5v50.5m1.5-50.5v50.5m1.5-50.5v50.5m1.5-50.5v50.5m1.5-50.5v50.5m1.5-50.5v50.5m1.5-50.5v50.5m1.5-50.5v50.5m1.5-50.5v50.5m-78-50.5v50.5m1.5-50.5v50.5m1.5-50.5v50.5m1.5-50.5v50.5m1.5-50.5v50.5m1.5-50.5v50.5m1.5-50.5v50.5m1.5-50.5v50.5m1.5-50.5v50.5m1.5-50.5v50.5m1.5-50.5v50.5m1.5-50.5v50.5m1.5-50.5v50.5m1.5-50.5v50.5m1.5-50.5v50.5m1.5-50.5v50.5m1.5-50.5v50.5m1.5-50.5v50.5m1.5-50.5v50.5m1.5-50.5v50.5m1.5-50.5v50.5m1.5-50.5v50.5m1.5-50.5v50.5m1.5-50.5v50.5m1.5-50.5v50.5m1.5-50.5v50.5m1.5-50.5v50.5m1.5-50.5v50.5m1.5-50.5v50.5m1.5-50.5v50.5m1.5-50.5v50.5m1.5-50.5v50.5m1.5-50.5v50.5m1.5-50.5v50.5m1.5-50.5v50.5m1.5-50.5v50.5m1.5-50.5v50.5m1.5-50.5v50.5m1.5-50.5v50.5m1.5-50.5v50.5m1.5-50.5v50.5m1.5-50.5v50.5m1.5-50.5v50.5m-63-50.75h78v51h-78zm .25 50.99955h-78.5m78.5 1.5h-78.5m78.5 1.5h-78.5m78.5 1.5h-78.5m78.5 1.5h-78.5m78.5 1.5h-78.5m78.5 1.5h-78.5m78.5 1.5h-78.5m78.5 1.5h-78.5m78.5 1.5h-78.5m78.5 1.5h-78.5m78.5 1.5h-78.5m78.5 1.5h-78.5m78.5 1.5h-78.5m78.5 1.5h-78.5m78.5 1.5h-78.5m78.5 1.5h-78.5m78.5 1.5h-78.5m78.5 1.5h-78.5m78.5 1.5h-78.5m78.5 1.5h-78.5m78.5 1.5h-78.5m78.5 1.5h-78.5m78.5 1.5h-78.5m78.5 1.5h-78.5m78.5 1.5h-78.5m78.5 1.5h-78.5m78.5 1.5h-78.5m78.5 1.5h-78.5m78.5 1.5h-78.5m78.5 1.5h-78.5m78.5 1.5h-78.5m78.5 1.5h-78.5m78.5 1.5h-78.5m78.5 1.5h-78.5m64.75-50.75v50.5m1.5-50.5v50.5m1.5-50.5v50.5m1.5-50.5v50.5m1.5-50.5v50.5m1.5-50.5v50.5m1.5-50.5v50.5m1.5-50.5v50.5m1.5-50.5v50.5m1.5-50.5v50.5m-78-50.5v50.5m1.5-50.5v50.5m1.5-50.5v50.5m1.5-50.5v50.5m1.5-50.5v50.5m1.5-50.5v50.5m1.5-50.5v50.5m1.5-50.5v50.5m1.5-50.5v50.5m1.5-50.5v50.5m1.5-50.5v50.5m1.5-50.5v50.5m1.5-50.5v50.5m1.5-50.5v50.5m1.5-50.5v50.5m1.5-50.5v50.5m1.5-50.5v50.5m1.5-50.5v50.5m1.5-50.5v50.5m1.5-50.5v50.5m1.5-50.5v50.5m1.5-50.5v50.5m1.5-50.5v50.5m1.5-50.5v50.5m1.5-50.5v50.5m1.5-50.5v50.5m1.5-50.5v50.5m1.5-50.5v50.5m1.5-50.5v50.5m1.5-50.5v50.5m1.5-50.5v50.5m1.5-50.5v50.5m1.5-50.5v50.5m1.5-50.5v50.5m1.5-50.5v50.5m1.5-50.5v50.5m1.5-50.5v50.5m1.5-50.5v50.5m1.5-50.5v50.5m1.5-50.5v50.5m1.5-50.5v50.5m1.5-50.5v50.5m1.5-50.5v50.5m-63-50.75h78v51h-78zm .2498 0h-78.5m78.5 1.5h-78.5m78.5 1.5h-78.5m78.5 1.5h-78.5m78.5 1.5h-78.5m78.5 1.5h-78.5m78.5 1.5h-78.5m78.5 1.5h-78.5m78.5 1.5h-78.5m78.5 1.5h-78.5m78.5 1.5h-78.5m78.5 1.5h-78.5m78.5 1.5h-78.5m78.5 1.5h-78.5m78.5 1.5h-78.5m78.5 1.5h-78.5m78.5 1.5h-78.5m78.5 1.5h-78.5m78.5 1.5h-78.5m78.5 1.5h-78.5m78.5 1.5h-78.5m78.5 1.5h-78.5m78.5 1.5h-78.5m78.5 1.5h-78.5m78.5 1.5h-78.5m78.5 1.5h-78.5m78.5 1.5h-78.5m78.5 1.5h-78.5m78.5 1.5h-78.5m78.5 1.5h-78.5m78.5 1.5h-78.5m78.5 1.5h-78.5m78.5 1.5h-78.5m78.5 1.5h-78.5m78.5 1.5h-78.5m64.75-50.75v50.5m1.5-50.5v50.5m1.5-50.5v50.5m1.5-50.5v50.5m1.5-50.5v50.5m1.5-50.5v50.5m1.5-50.5v50.5m1.5-50.5v50.5m1.5-50.5v50.5m1.5-50.5v50.5m-78-50.5v50.5m1.5-50.5v50.5m1.5-50.5v50.5m1.5-50.5v50.5m1.5-50.5v50.5m1.5-50.5v50.5m1.5-50.5v50.5m1.5-50.5v50.5m1.5-50.5v50.5m1.5-50.5v50.5m1.5-50.5v50.5m1.5-50.5v50.5m1.5-50.5v50.5m1.5-50.5v50.5m1.5-50.5v50.5m1.5-50.5v50.5m1.5-50.5v50.5m1.5-50.5v50.5m1.5-50.5v50.5m1.5-50.5v50.5m1.5-50.5v50.5m1.5-50.5v50.5m1.5-50.5v50.5m1.5-50.5v50.5m1.5-50.5v50.5m1.5-50.5v50.5m1.5-50.5v50.5m1.5-50.5v50.5m1.5-50.5v50.5m1.5-50.5v50.5m1.5-50.5v50.5m1.5-50.5v50.5m1.5-50.5v50.5m1.5-50.5v50.5m1.5-50.5v50.5m1.5-50.5v50.5m1.5-50.5v50.5m1.5-50.5v50.5m1.5-50.5v50.5m1.5-50.5v50.5m1.5-50.5v50.5m1.5-50.5v50.5m1.5-50.5v50.5m-63-50.75h78v51h-78zm156.2502-50.99955h-78.5m78.5 1.5h-78.5m78.5 1.5h-78.5m78.5 1.5h-78.5m78.5 1.5h-78.5m78.5 1.5h-78.5m78.5 1.5h-78.5m78.5 1.5h-78.5m78.5 1.5h-78.5m78.5 1.5h-78.5m78.5 1.5h-78.5m78.5 1.5h-78.5m78.5 1.5h-78.5m78.5 1.5h-78.5m78.5 1.5h-78.5m78.5 1.5h-78.5m78.5 1.5h-78.5m78.5 1.5h-78.5m78.5 1.5h-78.5m78.5 1.5h-78.5m78.5 1.5h-78.5m78.5 1.5h-78.5m78.5 1.5h-78.5m78.5 1.5h-78.5m78.5 1.5h-78.5m78.5 1.5h-78.5m78.5 1.5h-78.5m78.5 1.5h-78.5m78.5 1.5h-78.5m78.5 1.5h-78.5m78.5 1.5h-78.5m78.5 1.5h-78.5m78.5 1.5h-78.5m78.5 1.5h-78.5m78.5 1.5h-78.5m64.75-50.75v50.5m1.5-50.5v50.5m1.5-50.5v50.5m1.5-50.5v50.5m1.5-50.5v50.5m1.5-50.5v50.5m1.5-50.5v50.5m1.5-50.5v50.5m1.5-50.5v50.5m1.5-50.5v50.5m-78-50.5v50.5m1.5-50.5v50.5m1.5-50.5v50.5m1.5-50.5v50.5m1.5-50.5v50.5m1.5-50.5v50.5m1.5-50.5v50.5m1.5-50.5v50.5m1.5-50.5v50.5m1.5-50.5v50.5m1.5-50.5v50.5m1.5-50.5v50.5m1.5-50.5v50.5m1.5-50.5v50.5m1.5-50.5v50.5m1.5-50.5v50.5m1.5-50.5v50.5m1.5-50.5v50.5m1.5-50.5v50.5m1.5-50.5v50.5m1.5-50.5v50.5m1.5-50.5v50.5m1.5-50.5v50.5m1.5-50.5v50.5m1.5-50.5v50.5m1.5-50.5v50.5m1.5-50.5v50.5m1.5-50.5v50.5m1.5-50.5v50.5m1.5-50.5v50.5m1.5-50.5v50.5m1.5-50.5v50.5m1.5-50.5v50.5m1.5-50.5v50.5m1.5-50.5v50.5m1.5-50.5v50.5m1.5-50.5v50.5m1.5-50.5v50.5m1.5-50.5v50.5m1.5-50.5v50.5m1.5-50.5v50.5m1.5-50.5v50.5m1.5-50.5v50.5m-63-50.75h78v51h-78zm .2498 0h-78.5m78.5 1.5h-78.5m78.5 1.5h-78.5m78.5 1.5h-78.5m78.5 1.5h-78.5m78.5 1.5h-78.5m78.5 1.5h-78.5m78.5 1.5h-78.5m78.5 1.5h-78.5m78.5 1.5h-78.5m78.5 1.5h-78.5m78.5 1.5h-78.5m78.5 1.5h-78.5m78.5 1.5h-78.5m78.5 1.5h-78.5m78.5 1.5h-78.5m78.5 1.5h-78.5m78.5 1.5h-78.5m78.5 1.5h-78.5m78.5 1.5h-78.5m78.5 1.5h-78.5m78.5 1.5h-78.5m78.5 1.5h-78.5m78.5 1.5h-78.5m78.5 1.5h-78.5m78.5 1.5h-78.5m78.5 1.5h-78.5m78.5 1.5h-78.5m78.5 1.5h-78.5m78.5 1.5h-78.5m78.5 1.5h-78.5m78.5 1.5h-78.5m78.5 1.5h-78.5m78.5 1.5h-78.5m78.5 1.5h-78.5m64.75-50.75v50.5m1.5-50.5v50.5m1.5-50.5v50.5m1.5-50.5v50.5m1.5-50.5v50.5m1.5-50.5v50.5m1.5-50.5v50.5m1.5-50.5v50.5m1.5-50.5v50.5m1.5-50.5v50.5m-78-50.5v50.5m1.5-50.5v50.5m1.5-50.5v50.5m1.5-50.5v50.5m1.5-50.5v50.5m1.5-50.5v50.5m1.5-50.5v50.5m1.5-50.5v50.5m1.5-50.5v50.5m1.5-50.5v50.5m1.5-50.5v50.5m1.5-50.5v50.5m1.5-50.5v50.5m1.5-50.5v50.5m1.5-50.5v50.5m1.5-50.5v50.5m1.5-50.5v50.5m1.5-50.5v50.5m1.5-50.5v50.5m1.5-50.5v50.5m1.5-50.5v50.5m1.5-50.5v50.5m1.5-50.5v50.5m1.5-50.5v50.5m1.5-50.5v50.5m1.5-50.5v50.5m1.5-50.5v50.5m1.5-50.5v50.5m1.5-50.5v50.5m1.5-50.5v50.5m1.5-50.5v50.5m1.5-50.5v50.5m1.5-50.5v50.5m1.5-50.5v50.5m1.5-50.5v50.5m1.5-50.5v50.5m1.5-50.5v50.5m1.5-50.5v50.5m1.5-50.5v50.5m1.5-50.5v50.5m1.5-50.5v50.5m1.5-50.5v50.5m1.5-50.5v50.5m-63-50.75h78v51h-78z" shape-rendering="crispEdges" transform="translate(-679.0059 -1.99961)"/></clipPath><clipPath id="e"><path id="path17" clip-path="url(#c)" d="m227.75-25.5h-78.5m78.5 1.5h-78.5m78.5 1.5h-78.5m78.5 1.5h-78.5m78.5 1.5h-78.5m78.5 1.5h-78.5m78.5 1.5h-78.5m78.5 1.5h-78.5m78.5 1.5h-78.5m78.5 1.5h-78.5m78.5 1.5h-78.5m78.5 1.4999999h-78.5m78.5 1.5h-78.5m78.5 1.5h-78.5m78.5 1.5h-78.5m78.5 1.5h-78.5m78.5 1.5h-78.5m78.5 1.50000004h-78.5m78.5 1.49999996h-78.5m78.5 1.5h-78.5m78.5 1.5h-78.5m78.5 1.5h-78.5m78.5 1.5h-78.5m78.5 1.5h-78.5m78.5 1.5000001h-78.5m78.5 1.5h-78.5m78.5 1.5h-78.5m78.5 1.5h-78.5m78.5 1.5h-78.5m78.5 1.5h-78.5m78.5 1.5h-78.5m78.5 1.5h-78.5m78.5 1.5h-78.5m78.5 1.5h-78.5m78.5 1.5h-78.5m64.75-50.75v50.5m1.5-50.5v50.5m1.5-50.5v50.5m1.5-50.5v50.5m1.5-50.5v50.5m1.5-50.5v50.5m1.5-50.5v50.5m1.5-50.5v50.5m1.5-50.5v50.5m1.5-50.5v50.5m-78-50.5v50.5m1.5-50.5v50.5m1.5-50.5v50.5m1.5-50.5v50.5m1.5-50.5v50.5m1.5-50.5v50.5m1.5-50.5v50.5m1.5-50.5v50.5m1.5-50.5v50.5m1.5-50.5v50.5m1.5-50.5v50.5m1.5-50.5v50.5m1.5-50.5v50.5m1.5-50.5v50.5m1.5-50.5v50.5m1.5-50.5v50.5m1.5-50.5v50.5m1.5-50.5v50.5m1.5-50.5v50.5m1.5-50.5v50.5m1.5-50.5v50.5m1.5-50.5v50.5m1.5-50.5v50.5m1.5-50.5v50.5m1.5-50.5v50.5m1.5-50.5v50.5m1.5-50.5v50.5m1.5-50.5v50.5m1.5-50.5v50.5m1.5-50.5v50.5m1.5-50.5v50.5m1.5-50.5v50.5m1.5-50.5v50.5m1.5-50.5v50.5m1.5-50.5v50.5m1.5-50.5v50.5m1.5-50.5v50.5m1.5-50.5v50.5m1.5-50.5v50.5m1.5-50.5v50.5m1.5-50.5v50.5m1.5-50.5v50.5m1.5-50.5v50.5m-63-50.75h78v51h-78zm .25 0h-78.5m78.5 1.5h-78.5m78.5 1.5h-78.5m78.5 1.5h-78.5m78.5 1.5h-78.5m78.5 1.5h-78.5m78.5 1.5h-78.5m78.5 1.5h-78.5m78.5 1.5h-78.5m78.5 1.5h-78.5m78.5 1.5h-78.5m78.5 1.4999999h-78.5m78.5 1.5h-78.5m78.5 1.5h-78.5m78.5 1.5h-78.5m78.5 1.5h-78.5m78.5 1.5h-78.5m78.5 1.50000004h-78.5m78.5 1.49999996h-78.5m78.5 1.5h-78.5m78.5 1.5h-78.5m78.5 1.5h-78.5m78.5 1.5h-78.5m78.5 1.5h-78.5m78.5 1.5000001h-78.5m78.5 1.5h-78.5m78.5 1.5h-78.5m78.5 1.5h-78.5m78.5 1.5h-78.5m78.5 1.5h-78.5m78.5 1.5h-78.5m78.5 1.5h-78.5m78.5 1.5h-78.5m78.5 1.5h-78.5m78.5 1.5h-78.5m64.75-50.75v50.5m1.5-50.5v50.5m1.5-50.5v50.5m1.5-50.5v50.5m1.5-50.5v50.5m1.5-50.5v50.5m1.5-50.5v50.5m1.5-50.5v50.5m1.5-50.5v50.5m1.5-50.5v50.5m-78-50.5v50.5m1.5-50.5v50.5m1.5-50.5v50.5m1.5-50.5v50.5m1.5-50.5v50.5m1.5-50.5v50.5m1.5-50.5v50.5m1.5-50.5v50.5m1.5-50.5v50.5m1.5-50.5v50.5m1.5-50.5v50.5m1.5-50.5v50.5m1.5-50.5v50.5m1.5-50.5v50.5m1.5-50.5v50.5m1.5-50.5v50.5m1.5-50.5v50.5m1.5-50.5v50.5m1.5-50.5v50.5m1.5-50.5v50.5m1.5-50.5v50.5m1.5-50.5v50.5m1.5-50.5v50.5m1.5-50.5v50.5m1.5-50.5v50.5m1.5-50.5v50.5m1.5-50.5v50.5m1.5-50.5v50.5m1.5-50.5v50.5m1.5-50.5v50.5m1.5-50.5v50.5m1.5-50.5v50.5m1.5-50.5v50.5m1.5-50.5v50.5m1.5-50.5v50.5m1.5-50.5v50.5m1.5-50.5v50.5m1.5-50.5v50.5m1.5-50.5v50.5m1.5-50.5v50.5m1.5-50.5v50.5m1.5-50.5v50.5m1.5-50.5v50.5m-63-50.75h78v51h-78zm .25 0h-78.5m78.5 1.5h-78.5m78.5 1.5h-78.5m78.5 1.5h-78.5m78.5 1.5h-78.5m78.5 1.5h-78.5m78.5 1.5h-78.5m78.5 1.5h-78.5m78.5 1.5h-78.5m78.5 1.5h-78.5m78.5 1.5h-78.5m78.5 1.4999999h-78.5m78.5 1.5h-78.5m78.5 1.5h-78.5m78.5 1.5h-78.5m78.5 1.5h-78.5m78.5 1.5h-78.5m78.5 1.50000004h-78.5m78.5 1.49999996h-78.5m78.5 1.5h-78.5m78.5 1.5h-78.5m78.5 1.5h-78.5m78.5 1.5h-78.5m78.5 1.5h-78.5m78.5 1.5000001h-78.5m78.5 1.5h-78.5m78.5 1.5h-78.5m78.5 1.5h-78.5m78.5 1.5h-78.5m78.5 1.5h-78.5m78.5 1.5h-78.5m78.5 1.5h-78.5m78.5 1.5h-78.5m78.5 1.5h-78.5m78.5 1.5h-78.5m64.75-50.75v50.5m1.5-50.5v50.5m1.5-50.5v50.5m1.5-50.5v50.5m1.5-50.5v50.5m1.5-50.5v50.5m1.5-50.5v50.5m1.5-50.5v50.5m1.5-50.5v50.5m1.5-50.5v50.5m-78-50.5v50.5m1.5-50.5v50.5m1.5-50.5v50.5m1.5-50.5v50.5m1.49999999-50.5v50.5m1.5-50.5v50.5m1.50000001-50.5v50.5m1.5-50.5v50.5m1.5-50.5v50.5m1.5-50.5v50.5m1.5-50.5v50.5m1.5-50.5v50.5m1.5-50.5v50.5m1.5-50.5v50.5m1.5-50.5v50.5m1.5-50.5v50.5m1.5-50.5v50.5m1.5-50.5v50.5m1.5-50.5v50.5m1.5-50.5v50.5m1.5-50.5v50.5m1.5-50.5v50.5m1.5-50.5v50.5m1.5-50.5v50.5m1.5-50.5v50.5m1.5-50.5v50.5m1.5-50.5v50.5m1.5-50.5v50.5m1.5-50.5v50.5m1.5-50.5v50.5m1.5-50.5v50.5m1.5-50.5v50.5m1.5-50.5v50.5m1.5-50.5v50.5m1.5-50.5v50.5m1.5-50.5v50.5m1.5-50.5v50.5m1.5-50.5v50.5m1.5-50.5v50.5m1.5-50.5v50.5m1.5-50.5v50.5m1.5-50.5v50.5m1.5-50.5v50.5m-63-50.75h78v51h-78zm234.25-51h-78.5m78.5 1.5h-78.5m78.5 1.5h-78.5m78.5 1.5h-78.5m78.5 1.5h-78.5m78.5 1.5h-78.5m78.5 1.5h-78.5m78.5 1.5h-78.5m78.5 1.5h-78.5m78.5 1.5h-78.5m78.5 1.5h-78.5m78.5 1.5h-78.5m78.5 1.5h-78.5m78.5 1.5h-78.5m78.5 1.5h-78.5m78.5 1.5h-78.5m78.5 1.5h-78.5m78.5 1.5h-78.5m78.5 1.5h-78.5m78.5 1.5h-78.5m78.5 1.5h-78.5m78.5 1.5h-78.5m78.5 1.5h-78.5m78.5 1.5h-78.5m78.5 1.5h-78.5m78.5 1.5h-78.5m78.5 1.5h-78.5m78.5 1.5h-78.5m78.5 1.5h-78.5m78.5 1.5h-78.5m78.5 1.5h-78.5m78.5 1.5h-78.5m78.5 1.5h-78.5m78.5 1.5h-78.5m78.5 1.5h-78.5m64.75-50.75v50.5m1.5-50.5v50.5m1.5-50.5v50.5m1.5-50.5v50.5m1.5-50.5v50.5m1.5-50.5v50.5m1.5-50.5v50.5m1.5-50.5v50.5m1.5-50.5v50.5m1.5-50.5v50.5m-78-50.5v50.5m1.5-50.5v50.5m1.5-50.5v50.5m1.5-50.5v50.5m1.5-50.5v50.5m1.5-50.5v50.5m1.5-50.5v50.5m1.5-50.5v50.5m1.5-50.5v50.5m1.5-50.5v50.5m1.5-50.5v50.5m1.5-50.5v50.5m1.5-50.5v50.5m1.5-50.5v50.5m1.5-50.5v50.5m1.5-50.5v50.5m1.5-50.5v50.5m1.5-50.5v50.5m1.5-50.5v50.5m1.5-50.5v50.5m1.5-50.5v50.5m1.5-50.5v50.5m1.5-50.5v50.5m1.5-50.5v50.5m1.5-50.5v50.5m1.5-50.5v50.5m1.5-50.5v50.5m1.5-50.5v50.5m1.5-50.5v50.5m1.5-50.5v50.5m1.5-50.5v50.5m1.5-50.5v50.5m1.5-50.5v50.5m1.5-50.5v50.5m1.5-50.5v50.5m1.5-50.5v50.5m1.5-50.5v50.5m1.5-50.5v50.5m1.5-50.5v50.5m1.5-50.5v50.5m1.5-50.5v50.5m1.5-50.5v50.5m1.5-50.5v50.5m-63-50.75h78v51h-78zm .25 0h-78.5m78.5 1.5h-78.5m78.5 1.5h-78.5m78.5 1.5h-78.5m78.5 1.5h-78.5m78.5 1.5h-78.5m78.5 1.5h-78.5m78.5 1.5h-78.5m78.5 1.5h-78.5m78.5 1.5h-78.5m78.5 1.5h-78.5m78.5 1.5h-78.5m78.5 1.5h-78.5m78.5 1.5h-78.5m78.5 1.5h-78.5m78.5 1.5h-78.5m78.5 1.5h-78.5m78.5 1.5h-78.5m78.5 1.5h-78.5m78.5 1.5h-78.5m78.5 1.5h-78.5m78.5 1.5h-78.5m78.5 1.5h-78.5m78.5 1.5h-78.5m78.5 1.5h-78.5m78.5 1.5h-78.5m78.5 1.5h-78.5m78.5 1.5h-78.5m78.5 1.5h-78.5m78.5 1.5h-78.5m78.5 1.5h-78.5m78.5 1.5h-78.5m78.5 1.5h-78.5m78.5 1.5h-78.5m78.5 1.5h-78.5m64.75-50.75v50.5m1.5-50.5v50.5m1.5-50.5v50.5m1.5-50.5v50.5m1.5-50.5v50.5m1.5-50.5v50.5m1.5-50.5v50.5m1.5-50.5v50.5m1.5-50.5v50.5m1.5-50.5v50.5m-78-50.5v50.5m1.5-50.5v50.5m1.5-50.5v50.5m1.5-50.5v50.5m1.5-50.5v50.5m1.5-50.5v50.5m1.5-50.5v50.5m1.5-50.5v50.5m1.5-50.5v50.5m1.5-50.5v50.5m1.5-50.5v50.5m1.5-50.5v50.5m1.5-50.5v50.5m1.5-50.5v50.5m1.5-50.5v50.5m1.5-50.5v50.5m1.5-50.5v50.5m1.5-50.5v50.5m1.5-50.5v50.5m1.5-50.5v50.5m1.5-50.5v50.5m1.5-50.5v50.5m1.5-50.5v50.5m1.5-50.5v50.5m1.5-50.5v50.5m1.5-50.5v50.5m1.5-50.5v50.5m1.5-50.5v50.5m1.5-50.5v50.5m1.5-50.5v50.5m1.5-50.5v50.5m1.5-50.5v50.5m1.5-50.5v50.5m1.5-50.5v50.5m1.5-50.5v50.5m1.5-50.5v50.5m1.5-50.5v50.5m1.5-50.5v50.5m1.5-50.5v50.5m1.5-50.5v50.5m1.5-50.5v50.5m1.5-50.5v50.5m1.5-50.5v50.5m-63-50.75h78v51h-78zm .25 0h-78.5m78.5 1.5h-78.5m78.5 1.5h-78.5m78.5 1.5h-78.5m78.5 1.5h-78.5m78.5 1.5h-78.5m78.5 1.5h-78.5m78.5 1.5h-78.5m78.5 1.5h-78.5m78.5 1.5h-78.5m78.5 1.5h-78.5m78.5 1.5h-78.5m78.5 1.5h-78.5m78.5 1.5h-78.5m78.5 1.5h-78.5m78.5 1.5h-78.5m78.5 1.5h-78.5m78.5 1.5h-78.5m78.5 1.5h-78.5m78.5 1.5h-78.5m78.5 1.5h-78.5m78.5 1.5h-78.5m78.5 1.5h-78.5m78.5 1.5h-78.5m78.5 1.5h-78.5m78.5 1.5h-78.5m78.5 1.5h-78.5m78.5 1.5h-78.5m78.5 1.5h-78.5m78.5 1.5h-78.5m78.5 1.5h-78.5m78.5 1.5h-78.5m78.5 1.5h-78.5m78.5 1.5h-78.5m78.5 1.5h-78.5m64.75-50.75v50.5m1.5-50.5v50.5m1.5-50.5v50.5m1.5-50.5v50.5m1.5-50.5v50.5m1.5-50.5v50.5m1.5-50.5v50.5m1.5-50.5v50.5m1.5-50.5v50.5m1.5-50.5v50.5m-78-50.5v50.5m1.5-50.5v50.5m1.5-50.5v50.5m1.5-50.5v50.5m1.49999999-50.5v50.5m1.5-50.5v50.5m1.50000001-50.5v50.5m1.5-50.5v50.5m1.5-50.5v50.5m1.5-50.5v50.5m1.5-50.5v50.5m1.5-50.5v50.5m1.5-50.5v50.5m1.5-50.5v50.5m1.5-50.5v50.5m1.5-50.5v50.5m1.5-50.5v50.5m1.5-50.5v50.5m1.5-50.5v50.5m1.5-50.5v50.5m1.5-50.5v50.5m1.5-50.5v50.5m1.5-50.5v50.5m1.5-50.5v50.5m1.5-50.5v50.5m1.5-50.5v50.5m1.5-50.5v50.5m1.5-50.5v50.5m1.5-50.5v50.5m1.5-50.5v50.5m1.5-50.5v50.5m1.5-50.5v50.5m1.5-50.5v50.5m1.5-50.5v50.5m1.5-50.5v50.5m1.5-50.5v50.5m1.5-50.5v50.5m1.5-50.5v50.5m1.5-50.5v50.5m1.5-50.5v50.5m1.5-50.5v50.5m1.5-50.5v50.5m1.5-50.5v50.5m-63-50.75h78v51h-78z" shape-rendering="crispEdges" transform="translate(-206.72987 101.88283)"/></clipPath><clipPath id="f"><path id="path20" clip-path="url(#b)" d="m216.44584-206.85276h-78.5m78.5 1.5h-78.5m78.5 1.5h-78.5m78.5 1.5h-78.5m78.5 1.5h-78.5m78.5 1.5h-78.5m78.5 1.5h-78.5m78.5 1.5h-78.5m78.5 1.5h-78.5m78.5 1.5h-78.5m78.5 1.5h-78.5m78.5 1.5h-78.5m78.5 1.5h-78.5m78.5 1.5h-78.5m78.5 1.5h-78.5m78.5 1.5h-78.5m78.5 1.5h-78.5m78.5 1.5h-78.5m78.5 1.5h-78.5m78.5 1.5h-78.5m78.5 1.5h-78.5m78.5 1.5h-78.5m78.5 1.5h-78.5m78.5 1.5h-78.5m78.5 1.5h-78.5m78.5 1.5h-78.5m78.5 1.5h-78.5m78.5 1.5h-78.5m78.5 1.5h-78.5m78.5 1.5h-78.5m78.5 1.5h-78.5m78.5 1.5h-78.5m78.5 1.5h-78.5m78.5 1.5h-78.5m78.5 1.5h-78.5m64.75-50.75v50.5m1.5-50.5v50.5m1.5-50.5v50.5m1.5-50.5v50.5m1.5-50.5v50.5m1.5-50.5v50.5m1.5-50.5v50.5m1.5-50.5v50.5m1.5-50.5v50.5m1.5-50.5v50.5m-78-50.5v50.5m1.5-50.5v50.5m1.5-50.5v50.5m1.5-50.5v50.5m1.5-50.5v50.5m1.5-50.5v50.5m1.5-50.5v50.5m1.5-50.5v50.5m1.5-50.5v50.5m1.5-50.5v50.5m1.5-50.5v50.5m1.5-50.5v50.5m1.5-50.5v50.5m1.5-50.5v50.5m1.5-50.5v50.5m1.5-50.5v50.5m1.5-50.5v50.5m1.5-50.5v50.5m1.5-50.5v50.5m1.5-50.5v50.5m1.5-50.5v50.5m1.5-50.5v50.5m1.5-50.5v50.5m1.5-50.5v50.5m1.5-50.5v50.5m1.5-50.5v50.5m1.5-50.5v50.5m1.5-50.5v50.5m1.5-50.5v50.5m1.5-50.5v50.5m1.5-50.5v50.5m1.5-50.5v50.5m1.5-50.5v50.5m1.5-50.5v50.5m1.5-50.5v50.5m1.5-50.5v50.5m1.5-50.5v50.5m1.5-50.5v50.5m1.5-50.5v50.5m1.5-50.5v50.5m1.5-50.5v50.5m1.5-50.5v50.5m1.5-50.5v50.5m-63-50.75h78v51h-78zm78.25-50.99961h-78.5m78.5 1.5h-78.5m78.5 1.5h-78.5m78.5 1.5h-78.5m78.5 1.5h-78.5m78.5 1.5h-78.5m78.5 1.5h-78.5m78.5 1.5h-78.5m78.5 1.5h-78.5m78.5 1.5h-78.5m78.5 1.5h-78.5m78.5 1.5h-78.5m78.5 1.5h-78.5m78.5 1.5h-78.5m78.5 1.5h-78.5m78.5 1.5h-78.5m78.5 1.5h-78.5m78.5 1.5h-78.5m78.5 1.5h-78.5m78.5 1.5h-78.5m78.5 1.5h-78.5m78.5 1.5h-78.5m78.5 1.5h-78.5m78.5 1.5h-78.5m78.5 1.5h-78.5m78.5 1.5h-78.5m78.5 1.5h-78.5m78.5 1.5h-78.5m78.5 1.5h-78.5m78.5 1.5h-78.5m78.5 1.5h-78.5m78.5 1.5h-78.5m78.5 1.5h-78.5m78.5 1.5h-78.5m78.5 1.5h-78.5m64.75-50.75v50.5m1.5-50.5v50.5m1.5-50.5v50.5m1.5-50.5v50.5m1.5-50.5v50.5m1.5-50.5v50.5m1.5-50.5v50.5m1.5-50.5v50.5m1.5-50.5v50.5m1.5-50.5v50.5m-78-50.5v50.5m1.5-50.5v50.5m1.5-50.5v50.5m1.5-50.5v50.5m1.5-50.5v50.5m1.5-50.5v50.5m1.5-50.5v50.5m1.5-50.5v50.5m1.5-50.5v50.5m1.5-50.5v50.5m1.5-50.5v50.5m1.5-50.5v50.5m1.5-50.5v50.5m1.5-50.5v50.5m1.5-50.5v50.5m1.5-50.5v50.5m1.5-50.5v50.5m1.5-50.5v50.5m1.5-50.5v50.5m1.5-50.5v50.5m1.5-50.5v50.5m1.5-50.5v50.5m1.5-50.5v50.5m1.5-50.5v50.5m1.5-50.5v50.5m1.5-50.5v50.5m1.5-50.5v50.5m1.5-50.5v50.5m1.5-50.5v50.5m1.5-50.5v50.5m1.5-50.5v50.5m1.5-50.5v50.5m1.5-50.5v50.5m1.5-50.5v50.5m1.5-50.5v50.5m1.5-50.5v50.5m1.5-50.5v50.5m1.5-50.5v50.5m1.5-50.5v50.5m1.5-50.5v50.5m1.5-50.5v50.5m1.5-50.5v50.5m1.5-50.5v50.5m-63-50.75h78v51h-78zm .25 50.99961h-78.500004m78.500004 1.5h-78.500004m78.500004 1.5h-78.500004m78.500004 1.5h-78.500004m78.500004 1.5h-78.500004m78.500004 1.5h-78.500004m78.500004 1.5h-78.500004m78.500004 1.5h-78.500004m78.500004 1.5h-78.500004m78.500004 1.5h-78.500004m78.500004 1.5h-78.500004m78.500004 1.5h-78.500004m78.500004 1.5h-78.500004m78.500004 1.5h-78.500004m78.500004 1.5h-78.500004m78.500004 1.5h-78.500004m78.500004 1.5h-78.500004m78.500004 1.5h-78.500004m78.500004 1.5h-78.500004m78.500004 1.5h-78.500004m78.500004 1.5h-78.500004m78.500004 1.5h-78.500004m78.500004 1.5h-78.500004m78.500004 1.5h-78.500004m78.500004 1.5h-78.500004m78.500004 1.5h-78.500004m78.500004 1.5h-78.500004m78.500004 1.5h-78.500004m78.500004 1.5h-78.500004m78.500004 1.5h-78.500004m78.500004 1.5h-78.500004m78.500004 1.5h-78.500004m78.500004 1.5h-78.500004m78.500004 1.5h-78.500004m78.500004 1.5h-78.500004m64.750004-50.75v50.5m1.5-50.5v50.5m1.5-50.5v50.5m1.5-50.5v50.5m1.5-50.5v50.5m1.5-50.5v50.5m1.5-50.5v50.5m1.5-50.5v50.5m1.5-50.5v50.5m1.5-50.5v50.5m-78.000004-50.5v50.5m1.500001-50.5v50.5m1.5-50.5v50.5m1.5-50.5v50.5m1.500002-50.5v50.5m1.5-50.5v50.5m1.5-50.5v50.5m1.5-50.5v50.5m1.499997-50.5v50.5m1.5-50.5v50.5m1.5-50.5v50.5m1.5-50.5v50.5m1.5-50.5v50.5m1.5-50.5v50.5m1.5-50.5v50.5m1.5-50.5v50.5m1.5-50.5v50.5m1.5-50.5v50.5m1.5-50.5v50.5m1.5-50.5v50.5m1.5-50.5v50.5m1.5-50.5v50.5m1.5-50.5v50.5m1.5-50.5v50.5m1.5-50.5v50.5m1.5-50.5v50.5m1.5-50.5v50.5m1.500004-50.5v50.5m1.5-50.5v50.5m1.5-50.5v50.5m1.5-50.5v50.5m1.5-50.5v50.5m1.5-50.5v50.5m1.5-50.5v50.5m1.5-50.5v50.5m1.5-50.5v50.5m1.5-50.5v50.5m1.5-50.5v50.5m1.5-50.5v50.5m1.5-50.5v50.5m1.5-50.5v50.5m1.5-50.5v50.5m1.5-50.5v50.5m-63.000004-50.75h78.000004v51h-78.000004zm78.250004-50.99961h-78.500004m78.500004 1.5h-78.500004m78.500004 1.5h-78.500004m78.500004 1.5h-78.500004m78.500004 1.5h-78.500004m78.500004 1.5h-78.500004m78.500004 1.5h-78.500004m78.500004 1.5h-78.500004m78.500004 1.5h-78.500004m78.500004 1.5h-78.500004m78.500004 1.5h-78.500004m78.500004 1.5h-78.500004m78.500004 1.5h-78.500004m78.500004 1.5h-78.500004m78.500004 1.5h-78.500004m78.500004 1.5h-78.500004m78.500004 1.5h-78.500004m78.500004 1.5h-78.500004m78.500004 1.5h-78.500004m78.500004 1.5h-78.500004m78.500004 1.5h-78.500004m78.500004 1.5h-78.500004m78.500004 1.5h-78.500004m78.500004 1.5h-78.500004m78.500004 1.5h-78.500004m78.500004 1.5h-78.500004m78.500004 1.5h-78.500004m78.500004 1.5h-78.500004m78.500004 1.5h-78.500004m78.500004 1.5h-78.500004m78.500004 1.5h-78.500004m78.500004 1.5h-78.500004m78.500004 1.5h-78.500004m78.500004 1.5h-78.500004m78.500004 1.5h-78.500004m64.750004-50.75v50.5m1.5-50.5v50.5m1.5-50.5v50.5m1.5-50.5v50.5m1.5-50.5v50.5m1.5-50.5v50.5m1.5-50.5v50.5m1.5-50.5v50.5m1.5-50.5v50.5m1.5-50.5v50.5m-78.000004-50.5v50.5m1.500001-50.5v50.5m1.5-50.5v50.5m1.5-50.5v50.5m1.500002-50.5v50.5m1.5-50.5v50.5m1.5-50.5v50.5m1.5-50.5v50.5m1.499997-50.5v50.5m1.5-50.5v50.5m1.5-50.5v50.5m1.5-50.5v50.5m1.5-50.5v50.5m1.5-50.5v50.5m1.5-50.5v50.5m1.5-50.5v50.5m1.5-50.5v50.5m1.5-50.5v50.5m1.5-50.5v50.5m1.5-50.5v50.5m1.5-50.5v50.5m1.5-50.5v50.5m1.5-50.5v50.5m1.5-50.5v50.5m1.5-50.5v50.5m1.5-50.5v50.5m1.5-50.5v50.5m1.500004-50.5v50.5m1.5-50.5v50.5m1.5-50.5v50.5m1.5-50.5v50.5m1.5-50.5v50.5m1.5-50.5v50.5m1.5-50.5v50.5m1.5-50.5v50.5m1.5-50.5v50.5m1.5-50.5v50.5m1.5-50.5v50.5m1.5-50.5v50.5m1.5-50.5v50.5m1.5-50.5v50.5m1.5-50.5v50.5m1.5-50.5v50.5m-63.000004-50.75h78.000004v51h-78.000004zm.24997 50.99961h-78.5m78.5 1.5h-78.5m78.5 1.5h-78.5m78.5 1.5h-78.5m78.5 1.5h-78.5m78.5 1.5h-78.5m78.5 1.5h-78.5m78.5 1.5h-78.5m78.5 1.5h-78.5m78.5 1.5h-78.5m78.5 1.5h-78.5m78.5 1.5h-78.5m78.5 1.5h-78.5m78.5 1.5h-78.5m78.5 1.5h-78.5m78.5 1.5h-78.5m78.5 1.5h-78.5m78.5 1.5h-78.5m78.5 1.5h-78.5m78.5 1.5h-78.5m78.5 1.5h-78.5m78.5 1.5h-78.5m78.5 1.5h-78.5m78.5 1.5h-78.5m78.5 1.5h-78.5m78.5 1.5h-78.5m78.5 1.5h-78.5m78.5 1.5h-78.5m78.5 1.5h-78.5m78.5 1.5h-78.5m78.5 1.5h-78.5m78.5 1.5h-78.5m78.5 1.5h-78.5m78.5 1.5h-78.5m78.5 1.5h-78.5m64.75-50.75v50.5m1.5-50.5v50.5m1.5-50.5v50.5m1.5-50.5v50.5m1.5-50.5v50.5m1.5-50.5v50.5m1.5-50.5v50.5m1.5-50.5v50.5m1.5-50.5v50.5m1.5-50.5v50.5m-78-50.5v50.5m1.5-50.5v50.5m1.5-50.5v50.5m1.5-50.5v50.5m1.5-50.5v50.5m1.5-50.5v50.5m1.5000003-50.5v50.5m1.5-50.5v50.5m1.5-50.5v50.5m1.5-50.5v50.5m1.5-50.5v50.5m1.5-50.5v50.5m1.49999998-50.5v50.5m1.50000002-50.5v50.5m1.5-50.5v50.5m1.5-50.5v50.5m1.5-50.5v50.5m1.5-50.5v50.5m1.5-50.5v50.5m1.4999997-50.5v50.5m1.5-50.5v50.5m1.5-50.5v50.5m1.5-50.5v50.5m1.5-50.5v50.5m1.5-50.5v50.5m1.5-50.5v50.5m1.5-50.5v50.5m1.5-50.5v50.5m1.5-50.5v50.5m1.5-50.5v50.5m1.5-50.5v50.5m1.5-50.5v50.5m1.5-50.5v50.5m1.5-50.5v50.5m1.5-50.5v50.5m1.5-50.5v50.5m1.5-50.5v50.5m1.5-50.5v50.5m1.5-50.5v50.5m1.5-50.5v50.5m1.5-50.5v50.5m1.5-50.5v50.5m1.5-50.5v50.5m-63-50.75h78v51h-78zm78.25-50.99961h-78.5m78.5 1.5h-78.5m78.5 1.5h-78.5m78.5 1.5h-78.5m78.5 1.5h-78.5m78.5 1.5h-78.5m78.5 1.5h-78.5m78.5 1.5h-78.5m78.5 1.5h-78.5m78.5 1.5h-78.5m78.5 1.5h-78.5m78.5 1.5h-78.5m78.5 1.5h-78.5m78.5 1.5h-78.5m78.5 1.5h-78.5m78.5 1.5h-78.5m78.5 1.5h-78.5m78.5 1.5h-78.5m78.5 1.5h-78.5m78.5 1.5h-78.5m78.5 1.5h-78.5m78.5 1.5h-78.5m78.5 1.5h-78.5m78.5 1.5h-78.5m78.5 1.5h-78.5m78.5 1.5h-78.5m78.5 1.5h-78.5m78.5 1.5h-78.5m78.5 1.5h-78.5m78.5 1.5h-78.5m78.5 1.5h-78.5m78.5 1.5h-78.5m78.5 1.5h-78.5m78.5 1.5h-78.5m78.5 1.5h-78.5m64.75-50.75v50.5m1.5-50.5v50.5m1.5-50.5v50.5m1.5-50.5v50.5m1.5-50.5v50.5m1.5-50.5v50.5m1.5-50.5v50.5m1.5-50.5v50.5m1.5-50.5v50.5m1.5-50.5v50.5m-78-50.5v50.5m1.5-50.5v50.5m1.5-50.5v50.5m1.5-50.5v50.5m1.5-50.5v50.5m1.5-50.5v50.5m1.5000003-50.5v50.5m1.5-50.5v50.5m1.5-50.5v50.5m1.5-50.5v50.5m1.5-50.5v50.5m1.5-50.5v50.5m1.49999998-50.5v50.5m1.50000002-50.5v50.5m1.5-50.5v50.5m1.5-50.5v50.5m1.5-50.5v50.5m1.5-50.5v50.5m1.5-50.5v50.5m1.4999997-50.5v50.5m1.5-50.5v50.5m1.5-50.5v50.5m1.5-50.5v50.5m1.5-50.5v50.5m1.5-50.5v50.5m1.5-50.5v50.5m1.5-50.5v50.5m1.5-50.5v50.5m1.5-50.5v50.5m1.5-50.5v50.5m1.5-50.5v50.5m1.5-50.5v50.5m1.5-50.5v50.5m1.5-50.5v50.5m1.5-50.5v50.5m1.5-50.5v50.5m1.5-50.5v50.5m1.5-50.5v50.5m1.5-50.5v50.5m1.5-50.5v50.5m1.5-50.5v50.5m1.5-50.5v50.5m1.5-50.5v50.5m-63-50.75h78v51h-78z" shape-rendering="crispEdges" transform="translate(-220.58777 375.54748)"/></clipPath><clipPath id="g"><path id="path23" clip-path="url(#e)" d="m-196.22987 45.583685v61.000005m1.6-61.000005v61.000005m1.6-61.000005v61.000005m1.6-61.000005v61.000005m1.6-61.000005v61.000005m1.6-61.000005v61.000005m1.6-61.000005v61.000005m1.6-61.000005v61.000005m1.6-61.000005v61.000005m1.6-61.000005v61.000005m1.6-61.000005v61.000005m1.6-61.000005v61.000005m1.6-61.000005v61.000005m1.6-61.000005v61.000005m1.6-61.000005v61.000005m1.6-61.000005v61.000005m1.6-61.000005v61.000005m1.6-61.000005v61.000005m1.6-61.000005v61.000005m1.6-61.000005v61.000005m1.6-61.000005v61.000005m1.6-61.000005v61.000005m1.6-61.000005v61.000005m1.6-61.000005v61.000005m1.6-61.000005v61.000005m1.6-61.000005v61.000005m1.6-61.000005v61.000005m1.6-61.000005v61.000005m1.6-61.000005v61.000005m1.6-61.000005v61.000005m1.6-61.000005v61.000005m1.6-61.000005v61.000005m1.6-61.000005v61.000005m1.6-61.000005v61.000005m1.6-61.000005v61.000005m1.6-61.000005v61.000005m1.6-61.000005v61.000005m1.6-61.000005v61.000005m1.6-61.000005v61.000005m1.6-61.000005v61.000005m1.6-61.000005v61.000005m1.6-61.000005v61.000005m1.6-61.000005v61.000005m1.6-61.000005v61.000005m1.6-61.000005v61.000005m1.6-61.000005v61.000005m1.6-61.000005v61.000005m1.6-61.000005v61.000005m1.6-61.000005v61.000005m1.6-61.000005v61.000005m1.6-61.000005v61.000005m1.6-61.000005v61.000005m1.6-61.000005v61.000005m1.6-61.000005v61.000005m1.6-61.000005v61.000005m1.6-61.000005v61.000005m1.6-61.000005v61.000005m1.6-61.000005v61.000005m1.6-61.000005v61.000005m1.6-61.000005v61.000005m1.6-61.000005v61.000005m1.599998-61.000005v61.000005m1.6-61.000005v61.000005m1.6-61.000005v61.000005m1.6-61.000005v61.000005m1.6-61.000005v61.000005m1.6-61.000005v61.000005m1.6-61.000005v61.000005m1.6-61.000005v61.000005m1.6-61.000005v61.000005m1.6-61.000005v61.000005m1.6-61.000005v61.000005m1.6-61.000005v61.000005m1.6-61.000005v61.000005m1.6-61.000005v61.000005m1.6-61.000005v61.000005m1.6-61.000005v61.000005m1.6-61.000005v61.000005m1.600001-61.000005v61.000005m1.6-61.000005v61.000005m1.6-61.000005v61.000005m1.6-61.000005v61.000005m1.6-61.000005v61.000005m1.6-61.000005v61.000005m1.6-61.000005v61.000005m1.6-61.000005v61.000005m1.6-61.000005v61.000005m1.6-61.000005v61.000005m1.6-61.000005v61.000005m1.6-61.000005v61.000005m1.6-61.000005v61.000005m1.6-61.000005v61.000005m1.6-61.000005v61.000005m1.6-61.000005v61.000005m1.6-61.000005v61.000005m1.6-61.000005v61.000005m1.6-61.000005v61.000005m1.6-61.000005v61.000005m1.6-61.000005v61.000005m1.6-61.000005v61.000005m1.6-61.000005v61.000005m1.6-61.000005v61.000005m1.6-61.000005v61.000005m1.6-61.000005v61.000005m1.6-61.000005v61.000005m1.6-61.000005v61.000005m1.6-61.000005v61.000005m1.6-61.000005v61.000005m1.6-61.000005v61.000005m1.6-61.000005v61.000005m1.6-61.000005v61.000005m1.6-61.000005v61.000005m1.599999-61.000005v61.000005m1.6-61.000005v61.000005m1.6-61.000005v61.000005m1.6-61.000005v61.000005m1.6-61.000005v61.000005m1.6000004-61.000005v61.000005m1.6-61.000005v61.000005m-188.7999984-61.000005h188.9999984m-188.9999984 1.6h188.9999984m-188.9999984 1.6h188.9999984m-188.9999984 1.6h188.9999984m-188.9999984 1.6h188.9999984m-188.9999984 1.6h188.9999984m-188.9999984 1.6h188.9999984m-188.9999984 1.6h188.9999984m-188.9999984 1.6h188.9999984m-188.9999984 1.6h188.9999984m-188.9999984 1.6h188.9999984m-188.9999984 1.6h188.9999984m-188.9999984 1.6h188.9999984m-188.9999984 1.6h188.9999984m-188.9999984 1.599996h188.9999984m-188.9999984 1.6h188.9999984m-188.9999984 1.6h188.9999984m-188.9999984 1.6h188.9999984m-188.9999984 1.6h188.9999984m-188.9999984 1.6h188.9999984m-188.9999984 1.6h188.9999984m-188.9999984 1.6h188.9999984m-188.9999984 1.6h188.9999984m-188.9999984 1.6h188.9999984m-188.9999984 1.6h188.9999984m-188.9999984 1.6h188.9999984m-188.9999984 1.6h188.9999984m-188.9999984 1.6h188.9999984m-188.9999984 1.60001h188.9999984m-188.9999984 1.6h188.9999984m-188.9999984 1.6h188.9999984m-188.9999984 1.600002h188.9999984m-188.9999984 1.6h188.9999984m-188.9999984 1.6h188.9999984m-188.9999984 1.6h188.9999984m-188.9999984 1.599997h188.9999984m-188.9999984 1.6h188.9999984m-188.9999984 1.6h188.9999984m-188.9999984 1.6h188.9999984m-188.9999984-60.800005h188.9999984v61.000005h-188.9999984z" transform="translate(-173.71581 -7.483689)"/></clipPath><clipPath id="h"><path id="path26" clip-path="url(#d)" d="m-216 127.50039v92m1.6-92v92m1.6-92v92m1.6-92v92m1.6-92v92m1.6-92v92m1.6-92v92m1.6-92v92m1.6-92v92m1.6-92v92m1.6-92v92m1.6-92v92m1.6-92v92m1.6-92v92m1.6-92v92m1.6-92v92m1.6-92v92m1.6-92v92m1.6-92v92m1.6-92v92m1.6-92v92m1.6-92v92m1.6-92v92m1.6-92v92m1.6-92v92m1.6-92v92m1.6-92v92m1.6-92v92m1.6-92v92m1.6-92v92m1.6-92v92m1.6-92v92m1.6-92v92m1.6-92v92m1.6-92v92m1.6-92v92m1.6-92v92m1.6-92v92m1.6-92v92m1.6-92v92m1.6-92v92m1.6-92v92m1.6-92v92m1.6-92v92m1.6-92v92m1.6-92v92m1.6-92v92m1.6-92v92m1.6-92v92m1.6-92v92m1.6-92v92m1.6-92v92m1.6-92v92m1.6-92v92m1.6-92v92m1.6-92v92m1.6-92v92m1.6-92v92m1.6-92v92m1.6-92v92m1.6-92v92m1.6-92v92m1.6-92v92m1.6-92v92m1.6-92v92m1.6-92v92m1.6-92v92m1.6-92v92m1.6-92v92m1.6-92v92m1.6-92v92m1.6-92v92m1.6-92v92m1.6-92v92m1.6-92v92m1.6-92v92m1.6-92v92m1.6-92v92m1.6-92v92m1.6-92v92m1.6-92v92m1.6-92v92m1.6-92v92m1.6-92v92m1.6-92v92m1.6-92v92m1.6-92v92m1.6-92v92m1.6-92v92m1.6-92v92m1.6-92v92m1.6-92v92m1.6-92v92m1.6-92v92m1.6-92v92m1.6-92v92m1.6-92v92m1.6-92v92m1.6-92v92m1.6-92v92m1.6-92v92m1.6-92v92m1.6-92v92m1.6-92v92m1.6-92v92m1.6-92v92m1.6-92v92m1.6-92v92m1.6-92v92m1.6-92v92m1.6-92v92m1.6-92v92m1.6-92v92m1.6-92v92m-180.8-92h182m-182 1.6h182m-182 1.6h182m-182 1.6h182m-182 1.6h182m-182 1.6h182m-182 1.6h182m-182 1.6h182m-182 1.6h182m-182 1.6h182m-182 1.6h182m-182 1.6h182m-182 1.6h182m-182 1.6h182m-182 1.6h182m-182 1.6h182m-182 1.6h182m-182 1.6h182m-182 1.6h182m-182 1.6h182m-182 1.6h182m-182 1.6h182m-182 1.6h182m-182 1.6h182m-182 1.6h182m-182 1.6h182m-182 1.6h182m-182 1.6h182m-182 1.6h182m-182 1.6h182m-182 1.6h182m-182 1.6h182m-182 1.6h182m-182 1.6h182m-182 1.6h182m-182 1.6h182m-182 1.6h182m-182 1.6h182m-182 1.6h182m-182 1.6h182m-182 1.6h182m-182 1.6h182m-182 1.6h182m-182 1.6h182m-182 1.6h182m-182 1.6h182m-182 1.6h182m-182 1.6h182m-182 1.6h182m-182 1.6h182m-182 1.6h182m-182 1.6h182m-182 1.6h182m-182 1.6h182m-182 1.6h182m-182 1.6h182m-182 1.6h182m-182 1.6h182m-182-91.2h182v92h-182z" transform="translate(18.809328)"/></clipPath><clipPath id="i"><path id="path29" clip-path="url(#f)" d="m-215.89195 121.69491v94m1.6-94v94m1.6-94v94m1.6-94v94m1.6-94v94m1.6-94v94m1.6-94v94m1.6-94v94m1.6-94v94m1.6-94v94m1.6-94v94m1.6-94v94m1.6-94v94m1.6-94v94m1.6-94v94m1.6-94v94m1.6-94v94m1.6-94v94m1.6-94v94m1.6-94v94m1.6-94v94m1.6-94v94m1.6-94v94m1.6-94v94m1.6-94v94m1.6-94v94m1.6-94v94m1.6-94v94m1.6-94v94m1.6-94v94m1.6-94v94m1.6-94v94m1.6-94v94m1.6-94v94m1.6-94v94m1.6-94v94m1.6-94v94m1.6-94v94m1.6-94v94m1.6-94v94m1.6-94v94m1.6-94v94m1.6-94v94m1.6-94v94m1.6-94v94m1.6-94v94m1.6-94v94m1.6-94v94m1.6-94v94m1.6-94v94m1.6-94v94m1.6-94v94m1.6-94v94m1.6-94v94m1.6-94v94m1.6-94v94m1.6-94v94m1.6-94v94m1.6-94v94m1.6-94v94m1.6-94v94m1.6-94v94m1.6-94v94m1.6-94v94m1.6-94v94m1.6-94v94m1.6-94v94m1.6-94v94m1.6-94v94m1.6-94v94m1.6-94v94m1.6-94v94m1.6-94v94m1.600001-94v94m1.6-94v94m1.6-94v94m1.6-94v94m1.6-94v94m1.6-94v94m1.6-94v94m1.6-94v94m1.6-94v94m1.6-94v94m1.6-94v94m1.6-94v94m1.6-94v94m1.6-94v94m1.6-94v94m1.6-94v94m1.6-94v94m1.6-94v94m1.6-94v94m1.6-94v94m1.6-94v94m1.6-94v94m1.6-94v94m1.599996-94v94m1.6-94v94m1.6-94v94m1.6-94v94m1.6-94v94m1.6-94v94m1.6-94v94m1.6-94v94m1.6-94v94m1.6-94v94m1.6-94v94m1.6-94v94m1.6-94v94m1.6-94v94m1.6-94v94m1.6-94v94m1.6-94v94m1.60001-94v94m1.6-94v94m1.6-94v94m1.6-94v94m1.6-94v94m1.6-94v94m-188.800007-94h188.999997m-188.999997 1.6h188.999997m-188.999997 1.6h188.999997m-188.999997 1.6h188.999997m-188.999997 1.6h188.999997m-188.999997 1.6h188.999997m-188.999997 1.6h188.999997m-188.999997 1.6h188.999997m-188.999997 1.6h188.999997m-188.999997 1.6h188.999997m-188.999997 1.6h188.999997m-188.999997 1.6h188.999997m-188.999997 1.6h188.999997m-188.999997 1.6h188.999997m-188.999997 1.6h188.999997m-188.999997 1.6h188.999997m-188.999997 1.6h188.999997m-188.999997 1.6h188.999997m-188.999997 1.6h188.999997m-188.999997 1.6h188.999997m-188.999997 1.6h188.999997m-188.999997 1.6h188.999997m-188.999997 1.6h188.999997m-188.999997 1.6h188.999997m-188.999997 1.6h188.999997m-188.999997 1.6h188.999997m-188.999997 1.6h188.999997m-188.999997 1.6h188.999997m-188.999997 1.6h188.999997m-188.999997 1.6h188.999997m-188.999997 1.6h188.999997m-188.999997 1.6h188.999997m-188.999997 1.6h188.999997m-188.999997 1.6h188.999997m-188.999997 1.6h188.999997m-188.999997 1.6h188.999997m-188.999997 1.6h188.999997m-188.999997 1.6h188.999997m-188.999997 1.6h188.999997m-188.999997 1.6h188.999997m-188.999997 1.6h188.999997m-188.999997 1.6h188.999997m-188.999997 1.6h188.999997m-188.999997 1.6h188.999997m-188.999997 1.6h188.999997m-188.999997 1.6h188.999997m-188.999997 1.6h188.999997m-188.999997 1.6h188.999997m-188.999997 1.6h188.999997m-188.999997 1.6h188.999997m-188.999997 1.6h188.999997m-188.999997 1.6h188.999997m-188.999997 1.6h188.999997m-188.999997 1.6h188.999997m-188.999997 1.6h188.999997m-188.999997 1.6h188.999997m-188.999997 1.6h188.999997m-188.999997 1.6h188.999997m-188.999997 1.6h188.999997m-188.999997-92.8h188.999997v94h-188.999997z" transform="translate(-228.64196 3.78009)"/></clipPath><g id="layer1"><rect id="breakerRear" fill="#575d5e" fill-rule="evenodd" height="268" stroke="#333" stroke-width=".80000001" width="210"/><g id="face1"><rect id="rect37" fill="#575d5e" height="204" stroke="#333" stroke-width=".80000001" width="206" x="2" y="32"/><rect id="rect39" height="62" style="overflow:visible;fill:none;stroke:#fff;stroke-width:.5;stroke-linecap:round;stroke-linejoin:round" width="190" x="10" y="37.599998"/></g><g id="operationGroup" stroke="#333" stroke-linecap="square" stroke-width=".80000001"><rect id="rect43" fill="#575d5e" fill-rule="evenodd" height="268" width="26" x="184"/><circle id="circle45" cx="197.5" cy="40" fill="none" r="9"/><rect id="rect47" fill="none" height="17" width="17" x="189" y="160"/><circle id="circle49" cx="197.5" cy="70" fill="none" r="9"/></g><g id="rotaryDriveAxle" shape-rendering="crispEdges"><rect id="rect53" fill="#575d5e" height="105" stroke="#333" stroke-width=".80000001" width="190" x="9.9999962" y="115.25"/><g id="g55"><circle id="circle57" cx="41.600002" cy="157.9502" fill="#c5c7c4" r="15" stroke="#000" stroke-width=".5"/><circle id="circle59" cx="41.600002" cy="157.9502" r="8"/><rect id="rect61" fill="#e6e6e6" height="6" overflow="visible" width="6" x="38.600002" y="154.9502"/></g></g><g id="rotaryDrive"><rect id="rect65" fill="#575d5e" height="105" shape-rendering="crispEdges" stroke="#333" stroke-width=".80000001" width="190" x="9.9999962" y="115.25"/><path id="path67" d="m10.499994 127.475v92m1.6-92v92m1.6-92v92m1.6-92v92m1.6-92v92m1.6-92v92m1.6-92v92m1.6-92v92m1.6-92v92m1.6-92v92m1.6-92v92m1.6-92v92m1.6-92v92m1.6-92v92m1.6-92v92m1.6-92v92m1.6-92v92m1.6-92v92m1.6-92v92m1.6-92v92m1.6-92v92m1.6-92v92m1.6-92v92m1.6-92v92m1.6-92v92m1.6-92v92m1.6-92v92m1.6-92v92m1.6-92v92m1.6-92v92m1.6-92v92m1.6-92v92m1.6-92v92m1.6-92v92m1.6-92v92m1.6-92v92m1.6-92v92m1.6-92v92m1.6-92v92m1.6-92v92m1.6-92v92m1.6-92v92m1.60001-92v92m1.6-92v92m1.6-92v92m1.6-92v92m1.6-92v92m1.6-92v92m1.6-92v92m1.6-92v92m1.6-92v92m1.6-92v92m1.6-92v92m1.6-92v92m1.6-92v92m1.6-92v92m1.599996-92v92m1.6-92v92m1.6-92v92m1.6-92v92m1.6-92v92m1.6-92v92m1.6-92v92m1.6-92v92m1.6-92v92m1.6-92v92m1.6-92v92m1.6-92v92m1.6-92v92m1.6-92v92m1.6-92v92m1.6-92v92m1.6-92v92m1.6-92v92m1.6-92v92m1.6-92v92m1.6-92v92m1.6-92v92m1.6-92v92m1.6-92v92m1.6-92v92m1.6-92v92m1.6-92v92m1.6-92v92m1.6-92v92m1.6-92v92m1.6-92v92m1.6-92v92m1.6-92v92m1.6-92v92m1.6-92v92m1.6-92v92m1.6-92v92m1.6-92v92m1.6-92v92m1.6-92v92m1.6-92v92m1.6-92v92m1.6-92v92m1.6-92v92m1.6-92v92m1.6-92v92m1.6-92v92m1.6-92v92m1.6-92v92m1.6-92v92m1.6-92v92m1.6-92v92m1.6-92v92m1.6-92v92m1.6-92v92m1.6-92v92m1.6-92v92m1.6-92v92m1.6-92v92m1.6-92v92m1.6-92v92m1.6-92v92m1.6-92v92m-188.800006-92h189.000006m-189.000006 1.6h189.000006m-189.000006 1.6h189.000006m-189.000006 1.6h189.000006m-189.000006 1.6h189.000006m-189.000006 1.6h189.000006m-189.000006 1.6h189.000006m-189.000006 1.6h189.000006m-189.000006 1.6h189.000006m-189.000006 1.6h189.000006m-189.000006 1.6h189.000006m-189.000006 1.6h189.000006m-189.000006 1.6h189.000006m-189.000006 1.6h189.000006m-189.000006 1.6h189.000006m-189.000006 1.6h189.000006m-189.000006 1.6h189.000006m-189.000006 1.6h189.000006m-189.000006 1.6h189.000006m-189.000006 1.6h189.000006m-189.000006 1.6h189.000006m-189.000006 1.6h189.000006m-189.000006 1.6h189.000006m-189.000006 1.6h189.000006m-189.000006 1.6h189.000006m-189.000006 1.6h189.000006m-189.000006 1.6h189.000006m-189.000006 1.6h189.000006m-189.000006 1.6h189.000006m-189.000006 1.6h189.000006m-189.000006 1.6h189.000006m-189.000006 1.6h189.000006m-189.000006 1.6h189.000006m-189.000006 1.6h189.000006m-189.000006 1.6h189.000006m-189.000006 1.6h189.000006m-189.000006 1.6h189.000006m-189.000006 1.6h189.000006m-189.000006 1.6h189.000006m-189.000006 1.6h189.000006m-189.000006 1.6h189.000006m-189.000006 1.6h189.000006m-189.000006 1.6h189.000006m-189.000006 1.6h189.000006m-189.000006 1.6h189.000006m-189.000006 1.6h189.000006m-189.000006 1.6h189.000006m-189.000006 1.6h189.000006m-189.000006 1.6h189.000006m-189.000006 1.6h189.000006m-189.000006 1.6h189.000006m-189.000006 1.6h189.000006m-189.000006 1.6h189.000006m-189.000006 1.6h189.000006m-189.000006 1.6h189.000006m-189.000006 1.6h189.000006m-189.000006 1.6h189.000006m-189.000006 1.6h189.000006m-189.000006-91.2h189.000006v92h-189.000006z" fill="#4d4d4d" fill-rule="evenodd" stroke="#575d5e" stroke-width=".4pt"/><rect id="rect69" fill="#bb1e10" height="10.5" shape-rendering="crispEdges" width="189.2" x="10.400002" y="115.65017"/><path id="path71" d="m10.4 126.65019h189.2" fill="none" shape-rendering="crispEdges" stroke="#fff"/><text id="text73" line-height="100%" style="font-weight:bold;font-size:5.39302158;font-family:sans-serif;letter-spacing:0;word-spacing:0;fill:#fff;shape-rendering:crispEdges" x="158.53897" xml:space="preserve" y="123.57168"><tspan id="tspan75" fill="#fff" font-family="sans-serif" font-size="7.5" font-weight="bold" line-height="100%" x="158.53897" y="123.57168">TMax T7</tspan></text><path id="path77" d="m16.16024 116.90017l-1.04937 3.92001h2.16781v-3.92001zm1.27844 0v3.92001h2.16783l-1.04922-3.92001zm4.48003 0v3.92001h2.32001v-3.92001zm2.48001 0v3.92001h2.42861a2.4000112 2.4000112 0 0 0 -.83048-.55113 1.8000084 1.8000084 0 0 0  .92204-1.56886 1.8000084 1.8000084 0 0 0 -1.80001-1.80002 1.8000084 1.8000084 0 0 0 -.00016 0zm3.76001 0v3.92001h2.32001v-3.92001zm2.48002 0v3.92001h2.4286a2.4000112 2.4000112 0 0 0 -.83047-.55113 1.8000084 1.8000084 0 0 0  .92204-1.56886 1.8000084 1.8000084 0 0 0 -1.80001-1.80002 1.8000084 1.8000084 0 0 0 -.00016 0zm-15.5707 4.07999l-1.04938 3.92001h2.00001l.42406-1.60001h.83594v-2.32zm2.37063 0v2.32h.8361l.42391 1.60001h2.00001l-1.04922-3.92001zm4.48003 0v3.92001h2.32001v-3.92001zm2.48001 0v3.92001h.72001a2.4000112 2.4000112 0 0 0  .00015 0 2.4000112 2.4000112 0 0 0  2.40001-2.40001 2.4000112 2.4000112 0 0 0 -.54672-1.52h-2.57344zm3.76001 0v3.92001h2.32001v-3.92001zm2.48002 0v3.92001h.72a2.4000112 2.4000112 0 0 0  .00016 0 2.4000112 2.4000112 0 0 0  2.40001-2.40001 2.4000112 2.4000112 0 0 0 -.54671-1.52z" fill="#fff" shape-rendering="crispEdges"/><g id="g79" fill="#575d5e" shape-rendering="crispEdges" stroke="#333"><circle id="circle81" cx="41.600006" cy="157.94983" r="25"/></g><path id="path83" d="m14.876048 161.80118a27 27 0 0 1  .313973-9.4646l26.409985 5.61362z" fill="#008000" shape-rendering="crispEdges"/><path id="path85" d="m17.031052 146.75348a27 27 0 0 1 14.893019-14.00996l9.675935 25.20668z" fill="#ff0" shape-rendering="crispEdges"/><path id="path87" d="m31.924071 132.74352a27 27 0 0 1 19.351869 0l-9.675934 25.20668z" fill="#f00" shape-rendering="crispEdges"/><circle id="circle89" cx="41.600006" cy="157.9502" r="25.25" style="fill:#575d5e;stroke:#363636;stroke-width:.5;stroke-linecap:round;stroke-linejoin:round;shape-rendering:crispEdges"/><g id="g91" shape-rendering="crispEdges"><path id="path93" d="m180.59961 157.94922h-7.5a27.5 27.5 0 0 1 -27.5 27.5v7.5a35 35 0 0 0 35-35z" fill="#575d5e" stroke="#3f4242" stroke-linecap="round" stroke-linejoin="round" stroke-width=".5"/><path id="path95" d="m159.71289 182.39258l3.19531 5.04492a34.25 34.25 0 0 0 7.75-6.18359l-4.34179-4.15039a28.25 28.25 0 0 1 -6.60352 5.28906z" fill="#ff0"/><path id="path97" d="m146.09961 186.17578v5.99805a34.25 34.25 0 0 0 13.04492-2.77735l-2.48047-5.48828a28.25 28.25 0 0 1 -10.56445 2.26758z" fill="#f00"/><path id="path99" d="m172.16211 167.43164l5.59961 2.16797a34.25 34.25 0 0 0 2.07031-11.15039h-6.00781a28.25 28.25 0 0 1 -1.66211 8.98242z" fill="#008000"/></g><rect id="rect101" height="42" rx="21" style="fill:#575d5e;stroke:#333;stroke-width:.5;stroke-linecap:round;stroke-linejoin:round;shape-rendering:crispEdges" width="146" x="20.599998" y="136.95018"/><path id="path103" d="m89.0467 157.50001c0-5.4015-4.37456-9.74999-9.80844-9.74999h-38.46616-.11367-5.60281c-2.33034 0-4.20562 1.4495-4.20562 3.24999v6.5 6.5c0 1.8005 1.87528 3.25 4.20562 3.25h5.60281.11367 38.46616c5.43388 0 9.80844-4.3485 9.80844-9.75z" style="fill:none;stroke:#363636;stroke-width:.5;stroke-linecap:round;stroke-linejoin:bevel;shape-rendering:crispEdges"/><path id="path105" d="m18.85 157.50001c0 5.4015 4.7732 9.75 10.70225 9.75h41.97148.12402 6.11338c2.5427 0 4.58887-1.4495 4.58887-3.25v-6.5-6.5c0-1.80049-2.04617-3.24999-4.58887-3.24999h-6.11338-.12402-41.97148c-5.92905 0-10.70225 4.34849-10.70225 9.74999z" style="fill:#fff;stroke:#999;stroke-width:.49999997;stroke-linecap:round;stroke-linejoin:bevel;shape-rendering:crispEdges"/><path id="path107" d="m55.59817 150.6185c0-1.17316-.25577-2.11848-.57226-2.11848h-2.85548c-.3165 0-.57226.94532-.57226 2.11848v13.76432c0 1.17318.25576 2.11719.57226 2.11719h2.85548c.31649 0 .57226-.94401.57226-2.11719zm-6.44922 0c0-1.17316-.25573-2.11848-.57227-2.11848h-2.85547c-.31648 0-.57226.94532-.57226 2.11848v13.76432c0 1.17318.25578 2.11719.57226 2.11719h2.85547c.31654 0 .57227-.94401.57227-2.11719zm-6.45118 0c0-1.17316-.25575-2.11848-.57226-2.11848h-2.85547c-.31651 0-.57227.94532-.57227 2.11848v13.76432c0 1.17318.25576 2.11719.57227 2.11719h2.85547c.31651 0 .57226-.94401.57226-2.11719z" fill="#e6e6e6" shape-rendering="crispEdges"/><path id="path109" d="m21.24284 163.44028a22.5 22.5 0 0 1 -.68007-5.49007 22.5 22.5 0 0 1  1.09925-6.94678" style="fill:none;stroke:#999;stroke-width:.5;stroke-linecap:round;stroke-linejoin:round;shape-rendering:crispEdges"/><g id="g111" shape-rendering="crispEdges"><ellipse id="ellipse113" cx="192.54164" cy="194.05" rx="4.75" ry="2.75" style="overflow:visible;fill:#c7cacc;fill-rule:evenodd;stroke:#333;stroke-width:.49999991;stroke-linecap:round;stroke-linejoin:round"/><text id="text115" line-height="125%" style="font-size:12.5;font-family:sans-serif;letter-spacing:0;word-spacing:0;overflow:visible;fill:#4d4d4d;fill-opacity:.9372549" x="190.1512" xml:space="preserve" y="194.73161"><tspan id="tspan117" fill="#4d4d4d" fill-opacity=".9372549" font-size="1.875" x="190.1512" y="194.73161">TEST</tspan></text></g></g><g id="motorDrive"><rect id="rect121" fill="#575d5e" height="105" shape-rendering="crispEdges" stroke="#333" stroke-width=".80000001" width="190" x="10" y="115.25"/><path id="path123" clip-path="url(#i)" d="m-444.53391 125.475v94m1.6-94v94m1.60001-94v94m1.6-94v94m1.6-94v94m1.6-94v94m1.6-94v94m1.6-94v94m1.6-94v94m1.6-94v94m1.6-94v94m1.6-94v94m1.6-94v94m1.6-94v94m1.6-94v94m1.6-94v94m1.6-94v94m1.6-94v94m1.6-94v94m1.6-94v94m1.6-94v94m1.6-94v94m1.6-94v94m1.6-94v94m1.6-94v94m1.6-94v94m1.6-94v94m1.6-94v94m1.6-94v94m1.6-94v94m1.6-94v94m1.6-94v94m1.6-94v94m1.6-94v94m1.6-94v94m1.6-94v94m1.6-94v94m1.6-94v94m1.6-94v94m1.6-94v94m1.6-94v94m1.6-94v94m1.6-94v94m1.6-94v94m1.6-94v94m1.6-94v94m1.6-94v94m1.6-94v94m1.6-94v94m1.6-94v94m1.6-94v94m1.6-94v94m1.6-94v94m1.6-94v94m1.6-94v94m1.6-94v94m1.6-94v94m1.6-94v94m1.6-94v94m1.6-94v94m1.6-94v94m1.6-94v94m1.6-94v94m1.6-94v94m1.6-94v94m1.6-94v94m1.6-94v94m1.6-94v94m1.6-94v94m1.6-94v94m1.6-94v94m1.6-94v94m1.6-94v94m1.6-94v94m1.6-94v94m1.6-94v94m1.6-94v94m1.6-94v94m1.6-94v94m1.6-94v94m1.6-94v94m1.6-94v94m1.6-94v94m1.6-94v94m1.6-94v94m1.6-94v94m1.6-94v94m1.6-94v94m1.6-94v94m1.6-94v94m1.6-94v94m1.6-94v94m1.6-94v94m1.6-94v94m1.6-94v94m1.6-94v94m1.6-94v94m1.6-94v94m1.6-94v94m1.6-94v94m1.6-94v94m1.6-94v94m1.6-94v94m1.6-94v94m1.6-94v94m1.6-94v94m1.6-94v94m1.6-94v94m1.6-94v94m1.6-94v94m1.6-94v94m1.6-94v94m1.6-94v94m1.6-94v94m1.6-94v94m1.6-94v94m1.6-94v94m1.6-94v94m1.6-94v94m-188.80001-94h189m-189 1.6h189m-189 1.6h189m-189 1.6h189m-189 1.6h189m-189 1.6h189m-189 1.6h189m-189 1.6h189m-189 1.6h189m-189 1.6h189m-189 1.6h189m-189 1.6h189m-189 1.6h189m-189 1.6h189m-189 1.6h189m-189 1.6h189m-189 1.6h189m-189 1.6h189m-189 1.6h189m-189 1.6h189m-189 1.6h189m-189 1.6h189m-189 1.6h189m-189 1.6h189m-189 1.6h189m-189 1.6h189m-189 1.6h189m-189 1.6h189m-189 1.6h189m-189 1.6h189m-189 1.6h189m-189 1.6h189m-189 1.6h189m-189 1.6h189m-189 1.6h189m-189 1.6h189m-189 1.6h189m-189 1.6h189m-189 1.6h189m-189 1.6h189m-189 1.6h189m-189 1.6h189m-189 1.6h189m-189 1.6h189m-189 1.6h189m-189 1.6h189m-189 1.6h189m-189 1.6h189m-189 1.6h189m-189 1.6h189m-189 1.6h189m-189 1.6h189m-189 1.6h189m-189 1.6h189m-189 1.6h189m-189 1.6h189m-189 1.6h189m-189 1.6h189m-189 1.6h189m-189-92.8h189v94h-189z" fill="#4d4d4d" fill-rule="evenodd" stroke="#575d5e" stroke-width=".4pt" transform="translate(455.03391)"/><g id="g125" shape-rendering="crispEdges"><rect id="rect127" fill="#f00" height="24" stroke="#333" stroke-width=".5" width="19" x="73.849998" y="195"/><circle id="circle129" cx="83.349998" cy="206.99998" fill="none" overflow="visible" r="3.5999999" stroke="#fff"/></g><g id="g131" shape-rendering="crispEdges"><rect id="rect133" fill="#007b00" height="24.5" stroke="#333" stroke-width=".5" width="19" x="117.45" y="194.75"/><text id="text135" line-height="125%" style="font-weight:bold;font-size:10.80000019;font-family:Arial;letter-spacing:0;word-spacing:0;fill:#fff" x="125.43124" xml:space="preserve" y="210.86543"><tspan id="tspan137" x="125.43124" y="210.86543">I</tspan></text></g><rect id="rect139" fill="#333" height="17.5" rx=".66666669" ry="1.12727" stroke="#1a1a1a" stroke-linecap="round" stroke-linejoin="round" stroke-width="1.5" width="20" x="39.660999" y="126.05"/><g id="g141" shape-rendering="crispEdges"><rect id="rect143" fill="#5b5e60" height="93" rx="1" ry="1.1272722" stroke="#1a1a1a" stroke-width="1.5" width="9" x="59.650002" y="126.05"/><path id="path145" d="m60.399999 192.1986c0-.51358.10639 1.34391.88764 2.19732.78123.85342 2.14908.70276 2.77407.70276.625 0 2.00355.15066 2.7848-.70276.78124-.85341 1.05908-2.71086 1.0534-2.19732v12.73747c-1.07316-.29551-.36753 1.49433-1.76787 1.96068-1.40035.46641-5.73204.0234-5.73204.0234z" fill="#333" overflow="visible"/></g><g id="g147" shape-rendering="crispEdges"><rect id="rect149" fill="#fff" height="10" stroke="#333" stroke-width=".5" width="19" x="73.849998" y="165.69194"/><path id="path151" d="m77.866681 168.69193h10.96664" style="overflow:visible;fill:none;stroke:#000;stroke-width:.80000001;stroke-linecap:round;stroke-dasharray:1.60000002 1.60000002"/><path id="path153" d="m80.310841 172.69193h6.07832" style="overflow:visible;fill:none;stroke:#000;stroke-width:.80000001;stroke-linecap:round;stroke-dasharray:1.60000002 1.60000002"/></g><g id="g155" shape-rendering="crispEdges"><rect id="rect157" fill="#007b00" height="10" stroke="#333" stroke-width=".5" width="19" x="117.45" y="165.69194"/><circle id="circle159" cx="121.69998" cy="170.69194" fill="none" overflow="visible" r="2.75" stroke="#fff" stroke-width=".5"/><path id="path161" d="m128.14362 170.69194h5.61276" style="overflow:visible;fill:none;stroke:#fff;stroke-width:.79999995;stroke-linecap:round;stroke-dasharray:1.60000001 1.60000001"/></g><g id="g163" shape-rendering="crispEdges"><path id="path165" d="m10.39999 124.65h189.2" fill="none" stroke="#fff" stroke-width=".99999994"/><rect id="rect167" fill="#bb1e10" height="8.5" width="189.2" x="10.399986" y="115.65"/><path id="path169" d="m16.7538 116.4l-.91821 3.43h1.89685v-3.43zm1.11864 0v3.43h1.89682l-.91805-3.43zm3.91999 0v3.43h2.03v-3.43zm2.17 0v3.43h2.12503a2.1000002 2.1000002 0 0 0 -.72667-.4822 1.5750001 1.5750001 0 0 0  .80678-1.3728 1.5750001 1.5750001 0 0 0 -1.575-1.575 1.5750001 1.5750001 0 0 0 -.00012 0h-.63zm3.29 0v3.43h2.03v-3.43zm2.17 0v3.43h2.12503a2.1000002 2.1000002 0 0 0 -.72667-.4822 1.5750001 1.5750001 0 0 0  .80678-1.3728 1.5750001 1.5750001 0 0 0 -1.575-1.575 1.5750001 1.5750001 0 0 0 -.00012 0h-.63zm-13.62429 3.57l-.9182 3.43h1.75l.37105-1.39999h.73145v-2.03001zm2.0743 0v2.03001h.73158l.37092 1.39999h1.74999l-.91806-3.43zm3.91999 0v3.43h2.03v-3.43zm2.17 0v3.43h.63a2.1000002 2.1000002 0 0 0  .00011 0 2.1000002 2.1000002 0 0 0  2.1-2.1 2.1000002 2.1000002 0 0 0 -.47838-1.33h-2.25176zm3.29 0v3.43h2.03v-3.43zm2.17 0v3.43h.63a2.1000002 2.1000002 0 0 0  .00011 0 2.1000002 2.1000002 0 0 0  2.1-2.1 2.1000002 2.1000002 0 0 0 -.47838-1.33h-2.25175z" fill="#fff" overflow="visible"/><text id="text171" line-height="100%" style="font-weight:bold;font-size:5.39302158;font-family:sans-serif;letter-spacing:0;word-spacing:0;overflow:visible;fill:#fff" x="157.44385" xml:space="preserve" y="122.57151"><tspan id="tspan173" fill="#fff" font-family="sans-serif" font-size="7.5" font-weight="bold" line-height="100%" x="157.44385" y="122.57151">TMax T7</tspan><tspan id="tspan175" fill="#fff" x="157.44385" y="122.57151"/></text></g><rect id="rect177" height="36" style="overflow:visible;fill:#c7c9cc;stroke:#333;stroke-width:.49999997;stroke-linecap:round;stroke-linejoin:round;shape-rendering:crispEdges" transform="scale(-1)" width="4" x="-187.2" y="-173.25"/><path id="path179" d="m185.2 191.75a13.75 13.75 0 0 0 -11.5 6.23437v15.04297a13.75 13.75 0 0 0 11.5 6.22266 13.75 13.75 0 0 0  11.5-6.23438v-15.04297a13.75 13.75 0 0 0 -11.5-6.22265z" fill="none" stroke="#333" stroke-linecap="round" stroke-linejoin="round" stroke-width=".49999994"/><g id="g181"/><g id="g183" shape-rendering="crispEdges"><ellipse id="ellipse185" cx="16.992334" cy="208.67094" rx="4.75" ry="2.75" style="overflow:visible;fill:#c7cacc;fill-rule:evenodd;stroke:#333;stroke-width:.49999991;stroke-linecap:round;stroke-linejoin:round"/><text id="text187" line-height="125%" style="font-size:12.5;font-family:sans-serif;letter-spacing:0;word-spacing:0;overflow:visible;fill:#4d4d4d;fill-opacity:.9372549" x="14.601892" xml:space="preserve" y="209.35255"><tspan id="tspan189" fill="#4d4d4d" fill-opacity=".9372549" font-size="1.875" x="14.601892" y="209.35255">TEST</tspan></text></g></g><g id="rockerLever"><rect id="rect193" fill="#575d5e" height="105" shape-rendering="crispEdges" stroke="#333" stroke-width=".80000001" width="190" x="10" y="115.25"/><path id="path195" clip-path="url(#h)" d="m-197.19067 127.50039v92m1.6-92v92m1.6-92v92m1.6-92v92m1.6-92v92m1.6-92v92m1.6-92v92m1.6-92v92m1.6-92v92m1.6-92v92m1.6-92v92m1.6-92v92m1.6-92v92m1.6-92v92m1.6-92v92m1.6-92v92m1.6-92v92m1.6-92v92m1.6-92v92m1.6-92v92m1.6-92v92m1.6-92v92m1.6-92v92m1.6-92v92m1.6-92v92m1.6-92v92m1.6-92v92m1.6-92v92m1.6-92v92m1.6-92v92m1.6-92v92m1.6-92v92m1.6-92v92m1.6-92v92m1.6-92v92m1.6-92v92m1.6-92v92m1.6-92v92m1.6-92v92m1.6-92v92m1.6-92v92m1.6-92v92m1.6-92v92m1.6-92v92m1.6-92v92m1.6-92v92m1.6-92v92m1.6-92v92m1.6-92v92m1.6-92v92m1.6-92v92m1.6-92v92m1.6-92v92m1.6-92v92m1.6-92v92m1.6-92v92m1.6-92v92m1.6-92v92m1.6-92v92m1.6-92v92m1.6-92v92m1.599998-92v92m1.6-92v92m1.6-92v92m1.6-92v92m1.6-92v92m1.6-92v92m1.6-92v92m1.6-92v92m1.6-92v92m1.6-92v92m1.6-92v92m1.6-92v92m1.6-92v92m1.6-92v92m1.6-92v92m1.6-92v92m1.6-92v92m1.6-92v92m1.6-92v92m1.6-92v92m1.6-92v92m1.6-92v92m1.6-92v92m1.6-92v92m1.6-92v92m1.6-92v92m1.6-92v92m1.6-92v92m1.6-92v92m1.6-92v92m1.6-92v92m1.6-92v92m1.6-92v92m1.6-92v92m1.6-92v92m1.6-92v92m1.6-92v92m1.600001-92v92m1.6-92v92m1.6-92v92m1.6-92v92m1.6-92v92m1.6-92v92m1.6-92v92m1.6-92v92m1.6-92v92m1.6-92v92m1.6-92v92m1.6-92v92m1.6-92v92m1.6-92v92m1.6-92v92m1.6-92v92m-180.799999-92h181.999996m-181.999996 1.6h181.999996m-181.999996 1.6h181.999996m-181.999996 1.6h181.999996m-181.999996 1.6h181.999996m-181.999996 1.6h181.999996m-181.999996 1.6h181.999996m-181.999996 1.6h181.999996m-181.999996 1.6h181.999996m-181.999996 1.6h181.999996m-181.999996 1.6h181.999996m-181.999996 1.6h181.999996m-181.999996 1.6h181.999996m-181.999996 1.6h181.999996m-181.999996 1.6h181.999996m-181.999996 1.6h181.999996m-181.999996 1.6h181.999996m-181.999996 1.6h181.999996m-181.999996 1.6h181.999996m-181.999996 1.6h181.999996m-181.999996 1.6h181.999996m-181.999996 1.6h181.999996m-181.999996 1.6h181.999996m-181.999996 1.6h181.999996m-181.999996 1.6h181.999996m-181.999996 1.6h181.999996m-181.999996 1.6h181.999996m-181.999996 1.6h181.999996m-181.999996 1.6h181.999996m-181.999996 1.6h181.999996m-181.999996 1.6h181.999996m-181.999996 1.6h181.999996m-181.999996 1.6h181.999996m-181.999996 1.6h181.999996m-181.999996 1.6h181.999996m-181.999996 1.6h181.999996m-181.999996 1.6h181.999996m-181.999996 1.6h181.999996m-181.999996 1.6h181.999996m-181.999996 1.6h181.999996m-181.999996 1.6h181.999996m-181.999996 1.6h181.999996m-181.999996 1.6h181.999996m-181.999996 1.6h181.999996m-181.999996 1.6h181.999996m-181.999996 1.6h181.999996m-181.999996 1.6h181.999996m-181.999996 1.6h181.999996m-181.999996 1.6h181.999996m-181.999996 1.6h181.999996m-181.999996 1.6h181.999996m-181.999996 1.6h181.999996m-181.999996 1.6h181.999996m-181.999996 1.6h181.999996m-181.999996 1.6h181.999996m-181.999996 1.6h181.999996m-181.999996 1.6h181.999996m-181.999996 1.6h181.999996m-181.999996-91.2h181.999996v92h-181.999996z" fill="#4d4d4d" fill-rule="evenodd" stroke="#575d5e" stroke-width=".4pt" transform="translate(211.19067)"/><rect id="rect197" fill="#2b6138" height="10" shape-rendering="crispEdges" width="40" x="107.75" y="157.53714"/><rect id="rect199" fill="#ff0" fill-opacity=".58208953" height="10" shape-rendering="crispEdges" width="40" x="67.25" y="157.53714"/><g id="g201"/><rect id="rect203" fill="#f00" fill-opacity=".39215686" height="10" shape-rendering="crispEdges" width="80.5" x="67.25" y="129.75041"/><text id="text205" line-height="125%" style="font-size:12.5;font-family:sans-serif;letter-spacing:0;word-spacing:0;fill:#fff;shape-rendering:crispEdges" x="82.692413" xml:space="preserve" y="137.59953"><tspan id="tspan207" font-size="7.5" x="82.692413" y="137.59953">l</tspan></text><text id="text209" line-height="125%" style="font-size:12.5;font-family:sans-serif;letter-spacing:0;word-spacing:0;fill:#fff;shape-rendering:crispEdges" x="127.92987" xml:space="preserve" y="136.7957"><tspan id="tspan211" font-size="7.5" x="127.92987" y="136.7957">on</tspan></text><rect id="rect213" fill="#008000" fill-opacity=".39215686" height="10" shape-rendering="crispEdges" width="80.5" x="67.25" y="202.16428"/><circle id="circle215" cx="83.721466" cy="207.16428" fill="none" overflow="visible" r="2.5" shape-rendering="crispEdges" stroke="#fff" stroke-width=".5"/><text id="text217" line-height="125%" style="font-size:12.5;font-family:sans-serif;letter-spacing:0;word-spacing:0;fill:#fff;shape-rendering:crispEdges" x="127.92987" xml:space="preserve" y="209.97495"><tspan id="tspan219" font-size="7.5" x="127.92987" y="209.97495">off</tspan></text><g id="g221" shape-rendering="crispEdges"><rect id="rect223" fill="#bb1e10" height="10.5" width="189.2" x="10.400146" y="115.65041"/><text id="text225" line-height="100%" style="font-weight:bold;font-size:5.39302158;font-family:sans-serif;letter-spacing:0;word-spacing:0;overflow:visible;fill:#fff" x="158.09166" xml:space="preserve" y="123.57191"><tspan id="tspan227" fill="#fff" font-family="sans-serif" font-size="7.5" font-weight="bold" line-height="100%" x="158.09166" y="123.57191">TMax T7</tspan></text><path id="path229" d="m16.53774 116.9004l-1.04937 3.92h2.16782v-3.92zm1.27845 0v3.92h2.1678l-1.04921-3.92zm4.48 0v3.92h2.32v-3.92zm2.48 0v3.92h2.42859a2.4000002 2.4000002 0 0 0 -.83047-.55109 1.8000001 1.8000001 0 0 0  .92204-1.56891 1.8000001 1.8000001 0 0 0 -1.8-1.8 1.8000001 1.8000001 0 0 0 -.00015 0h-.72zm3.76 0v3.92h2.31999v-3.92zm2.47999 0v3.92h2.4286a2.4000002 2.4000002 0 0 0 -.83047-.55109 1.8000001 1.8000001 0 0 0  .92203-1.56891 1.8000001 1.8000001 0 0 0 -1.8-1.8 1.8000001 1.8000001 0 0 0 -.00014 0h-.72zm-15.57061 4.08l-1.04938 3.92h2l .42406-1.59999h.83594v-2.32001zm2.37062 0v2.32001h.8361l.4239 1.59999h2l-1.04922-3.92zm4.48 0v3.92h2.32v-3.92zm2.48 0v3.92h.72a2.4000002 2.4000002 0 0 0  .00012 0 2.4000002 2.4000002 0 0 0  2.4-2.4 2.4000002 2.4000002 0 0 0 -.54672-1.52h-2.57344zm3.76 0v3.92h2.31999v-3.92zm2.47999 0v3.92h.72a2.4000002 2.4000002 0 0 0  .00013 0 2.4000002 2.4000002 0 0 0  2.4-2.4 2.4000002 2.4000002 0 0 0 -.54672-1.52h-2.57342z" fill="#fff" overflow="visible"/><path id="path231" d="m10.40016 126.6504h189.2" fill="none" stroke="#fff"/></g><g id="g233" shape-rendering="crispEdges"><g id="g235" fill="#d4d5df" transform="translate(-95 42.500015)"><rect id="rect237" height="78" stroke="#333" stroke-width=".5" width="35" x="185" y="87.500404"/><path id="path239" d="m186.46285 146.24999h32.07429c.39487 0 .72901.48702.71277 1.09126l-.42544 26.40876-.99478 26.40869c-.0228.604-1.74872 1.09129-2.1436 1.09129h-26.37219c-.39487 0-2.11659-.48703-2.13297-1.09129 0 0-.76242-17.60168-1.00096-26.40869-.23836-8.80012-.42988-26.40876-.42988-26.40876-.0163-.60424.31789-1.09126.71276-1.09126z" stroke="#808080" stroke-width=".49999997"/></g><g id="g241" stroke="#808080" transform="translate(-95 42.500015)"><rect id="rect243" fill="#d4d5df" height="5" overflow="visible" rx=".65531915" ry=".5" shape-rendering="crispEdges" stroke-width=".49999994" width="30.799999" x="187.05002" y="196.24998"/><g id="g245" fill="#4d4d4d" stroke-linecap="round" stroke-linejoin="round" stroke-width=".25" transform="translate(25)"><ellipse id="ellipse247" cx="177.45001" cy="198.61705" rx="1.1803081" ry="1.375"/></g></g></g><g id="g249" shape-rendering="crispEdges"><ellipse id="ellipse251" cx="187.00002" cy="185.24998" rx="4.75" ry="2.75" style="overflow:visible;fill:#c7cacc;fill-rule:evenodd;stroke:#333;stroke-width:.49999991;stroke-linecap:round;stroke-linejoin:round"/><text id="text253" line-height="125%" style="font-size:12.5;font-family:sans-serif;letter-spacing:0;word-spacing:0;overflow:visible;fill:#4d4d4d;fill-opacity:.9372549" x="184.60957" xml:space="preserve" y="185.93159"><tspan id="tspan255" fill="#4d4d4d" fill-opacity=".9372549" font-size="1.875" x="184.60957" y="185.93159">TEST</tspan></text></g></g><g id="tripUnit"><rect id="rect259" fill="none" height="62" stroke="#fff" stroke-linecap="round" stroke-linejoin="round" stroke-width=".5" width="190" x="10" y="37.599998"/><path id="path261" clip-path="url(#g)" d="m-369.94568 38.099998v61.000001m1.6-61.000001v61.000001m1.6-61.000001v61.000001m1.6-61.000001v61.000001m1.6-61.000001v61.000001m1.6-61.000001v61.000001m1.6-61.000001v61.000001m1.6-61.000001v61.000001m1.6-61.000001v61.000001m1.6-61.000001v61.000001m1.6-61.000001v61.000001m1.6-61.000001v61.000001m1.6-61.000001v61.000001m1.6-61.000001v61.000001m1.6-61.000001v61.000001m1.6-61.000001v61.000001m1.6-61.000001v61.000001m1.6-61.000001v61.000001m1.6-61.000001v61.000001m1.6-61.000001v61.000001m1.6-61.000001v61.000001m1.6-61.000001v61.000001m1.6-61.000001v61.000001m1.6-61.000001v61.000001m1.6-61.000001v61.000001m1.6-61.000001v61.000001m1.6-61.000001v61.000001m1.6-61.000001v61.000001m1.6-61.000001v61.000001m1.6-61.000001v61.000001m1.6-61.000001v61.000001m1.6-61.000001v61.000001m1.6-61.000001v61.000001m1.6-61.000001v61.000001m1.6-61.000001v61.000001m1.6-61.000001v61.000001m1.6-61.000001v61.000001m1.6-61.000001v61.000001m1.6-61.000001v61.000001m1.6-61.000001v61.000001m1.6-61.000001v61.000001m1.6-61.000001v61.000001m1.6-61.000001v61.000001m1.6-61.000001v61.000001m1.6-61.000001v61.000001m1.6-61.000001v61.000001m1.6-61.000001v61.000001m1.6-61.000001v61.000001m1.6-61.000001v61.000001m1.6-61.000001v61.000001m1.6-61.000001v61.000001m1.6-61.000001v61.000001m1.6-61.000001v61.000001m1.6-61.000001v61.000001m1.6-61.000001v61.000001m1.6-61.000001v61.000001m1.6-61.000001v61.000001m1.6-61.000001v61.000001m1.6-61.000001v61.000001m1.6-61.000001v61.000001m1.6-61.000001v61.000001m1.6-61.000001v61.000001m1.6-61.000001v61.000001m1.6-61.000001v61.000001m1.6-61.000001v61.000001m1.6-61.000001v61.000001m1.6-61.000001v61.000001m1.6-61.000001v61.000001m1.6-61.000001v61.000001m1.6-61.000001v61.000001m1.6-61.000001v61.000001m1.6-61.000001v61.000001m1.6-61.000001v61.000001m1.6-61.000001v61.000001m1.6-61.000001v61.000001m1.6-61.000001v61.000001m1.6-61.000001v61.000001m1.6-61.000001v61.000001m1.6-61.000001v61.000001m1.6-61.000001v61.000001m1.6-61.000001v61.000001m1.6-61.000001v61.000001m1.6-61.000001v61.000001m1.6-61.000001v61.000001m1.6-61.000001v61.000001m1.6-61.000001v61.000001m1.6-61.000001v61.000001m1.6-61.000001v61.000001m1.6-61.000001v61.000001m1.6-61.000001v61.000001m1.6-61.000001v61.000001m1.6-61.000001v61.000001m1.6-61.000001v61.000001m1.6-61.000001v61.000001m1.6-61.000001v61.000001m1.6-61.000001v61.000001m1.6-61.000001v61.000001m1.6-61.000001v61.000001m1.6-61.000001v61.000001m1.6-61.000001v61.000001m1.6-61.000001v61.000001m1.6-61.000001v61.000001m1.6-61.000001v61.000001m1.6-61.000001v61.000001m1.6-61.000001v61.000001m1.6-61.000001v61.000001m1.6-61.000001v61.000001m1.6-61.000001v61.000001m1.6-61.000001v61.000001m1.6-61.000001v61.000001m1.6-61.000001v61.000001m1.6-61.000001v61.000001m1.6-61.000001v61.000001m1.6-61.000001v61.000001m1.6-61.000001v61.000001m1.6-61.000001v61.000001m1.6-61.000001v61.000001m1.6-61.000001v61.000001m1.6-61.000001v61.000001m-188.8-61.000001h189m-189 1.6h189m-189 1.6h189m-189 1.600001h189m-189 1.6h189m-189 1.6h189m-189 1.6h189m-189 1.6h189m-189 1.6h189m-189 1.6h189m-189 1.6h189m-189 1.6h189m-189 1.6h189m-189 1.6h189m-189 1.6h189m-189 1.6h189m-189 1.6h189m-189 1.6h189m-189 1.6h189m-189 1.6h189m-189 1.6h189m-189 1.6h189m-189 1.6h189m-189 1.6h189m-189 1.6h189m-189 1.6h189m-189 1.6h189m-189 1.6h189m-189 1.6h189m-189 1.6h189m-189 1.6h189m-189 1.6h189m-189 1.6h189m-189 1.6h189m-189 1.6h189m-189 1.6h189m-189 1.6h189m-189 1.6h189m-189 1.6h189m-189-60.800001h189v61.000001h-189z" fill="#4d4d4d" fill-rule="evenodd" stroke="#575d5e" stroke-width=".4pt" transform="translate(380.44568)"/><g id="g263" stroke-width=".80000001"><rect id="rect265" fill="#26b051" height="40" stroke="#000" width="70" x="70" y="45"/><path id="path267" d="m76.91737 78.819915l.2839-22.995763" fill="none" stroke="#000"/><path id="path269" d="m80.91737 78.819915l.2839-22.995763" fill="none" stroke="#000"/><path id="path271" d="m84.91737 78.815323l.2839-20.857342" fill="none" stroke="#000"/><path id="path273" d="m88.91737 78.813792l.2839-20.144535" fill="none" stroke="#000"/><path id="path275" d="m92.91737 78.803997l.2839-15.582571" fill="none" stroke="#000"/><text id="text277" font-family="sans-serif" font-size="7.5" letter-spacing="0" line-height="125%" word-spacing="0" x="115.1017" xml:space="preserve" y="61.644066"><tspan id="tspan279" stroke-width=".80000001" x="115.1017" y="61.644066">XXXA</tspan></text></g><path id="path281" d="m67.4 96.25h90" fill="none" stroke="#fff" stroke-width=".5"/><path id="path283" d="m67.4 42.25h90" fill="none" stroke="#fff" stroke-width=".5"/><rect id="rect285" fill="#7ba4db" height="7.5" rx="1.2453523" ry="1.2882954" stroke="#fff" stroke-linecap="round" stroke-linejoin="bevel" stroke-width=".5" width="11.5" x="145.64999" y="44.410828"/><rect id="rect287" fill="#7ba4db" height="7.5" rx="1.2453523" ry="1.2882954" stroke="#fff" stroke-linecap="round" stroke-linejoin="bevel" stroke-width=".5" width="11.5" x="145.64999" y="54.910828"/><rect id="rect289" fill="#7ba4db" height="7.5" rx="1.2453523" ry="1.2882954" stroke="#fff" stroke-linecap="round" stroke-linejoin="bevel" stroke-width=".5" width="11.5" x="145.64999" y="65.410828"/><rect id="rect291" fill="#7ba4db" height="7.5" rx="1.2453523" ry="1.2882954" stroke="#fff" stroke-linecap="round" stroke-linejoin="bevel" stroke-width=".5" width="11.5" x="145.64999" y="75.910828"/><rect id="rect293" fill="#bfc1ca" height="7.5" rx="1.2453523" ry="1.2882954" stroke="#fff" stroke-linecap="round" stroke-linejoin="bevel" stroke-width=".5" width="11.5" x="145.64999" y="86.410828"/><text id="text295" fill="#fff" font-family="sans-serif" font-size="3.125" letter-spacing="0" line-height="125%" word-spacing="0" x="147.51266" xml:space="preserve" y="81.024048"><tspan id="tspan297" font-size="3.75" x="147.51266" y="81.024048">ESC</tspan></text><path id="path299" d="m153.0782 69.363188c-.04-.08167-.12303-.133422-.21397-.133422h-.5615v-2.061227c0-.131595-.10669-.238281-.23829-.238281h-1.32891c-.13159 0-.23828.106686-.23828.238281v2.061227h-.56148c-.0909 0-.17395.05177-.21398.133422-.04.08167-.0301.178981.0257.250846l1.46423 1.88868c.0451.05822.11466.0923.18833.0923.0737 0 .14319-.03408.1883-.0923l1.46424-1.88868c.0557-.07187.0657-.169179.0257-.250846z" fill="#fff"/><path id="path301" d="m153.0782 58.560273c-.04.08167-.12303.133422-.21397.133422h-.5615v2.061227c0 .131595-.10669.238281-.23829.238281h-1.32891c-.13159 0-.23828-.106686-.23828-.238281v-2.061227h-.56148c-.0909 0-.17395-.05177-.21398-.133422-.04-.08167-.0301-.178981.0257-.250847l1.46423-1.888679c.0451-.05822.11466-.0923.18833-.0923.0737 0 .14319.03407.1883.0923l1.46424 1.888679c.0557.07187.0657.16918.0257.250847z" fill="#fff"/><path id="path303" d="m155.98835 46.139763v1.524575c0 0-.074 1.55496-1.48092 1.55496h-4.79892v.962595l-2.89687-1.672508 2.89687-1.672507v.975552h4.47312c0 0 .36598.06453.36598-.394556v-1.263302z" fill="#fff" overflow="visible"/><path id="path305" d="m151.35742 87.222656a.527645.5276611 0 0 0 -.54297.527344.527645.5276611 0 0 0  1.05469 0 .527645.5276611 0 0 0 -.51172-.527344zm.54297 1.408203l-1.4375.05078v.238281c.20923-.0068.50591-.04329.50391.185547v1.445312c-.0115.114446-.0488.174988-.20313.179688l-.25781.0039v.240234h1.83203v-.240234l-.23437-.0039c-.14615-.01501-.20613-.05164-.20313-.179688v-1.919922z" fill="#fff"/><text id="text307" line-height="125%" style="font-size:3.125;font-family:sans-serif;letter-spacing:0;word-spacing:0;overflow:visible;fill:#fff" x="148.21274" xml:space="preserve" y="93.232971"><tspan id="tspan309" font-size="2.5" x="148.21274" y="93.232971">TEST</tspan></text></g></g></svg>