<svg id="svg2" height="662.79999" overflow="visible" viewBox="0 0 100.8 662.79999" width="100.8" xmlns="http://www.w3.org/2000/svg"><g id="layer1"><g id="breaker" stroke="#000" stroke-linecap="square" stroke-width=".80000001"><rect id="breakerRect" fill="#fff" fill-rule="evenodd" height="662" width="100" y="-.00001221"/><rect id="rectTop" fill="#09b8d7" height="140" ry="10" width="70" x="15" y="29.999989"/><rect id="rectMiddle" fill="#09b8d7" height="140" ry="10" width="70" x="15" y="209.99998"/><rect id="rectBottom" fill="#09b8d7" height="140" ry="10" width="70" x="15" y="390"/></g><g id="middleHoles" stroke="#000" stroke-linecap="square" stroke-width=".80000001"><circle id="circle3" cx="50" cy="47.999989" r="4"/><circle id="circle4" cx="50" cy="151.99998" r="4"/><circle id="circle1" cx="50" cy="227.99998" r="4"/><circle id="circle2" cx="50" cy="332" r="4"/><circle id="circle5" cx="50" cy="408" r="4"/><circle id="circle6" cx="50" cy="512" r="4"/></g><rect id="gripRight" fill="#c0c0c0" height="550" stroke="#000" stroke-linecap="square" stroke-width=".80000001" width="4.8000002" x="94" y="64.999985"/><g id="grip" fill="#c0c0c0" stroke="#000" stroke-linecap="square" stroke-width=".80000001"><rect id="gripLeft" height="550" width="4.8000002" x="1" y="64.999985"/><rect id="gripTop" height="18" width="98" x="1" y="64.999985"/><rect id="gripMiddle" height="18" width="98" x="1" y="244.99998"/><rect id="gripBottom" height="18" width="98" x="1" y="425"/></g><g id="fuseSize" stroke-width=".80000001"><rect id="breaker-2-5" fill="#fff" fill-rule="evenodd" height="10" stroke="#000" stroke-linecap="square" width="100" y="652"/><text id="fuseText" font-family="sans-serif" font-size="6.25" font-weight="bold" letter-spacing="0" line-height="125%" word-spacing="0" x="40.170288" xml:space="preserve" y="659.27051"><tspan id="tspan4519" stroke-width=".80000001" x="40.170288" y="659.27051">NH00</tspan></text><rect id="rect4165" fill="#fff" fill-rule="evenodd" height="18" stroke="#000" stroke-linecap="square" width="100" y="619.39996"/><text id="textBottom" font-family="sans-serif" font-size="6.25" font-weight="bold" letter-spacing="0" line-height="125%" word-spacing="0" x="25.783419" xml:space="preserve" y="634.26245"><tspan id="tspan4169" font-family="ABBvoice" font-size="17.5" font-weight="bold" stroke-width=".80000001" x="25.783419" y="634.26245">NH00</tspan></text></g><g id="description" stroke-width=".80000001"><rect id="breaker-2" fill="#f00" fill-rule="evenodd" height="20" stroke="#000" stroke-linecap="square" width="50" x="25" y="-.00001221"/><text id="text4456" font-family="sans-serif" font-size="6.25" font-weight="bold" letter-spacing="0" line-height="125%" word-spacing="0" x="34.060669" xml:space="preserve" y="7.8195066"><tspan id="tspan4162" stroke-width=".80000001" x="34.060669" y="7.8195066">Woehner </tspan><tspan id="tspan4164" stroke-width=".80000001" x="34.060669" y="15.632007">Quadron</tspan></text></g><text id="pointText" font-family="sans-serif" font-size="20.10723305" letter-spacing="0" line-height="125%" stroke-width=".79998714" transform="matrix(0 1.1489815 -.87033601 0 0 0)" word-spacing="0" x="234.99762" xml:space="preserve" y="-50.26738"><tspan id="tspan4155" stroke-width=".79998714" x="234.99762" y="-50.26738">Text</tspan></text></g></svg>