<svg id="svg2" height="662.79999" overflow="visible" viewBox="0 0 50.799999 662.79999" width="50.799999" xmlns="http://www.w3.org/2000/svg"><g id="layer1" stroke-width=".80000001"><g id="breaker" stroke="#000" stroke-linecap="square"><rect id="breakerRect" fill="#fff" fill-rule="evenodd" height="662" width="50" x=".00000001" y="-.00002441"/><rect id="rectTop" fill="#09b8d7" height="140" ry="10" width="35" x="7.5" y="29.999977"/><rect id="rectMiddle" fill="#09b8d7" height="140" ry="10" width="35" x="7.5" y="209.99997"/><rect id="rectBottom" fill="#09b8d7" height="140" ry="10" width="35" x="7.5" y="390"/></g><g id="middleHoles" stroke="#000" stroke-linecap="square"><circle id="circle3" cx="25" cy="47.999977" r="4"/><circle id="circle4" cx="25" cy="151.99997" r="4"/><circle id="circle1" cx="25" cy="227.99997" r="4"/><circle id="circle2" cx="25" cy="332" r="4"/><circle id="circle5" cx="25" cy="408" r="4"/><circle id="circle6" cx="25" cy="512" r="4"/></g><rect id="gripRight" fill="#c0c0c0" height="550" stroke="#000" stroke-linecap="square" width="4.8000002" x="44.200001" y="64.999969"/><g id="grip" fill="#c0c0c0" stroke="#000" stroke-linecap="square"><rect id="gripLeft" height="550" width="4.8000002" x="1" y="64.999969"/><rect id="gripTop" height="18" width="48" x="1" y="64.999969"/><rect id="gripMiddle" height="18" width="48" x="1" y="244.99997"/><rect id="gripBottom" height="18" width="48" x="1" y="425"/></g><g id="fuseSize"><rect id="breaker-2-5" fill="#fff" fill-rule="evenodd" height="10" stroke="#000" stroke-linecap="square" width="50" x=".00000001" y="652"/><text id="fuseText" font-family="sans-serif" font-size="6.25" font-weight="bold" letter-spacing="0" line-height="125%" word-spacing="0" x="15.170288" xml:space="preserve" y="659.27051"><tspan id="tspan4519" stroke-width=".80000001" x="15.170288" y="659.27051">NH00</tspan></text><rect id="rect4165" fill="#fff" fill-rule="evenodd" height="18" stroke="#000" stroke-linecap="square" width="50" x=".00000001" y="619.39996"/><text id="textBottom" font-family="sans-serif" font-size="6.25" font-weight="bold" letter-spacing="0" line-height="125%" word-spacing="0" x=".783418" xml:space="preserve" y="634.26245"><tspan id="tspan4169" font-family="ABBvoice" font-size="17.5" font-weight="bold" stroke-width=".80000001" x=".783418" y="634.26245">NH00</tspan></text></g><g id="description"><rect id="breaker-2" fill="#f00" fill-rule="evenodd" height="20" stroke="#000" stroke-linecap="square" width="50" x=".00000001" y="-.00002441"/><text id="text4456" font-family="sans-serif" font-size="6.25" font-weight="bold" letter-spacing="0" line-height="125%" word-spacing="0" x="9.0606689" xml:space="preserve" y="7.8194942"><tspan id="tspan4162" stroke-width=".80000001" x="9.0606689" y="7.8194942">Woehner </tspan><tspan id="tspan4164" stroke-width=".80000001" x="9.0606689" y="15.631995">Quadron</tspan></text></g><text id="pointText" font-family="sans-serif" font-size="20.10723305" letter-spacing="0" line-height="125%" transform="matrix(0 1.1489815 -.87033603 0 0 0)" word-spacing="0" x="235.86795" xml:space="preserve" y="-21.542683"><tspan id="tspan4155" stroke-width=".80000001" x="235.86795" y="-21.542683">Text</tspan></text></g></svg>