<svg id="svg2" height="660.40002" overflow="visible" viewBox="0 0 241.00002 660.40002" width="241.00002" xmlns="http://www.w3.org/2000/svg"><g id="layer1" stroke="#000"><g id="topConnection"><rect id="L3T" fill="#c6782e" fill-rule="evenodd" height="334.89999" stroke-linecap="square" stroke-width=".99999928" width="60" x="180.00002" y="134.89996"/><path id="L3_Top" d="m180.00002 154.90002h60v10.00001h-60z" fill="#c6782e" fill-rule="evenodd" stroke-linecap="square" stroke-width=".99999923"/><path id="rect6238" d="m180.00002 134.90002h60v10.00001h-60z" fill="#c6782e" fill-rule="evenodd" stroke-linecap="square" stroke-width=".99999923"/><rect id="rect6242" fill="#c6782e" fill-rule="evenodd" height="149.89999" stroke-linecap="square" stroke-width=".99999928" width="60" x="90.000023" y="134.89996"/><path id="rect6244" d="m90.000023 154.90002h59.999997v10.00001h-59.999997z" fill="#c6782e" fill-rule="evenodd" stroke-linecap="square" stroke-width=".99999923"/><path id="rect6246" d="m90.000023 134.90002h59.999997v10.00001h-59.999997z" fill="#c6782e" fill-rule="evenodd" stroke-linecap="square" stroke-width=".99999923"/><rect id="rect6250" fill="#c6782e" fill-rule="evenodd" height="164.90001" stroke-linecap="square" stroke-width=".99999923" width="60"/><path id="rect6252" d="m .00000474 154.90002h60.00000026v10.00001h-60.00000026z" fill="#c6782e" fill-rule="evenodd" stroke-linecap="square" stroke-width=".99999923"/><path id="rect6254" d="m .00000474 134.90002h60.00000026v10.00001h-60.00000026z" fill="#c6782e" fill-rule="evenodd" stroke-linecap="square" stroke-width=".99999923"/><circle id="b17" cx="210.00002" cy="419.90002" fill="#e0e0e0" overflow="visible" r="12.104626" stroke-linecap="round" stroke-linejoin="round" stroke-width=".79074889"/><path id="b4" d="m42.10463 49.900036a12.104626 12.104626 0 0 1 -12.104626 12.104626 12.104626 12.104626 0 0 1 -12.104626-12.104626 12.104626 12.104626 0 0 1  12.104626-12.104626 12.104626 12.104626 0 0 1  12.104626 12.104626z" fill="#e0e0e0" overflow="visible" stroke-linecap="round" stroke-linejoin="round" stroke-width=".79074889"/><path id="b5" d="m17.500004 114.89997h25v8h-25z" fill="#e0e0e0" stroke-linecap="round"/><path id="b11" d="m107.50001 114.89997h25v8h-25z" fill="#e0e0e0" stroke-linecap="round"/><path id="b16" d="m197.49998 114.89997h25v8h-25z" fill="#e0e0e0" stroke-linecap="round"/><circle id="circle6248" cx="120.00002" cy="234.90002" fill="#e0e0e0" overflow="visible" r="12.104626" stroke-linecap="round" stroke-linejoin="round" stroke-width=".79074889"/><rect id="bar1" fill="#c0c0c0" height="10" width="240" x=".00000474" y="123.89999"/></g><g id="bottomConnection"><rect id="rect6398" fill="#c0c0c0" height="34" stroke-width=".99999982" width="240.00002" x=".00000474" y="407.90002"/><rect id="rect6337" fill="#c6782e" fill-rule="evenodd" height="334.89999" stroke-linecap="square" stroke-width=".99999928" width="60" x="180.00002" y="324.50003"/><path id="rect6339" d="m180.00002 344.50009h60v10h-60z" fill="#c6782e" fill-rule="evenodd" stroke-linecap="square" stroke-width=".99999923"/><path id="rect6341" d="m180.00002 324.50009h60v10h-60z" fill="#c6782e" fill-rule="evenodd" stroke-linecap="square" stroke-width=".99999923"/><rect id="rect6345" fill="#c6782e" fill-rule="evenodd" height="334.89999" stroke-linecap="square" stroke-width=".99999928" width="60" x="90.000023" y="324.50003"/><path id="rect6347" d="m90.000023 344.50009h59.999997v10h-59.999997z" fill="#c6782e" fill-rule="evenodd" stroke-linecap="square" stroke-width=".99999923"/><path id="rect6349" d="m90.000023 324.50009h59.999997v10h-59.999997z" fill="#c6782e" fill-rule="evenodd" stroke-linecap="square" stroke-width=".99999923"/><path id="circle6343" d="m222.10464 609.50012a12.104626 12.104626 0 0 1 -12.10462 12.10463 12.104626 12.104626 0 0 1 -12.10463-12.10463 12.104626 12.104626 0 0 1  12.10463-12.10462 12.104626 12.104626 0 0 1  12.10462 12.10462z" fill="#e0e0e0" overflow="visible" stroke-linecap="round" stroke-linejoin="round" stroke-width=".79074889"/><path id="circle6351" d="m132.10465 609.50012a12.104626 12.104626 0 0 1 -12.10463 12.10463 12.104626 12.104626 0 0 1 -12.10462-12.10463 12.104626 12.104626 0 0 1  12.10462-12.10462 12.104626 12.104626 0 0 1  12.10463 12.10462z" fill="#e0e0e0" overflow="visible" stroke-linecap="round" stroke-linejoin="round" stroke-width=".79074889"/><rect id="rect6384" fill="#c6782e" fill-rule="evenodd" height="334.89999" stroke-linecap="square" stroke-width=".99999928" width="60" y="324.50003"/><path id="rect6386" d="m .00000474 344.50009h60.00000026v10h-60.00000026z" fill="#c6782e" fill-rule="evenodd" stroke-linecap="square" stroke-width=".99999923"/><path id="rect6388" d="m .00000474 324.50009h60.00000026v10h-60.00000026z" fill="#c6782e" fill-rule="evenodd" stroke-linecap="square" stroke-width=".99999923"/><path id="circle6390" d="m42.10463 609.50012a12.104626 12.104626 0 0 1 -12.104626 12.10463 12.104626 12.104626 0 0 1 -12.104626-12.10463 12.104626 12.104626 0 0 1  12.104626-12.10462 12.104626 12.104626 0 0 1  12.104626 12.10462z" fill="#e0e0e0" overflow="visible" stroke-linecap="round" stroke-linejoin="round" stroke-width=".79074889"/><path id="circle6392" d="m222.10464 424.90002a12.104626 12.104626 0 0 1 -12.10462 12.10463 12.104626 12.104626 0 0 1 -12.10463-12.10463 12.104626 12.104626 0 0 1  12.10463-12.10462 12.104626 12.104626 0 0 1  12.10462 12.10462z" fill="#e0e0e0" overflow="visible" stroke-linecap="round" stroke-linejoin="round" stroke-width=".79074889"/><path id="circle6396" d="m42.104626 424.90002a12.104626 12.104626 0 0 1 -12.104626 12.10463 12.104626 12.104626 0 0 1 -12.104626-12.10463 12.104626 12.104626 0 0 1  12.104626-12.10462 12.104626 12.104626 0 0 1  12.104626 12.10462z" fill="#e0e0e0" overflow="visible" stroke-linecap="round" stroke-linejoin="round" stroke-width=".79074889"/><path id="circle6394" d="m132.10465 424.90002a12.104626 12.104626 0 0 1 -12.10463 12.10463 12.104626 12.104626 0 0 1 -12.10462-12.10463 12.104626 12.104626 0 0 1  12.10462-12.10462 12.104626 12.104626 0 0 1  12.10463 12.10462z" fill="#e0e0e0" overflow="visible" stroke-linecap="round" stroke-linejoin="round" stroke-width=".79074889"/></g></g></svg>