<svg id="svg2" height="925.00006" overflow="visible" viewBox="0 0 241.00002 925.00006" width="241.00002" xmlns="http://www.w3.org/2000/svg"><g id="layer1"><g id="couplerConnection"><g id="line1" fill="#c6782e" fill-rule="evenodd"><rect id="L13" height="600" width="60" x=".00000037" y="162"/><rect id="L14" height="240.00002" stroke="#000" stroke-linecap="square" width="60" x=".00000037" y="522.00018"/><rect id="L15" height="240" stroke="#000" stroke-linecap="square" width="60" x=".00000037" y="162"/></g><g id="line2" fill="#c6782e" fill-rule="evenodd"><rect id="L23" height="300" width="60" x="90.000008" y="162"/><rect id="L24" height="300" width="60" x="90.000008" y="462"/><rect id="L25" height="240.00002" stroke="#000" stroke-linecap="square" width="60" x="90.000008" y="522.00018"/><rect id="L26" height="240" stroke="#000" stroke-linecap="square" width="60" x="90.000008" y="162"/></g><g id="line3" fill="#c6782e" fill-rule="evenodd"><rect id="L33" height="600" width="60" x="180.5" y="162.00003"/><rect id="L34" height="240.00002" stroke="#000" stroke-linecap="square" width="60" x="179.99997" y="522.00018"/><rect id="L35" height="240" stroke="#000" stroke-linecap="square" width="60" x="180" y="162.00003"/></g><g id="bolt1" fill="#e0e0e0" stroke="#000" stroke-linecap="round"><ellipse id="b13" cx="30" cy="732.50482" overflow="visible" rx="9.6000004" ry="9.5999947" stroke-linejoin="round" stroke-width=".79999995"/><ellipse id="b14" cx="30" cy="549.00006" overflow="visible" rx="9.6000004" ry="9.5999947" stroke-linejoin="round" stroke-width=".79999995"/><circle id="b15" cx="30" cy="191.50006" overflow="visible" r="9.6046257" stroke-linejoin="round" stroke-width=".79074889"/><circle id="b16" cx="30" cy="375.00003" overflow="visible" r="9.6046257" stroke-linejoin="round" stroke-width=".79074889"/><rect id="b17" height="8" width="20" x="20" y="142"/><rect id="b18" height="8" width="20" x="20" y="774.00031"/></g><g id="bolt2" fill="#e0e0e0" stroke="#000" stroke-linecap="round"><ellipse id="b23" cx="120.00001" cy="732.50482" overflow="visible" rx="9.6000004" ry="9.5999947" stroke-linejoin="round" stroke-width=".79999995"/><ellipse id="b24" cx="120.00001" cy="549.00006" overflow="visible" rx="9.6000004" ry="9.5999947" stroke-linejoin="round" stroke-width=".79999995"/><circle id="b25" cx="120.00001" cy="191.50006" overflow="visible" r="9.6046257" stroke-linejoin="round" stroke-width=".79074889"/><circle id="b26" cx="120.00001" cy="375.00003" overflow="visible" r="9.6046257" stroke-linejoin="round" stroke-width=".79074889"/><rect id="b27" height="8" width="20" x="110.00001" y="142"/><rect id="b28" height="8" width="20" x="110.00001" y="774.00031"/></g><g id="bolt3" fill="#e0e0e0" stroke="#000" stroke-linecap="round"><ellipse id="b33" cx="209.99997" cy="732.50482" overflow="visible" rx="9.6000004" ry="9.5999994" stroke-linejoin="round" stroke-width=".79999995"/><ellipse id="b34" cx="209.99997" cy="549.00006" overflow="visible" rx="9.6000004" ry="9.5999947" stroke-linejoin="round" stroke-width=".79999995"/><circle id="b35" cx="210" cy="191.50006" overflow="visible" r="9.6046257" stroke-linejoin="round" stroke-width=".79074889"/><circle id="b36" cx="210" cy="375.00003" overflow="visible" r="9.6046257" stroke-linejoin="round" stroke-width=".79074889"/><rect id="b37" height="8" width="20" x="200" y="142"/><rect id="b38" height="8" width="20" x="199.99997" y="774.00031"/></g><rect id="bar1" fill="#c0c0c0" height="10" stroke="#000" width="240" x=".00000037" y="151"/><rect id="bar2" fill="#c0c0c0" height="10" stroke="#000" stroke-width=".99999982" width="240.00002" x=".00000037" y="763.00031"/></g><g id="BC_connectionTOP"><g id="line11" fill="#c6782e"><rect id="rect4188" height="150" stroke="#000" width="60" y=".00003048"/><rect id="rect4192" fill-rule="evenodd" height="600" width="60" x=".00000037" y="162"/><rect id="rect4194" fill-rule="evenodd" height="240.00002" stroke="#000" stroke-linecap="square" width="60" x=".00000037" y="522.00018"/><rect id="rect4196" fill-rule="evenodd" height="240" stroke="#000" stroke-linecap="square" width="60" x=".00000037" y="162"/></g><g id="line21" fill="#c6782e"><rect id="rect4200" height="150" stroke="#000" width="60" x="90" y=".00002667"/><rect id="rect4206" fill-rule="evenodd" height="300" width="60" x="90.000008" y="462"/><rect id="rect4208" fill-rule="evenodd" height="240.00002" stroke="#000" stroke-linecap="square" width="60" x="90.000008" y="522.00018"/><rect id="rect4210" fill-rule="evenodd" height="240" stroke="#000" stroke-linecap="square" width="60" x="90.000008" y="162"/></g><g id="line31" fill="#c6782e" stroke="#000"><rect id="rect4214" height="150" width="60" x="180" y=".00003048"/><rect id="rect4220" fill-rule="evenodd" height="240.00002" stroke-linecap="square" width="60" x="179.99997" y="522.00018"/><rect id="rect4222" fill-rule="evenodd" height="240" stroke-linecap="square" width="60" x="180" y="162.00003"/></g><g id="bolt11" fill="#e0e0e0" stroke="#000" stroke-linecap="round"><circle id="circle4226" cx="30" cy="25.10006" fill-rule="evenodd" r="9.6000004" stroke-linejoin="round" stroke-width=".79999995"/><ellipse id="ellipse4230" cx="30" cy="732.50482" overflow="visible" rx="9.6000004" ry="9.5999947" stroke-linejoin="round" stroke-width=".79999995"/><ellipse id="ellipse4232" cx="30" cy="549.00006" overflow="visible" rx="9.6000004" ry="9.5999947" stroke-linejoin="round" stroke-width=".79999995"/><circle id="circle4234" cx="30" cy="191.50003" overflow="visible" r="9.6046257" stroke-linejoin="round" stroke-width=".79074889"/><circle id="circle4236" cx="30" cy="375.00003" overflow="visible" r="9.6046257" stroke-linejoin="round" stroke-width=".79074889"/><rect id="rect4238" height="8" width="20" x="20" y="142"/><rect id="rect4240" height="8" width="20" x="20" y="774.00031"/></g><g id="bolt21" fill="#e0e0e0" stroke="#000" stroke-linecap="round"><circle id="circle4244" cx="120" cy="25.10006" fill-rule="evenodd" r="9.6000004" stroke-linejoin="round" stroke-width=".79999995"/><ellipse id="ellipse4248" cx="120" cy="732.50482" overflow="visible" rx="9.6000004" ry="9.5999947" stroke-linejoin="round" stroke-width=".79999995"/><ellipse id="ellipse4250" cx="120" cy="549.00006" overflow="visible" rx="9.6000004" ry="9.5999947" stroke-linejoin="round" stroke-width=".79999995"/><circle id="circle4252" cx="120" cy="191.50003" overflow="visible" r="9.6046257" stroke-linejoin="round" stroke-width=".79074889"/><circle id="circle4254" cx="120" cy="375.00003" overflow="visible" r="9.6046257" stroke-linejoin="round" stroke-width=".79074889"/><rect id="rect4256" height="8" width="20" x="110" y="142"/><rect id="rect4258" height="8" width="20" x="110" y="774.00031"/></g><g id="bolt31" fill="#e0e0e0" stroke="#000" stroke-linecap="round"><circle id="circle4262" cx="210" cy="25.10006" fill-rule="evenodd" r="9.6000004" stroke-linejoin="round" stroke-width=".79999995"/><ellipse id="ellipse4266" cx="210" cy="732.50482" overflow="visible" rx="9.6000004" ry="9.5999994" stroke-linejoin="round" stroke-width=".79999995"/><ellipse id="ellipse4268" cx="210" cy="549.00006" overflow="visible" rx="9.6000004" ry="9.5999947" stroke-linejoin="round" stroke-width=".79999995"/><circle id="circle4270" cx="210" cy="191.50003" overflow="visible" r="9.6046257" stroke-linejoin="round" stroke-width=".79074889"/><circle id="circle4272" cx="210" cy="375.00003" overflow="visible" r="9.6046257" stroke-linejoin="round" stroke-width=".79074889"/><rect id="rect4274" height="8" width="20" x="200" y="142"/><rect id="rect4276" height="8" width="20" x="200" y="774.00031"/></g><rect id="bar11" fill="#c0c0c0" height="10" stroke="#000" width="240" x=".00000037" y="151"/><rect id="bar21" fill="#c0c0c0" height="10" stroke="#000" stroke-width=".99999982" width="240.00002" x=".00000037" y="763.00031"/></g><g id="BC_connectionBOTTOM"><g id="line12" fill="#c6782e" stroke="#000"><rect id="rect4288" height="150" width="60" y="774.00006"/><rect id="rect4292" fill-rule="evenodd" height="240.00002" stroke-linecap="square" width="60" x=".00000037" y="522.00018"/><rect id="rect4294" fill-rule="evenodd" height="240" stroke-linecap="square" width="60" x=".00000037" y="162"/></g><g id="line22" fill="#c6782e"><rect id="rect4300" height="150" stroke="#000" width="60" x="90" y="774.00006"/><rect id="rect4302" fill-rule="evenodd" height="300" width="60" x="90.000008" y="162"/><rect id="rect4306" fill-rule="evenodd" height="240.00002" stroke="#000" stroke-linecap="square" width="60" x="90.000008" y="522.00018"/><rect id="rect4308" fill-rule="evenodd" height="240" stroke="#000" stroke-linecap="square" width="60" x="90.000008" y="162"/></g><g id="line32" fill="#c6782e"><rect id="rect4314" height="150" stroke="#000" width="60" x="180" y="774.00006"/><rect id="rect4316" fill-rule="evenodd" height="600" width="60" x="180.5" y="162.00003"/><rect id="rect4318" fill-rule="evenodd" height="240.00002" stroke="#000" stroke-linecap="square" width="60" x="179.99997" y="522.00018"/><rect id="rect4320" fill-rule="evenodd" height="240" stroke="#000" stroke-linecap="square" width="60" x="180" y="162.00003"/></g><g id="bolt12" fill="#e0e0e0" stroke="#000" stroke-linecap="round"><circle id="circle4326" cx="30" cy="899.00006" fill-rule="evenodd" r="9.6000004" stroke-linejoin="round" stroke-width=".80000001"/><ellipse id="ellipse4328" cx="30" cy="732.50482" overflow="visible" rx="9.6000051" ry="9.6000004" stroke-linejoin="round" stroke-width=".80000001"/><ellipse id="ellipse4330" cx="30" cy="549.00006" overflow="visible" rx="9.6000004" ry="9.5999947" stroke-linejoin="round" stroke-width=".79999995"/><circle id="circle4332" cx="30" cy="191.50003" overflow="visible" r="9.6046257" stroke-linejoin="round" stroke-width=".79074889"/><circle id="circle4334" cx="30" cy="375.00003" overflow="visible" r="9.6046257" stroke-linejoin="round" stroke-width=".79074889"/><rect id="rect4336" height="8" width="20" x="20" y="142"/><rect id="rect4338" height="8" width="20" x="20" y="774.00031"/></g><g id="bolt22" fill="#e0e0e0" stroke="#000" stroke-linecap="round"><circle id="circle4344" cx="120" cy="899.00006" fill-rule="evenodd" r="9.6000004" stroke-linejoin="round" stroke-width=".80000001"/><ellipse id="ellipse4346" cx="120" cy="732.50482" overflow="visible" rx="9.6000051" ry="9.6000004" stroke-linejoin="round" stroke-width=".80000001"/><ellipse id="ellipse4348" cx="120" cy="549.00006" overflow="visible" rx="9.6000004" ry="9.5999947" stroke-linejoin="round" stroke-width=".79999995"/><circle id="circle4350" cx="120" cy="191.50003" overflow="visible" r="9.6046257" stroke-linejoin="round" stroke-width=".79074889"/><circle id="circle4352" cx="120" cy="375.00003" overflow="visible" r="9.6046257" stroke-linejoin="round" stroke-width=".79074889"/><rect id="rect4354" height="8" width="20" x="110" y="142"/><rect id="rect4356" height="8" width="20" x="110" y="774.00031"/></g><g id="bolt32" fill="#e0e0e0" stroke="#000" stroke-linecap="round"><circle id="circle4362" cx="210" cy="899.00006" fill-rule="evenodd" r="9.6000004" stroke-linejoin="round" stroke-width=".79999995"/><ellipse id="ellipse4364" cx="209.99997" cy="732.50482" overflow="visible" rx="9.6000004" ry="9.5999994" stroke-linejoin="round" stroke-width=".79999995"/><ellipse id="ellipse4366" cx="209.99997" cy="549.00006" overflow="visible" rx="9.6000051" ry="9.6000004" stroke-linejoin="round" stroke-width=".80000001"/><circle id="circle4368" cx="210" cy="191.50003" overflow="visible" r="9.6046257" stroke-linejoin="round" stroke-width=".79074889"/><circle id="circle4370" cx="210" cy="375.00003" overflow="visible" r="9.6046257" stroke-linejoin="round" stroke-width=".79074889"/><rect id="rect4372" height="8" width="20" x="200" y="142"/><rect id="rect4374" height="8" width="20" x="200" y="774.00031"/></g><rect id="bar12" fill="#c0c0c0" height="10" stroke="#000" width="240" x=".00000037" y="151"/><rect id="bar22" fill="#c0c0c0" height="10" stroke="#000" stroke-width=".99999982" width="240.00002" x=".00000037" y="763.00031"/></g><g id="BC_connectionTOP_NO_TBB"><g id="line13" fill="#c6782e" fill-rule="evenodd"><rect id="rect4388" height="509.60001" width="60" x=".00000037" y="252.39999"/><rect id="rect4390" height="240.00002" stroke="#000" stroke-linecap="square" width="60" x=".00000037" y="522.00018"/></g><g id="line23" fill="#c6782e" fill-rule="evenodd"><rect id="rect4402" height="300" width="60" x="90.000008" y="462"/><rect id="rect4404" height="240.00002" stroke="#000" stroke-linecap="square" width="60" x="90.000008" y="522.00018"/></g><g id="line33" fill="#c6782e" fill-rule="evenodd" stroke="#000" stroke-linecap="square"><rect id="rect4416" height="240.00002" width="60" x="179.99997" y="522.00018"/></g><g id="bolt13" fill="#e0e0e0" stroke="#000" stroke-linecap="round"><ellipse id="ellipse4426" cx="30" cy="732.50482" overflow="visible" rx="9.6000004" ry="9.5999947" stroke-linejoin="round" stroke-width=".79999995"/><ellipse id="ellipse4428" cx="30" cy="549.00006" overflow="visible" rx="9.6000004" ry="9.5999994" stroke-linejoin="round" stroke-width=".79999995"/><rect id="rect4436" height="8" width="20" x="20" y="774.00031"/></g><g id="bolt23" fill="#e0e0e0" stroke="#000" stroke-linecap="round"><ellipse id="ellipse4444" cx="120.00001" cy="732.50482" overflow="visible" rx="9.6000004" ry="9.5999947" stroke-linejoin="round" stroke-width=".79999995"/><ellipse id="ellipse4446" cx="120.00001" cy="549.00006" overflow="visible" rx="9.6000004" ry="9.5999947" stroke-linejoin="round" stroke-width=".79999995"/><rect id="rect4454" height="8" width="20" x="110.00001" y="774.00031"/></g><g id="bolt33" fill="#e0e0e0" stroke="#000" stroke-linecap="round"><circle id="ellipse4462" cx="209.99997" cy="732.50482" overflow="visible" r="9.6000004" stroke-linejoin="round" stroke-width=".80000001"/><ellipse id="ellipse4464" cx="209.99997" cy="549.00006" overflow="visible" rx="9.6000004" ry="9.5999947" stroke-linejoin="round" stroke-width=".79999995"/><rect id="rect4472" height="8" width="20" x="199.99997" y="774.00031"/></g><rect id="bar23" fill="#c0c0c0" height="10" stroke="#000" stroke-width=".99999982" width="240.00002" x=".00000037" y="763.00031"/></g><g id="BC_connectionBOTTOM_NO_TBB"><g id="line14" fill="#c6782e" fill-rule="evenodd" stroke="#000" stroke-linecap="square"><rect id="rect4490" height="240" width="60" x=".00000037" y="162"/></g><g id="line24" fill="#c6782e" fill-rule="evenodd"><rect id="rect4498" height="300" width="60" x="90.000008" y="162"/><rect id="rect4504" height="240" stroke="#000" stroke-linecap="square" width="60" x="90.000008" y="162"/></g><g id="line34" fill="#c6782e" fill-rule="evenodd"><rect id="rect4512" height="509.60001" width="60" x="180.5" y="162.00003"/><rect id="rect4516" height="240" stroke="#000" stroke-linecap="square" width="60" x="180" y="162.00003"/></g><g id="bolt14" fill="#e0e0e0" stroke="#000" stroke-linecap="round"><circle id="circle4528" cx="30" cy="191.50003" overflow="visible" r="9.6046257" stroke-linejoin="round" stroke-width=".79074889"/><circle id="circle4530" cx="30" cy="375.00003" overflow="visible" r="9.6046257" stroke-linejoin="round" stroke-width=".79074889"/><rect id="rect4532" height="8" width="20" x="20" y="142"/></g><g id="bolt24" fill="#e0e0e0" stroke="#000" stroke-linecap="round"><circle id="circle4546" cx="120.00001" cy="191.50003" overflow="visible" r="9.6046257" stroke-linejoin="round" stroke-width=".79074889"/><circle id="circle4548" cx="120.00001" cy="375.00003" overflow="visible" r="9.6046257" stroke-linejoin="round" stroke-width=".79074889"/><rect id="rect4550" height="8" width="20" x="110.00001" y="142"/></g><g id="bolt34" fill="#e0e0e0" stroke="#000" stroke-linecap="round"><circle id="circle4564" cx="210" cy="191.50003" overflow="visible" r="9.6046257" stroke-linejoin="round" stroke-width=".79074889"/><circle id="circle4566" cx="210" cy="375.00003" overflow="visible" r="9.6046257" stroke-linejoin="round" stroke-width=".79074889"/><rect id="rect4568" height="8" width="20" x="200" y="142"/></g><rect id="bar14" fill="#c0c0c0" height="10" stroke="#000" width="240" x=".00000037" y="151"/></g><g id="BC_terminalsTOP" stroke="#000"><g id="line15" fill="#c6782e"><rect id="rect4188-3" height="150" width="60" y=".00003048"/><rect id="rect4196-7" fill-rule="evenodd" height="240" stroke-linecap="square" width="60" x=".00000037" y="162"/></g><g id="line25" fill="#c6782e"><rect id="rect4200-4" height="150" width="60" x="90" y=".00002667"/><rect id="rect4210-4" fill-rule="evenodd" height="240" stroke-linecap="square" width="60" x="90.000008" y="162"/></g><g id="line35" fill="#c6782e"><rect id="rect4214-9" height="150" width="60" x="180" y=".00003048"/><rect id="rect4222-0" fill-rule="evenodd" height="240" stroke-linecap="square" width="60" x="180" y="162.00003"/></g><g id="bolt15" fill="#e0e0e0" stroke-linecap="round"><circle id="circle4226-7" cx="30" cy="25.10006" fill-rule="evenodd" r="9.6000004" stroke-linejoin="round" stroke-width=".79999995"/><circle id="circle4234-0" cx="30" cy="191.50003" overflow="visible" r="9.6046257" stroke-linejoin="round" stroke-width=".79074889"/><circle id="circle4236-9" cx="30" cy="375.00003" overflow="visible" r="9.6046257" stroke-linejoin="round" stroke-width=".79074889"/><rect id="rect4238-0" height="8" width="20" x="20" y="142"/></g><g id="bolt25" fill="#e0e0e0" stroke-linecap="round"><circle id="circle4244-4" cx="120" cy="25.10006" fill-rule="evenodd" r="9.6000004" stroke-linejoin="round" stroke-width=".79999995"/><circle id="circle4252-2" cx="120" cy="191.50003" overflow="visible" r="9.6046257" stroke-linejoin="round" stroke-width=".79074889"/><circle id="circle4254-4" cx="120" cy="375.00003" overflow="visible" r="9.6046257" stroke-linejoin="round" stroke-width=".79074889"/><rect id="rect4256-6" height="8" width="20" x="110" y="142"/></g><g id="bolt35" fill="#e0e0e0" stroke-linecap="round"><circle id="circle4262-1" cx="210" cy="25.10006" fill-rule="evenodd" r="9.6000004" stroke-linejoin="round" stroke-width=".79999995"/><circle id="circle4270-9" cx="210" cy="191.50003" overflow="visible" r="9.6046257" stroke-linejoin="round" stroke-width=".79074889"/><circle id="circle4272-7" cx="210" cy="375.00003" overflow="visible" r="9.6046257" stroke-linejoin="round" stroke-width=".79074889"/><rect id="rect4274-8" height="8" width="20" x="200" y="142"/></g><rect id="bar15" fill="#c0c0c0" height="10" width="240" x=".00000037" y="151"/></g><g id="BC_terminalsBOTTOM" stroke="#000"><g id="line16" fill="#c6782e"><rect id="rect4288-0" height="150" width="60" y="774.00006"/><rect id="rect4292-2" fill-rule="evenodd" height="240.00002" stroke-linecap="square" width="60" x=".00000037" y="522.00018"/></g><g id="line26" fill="#c6782e"><rect id="rect4300-4" height="150" width="60" x="90" y="774.00006"/><rect id="rect4306-0" fill-rule="evenodd" height="240.00002" stroke-linecap="square" width="60" x="90.000008" y="522.00018"/></g><g id="line36" fill="#c6782e"><rect id="rect4314-5" height="150" width="60" x="180" y="774.00006"/><rect id="rect4318-2" fill-rule="evenodd" height="240.00002" stroke-linecap="square" width="60" x="179.99997" y="522.00018"/></g><g id="bolt16" fill="#e0e0e0" stroke-linecap="round"><circle id="circle4326-7" cx="30" cy="899.00006" fill-rule="evenodd" r="9.6000004" stroke-linejoin="round" stroke-width=".80000001"/><ellipse id="ellipse4328-3" cx="30" cy="732.50482" overflow="visible" rx="9.6000051" ry="9.6000004" stroke-linejoin="round" stroke-width=".80000001"/><ellipse id="ellipse4330-6" cx="30" cy="549.00006" overflow="visible" rx="9.6000004" ry="9.5999947" stroke-linejoin="round" stroke-width=".79999995"/><rect id="rect4338-4" height="8" width="20" x="20" y="774.00031"/></g><g id="bolt26" fill="#e0e0e0" stroke-linecap="round"><circle id="circle4344-0" cx="120" cy="899.00006" fill-rule="evenodd" r="9.6000004" stroke-linejoin="round" stroke-width=".80000001"/><ellipse id="ellipse4346-4" cx="120" cy="732.50482" overflow="visible" rx="9.6000051" ry="9.6000004" stroke-linejoin="round" stroke-width=".80000001"/><ellipse id="ellipse4348-2" cx="120" cy="549.00006" overflow="visible" rx="9.6000004" ry="9.5999947" stroke-linejoin="round" stroke-width=".79999995"/><rect id="rect4356-7" height="8" width="20" x="110" y="774.00031"/></g><g id="bolt36" fill="#e0e0e0" stroke-linecap="round"><circle id="circle4362-8" cx="210" cy="899.00006" fill-rule="evenodd" r="9.6000004" stroke-linejoin="round" stroke-width=".79999995"/><ellipse id="ellipse4364-0" cx="209.99997" cy="732.50482" overflow="visible" rx="9.6000004" ry="9.5999994" stroke-linejoin="round" stroke-width=".79999995"/><ellipse id="ellipse4366-3" cx="209.99997" cy="549.00006" overflow="visible" rx="9.6000051" ry="9.6000004" stroke-linejoin="round" stroke-width=".80000001"/><rect id="rect4374-6" height="8" width="20" x="200" y="774.00031"/></g><rect id="bar26" fill="#c0c0c0" height="10" stroke-width=".99999982" width="240.00002" x=".00000037" y="763.00031"/></g></g></svg>