<svg id="svg2" height="301" overflow="visible" viewBox="0 0 251 301" width="251" xmlns="http://www.w3.org/2000/svg"><g id="layer1"><path id="busbar" d="m32.099609 238.75v20h-32.099609v20h137.90039 20 10 20 10 20 32.09961v-20h-32.09961v-20h-20v20h-10v-20h-20v20h-10v-20h-20v20h-25.80078v-20h-20.000001v20h-10v-20h-20v20h-10v-20z" fill="#c6782e" stroke="#4d4d4d" stroke-linecap="round" stroke-linejoin="round" stroke-width=".5"/><path id="holder" d="m10 107.5c-5.54 0-10 4.46-10 10v65c0 5.54 4.46 10 10 10h230c5.54 0 10-4.46 10-10v-65c0-5.54-4.46-10-10-10zm20 32.5h80c2.77 0 5 2.22999 5 5v10c0 2.77-2.23 5-5 5h-80c-2.77 0-5-2.23-5-5v-10c0-2.77001 2.23-5 5-5zm110 0h80c2.77 0 5 2.22999 5 5v10c0 2.77-2.23 5-5 5h-80c-2.77 0-5-2.23-5-5v-10c0-2.77001 2.23-5 5-5z" fill="#e0e0e0" stroke="#000" stroke-linecap="round" stroke-width=".5"/><g id="edfLeftTop" fill-rule="evenodd"><rect id="rect4262" fill="#f00" height="14" stroke="#f00" stroke-linecap="round" stroke-linejoin="round" width="14" x="3" y="28"/><circle id="path4201" cx="10" cy="35" fill="#a00000" r="4.5" stroke="#a00000" stroke-linecap="square"/><rect id="rect4264" fill="#f00" height="10" stroke="#f00" stroke-linecap="square" stroke-linejoin="round" width="10" x="5" y="18"/><rect id="rect4197" fill="#c00000" height="6" stroke="#c00000" stroke-linecap="square" width="6" x="7" y="20"/><rect id="rect4266" fill="#f00" height="10" stroke="#f00" stroke-linecap="round" stroke-linejoin="round" width="10" x="5" y="42"/><rect id="rect4199" fill="#c00000" height="6" stroke="#c00000" stroke-linecap="square" width="6" x="7" y="44"/></g><g id="edfRightTop" fill-rule="evenodd"><rect id="rect4292" fill="#f00" height="14" stroke="#f00" stroke-linecap="round" stroke-linejoin="round" width="14" x="233" y="28"/><circle id="circle4294" cx="240" cy="35" fill="#a00000" r="4.5" stroke="#a00000" stroke-linecap="square"/><rect id="rect4296" fill="#f00" height="10" stroke="#f00" stroke-linecap="square" stroke-linejoin="round" width="10" x="235" y="18"/><rect id="rect4298" fill="#c00000" height="6" stroke="#c00000" stroke-linecap="square" width="6" x="237" y="20"/><rect id="rect4300" fill="#f00" height="10" stroke="#f00" stroke-linecap="round" stroke-linejoin="round" width="10" x="235" y="42"/><rect id="rect4302" fill="#c00000" height="6" stroke="#c00000" stroke-linecap="square" width="6" x="237" y="44"/></g><g id="edfRightBottom" fill-rule="evenodd"><rect id="rect4320" fill="#f00" height="14" stroke="#f00" stroke-linecap="round" stroke-linejoin="round" width="14" x="233" y="258"/><circle id="circle4322" cx="240" cy="265" fill="#a00000" r="4.5" stroke="#a00000" stroke-linecap="square"/><rect id="rect4324" fill="#f00" height="10" stroke="#f00" stroke-linecap="square" stroke-linejoin="round" width="10" x="235" y="248"/><rect id="rect4326" fill="#c00000" height="6" stroke="#c00000" stroke-linecap="square" width="6" x="237" y="250"/><rect id="rect4328" fill="#f00" height="10" stroke="#f00" stroke-linecap="round" stroke-linejoin="round" width="10" x="235" y="272"/><rect id="rect4330" fill="#c00000" height="6" stroke="#c00000" stroke-linecap="square" width="6" x="237" y="274"/></g><g id="edfLeftBottom" fill-rule="evenodd"><rect id="rect4334" fill="#f00" height="14" stroke="#f00" stroke-linecap="round" stroke-linejoin="round" width="14" x="3" y="258"/><circle id="circle4336" cx="10" cy="265" fill="#a00000" r="4.5" stroke="#a00000" stroke-linecap="square"/><rect id="rect4338" fill="#f00" height="10" stroke="#f00" stroke-linecap="square" stroke-linejoin="round" width="10" x="5" y="248"/><rect id="rect4340" fill="#c00000" height="6" stroke="#c00000" stroke-linecap="square" width="6" x="7" y="250"/><rect id="rect4342" fill="#f00" height="10" stroke="#f00" stroke-linecap="round" stroke-linejoin="round" width="10" x="5" y="272"/><rect id="rect4344" fill="#c00000" height="6" stroke="#c00000" stroke-linecap="square" width="6" x="7" y="274"/></g><path id="moduleFrame_x1" d="m0-.00000072v300.00000072h250v-300.00000072zm19.25 74.00000072h105.5v152h-105.5z" fill="#c5c7c4" fill-opacity=".8" fill-rule="evenodd" stroke="#000" stroke-linecap="square"/><path id="moduleFrame_x2" d="m0-.00000072v300.00000072h250v-300.00000072zm19.25 74.00000072h211.5v152h-211.5z" fill="#c5c7c4" fill-opacity=".8" fill-rule="evenodd" stroke="#000" stroke-linecap="square"/><g id="fittingLeftTop" fill="#c5c7c4" stroke="#000"><circle id="circle1" cx="10" cy="35" fill-rule="evenodd" r="4.5" stroke-linecap="square"/><rect id="rect4169" fill-rule="evenodd" height="7" stroke-linecap="square" stroke-width=".5" width="2" x="9" y="20"/><rect id="rect4171" fill-rule="evenodd" height="7" stroke-linecap="square" stroke-width=".5" width="2" x="9" y="43"/><path id="line4144" d="m13 35h-6m3-3v6"/></g><g id="fittingRightTop" fill="#c5c7c4" stroke="#000"><circle id="circle4154" cx="240" cy="35" fill-rule="evenodd" r="4.5" stroke-linecap="square"/><rect id="rect4158" fill-rule="evenodd" height="7" stroke-linecap="square" stroke-width=".5" width="2" x="239" y="20"/><rect id="rect4160" fill-rule="evenodd" height="7" stroke-linecap="square" stroke-width=".5" width="2" x="239" y="43"/><path id="line4162" d="m243 34.999999h-6m3-3v6"/></g><g id="fittingRightBottom" fill="#c5c7c4" stroke="#000"><circle id="circle4164" cx="240" cy="265" fill-rule="evenodd" r="4.5" stroke-linecap="square"/><rect id="rect4168" fill-rule="evenodd" height="7" stroke-linecap="square" stroke-width=".5" width="2" x="239" y="250"/><rect id="rect4170" fill-rule="evenodd" height="7" stroke-linecap="square" stroke-width=".5" width="2" x="239" y="273"/><path id="line4172" d="m243 265h-6m3-3v6"/></g><g id="fittingLeftBottom" fill="#c5c7c4" stroke="#000"><circle id="circle4174" cx="10" cy="265" fill-rule="evenodd" r="4.5" stroke-linecap="square"/><rect id="rect4178" fill-rule="evenodd" height="7" stroke-linecap="square" stroke-width=".5" width="2" x="9" y="250"/><rect id="rect4180" fill-rule="evenodd" height="7" stroke-linecap="square" stroke-width=".5" width="2" x="9" y="273"/><path id="line4182" d="m13 265h-6m3-3v6"/></g><path id="d300x250" d="m65.75.7499994a61.249594 19.499601 0 0 0 61.25 19.5000006 61.249594 19.499601 0 0 0  61.25-19.5000006zm61.25 279.0000006a61.249594 19.499601 0 0 0 -61.25 19.5h122.5a61.249594 19.499601 0 0 0 -61.25-19.5z" fill="none" stroke="#666" stroke-width="2.5"/><text id="textTop" font-family="sans-serif" font-size="20" letter-spacing="0" line-height="125%" text-anchor="middle" word-spacing="0" x="125.20996" xml:space="preserve" y="36.0411"><tspan id="tspan4155" x="125.20996" y="36.0411">Text</tspan></text><text id="textBottom" font-family="sans-serif" font-size="20" letter-spacing="0" line-height="125%" text-anchor="middle" word-spacing="0" x="125.20996" xml:space="preserve" y="278.24606"><tspan id="tspan4218" x="125.20996" y="278.24606">Text</tspan></text></g></svg>