<svg id="svg2" height="301" overflow="visible" viewBox="0 0 750.99998 301.00001" width="751" xmlns="http://www.w3.org/2000/svg"><g id="layer1"><g id="rail2" stroke="#000" stroke-linecap="square"><rect id="r1" fill="#e0e0e0" height="25" width="750" y="262.50006"/><rect id="r2" fill="#c0c0c0" height="19" width="750" y="265.50006"/></g><g id="rail1" stroke="#000" stroke-linecap="square"><rect id="r3" fill="#e0e0e0" height="25" width="750" y="12.49997"/><rect id="r4" fill="#c0c0c0" height="19" width="750" y="15.49997"/></g><rect id="L1" fill="#c6782e" height="30" stroke="#000" stroke-linecap="round" stroke-opacity=".2745098" stroke-width=".5" width="750" y="75"/><rect id="L2" fill="#c6782e" height="30" stroke="#000" stroke-linecap="round" stroke-opacity=".2745098" stroke-width=".5" width="750" y="135"/><rect id="L3" fill="#c6782e" height="30" stroke="#000" stroke-linecap="round" stroke-opacity=".2745098" stroke-width=".5" width="750" y="195"/><rect id="h1" fill="#666" height="180" stroke="#000" stroke-linecap="round" stroke-width=".5" width="25" y="60"/><rect id="h3" fill="#666" height="180" stroke="#000" stroke-linecap="round" stroke-width=".5" width="25" x="725" y="60"/><g id="h2" stroke="#000"><rect id="rect5210" fill="#c0c0c0" height="270" stroke-linecap="round" stroke-width=".49999988" width="28" x="361" y="15"/><rect id="rect5264" fill="#666" height="180" stroke-linecap="round" stroke-width=".5" width="25" x="362.5" y="60"/><circle id="circle4174-6" cx="375" cy="275.00006" fill="#fff" fill-rule="evenodd" r="3.5" stroke-linecap="square"/><line id="line4176-2" x1="375" x2="375" y1="273.00006" y2="277.00006"/><line id="line4182-8" x1="377" x2="373" y1="275.00006" y2="275.00006"/><circle id="circle5242" cx="375" cy="24.999969" fill="#fff" fill-rule="evenodd" r="3.5" stroke-linecap="square"/><line id="line5244" x1="375" x2="375" y1="22.999969" y2="26.999969"/><line id="line5246" x1="377" x2="373" y1="24.999969" y2="24.999969"/></g><g id="edfLeftTop" fill-rule="evenodd"><rect id="rect4262" fill="#f00" height="14" stroke="#f00" stroke-linecap="round" stroke-linejoin="round" width="14" x="3" y="28.00001"/><circle id="path4201" cx="10" cy="35.000011" fill="#a00000" r="4.5" stroke="#a00000" stroke-linecap="square"/><rect id="rect4264" fill="#f00" height="10" stroke="#f00" stroke-linecap="square" stroke-linejoin="round" width="10" x="5" y="18.00001"/><rect id="rect4197" fill="#c00000" height="6" stroke="#c00000" stroke-linecap="square" width="6" x="7" y="20.00001"/><rect id="rect4266" fill="#f00" height="10" stroke="#f00" stroke-linecap="round" stroke-linejoin="round" width="10" x="5" y="42.000011"/><rect id="rect4199" fill="#c00000" height="6" stroke="#c00000" stroke-linecap="square" width="6" x="7" y="44.000011"/></g><g id="edfRightTop" fill-rule="evenodd"><rect id="rect4292" fill="#f00" height="14" stroke="#f00" stroke-linecap="round" stroke-linejoin="round" width="14" x="733" y="28.00001"/><circle id="circle4294" cx="740" cy="35.000011" fill="#a00000" r="4.5" stroke="#a00000" stroke-linecap="square"/><rect id="rect4296" fill="#f00" height="10" stroke="#f00" stroke-linecap="square" stroke-linejoin="round" width="10" x="735" y="18.00001"/><rect id="rect4298" fill="#c00000" height="6" stroke="#c00000" stroke-linecap="square" width="6" x="737" y="20.00001"/><rect id="rect4300" fill="#f00" height="10" stroke="#f00" stroke-linecap="round" stroke-linejoin="round" width="10" x="735" y="42.000011"/><rect id="rect4302" fill="#c00000" height="6" stroke="#c00000" stroke-linecap="square" width="6" x="737" y="44.000011"/></g><g id="edfRightBottom" fill-rule="evenodd"><rect id="rect4320" fill="#f00" height="14" stroke="#f00" stroke-linecap="round" stroke-linejoin="round" width="14" x="733" y="258.00043"/><circle id="circle4322" cx="740" cy="265.00043" fill="#a00000" r="4.5" stroke="#a00000" stroke-linecap="square"/><rect id="rect4324" fill="#f00" height="10" stroke="#f00" stroke-linecap="square" stroke-linejoin="round" width="10" x="735" y="248.00044"/><rect id="rect4326" fill="#c00000" height="6" stroke="#c00000" stroke-linecap="square" width="6" x="737" y="250.00044"/><rect id="rect4328" fill="#f00" height="10" stroke="#f00" stroke-linecap="round" stroke-linejoin="round" width="10" x="735" y="272.00043"/><rect id="rect4330" fill="#c00000" height="6" stroke="#c00000" stroke-linecap="square" width="6" x="737" y="274.00043"/></g><g id="edfLeftBottom" fill-rule="evenodd"><rect id="rect4334" fill="#f00" height="14" stroke="#f00" stroke-linecap="round" stroke-linejoin="round" width="14" x="3" y="258.00043"/><circle id="circle4336" cx="10" cy="265.00043" fill="#a00000" r="4.5" stroke="#a00000" stroke-linecap="square"/><rect id="rect4338" fill="#f00" height="10" stroke="#f00" stroke-linecap="square" stroke-linejoin="round" width="10" x="5" y="248.00044"/><rect id="rect4340" fill="#c00000" height="6" stroke="#c00000" stroke-linecap="square" width="6" x="7" y="250.00044"/><rect id="rect4342" fill="#f00" height="10" stroke="#f00" stroke-linecap="round" stroke-linejoin="round" width="10" x="5" y="272.00043"/><rect id="rect4344" fill="#c00000" height="6" stroke="#c00000" stroke-linecap="square" width="6" x="7" y="274.00043"/></g><path id="frontPanel750" d="m0 0v300h750v-300zm32.25 52.5h320v195h-320zm365 0h320v195h-320z" fill="#c5c7c4" fill-opacity=".8" fill-rule="evenodd" stroke="#000" stroke-linecap="square"/><path id="frontPanel500" d="m0 0v300h500v-300zm32.25 52.5h374v195h-374z" fill="#c5c7c4" fill-opacity=".8" fill-rule="evenodd" stroke="#000" stroke-linecap="square"/><path id="frontPanel250" d="m0 0v300h250v-300zm32.25 52.5h134v195h-134z" fill="#c5c7c4" fill-opacity=".8" fill-rule="evenodd" stroke="#000" stroke-linecap="square"/><g id="fittingLeftTop" stroke="#000"><circle id="circle1" cx="10" cy="35.000011" fill="#c5c7c4" fill-rule="evenodd" r="4.5" stroke-linecap="square"/><line id="line1" x1="10" x2="10" y1="32.000011" y2="38.000011"/><rect id="rect4169" fill="#c5c7c4" fill-rule="evenodd" height="7" stroke-linecap="square" stroke-width=".5" width="2" x="9" y="20.00001"/><rect id="rect4171" fill="#c5c7c4" fill-rule="evenodd" height="7" stroke-linecap="square" stroke-width=".5" width="2" x="9" y="43.000011"/><line id="line4144" x1="13" x2="7" y1="35.000011" y2="35.000011"/></g><g id="fittingRightTop" fill="#c4c5c3" stroke="#000"><circle id="circle4154" cx="740" cy="35.000011" fill-rule="evenodd" r="4.5" stroke-linecap="square"/><line id="line4156" x1="740" x2="740" y1="32.000011" y2="38.000011"/><rect id="rect4158" fill-rule="evenodd" height="7" stroke-linecap="square" stroke-width=".5" width="2" x="739" y="20.00001"/><rect id="rect4160" fill-rule="evenodd" height="7" stroke-linecap="square" stroke-width=".5" width="2" x="739" y="43.000011"/><line id="line4162" x1="743" x2="737" y1="35.000011" y2="35.000011"/></g><g id="fittingRightBottom" fill="#c5c7c4" fill-opacity=".8" stroke="#000"><circle id="circle4164" cx="740" cy="265.00043" fill-opacity="1" fill-rule="evenodd" r="4.5" stroke-linecap="square"/><line id="line4166" fill-opacity=".8" x1="740" x2="740" y1="263.00043" y2="267.00043"/><rect id="rect4168" fill-opacity="1" fill-rule="evenodd" height="7" stroke-linecap="square" stroke-width=".5" width="2" x="739" y="250.00044"/><rect id="rect4170" fill-opacity="1" fill-rule="evenodd" height="7" stroke-linecap="square" stroke-width=".5" width="2" x="739" y="273.00043"/><line id="line4172" fill-opacity=".8" x1="742" x2="738" y1="265.00043" y2="265.00043"/></g><g id="fittingLeftBottom" stroke="#000"><circle id="circle4174" cx="10" cy="265.00043" fill="#c5c7c4" fill-rule="evenodd" r="4.5" stroke-linecap="square"/><line id="line4176" x1="10" x2="10" y1="262.00043" y2="268.00043"/><rect id="rect4178" fill="#c5c7c4" fill-rule="evenodd" height="7" stroke-linecap="square" stroke-width=".5" width="2" x="9" y="250.00044"/><rect id="rect4180" fill="#c5c7c4" fill-rule="evenodd" height="7" stroke-linecap="square" stroke-width=".5" width="2" x="9" y="273.00043"/><line id="line4182" x1="13" x2="7" y1="265.00043" y2="265.00043"/></g><path id="d750x300" d="m65.75.75001a61.249594 19.499601 0 0 0 61.25 19.5 61.249594 19.499601 0 0 0  61.25-19.5zm248 0a61.249588 19.499601 0 0 0 61.25 19.5 61.249588 19.499601 0 0 0  61.25-19.5zm248 0a61.249588 19.499601 0 0 0 61.25 19.5 61.249588 19.499601 0 0 0  61.25-19.5zm-434.75 279a61.249594 19.499601 0 0 0 -61.25 19.5h122.5a61.249594 19.499601 0 0 0 -61.25-19.5zm248 0a61.249588 19.499601 0 0 0 -61.25 19.5h122.5a61.249588 19.499601 0 0 0 -61.25-19.5zm248 0a61.249588 19.499601 0 0 0 -61.25 19.5h122.5a61.249588 19.499601 0 0 0 -61.25-19.5z" fill="none" stroke="#666" stroke-width="2.50000024"/><path id="d500x300" d="m65.75.75001a61.249594 19.499601 0 0 0 61.25 19.5 61.249594 19.499601 0 0 0  61.25-19.5zm248 0a61.249588 19.499601 0 0 0 61.25 19.5 61.249588 19.499601 0 0 0  61.25-19.5zm-186.75 279a61.249594 19.499601 0 0 0 -61.25 19.5h122.5a61.249594 19.499601 0 0 0 -61.25-19.5zm248 0a61.249588 19.499601 0 0 0 -61.25 19.5h122.5a61.249588 19.499601 0 0 0 -61.25-19.5z" fill="none" stroke="#666" stroke-width="2.50000024"/><path id="d250x300" d="m65.75.75001a61.249594 19.499601 0 0 0 61.25 19.5 61.249594 19.499601 0 0 0  61.25-19.5zm61.25 279a61.249594 19.499601 0 0 0 -61.25 19.5h122.5a61.249594 19.499601 0 0 0 -61.25-19.5z" fill="none" stroke="#666" stroke-width="2.50000024"/><text id="textTop" font-family="sans-serif" font-size="20" letter-spacing="0" line-height="125%" text-anchor="middle" word-spacing="0" x="375.20996" xml:space="preserve" y="36.0411"><tspan id="tspan4155" x="375.20996" y="36.0411">Text</tspan></text><text id="textBottom" font-family="sans-serif" font-size="20" letter-spacing="0" line-height="125%" text-anchor="middle" word-spacing="0" x="375.20996" xml:space="preserve" y="278.24609"><tspan id="tspan4219" x="375.20996" y="278.24609">Text</tspan></text><path id="partition1" d="m32.950001 52.750019h34v194.500001h-34zm33.999996 0h34.000003v194.500001h-34.000003zm34.000003 0h34v194.500001h-34zm34 0h31v194.500001h-31z" style="fill:#c5c7c4;fill-opacity:.8;stroke:#4d4d4d;stroke-width:.49999961;stroke-linecap:round;stroke-linejoin:round"/><path id="partition2" d="m165.95 52.750019h34v194.500001h-34zm34 0h34v194.500001h-34zm34 0h34v194.500001h-34zm33.99992 0h34v194.500001h-34zm34 0h34v194.500001h-34zm34 0h16v194.500001h-16z" style="fill:#c5c7c4;fill-opacity:.8;stroke:#4d4d4d;stroke-width:.49999961;stroke-linecap:round;stroke-linejoin:round"/><path id="partition3" d="m351.95004 52.750019h18v194.500001h-18zm17.99988 0h36v194.500001h-36z" style="fill:#c5c7c4;fill-opacity:.8;stroke:#4d4d4d;stroke-width:.5;stroke-linecap:round;stroke-linejoin:round"/><path id="partition4" d="m694.54999 52.750019h22.5v194.500001h-22.5zm-296.59995 0h33.6v194.500001h-33.6zm33.59995 0h34v194.500001h-34zm34 0h34v194.500001h-34zm34 0h34v194.500001h-34zm34.00049 0h34v194.500001h-34zm34 0h34v194.500001h-34zm34 0h34v194.500001h-34zm34 0h34v194.500001h-34zm34 0h25v194.500001h-25z" style="fill:#c5c7c4;fill-opacity:.8;stroke:#4d4d4d;stroke-width:.49999985;stroke-linecap:round;stroke-linejoin:round"/></g></svg>