<svg id="svg2" height="750" overflow="visible" viewBox="0 0 750 750" width="750" xmlns="http://www.w3.org/2000/svg"><g id="layer1"><g id="traverseTop" fill-rule="evenodd" stroke="#000"><rect id="R1t" fill="#e0e0e0" height="25" rx="5" stroke-linecap="round" stroke-width=".80000001" width="700" x="25" y="99.199997"/><circle id="circle5174" cx="39.700001" cy="105.55" fill="#b3b3b3" r="4.5" stroke-linecap="square" stroke-width=".5"/><path id="path5176" d="m40.854701 107.55h-2.309401l-1.154701-2 1.154701-2h2.309401l1.154701 2z" fill="#808080" stroke-linecap="round" stroke-width=".5"/><g id="boltT" stroke-width=".5"><circle id="circle5180" cx="710.29999" cy="106.2" fill="#b3b3b3" r="4.5" stroke-linecap="square"/><path id="path5182" d="m711.45468 108.2h-2.3094l-1.1547-2 1.1547-2h2.30941l1.1547 2z" fill="#808080" stroke-linecap="round"/></g><rect id="R2t" fill="#e0e0e0" height="30" rx="5" stroke-linecap="round" stroke-width=".80000001" width="700" x="25" y="74.900002"/><rect id="R3t" fill="#fff" height="5" ry="2" stroke-linecap="round" stroke-width=".80000001" width="625" x="60.900002" y="79.900002"/><circle id="c2t" cx="708.65002" cy="89.900002" fill="#fff" r="2.7" stroke-linecap="round" stroke-width=".80000001"/><circle id="c1t" cx="39.700001" cy="89.900002" fill="#fff" r="2.7" stroke-linecap="round" stroke-width=".80000001"/></g><g id="traverseBottom" fill-rule="evenodd" stroke="#000"><rect id="R1b" fill="#e0e0e0" height="25" rx="5" stroke-linecap="round" stroke-width=".80000001" width="700" x="25" y="625.79999"/><circle id="circle5174-0" cx="39.700001" cy="644.45001" fill="#b3b3b3" r="4.5" stroke-linecap="square" stroke-width=".5"/><path id="path5176-3" d="m40.854701 646.45001h-2.309401l-1.154701-2 1.154701-2h2.309401l1.154701 2z" fill="#808080" stroke-linecap="round" stroke-width=".5"/><g id="boltB" stroke-width=".5"><circle id="circle5333" cx="710.29999" cy="644.45001" fill="#b3b3b3" r="4.5" stroke-linecap="square"/><path id="path5335" d="m711.45468 646.45001h-2.3094l-1.1547-2 1.1547-2h2.30941l1.1547 2z" fill="#808080" stroke-linecap="round"/></g><rect id="R2b" fill="#e0e0e0" height="30" rx="5" stroke-linecap="round" stroke-width=".80000001" width="700" x="25" y="645.09998"/><rect id="R3b" fill="#fff" height="5" ry="2" stroke-linecap="round" stroke-width=".80000001" width="625" x="60.900002" y="665.09998"/><circle id="c2b" cx="710.29999" cy="660.09998" fill="#fff" r="2.7" stroke-linecap="round" stroke-width=".80000001"/><circle id="c1b" cx="39.700001" cy="660.09998" fill="#fff" r="2.7" stroke-linecap="round" stroke-width=".80000001"/></g><g id="traverseLeft" fill-rule="evenodd" stroke="#000"><rect id="rect4998" fill="#e0e0e0" height="500" rx="5" stroke-linecap="round" stroke-width=".80000001" width="50" y="125"/><g id="g4503"><circle id="circle5044" cx="37.5" cy="607.5" fill="#b3b3b3" r="7" stroke-linecap="square" stroke-width=".99999994"/><path id="path5046" d="m39.001111 610.1h-3.002222l-1.50111-2.6 1.50111-2.6h3.002222l1.50111 2.6z" fill="#808080" stroke-linecap="round" stroke-width=".79999995"/></g><g id="g4491"><circle id="circle1-4" cx="37.5" cy="142.5" fill="#b3b3b3" r="7" stroke-linecap="square" stroke-width=".99999994"/><path id="path5029" d="m39.001111 145.1h-3.002222l-1.50111-2.6 1.50111-2.6h3.002222l1.50111 2.6z" fill="#808080" stroke-linecap="round" stroke-width=".79999995"/></g><g id="g4485"><circle id="circle5038" cx="37.5" cy="162.5" fill="#b3b3b3" r="7" stroke-linecap="square" stroke-width=".99999994"/><path id="path5040" d="m39.001111 165.1h-3.002222l-1.50111-2.6 1.50111-2.6h3.002222l1.50111 2.6z" fill="#808080" stroke-linecap="round" stroke-width=".79999995"/></g><g id="g4497"><circle id="circle5050" cx="37.5" cy="587.5" fill="#b3b3b3" r="7" stroke-linecap="square" stroke-width=".99999994"/><path id="path5052" d="m39.001111 590.1h-3.002222l-1.50111-2.6 1.50111-2.6h3.002222l1.50111 2.6z" fill="#808080" stroke-linecap="round" stroke-width=".79999995"/></g></g><g id="traverseRight" fill-rule="evenodd" stroke="#000"><rect id="rect5142" fill="#e0e0e0" height="500" rx="5" stroke-linecap="round" stroke-width=".80000001" width="50" x="700.09998" y="125"/><g id="g4542"><circle id="circle5146" cx="712.59998" cy="607.5" fill="#b3b3b3" r="7" stroke-linecap="square" stroke-width=".99999994"/><path id="path5148" d="m714.10109 610.1h-3.00223l-1.50111-2.6 1.50112-2.6h3.00222l1.50111 2.6z" fill="#808080" stroke-linecap="round" stroke-width=".79999995"/></g><g id="g4530"><circle id="circle5152" cx="712.59998" cy="142.5" fill="#b3b3b3" r="7" stroke-linecap="square" stroke-width=".99999994"/><path id="path5154" d="m714.10109 145.1h-3.00223l-1.50111-2.6 1.50112-2.6h3.00222l1.50111 2.6z" fill="#808080" stroke-linecap="round" stroke-width=".79999995"/></g><g id="g4524"><circle id="circle5158" cx="712.59998" cy="162.5" fill="#b3b3b3" r="7" stroke-linecap="square" stroke-width=".99999994"/><path id="path5160" d="m714.10109 165.1h-3.00223l-1.50111-2.6 1.50112-2.6h3.00222l1.50111 2.6z" fill="#808080" stroke-linecap="round" stroke-width=".79999995"/></g><g id="g4536"><circle id="circle5164" cx="712.59998" cy="587.5" fill="#b3b3b3" r="7" stroke-linecap="square" stroke-width=".99999994"/><path id="path5166" d="m714.10109 590.1h-3.00223l-1.50111-2.6 1.50112-2.6h3.00222l1.50111 2.6z" fill="#808080" stroke-linecap="round" stroke-width=".79999995"/></g></g><g id="edfLeftTop" fill-rule="evenodd"><rect id="rect4262" fill="#f00" height="14" stroke="#f00" stroke-linecap="round" stroke-linejoin="round" width="14" x="3" y="28"/><circle id="path4201" cx="10" cy="35" fill="#a00000" r="4.5" stroke="#a00000" stroke-linecap="square"/><rect id="rect4264" fill="#f00" height="10" stroke="#f00" stroke-linecap="square" stroke-linejoin="round" width="10" x="5" y="18"/><rect id="rect4197" fill="#c00000" height="6" stroke="#c00000" stroke-linecap="square" width="6" x="7" y="20"/><rect id="rect4266" fill="#f00" height="10" stroke="#f00" stroke-linecap="round" stroke-linejoin="round" width="10" x="5" y="42"/><rect id="rect4199" fill="#c00000" height="6" stroke="#c00000" stroke-linecap="square" width="6" x="7" y="44"/></g><g id="edfRightTop" fill-rule="evenodd"><rect id="rect4292" fill="#f00" height="14" stroke="#f00" stroke-linecap="round" stroke-linejoin="round" width="14" x="733" y="28"/><circle id="circle4294" cx="740" cy="35" fill="#a00000" r="4.5" stroke="#a00000" stroke-linecap="square"/><rect id="rect4296" fill="#f00" height="10" stroke="#f00" stroke-linecap="square" stroke-linejoin="round" width="10" x="735" y="18"/><rect id="rect4298" fill="#c00000" height="6" stroke="#c00000" stroke-linecap="square" width="6" x="737" y="20"/><rect id="rect4300" fill="#f00" height="10" stroke="#f00" stroke-linecap="round" stroke-linejoin="round" width="10" x="735" y="42"/><rect id="rect4302" fill="#c00000" height="6" stroke="#c00000" stroke-linecap="square" width="6" x="737" y="44"/></g><g id="edfRightBottom" fill-rule="evenodd"><rect id="rect4320" fill="#f00" height="14" stroke="#f00" stroke-linecap="round" stroke-linejoin="round" width="14" x="733" y="708"/><circle id="circle4322" cx="740" cy="715" fill="#a00000" r="4.5" stroke="#a00000" stroke-linecap="square"/><rect id="rect4324" fill="#f00" height="10" stroke="#f00" stroke-linecap="square" stroke-linejoin="round" width="10" x="735" y="698"/><rect id="rect4326" fill="#c00000" height="6" stroke="#c00000" stroke-linecap="square" width="6" x="737" y="700"/><rect id="rect4328" fill="#f00" height="10" stroke="#f00" stroke-linecap="round" stroke-linejoin="round" width="10" x="735" y="722"/><rect id="rect4330" fill="#c00000" height="6" stroke="#c00000" stroke-linecap="square" width="6" x="737" y="724"/></g><g id="edfLeftBottom" fill-rule="evenodd"><rect id="rect4334" fill="#f00" height="14" stroke="#f00" stroke-linecap="round" stroke-linejoin="round" width="14" x="3" y="708"/><circle id="circle4336" cx="10" cy="715" fill="#a00000" r="4.5" stroke="#a00000" stroke-linecap="square"/><rect id="rect4338" fill="#f00" height="10" stroke="#f00" stroke-linecap="square" stroke-linejoin="round" width="10" x="5" y="698"/><rect id="rect4340" fill="#c00000" height="6" stroke="#c00000" stroke-linecap="square" width="6" x="7" y="700"/><rect id="rect4342" fill="#f00" height="10" stroke="#f00" stroke-linecap="round" stroke-linejoin="round" width="10" x="5" y="722"/><rect id="rect4344" fill="#c00000" height="6" stroke="#c00000" stroke-linecap="square" width="6" x="7" y="724"/></g><path id="frontPanel750" d="m0 0v750h750v-750zm49.5 79h651v592h-651z" fill="#c5c7c4" fill-opacity=".8" fill-rule="evenodd" stroke="#000" stroke-linecap="square"/><path id="frontPanel500" d="m0 0v750h500v-750zm49.5 79h401v592h-401z" fill="#c5c7c4" fill-opacity=".8" fill-rule="evenodd" stroke="#000" stroke-linecap="square"/><g id="fittingLeftTop" fill="#c5c7c4" stroke="#000"><circle id="circle1" cx="10" cy="35" fill-rule="evenodd" r="4.5" stroke-linecap="square"/><rect id="rect4169" fill-rule="evenodd" height="7" stroke-linecap="square" width="2" x="9" y="20"/><rect id="rect4171" fill-rule="evenodd" height="7" stroke-linecap="square" width="2" x="9" y="43"/><path id="line4144" d="m13 35h-6m3-3v6"/></g><g id="fittingRightTop" fill="#c5c7c4" stroke="#000"><circle id="circle4154" cx="740" cy="35" fill-rule="evenodd" r="4.5" stroke-linecap="square"/><rect id="rect4158" fill-rule="evenodd" height="7" stroke-linecap="square" width="2" x="739" y="20"/><rect id="rect4160" fill-rule="evenodd" height="7" stroke-linecap="square" width="2" x="739" y="43"/><path id="line4162" d="m743 35h-6m3-3v6"/></g><g id="fittingRightBottom" fill="#c5c7c4" stroke="#000"><circle id="circle4164" cx="740" cy="715" fill-rule="evenodd" r="4.5" stroke-linecap="square"/><rect id="rect4168" fill-rule="evenodd" height="7" stroke-linecap="square" width="2" x="739" y="700"/><rect id="rect4170" fill-rule="evenodd" height="7" stroke-linecap="square" width="2" x="739" y="723"/><path id="line4172" d="m743 715h-6m3-3v6"/></g><g id="fittingLeftBottom" fill="#c5c7c4" stroke="#000"><circle id="circle4174" cx="10" cy="715" fill-rule="evenodd" r="4.5" stroke-linecap="square"/><rect id="rect4178" fill-rule="evenodd" height="7" stroke-linecap="square" width="2" x="9" y="700"/><rect id="rect4180" fill-rule="evenodd" height="7" stroke-linecap="square" width="2" x="9" y="723"/><path id="line4182" d="m13 715h-6m3-3v6"/></g><path id="d1" d="m127.00001 20.25a61.249594 19.499601 0 0 1 -61.250007-19.5h122.500007a61.249594 19.499601 0 0 1 -61.25 19.5z" fill="none" stroke="#666" stroke-linecap="round" stroke-linejoin="round" stroke-width="2.50000024"/><path id="d2" d="m375 20.25a61.249588 19.499601 0 0 1 -61.24999-19.5h122.49999a61.249588 19.499601 0 0 1 -61.25 19.5z" fill="none" stroke="#666" stroke-linecap="round" stroke-linejoin="round" stroke-width="2.5"/><path id="d3" d="m623 20.25a61.249588 19.499601 0 0 1 -61.24999-19.5h122.49999a61.249588 19.499601 0 0 1 -61.25 19.5z" fill="none" stroke="#666" stroke-linecap="round" stroke-linejoin="round" stroke-width="2.5"/><path id="d4" d="m127.00001 729.75a61.249594 19.499601 0 0 0 -61.250007 19.5h122.500007a61.249594 19.499601 0 0 0 -61.25-19.5z" fill="none" stroke="#666" stroke-linecap="round" stroke-linejoin="round" stroke-width="2.50000024"/><path id="d5" d="m375 729.75a61.249588 19.499601 0 0 0 -61.25 19.5h122.5a61.249588 19.499601 0 0 0 -61.25-19.5z" fill="none" stroke="#666" stroke-linecap="round" stroke-linejoin="round" stroke-width="2.5"/><path id="d6" d="m623 729.75a61.249588 19.499601 0 0 0 -61.24999 19.5h122.49999a61.249588 19.499601 0 0 0 -61.25-19.5z" fill="none" stroke="#666" stroke-linecap="round" stroke-linejoin="round" stroke-width="2.5"/><text id="textTop" font-family="sans-serif" font-size="20" letter-spacing="0" line-height="125%" text-anchor="middle" word-spacing="0" x="375.20996" xml:space="preserve" y="36.041092"><tspan id="tspan4155" x="375.20996" y="36.041092">Text</tspan></text><text id="textBottom" font-family="sans-serif" font-size="20" letter-spacing="0" line-height="125%" text-anchor="middle" word-spacing="0" x="375.20996" xml:space="preserve" y="728.24609"><tspan id="tspan4256" x="375.20996" y="728.24609">Text</tspan></text></g></svg>