<svg id="ModuleDinRail" enable-background="new 0 0 750 750" height="751" overflow="visible" viewBox="0 0 751.5 751" width="751.5" xml:space="preserve" xmlns="http://www.w3.org/2000/svg"><g id="layer1"><g id="rail1" stroke="#000" stroke-linecap="square"><rect id="railBase1" fill="#e0e0e0" height="35" width="750" y="57.5"/><rect id="railCutout1" fill="#c0c0c0" height="29" width="750" y="60.5"/></g><g id="rail2" stroke="#000" stroke-linecap="square"><rect id="railBase2" fill="#e0e0e0" height="35" width="750" y="207.5"/><rect id="railCutout2" fill="#c0c0c0" height="29" width="750" y="210.5"/></g><g id="rail3" stroke="#000" stroke-linecap="square"><rect id="railBase3" fill="#e0e0e0" height="35" width="750" y="357.5"/><rect id="railCutout3" fill="#c0c0c0" height="29" width="750" y="360.5"/></g><g id="rail4" stroke="#000" stroke-linecap="square"><rect id="railBase4" fill="#e0e0e0" height="35" width="750" y="507.5"/><rect id="railCutout4" fill="#c0c0c0" height="29" width="750" y="510.5"/></g><g id="rail5" stroke="#000" stroke-linecap="square"><rect id="railBase5" fill="#e0e0e0" height="35" width="750" y="657.5"/><rect id="railCutout5" fill="#c0c0c0" height="29" width="750" y="660.5"/></g><g id="edfLeftTop"><rect id="rect4262" fill="#f00" height="14" stroke="#f00" stroke-linecap="round" stroke-linejoin="round" width="14" x="3.5" y="27.5"/><circle id="path4201" cx="10.5" cy="34.5" fill="#a00000" r="4" stroke="#a00000" stroke-linecap="square"/><rect id="rect4264" fill="#f00" height="10" stroke="#f00" stroke-linecap="square" stroke-linejoin="round" width="10" x="5.5" y="17.5"/><rect id="rect4197" fill="#c00000" height="6" stroke="#c00000" stroke-linecap="square" width="6" x="7.5" y="19.5"/><rect id="rect4266" fill="#f00" height="10" stroke="#f00" stroke-linecap="round" stroke-linejoin="round" width="10" x="5.5" y="41.5"/><rect id="rect4199" fill="#c00000" height="6" stroke="#c00000" stroke-linecap="square" width="6" x="7.5" y="43.5"/></g><g id="edfRightTop"><rect id="rect4292" fill="#f00" height="14" stroke="#f00" stroke-linecap="round" stroke-linejoin="round" width="14" x="733.5" y="27.5"/><circle id="circle4294" cx="740.5" cy="34.5" fill="#a00000" r="4" stroke="#a00000" stroke-linecap="square"/><rect id="rect4296" fill="#f00" height="10" stroke="#f00" stroke-linecap="square" stroke-linejoin="round" width="10" x="735.5" y="17.5"/><rect id="rect4298" fill="#c00000" height="6" stroke="#c00000" stroke-linecap="square" width="6" x="737.5" y="19.5"/><rect id="rect4300" fill="#f00" height="10" stroke="#f00" stroke-linecap="round" stroke-linejoin="round" width="10" x="735.5" y="41.5"/><rect id="rect4302" fill="#c00000" height="6" stroke="#c00000" stroke-linecap="square" width="6" x="737.5" y="43.5"/></g><g id="edfRightBottom"><rect id="rect4320" fill="#f00" height="14" stroke="#f00" stroke-linecap="round" stroke-linejoin="round" width="14" x="733.5" y="707.5"/><circle id="circle4322" cx="740.5" cy="714.5" fill="#a00000" r="4" stroke="#a00000" stroke-linecap="square"/><rect id="rect4324" fill="#f00" height="10" stroke="#f00" stroke-linecap="square" stroke-linejoin="round" width="10" x="735.5" y="697.5"/><rect id="rect4326" fill="#c00000" height="6" stroke="#c00000" stroke-linecap="square" width="6" x="737.5" y="699.5"/><rect id="rect4328" fill="#f00" height="10" stroke="#f00" stroke-linecap="round" stroke-linejoin="round" width="10" x="735.5" y="721.5"/><rect id="rect4330" fill="#c00000" height="6" stroke="#c00000" stroke-linecap="square" width="6" x="737.5" y="723.5"/></g><g id="edfLeftBottom"><rect id="rect4334" fill="#f00" height="14" stroke="#f00" stroke-linecap="round" stroke-linejoin="round" width="14" x="3.5" y="707.5"/><circle id="circle4336" cx="10.5" cy="714.5" fill="#a00000" r="4" stroke="#a00000" stroke-linecap="square"/><rect id="rect4338" fill="#f00" height="10" stroke="#f00" stroke-linecap="square" stroke-linejoin="round" width="10" x="5.5" y="697.5"/><rect id="rect4340" fill="#c00000" height="6" stroke="#c00000" stroke-linecap="square" width="6" x="7.5" y="699.5"/><rect id="rect4342" fill="#f00" height="10" stroke="#f00" stroke-linecap="round" stroke-linejoin="round" width="10" x="5.5" y="721.5"/><rect id="rect4344" fill="#c00000" height="6" stroke="#c00000" stroke-linecap="square" width="6" x="7.5" y="723.5"/></g><g id="rowSpacing125" fill="#c5c7c4" fill-opacity=".8" stroke="#000" stroke-linecap="square"><g id="rs125_750"><path id="frontPanel_750x750_125" d="m0 0v750h750v-750zm25 102h216v46h-216zm242 0h216v46h-216zm242 0h216v46h-216zm-484 125h216v46h-216zm242 0h216v46h-216zm242 0h216v46h-216zm-484 125h216v46h-216zm242 0h216v46h-216zm242 0h216v46h-216zm-484 125h216v46h-216zm242 0h216v46h-216zm242 0h216v46h-216zm-484 125h216v46h-216zm242 0h216v46h-216zm242 0h216v46h-216z"/><path id="frontPanel_750x600_125" d="m0 0v600h750v-600zm25 89.5h216v46h-216zm242 0h216v46h-216zm242 0h216v46h-216zm-484 125h216v46h-216zm242 0h216v46h-216zm242 0h216v46h-216zm-484 125h216v46h-216zm242 0h216v46h-216zm242 0h216v46h-216zm-484 125h216v46h-216zm242 0h216v46h-216zm242 0h216v46h-216z"/><path id="frontPanel_750x450_125" d="m0 0v450h750v-450zm25 77h216v46h-216zm242 0h216v46h-216zm242 0h216v46h-216zm-484 125h216v46h-216zm242 0h216v46h-216zm242 0h216v46h-216zm-484 125h216v46h-216zm242 0h216v46h-216zm242 0h216v46h-216z"/><path id="frontPanel_750x300_125" d="m0 0v300h750v-300zm25 64.5h216v46h-216zm242 0h216v46h-216zm242 0h216v46h-216zm-484 125h216v46h-216zm242 0h216v46h-216zm242 0h216v46h-216z"/><path id="frontPanel_750x150_125" d="m0 0v150h750v-150zm25 52h216v46h-216zm242 0h216v46h-216zm242 0h216v46h-216z"/></g><g id="rs125_500"><path id="frontPanel_500x750_125" d="m0 0v750h500v-750zm25 102h216v46h-216zm234 0h216v46h-216zm-234 125h216v46h-216zm234 0h216v46h-216zm-234 125h216v46h-216zm234 0h216v46h-216zm-234 125h216v46h-216zm234 0h216v46h-216zm-234 125h216v46h-216zm234 0h216v46h-216z"/><path id="frontPanel_500x600_125" d="m0 0v600h500v-600zm25 89.5h216v46h-216zm234 0h216v46h-216zm-234 125h216v46h-216zm234 0h216v46h-216zm-234 125h216v46h-216zm234 0h216v46h-216zm-234 125h216v46h-216zm234 0h216v46h-216z"/><path id="frontPanel_500x450_125" d="m0 0v450h500v-450zm25 77h216v46h-216zm234 0h216v46h-216zm-234 125h216v46h-216zm234 0h216v46h-216zm-234 125h216v46h-216zm234 0h216v46h-216z"/><path id="frontPanel_500x300_125" d="m0 0v300h500v-300zm25 64.5h216v46h-216zm234 0h216v46h-216zm-234 125h216v46h-216zm234 0h216v46h-216z"/><path id="frontPanel_500x150_125" d="m0 0v150h500v-150zm25 52h216v46h-216zm234 0h216v46h-216z"/></g><g id="rs125_250"><path id="frontPanel_250x750_125" d="m0 0v750h250v-750zm17 102h216v46h-216zm0 125h216v46h-216zm0 125h216v46h-216zm0 125h216v46h-216zm0 125h216v46h-216z"/><path id="frontPanel_250x600_125" d="m0 0v600h250v-600zm17 89.5h216v46h-216zm0 125h216v46h-216zm0 125h216v46h-216zm0 125h216v46h-216z"/><path id="frontPanel_250x450_125" d="m0 0v450h250v-450zm17 77h216v46h-216zm0 125h216v46h-216zm0 125h216v46h-216z"/><path id="frontPanel_250x300_125" d="m0 0v300h250v-300zm17 64.5h216v46h-216zm0 125h216v46h-216z"/><path id="frontPanel_250x150_125" d="m0 0v150h250v-150zm17 52h216v46h-216z"/></g></g><g id="rowSpacing150" fill="#c5c7c4" fill-opacity=".8" stroke="#000" stroke-linecap="square"><g id="rs150_750"><path id="frontPanel_750x750_150" d="m0 0v750h750v-750zm25 52h216v46h-216zm242 0h216v46h-216zm242 0h216v46h-216zm-484 150h216v46h-216zm242 0h216v46h-216zm242 0h216v46h-216zm-484 150h216v46h-216zm242 0h216v46h-216zm242 0h216v46h-216zm-484 150h216v46h-216zm242 0h216v46h-216zm242 0h216v46h-216zm-484 150h216v46h-216zm242 0h216v46h-216zm242 0h216v46h-216z"/><path id="frontPanel_750x600_150" d="m0 0v600h750v-600zm25 52h216v46h-216zm242 0h216v46h-216zm242 0h216v46h-216zm-484 150h216v46h-216zm242 0h216v46h-216zm242 0h216v46h-216zm-484 150h216v46h-216zm242 0h216v46h-216zm242 0h216v46h-216zm-484 150h216v46h-216zm242 0h216v46h-216zm242 0h216v46h-216z"/><path id="frontPanel_750x450_150" d="m0 0v450h750v-450zm25 52h216v46h-216zm242 0h216v46h-216zm242 0h216v46h-216zm-484 150h216v46h-216zm242 0h216v46h-216zm242 0h216v46h-216zm-484 150h216v46h-216zm242 0h216v46h-216zm242 0h216v46h-216z"/><path id="frontPanel_750x300_150" d="m0 0v300h750v-300zm25 52h216v46h-216zm242 0h216v46h-216zm242 0h216v46h-216zm-484 150h216v46h-216zm242 0h216v46h-216zm242 0h216v46h-216z"/><path id="frontPanel_750x150_150" d="m0 0v150h750v-150zm25 52h216v46h-216zm242 0h216v46h-216zm242 0h216v46h-216z"/></g><g id="rs150_500"><path id="frontPanel_500x750_150" d="m0 0v750h500v-750zm25 52h216v46h-216zm234 0h216v46h-216zm-234 150h216v46h-216zm234 0h216v46h-216zm-234 150h216v46h-216zm234 0h216v46h-216zm-234 150h216v46h-216zm234 0h216v46h-216zm-234 150h216v46h-216zm234 0h216v46h-216z"/><path id="frontPanel_500x600_150" d="m0 0v600h500v-600zm25 52h216v46h-216zm234 0h216v46h-216zm-234 150h216v46h-216zm234 0h216v46h-216zm-234 150h216v46h-216zm234 0h216v46h-216zm-234 150h216v46h-216zm234 0h216v46h-216z"/><path id="frontPanel_500x450_150" d="m0 0v450h500v-450zm25 52h216v46h-216zm234 0h216v46h-216zm-234 150h216v46h-216zm234 0h216v46h-216zm-234 150h216v46h-216zm234 0h216v46h-216z"/><path id="frontPanel_500x300_150" d="m0 0v300h500v-300zm25 52h216v46h-216zm234 0h216v46h-216zm-234 150h216v46h-216zm234 0h216v46h-216z"/><path id="frontPanel_500x150_150" d="m0 0v150h500v-150zm25 52h216v46h-216zm234 0h216v46h-216z"/></g><g id="rs150_250"><path id="frontPanel_250x750_150" d="m0 0v750h250v-750zm17 52h216v46h-216zm0 150h216v46h-216zm0 150h216v46h-216zm0 150h216v46h-216zm0 150h216v46h-216z"/><path id="frontPanel_250x600_150" d="m0 0v600h250v-600zm17 52h216v46h-216zm0 150h216v46h-216zm0 150h216v46h-216zm0 150h216v46h-216z"/><path id="frontPanel_250x450_150" d="m0 0v450h250v-450zm17 52h216v46h-216zm0 150h216v46h-216zm0 150h216v46h-216z"/><path id="frontPanel_250x300_150" d="m0 0v300h250v-300zm17 52h216v46h-216zm0 150h216v46h-216z"/><path id="frontPanel_250x150_150" d="m0 0v150h250v-150zm17 52h216v46h-216z"/></g></g><g id="fittingLeftTop" fill="#c5c7c4" stroke="#000"><circle id="circle1" cx="10.5" cy="34.5" r="4.5" stroke-linecap="square"/><rect id="rect4169" height="7" stroke-linecap="square" stroke-width=".5" width="2" x="9.5" y="19.5"/><rect id="rect4171" height="7" stroke-linecap="square" stroke-width=".5" width="2" x="9.5" y="42.5"/><path id="line4144" d="m13.5 34.5h-6m3-3v6"/></g><g id="fittingRightTop" fill="#c5c7c4" stroke="#000"><circle id="circle4154" cx="740.5" cy="34.5" r="4.5" stroke-linecap="square"/><rect id="rect4158" height="7" stroke-linecap="square" stroke-width=".5" width="2" x="739.5" y="19.5"/><rect id="rect4160" height="7" stroke-linecap="square" stroke-width=".5" width="2" x="739.5" y="42.5"/><path id="line4162" d="m743.5 34.5h-6m3-3v6"/></g><g id="fittingRightBottom" fill="#c5c7c4" stroke="#000"><circle id="circle4164" cx="740.5" cy="714.5" r="4.5" stroke-linecap="square"/><rect id="rect4168" height="7" stroke-linecap="square" stroke-width=".5" width="2" x="739.5" y="699.5"/><rect id="rect4170" height="7" stroke-linecap="square" stroke-width=".5" width="2" x="739.5" y="722.5"/><path id="line4172" d="m743.5 714.5h-6m3-3v6"/></g><g id="fittingLeftBottom" fill="#c5c7c4" stroke="#000"><circle id="circle4174" cx="10.5" cy="714.5" r="4.5" stroke-linecap="square"/><rect id="rect4178" height="7" stroke-linecap="square" stroke-width=".5" width="2" x="9.5" y="699.5"/><rect id="rect4180" height="7" stroke-linecap="square" stroke-width=".5" width="2" x="9.5" y="722.5"/><path id="line4182" d="m13.5 714.5h-6m3-3v6"/></g><g id="d750" fill="none" stroke="#666" stroke-width="2.50000024"><path id="d750x750" d="m65.75.750001a61.249594 19.499601 0 0 0 61.25 19.5 61.249594 19.499601 0 0 0  61.25-19.5zm248 0a61.249588 19.499601 0 0 0 61.25 19.5 61.249588 19.499601 0 0 0  61.25-19.5zm248 0a61.249588 19.499601 0 0 0 61.25 19.5 61.249588 19.499601 0 0 0  61.25-19.5zm-434.75 728.999999a61.249594 19.499601 0 0 0 -61.25 19.5h122.5a61.249594 19.499601 0 0 0 -61.25-19.5zm248 0a61.249588 19.499601 0 0 0 -61.25 19.5h122.5a61.249588 19.499601 0 0 0 -61.25-19.5zm248 0a61.249588 19.499601 0 0 0 -61.25 19.5h122.5a61.249588 19.499601 0 0 0 -61.25-19.5z"/><path id="d750x500" d="m65.75.750001a61.249594 19.499601 0 0 0 61.25 19.5 61.249594 19.499601 0 0 0  61.25-19.5zm248 0a61.249588 19.499601 0 0 0 61.25 19.5 61.249588 19.499601 0 0 0  61.25-19.5zm-186.75 728.999999a61.249594 19.499601 0 0 0 -61.25 19.5h122.5a61.249594 19.499601 0 0 0 -61.25-19.5zm248 0a61.249588 19.499601 0 0 0 -61.25 19.5h122.5a61.249588 19.499601 0 0 0 -61.25-19.5z"/><path id="d750x250" d="m65.75.750001a61.249594 19.499601 0 0 0 61.25 19.5 61.249594 19.499601 0 0 0  61.25-19.5zm61.25 728.999999a61.249594 19.499601 0 0 0 -61.25 19.5h122.5a61.249594 19.499601 0 0 0 -61.25-19.5z"/></g><g id="d600" fill="none" stroke="#666" stroke-width="2.50000024"><path id="d600x750" d="m65.75.750001a61.249594 19.499601 0 0 0 61.25 19.5 61.249594 19.499601 0 0 0  61.25-19.5zm248 0a61.249588 19.499601 0 0 0 61.25 19.5 61.249588 19.499601 0 0 0  61.25-19.5zm248 0a61.249588 19.499601 0 0 0 61.25 19.5 61.249588 19.499601 0 0 0  61.25-19.5zm-434.75 578.999999a61.249594 19.499601 0 0 0 -61.25 19.5h122.5a61.249594 19.499601 0 0 0 -61.25-19.5zm248 0a61.249588 19.499601 0 0 0 -61.25 19.5h122.5a61.249588 19.499601 0 0 0 -61.25-19.5zm248 0a61.249588 19.499601 0 0 0 -61.25 19.5h122.5a61.249588 19.499601 0 0 0 -61.25-19.5z"/><path id="d600x500" d="m65.75.750001a61.249594 19.499601 0 0 0 61.25 19.5 61.249594 19.499601 0 0 0  61.25-19.5zm248 0a61.249588 19.499601 0 0 0 61.25 19.5 61.249588 19.499601 0 0 0  61.25-19.5zm-186.75 578.999999a61.249594 19.499601 0 0 0 -61.25 19.5h122.5a61.249594 19.499601 0 0 0 -61.25-19.5zm248 0a61.249588 19.499601 0 0 0 -61.25 19.5h122.5a61.249588 19.499601 0 0 0 -61.25-19.5z"/><path id="d600x250" d="m65.75.750001c-.00069 10.76954 27.42214 19.50007 61.25 19.5 33.82786.00007 61.25069-8.73046 61.25-19.5zm61.25 578.999999c-33.82786-.00007-61.25069 8.73046-61.25 19.5h122.5c.00069-10.76954-27.42214-19.50007-61.25-19.5z"/></g><g id="d450" fill="none" stroke="#666" stroke-width="2.50000024"><path id="d450x750" d="m65.75.750001a61.249594 19.499601 0 0 0 61.25 19.5 61.249594 19.499601 0 0 0  61.25-19.5zm248 0a61.249588 19.499601 0 0 0 61.25 19.5 61.249588 19.499601 0 0 0  61.25-19.5zm248 0a61.249588 19.499601 0 0 0 61.25 19.5 61.249588 19.499601 0 0 0  61.25-19.5zm-434.75 428.999999a61.249594 19.499601 0 0 0 -61.25 19.5h122.5a61.249594 19.499601 0 0 0 -61.25-19.5zm248 0a61.249588 19.499601 0 0 0 -61.25 19.5h122.5a61.249588 19.499601 0 0 0 -61.25-19.5zm248 0a61.249588 19.499601 0 0 0 -61.25 19.5h122.5a61.249588 19.499601 0 0 0 -61.25-19.5z"/><path id="d450x500" d="m65.75.750001a61.249594 19.499601 0 0 0 61.25 19.5 61.249594 19.499601 0 0 0  61.25-19.5zm248 0a61.249588 19.499601 0 0 0 61.25 19.5 61.249588 19.499601 0 0 0  61.25-19.5zm-186.75 428.999999a61.249594 19.499601 0 0 0 -61.25 19.5h122.5a61.249594 19.499601 0 0 0 -61.25-19.5zm248 0a61.249588 19.499601 0 0 0 -61.25 19.5h122.5a61.249588 19.499601 0 0 0 -61.25-19.5z"/><path id="d400x250" d="m65.75.750001a61.249594 19.499601 0 0 0 61.25 19.5 61.249594 19.499601 0 0 0  61.25-19.5zm61.25 428.999999a61.249594 19.499601 0 0 0 -61.25 19.5h122.5a61.249594 19.499601 0 0 0 -61.25-19.5z"/></g><g id="d300" fill="none" stroke="#666" stroke-width="2.50000024"><path id="d300x750" d="m65.75.750001a61.249594 19.499601 0 0 0 61.25 19.5 61.249594 19.499601 0 0 0  61.25-19.5zm248 0a61.249588 19.499601 0 0 0 61.25 19.5 61.249588 19.499601 0 0 0  61.25-19.5zm248 0a61.249588 19.499601 0 0 0 61.25 19.5 61.249588 19.499601 0 0 0  61.25-19.5zm-434.75 278.999999a61.249594 19.499601 0 0 0 -61.25 19.5h122.5a61.249594 19.499601 0 0 0 -61.25-19.5zm248 0a61.249588 19.499601 0 0 0 -61.25 19.5h122.5a61.249588 19.499601 0 0 0 -61.25-19.5zm248 0a61.249588 19.499601 0 0 0 -61.25 19.5h122.5a61.249588 19.499601 0 0 0 -61.25-19.5z"/><path id="d300x500" d="m65.75.750001a61.249594 19.499601 0 0 0 61.25 19.5 61.249594 19.499601 0 0 0  61.25-19.5zm248 0a61.249588 19.499601 0 0 0 61.25 19.5 61.249588 19.499601 0 0 0  61.25-19.5zm-186.75 278.999999a61.249594 19.499601 0 0 0 -61.25 19.5h122.5a61.249594 19.499601 0 0 0 -61.25-19.5zm248 0a61.249588 19.499601 0 0 0 -61.25 19.5h122.5a61.249588 19.499601 0 0 0 -61.25-19.5z"/><path id="d300x250" d="m65.75.750001a61.249594 19.499601 0 0 0 61.25 19.5 61.249594 19.499601 0 0 0  61.25-19.5zm61.25 278.999999a61.249594 19.499601 0 0 0 -61.25 19.5h122.5a61.249594 19.499601 0 0 0 -61.25-19.5z"/></g><g id="d150" fill="none" stroke="#666" stroke-linecap="round" stroke-linejoin="round" stroke-width="2.50000024"><path id="d150x750" d="m65.75.750001a61.249594 19.499601 0 0 0 61.25 19.5 61.249594 19.499601 0 0 0  61.25-19.5zm248 0a61.249588 19.499601 0 0 0 61.25 19.5 61.249588 19.499601 0 0 0  61.25-19.5zm248 0a61.249588 19.499601 0 0 0 61.25 19.5 61.249588 19.499601 0 0 0  61.25-19.5zm-434.75 128.999999a61.249594 19.499601 0 0 0 -61.25 19.5h122.5a61.249594 19.499601 0 0 0 -61.25-19.5zm248 0a61.249588 19.499601 0 0 0 -61.25 19.5h122.5a61.249588 19.499601 0 0 0 -61.25-19.5zm248 0a61.249588 19.499601 0 0 0 -61.25 19.5h122.5a61.249588 19.499601 0 0 0 -61.25-19.5z"/><path id="d150x500" d="m65.75.750001a61.249594 19.499601 0 0 0 61.25 19.5 61.249594 19.499601 0 0 0  61.25-19.5zm248 0a61.249588 19.499601 0 0 0 61.25 19.5 61.249588 19.499601 0 0 0  61.25-19.5zm-186.75 128.999999a61.249594 19.499601 0 0 0 -61.25 19.5h122.5a61.249594 19.499601 0 0 0 -61.25-19.5zm248 0a61.249588 19.499601 0 0 0 -61.25 19.5h122.5a61.249588 19.499601 0 0 0 -61.25-19.5z"/><path id="d150x250" d="m65.75.750001a61.249594 19.499601 0 0 0 61.25 19.5 61.249594 19.499601 0 0 0  61.25-19.5zm61.25 128.999999a61.249594 19.499601 0 0 0 -61.25 19.5h122.5a61.249594 19.499601 0 0 0 -61.25-19.5z"/></g><text id="textTop" font-family="sans-serif" font-size="20" letter-spacing="0" line-height="125%" text-anchor="middle" word-spacing="0" x="375.20996" xml:space="preserve" y="36.041092"><tspan id="tspan4155" x="375.20996" y="36.041092">Text</tspan></text><text id="textBottom" font-family="sans-serif" font-size="20" letter-spacing="0" line-height="125%" text-anchor="middle" word-spacing="0" x="375.20996" xml:space="preserve" y="728.24609"><tspan id="tspan4273" x="375.20996" y="728.24609">Text</tspan></text></g></svg>