<svg id="svg2" height="750" overflow="visible" viewBox="0 0 750 750" width="750" xmlns="http://www.w3.org/2000/svg"><g id="layer1"><rect id="traverseLeft" fill="#e0e0e0" fill-rule="evenodd" height="430" stroke="#000" stroke-linecap="square" width="25" y="160"/><rect id="traverseRight" fill="#e0e0e0" fill-rule="evenodd" height="430" stroke="#000" stroke-linecap="square" width="25" x="725" y="160"/><g id="traverseTop" fill="#e0e0e0" stroke="#000"><rect id="t1" fill-rule="evenodd" height="30" stroke-linecap="square" stroke-width=".99998999" width="5" x="25.999994" y="206.59999"/><rect id="t2" fill-rule="evenodd" height="30" stroke-linecap="square" stroke-width=".99998999" width="5" x="719" y="206.59999"/><rect id="R1_Top" fill-rule="evenodd" height="55" ry="2" stroke-linecap="square" stroke-width=".99999017" width="688" x="30.999994" y="185.09999"/><rect id="R2_Top" height="5" rx="1.0455927" stroke-linecap="round" width="688" x="30.999994" y="235.09999"/></g><g id="traverseBottom" fill="#e0e0e0" stroke="#000"><rect id="b1" fill-rule="evenodd" height="30" stroke-linecap="square" stroke-width=".99998999" width="5" x="25.999994" y="513.39996"/><rect id="b2" fill-rule="evenodd" height="30" stroke-linecap="square" stroke-width=".99998999" width="5" x="719" y="513.39996"/><rect id="R1_bottom" fill-rule="evenodd" height="55" ry="2" stroke-linecap="square" stroke-width=".99998999" width="688" x="30.999992" y="509.89999"/><rect id="R2_bottom" height="5" rx="1.0455927" stroke-linecap="round" width="688" x="30.999994" y="509.89999"/></g><g id="edfLeftTop" fill-rule="evenodd"><rect id="rect4262" fill="#f00" height="14" stroke="#f00" stroke-linecap="round" stroke-linejoin="round" width="14" x="3" y="28"/><circle id="path4201" cx="10" cy="35" fill="#a00000" r="4.5" stroke="#a00000" stroke-linecap="square"/><rect id="rect4264" fill="#f00" height="10" stroke="#f00" stroke-linecap="square" stroke-linejoin="round" width="10" x="5" y="18"/><rect id="rect4197" fill="#c00000" height="6" stroke="#c00000" stroke-linecap="square" width="6" x="7" y="20"/><rect id="rect4266" fill="#f00" height="10" stroke="#f00" stroke-linecap="round" stroke-linejoin="round" width="10" x="5" y="42"/><rect id="rect4199" fill="#c00000" height="6" stroke="#c00000" stroke-linecap="square" width="6" x="7" y="44"/></g><g id="edfRightTop" fill-rule="evenodd"><rect id="rect4292" fill="#f00" height="14" stroke="#f00" stroke-linecap="round" stroke-linejoin="round" width="14" x="733" y="28"/><circle id="circle4294" cx="740" cy="35" fill="#a00000" r="4.5" stroke="#a00000" stroke-linecap="square"/><rect id="rect4296" fill="#f00" height="10" stroke="#f00" stroke-linecap="square" stroke-linejoin="round" width="10" x="735" y="18"/><rect id="rect4298" fill="#c00000" height="6" stroke="#c00000" stroke-linecap="square" width="6" x="737" y="20"/><rect id="rect4300" fill="#f00" height="10" stroke="#f00" stroke-linecap="round" stroke-linejoin="round" width="10" x="735" y="42"/><rect id="rect4302" fill="#c00000" height="6" stroke="#c00000" stroke-linecap="square" width="6" x="737" y="44"/></g><g id="edfRightBottom" fill-rule="evenodd"><rect id="rect4320" fill="#f00" height="14" stroke="#f00" stroke-linecap="round" stroke-linejoin="round" width="14" x="733" y="708"/><circle id="circle4322" cx="740" cy="715" fill="#a00000" r="4.5" stroke="#a00000" stroke-linecap="square"/><rect id="rect4324" fill="#f00" height="10" stroke="#f00" stroke-linecap="square" stroke-linejoin="round" width="10" x="735" y="698"/><rect id="rect4326" fill="#c00000" height="6" stroke="#c00000" stroke-linecap="square" width="6" x="737" y="700"/><rect id="rect4328" fill="#f00" height="10" stroke="#f00" stroke-linecap="round" stroke-linejoin="round" width="10" x="735" y="722"/><rect id="rect4330" fill="#c00000" height="6" stroke="#c00000" stroke-linecap="square" width="6" x="737" y="724"/></g><g id="edfLeftBottom" fill-rule="evenodd"><rect id="rect4334" fill="#f00" height="14" stroke="#f00" stroke-linecap="round" stroke-linejoin="round" width="14" x="3" y="708"/><circle id="circle4336" cx="10" cy="715" fill="#a00000" r="4.5" stroke="#a00000" stroke-linecap="square"/><rect id="rect4338" fill="#f00" height="10" stroke="#f00" stroke-linecap="square" stroke-linejoin="round" width="10" x="5" y="698"/><rect id="rect4340" fill="#c00000" height="6" stroke="#c00000" stroke-linecap="square" width="6" x="7" y="700"/><rect id="rect4342" fill="#f00" height="10" stroke="#f00" stroke-linecap="round" stroke-linejoin="round" width="10" x="5" y="722"/><rect id="rect4344" fill="#c00000" height="6" stroke="#c00000" stroke-linecap="square" width="6" x="7" y="724"/></g><rect id="frontPanel" fill="#c5c7c4" fill-opacity=".8" fill-rule="evenodd" height="750" stroke="#000" stroke-linecap="square" width="750"/><g id="fittingLeftTop" fill="#c5c7c4" stroke="#000"><circle id="circle1" cx="10" cy="35" fill-rule="evenodd" r="4.5" stroke-linecap="square"/><rect id="rect4169" fill-rule="evenodd" height="7" stroke-linecap="square" stroke-width=".5" width="2" x="9" y="20"/><rect id="rect4171" fill-rule="evenodd" height="7" stroke-linecap="square" stroke-width=".5" width="2" x="9" y="43"/><path id="line4144" d="m13 35h-6m3-3v6"/></g><g id="fittingRightTop" fill="#c5c7c4" stroke="#000"><circle id="circle4154" cx="740" cy="35" fill-rule="evenodd" r="4.5" stroke-linecap="square"/><rect id="rect4158" fill-rule="evenodd" height="7" stroke-linecap="square" stroke-width=".5" width="2" x="739" y="20"/><rect id="rect4160" fill-rule="evenodd" height="7" stroke-linecap="square" stroke-width=".5" width="2" x="739" y="43"/><path id="line4162" d="m743 35h-6m3-3v6"/></g><g id="fittingRightBottom" fill="#c5c7c4" stroke="#000"><circle id="circle4164" cx="740" cy="715" fill-rule="evenodd" r="4.5" stroke-linecap="square"/><rect id="rect4168" fill-rule="evenodd" height="7" stroke-linecap="square" stroke-width=".5" width="2" x="739" y="700"/><rect id="rect4170" fill-rule="evenodd" height="7" stroke-linecap="square" stroke-width=".5" width="2" x="739" y="723"/><path id="line4172" d="m743 715h-6m3-3v6"/></g><g id="fittingLeftBottom" fill="#c5c7c4" stroke="#000"><circle id="circle4174" cx="10" cy="715" fill-rule="evenodd" r="4.5" stroke-linecap="square"/><rect id="rect4178" fill-rule="evenodd" height="7" stroke-linecap="square" stroke-width=".5" width="2" x="9" y="700"/><rect id="rect4180" fill-rule="evenodd" height="7" stroke-linecap="square" stroke-width=".5" width="2" x="9" y="723"/><path id="line4182" d="m13 715h-6m3-3v6"/></g><path id="d1" d="m127.00001 20.25a61.249594 19.499601 0 0 1 -61.25001-19.49999988h122.50001a61.249594 19.499601 0 0 1 -61.25 19.49999988z" fill="none" stroke="#666" stroke-linecap="round" stroke-linejoin="round" stroke-width="2.50000024"/><path id="d2" d="m375 20.25a61.249588 19.499601 0 0 1 -61.24999-19.5h122.49999a61.249588 19.499601 0 0 1 -61.25 19.5z" fill="none" stroke="#666" stroke-linecap="round" stroke-linejoin="round" stroke-width="2.5"/><path id="d3" d="m622.99999 20.25a61.249588 19.499601 0 0 1 -61.24999-19.5h122.49999a61.249588 19.499601 0 0 1 -61.25 19.5z" fill="none" stroke="#666" stroke-linecap="round" stroke-linejoin="round" stroke-width="2.5"/><path id="d4" d="m127.00001 729.75a61.249594 19.499601 0 0 0 -61.25001 19.5h122.50001a61.249594 19.499601 0 0 0 -61.25-19.5z" fill="none" stroke="#666" stroke-linecap="round" stroke-linejoin="round" stroke-width="2.50000024"/><path id="d5" d="m375 729.75a61.249588 19.499601 0 0 0 -61.25 19.5h122.5a61.249588 19.499601 0 0 0 -61.25-19.5z" fill="none" stroke="#666" stroke-linecap="round" stroke-linejoin="round" stroke-width="2.5"/><path id="d6" d="m622.99999 729.75a61.249588 19.499601 0 0 0 -61.24999 19.5h122.49999a61.249588 19.499601 0 0 0 -61.25-19.5z" fill="none" stroke="#666" stroke-linecap="round" stroke-linejoin="round" stroke-width="2.5"/><g id="pole3" fill="none" stroke="#000" stroke-dasharray="4 2" stroke-linecap="square"><g id="T4_3"><g id="T4_500_3"><path id="500_T4_3Px1" d="m196.5 314.5h107v107h-107z"/><path id="500_T4_3Px2" d="m143 314.5h214v107h-214z"/><path id="500_T4_3Px3" d="m89.5 314.5h321v107h-321z"/><path id="500_T4_3Px4" d="m36 314.5h428v107h-428z"/></g><g id="T4_750_3"><path id="750_T4_3Px1" d="m321.5 314.5h107v107h-107z"/><path id="750_T4_3Px2" d="m268 314.5h214v107h-214z"/><path id="750_T4_3Px3" d="m214.5 314.5h321v107h-321z"/><path id="750_T4_3Px4" d="m161 314.5h428v107h-428z"/><path id="750_T4_3Px5" d="m107.5 314.5h535v107h-535z"/><path id="750_T4_3Px6" d="m44.5 314.5v107h321v-107zm340 0v107h321v-107z"/></g></g><g id="T5_3"><g id="T5_500_3"><path id="500_T5_3Px1" d="m196.5 314.5h107v107h-107z"/><path id="500_T5_3Px2" d="m106.5 314.5v107h107v-107zm180 0v107h107v-107z"/></g><g id="T5_750_3"><path id="750_T5_3Px1" d="m321.50003 314.5h107v107h-107z"/><path id="750_T5_3Px2" d="m236.5 314.5v107h107v-107zm170 0v107h107v-107z"/><path id="750_T5_3Px3" d="m151.5 314.5v107h107v-107zm170 0v107h107v-107zm170 0v107h107v-107z"/><path id="750_T5_3Px4" d="m66.5 314.5v107h107v-107zm170 0v107h107v-107zm170 0v107h107v-107zm170 0v107h107v-107z"/></g></g><g id="T6_3"><g id="T6_500_3" stroke="#000"><path id="500_T6_3Px1" d="m179 312.75h142v107h-142z"/><path id="500_T6_3Px2" d="m74 312.75v107h142v-107zm210 0v107h142v-107z" fill="none" stroke-dasharray="4 2"/></g><g id="T6_750_3"><path id="750_T6_3Px1" d="m304 312.75h142v107h-142z"/><path id="750_T6_3Px2" d="m199 312.75v107h142v-107zm210 0v107h142v-107z"/><path id="750_T6_3Px3" d="m94.000003 312.75v107h141.999997v-107zm209.999997 0v107h142v-107zm210 0v107h142v-107z"/></g></g></g><g id="pole4" fill="none" stroke="#000" stroke-dasharray="4 2" stroke-linecap="square"><g id="T4_4"><g id="T4_500_4"><path id="500_T4_4Px1" d="m214 314.5h107v107h-107z"/><path id="500_T4_4Px2" d="m142.09998 314.5h247v107h-247z"/><path id="500_T4_4Px3" d="m71 314.5h387v107h-387z"/></g><g id="T4_750_4"><path id="750_T4_4Px1" d="m339 314.5h107v107h-107z"/><path id="750_T4_4Px2" d="m264 314.5v107h107v-107zm150 0v107h107v-107z"/><path id="750_T4_4Px3" d="m189 314.5v107h107v-107zm150 0v107h107v-107zm150 0v107h107v-107z"/><path id="750_T4_4Px4" d="m104 314.5v107h107v-107zm150 0v107h107v-107zm170 0v107h107v-107zm150 0v107h107v-107z"/></g></g><g id="T5_4"><g id="T5_500_4"><path id="500_T5_4Px1" d="m219.75 314.5h107v107h-107z"/><path id="500_T5_4Px2" d="m119.75 314.5v107h107v-107zm200 0v107h107v-107z"/></g><g id="T5_750_4"><path id="750_T5_4Px1" d="m368 314.5h107v107h-107z"/><path id="750_T5_4Px2" d="m237.25 314.5v107h107v-107zm215 0v107h107v-107z"/><path id="750_T5_4Px3" d="m129.71484 314.5v107h107v-107zm215 0v107h107v-107zm215 0v107h107v-107z"/></g></g><g id="T6_4"><g id="T6_500_4"><path id="500_T6_4Px1" d="m214 312.75h142v107h-142z"/></g><g id="T6_750_4"><path id="750_T6_4Px1" d="m339 312.75h142v107h-142z"/><path id="750_T6_4Px2" d="m189 312.75v107h142v-107zm300 0v107h142v-107z"/></g></g></g><text id="textBottom" font-family="sans-serif" font-size="20" letter-spacing="0" line-height="125%" text-anchor="middle" word-spacing="0" x="375.20996" xml:space="preserve" y="728.24609"><tspan id="tspan4155" x="375.20996" y="728.24609">Text</tspan></text><text id="textTop" font-family="sans-serif" font-size="20" letter-spacing="0" line-height="125%" text-anchor="middle" word-spacing="0" x="375.20996" xml:space="preserve" y="36.041092"><tspan id="tspan4273" x="375.20996" y="36.041092">Text</tspan></text></g></svg>