<svg id="svg2" height="750" overflow="visible" viewBox="0 0 500 750" width="500" xmlns="http://www.w3.org/2000/svg"><g id="layer1"><rect id="traverseLeft" fill="#e0e0e0" fill-rule="evenodd" height="430" stroke="#000" stroke-linecap="square" width="40" y="160"/><rect id="traverseRight" fill="#e0e0e0" fill-rule="evenodd" height="430" stroke="#000" stroke-linecap="square" width="40" x="460" y="160"/><g id="traverseTop" stroke="#000"><rect id="rect4216" fill="#e0e0e0" fill-rule="evenodd" height="30" stroke-linecap="square" stroke-width=".99998999" width="5" x="40" y="267.5"/><rect id="rect4223" fill="#e0e0e0" fill-rule="evenodd" height="30" stroke-linecap="square" stroke-width=".99998999" width="5" x="455" y="267.5"/><rect id="cmtBase" fill="#e0e0e0" fill-rule="evenodd" height="35.982742" stroke-linecap="square" stroke-width="1.01725793" width="409.98273" x="45.008636" y="261.50864"/><rect id="rect4492" fill="#e0e0e0" fill-rule="evenodd" height="30" ry="5" stroke-linecap="square" width="248" x="126" y="238.49998"/><rect id="rect4498" fill="#e0e0e0" fill-rule="evenodd" height="32.982765" stroke-linecap="square" stroke-width="1.01723611" width="409.98276" x="45.008625" y="264.50861"/><circle id="path4494" cx="437" cy="282.5" fill="none" r="2.7" stroke-linecap="round"/><circle id="circle4496" cx="63" cy="282.5" fill="none" r="2.7" stroke-linecap="round"/><circle id="circle4210" cx="355" cy="252.49998" fill="none" r="2.7" stroke-linecap="round"/><circle id="circle4212" cx="215" cy="252.49998" fill="none" r="2.7" stroke-linecap="round"/><circle id="circle4214" cx="285" cy="252.49998" fill="none" r="2.7" stroke-linecap="round"/><circle id="circle4216" cx="145" cy="252.49998" fill="none" r="2.7" stroke-linecap="round"/></g><g id="traverseBottom" stroke="#000"><rect id="rect4219" fill="#e0e0e0" fill-rule="evenodd" height="30" stroke-linecap="square" stroke-width=".99998999" width="5" x="40" y="452.5"/><rect id="rect4225" fill="#e0e0e0" fill-rule="evenodd" height="30" stroke-linecap="square" stroke-width=".99998999" width="5" x="455" y="452.5"/><rect id="rect4224" fill="#e0e0e0" fill-rule="evenodd" height="35.982742" stroke-linecap="square" stroke-width="1.01725793" width="409.98273" x="45.008636" y="452.50873"/><rect id="rect4226" fill="#e0e0e0" fill-rule="evenodd" height="30" ry="5" stroke-linecap="square" width="248" x="126" y="481.50009"/><rect id="rect4228" fill="#e0e0e0" fill-rule="evenodd" height="32.982784" stroke-linecap="square" stroke-width="1.01723635" width="409.98276" x="45.008625" y="452.50864"/><circle id="circle4230" cx="437" cy="467.50009" fill="none" r="2.7" stroke-linecap="round"/><circle id="circle4232" cx="63" cy="467.50009" fill="none" r="2.7" stroke-linecap="round"/><circle id="circle4234" cx="355" cy="497.50009" fill="none" r="2.7" stroke-linecap="round"/><circle id="circle4236" cx="215" cy="497.50009" fill="none" r="2.7" stroke-linecap="round"/><circle id="circle4238" cx="285" cy="497.50009" fill="none" r="2.7" stroke-linecap="round"/><circle id="circle4240" cx="145" cy="497.50009" fill="none" r="2.7" stroke-linecap="round"/></g><g id="edfLeftTop" fill-rule="evenodd"><rect id="rect4262" fill="#f00" height="14" stroke="#f00" stroke-linecap="round" stroke-linejoin="round" width="14" x="3" y="28"/><circle id="path4201" cx="10" cy="35" fill="#a00000" r="4.5" stroke="#a00000" stroke-linecap="square"/><rect id="rect4264" fill="#f00" height="10" stroke="#f00" stroke-linecap="square" stroke-linejoin="round" width="10" x="5" y="18"/><rect id="rect4197" fill="#c00000" height="6" stroke="#c00000" stroke-linecap="square" width="6" x="7" y="20"/><rect id="rect4266" fill="#f00" height="10" stroke="#f00" stroke-linecap="round" stroke-linejoin="round" width="10" x="5" y="42"/><rect id="rect4199" fill="#c00000" height="6" stroke="#c00000" stroke-linecap="square" width="6" x="7" y="44"/></g><g id="edfRightTop" fill-rule="evenodd"><rect id="rect4292" fill="#f00" height="14" stroke="#f00" stroke-linecap="round" stroke-linejoin="round" width="14" x="483" y="28"/><circle id="circle4294" cx="490" cy="35" fill="#a00000" r="4.5" stroke="#a00000" stroke-linecap="square"/><rect id="rect4296" fill="#f00" height="10" stroke="#f00" stroke-linecap="square" stroke-linejoin="round" width="10" x="485" y="18"/><rect id="rect4298" fill="#c00000" height="6" stroke="#c00000" stroke-linecap="square" width="6" x="487" y="20"/><rect id="rect4300" fill="#f00" height="10" stroke="#f00" stroke-linecap="round" stroke-linejoin="round" width="10" x="485" y="42"/><rect id="rect4302" fill="#c00000" height="6" stroke="#c00000" stroke-linecap="square" width="6" x="487" y="44"/></g><g id="edfRightBottom" fill-rule="evenodd"><rect id="rect4320" fill="#f00" height="14" stroke="#f00" stroke-linecap="round" stroke-linejoin="round" width="14" x="483" y="708"/><circle id="circle4322" cx="490" cy="715" fill="#a00000" r="4.5" stroke="#a00000" stroke-linecap="square"/><rect id="rect4324" fill="#f00" height="10" stroke="#f00" stroke-linecap="square" stroke-linejoin="round" width="10" x="485" y="698"/><rect id="rect4326" fill="#c00000" height="6" stroke="#c00000" stroke-linecap="square" width="6" x="487" y="700"/><rect id="rect4328" fill="#f00" height="10" stroke="#f00" stroke-linecap="round" stroke-linejoin="round" width="10" x="485" y="722"/><rect id="rect4330" fill="#c00000" height="6" stroke="#c00000" stroke-linecap="square" width="6" x="487" y="724"/></g><g id="edfLeftBottom" fill-rule="evenodd"><rect id="rect4334" fill="#f00" height="14" stroke="#f00" stroke-linecap="round" stroke-linejoin="round" width="14" x="3" y="708"/><circle id="circle4336" cx="10" cy="715" fill="#a00000" r="4.5" stroke="#a00000" stroke-linecap="square"/><rect id="rect4338" fill="#f00" height="10" stroke="#f00" stroke-linecap="square" stroke-linejoin="round" width="10" x="5" y="698"/><rect id="rect4340" fill="#c00000" height="6" stroke="#c00000" stroke-linecap="square" width="6" x="7" y="700"/><rect id="rect4342" fill="#f00" height="10" stroke="#f00" stroke-linecap="round" stroke-linejoin="round" width="10" x="5" y="722"/><rect id="rect4344" fill="#c00000" height="6" stroke="#c00000" stroke-linecap="square" width="6" x="7" y="724"/></g><g id="kitSupport" fill="#e0e0e0" stroke="#000" stroke-linecap="round" stroke-linejoin="round"><g id="side1"><rect id="rect4377" height="3" stroke-width=".80000001" width="40" x="-.00005256" y="666.59998"/><rect id="rect4375" height="74.69278" stroke-width="1.10722244" width="2.6927774" x="37.153549" y="594.7536"/></g><g id="side2"><rect id="rect4389" height="3" stroke-width=".80000001" width="40" x="460.00006" y="666.59998"/><rect id="rect4387" height="74.69278" stroke-width="1.10722244" width="2.6927774" x="460.15369" y="594.7536"/></g><rect id="plate" height="29.918688" stroke-width=".88131255" width="425.9187" x="37.040649" y="594.64062"/></g><path id="frontPanel_E12_T7" d="m0 0v750h500v-750zm425 46h50v652h-50zm-279.5 225.5h209v207h-209z" fill="#c5c7c4" fill-opacity=".8" fill-rule="evenodd" stroke="#000" stroke-linecap="square"/><path id="frontPanel_E22F" d="m0 .00002v749.99996h500v-749.99996zm425 46h50v651.99996h-50zm-327.999998 155h305.999998v348h-305.999998z" fill="#c5c7c4" fill-opacity=".8" fill-rule="evenodd" stroke="#000" stroke-linecap="square"/><g id="fittingLeftTop" fill="#c5c7c4" stroke="#000"><circle id="circle1" cx="10" cy="35" fill-rule="evenodd" r="4.5" stroke-linecap="square"/><rect id="rect4169" fill-rule="evenodd" height="7" stroke-linecap="square" stroke-width=".5" width="2" x="9" y="20"/><rect id="rect4171" fill-rule="evenodd" height="7" stroke-linecap="square" stroke-width=".5" width="2" x="9" y="43"/><path id="line4144" d="m13 35h-6m3-3v6"/></g><g id="fittingRightTop" fill="#c5c7c4" stroke="#000"><circle id="circle4154" cx="490" cy="35" fill-rule="evenodd" r="4.5" stroke-linecap="square"/><rect id="rect4158" fill-rule="evenodd" height="7" stroke-linecap="square" stroke-width=".5" width="2" x="489" y="20"/><rect id="rect4160" fill-rule="evenodd" height="7" stroke-linecap="square" stroke-width=".5" width="2" x="489" y="43"/><path id="line4162" d="m493 35h-6m3-3v6"/></g><g id="fittingRightBottom" fill="#c5c7c4" stroke="#000"><circle id="circle4164" cx="490" cy="715" fill-rule="evenodd" r="4.5" stroke-linecap="square"/><rect id="rect4168" fill-rule="evenodd" height="7" stroke-linecap="square" stroke-width=".5" width="2" x="489" y="700"/><rect id="rect4170" fill-rule="evenodd" height="7" stroke-linecap="square" stroke-width=".5" width="2" x="489" y="723"/><path id="line4172" d="m493 715h-6m3-3v6"/></g><g id="fittingLeftBottom" fill="#c5c7c4" stroke="#000"><circle id="circle4174" cx="10" cy="715" fill-rule="evenodd" r="4.5" stroke-linecap="square"/><rect id="rect4178" fill-rule="evenodd" height="7" stroke-linecap="square" stroke-width=".5" width="2" x="9" y="700"/><rect id="rect4180" fill-rule="evenodd" height="7" stroke-linecap="square" stroke-width=".5" width="2" x="9" y="723"/><path id="line4182" d="m13 715h-6m3-3v6"/></g><g id="flangeE22" stroke="#000" stroke-linecap="round"><path id="path4795" d="m83 184v382h334v-382zm29 28.90039h276v324.19922h-276z" fill="#575d5e" stroke-width=".79999995"/><path id="rect4790" d="m175 184h150v25h-150z" fill="#fff" stroke-width=".80000001"/></g><path id="d1" d="m127.00002 729.75a61.249594 19.499601 0 0 0 -61.250015 19.5h122.500015a61.249594 19.499601 0 0 0 -61.25-19.5z" fill="none" stroke="#666" stroke-linecap="round" stroke-linejoin="round" stroke-width="2.50000024"/><path id="d2" d="m375 729.74998a61.249588 19.499601 0 0 0 -61.24999 19.5h122.49999a61.249588 19.499601 0 0 0 -61.25-19.5z" fill="none" stroke="#666" stroke-linecap="round" stroke-linejoin="round" stroke-width="2.5"/><path id="d3" d="m127.00002 20.25a61.249594 19.499601 0 0 1 -61.25002-19.49999988h122.50002a61.249594 19.499601 0 0 1 -61.25 19.49999988z" fill="none" stroke="#666" stroke-linecap="round" stroke-linejoin="round" stroke-width="2.50000024"/><path id="d4" d="m375 20.25a61.249588 19.499601 0 0 1 -61.24999-19.5h122.49999a61.249588 19.499601 0 0 1 -61.25 19.5z" fill="none" stroke="#666" stroke-linecap="round" stroke-linejoin="round" stroke-width="2.5"/><text id="textBottom" font-family="sans-serif" font-size="20" letter-spacing="0" line-height="125%" text-anchor="middle" word-spacing="0" x="250.20996" xml:space="preserve" y="728.24609"><tspan id="tspan4155" x="250.20996" y="728.24609">Text</tspan></text><text id="textTop" font-family="sans-serif" font-size="20" letter-spacing="0" line-height="125%" text-anchor="middle" word-spacing="0" x="250.20996" xml:space="preserve" y="36.041092"><tspan id="tspan4241" x="250.20996" y="36.041092">Text</tspan></text></g></svg>