<svg id="svg2" height="601" overflow="visible" viewBox="0 0 751 601" width="751" xmlns="http://www.w3.org/2000/svg"><g id="layer1"><g id="holderNLeft" fill="#e0e0e0" stroke="#000"><rect id="holderLeftN" fill="#e0e0e0" fill-rule="evenodd" height="110" ry="5" stroke-linecap="square" stroke-width=".80000001" width="51" x="2" y="335"/><line id="line78" fill="#e0e0e0" x1="22.5" x2="22.5" y1="335" y2="445"/><rect id="rect4268" fill="#e0e0e0" fill-rule="evenodd" height="100" ry="6.25" stroke-linecap="square" stroke-width=".80000001" width="25" x="28.09" y="340"/><circle id="path4264" cx="40.59" cy="390" fill="#000" fill-rule="evenodd" r="5" stroke-dasharray="4 2" stroke-linecap="round"/></g><g id="holderNRight" stroke="#000"><rect id="holderRightN" fill="#e0e0e0" fill-rule="evenodd" height="110" ry="5" stroke-linecap="square" stroke-width=".80000001" width="51" x="697" y="335"/><line id="line4208" fill="#e0e0e0" x1="727.5" x2="727.5" y1="335" y2="445"/><rect id="rect4279" fill="#e0e0e0" fill-rule="evenodd" height="100" ry="6.25" stroke-linecap="square" stroke-width=".80000001" width="25" x="696.91003" y="340"/><circle id="circle4281" cx="709.41003" cy="390" fill-rule="evenodd" r="5" stroke-dasharray="3.99981 1.9999" stroke-linecap="round" stroke-width=".99994999"/></g><g id="holderPELeft" fill="#e0e0e0" stroke="#000"><rect id="rect4285" fill-rule="evenodd" height="88" ry="5" stroke-linecap="square" stroke-width=".80000001" width="51" x="2" y="446"/><line id="line4206" x1="22.5" x2="22.5" y1="446" y2="534"/><circle id="circle4224" cx="40.59" cy="490" fill-rule="evenodd" r="5" stroke-dasharray="4 2" stroke-linecap="round"/></g><g id="holderPERight" fill="#e0e0e0" stroke="#000"><rect id="rect4218" fill-rule="evenodd" height="88" ry="5" stroke-linecap="square" stroke-width=".80000001" width="51" x="697" y="446"/><line id="line4220" x1="727.5" x2="727.5" y1="446" y2="534"/><circle id="circle4227" cx="709.40991" cy="490" fill-rule="evenodd" r="5" stroke-dasharray="4 2" stroke-linecap="round"/></g><g id="edfLeftTop" fill-rule="evenodd"><rect id="rect4262" fill="#f00" height="14" stroke="#f00" stroke-linecap="round" stroke-linejoin="round" width="14" x="3" y="28"/><circle id="path4201" cx="10" cy="35" fill="#a00000" r="4.5" stroke="#a00000" stroke-linecap="square"/><rect id="rect4264" fill="#f00" height="10" stroke="#f00" stroke-linecap="square" stroke-linejoin="round" width="10" x="5" y="18"/><rect id="rect4197" fill="#c00000" height="6" stroke="#c00000" stroke-linecap="square" width="6" x="7" y="20"/><rect id="rect4266" fill="#f00" height="10" stroke="#f00" stroke-linecap="round" stroke-linejoin="round" width="10" x="5" y="42"/><rect id="rect4199" fill="#c00000" height="6" stroke="#c00000" stroke-linecap="square" width="6" x="7" y="44"/></g><g id="edfRightTop" fill-rule="evenodd"><rect id="rect4292" fill="#f00" height="14" stroke="#f00" stroke-linecap="round" stroke-linejoin="round" width="14" x="733" y="28"/><circle id="circle4294" cx="740" cy="35" fill="#a00000" r="4.5" stroke="#a00000" stroke-linecap="square"/><rect id="rect4296" fill="#f00" height="10" stroke="#f00" stroke-linecap="square" stroke-linejoin="round" width="10" x="735" y="18"/><rect id="rect4298" fill="#c00000" height="6" stroke="#c00000" stroke-linecap="square" width="6" x="737" y="20"/><rect id="rect4300" fill="#f00" height="10" stroke="#f00" stroke-linecap="round" stroke-linejoin="round" width="10" x="735" y="42"/><rect id="rect4302" fill="#c00000" height="6" stroke="#c00000" stroke-linecap="square" width="6" x="737" y="44"/></g><g id="edfRightBottom" fill-rule="evenodd"><rect id="rect4320" fill="#f00" height="14" stroke="#f00" stroke-linecap="round" stroke-linejoin="round" width="14" x="733" y="558"/><circle id="circle4322" cx="740" cy="565" fill="#a00000" r="4.5" stroke="#a00000" stroke-linecap="square"/><rect id="rect4324" fill="#f00" height="10" stroke="#f00" stroke-linecap="square" stroke-linejoin="round" width="10" x="735" y="548"/><rect id="rect4326" fill="#c00000" height="6" stroke="#c00000" stroke-linecap="square" width="6" x="737" y="550"/><rect id="rect4328" fill="#f00" height="10" stroke="#f00" stroke-linecap="round" stroke-linejoin="round" width="10" x="735" y="572"/><rect id="rect4330" fill="#c00000" height="6" stroke="#c00000" stroke-linecap="square" width="6" x="737" y="574"/></g><g id="edfLeftBottom" fill-rule="evenodd"><rect id="rect4334" fill="#f00" height="14" stroke="#f00" stroke-linecap="round" stroke-linejoin="round" width="14" x="3" y="558"/><circle id="circle4336" cx="10" cy="565" fill="#a00000" r="4.5" stroke="#a00000" stroke-linecap="square"/><rect id="rect4338" fill="#f00" height="10" stroke="#f00" stroke-linecap="square" stroke-linejoin="round" width="10" x="5" y="548"/><rect id="rect4340" fill="#c00000" height="6" stroke="#c00000" stroke-linecap="square" width="6" x="7" y="550"/><rect id="rect4342" fill="#f00" height="10" stroke="#f00" stroke-linecap="round" stroke-linejoin="round" width="10" x="5" y="572"/><rect id="rect4344" fill="#c00000" height="6" stroke="#c00000" stroke-linecap="square" width="6" x="7" y="574"/></g><rect id="moduleFrame" fill="#c5c7c4" fill-opacity=".8" fill-rule="evenodd" height="600" stroke="#000" stroke-linecap="square" width="750"/><g id="fittingLeftTop" fill="#c5c7c4" stroke="#000"><circle id="circle1" cx="10" cy="35" fill-rule="evenodd" r="4.5" stroke-linecap="square"/><rect id="rect4169" fill-rule="evenodd" height="7" stroke-linecap="square" stroke-width=".5" width="2" x="9" y="20"/><rect id="rect4171" fill-rule="evenodd" height="7" stroke-linecap="square" stroke-width=".5" width="2" x="9" y="43"/><path id="line4144" d="m13 35h-6m3-3v6"/></g><g id="fittingRightTop" fill="#c5c7c4" stroke="#000"><circle id="circle4154" cx="740" cy="35" fill-rule="evenodd" r="4.5" stroke-linecap="square"/><rect id="rect4158" fill-rule="evenodd" height="7" stroke-linecap="square" stroke-width=".5" width="2" x="739" y="20"/><rect id="rect4160" fill-rule="evenodd" height="7" stroke-linecap="square" stroke-width=".5" width="2" x="739" y="43"/><path id="line4162" d="m743 35h-6m3-3v6"/></g><g id="fittingRightBottom" fill="#c5c7c4" stroke="#000"><circle id="circle4164" cx="740" cy="565" fill-rule="evenodd" r="4.5" stroke-linecap="square"/><rect id="rect4168" fill-rule="evenodd" height="7" stroke-linecap="square" stroke-width=".5" width="2" x="739" y="550"/><rect id="rect4170" fill-rule="evenodd" height="7" stroke-linecap="square" stroke-width=".5" width="2" x="739" y="573"/><path id="line4172" d="m743 565h-6m3-3v6"/></g><g id="fittingLeftBottom" fill="#c5c7c4" stroke="#000"><circle id="circle4174" cx="10" cy="565" fill-rule="evenodd" r="4.5" stroke-linecap="square"/><rect id="rect4178" fill-rule="evenodd" height="7" stroke-linecap="square" stroke-width=".5" width="2" x="9" y="550"/><rect id="rect4180" fill-rule="evenodd" height="7" stroke-linecap="square" stroke-width=".5" width="2" x="9" y="573"/><path id="line4182" d="m13 565h-6m3-3v6"/></g><text id="textTop" font-family="sans-serif" font-size="20" letter-spacing="0" line-height="125%" text-anchor="middle" word-spacing="0" x="374.99997" xml:space="preserve" y="36.041092"><tspan id="tspan4155" x="374.99997" y="36.041092">Text</tspan></text><text id="textBottom" font-family="sans-serif" font-size="20" letter-spacing="0" line-height="125%" text-anchor="middle" word-spacing="0" x="375.20993" xml:space="preserve" y="578.24609"><tspan id="tspan4217" x="375.20993" y="578.24609">Text</tspan></text><path id="d500x450" d="m65.75.74999952a61.249594 19.499601 0 0 0 61.25 19.50000048 61.249594 19.499601 0 0 0  61.25-19.50000048zm248 0a61.249588 19.499601 0 0 0 61.25 19.50000048 61.249588 19.499601 0 0 0  61.25-19.50000048zm-186.75 429.00000048a61.249595 19.499601 0 0 0 -61.25 19.5h122.5a61.249595 19.499601 0 0 0 -61.25-19.5zm248 0a61.249589 19.499601 0 0 0 -61.25 19.5h122.5a61.249589 19.499601 0 0 0 -61.25-19.5z" fill="none" stroke="#666" stroke-linecap="round" stroke-linejoin="round" stroke-width="2.50000024"/><path id="d500x600" d="m65.75.74999952a61.249594 19.499601 0 0 0 61.25 19.50000048 61.249594 19.499601 0 0 0  61.25-19.50000048zm248 0a61.249588 19.499601 0 0 0 61.25 19.50000048 61.249588 19.499601 0 0 0  61.25-19.50000048zm-186.75 579.00000048a61.249594 19.499601 0 0 0 -61.25 19.5h122.5a61.249594 19.499601 0 0 0 -61.25-19.5zm248 0a61.249588 19.499601 0 0 0 -61.25 19.5h122.5a61.249588 19.499601 0 0 0 -61.25-19.5z" fill="none" stroke="#666" stroke-width="2.5"/><path id="d750x450" d="m65.75.74999952c-.000692 10.76953948 27.422135 19.50007148 61.25 19.50000048 33.82786.000071 61.25069-8.730461 61.25-19.50000048zm248 0c-.00069 10.76953948 27.42214 19.50007248 61.25 19.50000048 33.82786.000072 61.25069-8.730461 61.25-19.50000048zm248 0c-.00069 10.76953948 27.42214 19.50007248 61.25 19.50000048 33.82786.000072 61.25069-8.730461 61.25-19.50000048zm-434.75 429.00000048c-33.827865-.00007-61.250692 8.73046-61.25 19.5h122.5c.00069-10.76954-27.42214-19.50007-61.25-19.5zm248 0c-33.82786-.00007-61.25069 8.73046-61.25 19.5h122.5c.00069-10.76954-27.42214-19.50007-61.25-19.5zm248 0a61.249589 19.499601 0 0 0 -61.25 19.5h122.5a61.249589 19.499601 0 0 0 -61.25-19.5z" fill="none" stroke="#666" stroke-linecap="round" stroke-linejoin="round" stroke-width="2.5"/><path id="d750x600" d="m65.75.74999952a61.249594 19.499601 0 0 0 61.25 19.50000048 61.249594 19.499601 0 0 0  61.25-19.50000048zm248 0a61.249588 19.499601 0 0 0 61.25 19.50000048 61.249588 19.499601 0 0 0  61.25-19.50000048zm248 0a61.249588 19.499601 0 0 0 61.25 19.50000048 61.249588 19.499601 0 0 0  61.25-19.50000048zm-434.75 579.00000048a61.249594 19.499601 0 0 0 -61.25 19.5h122.5a61.249594 19.499601 0 0 0 -61.25-19.5zm248 0a61.249588 19.499601 0 0 0 -61.25 19.5h122.5a61.249588 19.499601 0 0 0 -61.25-19.5zm248 0a61.249588 19.499601 0 0 0 -61.25 19.5h122.5a61.249588 19.499601 0 0 0 -61.25-19.5z" fill="none" stroke="#666" stroke-width="2.5"/></g></svg>