<svg id="svg2" height="750" overflow="visible" viewBox="0 0 750 750" width="750" xmlns="http://www.w3.org/2000/svg"><g id="layer1"><g id="edfLeftTop" fill-rule="evenodd"><rect id="rect4262" fill="#f00" height="14" stroke="#f00" stroke-linecap="round" stroke-linejoin="round" width="14" x="3" y="28"/><circle id="path4201" cx="10" cy="35" fill="#a00000" r="4.5" stroke="#a00000" stroke-linecap="square"/><rect id="rect4264" fill="#f00" height="10" stroke="#f00" stroke-linecap="square" stroke-linejoin="round" width="10" x="5" y="18"/><rect id="rect4197" fill="#c00000" height="6" stroke="#c00000" stroke-linecap="square" width="6" x="7" y="20"/><rect id="rect4266" fill="#f00" height="10" stroke="#f00" stroke-linecap="round" stroke-linejoin="round" width="10" x="5" y="42"/><rect id="rect4199" fill="#c00000" height="6" stroke="#c00000" stroke-linecap="square" width="6" x="7" y="44"/></g><g id="edfRightTop" fill-rule="evenodd"><rect id="rect4292" fill="#f00" height="14" stroke="#f00" stroke-linecap="round" stroke-linejoin="round" width="14" x="733" y="28"/><circle id="circle4294" cx="740" cy="35" fill="#a00000" r="4.5" stroke="#a00000" stroke-linecap="square"/><rect id="rect4296" fill="#f00" height="10" stroke="#f00" stroke-linecap="square" stroke-linejoin="round" width="10" x="735" y="18"/><rect id="rect4298" fill="#c00000" height="6" stroke="#c00000" stroke-linecap="square" width="6" x="737" y="20"/><rect id="rect4300" fill="#f00" height="10" stroke="#f00" stroke-linecap="round" stroke-linejoin="round" width="10" x="735" y="42"/><rect id="rect4302" fill="#c00000" height="6" stroke="#c00000" stroke-linecap="square" width="6" x="737" y="44"/></g><g id="edfRightBottom" fill-rule="evenodd"><rect id="rect4320" fill="#f00" height="14" stroke="#f00" stroke-linecap="round" stroke-linejoin="round" width="14" x="733" y="708"/><circle id="circle4322" cx="740" cy="715" fill="#a00000" r="4.5" stroke="#a00000" stroke-linecap="square"/><rect id="rect4324" fill="#f00" height="10" stroke="#f00" stroke-linecap="square" stroke-linejoin="round" width="10" x="735" y="698"/><rect id="rect4326" fill="#c00000" height="6" stroke="#c00000" stroke-linecap="square" width="6" x="737" y="700"/><rect id="rect4328" fill="#f00" height="10" stroke="#f00" stroke-linecap="round" stroke-linejoin="round" width="10" x="735" y="722"/><rect id="rect4330" fill="#c00000" height="6" stroke="#c00000" stroke-linecap="square" width="6" x="737" y="724"/></g><g id="edfLeftBottom" fill-rule="evenodd"><rect id="rect4334" fill="#f00" height="14" stroke="#f00" stroke-linecap="round" stroke-linejoin="round" width="14" x="3" y="708"/><circle id="circle4336" cx="10" cy="715" fill="#a00000" r="4.5" stroke="#a00000" stroke-linecap="square"/><rect id="rect4338" fill="#f00" height="10" stroke="#f00" stroke-linecap="square" stroke-linejoin="round" width="10" x="5" y="698"/><rect id="rect4340" fill="#c00000" height="6" stroke="#c00000" stroke-linecap="square" width="6" x="7" y="700"/><rect id="rect4342" fill="#f00" height="10" stroke="#f00" stroke-linecap="round" stroke-linejoin="round" width="10" x="5" y="722"/><rect id="rect4344" fill="#c00000" height="6" stroke="#c00000" stroke-linecap="square" width="6" x="7" y="724"/></g><path id="frontPanel" d="m0 0v750h750v-750zm25 44h700v662h-700z" fill="#c5c7c4" fill-opacity=".8" fill-rule="evenodd" stroke="#000" stroke-linecap="square"/><g id="fittingLeftTop" fill="#c5c7c4" stroke="#000"><circle id="circle1" cx="10" cy="35" fill-rule="evenodd" r="4.5" stroke-linecap="square"/><rect id="rect4169" fill-rule="evenodd" height="7" stroke-linecap="square" stroke-width=".5" width="2" x="9" y="20"/><rect id="rect4171" fill-rule="evenodd" height="7" stroke-linecap="square" stroke-width=".5" width="2" x="9" y="43"/><path id="line4144" d="m13 35h-6m3-3v6"/></g><g id="fittingRightTop" fill="#c5c7c4" stroke="#000"><circle id="circle4154" cx="740" cy="35" fill-rule="evenodd" r="4.5" stroke-linecap="square"/><rect id="rect4158" fill-rule="evenodd" height="7" stroke-linecap="square" stroke-width=".5" width="2" x="739" y="20"/><rect id="rect4160" fill-rule="evenodd" height="7" stroke-linecap="square" stroke-width=".5" width="2" x="739" y="43"/><path id="line4162" d="m743 35h-6m3-3v6"/></g><g id="fittingRightBottom" fill="#c5c7c4" stroke="#000"><circle id="circle4164" cx="740" cy="715" fill-rule="evenodd" r="4.5" stroke-linecap="square"/><rect id="rect4168" fill-rule="evenodd" height="7" stroke-linecap="square" stroke-width=".5" width="2" x="739" y="700"/><rect id="rect4170" fill-rule="evenodd" height="7" stroke-linecap="square" stroke-width=".5" width="2" x="739" y="723"/><path id="line4172" d="m743 715h-6m3-3v6"/></g><g id="fittingLeftBottom" fill="#c5c7c4" stroke="#000"><circle id="circle4174" cx="10" cy="715" fill-rule="evenodd" r="4.5" stroke-linecap="square"/><rect id="rect4178" fill-rule="evenodd" height="7" stroke-linecap="square" stroke-width=".5" width="2" x="9" y="700"/><rect id="rect4180" fill-rule="evenodd" height="7" stroke-linecap="square" stroke-width=".5" width="2" x="9" y="723"/><path id="line4182" d="m13 715h-6m3-3v6"/></g><path id="d1" d="m127.00001 20.25a61.249594 19.499601 0 0 1 -61.25001-19.5h122.50001a61.249594 19.499601 0 0 1 -61.25 19.5z" fill="none" stroke="#666" stroke-linecap="round" stroke-linejoin="round" stroke-width="2.50000024"/><path id="d2" d="m375 20.25a61.249588 19.499601 0 0 1 -61.24999-19.5h122.49999a61.249588 19.499601 0 0 1 -61.25 19.5z" fill="none" stroke="#666" stroke-linecap="round" stroke-linejoin="round" stroke-width="2.5"/><path id="d3" d="m623 20.25a61.249588 19.499601 0 0 1 -61.25-19.5h122.5a61.249588 19.499601 0 0 1 -61.25 19.5z" fill="none" stroke="#666" stroke-linecap="round" stroke-linejoin="round" stroke-width="2.5"/><path id="d4" d="m127.00001 729.75a61.249594 19.499601 0 0 0 -61.25001 19.5h122.50001a61.249594 19.499601 0 0 0 -61.25-19.5z" fill="none" stroke="#666" stroke-linecap="round" stroke-linejoin="round" stroke-width="2.50000024"/><path id="d5" d="m375 729.75a61.249588 19.499601 0 0 0 -61.25 19.5h122.5a61.249588 19.499601 0 0 0 -61.25-19.5z" fill="none" stroke="#666" stroke-linecap="round" stroke-linejoin="round" stroke-width="2.5"/><path id="d6" d="m623 729.75a61.249588 19.499601 0 0 0 -61.25 19.5h122.5a61.249588 19.499601 0 0 0 -61.25-19.5z" fill="none" stroke="#666" stroke-linecap="round" stroke-linejoin="round" stroke-width="2.5"/><text id="textTop" font-family="sans-serif" font-size="20" letter-spacing="0" line-height="125%" text-anchor="middle" word-spacing="0" x="375.20996" xml:space="preserve" y="36.041092"><tspan id="tspan4155" x="375.20996" y="36.041092">Text</tspan></text><text id="textBottom" font-family="sans-serif" font-size="20" letter-spacing="0" line-height="125%" text-anchor="middle" word-spacing="0" x="375.20996" xml:space="preserve" y="728.24609"><tspan id="tspan4205" x="375.20996" y="728.24609">Text</tspan></text></g></svg>