<svg id="svg4171" height="591" overflow="visible" viewBox="0 0 101 591" width="101" xmlns="http://www.w3.org/2000/svg"><g id="layer1"><rect id="frame" fill="#575d5e" height="590" stroke="#000" stroke-linejoin="round" width="100"/><g id="details"><g id="g3799"><rect id="rect4231-3" fill="#008000" height="7" stroke="#000" transform="rotate(-90)" width="19" x="-227.5" y="5.5000024"/><text id="text4152-3" line-height="100%" style="font-weight:bold;font-size:11.30000019;font-family:sans-serif;letter-spacing:0;word-spacing:0;fill:#fff" transform="rotate(-90)" x="-220.12524" xml:space="preserve" y="10.81763"><tspan id="tspan4154-0" fill="#fff" font-family="sans-serif" font-size="5" font-weight="bold" line-height="100%" x="-220.12524" y="10.81763">O</tspan></text></g><g id="g3811"><rect id="rect6990" fill="#c6bfb3" height="10" stroke="#000" stroke-width=".99999994" transform="rotate(-90)" width="14.5" x="-590" y="83"/><path id="path6992" d="m54.000039 589.49991v-552.49999" fill="none" stroke="#333"/><path id="path6994" d="m96.00005 589.49992v-552.5" fill="none" stroke="#333" stroke-width=".99999994"/><path id="path6996" d="m .5 36.49992h99" fill="none" stroke="#333"/><rect id="rect6988-5" fill="#c6bfb3" height="10" stroke="#000" stroke-width=".99999994" transform="rotate(-90)" width="14.5" x="-590" y="8.5000029"/><path id="path6992-0" d="m4.0000402 589.49991v-552.49999" fill="none" stroke="#333" stroke-width="1.00000012"/><path id="path6994-1" d="m47.00005 589.49992v-552.5" fill="none" stroke="#333" stroke-width=".99999994"/></g><g id="g3827"><g id="g4610"><circle id="path4158-0" cx="-20.5" cy="52.968754" fill="#32312f" r="13" stroke="#333" transform="rotate(-90)"/><circle id="path4160-8" cx="-20.5" cy="52.968754" fill="#575d5e" r="10" stroke="#333" transform="rotate(-90)"/><path id="path4185-1" d="m48.70448 20.5a4.264241 4.2192875 0 0 0 3.3166 4.10941v2.45393h1.8952v-2.45576a4.264241 4.2192875 0 0 0 3.3167-4.10758 4.264241 4.2192875 0 0 0 -3.3167-4.10942v-2.45392h-1.8952v2.45577a4.264241 4.2192875 0 0 0 -3.3166 4.10757z" fill="#434447" stroke="#333" stroke-linejoin="round"/><circle id="path4183-4" cx="-20.5" cy="52.968754" fill="#333" r="1.5" transform="rotate(-90)"/></g><path id="path5037-7" d="m36.53125 20.50001a.37500067.37500067 0 0 0 -.375-.37501c-.20806 0-.375.16866-.375.37501a.37500067.37500067 0 0 0  .375.37499.37500067.37500067 0 0 0  .375-.37499m-1.68749-1.12501a.37500067.37500067 0 0 1  .375-.375h1.875a.37500067.37500067 0 0 1  .375.375v2.25a.37500067.37500067 0 0 1 -.375.375h-1.875c-.20806 0-.375-.16886-.375-.375v-.18751h-.375a.9375017.9375017 0 0 1 -.93751-.93748.9375017.9375017 0 0 1  .93751-.93753h.375v-.1875m-.93751 1.125a.56250101.56250101 0 0 0  .56251.56249h.375v-1.125h-.375a.56250101.56250101 0 0 0 -.56251.56251z" fill="#333"/><path id="path5048-4" d="m52.31251 2.375a.375.375 0 0 1  .375-.375h1.875a.375.375 0 0 1  .375.375v2.25c0 .20813-.16875.375-.375.375h-1.875a.375.375 0 0 1 -.375-.375v-1.6875h-.375a.5625.5625 0 0 0 -.5625.5625.5625.5625 0 0 0  .5625.5625v.375a.9375.9375 0 0 1 -.9375-.9375.9375.9375 0 0 1  .9375-.9375h.375zm1.6875 1.125a.375.375 0 0 0 -.375-.375.375.375 0 0 0 -.375.375.375.375 0 0 0  .375.375.375.375 0 0 0  .375-.375z" fill="#333"/></g></g><g id="windows"><rect id="rect4743" fill="#e6e6e6" height="39" stroke="#000" stroke-linejoin="round" stroke-width=".99999982" transform="rotate(-90)" width="374" x="-413.48877" y="55.5"/><rect id="rect4215" fill="#97969b" height="39" stroke="#333" transform="rotate(-90)" width="8" x="-258.508" y="55.5"/><rect id="rect4217" fill="#97969b" height="39" stroke="#333" transform="rotate(-90)" width="8" x="-183.508" y="55.5"/><rect id="rect4295" fill="#e6e6e6" height="39" stroke="#000" stroke-linejoin="bevel" stroke-width=".99999994" transform="rotate(-90)" width="119" x="-543.5" y="55.5"/><rect id="rect4743-6" fill="#e6e6e6" height="39" stroke="#000" stroke-linejoin="round" stroke-width=".99999982" transform="rotate(-90)" width="136" x="-175.5" y="6"/></g><g id="labelData"><rect id="rect4295-7" fill="#333" height="41" transform="rotate(-90)" width="120" x="-544" y="5"/><rect id="rect4592-7" fill="#bb1e10" height="8" transform="rotate(-90)" width="120" x="-544" y="5"/><path id="path4600-6" d="m13.043618 544v-120" fill="none" stroke="#fff"/><path id="path4598-7" d="m6 539.04081l2.9399998.78704v-1.62585h-2.9399998zm0-.95881h2.9399998v-1.62587l-2.9399998.78692zm0-3.36001h2.9399998v-1.74h-2.9399998zm0-1.86h2.9399998v-1.82145a1.8000015 1.8000015 0 0 0 -.41331.62285 1.3500011 1.3500011 0 0 0 -1.1766898-.69152 1.3500011 1.3500011 0 0 0 -1.35 1.35 1.3500011 1.3500011 0 0 0  0 .00015v.53999zm0-2.82h2.9399998v-1.74h-2.9399998zm0-1.86h2.9399998v-1.82145a1.8000015 1.8000015 0 0 0 -.41331.62285 1.3500011 1.3500011 0 0 0 -1.1766898-.69152 1.3500011 1.3500011 0 0 0 -1.35 1.35 1.3500011 1.3500011 0 0 0  0 .00015v.54zm3.0599998 11.67798l2.9400002.78703v-1.5l-1.19999-.31806v-.62694h-1.7400102zm0-1.77797h1.7400102v-.62707l1.19999-.31794v-1.5l-2.9400002.78691zm0-3.36001h2.9400002v-1.74h-2.9400002zm0-1.86h2.9400002v-.54a1.8000015 1.8000015 0 0 0 0-.00016 1.8000015 1.8000015 0 0 0 -1.79999-1.79999 1.8000015 1.8000015 0 0 0 -1.1400102.41004v1.93007zm0-2.82h2.9400002v-1.74h-2.9400002zm0-1.86h2.9400002v-.54a1.8000015 1.8000015 0 0 0 0-.00015 1.8000015 1.8000015 0 0 0 -1.79999-1.8 1.8000015 1.8000015 0 0 0 -1.1400102.41004v1.93008z" fill="#fff" overflow="visible"/><text id="text4594-0" line-height="100%" style="font-weight:bold;font-size:7.93798447;font-family:sans-serif;letter-spacing:0;word-spacing:0;fill:#fff" transform="rotate(-90)" x="-448.25317" xml:space="preserve" y="11.883729"><tspan id="tspan4596-0" fill="#fff" font-family="sans-serif" font-size="7.93798447" font-weight="bold" line-height="100%" x="-448.25317" y="11.883729">XR1</tspan></text><path id="path5012-9" d="m29.100818 544c0-62 0-62 0-62" fill="none" stroke="#fff" stroke-width=".80000001"/><path id="path5024-4" d="m33.100818 544c0-62 0-62 0-62" fill="none" stroke="#fff" stroke-width=".80000001"/><path id="path5026-0" d="m37.100818 544c0-43.125 0-43.125 0-43.125" fill="none" stroke="#fff" stroke-width=".80000001"/><path id="path5028-0" d="m41.100818 544c0-43.125 0-43.125 0-43.125" fill="none" stroke="#fff" stroke-width=".80000001"/><path id="path5030-6" d="m45.100818 544c0-62 0-62 0-62" fill="none" stroke="#fff" stroke-width=".80000001"/><path id="path5032-1" d="m45.100818 501.125h-16" fill="none" stroke="#fff" stroke-width=".80000001"/><g id="g3894" fill="#fff" stroke="#fff" stroke-width=".05"><path id="path3006-0" d="m37.39944 487.92267h.620426a1.4372791 1.474039 0 1 0 2.845074 0h .620427a2.0532558 2.10577 0 1 1 -4.085927 0z"/><path id="path3008-9" d="m39.134415 485.99324a1.4372791 1.474039 0 0 1 -1.114549-1.65038h-.620426a2.0532558 2.10577 0 1 0 4.085927 0h-.620427a1.4372791 1.474039 0 0 1 -1.114548 1.65038v-1.22922h-.615977z"/></g><path id="path5066-8" d="m31.187498 498.9375v-15.875" fill="none" stroke="#fff" stroke-dasharray=".5 2" stroke-linecap="round" stroke-width=".5"/><path id="path5068-5" d="m35.430138 542.07101v-15.875" fill="none" stroke="#fff" stroke-dasharray=".5 2" stroke-linecap="round" stroke-width=".5"/><path id="path5070-4" d="m31.010718 542.07101v-15.875" fill="none" stroke="#fff" stroke-dasharray=".5 2" stroke-linecap="round" stroke-width=".5"/><path id="path5072-4" d="m39.198218 542.07101v-15.875" fill="none" stroke="#fff" stroke-dasharray=".5 2" stroke-linecap="round" stroke-width=".5"/><path id="path5074-2" d="m39.198218 522.44601v-15.875" fill="none" stroke="#fff" stroke-dasharray=".5 2" stroke-linecap="round" stroke-width=".5"/><path id="path5076-4" d="m43.198188 541.15194v-34.28684" fill="none" stroke="#fff" stroke-dasharray="1.49999991 1.49999991" stroke-linecap="round" stroke-width=".49999997"/></g><g id="MOT"><rect id="rect7000-2" fill="#575d5e" height="50" stroke="#000" transform="rotate(-90)" width="144" x="-563.5"/><path id="path7002-7" d="m4 563.5v-144.99999" fill="none" stroke="#333" stroke-width=".99999994"/><path id="path7006-7" d="m47 563.5v-144.99999" fill="none" stroke="#333" stroke-width=".99999994"/><g id="g4007"><rect id="rect5215-9" fill="#333" height="41" stroke="#fff" stroke-linejoin="bevel" transform="rotate(-90)" width="110" x="-544" y="5"/><g id="g4073"><g id="g4113"><rect id="rect5219-1" fill="#bb1e10" height="7.2918925" transform="rotate(-90)" width="110" x="-544" y="5.168416"/><path id="path5221-3" d="m12.500059 544v-110" fill="none" stroke="#fff"/><path id="path5180-2-7" d="m5.456 539.04081l2.94.78704v-1.62585h-2.94zm0-.95881h2.94v-1.62587l-2.94.78692zm0-3.36001h2.94v-1.74h-2.94zm0-1.86h2.94v-1.82145a1.8000015 1.8000015 0 0 0 -.41331.62285 1.3500011 1.3500011 0 0 0 -1.17669-.69152 1.3500011 1.3500011 0 0 0 -1.35 1.35 1.3500011 1.3500011 0 0 0  0 .00015v.53999zm0-2.82h2.94v-1.74h-2.94zm0-1.86h2.94v-1.82145a1.8000015 1.8000015 0 0 0 -.41331.62285 1.3500011 1.3500011 0 0 0 -1.17669-.69152 1.3500011 1.3500011 0 0 0 -1.35 1.35 1.3500011 1.3500011 0 0 0  0 .00015v.54zm3.06 11.67798l2.94.78703v-1.5l-1.19999-.31806v-.62694h-1.74001zm0-1.77797h1.74001v-.62707l1.19999-.31794v-1.5l-2.94.78691zm0-3.36001h2.94v-1.74h-2.94zm0-1.86h2.94v-.54a1.8000015 1.8000015 0 0 0 0-.00016 1.8000015 1.8000015 0 0 0 -1.79999-1.79999 1.8000015 1.8000015 0 0 0 -1.14001.41004v1.93007zm0-2.82h2.94v-1.74h-2.94zm0-1.86h2.94v-.54a1.8000015 1.8000015 0 0 0 0-.00015 1.8000015 1.8000015 0 0 0 -1.79999-1.8 1.8000015 1.8000015 0 0 0 -1.14001.41004v1.93008z" fill="#fff" overflow="visible"/><g id="g4125" style="font-weight:bold;font-size:7.93798447;font-family:sans-serif;letter-spacing:0;word-spacing:0;fill:#fff"><text id="text5225-8" line-height="100%" transform="rotate(-90)" x="-456.25317" xml:space="preserve" y="11.340169"><tspan id="tspan5227-7" fill="#fff" font-family="sans-serif" font-size="7.93798447" font-weight="bold" line-height="100%" x="-456.25317" y="11.340169">XR1</tspan><tspan id="tspan4562" fill="#fff" x="-456.25317" y="11.340169"/></text></g></g><path id="path5229-4" d="m33.100879 544c0-62 0-62 0-62" fill="none" stroke="#fff" stroke-width=".80000001"/><path id="path5231-7" d="m37.100879 544c0-62 0-62 0-62" fill="none" stroke="#fff" stroke-width=".80000001"/><path id="path5233-8" d="m41.100879 544c0-43.125 0-43.125 0-43.125" fill="none" stroke="#fff" stroke-width=".80000001"/><path id="path5239-1" d="m45.100869 501.225h-12" fill="none" stroke="#fff" stroke-width=".80000007"/><g id="g4132" fill="#fff" stroke="#fff" stroke-width=".05"><path id="path5245-8" d="m39.399501 487.92267h.620426a1.4372791 1.474039 0 1 0 2.845074 0h .620427a2.0532558 2.10577 0 1 1 -4.085927 0z"/><path id="path5247-7" d="m41.134476 485.99324a1.4372791 1.474039 0 0 1 -1.114549-1.65038h-.620426a2.0532558 2.10577 0 1 0 4.085927 0h-.620427a1.4372791 1.474039 0 0 1 -1.114549 1.65038v-1.22922h-.615976z"/></g><path id="path5249-9" d="m35.187559 498.9375v-15.875" fill="none" stroke="#fff" stroke-dasharray=".5 2" stroke-linecap="round" stroke-width=".5"/><path id="path5251-4" d="m35.430199 542.07101v-15.875" fill="none" stroke="#fff" stroke-dasharray=".5 2" stroke-linecap="round" stroke-width=".5"/><path id="path5255-1" d="m39.198279 542.07101v-15.875" fill="none" stroke="#fff" stroke-dasharray=".5 2" stroke-linecap="round" stroke-width=".5"/><path id="path5257-0" d="m39.198279 522.44601v-15.875" fill="none" stroke="#fff" stroke-dasharray=".5 2" stroke-linecap="round" stroke-width=".5"/><path id="path5259-9" d="m43.198249 541.15194v-34.28684" fill="none" stroke="#fff" stroke-dasharray="1.49999991 1.49999991" stroke-linecap="round" stroke-width=".49999997"/><g id="g4139"><rect id="rect4510-9" fill="#f00" height="15" stroke="#fff" stroke-linejoin="round" stroke-width=".80000001" transform="rotate(-90)" width="15" x="-538.5" y="15.600057"/><text id="text5359-8" line-height="125%" style="font-weight:bold;font-size:11.81370544;font-family:Calibri;letter-spacing:0;word-spacing:0;fill:#fff" transform="rotate(-90)" x="-535.64935" xml:space="preserve" y="27.443928"><tspan id="tspan5361-3" font-size="13.75" x="-535.64935" y="27.443928">O</tspan></text></g><g id="g4147"><rect id="rect5370-7" fill="#007b00" height="15" stroke="#fff" stroke-linejoin="round" stroke-width=".80000001" transform="rotate(-90)" width="15" x="-500" y="15.600036"/><text id="text5372-0" line-height="125%" style="font-weight:bold;font-size:11.81370544;font-family:Calibri;letter-spacing:0;word-spacing:0;fill:#fff" transform="rotate(-90)" x="-494.33289" xml:space="preserve" y="27.314209"><tspan id="tspan5374-0" font-size="13.75" x="-494.33289" y="27.314209">I</tspan></text></g><path id="path5384-4" d="m13.043679 482.1h32.95638" fill="#fff" fill-rule="evenodd" stroke="#fff" stroke-width=".80000001"/><rect id="rect5386-7" fill="#706c69" height="12" rx="1" stroke="#000" stroke-linecap="round" stroke-linejoin="round" stroke-width=".80000001" transform="rotate(-90)" width="33" x="-478.60001" y="24.600037"/><rect id="rect5395-1" fill="none" height="25" rx="1" stroke="#fff" stroke-linecap="round" stroke-linejoin="round" stroke-width=".80000001" transform="rotate(-90)" width="6" x="-439.89999" y="17"/></g></g></g><g id="ITS"><rect id="rect4426-5" fill="#95919d" height="37.200001" stroke="#fff" stroke-linecap="round" stroke-linejoin="round" stroke-width=".80000001" transform="rotate(-90)" width="134.2" x="-174.60004" y="6.9000001"/><rect id="rect4677-4" fill="#bb1e10" height="8" transform="rotate(-90)" width="124.99992" x="-170" y="7.3565431"/><path id="path4679-0" d="m15.399973 170v-124.99992" fill="none" stroke="#fff"/><path id="path4681-3" d="m8.282 164.33981l2.94.78704v-1.62585h-2.94zm0-.95881h2.94v-1.62587l-2.94.78692zm0-3.36001h2.94v-1.74h-2.94zm0-1.86h2.94v-1.82145a1.8000015 1.8000015 0 0 0 -.41331.62285 1.3500011 1.3500011 0 0 0 -1.17669-.69152 1.3500011 1.3500011 0 0 0 -1.35 1.35 1.3500011 1.3500011 0 0 0  0 .00015v.53999zm0-2.82h2.94v-1.74h-2.94zm0-1.86h2.94v-1.82145a1.8000015 1.8000015 0 0 0 -.41331.62285 1.3500011 1.3500011 0 0 0 -1.17669-.69152 1.3500011 1.3500011 0 0 0 -1.35 1.35 1.3500011 1.3500011 0 0 0  0 .00015v.54zm3.06 11.67798l2.94.78703v-1.5l-1.19999-.31806v-.62694h-1.74001zm0-1.77797h1.74001v-.62707l1.19999-.31794v-1.5l-2.94.78691zm0-3.36001h2.94v-1.74h-2.94zm0-1.86h2.94v-.54a1.8000015 1.8000015 0 0 0 0-.00016 1.8000015 1.8000015 0 0 0 -1.79999-1.79999 1.8000015 1.8000015 0 0 0 -1.14001.41004v1.93007zm0-2.82h2.94v-1.74h-2.94zm0-1.86h2.94v-.54a1.8000015 1.8000015 0 0 0 0-.00015 1.8000015 1.8000015 0 0 0 -1.79999-1.8 1.8000015 1.8000015 0 0 0 -1.14001.41004v1.93008z" fill="#fff" overflow="visible"/><text id="text4683-6" line-height="100%" style="font-weight:bold;font-size:7.93798447;font-family:sans-serif;letter-spacing:0;word-spacing:0;fill:#fff" transform="rotate(-90)" x="-59.552429" xml:space="preserve" y="14.165809"><tspan id="tspan4685-5" fill="#fff" font-family="Aharoni" font-size="7.93798447" font-weight="bold" line-height="100%" x="-59.552429" y="14.165809">ITS</tspan></text><path id="path4747-7" d="m24.249973 174.19999v-133.4" fill="none" stroke="#fff" stroke-width=".49999997"/><path id="path4749-3" d="m37.749973 174.19999v-133.4" fill="none" stroke="#fff" stroke-width=".5"/><rect id="rect4751-4" fill="#6d686e" height="7" transform="rotate(-90)" width="125" x="-170.00003" y="16.499975"/><rect id="rect4753-2" fill="#6d686e" height="3" transform="rotate(-90)" width="125" x="-170.00003" y="38.799965"/><g id="g4213" stroke="#fff" stroke-linecap="round"><rect id="rect4806-0" fill="#0aa9d5" height="10" rx=".88458627" ry=".81087077" stroke-linejoin="round" stroke-width=".5" transform="rotate(-90)" width="10" x="-74.972984" y="25.999975"/><path id="path4815-2" d="m28.092893 81.43541v-3.76195" fill="none" stroke-dasharray=".49999999 1.99999997" stroke-width=".49999997"/><path id="path4817-7" d="m31.186453 84.08363v-6.41017" fill="none" stroke-dasharray=".49999998 1.99999994" stroke-width=".49999994"/></g><g id="g4220" fill="none" stroke="#fff" stroke-linecap="round"><path id="path4819-3" d="m28.092893 104.63968v-3.76195" stroke-dasharray=".49999999 1.99999997" stroke-width=".49999997"/><path id="path4821-6" d="m31.186453 105.96379v-6.41017" stroke-dasharray=".49999998 1.99999994" stroke-width=".49999994"/></g><g id="g4227" fill="#fff"><rect id="rect4823-5" height="2" rx=".5" transform="rotate(-90)" width="2" x="-125.18021" y="27.499975"/><rect id="rect4829-9" height="2" rx=".5" transform="rotate(-90)" width="2" x="-123.18021" y="31.499975"/><rect id="rect4831-4" height="2" rx=".5" transform="rotate(-90)" width="2" x="-127.18021" y="31.499975"/></g><g id="g4234"><rect id="rect4844-7" fill="#333" height="3.375" ry="1.6875" transform="rotate(-90)" width="6.75" x="-168.125" y="31.124975"/><path id="path4847-2" d="m28.092893 165.43545v-3.76195" fill="none" stroke="#fff" stroke-dasharray=".49999999 1.99999997" stroke-linecap="round" stroke-width=".49999997"/></g><g id="g4240"><path id="path4835-7" d="m29.769973 143.42261l.27187.27188c.19688-.32438.55126-.54188.95813-.54188a1.125 1.125 0 0 1 1.125 1.125 1.125 1.125 0 0 1 -1.125 1.125c-.40687 0-.76125-.2175-.96-.54l-.27.27c.27.39.72.645 1.23.645a1.5 1.5 0 0 0 1.5-1.5 1.5 1.5 0 0 0 -1.5-1.5c-.51 0-.96.255-1.23.645m-.4575.6675v.375h1.875v-.375" fill="#fff"/><path id="path4849-9" d="m34.092893 146.15858v-3.76195" fill="none" stroke="#fff" stroke-dasharray=".49999999 1.99999997" stroke-linecap="round" stroke-width=".49999997"/></g><rect id="rect4977-0" fill="none" height="25" rx="1" stroke="#fff" stroke-linecap="round" stroke-linejoin="round" stroke-width=".80000001" transform="rotate(-90)" width="6" x="-46.400024" y="16.999914"/></g><g id="ekipDisplay"><rect id="rect5275-6" fill="#95919d" height="29.200001" stroke="#333" stroke-linecap="round" stroke-linejoin="round" stroke-width=".80000001" transform="rotate(-90)" width="119.2" x="-167.10004" y="7.7000003"/><rect id="rect5277-7" fill="#bb1e10" height="8" transform="rotate(-90)" width="118.5" x="-166.75003" y="8.0565672"/><path id="path5279-9" d="m16.099973 166.75003v-118.49999" fill="none" stroke="#fff" stroke-width=".99999994"/><path id="path5281-6" d="m8.982 162.33981l2.94.78704v-1.62585h-2.94zm0-.95881h2.94v-1.62587l-2.94.78692zm0-3.36001h2.94v-1.74h-2.94zm0-1.86h2.94v-1.82145a1.8000015 1.8000015 0 0 0 -.413307.62285 1.3500011 1.3500011 0 0 0 -1.176693-.69152 1.3500011 1.3500011 0 0 0 -1.35 1.35 1.3500011 1.3500011 0 0 0  0 .00015v.53999zm0-2.82h2.94v-1.74h-2.94zm0-1.86h2.94v-1.82145a1.8000015 1.8000015 0 0 0 -.413307.62285 1.3500011 1.3500011 0 0 0 -1.176693-.69152 1.3500011 1.3500011 0 0 0 -1.35 1.35 1.3500011 1.3500011 0 0 0  0 .00015v.54zm3.06 11.67798l2.94.78703v-1.5l-1.199993-.31806v-.62694h-1.740007zm0-1.77797h1.740007v-.62707l1.199993-.31794v-1.5l-2.94.78691zm0-3.36001h2.94v-1.74h-2.94zm0-1.86h2.94v-.54a1.8000015 1.8000015 0 0 0 0-.00016 1.8000015 1.8000015 0 0 0 -1.799993-1.79999 1.8000015 1.8000015 0 0 0 -1.140007.41004v1.93007zm0-2.82h2.94v-1.74h-2.94zm0-1.86h2.94v-.54a1.8000015 1.8000015 0 0 0 0-.00015 1.8000015 1.8000015 0 0 0 -1.799993-1.8 1.8000015 1.8000015 0 0 0 -1.140007.41004v1.93008z" fill="#fff" overflow="visible"/><text id="text5283-2" line-height="100%" style="font-weight:bold;font-size:7.93798447;font-family:sans-serif;letter-spacing:0;word-spacing:0;fill:#fff" transform="rotate(-90)" x="-79.552429" xml:space="preserve" y="13.567187"><tspan id="tspan5285-6" fill="#fff" font-family="Aharoni" font-size="5" font-weight="bold" line-height="100%" x="-79.552429" y="13.567187">Ekip Display</tspan></text><g id="g4426"><g id="g4480" stroke="#fff" stroke-linecap="round"><rect id="rect5297-7" fill="#0aa9d5" height="7.5" rx=".88458627" ry=".60815305" stroke-linejoin="round" stroke-width=".49999991" transform="rotate(-90)" width="10" x="-153.50003" y="18.049976"/><g id="g4488" fill="none"><path id="path5719-8" d="m21.847603 145.35798l-.00002 5.83294"/><path id="path5721-7" d="m23.212673 149.99099l-1.36509 1.43324-1.46031-1.53321"/></g></g><g id="g4520"><rect id="rect5532-2" fill="#0aa9d5" height="17" rx="1" ry="1.1333332" transform="rotate(-90)" width="65" x="-140.00003" y="17.799976"/><g id="g4557"><g id="g4571"><g id="g4619" fill="#675f90"><rect id="rect5311-1" height="2.9166665" rx=".72916663" transform="rotate(-90)" width="2.9166665" x="-87.774323" y="21.924932"/><rect id="rect5313-0" height="2.9166665" rx=".72916663" transform="rotate(-90)" width="2.9166665" x="-84.857666" y="27.758266"/><rect id="rect5315-4" height="2.9166665" rx=".72916663" transform="rotate(-90)" width="2.9166665" x="-90.690979" y="27.758266"/></g><path id="path5555-6" d="m26.299977 90.73655v-8.84114" fill="none" stroke="#665f91" stroke-linecap="round" stroke-width=".5"/></g><rect id="rect5557-1" fill="none" height="12.5" stroke="#665f91" stroke-linecap="round" stroke-linejoin="round" stroke-width=".5" transform="rotate(-90)" width="12.5" x="-92.565979" y="20.049978"/></g><g id="g4583" fill="none" stroke-linecap="round"><rect id="rect5605-4" height="12.5" stroke="#665f91" stroke-linejoin="round" stroke-width=".5" transform="rotate(-90)" width="12.5" x="-107.15802" y="20.049976"/><g id="g4593" stroke="#655f92" stroke-width=".99999994"><path id="path5709-6" d="m21.445928 105.51956c9.353182 0 9.710166 0 9.710166 0v-9.216"/><path id="path5711-8" d="m31.156094 105.1623l-6.247348-6.25107"/><path id="path5713-8" d="m27.72898 98.66119h-3.070129v3.28626"/></g></g><g id="g4600" fill="none" stroke-linecap="round" stroke-linejoin="round"><rect id="rect5589-7" height="12.5" stroke="#665f91" stroke-width=".49999997" transform="rotate(-90)" width="12.5" x="-121.75003" y="20.049973"/><rect id="rect5789-0" height="9.5" stroke="#655f92" stroke-width="1.50000012" transform="rotate(-90)" width="9.5" x="-120.25003" y="21.549973"/></g><path id="path5791-2" d="m19.518723 125.5625h13.5625" fill="none" stroke="#655f92" stroke-linecap="round" stroke-width=".5"/><g id="g4612"><rect id="rect5804-7" fill="#675f90" height="2.7230251" rx=".68075627" transform="rotate(-90)" width="2.7230251" x="-134.38315" y="22.215439"/><path id="path5810-5" d="m26.29997 137.13055v-8.25417" fill="none" stroke="#665f91" stroke-linecap="round" stroke-width=".5"/><g id="g4624" fill="none" stroke="#665f91" stroke-linecap="round" stroke-width=".5"><path id="path5840-6" d="m28.33547 137.20295l2.76213-2.76214"/><path id="path5842-2" d="m28.33547 134.44082l2.76214 2.76212"/></g><g id="g4630" fill="none" stroke="#665f91" stroke-linecap="round" stroke-width=".5"><path id="path5850-7" d="m28.33547 131.60246l2.76213-2.76214"/><path id="path5852-6" d="m28.33547 128.84033l2.76214 2.76212"/></g></g></g><g id="g4637"><rect id="rect5528-6" fill="#0aa9d5" height="7.5" rx=".88458627" ry=".6081531" stroke="#fff" stroke-linecap="round" stroke-linejoin="round" stroke-width=".5" transform="rotate(-90)" width="10" x="-153.50003" y="27.049973"/><text id="text5891-8" line-height="100%" style="font-weight:bold;font-size:7.93798447;font-family:sans-serif;letter-spacing:0;word-spacing:0;fill:#fff" transform="rotate(-90)" x="-152.70535" xml:space="preserve" y="32.461349"><tspan id="tspan5893-4" fill="#fff" font-family="Aharoni" font-size="5" font-weight="bold" line-height="100%" x="-152.70535" y="32.461349">ESC</tspan></text></g><g id="g4646" stroke="#fff" stroke-linecap="round"><rect id="rect5534-7" fill="#0aa9d5" height="7.5" rx=".88458627" ry=".60815305" stroke-linejoin="round" stroke-width=".49999991" transform="rotate(-90)" width="10" x="-71.500061" y="18.049973"/><g id="g4654" fill="none"><path id="path5897-4" d="m21.8476 69.64211l-.00002-5.83294"/><path id="path5899-8" d="m23.21267 65.0091l-1.36509-1.43324-1.46031 1.53321"/></g></g><g id="g4662" stroke="#fff"><rect id="rect5536-8" fill="#0aa9d5" height="7.5" rx=".88458627" ry=".6081531" stroke-linecap="round" stroke-linejoin="round" stroke-width=".5" transform="rotate(-90)" width="10" x="-71.500061" y="27.049973"/><g id="g4670" fill="none"><path id="path5954-8" d="m27.65445 63.16213h3.65625v6.75"/><path id="path5956-2" d="m29.17008 67.49026l2.14062 2.14062 2.28125-2.28125"/></g></g></g><g id="g4677" fill="#fff" stroke="#fff" stroke-width=".05"><g id="g4684"><path id="path6017-2" d="m25.44458 161.24459h.731639a1.6949144 1.7373421 0 1 0 3.35506 0h .73164a2.4213064 2.4819173 0 1 1 -4.818339 0z"/><path id="path6019-0" d="m27.490554 158.9705a1.6949144 1.7373421 0 0 1 -1.314335-1.94517h-.731639a2.4213064 2.4819173 0 1 0 4.818339 0h-.73164a1.6949144 1.7373421 0 0 1 -1.314334 1.94517v-1.44879h-.726391z"/></g></g><circle id="path6046-9" cx="-160.5" cy="19.424976" fill="#0f0" r="1.5" transform="rotate(-90)"/><g id="g4693"><path id="path5916-5" d="m21.362463 56.50001a.37500067.37500067 0 0 0 -.375-.37501c-.20806 0-.375.16866-.375.37501a.37500067.37500067 0 0 0  .375.37499.37500067.37500067 0 0 0  .375-.37499m-1.68749-1.12501a.37500067.37500067 0 0 1  .375-.375h1.875a.37500067.37500067 0 0 1  .375.375v2.25a.37500067.37500067 0 0 1 -.375.375h-1.875c-.20806 0-.375-.16886-.375-.375v-.18751h-.375a.9375017.9375017 0 0 1 -.93751-.93748.9375017.9375017 0 0 1  .93751-.93753h.375v-.1875m-.93751 1.125a.56250101.56250101 0 0 0  .56251.56249h.375v-1.125h-.375a.56250101.56250101 0 0 0 -.56251.56251z" fill="#fff"/><path id="path5918-3" d="m19.674973 50.375a.375.375 0 0 1  .375-.375h1.875a.375.375 0 0 1  .375.375v2.25c0 .20813-.16875.375-.375.375h-1.875a.375.375 0 0 1 -.375-.375v-1.6875h-.375a.5625.5625 0 0 0 -.5625.5625.5625.5625 0 0 0  .5625.5625v.375a.9375.9375 0 0 1 -.9375-.9375.9375.9375 0 0 1  .9375-.9375h.375zm1.6875 1.125a.375.375 0 0 0 -.375-.375.375.375 0 0 0 -.375.375.375.375 0 0 0  .375.375.375.375 0 0 0  .375-.375z" fill="#fff"/><g id="g4702" fill="none" stroke="#333" stroke-linejoin="round"><circle id="path6048-1" cx="-53.862732" cy="29.229416" r="4.1000004" stroke-width=".80000007" transform="rotate(-90)"/><path id="path6052-0" d="m534.34375 724.63024l-3.84689-6.66301h7.69378z" stroke-width="1.18903399" transform="matrix(0 -.67525237 .67038663 0 -453.61997 414.67962)"/></g></g></g><g id="EFM"><rect id="rect5545" height="38" transform="rotate(-90)" width="135" x="-175" y="6.5"/><g id="g6896"><rect id="rect5547" fill="#6b7d89" height="35" rx="2" transform="rotate(-90)" width="87" x="-131" y="8"/><path id="path5554" d="m12.243407 44a15 15 0 0 0 13.25586 8 15 15 0 0 0  13.25586-8z" fill="#333"/><circle id="path5572" cx="-60.404785" cy="14.100464" fill="#f00" r="2" transform="rotate(-90)"/><circle id="circle5574" cx="-60.404785" cy="20.100464" fill="#008000" r="2" transform="rotate(-90)"/></g></g><g id="fuse3"><rect id="rect3604" fill="#e3d8c2" height="55" rx="2" width="32" x="59" y="435"/><path id="path3665" d="m69.203607 440.497l-.78704 2.94h1.625853v-2.94zm.958813 0v2.94h1.625867l-.78692-2.94zm3.360013 0v2.94h1.74v-2.94zm1.86 0v2.94h1.821447a1.8000015 1.8000015 0 0 0 -.622853-.41331 1.3500011 1.3500011 0 0 0  .691526-1.17669 1.3500011 1.3500011 0 0 0 -1.35-1.35 1.3500011 1.3500011 0 0 0 -.000153 0h-.539993zm2.82 0v2.94h1.74v-2.94zm1.86 0v2.94h1.821447a1.8000015 1.8000015 0 0 0 -.622847-.41331 1.3500011 1.3500011 0 0 0  .69152-1.17669 1.3500011 1.3500011 0 0 0 -1.35-1.35 1.3500011 1.3500011 0 0 0 -.000153 0h-.54zm-11.67798 3.06l-.787033 2.94h1.5l.31806-1.19999h.62694v-1.74001zm1.777967 0v1.74001h.627073l.31794 1.19999h1.5l-.786913-2.94zm3.360013 0v2.94h1.74v-2.94zm1.86 0v2.94h.54a1.8000015 1.8000015 0 0 0  .000154 0 1.8000015 1.8000015 0 0 0  1.799993-1.79999 1.8000015 1.8000015 0 0 0 -.41004-1.14001h-1.930073zm2.82 0v2.94h1.74v-2.94zm1.86 0v2.94h.54a1.8000015 1.8000015 0 0 0  .000147 0 1.8000015 1.8000015 0 0 0  1.8-1.79999 1.8000015 1.8000015 0 0 0 -.41004-1.14001h-1.93008z" overflow="visible"/><path id="path11850" d="m63.014242 457.9999h8.838835" fill="none" stroke="#000" stroke-dasharray="2 4" stroke-linecap="round" stroke-width="2"/><path id="path11852" d="m63.014242 477.9999h15.909902" fill="none" stroke="#000" stroke-dasharray="2 4" stroke-linecap="round" stroke-width="2"/><path id="path11854" d="m63.014242 481.9999h23.864854" fill="none" stroke="#000" stroke-dasharray="2 6" stroke-linecap="round" stroke-width="2"/><path id="path11856" d="m86.50005 454.28389v10.16466" fill="none" stroke="#000" stroke-dasharray="1 4" stroke-linecap="round"/><path id="path12736" d="m83.50005 454.28389v10.16466" fill="none" stroke="#000" stroke-dasharray="1 4" stroke-linecap="round"/><path id="path12816" d="m63.014242 461.9999h8.838835" fill="none" stroke="#000" stroke-dasharray="2 4" stroke-linecap="round" stroke-width="2"/><g id="g12822"><rect id="rect12818" fill="#e3d8c2" height="10" width="6" x="72" y="425"/><rect id="rect12820" fill="#929396" height="2" rx="1" width="30" x="60" y="433"/></g></g><g id="fuse1"><rect id="rect6344" fill="#e3d8c2" height="55" rx="2" width="32" x="59" y="194"/><path id="path5180-2" d="m69.203607 199.497l-.78704 2.94h1.625853v-2.94zm.958813 0v2.94h1.625867l-.78692-2.94zm3.360013 0v2.94h1.74v-2.94zm1.86 0v2.94h1.821447a1.8000015 1.8000015 0 0 0 -.622853-.41331 1.3500011 1.3500011 0 0 0  .691526-1.17669 1.3500011 1.3500011 0 0 0 -1.35-1.35 1.3500011 1.3500011 0 0 0 -.000153 0h-.539993zm2.82 0v2.94h1.74v-2.94zm1.86 0v2.94h1.821447a1.8000015 1.8000015 0 0 0 -.622847-.41331 1.3500011 1.3500011 0 0 0  .69152-1.17669 1.3500011 1.3500011 0 0 0 -1.35-1.35 1.3500011 1.3500011 0 0 0 -.000153 0h-.54zm-11.67798 3.06l-.787033 2.94h1.5l.31806-1.19999h.62694v-1.74001zm1.777967 0v1.74001h.627073l.31794 1.19999h1.5l-.786913-2.94zm3.360013 0v2.94h1.74v-2.94zm1.86 0v2.94h.54a1.8000015 1.8000015 0 0 0  .000154 0 1.8000015 1.8000015 0 0 0  1.799993-1.79999 1.8000015 1.8000015 0 0 0 -.41004-1.14001h-1.930073zm2.82 0v2.94h1.74v-2.94zm1.86 0v2.94h.54a1.8000015 1.8000015 0 0 0  .000147 0 1.8000015 1.8000015 0 0 0  1.8-1.79999 1.8000015 1.8000015 0 0 0 -.41004-1.14001h-1.93008z" overflow="visible"/><path id="path6348" d="m63.014242 216.9999h8.838835" fill="none" stroke="#000" stroke-dasharray="2 4" stroke-linecap="round" stroke-width="2"/><path id="path6350" d="m63.014242 236.9999h15.909902" fill="none" stroke="#000" stroke-dasharray="2 4" stroke-linecap="round" stroke-width="2"/><path id="path6352" d="m63.014242 240.9999h23.864854" fill="none" stroke="#000" stroke-dasharray="2 6" stroke-linecap="round" stroke-width="2"/><path id="path6354" d="m86.50005 213.28389v10.16466" fill="none" stroke="#000" stroke-dasharray="1 4" stroke-linecap="round"/><path id="path6356" d="m83.50005 213.28389v10.16466" fill="none" stroke="#000" stroke-dasharray="1 4" stroke-linecap="round"/><path id="path6358" d="m63.014242 220.9999h8.838835" fill="none" stroke="#000" stroke-dasharray="2 4" stroke-linecap="round" stroke-width="2"/><g id="g6360"><rect id="rect6362" fill="#e3d8c2" height="10" width="6" x="72" y="184"/><rect id="rect6364" fill="#929396" height="2" rx="1" width="30" x="60" y="192"/></g></g><g id="fuse2"><rect id="rect12892" fill="#e3d8c2" height="55" rx="2" width="32" x="59" y="269"/><path id="path3663" d="m69.203607 274.497l-.78704 2.94h1.625853v-2.94zm.958813 0v2.94h1.625867l-.78692-2.94zm3.360013 0v2.94h1.74v-2.94zm1.86 0v2.94h1.821447a1.8000015 1.8000015 0 0 0 -.622853-.41331 1.3500011 1.3500011 0 0 0  .691526-1.17669 1.3500011 1.3500011 0 0 0 -1.35-1.35 1.3500011 1.3500011 0 0 0 -.000153 0h-.539993zm2.82 0v2.94h1.74v-2.94zm1.86 0v2.94h1.821447a1.8000015 1.8000015 0 0 0 -.622847-.41331 1.3500011 1.3500011 0 0 0  .69152-1.17669 1.3500011 1.3500011 0 0 0 -1.35-1.35 1.3500011 1.3500011 0 0 0 -.000153 0h-.54zm-11.67798 3.06l-.787033 2.94h1.5l.31806-1.19999h.62694v-1.74001zm1.777967 0v1.74001h.627073l.31794 1.19999h1.5l-.786913-2.94zm3.360013 0v2.94h1.74v-2.94zm1.86 0v2.94h.54a1.8000015 1.8000015 0 0 0  .000154 0 1.8000015 1.8000015 0 0 0  1.799993-1.79999 1.8000015 1.8000015 0 0 0 -.41004-1.14001h-1.930073zm2.82 0v2.94h1.74v-2.94zm1.86 0v2.94h.54a1.8000015 1.8000015 0 0 0  .000147 0 1.8000015 1.8000015 0 0 0  1.8-1.79999 1.8000015 1.8000015 0 0 0 -.41004-1.14001h-1.93008z" overflow="visible"/><path id="path12896" d="m63.014242 291.9999h8.838835" fill="none" stroke="#000" stroke-dasharray="2 4" stroke-linecap="round" stroke-width="2"/><path id="path12898" d="m63.014242 311.9999h15.909902" fill="none" stroke="#000" stroke-dasharray="2 4" stroke-linecap="round" stroke-width="2"/><path id="path12900" d="m63.014242 315.9999h23.864854" fill="none" stroke="#000" stroke-dasharray="2 6" stroke-linecap="round" stroke-width="2"/><path id="path12902" d="m86.50005 288.28389v10.16466" fill="none" stroke="#000" stroke-dasharray="1 4" stroke-linecap="round"/><path id="path12904" d="m83.50005 288.28389v10.16466" fill="none" stroke="#000" stroke-dasharray="1 4" stroke-linecap="round"/><path id="path12906" d="m63.014242 295.9999h8.838835" fill="none" stroke="#000" stroke-dasharray="2 4" stroke-linecap="round" stroke-width="2"/><g id="g12908"><rect id="rect12910" fill="#e3d8c2" height="10" width="6" x="72" y="259"/><rect id="rect12912" fill="#929396" height="2" rx="1" width="30" x="60" y="267"/></g></g><g id="handle"><path id="rect7338" d="m2.81055 486.14453v39.59961h3.62109c1.10713 0 3.23224.31112 3.57031 1.7168v8.41211c-.00016.039-.002.40429-.002.40429v10.72266 5.97656h.002 79.99805.002v-5.97656-10.72266c0 0-.002-.34292-.002-.37695v-8.43945c.33807-1.40568 2.46318-1.7168 3.57031-1.7168h3.62109v-39.59961h-4.49062l-3.28867 4.85547v11.57227c0 5.47591.58505 10.27325-2.58594 13.76953-2.18402 2.40806-5.16797 2.6582-9.04492 2.6582h-10.14063-1.49023l7.5 4.94727 4.55664 6.98437.09375 8.56836-.0234 9.69922h-56.55273l-.0234-9.69922.0937-8.56836 4.55664-6.98437 7.5-4.94727h-1.49023-10.14063c-3.87695 0-6.8609-.25014-9.04492-2.6582-3.17099-3.49628-2.58594-8.29362-2.58594-13.76953v-11.57227l-3.28909-4.955z" fill="#575d5e" stroke="#000" stroke-linecap="square" stroke-linejoin="round" stroke-width=".80000001"/><path id="rect4766-6" d="m6.25 448c-3.4625 0-6.25 1.338-6.25 3v116c0 1.662 2.7875 3 6.25 3h15.73242 56.03906 15.72852c3.4625 0 6.25-1.338 6.25-3v-116c0-1.662-2.7875-3-6.25-3zm43.75 20.625c2.86927-.00032 5.73679.0636 8.5918.19141 2.85556.12782 5.69505.31946 8.50781.57421 2.81243.25533 5.59455.57343 8.33594.95313 2.74153.37954 5.43891.82019 8.08203 1.32031 2.64213.49985 5.22673 1.05849 7.74414 1.67383 1.93683.48655 3.83082 1.00647 5.67773 1.55859v55.10352h-2.69922v21.53711c-1.77684.8008-4.30343 1.3983-7.24023 1.66601v-3.51171c0-2.24193-4.00413-4.04688-8.97852-4.04688h-.0449v-3.75976c0-2.57772-3.74401-4.65235-8.39648-4.65235h-39.1543c-4.65248 0-8.40039 2.07463-8.40039 4.65235v3.75976h-.043c-4.97439 0-8.98242 1.80495-8.98242 4.04688v3.50976c-2.93567-.2679-5.4618-.86394-7.23828-1.66406v-21.53711h-2.69922v-55.13086c.1481-.0477.29654-.0953.44531-.14258 2.41412-.69326 4.90421-1.33207 7.46094-1.91406 2.5576-.58235 5.17871-1.10709 7.85351-1.57227 2.67318-.46488 5.39663-.86968 8.16016-1.21289 2.76498-.3437 5.56666-.6253 8.39453-.84375 2.82733-.21788 5.67724-.37237 8.53906-.46289 2.02484-.064 4.05411-.0959 6.08399-.0957zm-19.5 71.76172h39c1.662 0 3 1.338 3 3 0 1.662-1.338 3-3 3h-39c-1.662 0-3-1.338-3-3 0-1.662 1.338-3 3-3z" fill="#575d5e" stroke="#000" stroke-linejoin="bevel" stroke-width=".99999988"/><path id="path4846-4" d="m20.16178 539.5274h1.639c0-12.12007 13.05383-21.94532 28.19923-21.94532 15.1454.00001 28.30077 9.82526 28.30077 21.94532h1.962c0-14.2589-12.44465-24.3184-30.26277-24.3184-17.81812 0-29.83823 10.0595-29.83823 24.3184z" fill="#575d5e" stroke="#000" stroke-linejoin="bevel" stroke-width=".80000001"/><path id="path7315" d="m3.06079 562.03277v-31.99999" fill="none" stroke="#333" stroke-width=".99999976"/><path id="path7319" d="m96.94079 562.0328v-32" fill="none" stroke="#333"/><path id="path7330" d="m96.94078 476.03278v-27.5" fill="none" stroke="#333"/><path id="path7332" d="m3.06078 476.03278v-27.5" fill="none" stroke="#333"/></g><rect id="rect4617-1" fill="#fff" fill-rule="evenodd" height="18" width="60" x="20" y="547.04803"/><text id="textBottom" line-height="125%" style="font-weight:bold;font-size:5;font-family:sans-serif;letter-spacing:0;word-spacing:0;shape-rendering:crispEdges" x="48.122631" xml:space="preserve" y="562.74805"><tspan id="tspan4231-1" font-family="ABBvoice" font-size="20" font-weight="bold" x="24.952345" y="562.74805">TEXT</tspan></text></g></svg>