<svg id="svg4171" height="591" overflow="visible" viewBox="0 0 101 591" width="101" xmlns="http://www.w3.org/2000/svg"><g id="layer1"><rect id="frame" fill="#575d5e" height="590" stroke="#000" stroke-linejoin="round" width="50" x="50"/><g id="blindCover"><rect id="rect4170" fill="#575d5e" height="590" stroke="#000" stroke-linejoin="round" width="50"/><path id="path4231" d="m49.5 36.49999h-49" fill="none" stroke="#363636" stroke-width=".99999994"/><path id="rect4517" d="m-89.5 5.5h30v2h-30zm-412.60736 0h47v1.9999896h-47zm51.65866 0h47v1.9999896h-47zm51.65863 0h47v1.9999896h-47zm51.65866 0h47v1.9999896h-47zm51.65863 0h47v1.9999896h-47zm51.65863 0h47v1.9999896h-47zm51.65863 0h47v1.9999896h-47zm51.65863 0h47.000003v1.9999896h-47.000003zm-395.00311 0h30v2h-30zm446 6h30v2h-30zm-412.60736 0h47v1.99999h-47zm51.65866 0h47v1.99999h-47zm51.65863 0h47v1.99999h-47zm51.65866 0h47v1.99999h-47zm51.65863 0h47v1.99999h-47zm51.65863 0h47v1.99999h-47zm51.65863 0h47v1.99999h-47zm51.65863 0h47.000003v1.99999h-47.000003zm-395.00311 0h30v2h-30zm446 5.999998h30v2h-30zm-412.60736 0h47v1.99999h-47zm51.65866 0h47v1.99999h-47zm51.65863 0h47v1.99999h-47zm51.65866 0h47v1.99999h-47zm51.65863 0h47v1.99999h-47zm51.65863 0h47v1.99999h-47zm51.65863 0h47v1.99999h-47zm51.65863 0h47.000003v1.99999h-47.000003zm-395.00311 0h30v2h-30zm446 6h30v2h-30zm-412.60736 0h47v1.99999h-47zm51.65866 0h47v1.99999h-47zm51.65863 0h47v1.99999h-47zm51.65866 0h47v1.99999h-47zm51.65863 0h47v1.99999h-47zm51.65863 0h47v1.99999h-47zm51.65863 0h47v1.99999h-47zm51.65863 0h47.000003v1.99999h-47.000003zm-395.00311 0h30v2h-30zm446 6h30v2h-30zm-412.60736 0h47v1.99999h-47zm51.65866 0h47v1.99999h-47zm51.65863 0h47v1.99999h-47zm51.65866 0h47v1.99999h-47zm51.65863 0h47v1.99999h-47zm51.65863 0h47v1.99999h-47zm51.65863 0h47v1.99999h-47zm51.65863 0h47.000003v1.99999h-47.000003zm-395.00311 0h30v2h-30zm446 6.000002h30v2h-30zm-412.60736 0h47v1.99999h-47zm51.65866 0h47v1.99999h-47zm51.65863 0h47v1.99999h-47zm51.65866 0h47v1.99999h-47zm51.65863 0h47v1.99999h-47zm51.65863 0h47v1.99999h-47zm51.65863 0h47v1.99999h-47zm51.65863 0h47.000003v1.99999h-47.000003zm-395.00311 0h30v2h-30zm446 6h30v2h-30zm-412.60736 0h47v1.99999h-47zm51.65866 0h47v1.99999h-47zm51.65863 0h47v1.99999h-47zm51.65866 0h47v1.99999h-47zm51.65863 0h47v1.99999h-47zm51.65863 0h47v1.99999h-47zm51.65863 0h47v1.99999h-47zm51.65863 0h47.000003v1.99999h-47.000003zm-395.00311 0h30v2h-30z" fill="#444548" stroke="#353535" stroke-linejoin="bevel" transform="rotate(-90)"/><g id="g4966"><circle id="path4933" cx="-18" cy="24.5" fill="#434447" r="7.5000005" stroke="#363636" stroke-linejoin="bevel" transform="rotate(-90)"/><circle id="path4935" cx="-18" cy="24.5" fill="#ecedee" r="3.5" transform="rotate(-90)"/></g><g id="g4972"><circle id="circle4943" cx="-572.5" cy="24.5" fill="#454649" r="7.5000005" stroke="#363636" stroke-linejoin="bevel" transform="rotate(-90)"/><circle id="circle4945" cx="-572.5" cy="24.5" fill="#ecedee" r="3.5" transform="rotate(-90)"/></g></g><g id="windows"><rect id="rect4743" fill="#e6e6e6" height="39" stroke="#000" stroke-linejoin="round" stroke-width=".99999982" transform="rotate(-90)" width="374" x="-413.48874" y="55.5"/><g id="g7038"><rect id="rect4229" fill="#97969b" height="69" stroke="#333" width="12" x="55.5" y="182.99998"/><rect id="rect4215" fill="#97969b" height="39" stroke="#333" transform="rotate(-90)" width="8" x="-258.508" y="55.5"/><rect id="rect4217" fill="#97969b" height="39" stroke="#333" transform="rotate(-90)" width="8" x="-183.50798" y="55.5"/><g id="g7050"><rect id="rect4231" fill="#008000" height="7" stroke="#000" transform="rotate(-90)" width="19" x="-227.49998" y="55.5"/><text id="text4152" line-height="100%" style="font-weight:bold;font-size:11.30000019;font-family:sans-serif;letter-spacing:0;word-spacing:0;fill:#fff" transform="rotate(-90)" x="-220.12523" xml:space="preserve" y="60.817627"><tspan id="tspan4154" fill="#fff" font-family="sans-serif" font-size="5" font-weight="bold" line-height="100%" x="-220.12523" y="60.817627">O</tspan></text></g></g><rect id="rect4193" fill="#97969b" height="39" stroke="#333" transform="rotate(-90)" width="8" x="-333.508" y="55.5"/></g><g id="labelData"><rect id="rect4295" fill="#333" height="41" transform="rotate(-90)" width="120" x="-544" y="54.5"/><rect id="rect4592" fill="#bb1e10" height="8" transform="rotate(-90)" width="120" x="-544" y="54.5"/><path id="path4600" d="m62.543616 543.99999v-120" fill="none" stroke="#fff"/><path id="path4598" d="m55.5 539.04081l2.94.78704v-1.62585h-2.94zm0-.95881h2.94v-1.62587l-2.94.78692zm0-3.36001h2.94v-1.74h-2.94zm0-1.86h2.94v-1.82145a1.8000015 1.8000015 0 0 0 -.41331.62285 1.3500011 1.3500011 0 0 0 -1.17669-.69152 1.3500011 1.3500011 0 0 0 -1.35 1.35 1.3500011 1.3500011 0 0 0  0 .00015v.53999zm0-2.82h2.94v-1.74h-2.94zm0-1.86h2.94v-1.82145a1.8000015 1.8000015 0 0 0 -.41331.62285 1.3500011 1.3500011 0 0 0 -1.17669-.69152 1.3500011 1.3500011 0 0 0 -1.35 1.35 1.3500011 1.3500011 0 0 0  0 .00015v.54zm3.06 11.67798l2.94.78703v-1.5l-1.19999-.31806v-.62694h-1.74001zm0-1.77797h1.74001v-.62707l1.19999-.31794v-1.5l-2.94.78691zm0-3.36001h2.94v-1.74h-2.94zm0-1.86h2.94v-.54a1.8000015 1.8000015 0 0 0 0-.00016 1.8000015 1.8000015 0 0 0 -1.79999-1.79999 1.8000015 1.8000015 0 0 0 -1.14001.41004v1.93007zm0-2.82h2.94v-1.74h-2.94zm0-1.86h2.94v-.54a1.8000015 1.8000015 0 0 0 0-.00015 1.8000015 1.8000015 0 0 0 -1.79999-1.8 1.8000015 1.8000015 0 0 0 -1.14001.41004v1.93008z" fill="#fff" overflow="visible"/><g id="g7105" style="font-weight:bold;font-size:7.93798447;font-family:sans-serif;letter-spacing:0;word-spacing:0;fill:#fff"><text id="text4594" line-height="100%" transform="rotate(-90)" x="-450.25317" xml:space="preserve" y="61.383728"><tspan id="tspan4596" fill="#fff" font-family="sans-serif" font-size="7.93798447" font-weight="bold" line-height="100%" x="-450.25317" y="61.383728">XR00</tspan></text></g><path id="path5012" d="m78.600816 543.99999c0-62 0-62 0-62" fill="none" stroke="#fff" stroke-width=".80000001"/><path id="path5024" d="m82.600816 543.99999c0-62 0-62 0-62" fill="none" stroke="#fff" stroke-width=".80000001"/><path id="path5026" d="m86.600816 543.99999c0-43.125 0-43.125 0-43.125" fill="none" stroke="#fff" stroke-width=".80000001"/><path id="path5028" d="m90.600816 543.99999c0-43.125 0-43.125 0-43.125" fill="none" stroke="#fff" stroke-width=".80000001"/><path id="path5030" d="m94.600816 543.99999c0-62 0-62 0-62" fill="none" stroke="#fff" stroke-width=".80000001"/><path id="path5032" d="m94.600816 501.12499h-16" fill="none" stroke="#fff" stroke-width=".80000001"/><path id="path3006" d="m86.899438 487.92266h.620426a1.4372791 1.474039 0 1 0 2.845074 0h .620427a2.0532558 2.10577 0 1 1 -4.085927 0z" fill="#fff" stroke="#fff" stroke-width=".05"/><path id="path3008" d="m88.634413 485.99323a1.4372791 1.474039 0 0 1 -1.114549-1.65038h-.620426a2.0532558 2.10577 0 1 0 4.085927 0h-.620427a1.4372791 1.474039 0 0 1 -1.114548 1.65038v-1.22922h-.615977z" fill="#fff" stroke="#fff" stroke-width=".05"/><path id="path5066" d="m80.687496 498.93749v-15.875" fill="none" stroke="#fff" stroke-dasharray=".5 2" stroke-linecap="round" stroke-width=".5"/><path id="path5068" d="m84.930136 542.071v-15.875" fill="none" stroke="#fff" stroke-dasharray=".5 2" stroke-linecap="round" stroke-width=".5"/><path id="path5070" d="m80.510716 542.071v-15.875" fill="none" stroke="#fff" stroke-dasharray=".5 2" stroke-linecap="round" stroke-width=".5"/><path id="path5072" d="m88.698216 542.071v-15.875" fill="none" stroke="#fff" stroke-dasharray=".5 2" stroke-linecap="round" stroke-width=".5"/><path id="path5074" d="m88.698216 522.446v-15.875" fill="none" stroke="#fff" stroke-dasharray=".5 2" stroke-linecap="round" stroke-width=".5"/><path id="path5076" d="m92.698186 541.15193v-34.28684" fill="none" stroke="#fff" stroke-dasharray="1.49999991 1.49999991" stroke-linecap="round" stroke-width=".49999997"/></g><g id="MOT"><g id="g7196"><rect id="rect7000" fill="#575d5e" height="50" stroke="#000" transform="rotate(-90)" width="144" x="-563.5" y="50"/><path id="path7002" d="m52.999966 563.99999v-144.99999" fill="none" stroke="#333" stroke-width=".99999994"/><path id="path7006" d="m97 563.99999v-144.99999" fill="none" stroke="#333" stroke-width=".99999994"/></g><g id="g7231"><rect id="rect5215" fill="#333" height="41" stroke="#fff" stroke-linejoin="bevel" transform="rotate(-90)" width="110" x="-544.5" y="54.5"/><g id="g7268"><rect id="rect5219" fill="#bb1e10" height="7.2918925" transform="rotate(-90)" width="110" x="-544.5" y="54.668415"/><path id="path5221" d="m62.000057 544.49999v-110" fill="none" stroke="#fff"/><path id="path5180-2-9" d="m54.953 539.54081l2.94.78704v-1.62585h-2.94zm0-.95881h2.94v-1.62587l-2.94.78692zm0-3.36001h2.94v-1.74h-2.94zm0-1.86h2.94v-1.82145a1.8000015 1.8000015 0 0 0 -.41331.62285 1.3500011 1.3500011 0 0 0 -1.17669-.69152 1.3500011 1.3500011 0 0 0 -1.35 1.35 1.3500011 1.3500011 0 0 0  0 .00015v.53999zm0-2.82h2.94v-1.74h-2.94zm0-1.86h2.94v-1.82145a1.8000015 1.8000015 0 0 0 -.41331.62285 1.3500011 1.3500011 0 0 0 -1.17669-.69152 1.3500011 1.3500011 0 0 0 -1.35 1.35 1.3500011 1.3500011 0 0 0  0 .00015v.54zm3.06 11.67798l2.94.78703v-1.5l-1.19999-.31806v-.62694h-1.74001zm0-1.77797h1.74001v-.62707l1.19999-.31794v-1.5l-2.94.78691zm0-3.36001h2.94v-1.74h-2.94zm0-1.86h2.94v-.54a1.8000015 1.8000015 0 0 0 0-.00016 1.8000015 1.8000015 0 0 0 -1.79999-1.79999 1.8000015 1.8000015 0 0 0 -1.14001.41004v1.93007zm0-2.82h2.94v-1.74h-2.94zm0-1.86h2.94v-.54a1.8000015 1.8000015 0 0 0 0-.00015 1.8000015 1.8000015 0 0 0 -1.79999-1.8 1.8000015 1.8000015 0 0 0 -1.14001.41004v1.93008z" fill="#fff" overflow="visible"/><text id="text5225" line-height="100%" style="font-weight:bold;font-size:7.93798447;font-family:sans-serif;letter-spacing:0;word-spacing:0;fill:#fff" transform="rotate(-90)" x="-460.75317" xml:space="preserve" y="60.840168"><tspan id="tspan5227" fill="#fff" font-family="sans-serif" font-size="7.93798447" font-weight="bold" line-height="100%" x="-460.75317" y="60.840168">XR00</tspan></text></g><path id="path5229" d="m82.600877 544.49999c0-62 0-62 0-62" fill="none" stroke="#fff" stroke-width=".80000001"/><path id="path5231" d="m86.600877 544.49999c0-62 0-62 0-62" fill="none" stroke="#fff" stroke-width=".80000001"/><path id="path5233" d="m90.600877 544.49999c0-43.125 0-43.125 0-43.125" fill="none" stroke="#fff" stroke-width=".80000001"/><path id="path5239" d="m94.600867 501.72499h-12" fill="none" stroke="#fff" stroke-width=".80000007"/><path id="path5245" d="m88.899499 488.42266h.620426a1.4372791 1.474039 0 1 0 2.845074 0h .620427a2.0532558 2.10577 0 1 1 -4.085927 0z" fill="#fff" stroke="#fff" stroke-width=".05"/><path id="path5247" d="m90.634474 486.49323a1.4372791 1.474039 0 0 1 -1.114549-1.65038h-.620426a2.0532558 2.10577 0 1 0 4.085927 0h-.620427a1.4372791 1.474039 0 0 1 -1.114548 1.65038v-1.22922h-.615977z" fill="#fff" stroke="#fff" stroke-width=".05"/><path id="path5249" d="m84.687557 499.43749v-15.875" fill="none" stroke="#fff" stroke-dasharray=".5 2" stroke-linecap="round" stroke-width=".5"/><path id="path5251" d="m84.930197 542.571v-15.875" fill="none" stroke="#fff" stroke-dasharray=".5 2" stroke-linecap="round" stroke-width=".5"/><path id="path5255" d="m88.698277 542.571v-15.875" fill="none" stroke="#fff" stroke-dasharray=".5 2" stroke-linecap="round" stroke-width=".5"/><path id="path5257" d="m88.698277 522.946v-15.875" fill="none" stroke="#fff" stroke-dasharray=".5 2" stroke-linecap="round" stroke-width=".5"/><path id="path5259" d="m92.698247 541.65193v-34.28684" fill="none" stroke="#fff" stroke-dasharray="1.49999991 1.49999991" stroke-linecap="round" stroke-width=".49999997"/><g id="g7279"><rect id="rect4510" fill="#f00" height="15" stroke="#fff" stroke-linejoin="round" stroke-width=".80000001" transform="rotate(-90)" width="15" x="-539" y="65.100052"/><g id="g7287" style="font-weight:bold;font-size:11.81370544;font-family:Calibri;letter-spacing:0;word-spacing:0;fill:#fff"><text id="text5359" line-height="125%" transform="rotate(-90)" x="-536.14935" xml:space="preserve" y="76.943924"><tspan id="tspan5361" font-size="13.75" x="-536.14935" y="76.943924">O</tspan></text></g></g><g id="g7294"><rect id="rect5370" fill="#007b00" height="15" stroke="#fff" stroke-linejoin="round" stroke-width=".80000001" transform="rotate(-90)" width="15" x="-500.5" y="65.100037"/><text id="text5372" line-height="125%" style="font-weight:bold;font-size:11.81370544;font-family:Calibri;letter-spacing:0;word-spacing:0;fill:#fff" transform="rotate(-90)" x="-494.83289" xml:space="preserve" y="76.814209"><tspan id="tspan5374" font-size="13.75" x="-494.83289" y="76.814209">I</tspan></text></g><path id="path5384" d="m62.543677 482.59999h32.95638" fill="#fff" fill-rule="evenodd" stroke="#fff" stroke-width=".80000001"/><rect id="rect5386" fill="#706c69" height="12" rx="1" stroke="#000" stroke-linecap="round" stroke-linejoin="round" stroke-width=".80000001" transform="rotate(-90)" width="33" x="-479.09998" y="74.100037"/><rect id="rect5395" fill="none" height="25" rx="1" stroke="#fff" stroke-linecap="round" stroke-linejoin="round" stroke-width=".80000001" transform="rotate(-90)" width="6" x="-440.39999" y="66.5"/></g></g><g id="ITS"><rect id="rect4426" fill="#95919d" height="37.200001" stroke="#fff" stroke-linecap="round" stroke-linejoin="round" stroke-width=".80000001" transform="rotate(-90)" width="134.2" x="-174.60001" y="56.400002"/><rect id="rect4677" fill="#bb1e10" height="8" transform="rotate(-90)" width="124.99992" x="-169.99997" y="56.856544"/><path id="path4679" d="m64.899972 169.99995v-124.999917" fill="none" stroke="#fff"/><path id="path4681" d="m57.782 164.33981l2.94.78704v-1.62585h-2.94zm0-.95881h2.94v-1.62587l-2.94.78692zm0-3.36001h2.94v-1.74h-2.94zm0-1.86h2.94v-1.82145a1.8000015 1.8000015 0 0 0 -.41331.62285 1.3500011 1.3500011 0 0 0 -1.17669-.69152 1.3500011 1.3500011 0 0 0 -1.35 1.35 1.3500011 1.3500011 0 0 0  0 .00015v.53999zm0-2.82h2.94v-1.74h-2.94zm0-1.86h2.94v-1.82145a1.8000015 1.8000015 0 0 0 -.41331.62285 1.3500011 1.3500011 0 0 0 -1.17669-.69152 1.3500011 1.3500011 0 0 0 -1.35 1.35 1.3500011 1.3500011 0 0 0  0 .00015v.54zm3.06 11.67798l2.94.78703v-1.5l-1.19999-.31806v-.62694h-1.74001zm0-1.77797h1.74001v-.62707l1.19999-.31794v-1.5l-2.94.78691zm0-3.36001h2.94v-1.74h-2.94zm0-1.86h2.94v-.54a1.8000015 1.8000015 0 0 0 0-.00016 1.8000015 1.8000015 0 0 0 -1.79999-1.79999 1.8000015 1.8000015 0 0 0 -1.14001.41004v1.93007zm0-2.82h2.94v-1.74h-2.94zm0-1.86h2.94v-.54a1.8000015 1.8000015 0 0 0 0-.00015 1.8000015 1.8000015 0 0 0 -1.79999-1.8 1.8000015 1.8000015 0 0 0 -1.14001.41004v1.93008z" fill="#fff" overflow="visible"/><text id="text4683" line-height="100%" style="font-weight:bold;font-size:7.93798447;font-family:sans-serif;letter-spacing:0;word-spacing:0;fill:#fff" transform="rotate(-90)" x="-59.552391" xml:space="preserve" y="63.66581"><tspan id="tspan4685" fill="#fff" font-family="Aharoni" font-size="7.93798447" font-weight="bold" line-height="100%" x="-59.552391" y="63.66581">ITS</tspan></text><path id="path4747" d="m73.749972 174.19994v-133.399997" fill="none" stroke="#fff" stroke-width=".49999997"/><path id="path4749" d="m87.249972 174.19994v-133.399997" fill="none" stroke="#fff" stroke-width=".5"/><rect id="rect4751" fill="#6d686e" height="7" transform="rotate(-90)" width="125" x="-170" y="65.999977"/><rect id="rect4753" fill="#6d686e" height="3" transform="rotate(-90)" width="125" x="-170" y="88.299965"/><g id="g7360" stroke="#fff" stroke-linecap="round"><rect id="rect4806" fill="#0aa9d5" height="10" rx=".88458627" ry=".81087077" stroke-linejoin="round" stroke-width=".5" transform="rotate(-90)" width="10" x="-74.972923" y="75.499977"/><path id="path4815" d="m77.592892 81.435363v-3.76195" fill="none" stroke-dasharray=".49999999 1.99999997" stroke-width=".49999997"/><path id="path4817" d="m80.686452 84.083583v-6.41017" fill="none" stroke-dasharray=".49999998 1.99999994" stroke-width=".49999994"/></g><g id="g7367" fill="none" stroke="#fff" stroke-linecap="round"><path id="path4819" d="m77.592892 104.63963v-3.76195" stroke-dasharray=".49999999 1.99999997" stroke-width=".49999997"/><path id="path4821" d="m80.686452 105.96374v-6.410167" stroke-dasharray=".49999998 1.99999994" stroke-width=".49999994"/></g><g id="g7374" fill="#fff"><rect id="rect4823" height="2" rx=".5" transform="rotate(-90)" width="2" x="-125.18017" y="76.999977"/><rect id="rect4829" height="2" rx=".5" transform="rotate(-90)" width="2" x="-123.18017" y="80.999977"/><rect id="rect4831" height="2" rx=".5" transform="rotate(-90)" width="2" x="-127.18017" y="80.999977"/></g><g id="g7381"><rect id="rect4844" fill="#333" height="3.375" ry="1.6875" transform="rotate(-90)" width="6.75" x="-168.12497" y="80.624977"/><path id="path4847" d="m77.592892 165.4354v-3.76195" fill="none" stroke="#fff" stroke-dasharray=".49999999 1.99999997" stroke-linecap="round" stroke-width=".49999997"/></g><g id="g7387"><path id="path4835" d="m79.269972 143.42256l.27187.27188c.19688-.32438.55126-.54188.95813-.54188a1.125 1.125 0 0 1 1.125 1.125 1.125 1.125 0 0 1 -1.125 1.125c-.40687 0-.76125-.2175-.96-.54l-.27.27c.27.39.72.645 1.23.645a1.5 1.5 0 0 0 1.5-1.5 1.5 1.5 0 0 0 -1.5-1.5c-.51 0-.96.255-1.23.645m-.4575.6675v.375h1.875v-.375" fill="#fff"/><path id="path4849" d="m83.592892 146.15853v-3.76195" fill="none" stroke="#fff" stroke-dasharray=".49999999 1.99999997" stroke-linecap="round" stroke-width=".49999997"/></g><rect id="rect4977" fill="none" height="25" rx="1" stroke="#fff" stroke-linecap="round" stroke-linejoin="round" stroke-width=".80000001" transform="rotate(-90)" width="6" x="-46.399986" y="66.499916"/></g><g id="ekipDisplay"><rect id="rect5275" fill="#95919d" height="29.200001" stroke="#333" stroke-linecap="round" stroke-linejoin="round" stroke-width=".80000001" transform="rotate(-90)" width="119.2" x="-167.60004" y="57.200001"/><rect id="rect5277" fill="#bb1e10" height="8" transform="rotate(-90)" width="118.5" x="-167.25003" y="57.556568"/><path id="path5279" d="m65.599973 167.25002v-118.49999" fill="none" stroke="#fff" stroke-width=".99999994"/><path id="path5281" d="m58.482 162.93981l2.94.78704v-1.62585h-2.94zm0-.95881h2.94v-1.62587l-2.94.78692zm0-3.36001h2.94v-1.74h-2.94zm0-1.86h2.94v-1.82145a1.8000015 1.8000015 0 0 0 -.41331.62285 1.3500011 1.3500011 0 0 0 -1.17669-.69152 1.3500011 1.3500011 0 0 0 -1.35 1.35 1.3500011 1.3500011 0 0 0  0 .00015v.53999zm0-2.82h2.94v-1.74h-2.94zm0-1.86h2.94v-1.82145a1.8000015 1.8000015 0 0 0 -.41331.62285 1.3500011 1.3500011 0 0 0 -1.17669-.69152 1.3500011 1.3500011 0 0 0 -1.35 1.35 1.3500011 1.3500011 0 0 0  0 .00015v.54zm3.06 11.67798l2.94.78703v-1.5l-1.19999-.31806v-.62694h-1.74001zm0-1.77797h1.74001v-.62707l1.19999-.31794v-1.5l-2.94.78691zm0-3.36001h2.94v-1.74h-2.94zm0-1.86h2.94v-.54a1.8000015 1.8000015 0 0 0 0-.00016 1.8000015 1.8000015 0 0 0 -1.79999-1.79999 1.8000015 1.8000015 0 0 0 -1.14001.41004v1.93007zm0-2.82h2.94v-1.74h-2.94zm0-1.86h2.94v-.54a1.8000015 1.8000015 0 0 0 0-.00015 1.8000015 1.8000015 0 0 0 -1.79999-1.8 1.8000015 1.8000015 0 0 0 -1.14001.41004v1.93008z" fill="#fff" overflow="visible"/><text id="text5283" line-height="100%" style="font-weight:bold;font-size:7.93798447;font-family:sans-serif;letter-spacing:0;word-spacing:0;fill:#fff" transform="rotate(-90)" x="-80.052429" xml:space="preserve" y="63.067188"><tspan id="tspan5285" fill="#fff" font-family="Aharoni" font-size="5" font-weight="bold" line-height="100%" x="-80.052429" y="63.067188">Ekip Display</tspan></text><g id="g7577" stroke="#fff" stroke-linecap="round"><rect id="rect5297" fill="#0aa9d5" height="7.5" rx=".88458627" ry=".60815305" stroke-linejoin="round" stroke-width=".49999991" transform="rotate(-90)" width="10" x="-154.00003" y="67.549973"/><g id="g7585" fill="none"><path id="path5719" d="m71.347603 145.85797l-.00002 5.83294"/><path id="path5721" d="m72.712673 150.49098l-1.36509 1.43324-1.46031-1.53321"/></g></g><g id="g7617"><rect id="rect5532" fill="#0aa9d5" height="17" rx="1" ry="1.1333332" transform="rotate(-90)" width="65" x="-140.50003" y="67.299973"/><g id="g7654"><g id="g7668"><g id="g7678" fill="#675f90"><rect id="rect5311" height="2.9166665" rx=".72916663" transform="rotate(-90)" width="2.9166665" x="-88.274323" y="71.424934"/><rect id="rect5313" height="2.9166665" rx=".72916663" transform="rotate(-90)" width="2.9166665" x="-85.357666" y="77.258263"/><rect id="rect5315" height="2.9166665" rx=".72916663" transform="rotate(-90)" width="2.9166665" x="-91.190979" y="77.258263"/></g><path id="path5555" d="m75.799977 91.23654v-8.84114" fill="none" stroke="#665f91" stroke-linecap="round" stroke-width=".5"/></g><rect id="rect5557" fill="none" height="12.5" stroke="#665f91" stroke-linecap="round" stroke-linejoin="round" stroke-width=".5" transform="rotate(-90)" width="12.5" x="-93.065979" y="69.54998"/></g><g id="g7688" fill="none" stroke-linecap="round"><rect id="rect5605" height="12.5" stroke="#665f91" stroke-linejoin="round" stroke-width=".5" transform="rotate(-90)" width="12.5" x="-107.65802" y="69.549973"/><g id="g7698" stroke="#655f92" stroke-width=".99999994"><path id="path5709" d="m70.945928 106.01955c9.353182 0 9.710166 0 9.710166 0v-9.216"/><path id="path5711" d="m80.656094 105.66229l-6.247348-6.25107"/><path id="path5713" d="m77.22898 99.16118h-3.070129v3.28626"/></g></g><g id="g7705" fill="none" stroke-linecap="round" stroke-linejoin="round"><rect id="rect5589" height="12.5" stroke="#665f91" stroke-width=".49999997" transform="rotate(-90)" width="12.5" x="-122.25003" y="69.549973"/><rect id="rect5789" height="9.5" stroke="#655f92" stroke-width="1.50000012" transform="rotate(-90)" width="9.5" x="-120.75003" y="71.049973"/></g><path id="path5791" d="m69.018723 126.06249h13.5625" fill="none" stroke="#655f92" stroke-linecap="round" stroke-width=".5"/><g id="g7717"><rect id="rect5804" fill="#675f90" height="2.7230251" rx=".68075627" transform="rotate(-90)" width="2.7230251" x="-134.88315" y="71.715439"/><path id="path5810" d="m75.799973 137.63054v-8.25417" fill="none" stroke="#665f91" stroke-linecap="round" stroke-width=".5"/><g id="g7729" fill="none" stroke="#665f91" stroke-linecap="round" stroke-width=".5"><path id="path5840" d="m77.835473 137.70294l2.76213-2.76214"/><path id="path5842" d="m77.835473 134.94081l2.76214 2.76212"/></g><g id="g7735" fill="none" stroke="#665f91" stroke-linecap="round" stroke-width=".5"><path id="path5850" d="m77.835473 132.10245l2.76213-2.76214"/><path id="path5852" d="m77.835473 129.34032l2.76214 2.76212"/></g></g></g><g id="g7742"><rect id="rect5528" fill="#0aa9d5" height="7.5" rx=".88458627" ry=".6081531" stroke="#fff" stroke-linecap="round" stroke-linejoin="round" stroke-width=".5" transform="rotate(-90)" width="10" x="-154.00003" y="76.549973"/><text id="text5891" line-height="100%" style="font-weight:bold;font-size:7.93798447;font-family:sans-serif;letter-spacing:0;word-spacing:0;fill:#fff" transform="rotate(-90)" x="-153.20535" xml:space="preserve" y="81.961349"><tspan id="tspan5893" fill="#fff" font-family="Aharoni" font-size="5" font-weight="bold" line-height="100%" x="-153.20535" y="81.961349">ESC</tspan></text></g><g id="g7751" stroke="#fff" stroke-linecap="round"><rect id="rect5534" fill="#0aa9d5" height="7.5" rx=".88458627" ry=".60815305" stroke-linejoin="round" stroke-width=".49999991" transform="rotate(-90)" width="10" x="-72.000061" y="67.549973"/><g id="g7759" fill="none"><path id="path5897" d="m71.347603 70.1421l-.00002-5.83294"/><path id="path5899" d="m72.712673 65.50909l-1.36509-1.43324-1.46031 1.53321"/></g></g><g id="g7767" stroke="#fff"><rect id="rect5536" fill="#0aa9d5" height="7.5" rx=".88458627" ry=".6081531" stroke-linecap="round" stroke-linejoin="round" stroke-width=".5" transform="rotate(-90)" width="10" x="-72.000061" y="76.549973"/><g id="g7775" fill="none"><path id="path5954" d="m77.154453 63.66212h3.65625v6.75"/><path id="path5956" d="m78.670083 67.99025l2.14062 2.14062 2.28125-2.28125"/></g></g><g id="g7782" fill="#fff" stroke="#fff" stroke-width=".05"><g id="g7789"><path id="path6017" d="m74.94458 161.74458h.731639a1.6949144 1.7373421 0 1 0 3.35506 0h .73164a2.4213064 2.4819173 0 1 1 -4.818339 0z"/><path id="path6019" d="m76.990554 159.47049a1.6949144 1.7373421 0 0 1 -1.314335-1.94517h-.731639a2.4213064 2.4819173 0 1 0 4.818339 0h-.73164a1.6949144 1.7373421 0 0 1 -1.314334 1.94517v-1.44879h-.726391z"/></g></g><circle id="path6046" cx="-161" cy="68.924973" fill="#0f0" r="1.5" transform="rotate(-90)"/><g id="g7798"><path id="path5916" d="m70.862463 57a .37500067.37500067 0 0 0 -.375-.37501c-.20806 0-.375.16866-.375.37501a.37500067.37500067 0 0 0  .375.37499.37500067.37500067 0 0 0  .375-.37499m-1.68749-1.12501a.37500067.37500067 0 0 1  .375-.375h1.875a.37500067.37500067 0 0 1  .375.375v2.25a.37500067.37500067 0 0 1 -.375.375h-1.875c-.20806 0-.375-.16886-.375-.375v-.18751h-.375a.9375017.9375017 0 0 1 -.93751-.93748.9375017.9375017 0 0 1  .93751-.93753h.375v-.1875m-.93751 1.125a.56250101.56250101 0 0 0  .56251.56249h.375v-1.125h-.375a.56250101.56250101 0 0 0 -.56251.56251z" fill="#fff"/><path id="path5918" d="m69.174973 50.87499a.375.375 0 0 1  .375-.375h1.875a.375.375 0 0 1  .375.375v2.25c0 .20813-.16875.375-.375.375h-1.875a.375.375 0 0 1 -.375-.375v-1.6875h-.375a.5625.5625 0 0 0 -.5625.5625.5625.5625 0 0 0  .5625.5625v.375a.9375.9375 0 0 1 -.9375-.9375.9375.9375 0 0 1  .9375-.9375h.375zm1.6875 1.125a.375.375 0 0 0 -.375-.375.375.375 0 0 0 -.375.375.375.375 0 0 0  .375.375.375.375 0 0 0  .375-.375z" fill="#fff"/><g id="g7807" fill="none" stroke="#333" stroke-linejoin="round"><circle id="path6048" cx="-54.362732" cy="78.729416" r="4.1000004" stroke-width=".80000007" transform="rotate(-90)"/><path id="path6052" d="m81.662465 54.362726l-4.466793 2.597622v-5.195243z" stroke-width=".80000001"/></g></g></g><g id="EFM"><rect id="rect5545" height="38" transform="rotate(-90)" width="135" x="-175" y="56"/><g id="g7829"><rect id="rect5547" fill="#6b7d89" height="35" rx="2" transform="rotate(-90)" width="87" x="-131" y="57.5"/><path id="path5554" d="m61.743406 43.99999a15 15 0 0 0 13.25586 8 15 15 0 0 0  13.25586-8z" fill="#4d4d4d"/><circle id="path5572" cx="-60.404785" cy="63.600464" fill="#f00" r="2" transform="rotate(-90)"/><circle id="circle5574" cx="-60.404785" cy="69.600464" fill="#008000" r="2" transform="rotate(-90)"/></g></g><g id="details"><rect id="rect6988" fill="#c6bfb3" height="10" stroke="#000" stroke-width=".99999994" transform="rotate(-90)" width="14.5" x="-590" y="57.500004"/><rect id="rect6990" fill="#c6bfb3" height="10" stroke="#000" stroke-width=".99999994" transform="rotate(-90)" width="14.5" x="-590" y="82"/><path id="path6992" d="m53.00004 589.5v-552.49997" fill="none" stroke="#333" stroke-width=".99999994"/><path id="path6994" d="m96.999999 589.49999v-552.5" fill="none" stroke="#333"/><path id="path6996" d="m50.5 36.49999h48.999998" fill="none" stroke="#333"/><rect id="rect4617" fill="#fff" fill-rule="evenodd" height="18" width="45" x="52.5" y="571.04803"/><text id="textBottom" font-family="sans-serif" font-size="5" font-weight="bold" letter-spacing="0" line-height="125%" word-spacing="0" x="77.819077" xml:space="preserve" y="585.49176"><tspan id="tspan4204" font-family="ABBvoice" font-size="16.25" font-weight="bold" x="54.648781" y="585.49176">TEXT</tspan></text><g id="g7870"><g id="g7883"><circle id="path4158" cx="-20.24999" cy="75.999504" fill="#32312f" r="13" stroke="#333" transform="rotate(-90)"/><circle id="path4160" cx="-20.24999" cy="75.999504" fill="#575d5e" r="10" stroke="#333" transform="rotate(-90)"/><path id="path4185" d="m71.73523 20.24999a4.264241 4.2192875 0 0 0 3.3166 4.10941v2.45393h1.8952v-2.45576a4.264241 4.2192875 0 0 0 3.3167-4.10758 4.264241 4.2192875 0 0 0 -3.3167-4.10942v-2.45392h-1.8952v2.45577a4.264241 4.2192875 0 0 0 -3.3166 4.10757z" fill="#434447" stroke="#333" stroke-linejoin="round"/><circle id="path4183" cx="-20.24999" cy="75.999504" fill="#333" r="1.5" transform="rotate(-90)"/></g><path id="path5037" d="m59.562 20.25a.37500067.37500067 0 0 0 -.375-.37501c-.20806 0-.375.16866-.375.37501a.37500067.37500067 0 0 0  .375.37499.37500067.37500067 0 0 0  .375-.37499m-1.68749-1.12501a.37500067.37500067 0 0 1  .375-.375h1.875a.37500067.37500067 0 0 1  .375.375v2.25a.37500067.37500067 0 0 1 -.375.375h-1.875c-.20806 0-.375-.16886-.375-.375v-.18751h-.375a.9375017.9375017 0 0 1 -.93751-.93748.9375017.9375017 0 0 1  .93751-.93753h.375v-.1875m-.93751 1.125a.56250101.56250101 0 0 0  .56251.56249h.375v-1.125h-.375a.56250101.56250101 0 0 0 -.56251.56251z" fill="#333"/><path id="path5048" d="m75.34326 2.12499a.375.375 0 0 1  .375-.375h1.875a.375.375 0 0 1  .375.375v2.25c0 .20813-.16875.375-.375.375h-1.875a.375.375 0 0 1 -.375-.375v-1.6875h-.375a.5625.5625 0 0 0 -.5625.5625.5625.5625 0 0 0  .5625.5625v.375a.9375.9375 0 0 1 -.9375-.9375.9375.9375 0 0 1  .9375-.9375h.375zm1.6875 1.125a.375.375 0 0 0 -.375-.375.375.375 0 0 0 -.375.375.375.375 0 0 0  .375.375.375.375 0 0 0  .375-.375z" fill="#333"/></g></g><g id="fuse1"><path id="rect12916" d="m68.025391 194v55h20.974609c1.108 0 2-.892 2-2v-51c0-1.108-.892-2-2-2z" fill="#e3d8c2"/><path id="path5180-2" d="m69.631187 199.497l-.78704 2.94h1.625853v-2.94zm.958813 0v2.94h1.625867l-.78692-2.94zm3.360013 0v2.94h1.74v-2.94zm1.86 0v2.94h1.821447a1.8000015 1.8000015 0 0 0 -.622853-.41331 1.3500011 1.3500011 0 0 0  .691526-1.17669 1.3500011 1.3500011 0 0 0 -1.35-1.35 1.3500011 1.3500011 0 0 0 -.000153 0h-.539993zm2.82 0v2.94h1.74v-2.94zm1.86 0v2.94h1.821447a1.8000015 1.8000015 0 0 0 -.622847-.41331 1.3500011 1.3500011 0 0 0  .69152-1.17669 1.3500011 1.3500011 0 0 0 -1.35-1.35 1.3500011 1.3500011 0 0 0 -.000153 0h-.54zm-11.67798 3.06l-.787033 2.94h1.5l.31806-1.19999h.62694v-1.74001zm1.777967 0v1.74001h.627073l.31794 1.19999h1.5l-.786913-2.94zm3.360013 0v2.94h1.74v-2.94zm1.86 0v2.94h.54a1.8000015 1.8000015 0 0 0  .000154 0 1.8000015 1.8000015 0 0 0  1.799993-1.79999 1.8000015 1.8000015 0 0 0 -.41004-1.14001h-1.930073zm2.82 0v2.94h1.74v-2.94zm1.86 0v2.94h.54a1.8000015 1.8000015 0 0 0  .000147 0 1.8000015 1.8000015 0 0 0  1.8-1.79999 1.8000015 1.8000015 0 0 0 -.41004-1.14001h-1.93008z" overflow="visible"/><path id="path12920" d="m69.018618 216.9999h3.517583" fill="none" stroke="#000" stroke-dasharray="2.00000001 4.00000002" stroke-linecap="round" stroke-width="2"/><path id="path12922" d="m71.780275 236.9999h10.690335" fill="none" stroke="#000" stroke-dasharray="1.99999999 4" stroke-linecap="round" stroke-width="2"/><path id="path12924" d="m72.740065 240.9374h15.475707" fill="none" stroke="#000" stroke-dasharray="1.99999999 5.99999996" stroke-linecap="round" stroke-width="1.99999988"/><path id="path12926" d="m86.50005 213.28389v10.16466" fill="none" stroke="#000" stroke-dasharray="1 4" stroke-linecap="round"/><path id="path12928" d="m83.50005 213.28389v10.16466" fill="none" stroke="#000" stroke-dasharray="1 4" stroke-linecap="round"/><path id="path12930" d="m69.190935 220.9999h3.29795" fill="none" stroke="#000" stroke-dasharray="1.99999999 3.99999998" stroke-linecap="round" stroke-width="2"/><rect id="rect12934" fill="#e3d8c2" height="10" width="6" x="72" y="184"/><path id="rect12936" d="m68.025391 192v2h20.974609c.554 0 1-.446 1-1 0-.554-.446-1-1-1z" fill="#929396"/></g><g id="fuse2"><rect id="rect12892" fill="#e3d8c2" height="55" rx="2" width="32" x="59" y="269"/><path id="path3646" d="m69.203607 274.497l-.78704 2.94h1.625853v-2.94zm.958813 0v2.94h1.625867l-.78692-2.94zm3.360013 0v2.94h1.74v-2.94zm1.86 0v2.94h1.821447a1.8000015 1.8000015 0 0 0 -.622853-.41331 1.3500011 1.3500011 0 0 0  .691526-1.17669 1.3500011 1.3500011 0 0 0 -1.35-1.35 1.3500011 1.3500011 0 0 0 -.000153 0h-.539993zm2.82 0v2.94h1.74v-2.94zm1.86 0v2.94h1.821447a1.8000015 1.8000015 0 0 0 -.622847-.41331 1.3500011 1.3500011 0 0 0  .69152-1.17669 1.3500011 1.3500011 0 0 0 -1.35-1.35 1.3500011 1.3500011 0 0 0 -.000153 0h-.54zm-11.67798 3.06l-.787033 2.94h1.5l.31806-1.19999h.62694v-1.74001zm1.777967 0v1.74001h.627073l.31794 1.19999h1.5l-.786913-2.94zm3.360013 0v2.94h1.74v-2.94zm1.86 0v2.94h.54a1.8000015 1.8000015 0 0 0  .000154 0 1.8000015 1.8000015 0 0 0  1.799993-1.79999 1.8000015 1.8000015 0 0 0 -.41004-1.14001h-1.930073zm2.82 0v2.94h1.74v-2.94zm1.86 0v2.94h.54a1.8000015 1.8000015 0 0 0  .000147 0 1.8000015 1.8000015 0 0 0  1.8-1.79999 1.8000015 1.8000015 0 0 0 -.41004-1.14001h-1.93008z" overflow="visible"/><path id="path12896" d="m63.014242 291.9999h8.838835" fill="none" stroke="#000" stroke-dasharray="2 4" stroke-linecap="round" stroke-width="2"/><path id="path12898" d="m63.014242 311.9999h15.909902" fill="none" stroke="#000" stroke-dasharray="2 4" stroke-linecap="round" stroke-width="2"/><path id="path12900" d="m63.014242 315.9999h23.864854" fill="none" stroke="#000" stroke-dasharray="2 6" stroke-linecap="round" stroke-width="2"/><path id="path12902" d="m86.50005 288.28389v10.16466" fill="none" stroke="#000" stroke-dasharray="1 4" stroke-linecap="round"/><path id="path12904" d="m83.50005 288.28389v10.16466" fill="none" stroke="#000" stroke-dasharray="1 4" stroke-linecap="round"/><path id="path12906" d="m63.014242 295.9999h8.838835" fill="none" stroke="#000" stroke-dasharray="2 4" stroke-linecap="round" stroke-width="2"/><g id="g7937"><rect id="rect12910" fill="#e3d8c2" height="10" width="6" x="72" y="259"/><rect id="rect12912" fill="#929396" height="2" rx="1" width="30" x="60" y="267"/></g></g><g id="fuse3"><rect id="rect3604" fill="#e3d8c2" height="55" rx="2" width="32" x="59" y="344"/><path id="path3648" d="m69.203607 349.497l-.78704 2.94h1.625853v-2.94zm.958813 0v2.94h1.625867l-.78692-2.94zm3.360013 0v2.94h1.74v-2.94zm1.86 0v2.94h1.821447a1.8000015 1.8000015 0 0 0 -.622853-.41331 1.3500011 1.3500011 0 0 0  .691526-1.17669 1.3500011 1.3500011 0 0 0 -1.35-1.35 1.3500011 1.3500011 0 0 0 -.000153 0h-.539993zm2.82 0v2.94h1.74v-2.94zm1.86 0v2.94h1.821447a1.8000015 1.8000015 0 0 0 -.622847-.41331 1.3500011 1.3500011 0 0 0  .69152-1.17669 1.3500011 1.3500011 0 0 0 -1.35-1.35 1.3500011 1.3500011 0 0 0 -.000153 0h-.54zm-11.67798 3.06l-.787033 2.94h1.5l.31806-1.19999h.62694v-1.74001zm1.777967 0v1.74001h.627073l.31794 1.19999h1.5l-.786913-2.94zm3.360013 0v2.94h1.74v-2.94zm1.86 0v2.94h.54a1.8000015 1.8000015 0 0 0  .000154 0 1.8000015 1.8000015 0 0 0  1.799993-1.79999 1.8000015 1.8000015 0 0 0 -.41004-1.14001h-1.930073zm2.82 0v2.94h1.74v-2.94zm1.86 0v2.94h.54a1.8000015 1.8000015 0 0 0  .000147 0 1.8000015 1.8000015 0 0 0  1.8-1.79999 1.8000015 1.8000015 0 0 0 -.41004-1.14001h-1.93008z" overflow="visible"/><path id="path11850" d="m63.014242 366.9999h8.838835" fill="none" stroke="#000" stroke-dasharray="2 4" stroke-linecap="round" stroke-width="2"/><path id="path11852" d="m63.014242 386.9999h15.909902" fill="none" stroke="#000" stroke-dasharray="2 4" stroke-linecap="round" stroke-width="2"/><path id="path11854" d="m63.014242 390.9999h23.864854" fill="none" stroke="#000" stroke-dasharray="2 6" stroke-linecap="round" stroke-width="2"/><path id="path11856" d="m86.50005 363.28389v10.16466" fill="none" stroke="#000" stroke-dasharray="1 4" stroke-linecap="round"/><path id="path12736" d="m83.50005 363.28389v10.16466" fill="none" stroke="#000" stroke-dasharray="1 4" stroke-linecap="round"/><path id="path12816" d="m63.014242 370.9999h8.838835" fill="none" stroke="#000" stroke-dasharray="2 4" stroke-linecap="round" stroke-width="2"/><g id="g7967"><rect id="rect12818" fill="#e3d8c2" height="10" width="6" x="72" y="334"/><rect id="rect12820" fill="#929396" height="2" rx="1" width="30" x="60" y="342"/></g></g><g id="handle"><path id="path4596" d="m53 480.05744v47.37381l2.16057-15.5643c2.00408-3.83381 5.50276-7.15424 6.20847-11.37284-.24039-.63483-1.84722-2.93248-2.17193-3.50106-3.71122-6.49845-.21286-9.7059-1.72772-12.01053z" fill="#575d5e" fill-rule="evenodd" stroke="#000"/><path id="path4601" d="m97.00048 480.05744v47.37381l-2.16057-15.5643c-2.00408-3.83381-5.50276-7.15424-6.20847-11.37284.24039-.63483 1.84722-2.93248 2.17193-3.50106 3.71122-6.49845.21286-9.7059 1.72772-12.01053z" fill="#575d5e" fill-rule="evenodd" stroke="#000"/><path id="rect4589" d="m75 496.5a21 21 0 0 0 -20.99414 20.84375c-.00045.0193-.006.0372-.006.0566v.0996 8.09961c0 1.3296 1.07079 2.40039 2.40039 2.40039h37.19922c1.3296 0 2.40039-1.07079 2.40039-2.40039v-8.09961-.0996c0-.0354-.008-.0685-.01-.10351a21 21 0 0 0 -20.98986-20.79684zm0 3a18 18 0 0 1 17.98047 17.4707l-1.77539 5.04883h-32.41016l-1.76953-5.0293a18 18 0 0 1 17.97461-17.49023z" fill="#575d5e" stroke="#000" stroke-width=".9999997"/><path id="rect4730" d="m52.40039 448c-1.3296 0-2.40039 1.07079-2.40039 2.40039v117.19922c0 1.3296 1.07079 2.40039 2.40039 2.40039h45.19922c1.3296 0 2.40039-1.07079 2.40039-2.40039v-117.19922c0-1.3296-1.07079-2.40039-2.40039-2.40039zm22.40234 22.52148a30.481939 23.133671 0 0 1  .19727 0 30.481939 23.133671 0 0 1  22 7.16211v9.82618 20.27734 27.80664c0 .79101-.82016 1.42773-1.83789 1.42773h-4.16211v-10.92187c0-.554-.446-1-1-1h-30c-.554 0-1 .446-1 1v10.92187h-4.16211c-1.01776 0-1.83789-.63672-1.83789-1.42773v-27.80664-20.27734-9.85743a30.481939 23.133671 0 0 1 21.80273-7.13086zm-9.40234 57.97852h19.19922c1.3296 0 2.40039 1.07079 2.40039 2.40039v1.19922c0 1.3296-1.07079 2.40039-2.40039 2.40039h-19.19922c-1.3296 0-2.40039-1.07079-2.40039-2.40039v-1.19922c0-1.3296 1.07079-2.40039 2.40039-2.40039zm-3.45117 15.26953h2.10156c.3878 0 .69922.34299.69922.76758v9.19727c0 .42457-.31142.76562-.69922.76562h-2.10156c-.3878 0-.69922-.34105-.69922-.76562v-9.19727c0-.42459.31142-.76758.69922-.76758zm24 0h2.10156c.3878 0 .69922.34299.69922.76758v9.19727c0 .42457-.31142.76562-.69922.76562h-2.10156c-.3878 0-.69922-.34105-.69922-.76562v-9.19727c0-.42459.31142-.76758.69922-.76758z" fill="#575d5e" stroke="#000"/><path id="path4785-0" d="m53.00002 553.70004v-18" fill="none" stroke="#333" stroke-width="1.00000012"/><path id="path4738" d="m97.00002 553.70004v-18" fill="none" stroke="#333" stroke-width="1.00000012"/><path id="path4838" d="m53.00002 478.00002v-30.5" fill="none" stroke="#333" stroke-width="1.00000024"/><path id="path4840" d="m97.000022 478.00002v-30.50001" fill="none" stroke="#333" stroke-width="1.00000012"/></g></g></svg>