<svg id="svg4248" height="184.8" overflow="visible" viewBox="0 0 105.8 184.8" width="105.8" xmlns="http://www.w3.org/2000/svg"><g id="XLP00"><rect id="control" fill="#f9f9f9" fill-rule="evenodd" height="24.000002" stroke="#000" stroke-width=".80000007" width="105" x="-.00000001" y="160"/><path id="R1.2" d="m0 0v160h105v-160zm5 21h95v3h-95z" fill="#727173" stroke="#000" stroke-linecap="round" stroke-linejoin="round" stroke-width=".80000007"/><path id="D1" d="m5.5 39.60003h94.000004m-94.500004-38.60002h95v18.99999h-95zm0 22.99999h95v107.5h-95z" fill="none" stroke="#4d4d4d" stroke-width=".80000007"/><path id="R1.5" d="m6.5 60c-2.215999 0-4 .892-4 1.99999v78.50001c0 1.108 1.784001 2 4 2h92.000004c2.215996 0 3.999996-.892 3.999996-2v-78.50001c0-1.10799-1.784-2-3.999996-2zm3.5 31.24999h20v20.00001h-20zm32.5 0h20v20.00001h-20zm32.5 0h20.000004v20.00001h-20.000004z" fill="#fff" fill-opacity=".78431373"/><path id="rect5710" d="m20.167969 73.74999c-3.047 0-5.5 1.9142-5.5 4.29102v4.41797c0 2.37682 2.453 4.29101 5.5 4.29101 3.046999 0 5.5-1.91419 5.5-4.29101v-4.41797c0-2.37682-2.453001-4.29102-5.5-4.29102zm32.5 0c-3.047 0-5.5 1.9142-5.5 4.29102v4.41797c0 2.37682 2.453 4.29101 5.5 4.29101 3.046999 0 5.5-1.91419 5.5-4.29101v-4.41797c0-2.37682-2.453001-4.29102-5.5-4.29102zm32.500001 0c-3.047 0-5.500001 1.9142-5.500001 4.29102v4.41797c0 2.37682 2.453001 4.29101 5.500001 4.29101 3.047004 0 5.500004-1.91419 5.500004-4.29101v-4.41797c0-2.37682-2.453-4.29102-5.500004-4.29102zm-65.000001 42.00001c-3.047 0-5.5 1.91419-5.5 4.29102v4.41796c0 2.37683 2.453 4.29102 5.5 4.29102 3.046999 0 5.5-1.91419 5.5-4.29102v-4.41796c0-2.37683-2.453001-4.29102-5.5-4.29102zm32.5 0c-3.047 0-5.5 1.91419-5.5 4.29102v4.41796c0 2.37683 2.453 4.29102 5.5 4.29102 3.046999 0 5.5-1.91419 5.5-4.29102v-4.41796c0-2.37683-2.453001-4.29102-5.5-4.29102zm32.500001 0c-3.047 0-5.500001 1.91419-5.500001 4.29102v4.41796c0 2.37683 2.453001 4.29102 5.500001 4.29102 3.047004 0 5.500004-1.91419 5.500004-4.29102v-4.41796c0-2.37683-2.453-4.29102-5.500004-4.29102z" fill="#727173" stroke="#727173" stroke-linecap="round" stroke-linejoin="round" stroke-width=".99999988"/><path id="R1.6" d="m5.5 44h94.000004v12h-94.000004z" fill="#bb1e10"/><path id="rect5712" d="m20.167969 74.74999c-2.493 0-4.5 1.61971-4.5 3.63086v3.73829c0 2.01115 2.007 3.63085 4.5 3.63085 2.492999 0 4.5-1.6197 4.5-3.63085v-3.73829c0-2.01115-2.007001-3.63086-4.5-3.63086zm32.5 0c-2.493 0-4.5 1.61971-4.5 3.63086v3.73829c0 2.01115 2.007 3.63085 4.5 3.63085 2.492999 0 4.5-1.6197 4.5-3.63085v-3.73829c0-2.01115-2.007001-3.63086-4.5-3.63086zm32.500001 0c-2.493 0-4.5 1.61971-4.5 3.63086v3.73829c0 2.01115 2.007 3.63085 4.5 3.63085 2.493004 0 4.500004-1.6197 4.500004-3.63085v-3.73829c0-2.01115-2.007-3.63086-4.500004-3.63086zm-65.000001 42.00001c-2.493 0-4.5 1.6197-4.5 3.63086v3.73828c0 2.01116 2.007 3.63086 4.5 3.63086 2.492999 0 4.5-1.6197 4.5-3.63086v-3.73828c0-2.01116-2.007001-3.63086-4.5-3.63086zm32.5 0c-2.493 0-4.5 1.6197-4.5 3.63086v3.73828c0 2.01116 2.007 3.63086 4.5 3.63086 2.492999 0 4.5-1.6197 4.5-3.63086v-3.73828c0-2.01116-2.007001-3.63086-4.5-3.63086zm32.500001 0c-2.493 0-4.5 1.6197-4.5 3.63086v3.73828c0 2.01116 2.007 3.63086 4.5 3.63086 2.493004 0 4.500004-1.6197 4.500004-3.63086v-3.73828c0-2.01116-2.007-3.63086-4.500004-3.63086z" fill="#1a1a1a" stroke="#e2e2e2" stroke-linecap="round" stroke-linejoin="round" stroke-width=".99999988"/><path id="ABB_logo" d="m10.909251 45.5l-1.18054 4.41h2.43879v-4.41zm1.43825 0v4.41h2.43879l-1.18038-4.41zm5.04 0v4.41h2.61v-4.41zm2.79 0v4.41h2.732171a2.7000011 2.700001 0 0 0 -.93427-.61999 2.0250008 2.0250007 0 0 0  1.03728-1.76501 2.0250008 2.0250007 0 0 0 -2.025001-2.025 2.0250008 2.0250007 0 0 0 -.00018 0zm4.230001 0v4.41h2.61v-4.41zm2.79 0v4.41h2.732171a2.7000011 2.700001 0 0 0 -.934271-.61999 2.0250008 2.0250007 0 0 0  1.037281-1.76501 2.0250008 2.0250007 0 0 0 -2.025001-2.025 2.0250008 2.0250007 0 0 0 -.00018 0zm-17.516951 4.59l-1.18055 4.41h2.25l.47707-1.8h.94043v-2.61zm2.66695 0v2.61h.9406l.4769 1.8h2.25l-1.18037-4.41zm5.04 0v4.41h2.61v-4.41zm2.79 0v4.41h.81a2.7000011 2.700001 0 0 0  .00018 0 2.7000011 2.700001 0 0 0  2.700001-2.7 2.7000011 2.700001 0 0 0 -.61506-1.71h-2.895111zm4.230001 0v4.41h2.61v-4.41zm2.79 0v4.41h.81a2.7000011 2.700001 0 0 0  .00018 0 2.7000011 2.700001 0 0 0  2.700011-2.7 2.7000011 2.700001 0 0 0 -.61506-1.71h-2.895121z" fill="#fff" overflow="visible"/><text id="XLP_text" line-height="100%" style="font-weight:bold;font-size:11.94442463;font-family:sans-serif;letter-spacing:0;word-spacing:0;fill:#fff" transform="scale(.9999966 1.0000034)" x="60.204376" xml:space="preserve" y="54.319828"><tspan id="tspan4596" fill="#fff" font-family="sans-serif" font-size="11.89157295" font-weight="normal" line-height="100%" x="60.204376" y="54.319828">XLP00</tspan></text></g></svg>