<svg id="svg4222" height="265.79999" overflow="visible" viewBox="0 0 184.8 265.79999" width="184.8" xmlns="http://www.w3.org/2000/svg"><g id="XLP1"><rect id="control1" fill="#f9f9f9" fill-rule="evenodd" height="35" stroke="#000" stroke-width=".80000001" width="184" y="230"/><path id="R1.2" d="m0-.000018v229.999998h184v-229.999998zm5 21.000002h174v14h-174z" fill="#727173" stroke="#000" stroke-linecap="round" stroke-linejoin="round" stroke-width=".80000001"/><path id="R1.7" d="m5 .999982h174v19.000002h-174zm .5 66.000002h173m-173.5-32h174v153.499996h-174z" fill="none" stroke="#4d4d4d" stroke-width=".80000001"/><path id="R1.5" d="m5.5 86.999984c-1.662 0-3 1.338-3 3v112.499996c0 1.662 1.338 3 3 3h173c1.662 0 3-1.338 3-3v-112.499996c0-1.662-1.338-3-3-3zm8.5 44.249996h30v30h-30zm63 0h30v30h-30zm63 0h30v30h-30z" fill="#fff" fill-opacity=".78431373"/><path id="R1.6" d="m5.5 70.999994h173v12h-173z" fill="#bb1e10"/><path id="rect5622" d="m29 100.74998c-5.817 0-10.5 3.53194-10.5 7.91992v8.16016c0 4.38798 4.683 7.91992 10.5 7.91992 5.817 0 10.5-3.53194 10.5-7.91992v-8.16016c0-4.38798-4.683-7.91992-10.5-7.91992zm63 0c-5.817 0-10.5 3.53194-10.5 7.91992v8.16016c0 4.38798 4.683 7.91992 10.5 7.91992 5.817 0 10.5-3.53194 10.5-7.91992v-8.16016c0-4.38798-4.683-7.91992-10.5-7.91992zm63 0c-5.817 0-10.5 3.53194-10.5 7.91992v8.16016c0 4.38798 4.683 7.91992 10.5 7.91992 5.817 0 10.5-3.53194 10.5-7.91992v-8.16016c0-4.38798-4.683-7.91992-10.5-7.91992zm-126 67c-5.817 0-10.5 3.53194-10.5 7.91992v8.16016c0 4.38798 4.683 7.91992 10.5 7.91992 5.817 0 10.5-3.53194 10.5-7.91992v-8.16016c0-4.38798-4.683-7.91992-10.5-7.91992zm63 0c-5.817 0-10.5 3.53194-10.5 7.91992v8.16016c0 4.38798 4.683 7.91992 10.5 7.91992 5.817 0 10.5-3.53194 10.5-7.91992v-8.16016c0-4.38798-4.683-7.91992-10.5-7.91992zm63 0c-5.817 0-10.5 3.53194-10.5 7.91992v8.16016c0 4.38798 4.683 7.91992 10.5 7.91992 5.817 0 10.5-3.53194 10.5-7.91992v-8.16016c0-4.38798-4.683-7.91992-10.5-7.91992z" fill="#727173" stroke="#727173" stroke-linecap="round" stroke-linejoin="round" stroke-width=".99999988"/><path id="rect5624" d="m29 102.74998c-4.709 0-8.5 2.94296-8.5 6.59961v6.80078c0 3.65665 3.791 6.59961 8.5 6.59961 4.709 0 8.5-2.94296 8.5-6.59961v-6.80078c0-3.65665-3.791-6.59961-8.5-6.59961zm63 0c-4.709 0-8.5 2.94296-8.5 6.59961v6.80078c0 3.65665 3.791 6.59961 8.5 6.59961 4.709 0 8.5-2.94296 8.5-6.59961v-6.80078c0-3.65665-3.791-6.59961-8.5-6.59961zm63 0c-4.709 0-8.5 2.94296-8.5 6.59961v6.80078c0 3.65665 3.791 6.59961 8.5 6.59961 4.709 0 8.5-2.94296 8.5-6.59961v-6.80078c0-3.65665-3.791-6.59961-8.5-6.59961zm-126 67c-4.709 0-8.5 2.94296-8.5 6.59961v6.80078c0 3.65665 3.791 6.59961 8.5 6.59961 4.709 0 8.5-2.94296 8.5-6.59961v-6.80078c0-3.65665-3.791-6.59961-8.5-6.59961zm63 0c-4.709 0-8.5 2.94296-8.5 6.59961v6.80078c0 3.65665 3.791 6.59961 8.5 6.59961 4.709 0 8.5-2.94296 8.5-6.59961v-6.80078c0-3.65665-3.791-6.59961-8.5-6.59961zm63 0c-4.709 0-8.5 2.94296-8.5 6.59961v6.80078c0 3.65665 3.791 6.59961 8.5 6.59961 4.709 0 8.5-2.94296 8.5-6.59961v-6.80078c0-3.65665-3.791-6.59961-8.5-6.59961z" fill="#1a1a1a" stroke="#e2e2e2" stroke-linecap="round" stroke-linejoin="round" stroke-width=".99999976"/><path id="path4334-2-6" d="m10.90925 72.499994l-1.18054 4.41h2.43879v-4.41zm1.43825 0v4.41h2.43879l-1.18038-4.41zm5.04 0v4.41h2.61v-4.41zm2.79 0v4.41h2.73217a2.7000011 2.700001 0 0 0 -.93427-.61999 2.0250008 2.0250007 0 0 0  1.03728-1.76501 2.0250008 2.0250007 0 0 0 -2.025-2.025 2.0250008 2.0250007 0 0 0 -.00018 0zm4.23 0v4.41h2.61v-4.41zm2.79 0v4.41h2.73217a2.7000011 2.700001 0 0 0 -.93427-.61999 2.0250008 2.0250007 0 0 0  1.03728-1.76501 2.0250008 2.0250007 0 0 0 -2.025-2.025 2.0250008 2.0250007 0 0 0 -.00018 0zm-17.51695 4.59l-1.18055 4.41h2.25l.47707-1.8h.94043v-2.61zm2.66695 0v2.61h.9406l.4769 1.8h2.25l-1.18037-4.41zm5.04 0v4.41h2.61v-4.41zm2.79 0v4.41h.81a2.7000011 2.700001 0 0 0  .00018 0 2.7000011 2.700001 0 0 0  2.7-2.7 2.7000011 2.700001 0 0 0 -.61506-1.71h-2.89511zm4.23 0v4.41h2.61v-4.41zm2.79 0v4.41h.81a2.7000011 2.700001 0 0 0  .00018 0 2.7000011 2.700001 0 0 0  2.70001-2.7 2.7000011 2.700001 0 0 0 -.61506-1.71h-2.89512z" fill="#fff" overflow="visible"/><text id="text4594" line-height="100%" style="font-weight:bold;font-size:12.39214039;font-family:sans-serif;letter-spacing:0;word-spacing:0;fill:#fff" transform="scale(.9999966 1.0000034)" x="146.19983" xml:space="preserve" y="81.499725"><tspan id="tspan4596" fill="#fff" font-family="sans-serif" font-size="12.33730698" font-weight="normal" line-height="100%" x="146.19983" y="81.499725">XLP1</tspan></text></g></svg>