<svg id="svg2" height="150.8" overflow="visible" viewBox="0 0 250.8 150.8" width="250.8" xmlns="http://www.w3.org/2000/svg"><path id="path4150" d="m18.906274 113.00473c-5.046218 0-9.7886333 1.96632-13.3560683 5.53534-.527559.52777-.527559 1.38078 0 1.90855.527559.52778 1.380197.52778 1.907755 0 3.0574143-3.05873 7.1225973-4.74428 11.4483133-4.74428 4.32571 0 8.38954 1.68555 11.44831 4.74428 3.05876 3.05874 4.74226 7.12573 4.74226 11.45331 0 4.32626-1.68485 8.39316-4.74226 11.45326-3.05742 3.0601-7.12395 4.7452-11.44831 4.7452-4.325716 0-8.390899-1.6851-11.4483133-4.7452-4.998993-4.99981-6.185153-12.57988-2.953685-18.8634.341362-.66408.07904-1.47854-.583444-1.81872-.663834-.34017-1.475676-.079-1.817038.58372-3.769821 7.32964-2.38507299 16.17518 3.446412 22.00787 3.567435 3.57034 8.3098503 5.53534 13.3560683 5.53534 5.04622 0 9.78998-1.965 13.35606-5.53534 3.56879-3.56901 5.53294-8.31567 5.53294-13.36273 0-5.04838-1.96415-9.7929-5.53294-13.36186-3.56608-3.56902-8.30984-5.53534-13.35606-5.53534zm0 10.79838c-.74479 0-1.34922.60468-1.34922 1.34981v5.39921h-5.396852c-.744791 0-1.350107.60468-1.350107 1.3498 0 .74513.605316 1.34976 1.350107 1.34976h5.396852v5.40012c0 .74645.60443 1.34981 1.34922 1.34981.74479 0 1.34921-.60336 1.34921-1.34981v-5.40012h5.39686c.74614 0 1.34921-.60463 1.34921-1.34976 0-.74512-.60307-1.3498-1.34921-1.3498h-5.39686v-5.39921c0-.74513-.60442-1.34981-1.34921-1.34981z" fill="#999" stroke="#00f" stroke-width=".1"/></svg>