<svg id="svg2" height="150.8" overflow="visible" viewBox="0 0 250.8 150.8" width="250.8" xmlns="http://www.w3.org/2000/svg">
	<path id="path4134" d="m125.01896 33.518553c-11.08155 0-21.49595 4.3162-29.330078 12.1504-1.158526 1.1585-1.158526 3.0309 0 4.1894 1.158526 1.1585 3.030928 1.1585 4.189453 0 6.714115-6.7141 15.641305-10.414 25.140625-10.414 9.49932 0 18.42354 3.6999 25.14062 10.414 6.71708 6.7141 10.41406 15.6414 10.41406 25.1407 0 9.4964-3.69994 18.4235-10.41406 25.140597-6.71412 6.7171-15.64427 10.416-25.14062 10.416-9.49932 0-18.42651-3.6989-25.140625-10.416-10.977847-10.974897-13.582669-27.613597-6.486328-41.406297.749635-1.4577.173574-3.2455-1.28125-3.9922-1.457787-.7467-3.2406-.1735-3.990235 1.2813-8.278571 16.089-5.237648 35.5055 7.56836 48.308597 7.834128 7.8371 18.248528 12.1504 29.330078 12.1504 11.08155 0 21.49891-4.3133 29.33007-12.1504 7.83709-7.834197 12.1504-18.253397 12.1504-29.331997 0-11.0815-4.31331-21.496-12.1504-29.3301-7.83116-7.8342-18.24852-12.1504-29.33007-12.1504zm0 23.7031c-1.63557 0-2.96289 1.3273-2.96289 2.9629v11.8516h-11.85156c-1.63557 0-2.96485 1.3273-2.96485 2.9629 0 1.6356 1.32928 2.9628 2.96485 2.9628h11.85156v11.8536c0 1.6385 1.32732 2.9629 2.96289 2.9629 1.63556 0 2.96289-1.3244 2.96289-2.9629v-11.8536h11.85156c1.63853 0 2.96289-1.3272 2.96289-2.9628 0-1.6356-1.32436-2.9629-2.96289-2.9629h-11.85156v-11.8516c0-1.6356-1.32733-2.9629-2.96289-2.9629z" fill="#fff" stroke="#fff" stroke-width=".25"/>
</svg>