<?xml version="1.0" encoding="UTF-8" standalone="no"?>
<svg
   xmlns:dc="http://purl.org/dc/elements/1.1/"
   xmlns:cc="http://creativecommons.org/ns#"
   xmlns:rdf="http://www.w3.org/1999/02/22-rdf-syntax-ns#"
   xmlns:svg="http://www.w3.org/2000/svg"
   xmlns="http://www.w3.org/2000/svg"
   xmlns:sodipodi="http://sodipodi.sourceforge.net/DTD/sodipodi-0.dtd"
   xmlns:inkscape="http://www.inkscape.org/namespaces/inkscape"
   id="svg4213"
   height="100"
   viewBox="0 0 148.52183 228"
   width="148.52182"
   version="1.1"
   inkscape:version="0.91 r13725"
   sodipodi:docname="add_column_between.svg">
  <metadata
     id="metadata10">
    <rdf:RDF>
      <cc:Work
         rdf:about="">
        <dc:format>image/svg+xml</dc:format>
        <dc:type
           rdf:resource="http://purl.org/dc/dcmitype/StillImage" />
      </cc:Work>
    </rdf:RDF>
  </metadata>
  <defs
     id="defs8" />
  <sodipodi:namedview
     pagecolor="#ffffff"
     bordercolor="#666666"
     borderopacity="1"
     objecttolerance="10"
     gridtolerance="10"
     guidetolerance="10"
     inkscape:pageopacity="0"
     inkscape:pageshadow="2"
     inkscape:window-width="1920"
     inkscape:window-height="1017"
     id="namedview6"
     showgrid="false"
     inkscape:zoom="1.0350877"
     inkscape:cx="-397.67977"
     inkscape:cy="114"
     inkscape:window-x="-8"
     inkscape:window-y="-8"
     inkscape:window-maximized="1"
     inkscape:current-layer="svg4213" />
  <g
     id="layer1"
     transform="translate(-254.14345,-545.50506)">
    <g
       id="g4192"
       transform="matrix(0.40497412,0,0,-0.40497412,-340.68788,745.81575)">
      <path
         id="path4185"
         d="m 1562.338,0 -76.8988,0 c -9.171,0 -16.626,7.441 -16.626,16.626 l 0,343.807 33.252,0 0,-327.181 60.2728,0 m 178.7,0 61.2662,0 0,428.052 -300.239,0 0,-124.145 -33.252,0 0,140.769 c 0,9.186 7.455,16.626 16.626,16.626 l 345.229,-10e-6 c 0.038,-0.23112 0.016,0.24425 0.016,0 3.008,-3.004 4.873,-6.42399 4.873,-11.01599 l 0,-466.912 -10e-4,0 C 1835.5562,7.441 1827.5013,0 1818.3313,0 l -77.2983,0 m -168.8398,75.02495 c -5.875,0 -11.186,3.538 -13.428,8.977 -0.744,1.803 -1.104,3.689 -1.104,5.569 0,3.798 1.474,7.519 4.255,10.292 l 79.508,79.492 c 2.728,2.728 6.426,4.272 10.277,4.272 3.865,0 7.563,-1.544 10.291,-4.272 l 79.492,-79.492 c 2.795,-2.789 4.27,-6.509 4.27,-10.292 0,-1.881 -0.359,-3.767 -1.101,-5.569 -2.26,-5.439 -7.57,-8.977 -13.445,-8.977 l -23.396,0 0,-128.85 c 0,-8.022 -6.508,-14.548 -14.547,-14.548 l -83.129,0 c -8.037,0 -14.549,6.525 -14.549,14.548 l 0,128.85 z"
         inkscape:connector-curvature="0" />
    </g>
  </g>
</svg>
