<?xml version="1.0" encoding="UTF-8" standalone="no"?>
<svg
   xmlns:dc="http://purl.org/dc/elements/1.1/"
   xmlns:cc="http://creativecommons.org/ns#"
   xmlns:rdf="http://www.w3.org/1999/02/22-rdf-syntax-ns#"
   xmlns:svg="http://www.w3.org/2000/svg"
   xmlns="http://www.w3.org/2000/svg"
   xmlns:sodipodi="http://sodipodi.sourceforge.net/DTD/sodipodi-0.dtd"
   xmlns:inkscape="http://www.inkscape.org/namespaces/inkscape"
   id="svg4213"
   height="100"
   viewBox="0 0 210.00599 200"
   width="210.00598"
   version="1.1"
   inkscape:version="0.91 r13725"
   sodipodi:docname="add_column_right.svg">
  <metadata
     id="metadata10">
    <rdf:RDF>
      <cc:Work
         rdf:about="">
        <dc:format>image/svg+xml</dc:format>
        <dc:type
           rdf:resource="http://purl.org/dc/dcmitype/StillImage" />
      </cc:Work>
    </rdf:RDF>
  </metadata>
  <defs
     id="defs8" />
  <sodipodi:namedview
     pagecolor="#ffffff"
     bordercolor="#666666"
     borderopacity="1"
     objecttolerance="10"
     gridtolerance="10"
     guidetolerance="10"
     inkscape:pageopacity="0"
     inkscape:pageshadow="2"
     inkscape:window-width="1920"
     inkscape:window-height="1017"
     id="namedview6"
     showgrid="false"
     inkscape:zoom="1.18"
     inkscape:cx="-25.081755"
     inkscape:cy="100"
     inkscape:window-x="-8"
     inkscape:window-y="-8"
     inkscape:window-maximized="1"
     inkscape:current-layer="svg4213" />
  <g
     id="layer1"
     transform="translate(-166.97579,-519.50506)">
    <g
       id="g4215"
       transform="matrix(-0.40434598,0,0,0.40434598,820.78828,519.50506)">
      <path
         id="path4211"
         d="m 1206.193,327.305 c 0,5.875 -3.538,11.186 -8.977,13.428 -1.803,0.744 -3.689,1.104 -5.569,1.104 -3.798,0 -7.519,-1.474 -10.292,-4.255 l -79.492,-79.508 c -2.728,-2.728 -4.272,-6.426 -4.272,-10.277 0,-3.865 1.544,-7.563 4.272,-10.291 l 79.492,-79.492 c 2.789,-2.795 6.509,-4.27 10.292,-4.27 1.881,0 3.767,0.359 5.569,1.101 5.439,2.26 8.977,7.57 8.977,13.445 l 0,23.396 128.85,0 c 8.022,0 14.548,6.508 14.548,14.547 l 0,83.129 c 0,8.037 -6.525,14.549 -14.548,14.549 l -128.85,0 z M 1616.962,16.626 C 1616.962,7.441 1609.507,0 1600.337,0 l -333.492,0 c -9.171,0 -16.626,7.441 -16.626,16.626 l 0,141.807 33.252,0 0,-125.181 300.239,0 c 0,142.684 0,285.368 0,428.052 l -300.239,0 0,-124.145 -33.252,0 0,140.769 c 0,9.186 7.455,16.626 16.626,16.626 l 345.229,-10e-6 c 0.038,-0.23112 0.016,0.24425 0.016,0 3.008,-3.004 4.873,-6.42399 4.873,-11.01599 l 0,-466.912 z"
         inkscape:connector-curvature="0" />
    </g>
  </g>
</svg>
