<svg id="svg4799" height="195" viewBox="0 0 26.5 195" overflow="visible" width="26.5" xmlns="http://www.w3.org/2000/svg"><g id="layer1" stroke="#4d4d4d" stroke-linecap="round" stroke-linejoin="round"><rect id="rect4459" fill="#fff" height="194.5" rx="2" stroke-width=".49999961" width="26"/><path id="path4481" d="m12.99921 11.24951a11 11 0 0 0 -11 11 11 11 0 0 0  11 11 11 11 0 0 0  11-11 11 11 0 0 0 -11-11zm0 75a11 11 0 0 0 -11 11 11 11 0 0 0  11 11 11 11 0 0 0  11-11 11 11 0 0 0 -11-11zm0 75a11 11 0 0 0 -11 11 11 11 0 0 0  11 11 11 11 0 0 0  11-11 11 11 0 0 0 -11-11z" fill="#f2f2f2" stroke-width=".5"/><path id="circle4483" d="m12.99921 13.49951a8.75 8.75 0 0 0 -8.75 8.75 8.75 8.75 0 0 0  8.75 8.75 8.75 8.75 0 0 0  8.75-8.75 8.75 8.75 0 0 0 -8.75-8.75zm0 75a8.75 8.75 0 0 0 -8.75 8.75 8.75 8.75 0 0 0  8.75 8.75 8.75 8.75 0 0 0  8.75-8.75 8.75 8.75 0 0 0 -8.75-8.75zm0 75a8.75 8.75 0 0 0 -8.75 8.75 8.75 8.75 0 0 0  8.75 8.75 8.75 8.75 0 0 0  8.75-8.75 8.75 8.75 0 0 0 -8.75-8.75z" fill="#ccc" stroke-width=".5"/></g></svg>