<svg id="svg4799" height="195" viewBox="0 0 42.5 195" width="42.5" overflow="visible" xmlns="http://www.w3.org/2000/svg"><g id="layer1" stroke="#4d4d4d" stroke-linecap="round" stroke-linejoin="round"><rect id="rect4493" fill="#fff" height="194.5" rx="2" stroke-width=".49999961" width="42"/><path id="circle4495" d="m21.000962 11.249511a19 19 0 0 0 -19.0000002 19 19 19 0 0 0  19.0000002 19 19 19 0 0 0  19-19 19 19 0 0 0 -19-19zm0 67a19 19 0 0 0 -19.0000002 19 19 19 0 0 0  19.0000002 18.999999 19 19 0 0 0  19-18.999999 19 19 0 0 0 -19-19zm0 66.999999a19 19 0 0 0 -19.0000002 19 19 19 0 0 0  19.0000002 19 19 19 0 0 0  19-19 19 19 0 0 0 -19-19z" fill="#f2f2f2" stroke-width=".5"/><path id="circle4497" d="m21.000962 15.136231a15.113636 15.113636 0 0 0 -15.1152402 15.11328 15.113636 15.113636 0 0 0  15.1152402 15.11524 15.113636 15.113636 0 0 0  15.11328-15.11524 15.113636 15.113636 0 0 0 -15.11328-15.11328zm0 67a15.113636 15.113636 0 0 0 -15.1152402 15.11328 15.113636 15.113636 0 0 0  15.1152402 15.113279 15.113636 15.113636 0 0 0  15.11328-15.113279 15.113636 15.113636 0 0 0 -15.11328-15.11328zm0 66.999999a15.113636 15.113636 0 0 0 -15.1152402 15.11328 15.113636 15.113636 0 0 0  15.1152402 15.11524 15.113636 15.113636 0 0 0  15.11328-15.11524 15.113636 15.113636 0 0 0 -15.11328-15.11328z" fill="#ccc" stroke-width=".5"/></g></svg>