<svg id="svg4799" height="195" viewBox="0 0 56.5 195" width="56.5" xmlns="http://www.w3.org/2000/svg"><g id="layer1" stroke="#4d4d4d" stroke-linecap="round" stroke-linejoin="round"><rect id="rect4507" fill="#fff" height="194.5" rx="2.6666665" ry="2" stroke-width=".49999961" width="56"/><path id="circle4509" d="m27.999517 11.249511a26 26 0 0 0 -26 26 26 26 0 0 0  26 26 26 26 0 0 0  26-26 26 26 0 0 0 -26-26zm0 60a26 26 0 0 0 -26 26 26 26 0 0 0  26 25.999999 26 26 0 0 0  26-25.999999 26 26 0 0 0 -26-26zm0 59.999999a26 26 0 0 0 -26 26 26 26 0 0 0  26 26 26 26 0 0 0  26-26 26 26 0 0 0 -26-26z" fill="#f2f2f2" stroke-width=".5"/><path id="circle4511" d="m27.999517 16.567871a20.681818 20.681818 0 0 0 -20.68164 20.68164 20.681818 20.681818 0 0 0  20.68164 20.68359 20.681818 20.681818 0 0 0  20.68164-20.68359 20.681818 20.681818 0 0 0 -20.68164-20.68164zm0 60a20.681818 20.681818 0 0 0 -20.68164 20.68164 20.681818 20.681818 0 0 0  20.68164 20.681639 20.681818 20.681818 0 0 0  20.68164-20.681639 20.681818 20.681818 0 0 0 -20.68164-20.68164zm0 59.999999a20.681818 20.681818 0 0 0 -20.68164 20.68164 20.681818 20.681818 0 0 0  20.68164 20.68359 20.681818 20.681818 0 0 0  20.68164-20.68359 20.681818 20.681818 0 0 0 -20.68164-20.68164z" fill="#ccc" stroke-width=".5"/></g></svg>