<?xml version="1.0" encoding="UTF-8" standalone="no"?>
<svg
   xmlns:dc="http://purl.org/dc/elements/1.1/"
   xmlns:cc="http://creativecommons.org/ns#"
   xmlns:rdf="http://www.w3.org/1999/02/22-rdf-syntax-ns#"
   xmlns:svg="http://www.w3.org/2000/svg"
   xmlns="http://www.w3.org/2000/svg"
   xmlns:sodipodi="http://sodipodi.sourceforge.net/DTD/sodipodi-0.dtd"
   xmlns:inkscape="http://www.inkscape.org/namespaces/inkscape"
   id="svg2"
   height="68.800003"
   viewBox="0 0 68.800004 68.800004"
   width="68.800003"
   version="1.1"
   inkscape:version="0.91 r13725"
   sodipodi:docname="Flange_EV0121.svg">
  <metadata
     id="metadata16">
    <rdf:RDF>
      <cc:Work
         rdf:about="">
        <dc:format>image/svg+xml</dc:format>
        <dc:type
           rdf:resource="http://purl.org/dc/dcmitype/StillImage" />
        <dc:title></dc:title>
      </cc:Work>
    </rdf:RDF>
  </metadata>
  <defs
     id="defs14" />
  <sodipodi:namedview
     pagecolor="#ffffff"
     bordercolor="#666666"
     borderopacity="1"
     objecttolerance="10"
     gridtolerance="10"
     guidetolerance="10"
     inkscape:pageopacity="0"
     inkscape:pageshadow="2"
     inkscape:window-width="1920"
     inkscape:window-height="1017"
     id="namedview12"
     showgrid="false"
     inkscape:zoom="11.453488"
     inkscape:cx="34.400002"
     inkscape:cy="34.400002"
     inkscape:window-x="-8"
     inkscape:window-y="-8"
     inkscape:window-maximized="1"
     inkscape:current-layer="svg2" />
  <g
     id="EV0121"
     fill="#ced8de"
     stroke="#000">
    <rect
       id="Flange"
       height="68"
       stroke-width=".8"
       width="68" />
    <g
       id="Cable"
       stroke-linejoin="round">
      <circle
         id="Circle"
         cx="34"
         cy="33"
         r="26.299999" />
      <path
         style="stroke-width:0.5"
         inkscape:connector-curvature="0"
         d="m 34.050781,10.416016 a 22.5,22.5 0 0 0 -22.5,22.5 22.5,22.5 0 0 0 22.5,22.5 22.5,22.5 0 0 0 22.5,-22.5 22.5,22.5 0 0 0 -22.5,-22.5 z m 0,0.798828 A 21.700001,21.700001 0 0 1 55.75,32.916016 21.700001,21.700001 0 0 1 34.050781,54.615234 21.700001,21.700001 0 0 1 12.351562,32.916016 21.700001,21.700001 0 0 1 24.046875,13.667969 l 0.01367,0.01758 c -0.0077,0.0035 -0.09961,0.04492 -0.09961,0.04492 l 0.695312,0.820312 3.945312,-1.53125 -0.05469,-1.078125 c 0,0 -0.09605,0.03271 -0.103516,0.03516 l -0.002,-0.01562 a 21.700001,21.700001 0 0 1 5.609375,-0.746094 z"
         id="M50" />
      <path
         style="stroke-width:0.5"
         inkscape:connector-curvature="0"
         d="m 45.340885,48.98492 a 19.638638,19.638638 0 0 0 4.7788,-27.359008 19.638638,19.638638 0 0 0 -27.359008,-4.7788 19.638638,19.638638 0 0 0 -4.7788,27.359008 19.638638,19.638638 0 0 0 27.359008,4.7788 z m -0.400838,-0.570502 a 18.940376,18.940376 0 0 1 -26.386273,-4.610116 18.940376,18.940376 0 0 1 4.608721,-26.385292 18.940376,18.940376 0 0 1 26.385293,4.60872 18.940376,18.940376 0 0 1 1.305848,19.614947 l -0.01858,-0.0057 c 0.0037,-0.0063 0.0486,-0.08207 0.0486,-0.08207 l -0.908191,-0.23695 -2.049283,3.073266 0.580037,0.742529 c 0,0 0.05219,-0.07156 0.05629,-0.07706 l 0.0092,0.01018 a 18.940376,18.940376 0 0 1 -3.631691,3.347527 z"
         id="M40" />
      <path
         style="stroke-width:0.5"
         inkscape:connector-curvature="0"
         d="M 17.853758,29.346567 A 16.58567,16.58567 0 0 0 30.481332,49.113039 16.58567,16.58567 0 0 0 50.247804,36.485465 16.58567,16.58567 0 0 0 37.62023,16.718993 16.58567,16.58567 0 0 0 17.853758,29.346567 Z m 0.575052,0.126727 A 15.995959,15.995959 0 0 1 37.493192,17.295451 15.995959,15.995959 0 0 1 49.671346,36.358426 15.995959,15.995959 0 0 1 30.60837,48.536581 15.995959,15.995959 0 0 1 18.607694,37.063952 l 0.01481,-0.0071 c 0.0013,0.006 0.01654,0.07885 0.01654,0.07885 l 0.700821,-0.370396 -0.476405,-3.083023 -0.784782,-0.131671 c 0,0 0.0083,0.07434 0.0089,0.0801 l -0.01158,-0.0012 a 15.995959,15.995959 0 0 1 0.352794,-4.15637 z"
         id="M32" />
    </g>
  </g>
</svg>
