<svg id="svg2" height="68.800003" viewBox="0 0 34.8 68.800004" width="34.799999" xmlns="http://www.w3.org/2000/svg"><g id="EV0125" fill="#d8e2e7" stroke="#000"><rect id="Flange" height="68" stroke-width=".8" width="34"/><g id="Cable_LT1" transform="translate(-.52335 .044163)"><circle id="circle" cx="11" cy="6.5" r="4"/><circle id="circle4177" cx="11" cy="6.5" r="2" stroke-width=".8"/></g><g id="Cable_RT1" transform="translate(14.184773 .044163)"><circle id="circle-48" cx="9" cy="6.5" r="4"/><circle id="circle4177-43" cx="9" cy="6.5" r="2" stroke-width=".8"/></g><g id="Cable_LT2" transform="translate(-.52335 10.92792)"><circle id="circle-1" cx="11" cy="9" r="4"/><circle id="circle4177-3" cx="11" cy="9" r="2" stroke-width=".8"/></g><g id="Cable_LT3" transform="translate(-.52335 27.145179)"><circle id="circle-3" cx="11" cy="6.5" r="4"/><circle id="circle4177-6" cx="11" cy="6.5" r="2" stroke-width=".8"/></g><g id="Cable_LT4" transform="translate(-.52335 39.761423)"><circle id="circle-39" cx="11" cy="6.5" r="4"/><circle id="circle4177-9" cx="11" cy="6.5" r="2" stroke-width=".8"/></g><g id="Cable_LT5" transform="translate(-.52335 53.905587)"><circle id="circle-9" cx="11" cy="6.5" r="4"/><circle id="circle4177-62" cx="11" cy="6.5" r="2" stroke-width=".8"/></g><g id="Cable_RT2" transform="translate(14.184773 13.32792)"><circle id="circle-48-2" cx="9" cy="6.5" r="4"/><circle id="circle4177-43-8" cx="9" cy="6.5" r="2" stroke-width=".8"/></g><g id="Cable_RT3" transform="translate(14.184772 27.145179)"><circle id="circle-48-4" cx="9" cy="6.5" r="4"/><circle id="circle4177-43-80" cx="9" cy="6.5" r="2" stroke-width=".8"/></g><g id="Cable_RT4" transform="translate(14.184773 39.761423)"><circle id="circle-48-49" cx="9" cy="6.5" r="4"/><circle id="circle4177-43-3" cx="9" cy="6.5" r="2" stroke-width=".8"/></g><g id="Cable_RT5" transform="translate(14.184773 53.905587)"><circle id="circle-48-5" cx="9" cy="6.5" r="4"/><circle id="circle4177-43-0" cx="9" cy="6.6" r="2" stroke-width=".8"/></g></g></svg>