<svg id="svg10" enable-background="new 0 0 1000 1000" height="75" viewBox="0 0 75 75" width="75" xmlns="http://www.w3.org/2000/svg"><g id="g8" stroke-width="13.06666756" transform="matrix(.07653061 0 0 .07653061 -.7653061 -.7653061)"><g id="g6" transform="matrix(.1 0 0 -.1 0 511)"><path id="path4" d="m4069.5 4067.7l-942.3-942.3h654.9 652.6v-1225-1225h-1225-1225l-4.7 647.8-7.1 647.8-937.6-935.2-935.3-937.6 942.3-942.3 942.3-942.3v666.7 664.3h1225 1225v-1225-1225l-647.8-4.7-647.8-7.1 935.2-937.6 937.6-935.2 942.3 942.3 942.3 942.3h-666.7-664.3v1225 1225h1225 1225v-664.3-666.7l942.3 942.3 942.3 942.3-935.2 937.6-937.6 935.2-7.1-647.8-4.7-647.8h-1225-1225v1225 1225l659.6 4.7 659.6 7.1-935.2 937.6-937.6 935.2z"/></g></g></svg>