<svg id="svg4838" height="225.5" overflow="visible" viewBox="0 0 190.5 225.5" width="190.5" xmlns="http://www.w3.org/2000/svg"><g id="layer1" fill="#c8c8c8" fill-opacity=".8" stroke="#000" stroke-linecap="round" stroke-width=".5"><path id="partition" d="m17.12501 14.75a2.375 2.375 0 0 1 -2.375 2.375 2.375 2.375 0 0 1 -2.375-2.375 2.375 2.375 0 0 1  2.375-2.375 2.375 2.375 0 0 1  2.375 2.375zm2.375 0a4.75 4.75 0 0 1 -4.75 4.75 4.75 4.75 0 0 1 -4.75-4.75 4.75 4.75 0 0 1  4.75-4.75 4.75 4.75 0 0 1  4.75 4.75zm158.12452 0a2.375 2.375 0 0 1 -2.375 2.375 2.375 2.375 0 0 1 -2.375-2.375 2.375 2.375 0 0 1  2.375-2.375 2.375 2.375 0 0 1  2.375 2.375zm2.375 0a4.75 4.75 0 0 1 -4.75 4.75 4.75 4.75 0 0 1 -4.75-4.75 4.75 4.75 0 0 1  4.75-4.75 4.75 4.75 0 0 1  4.75 4.75zm-162.87452 195.49972a2.375 2.375 0 0 1 -2.375 2.375 2.375 2.375 0 0 1 -2.375-2.375 2.375 2.375 0 0 1  2.375-2.375 2.375 2.375 0 0 1  2.375 2.375zm2.375 0a4.75 4.75 0 0 1 -4.75 4.75 4.75 4.75 0 0 1 -4.75-4.75 4.75 4.75 0 0 1  4.75-4.75 4.75 4.75 0 0 1  4.75 4.75zm158.12452 0a2.375 2.375 0 0 1 -2.375 2.375 2.375 2.375 0 0 1 -2.375-2.375 2.375 2.375 0 0 1  2.375-2.375 2.375 2.375 0 0 1  2.375 2.375zm2.375 0a4.75 4.75 0 0 1 -4.75 4.75 4.75 4.75 0 0 1 -4.75-4.75 4.75 4.75 0 0 1  4.75-4.75 4.75 4.75 0 0 1  4.75 4.75zm-179.99953-210.24972h190v225h-190z"/></g></svg>