<svg id="svg2" height="155.5" overflow="visible" viewBox="0 0 215.5 155.5" width="215.5" xmlns="http://www.w3.org/2000/svg"><g id="layer1" fill="#c8c8c8" fill-opacity=".8" stroke="#000" stroke-linecap="round" stroke-width=".5"><path id="partition" d="m202.62503 140.25a2.375 2.375 0 0 1 -2.375 2.375 2.375 2.375 0 0 1 -2.375-2.375 2.375 2.375 0 0 1  2.375-2.375 2.375 2.375 0 0 1  2.375 2.375zm2.375 0a4.75 4.75 0 0 1 -4.75 4.75 4.75 4.75 0 0 1 -4.75-4.75 4.75 4.75 0 0 1  4.75-4.75 4.75 4.75 0 0 1  4.75 4.75zm-187.87503 0a2.375 2.375 0 0 1 -2.375 2.375 2.375 2.375 0 0 1 -2.375-2.375 2.375 2.375 0 0 1  2.375-2.375 2.375 2.375 0 0 1  2.375 2.375zm2.375 0a4.75 4.75 0 0 1 -4.75 4.75 4.75 4.75 0 0 1 -4.75-4.75 4.75 4.75 0 0 1  4.75-4.75 4.75 4.75 0 0 1  4.75 4.75zm183.12503-125.5a2.375 2.375 0 0 1 -2.375 2.375 2.375 2.375 0 0 1 -2.375-2.375 2.375 2.375 0 0 1  2.375-2.375 2.375 2.375 0 0 1  2.375 2.375zm2.375 0a4.75 4.75 0 0 1 -4.75 4.75 4.75 4.75 0 0 1 -4.75-4.75 4.75 4.75 0 0 1  4.75-4.75 4.75 4.75 0 0 1  4.75 4.75zm-187.87503 0a2.375 2.375 0 0 1 -2.375 2.375 2.375 2.375 0 0 1 -2.375-2.375 2.375 2.375 0 0 1  2.375-2.375 2.375 2.375 0 0 1  2.375 2.375zm2.375 0a4.75 4.75 0 0 1 -4.75 4.75 4.75 4.75 0 0 1 -4.75-4.75 4.75 4.75 0 0 1  4.75-4.75 4.75 4.75 0 0 1  4.75 4.75zm-19.5-14.75h215.00003v155h-215.00003z"/></g></svg>