<svg id="svg2" height="220.8" overflow="visible" viewBox="0 0 385.79999 220.8" width="385.79999" xmlns="http://www.w3.org/2000/svg"><g id="layer1" fill="#ececec" fill-rule="evenodd" stroke="#000" stroke-linecap="round" stroke-width=".80000001"><path id="rect4183" d="m0 .00000305v219.99999695h385v-219.99999695zm13.5 6.74999995a3.25 3.25 0 0 1 3.25 3.25 3.25 3.25 0 0 1 -3.25 3.25 3.25 3.25 0 0 1 -3.25-3.25 3.25 3.25 0 0 1  3.25-3.25zm179 0a3.25 3.25 0 0 1 3.25 3.25 3.25 3.25 0 0 1 -3.25 3.25 3.25 3.25 0 0 1 -3.25-3.25 3.25 3.25 0 0 1  3.25-3.25zm178.69922 0a3.25 3.25 0 0 1 3.25 3.25 3.25 3.25 0 0 1 -3.25 3.25 3.25 3.25 0 0 1 -3.25-3.25 3.25 3.25 0 0 1  3.25-3.25zm-357.69922 199.999997a3.25 3.25 0 0 1 3.25 3.25 3.25 3.25 0 0 1 -3.25 3.25 3.25 3.25 0 0 1 -3.25-3.25 3.25 3.25 0 0 1  3.25-3.25zm179 0a3.25 3.25 0 0 1 3.25 3.25 3.25 3.25 0 0 1 -3.25 3.25 3.25 3.25 0 0 1 -3.25-3.25 3.25 3.25 0 0 1  3.25-3.25zm178.69922 0a3.25 3.25 0 0 1 3.25 3.25 3.25 3.25 0 0 1 -3.25 3.25 3.25 3.25 0 0 1 -3.25-3.25 3.25 3.25 0 0 1  3.25-3.25z"/></g></svg>