<svg id="svg2" height="220.8" overflow="visible" viewBox="0 0 385.79999 220.8" width="385.79999" xmlns="http://www.w3.org/2000/svg"><g id="layer1" fill-rule="evenodd" stroke="#000" stroke-linecap="round" stroke-width=".80000001"><path id="rect4183" d="m0 .00000305v219.99999695h385v-219.99999695zm13.5 6.74999995c1.794925 0 3.25 1.4550746 3.25 3.25 0 1.794925-1.455075 3.25-3.25 3.25-1.794925 0-3.25-1.455075-3.25-3.25 0-1.7949254 1.455075-3.25 3.25-3.25zm179 0c1.79493 0 3.25 1.4550746 3.25 3.25 0 1.794925-1.45507 3.25-3.25 3.25-1.79493 0-3.25-1.455075-3.25-3.25 0-1.7949254 1.45507-3.25 3.25-3.25zm179 0c1.79493 0 3.25 1.4550746 3.25 3.25 0 1.794925-1.45507 3.25-3.25 3.25-1.79493 0-3.25-1.455075-3.25-3.25 0-1.7949254 1.45507-3.25 3.25-3.25zm-358 199.999997c1.794925 0 3.25 1.45507 3.25 3.25 0 1.79493-1.455075 3.25-3.25 3.25-1.794925 0-3.25-1.45507-3.25-3.25 0-1.79493 1.455075-3.25 3.25-3.25zm179 0c1.79493 0 3.25 1.45507 3.25 3.25 0 1.79493-1.45507 3.25-3.25 3.25-1.79493 0-3.25-1.45507-3.25-3.25 0-1.79493 1.45507-3.25 3.25-3.25zm179 0c1.79493 0 3.25 1.45507 3.25 3.25 0 1.79493-1.45507 3.25-3.25 3.25-1.79493 0-3.25-1.45507-3.25-3.25 0-1.79493 1.45507-3.25 3.25-3.25z" fill="#ccc"/><path id="circle4277" d="m320.5 65.000003c0 20.98682-17.01318 37.999997-38 37.999997-20.98682 0-38-17.013177-38-37.999997 0-20.98682 17.01318-38 38-38 20.98682 0 38 17.01318 38 38zm-90 0c0 20.98682-17.01318 37.999997-38 37.999997-20.98682 0-38-17.013177-38-37.999997 0-20.98682 17.01318-38 38-38 20.98682 0 38 17.01318 38 38zm90 89.999997c0 20.98682-17.01318 38-38 38-20.98682 0-38-17.01318-38-38 0-20.98682 17.01318-38 38-38 20.98682 0 38 17.01318 38 38zm-90 0c0 20.98682-17.01318 38-38 38-20.98682 0-38-17.01318-38-38 0-20.98682 17.01318-38 38-38 20.98682 0 38 17.01318 38 38zm-90 0c0 20.98682-17.01318 38-38 38-20.98682 0-38-17.01318-38-38 0-20.98682 17.01318-38 38-38 20.98682 0 38 17.01318 38 38zm0-89.999997c0 20.98682-17.01318 37.999997-38 37.999997-20.98682 0-38-17.013177-38-37.999997 0-20.98682 17.01318-38 38-38 20.98682 0 38 17.01318 38 38z" fill="#6f7073"/><path id="circle4287" d="m289.5 34.000003c0 3.865993-3.13401 7-7 7-3.86599 0-7-3.134007-7-7 0-3.865993 3.13401-7 7-7 3.86599 0 7 3.134007 7 7zm7 7c0 7.731986-6.26801 14-14 14-7.73199 0-14-6.268014-14-14 0-7.731986 6.26801-14 14-14 7.73199 0 14 6.268014 14 14zm7 7c0 11.59798-9.40202 21-21 21-11.59798 0-21-9.40202-21-21 0-11.59798 9.40202-21 21-21 11.59798 0 21 9.40202 21 21zm7 7c0 15.463973-12.53603 28-28 28-15.46397 0-28-12.536027-28-28 0-15.463973 12.53603-28 28-28 15.46397 0 28 12.536027 28 28zm6 6c0 18.777681-15.22232 34-34 34-18.77768 0-34-15.222319-34-34 0-18.777681 15.22232-34 34-34 18.77768 0 34 15.222319 34 34zm-117-27c0 3.865993-3.13401 7-7 7-3.86599 0-7-3.134007-7-7 0-3.865993 3.13401-7 7-7 3.86599 0 7 3.134007 7 7zm7 7c0 7.731986-6.26801 14-14 14-7.73199 0-14-6.268014-14-14 0-7.731986 6.26801-14 14-14 7.73199 0 14 6.268014 14 14zm7 7c0 11.59798-9.40202 21-21 21-11.59798 0-21-9.40202-21-21 0-11.59798 9.40202-21 21-21 11.59798 0 21 9.40202 21 21zm7 7c0 15.463973-12.53603 28-28 28-15.46397 0-28-12.536027-28-28 0-15.463973 12.53603-28 28-28 15.46397 0 28 12.536027 28 28zm6 6c0 18.777681-15.22232 34-34 34-18.77768 0-34-15.222319-34-34 0-18.777681 15.22232-34 34-34 18.77768 0 34 15.222319 34 34zm63 62.999997c0 3.86599-3.13401 7-7 7-3.86599 0-7-3.13401-7-7 0-3.86599 3.13401-7 7-7 3.86599 0 7 3.13401 7 7zm7 7c0 7.73199-6.26801 14-14 14-7.73199 0-14-6.26801-14-14 0-7.73199 6.26801-14 14-14 7.73199 0 14 6.26801 14 14zm7 7c0 11.59798-9.40202 21-21 21-11.59798 0-21-9.40202-21-21 0-11.59798 9.40202-21 21-21 11.59798 0 21 9.40202 21 21zm7 7c0 15.46397-12.53603 28-28 28-15.46397 0-28-12.53603-28-28 0-15.46397 12.53603-28 28-28 15.46397 0 28 12.53603 28 28zm6 6c0 18.77768-15.22232 34-34 34-18.77768 0-34-15.22232-34-34 0-18.77768 15.22232-34 34-34 18.77768 0 34 15.22232 34 34zm-117-27c0 3.86599-3.13401 7-7 7-3.86599 0-7-3.13401-7-7 0-3.86599 3.13401-7 7-7 3.86599 0 7 3.13401 7 7zm7 7c0 7.73199-6.26801 14-14 14-7.73199 0-14-6.26801-14-14 0-7.73199 6.26801-14 14-14 7.73199 0 14 6.26801 14 14zm7 7c0 11.59798-9.40202 21-21 21-11.59798 0-21-9.40202-21-21 0-11.59798 9.40202-21 21-21 11.59798 0 21 9.40202 21 21zm7 7c0 15.46397-12.53603 28-28 28-15.46397 0-28-12.53603-28-28 0-15.46397 12.53603-28 28-28 15.46397 0 28 12.53603 28 28zm6 6c0 18.77768-15.22232 34-34 34-18.77768 0-34-15.22232-34-34 0-18.77768 15.22232-34 34-34 18.77768 0 34 15.22232 34 34zm-117-27c0 3.86599-3.13401 7-7 7-3.865993 0-7-3.13401-7-7 0-3.86599 3.134007-7 7-7 3.86599 0 7 3.13401 7 7zm7 7c0 7.73199-6.26801 14-14 14-7.731986 0-14-6.26801-14-14 0-7.73199 6.268014-14 14-14 7.73199 0 14 6.26801 14 14zm7 7c0 11.59798-9.40202 21-21 21-11.59798 0-21-9.40202-21-21 0-11.59798 9.40202-21 21-21 11.59798 0 21 9.40202 21 21zm7 7c0 15.46397-12.53603 28-28 28-15.463973 0-28-12.53603-28-28 0-15.46397 12.536027-28 28-28 15.46397 0 28 12.53603 28 28zm6 6c0 18.77768-15.22232 34-34 34-18.777681 0-34-15.22232-34-34 0-18.77768 15.222319-34 34-34 18.77768 0 34 15.22232 34 34zm-27-116.999997c0 3.865993-3.13401 7-7 7-3.865993 0-7-3.134007-7-7 0-3.865993 3.134007-7 7-7 3.86599 0 7 3.134007 7 7zm7 7c0 7.731986-6.26801 14-14 14-7.731986 0-14-6.268014-14-14 0-7.731986 6.268014-14 14-14 7.73199 0 14 6.268014 14 14zm7 7c0 11.59798-9.40202 21-21 21-11.59798 0-21-9.40202-21-21 0-11.59798 9.40202-21 21-21 11.59798 0 21 9.40202 21 21zm7 7c0 15.463973-12.53603 28-28 28-15.463973 0-28-12.536027-28-28 0-15.463973 12.536027-28 28-28 15.46397 0 28 12.536027 28 28zm6 6c0 18.777681-15.22232 34-34 34-18.777681 0-34-15.222319-34-34 0-18.777681 15.222319-34 34-34 18.77768 0 34 15.222319 34 34z" fill="#77797c"/></g></svg>