<svg id="svg2" height="220.8" overflow="visible" viewBox="0 0 615.79999 220.8" width="615.79999" xmlns="http://www.w3.org/2000/svg"><g id="layer1" fill="#ececec" fill-rule="evenodd" stroke="#000" stroke-linecap="round" stroke-width=".8"><path id="rect4157" d="m0 0v220h615v-220zm13.5 6.75c1.794925 0 3.25 1.45507 3.25 3.25 0 1.79493-1.455075 3.25-3.25 3.25-1.794925 0-3.25-1.45507-3.25-3.25 0-1.79493 1.455075-3.25 3.25-3.25zm135 0c1.79493 0 3.25 1.45507 3.25 3.25 0 1.79493-1.45507 3.25-3.25 3.25-1.79493 0-3.25-1.45507-3.25-3.25 0-1.79493 1.45507-3.25 3.25-3.25zm125 0c1.79493 0 3.25 1.45507 3.25 3.25 0 1.79493-1.45507 3.25-3.25 3.25-1.79493 0-3.25-1.45507-3.25-3.25 0-1.79493 1.45507-3.25 3.25-3.25zm68 0c1.79493 0 3.25 1.45507 3.25 3.25 0 1.79493-1.45507 3.25-3.25 3.25-1.79493 0-3.25-1.45507-3.25-3.25 0-1.79493 1.45507-3.25 3.25-3.25zm125 0c1.79493 0 3.25 1.45507 3.25 3.25 0 1.79493-1.45507 3.25-3.25 3.25-1.79493 0-3.25-1.45507-3.25-3.25 0-1.79493 1.45507-3.25 3.25-3.25zm135 0c1.79493 0 3.25 1.45507 3.25 3.25 0 1.79493-1.45507 3.25-3.25 3.25-1.79493 0-3.25-1.45507-3.25-3.25 0-1.79493 1.45507-3.25 3.25-3.25zm-588 200c1.794925 0 3.25 1.45507 3.25 3.25 0 1.79493-1.455075 3.25-3.25 3.25-1.794925 0-3.25-1.45507-3.25-3.25 0-1.79493 1.455075-3.25 3.25-3.25zm135 0c1.79493 0 3.25 1.45507 3.25 3.25 0 1.79493-1.45507 3.25-3.25 3.25-1.79493 0-3.25-1.45507-3.25-3.25 0-1.79493 1.45507-3.25 3.25-3.25zm125 0c1.79493 0 3.25 1.45507 3.25 3.25 0 1.79493-1.45507 3.25-3.25 3.25-1.79493 0-3.25-1.45507-3.25-3.25 0-1.79493 1.45507-3.25 3.25-3.25zm68 0c1.79493 0 3.25 1.45507 3.25 3.25 0 1.79493-1.45507 3.25-3.25 3.25-1.79493 0-3.25-1.45507-3.25-3.25 0-1.79493 1.45507-3.25 3.25-3.25zm125 0c1.79493 0 3.25 1.45507 3.25 3.25 0 1.79493-1.45507 3.25-3.25 3.25-1.79493 0-3.25-1.45507-3.25-3.25 0-1.79493 1.45507-3.25 3.25-3.25zm135 0c1.79493 0 3.25 1.45507 3.25 3.25 0 1.79493-1.45507 3.25-3.25 3.25-1.79493 0-3.25-1.45507-3.25-3.25 0-1.79493 1.45507-3.25 3.25-3.25z"/></g></svg>