<svg id="svg2" height="220.8" overflow="visible" viewBox="0 0 615.8 220.8" width="615.79999" xmlns="http://www.w3.org/2000/svg"><g id="layer1" fill-rule="evenodd" stroke="#000" stroke-linecap="round"><rect id="rect4183" fill="#ccc" height="220" stroke-width=".80000001" width="615"/><path id="circle4277" d="m81.94049 26.940502a38 38 0 0 0 -38 38 38 38 0 0 0  38 37.999998 38 38 0 0 0  38-37.999998 38 38 0 0 0 -38-38zm90 0a38 38 0 0 0 -38 38 38 38 0 0 0  38 37.999998 38 38 0 0 0  38-37.999998 38 38 0 0 0 -38-38zm90 0a38 38 0 0 0 -38 38 38 38 0 0 0  38 37.999998 38 38 0 0 0  38-37.999998 38 38 0 0 0 -38-38zm90 0a38 38 0 0 0 -38 38 38 38 0 0 0  38 37.999998 38 38 0 0 0  38-37.999998 38 38 0 0 0 -38-38zm90 0a38 38 0 0 0 -38 38 38 38 0 0 0  38 37.999998 38 38 0 0 0  38-37.999998 38 38 0 0 0 -38-38zm90 0c-20.98682 0-38 17.01318-38 38 0 20.98682 17.01318 37.999998 38 37.999998 20.98682 0 38-17.013178 38-37.999998 0-20.98682-17.01318-38-38-38zm-450 89.999998a38 38 0 0 0 -38 38 38 38 0 0 0  38 38.00001 38 38 0 0 0  38-38.00001 38 38 0 0 0 -38-38zm90 0a38 38 0 0 0 -38 38 38 38 0 0 0  38 38.00001 38 38 0 0 0  38-38.00001 38 38 0 0 0 -38-38zm90 0a38 38 0 0 0 -38 38 38 38 0 0 0  38 38.00001 38 38 0 0 0  38-38.00001 38 38 0 0 0 -38-38zm90 0a38 38 0 0 0 -38 38 38 38 0 0 0  38 38.00001 38 38 0 0 0  38-38.00001 38 38 0 0 0 -38-38zm90 0a38 38 0 0 0 -38 38 38 38 0 0 0  38 38.00001 38 38 0 0 0  38-38.00001 38 38 0 0 0 -38-38zm90 0c-20.98682 0-38 17.01318-38 38 0 20.98681 17.01318 38.00001 38 38.00001 20.98682 0 38-17.0132 38-38.00001 0-20.98682-17.01318-38-38-38z" fill="#6f7073" stroke-width=".40000001"/><path id="circle4287" d="m82.5 26.940502a7 7 0 0 0 -.496094.0176 21 21 0 0 1 -.002 0 7 7 0 0 0 -6.501906 6.98242 7 7 0 0 0  7 7 7 7 0 0 0  7-7 7 7 0 0 0 -7-7zm90 0a7 7 0 0 0 -.49609.0176 21 21 0 0 1 -.002 0 7 7 0 0 0 -6.50191 6.98242 7 7 0 0 0  7 7 7 7 0 0 0  7-7 7 7 0 0 0 -7-7zm90 0a7 7 0 0 0 -.49609.0176 21 21 0 0 1 -.002 0 7 7 0 0 0 -6.50191 6.98242 7 7 0 0 0  7 7 7 7 0 0 0  7-7 7 7 0 0 0 -7-7zm90 0a7 7 0 0 0 -.49609.0176 21 21 0 0 1 -.002 0 7 7 0 0 0 -6.50191 6.98242 7 7 0 0 0  7 7 7 7 0 0 0  7-7 7 7 0 0 0 -7-7zm90 0a7 7 0 0 0 -.49609.0176 21 21 0 0 1 -.002 0 7 7 0 0 0 -6.50191 6.98242 7 7 0 0 0  7 7 7 7 0 0 0  7-7 7 7 0 0 0 -7-7zm90 0c-.36244 0-.72215.009-1.08008.0273-.003.00008-.007-.00008-.01 0-11.09094.56734-19.90992 9.74042-19.90992 20.97266 0 11.59798 9.40202 21 21 21 11.59798 0 21-9.40202 21-21 0-11.23224-8.81898-20.40532-19.91016-20.97266-.003-.0001-.007.0001-.01 0-.35769-.0181-.7174-.0273-1.07984-.0273zm-450.992188.0352a21 21 0 0 0 -.49414.0176 28 28 0 0 0 -.0039 0 21 21 0 0 0 -19.509772 20.94726 21 21 0 0 0  21 21 21 21 0 0 0  21-21 21 21 0 0 0 -19.601562-20.92969 14 14 0 0 1  12.601562 13.92969 14 14 0 0 1 -14 14 14 14 0 0 1 -14-14 14 14 0 0 1  13.007812-13.96484zm89.999998 0a21 21 0 0 0 -.49414.0176 28 28 0 0 0 -.004 0 21 21 0 0 0 -19.50967 20.94726 21 21 0 0 0  21 21 21 21 0 0 0  21-21 21 21 0 0 0 -19.60156-20.92969 14 14 0 0 1  12.60156 13.92969 14 14 0 0 1 -14 14 14 14 0 0 1 -14-14 14 14 0 0 1  13.00781-13.96484zm90 0a21 21 0 0 0 -.49414.0176 28 28 0 0 0 -.004 0 21 21 0 0 0 -19.50967 20.94726 21 21 0 0 0  21 21 21 21 0 0 0  21-21 21 21 0 0 0 -19.60156-20.92969 14 14 0 0 1  12.60156 13.92969 14 14 0 0 1 -14 14 14 14 0 0 1 -14-14 14 14 0 0 1  13.00781-13.96484zm90 0a21 21 0 0 0 -.49414.0176 28 28 0 0 0 -.004 0 21 21 0 0 0 -19.50967 20.94726 21 21 0 0 0  21 21 21 21 0 0 0  21-21 21 21 0 0 0 -19.60156-20.92969 14 14 0 0 1  12.60156 13.92969 14 14 0 0 1 -14 14 14 14 0 0 1 -14-14 14 14 0 0 1  13.00781-13.96484zm90 0a21 21 0 0 0 -.49414.0176 28 28 0 0 0 -.004 0 21 21 0 0 0 -19.50967 20.94726 21 21 0 0 0  21 21 21 21 0 0 0  21-21 21 21 0 0 0 -19.60156-20.92969 14 14 0 0 1  12.60156 13.92969 14 14 0 0 1 -14 14 14 14 0 0 1 -14-14 14 14 0 0 1  13.00781-13.96484zm89.55078.002c-18.1085.75588-32.55859 15.66849-32.55859 33.96284 0 18.77768 15.22232 34 34 34 18.77768 0 34-15.22232 34-34 0-18.29435-14.45009-33.20696-32.55859-33.96289 14.79435.74993 26.55859 12.98217 26.55859 27.96289 0 15.46397-12.53603 28-28 28-15.46397 0-28-12.53603-28-28 0-14.98072 11.76424-27.21296 26.55859-27.96289zm.72657 0c-3.52979.35847-6.28516 3.33852-6.28516 6.96289 0 3.86599 3.13401 7 7 7 3.86599 0 7-3.13401 7-7 0-3.62437-2.75537-6.60442-6.28516-6.96289 7.39762.3745 13.28516 6.47222 13.28516 13.96289 0 7.73199-6.26801 14-14 14-7.73199 0-14-6.26801-14-14 0-7.49067 5.88754-13.58839 13.28516-13.96289zm-451.271488.0332a34 34 0 0 0 -32.013672 33.92964 34 34 0 0 0  34 34 34 34 0 0 0  34-34 34 34 0 0 0 -31.205078-33.85938 28 28 0 0 1  25.205078 27.85938 28 28 0 0 1 -28 28 28 28 0 0 1 -28-28 28 28 0 0 1  26.013672-27.92969zm89.999998 0a34 34 0 0 0 -32.01367 33.92964 34 34 0 0 0  34 34 34 34 0 0 0  34-34 34 34 0 0 0 -31.20508-33.85938 28 28 0 0 1  25.20508 27.85938 28 28 0 0 1 -28 28 28 28 0 0 1 -28-28 28 28 0 0 1  26.01367-27.92969zm90 0a34 34 0 0 0 -32.01367 33.92964 34 34 0 0 0  34 34 34 34 0 0 0  34-34 34 34 0 0 0 -31.20508-33.85938 28 28 0 0 1  25.20508 27.85938 28 28 0 0 1 -28 28 28 28 0 0 1 -28-28 28 28 0 0 1  26.01367-27.92969zm90 0a34 34 0 0 0 -32.01367 33.92964 34 34 0 0 0  34 34 34 34 0 0 0  34-34 34 34 0 0 0 -31.20508-33.85938 28 28 0 0 1  25.20508 27.85938 28 28 0 0 1 -28 28 28 28 0 0 1 -28-28 28 28 0 0 1  26.01367-27.92969zm90 0a34 34 0 0 0 -32.01367 33.92964 34 34 0 0 0  34 34 34 34 0 0 0  34-34 34 34 0 0 0 -31.20508-33.85938 28 28 0 0 1  25.20508 27.85938 28 28 0 0 1 -28 28 28 28 0 0 1 -28-28 28 28 0 0 1  26.01367-27.92969zm-358.01367 89.929598a7 7 0 0 0 -.496094.0176 21 21 0 0 1 -.002 0 7 7 0 0 0 -6.501953 6.98242 7 7 0 0 0  7 7 7 7 0 0 0  7-7 7 7 0 0 0 -7-7zm90 0a7 7 0 0 0 -.49609.0176 21 21 0 0 1 -.002 0 7 7 0 0 0 -6.50195 6.98242 7 7 0 0 0  7 7 7 7 0 0 0  7-7 7 7 0 0 0 -7-7zm90 0a7 7 0 0 0 -.49609.0176 21 21 0 0 1 -.002 0 7 7 0 0 0 -6.50195 6.98242 7 7 0 0 0  7 7 7 7 0 0 0  7-7 7 7 0 0 0 -7-7zm90 0a7 7 0 0 0 -.49609.0176 21 21 0 0 1 -.002 0 7 7 0 0 0 -6.50195 6.98242 7 7 0 0 0  7 7 7 7 0 0 0  7-7 7 7 0 0 0 -7-7zm90 0a7 7 0 0 0 -.49609.0176 21 21 0 0 1 -.002 0 7 7 0 0 0 -6.50195 6.98242 7 7 0 0 0  7 7 7 7 0 0 0  7-7 7 7 0 0 0 -7-7zm90 0c-.36244 0-.72215.009-1.08008.0273-.003.00009-.007-.00008-.01 0-11.09118.56734-19.91016 9.74042-19.91016 20.97266 0 11.59798 9.40202 21 21 21 11.59798 0 21-9.40202 21-21 0-11.23224-8.81898-20.40532-19.91016-20.97266-.003-.0001-.007.00011-.01 0-.35745-.0181-.71716-.0273-1.0796-.0273zm-450.992188.0352a21 21 0 0 0 -.49414.0176 28 28 0 0 0 -.0039 0 21 21 0 0 0 -19.509772 20.9472 21 21 0 0 0  21 21 21 21 0 0 0  21-21 21 21 0 0 0 -19.601562-20.92969 14 14 0 0 1  12.601562 13.92969 14 14 0 0 1 -14 14 14 14 0 0 1 -14-14 14 14 0 0 1  13.007812-13.96484zm89.999998 0a21 21 0 0 0 -.49414.0176 28 28 0 0 0 -.004 0 21 21 0 0 0 -19.50967 20.9472 21 21 0 0 0  21 21 21 21 0 0 0  21-21 21 21 0 0 0 -19.60156-20.92969 14 14 0 0 1  12.60156 13.92969 14 14 0 0 1 -14 14 14 14 0 0 1 -14-14 14 14 0 0 1  13.00781-13.96484zm90 0a21 21 0 0 0 -.49414.0176 28 28 0 0 0 -.004 0 21 21 0 0 0 -19.50967 20.9472 21 21 0 0 0  21 21 21 21 0 0 0  21-21 21 21 0 0 0 -19.60156-20.92969 14 14 0 0 1  12.60156 13.92969 14 14 0 0 1 -14 14 14 14 0 0 1 -14-14 14 14 0 0 1  13.00781-13.96484zm90 0a21 21 0 0 0 -.49414.0176 28 28 0 0 0 -.004 0 21 21 0 0 0 -19.50967 20.9472 21 21 0 0 0  21 21 21 21 0 0 0  21-21 21 21 0 0 0 -19.60156-20.92969 14 14 0 0 1  12.60156 13.92969 14 14 0 0 1 -14 14 14 14 0 0 1 -14-14 14 14 0 0 1  13.00781-13.96484zm90 0a21 21 0 0 0 -.49414.0176 28 28 0 0 0 -.004 0 21 21 0 0 0 -19.50967 20.9472 21 21 0 0 0  21 21 21 21 0 0 0  21-21 21 21 0 0 0 -19.60156-20.92969 14 14 0 0 1  12.60156 13.92969 14 14 0 0 1 -14 14 14 14 0 0 1 -14-14 14 14 0 0 1  13.00781-13.96484zm89.55078.002c-18.1085.75593-32.55859 15.66854-32.55859 33.96289 0 18.77772 15.22232 34.00002 34 34.00002 18.77768 0 34-15.2223 34-34.00002 0-18.29435-14.45009-33.20696-32.55859-33.96289 14.79435.74993 26.55859 12.98217 26.55859 27.96289 0 15.46397-12.53603 28.00002-28 28.00002-15.46397 0-28-12.53605-28-28.00002 0-14.98072 11.76424-27.21296 26.55859-27.96289zm.72657 0c-3.52979.35847-6.28516 3.33852-6.28516 6.96289 0 3.86599 3.13401 7 7 7 3.86599 0 7-3.13401 7-7 0-3.62437-2.75537-6.60442-6.28516-6.96289 7.39762.3745 13.28516 6.47221 13.28516 13.96289 0 7.73199-6.26801 14-14 14-7.73199 0-14-6.26801-14-14 0-7.49068 5.88754-13.58839 13.28516-13.96289zm-451.271488.0332a34 34 0 0 0 -32.013672 33.9296 34 34 0 0 0  34 34.00001 34 34 0 0 0  34-34.00001 34 34 0 0 0 -31.205078-33.85938 28 28 0 0 1  25.205078 27.85938 28 28 0 0 1 -28 28.00001 28 28 0 0 1 -28-28.00001 28 28 0 0 1  26.013672-27.92969zm89.999998 0a34 34 0 0 0 -32.01367 33.9296 34 34 0 0 0  34 34.00001 34 34 0 0 0  34-34.00001 34 34 0 0 0 -31.20508-33.85938 28 28 0 0 1  25.20508 27.85938 28 28 0 0 1 -28 28.00001 28 28 0 0 1 -28-28.00001 28 28 0 0 1  26.01367-27.92969zm90 0a34 34 0 0 0 -32.01367 33.9296 34 34 0 0 0  34 34.00001 34 34 0 0 0  34-34.00001 34 34 0 0 0 -31.20508-33.85938 28 28 0 0 1  25.20508 27.85938 28 28 0 0 1 -28 28.00001 28 28 0 0 1 -28-28.00001 28 28 0 0 1  26.01367-27.92969zm90 0a34 34 0 0 0 -32.01367 33.9296 34 34 0 0 0  34 34.00001 34 34 0 0 0  34-34.00001 34 34 0 0 0 -31.20508-33.85938 28 28 0 0 1  25.20508 27.85938 28 28 0 0 1 -28 28.00001 28 28 0 0 1 -28-28.00001 28 28 0 0 1  26.01367-27.92969zm90 0a34 34 0 0 0 -32.01367 33.9296 34 34 0 0 0  34 34.00001 34 34 0 0 0  34-34.00001 34 34 0 0 0 -31.20508-33.85938 28 28 0 0 1  25.20508 27.85938 28 28 0 0 1 -28 28.00001 28 28 0 0 1 -28-28.00001 28 28 0 0 1  26.01367-27.92969z" fill="#77797c" stroke-width=".40000001"/><path id="path4180" d="m138 6.690501c-1.79493 0-3.25 1.45507-3.25 3.250001 0 1.79492 1.45507 3.25 3.25 3.25 1.79493 0 3.25-1.45508 3.25-3.25 0-1.794931-1.45507-3.250001-3.25-3.250001zm463 0c-1.79493 0-3.25 1.45507-3.25 3.250001 0 1.79492 1.45507 3.25 3.25 3.25 1.79493 0 3.25-1.45508 3.25-3.25 0-1.794931-1.45507-3.250001-3.25-3.250001zm-463 200.000009c-1.79493 0-3.25 1.4551-3.25 3.25 0 1.7949 1.45507 3.25 3.25 3.25 1.79493 0 3.25-1.4551 3.25-3.25 0-1.7949-1.45507-3.25-3.25-3.25zm463 0c-1.79493 0-3.25 1.4551-3.25 3.25 0 1.7949 1.45507 3.25 3.25 3.25 1.79493 0 3.25-1.4551 3.25-3.25 0-1.7949-1.45507-3.25-3.25-3.25zm-586.999999-200.000009c-1.794925 0-3.25 1.45507-3.25 3.250001 0 1.79492 1.455075 3.25 3.25 3.25 1.794925 0 3.25-1.45508 3.25-3.25 0-1.794931-1.455075-3.250001-3.25-3.250001zm462.999999 0c-1.79493 0-3.25 1.45507-3.25 3.250001 0 1.79492 1.45507 3.25 3.25 3.25 1.79493 0 3.25-1.45508 3.25-3.25 0-1.794931-1.45507-3.250001-3.25-3.250001zm-462.999999 200.000009c-1.794925 0-3.25 1.4551-3.25 3.25 0 1.7949 1.455075 3.25 3.25 3.25 1.794925 0 3.25-1.4551 3.25-3.25 0-1.7949-1.455075-3.25-3.25-3.25zm462.999999 0c-1.79493 0-3.25 1.4551-3.25 3.25 0 1.7949 1.45507 3.25 3.25 3.25 1.79493 0 3.25-1.4551 3.25-3.25 0-1.7949-1.45507-3.25-3.25-3.25z" fill="#fff" stroke-width=".40000001"/></g></svg>