<svg id="svg2" height="220.8" overflow="visible" viewBox="0 0 615.79999 220.8" width="615.79999" xmlns="http://www.w3.org/2000/svg"><g id="layer1" stroke="#000" stroke-linecap="round" stroke-width=".80000001"><path id="rect4173" d="m0 110.00003h615v107.5h-615zm0-107.999997h615v107.499997h-615z" fill="#808080" fill-rule="evenodd"/><path id="rect4175" d="m45 0v20h525v-20zm69.5 6.75a3.25 3.25 0 0 1 3.25 3.25 3.25 3.25 0 0 1 -3.25 3.25 3.25 3.25 0 0 1 -3.25-3.25 3.25 3.25 0 0 1  3.25-3.25zm193 0a3.25 3.25 0 0 1  .32422.0156 3.25 3.25 0 0 1  .63672.12891 3.25 3.25 0 0 1  .30468.11132 3.25 3.25 0 0 1  .29297.14258 3.25 3.25 0 0 1  .27735.16992 3.25 3.25 0 0 1  .25781.19532 3.25 3.25 0 0 1  .23828.22265 3.25 3.25 0 0 1  .21289.24414 3.25 3.25 0 0 1  .48438.8418 3.25 3.25 0 0 1  .10156.30859 3.25 3.25 0 0 1  .11914.86915 3.25 3.25 0 0 1 -.0156.32421 3.25 3.25 0 0 1 -.38282 1.23438 3.25 3.25 0 0 1 -.16992.27734 3.25 3.25 0 0 1 -.19531.25781 3.25 3.25 0 0 1 -.22266.23829 3.25 3.25 0 0 1 -.78906.56445 3.25 3.25 0 0 1 -.29688.13281 3.25 3.25 0 0 1 -.30859.10156 3.25 3.25 0 0 1 -.63867.11133 3.25 3.25 0 0 1 -.23047.008 3.25 3.25 0 0 1 -.32422-.0156 3.25 3.25 0 0 1 -1.76953-.74805 3.25 3.25 0 0 1 -.64063-.73047 3.25 3.25 0 0 1 -.29492-.57812 3.25 3.25 0 0 1 -.17382-.625 3.25 3.25 0 0 1 -.0391-.32227 3.25 3.25 0 0 1 -.008-.23046 3.25 3.25 0 0 1  .0156-.32422 3.25 3.25 0 0 1  .12891-.63672 3.25 3.25 0 0 1  .25391-.59766 3.25 3.25 0 0 1  .16992-.27734 3.25 3.25 0 0 1  1.20703-1.06055 3.25 3.25 0 0 1  .60547-.23437 3.25 3.25 0 0 1  .86914-.11914zm193 0a3.25 3.25 0 0 1 3.25 3.25 3.25 3.25 0 0 1 -3.25 3.25 3.25 3.25 0 0 1 -3.25-3.25 3.25 3.25 0 0 1  3.25-3.25zm-455.5 193.25v20h525v-20zm69.5 6.75a3.25 3.25 0 0 1 3.25 3.25 3.25 3.25 0 0 1 -3.25 3.25 3.25 3.25 0 0 1 -3.25-3.25 3.25 3.25 0 0 1  3.25-3.25zm193 0a3.25 3.25 0 0 1  .32422.0156 3.25 3.25 0 0 1  .32226.0488 3.25 3.25 0 0 1  .31446.0801 3.25 3.25 0 0 1  .875.42382 3.25 3.25 0 0 1  1.19336 1.50391 3.25 3.25 0 0 1  .10156.30859 3.25 3.25 0 0 1  .0723.31641 3.25 3.25 0 0 1  .0391.32227 3.25 3.25 0 0 1  .008.23047 3.25 3.25 0 0 1 -.0156.32421 3.25 3.25 0 0 1 -.0488.32227 3.25 3.25 0 0 1 -.0801.31445 3.25 3.25 0 0 1 -.11133.30469 3.25 3.25 0 0 1 -.14258.29297 3.25 3.25 0 0 1 -.36523.53515 3.25 3.25 0 0 1 -1.61719 1.03711 3.25 3.25 0 0 1 -.86914.11915 3.25 3.25 0 0 1 -.32422-.0156 3.25 3.25 0 0 1 -.32226-.0488 3.25 3.25 0 0 1 -.91211-.33398 3.25 3.25 0 0 1 -.77344-.58789 3.25 3.25 0 0 1 -.69727-1.08594 3.25 3.25 0 0 1 -.21289-.94727 3.25 3.25 0 0 1 -.008-.23046 3.25 3.25 0 0 1  .0156-.32422 3.25 3.25 0 0 1  .0488-.32227 3.25 3.25 0 0 1  .19141-.61914 3.25 3.25 0 0 1  .97461-1.2793 3.25 3.25 0 0 1  .54492-.35156 3.25 3.25 0 0 1  .29688-.13281 3.25 3.25 0 0 1  .625-.17383 3.25 3.25 0 0 1  .55273-.0469zm193 0a3.25 3.25 0 0 1 3.25 3.25 3.25 3.25 0 0 1 -3.25 3.25 3.25 3.25 0 0 1 -3.25-3.25 3.25 3.25 0 0 1  3.25-3.25z" fill="#ececec" fill-rule="evenodd"/><path id="path4181" d="m559.5 110.00003c0 6.62742-5.37258 12-12 12-6.62742 0-12-5.37258-12-12 0-6.62742 5.37258-11.999997 12-11.999997 6.62742 0 12 5.372577 12 11.999997zm5.5 0c0 9.66498-7.83502 17.5-17.5 17.5-9.66498 0-17.5-7.83502-17.5-17.5 0-9.66498 7.83502-17.499997 17.5-17.499997 9.66498 0 17.5 7.835017 17.5 17.499997zm7 0c0 13.53098-10.96902 24.5-24.5 24.5-13.53098 0-24.5-10.96902-24.5-24.5 0-13.530973 10.96902-24.499997 24.5-24.499997 13.53098 0 24.5 10.969024 24.5 24.499997zm6.5 0c0 17.12083-13.87917 31-31 31-17.12083 0-31-13.87917-31-31 0-17.120824 13.87917-30.999997 31-30.999997 17.12083 0 31 13.879173 31 30.999997zm-99 0c0 6.62742-5.37258 12-12 12-6.62742 0-12-5.37258-12-12 0-6.62742 5.37258-11.999997 12-11.999997 6.62742 0 12 5.372577 12 11.999997zm5.5 0c0 9.66498-7.83502 17.5-17.5 17.5-9.66498 0-17.5-7.83502-17.5-17.5 0-9.66498 7.83502-17.499997 17.5-17.499997 9.66498 0 17.5 7.835017 17.5 17.499997zm7 0c0 13.53098-10.96902 24.5-24.5 24.5-13.53098 0-24.5-10.96902-24.5-24.5 0-13.530973 10.96902-24.499997 24.5-24.499997 13.53098 0 24.5 10.969024 24.5 24.499997zm6.5 0c0 17.12083-13.87917 31-31 31-17.12083 0-31-13.87917-31-31 0-17.120824 13.87917-30.999997 31-30.999997 17.12083 0 31 13.879173 31 30.999997zm-179 0c0 6.62742-5.37258 12-12 12-6.62742 0-12-5.37258-12-12 0-6.62742 5.37258-11.999997 12-11.999997 6.62742 0 12 5.372577 12 11.999997zm5.5 0c0 9.66498-7.83502 17.5-17.5 17.5-9.66498 0-17.5-7.83502-17.5-17.5 0-9.66498 7.83502-17.499997 17.5-17.499997 9.66498 0 17.5 7.835017 17.5 17.499997zm7 0c0 13.53098-10.96902 24.5-24.5 24.5-13.53098 0-24.5-10.96902-24.5-24.5 0-13.530973 10.96902-24.499997 24.5-24.499997 13.53098 0 24.5 10.969024 24.5 24.499997zm6.5 0c0 17.12083-13.87917 31-31 31-17.12083 0-31-13.87917-31-31 0-17.120824 13.87917-30.999997 31-30.999997 17.12083 0 31 13.879173 31 30.999997zm61 0c0 6.62742-5.37258 12-12 12-6.62742 0-12-5.37258-12-12 0-6.62742 5.37258-11.999997 12-11.999997 6.62742 0 12 5.372577 12 11.999997zm5.5 0c0 9.66498-7.83502 17.5-17.5 17.5-9.66498 0-17.5-7.83502-17.5-17.5 0-9.66498 7.83502-17.499997 17.5-17.499997 9.66498 0 17.5 7.835017 17.5 17.499997zm7 0c0 13.53098-10.96902 24.5-24.5 24.5-13.53098 0-24.5-10.96902-24.5-24.5 0-13.530973 10.96902-24.499997 24.5-24.499997 13.53098 0 24.5 10.969024 24.5 24.499997zm6.5 0c0 17.12083-13.87917 31-31 31-17.12083 0-31-13.87917-31-31 0-17.120824 13.87917-30.999997 31-30.999997 17.12083 0 31 13.879173 31 30.999997zm-179 0c0 6.62742-5.37258 12-12 12-6.62742 0-12-5.37258-12-12 0-6.62742 5.37258-11.999997 12-11.999997 6.62742 0 12 5.372577 12 11.999997zm5.5 0c0 9.66498-7.83502 17.5-17.5 17.5-9.66498 0-17.5-7.83502-17.5-17.5 0-9.66498 7.83502-17.499997 17.5-17.499997 9.66498 0 17.5 7.835017 17.5 17.499997zm7 0c0 13.53098-10.96902 24.5-24.5 24.5-13.53098 0-24.5-10.96902-24.5-24.5 0-13.530973 10.96902-24.499997 24.5-24.499997 13.53098 0 24.5 10.969024 24.5 24.499997zm6.5 0c0 17.12083-13.87917 31-31 31-17.12083 0-31-13.87917-31-31 0-17.120824 13.87917-30.999997 31-30.999997 17.12083 0 31 13.879173 31 30.999997zm221 0c0 6.62742-5.37258 12-12 12-6.62742 0-12-5.37258-12-12 0-6.62742 5.37258-11.999997 12-11.999997 6.62742 0 12 5.372577 12 11.999997zm5.5 0c0 9.66498-7.83502 17.5-17.5 17.5-9.66498 0-17.5-7.83502-17.5-17.5 0-9.66498 7.83502-17.499997 17.5-17.499997 9.66498 0 17.5 7.835017 17.5 17.499997zm7 0c0 13.53098-10.96902 24.5-24.5 24.5-13.53098 0-24.5-10.96902-24.5-24.5 0-13.530973 10.96902-24.499997 24.5-24.499997 13.53098 0 24.5 10.969024 24.5 24.499997zm6.5 0c0 17.12083-13.87917 31-31 31-17.12083 0-31-13.87917-31-31 0-17.120824 13.87917-30.999997 31-30.999997 17.12083 0 31 13.879173 31 30.999997zm-99 0c0 6.62742-5.37258 12-12 12-6.62742 0-12-5.37258-12-12 0-6.62742 5.37258-11.999997 12-11.999997 6.62742 0 12 5.372577 12 11.999997zm5.5 0c0 9.66498-7.83502 17.5-17.5 17.5-9.66498 0-17.5-7.83502-17.5-17.5 0-9.66498 7.83502-17.499997 17.5-17.499997 9.66498 0 17.5 7.835017 17.5 17.499997zm7 0c0 13.53098-10.96902 24.5-24.5 24.5-13.53098 0-24.5-10.96902-24.5-24.5 0-13.530973 10.96902-24.499997 24.5-24.499997 13.53098 0 24.5 10.969024 24.5 24.499997zm6.5 0c0 17.12083-13.87917 31-31 31-17.12083 0-31-13.87917-31-31 0-17.120824 13.87917-30.999997 31-30.999997 17.12083 0 31 13.879173 31 30.999997zm-99 0c0 6.62742-5.37258 12-12 12-6.62742 0-12-5.37258-12-12 0-6.62742 5.37258-11.999997 12-11.999997 6.62742 0 12 5.372577 12 11.999997zm5.5 0c0 9.66498-7.83502 17.5-17.5 17.5-9.66498 0-17.5-7.83502-17.5-17.5 0-9.66498 7.83502-17.499997 17.5-17.499997 9.66498 0 17.5 7.835017 17.5 17.499997zm7 0c0 13.53098-10.96902 24.5-24.5 24.5-13.53098 0-24.5-10.96902-24.5-24.5 0-13.530973 10.96902-24.499997 24.5-24.499997 13.53098 0 24.5 10.969024 24.5 24.499997zm6.5 0c0 17.12083-13.87917 31-31 31-17.12083 0-31-13.87917-31-31 0-17.120824 13.87917-30.999997 31-30.999997 17.12083 0 31 13.879173 31 30.999997zm-179 0c0 6.62742-5.37258 12-12 12-6.62742 0-12-5.37258-12-12 0-6.62742 5.37258-11.999997 12-11.999997 6.62742 0 12 5.372577 12 11.999997zm5.5 0c0 9.66498-7.83502 17.5-17.5 17.5-9.66498 0-17.5-7.83502-17.5-17.5 0-9.66498 7.83502-17.499997 17.5-17.499997 9.66498 0 17.5 7.835017 17.5 17.499997zm7 0c0 13.53098-10.96902 24.5-24.5 24.5-13.53098 0-24.5-10.96902-24.5-24.5 0-13.530973 10.96902-24.499997 24.5-24.499997 13.53098 0 24.5 10.969024 24.5 24.499997zm6.5 0c0 17.12083-13.87917 31-31 31-17.12083 0-31-13.87917-31-31 0-17.120824 13.87917-30.999997 31-30.999997 17.12083 0 31 13.879173 31 30.999997zm61 0c0 6.62742-5.37258 12-12 12-6.62742 0-12-5.37258-12-12 0-6.62742 5.37258-11.999997 12-11.999997 6.62742 0 12 5.372577 12 11.999997zm5.5 0c0 9.66498-7.83502 17.5-17.5 17.5-9.66498 0-17.5-7.83502-17.5-17.5 0-9.66498 7.83502-17.499997 17.5-17.499997 9.66498 0 17.5 7.835017 17.5 17.499997zm7 0c0 13.53098-10.96902 24.5-24.5 24.5-13.53098 0-24.5-10.96902-24.5-24.5 0-13.530973 10.96902-24.499997 24.5-24.499997 13.53098 0 24.5 10.969024 24.5 24.499997zm6.5 0c0 17.12083-13.87917 31-31 31-17.12083 0-31-13.87917-31-31 0-17.120824 13.87917-30.999997 31-30.999997 17.12083 0 31 13.879173 31 30.999997zm-179 0c0 6.62742-5.372583 12-12 12-6.627417 0-12-5.37258-12-12 0-6.62742 5.372583-11.999997 12-11.999997 6.627417 0 12 5.372577 12 11.999997zm5.5 0c0 9.66498-7.835017 17.5-17.5 17.5-9.664983 0-17.5-7.83502-17.5-17.5 0-9.66498 7.835017-17.499997 17.5-17.499997 9.664983 0 17.5 7.835017 17.5 17.499997zm7 0c0 13.53098-10.969024 24.5-24.5 24.5-13.530976 0-24.5-10.96902-24.5-24.5 0-13.530973 10.969024-24.499997 24.5-24.499997 13.530976 0 24.5 10.969024 24.5 24.499997zm6.5 0c0 17.12083-13.879173 31-31 31-17.120827 0-31-13.87917-31-31 0-17.120824 13.879173-30.999997 31-30.999997 17.120827 0 31 13.879173 31 30.999997z" fill="none"/></g></svg>