<svg id="svg2" height="220.8" overflow="visible" viewBox="0 0 490.79999 220.8" width="490.79999" xmlns="http://www.w3.org/2000/svg"><g id="layer1" stroke="#000" stroke-linecap="round" stroke-width=".80000001"><path id="rect4205" d="m0 110h490v107.5h-490zm0-107.999997h490v107.499997h-490z" fill="#808080" fill-rule="evenodd"/><path id="circle4279" d="m457 110a12 12 0 0 1 -12 12 12 12 0 0 1 -12-12 12 12 0 0 1  12-11.999997 12 12 0 0 1  12 11.999997zm5.5 0a17.5 17.5 0 0 1 -17.5 17.5 17.5 17.5 0 0 1 -17.5-17.5 17.5 17.5 0 0 1  17.5-17.499997 17.5 17.5 0 0 1  17.5 17.499997zm7 0a24.5 24.5 0 0 1 -24.5 24.5 24.5 24.5 0 0 1 -24.5-24.5 24.5 24.5 0 0 1  24.5-24.499997 24.5 24.5 0 0 1  24.5 24.499997zm6.5 0a31 31 0 0 1 -31 31 31 31 0 0 1 -31-31 31 31 0 0 1  31-30.999997 31 31 0 0 1  31 30.999997zm-99 0a12 12 0 0 1 -12 12 12 12 0 0 1 -12-12 12 12 0 0 1  12-11.999997 12 12 0 0 1  12 11.999997zm5.5 0a17.5 17.5 0 0 1 -17.5 17.5 17.5 17.5 0 0 1 -17.5-17.5 17.5 17.5 0 0 1  17.5-17.499997 17.5 17.5 0 0 1  17.5 17.499997zm7 0a24.5 24.5 0 0 1 -24.5 24.5 24.5 24.5 0 0 1 -24.5-24.5 24.5 24.5 0 0 1  24.5-24.499997 24.5 24.5 0 0 1  24.5 24.499997zm6.5 0a31 31 0 0 1 -31 31 31 31 0 0 1 -31-31 31 31 0 0 1  31-30.999997 31 31 0 0 1  31 30.999997zm-99 0a12 12 0 0 1 -12 12 12 12 0 0 1 -12-12 12 12 0 0 1  12-11.999997 12 12 0 0 1  12 11.999997zm5.5 0a17.5 17.5 0 0 1 -17.5 17.5 17.5 17.5 0 0 1 -17.5-17.5 17.5 17.5 0 0 1  17.5-17.499997 17.5 17.5 0 0 1  17.5 17.499997zm7 0a24.5 24.5 0 0 1 -24.5 24.5 24.5 24.5 0 0 1 -24.5-24.5 24.5 24.5 0 0 1  24.5-24.499997 24.5 24.5 0 0 1  24.5 24.499997zm6.5 0a31 31 0 0 1 -31 31 31 31 0 0 1 -31-31 31 31 0 0 1  31-30.999997 31 31 0 0 1  31 30.999997zm-179 0a12 12 0 0 1 -12 12 12 12 0 0 1 -12-12 12 12 0 0 1  12-11.999997 12 12 0 0 1  12 11.999997zm5.5 0a17.5 17.5 0 0 1 -17.5 17.5 17.5 17.5 0 0 1 -17.5-17.5 17.5 17.5 0 0 1  17.5-17.499997 17.5 17.5 0 0 1  17.5 17.499997zm7 0a24.5 24.5 0 0 1 -24.5 24.5 24.5 24.5 0 0 1 -24.5-24.5 24.5 24.5 0 0 1  24.5-24.499997 24.5 24.5 0 0 1  24.5 24.499997zm6.5 0a31 31 0 0 1 -31 31 31 31 0 0 1 -31-31 31 31 0 0 1  31-30.999997 31 31 0 0 1  31 30.999997zm61 0a12 12 0 0 1 -12 12 12 12 0 0 1 -12-12 12 12 0 0 1  12-11.999997 12 12 0 0 1  12 11.999997zm5.5 0a17.5 17.5 0 0 1 -17.5 17.5 17.5 17.5 0 0 1 -17.5-17.5 17.5 17.5 0 0 1  17.5-17.499997 17.5 17.5 0 0 1  17.5 17.499997zm7 0a24.5 24.5 0 0 1 -24.5 24.5 24.5 24.5 0 0 1 -24.5-24.5 24.5 24.5 0 0 1  24.5-24.499997 24.5 24.5 0 0 1  24.5 24.499997zm6.5 0a31 31 0 0 1 -31 31 31 31 0 0 1 -31-31 31 31 0 0 1  31-30.999997 31 31 0 0 1  31 30.999997zm-179 0a12 12 0 0 1 -12 12 12 12 0 0 1 -12-12 12 12 0 0 1  12-11.999997 12 12 0 0 1  12 11.999997zm5.5 0a17.5 17.5 0 0 1 -17.5 17.5 17.5 17.5 0 0 1 -17.5-17.5 17.5 17.5 0 0 1  17.5-17.499997 17.5 17.5 0 0 1  17.5 17.499997zm7 0a24.5 24.5 0 0 1 -24.5 24.5 24.5 24.5 0 0 1 -24.5-24.5 24.5 24.5 0 0 1  24.5-24.499997 24.5 24.5 0 0 1  24.5 24.499997zm6.5 0a31 31 0 0 1 -31 31 31 31 0 0 1 -31-31 31 31 0 0 1  31-30.999997 31 31 0 0 1  31 30.999997z" fill="none"/><path id="rect4183" d="m45 .00000305v19.99999995h400v-19.99999995zm103.5 6.74999995a3.25 3.25 0 0 1 3.25 3.25 3.25 3.25 0 0 1 -3.25 3.25 3.25 3.25 0 0 1 -3.25-3.25 3.25 3.25 0 0 1  3.25-3.25zm193 0a3.25 3.25 0 0 1 3.25 3.25 3.25 3.25 0 0 1 -3.25 3.25 3.25 3.25 0 0 1 -3.25-3.25 3.25 3.25 0 0 1  3.25-3.25zm-296.5 193.249997v20h400v-20zm103.5 6.75a3.25 3.25 0 0 1 3.25 3.25 3.25 3.25 0 0 1 -3.25 3.25 3.25 3.25 0 0 1 -3.25-3.25 3.25 3.25 0 0 1  3.25-3.25zm193 0a3.25 3.25 0 0 1 3.25 3.25 3.25 3.25 0 0 1 -3.25 3.25 3.25 3.25 0 0 1 -3.25-3.25 3.25 3.25 0 0 1  3.25-3.25z" fill="#ececec" fill-rule="evenodd"/></g></svg>