<svg id="svg2" height="220.8" overflow="visible" viewBox="0 0 385.79999 220.8" width="385.79999" xmlns="http://www.w3.org/2000/svg"><g id="layer1" stroke="#000" stroke-linecap="round" stroke-width=".80000001"><path id="rect4205" d="m0 110h385v107.5h-385zm0-107.999997h385v107.499997h-385z" fill="#808080" fill-rule="evenodd"/><path id="rect4207" d="m42.5.00000305v19.99999995h300v-19.99999995zm43.5 6.74999995c1.794925 0 3.25 1.4550746 3.25 3.25 0 1.794925-1.455075 3.25-3.25 3.25-1.794925 0-3.25-1.455075-3.25-3.25 0-1.7949254 1.455075-3.25 3.25-3.25zm213 0c1.79493 0 3.25 1.4550746 3.25 3.25 0 1.794925-1.45507 3.25-3.25 3.25-1.79493 0-3.25-1.455075-3.25-3.25 0-1.7949254 1.45507-3.25 3.25-3.25zm-256.5 193.249997v20h300v-20zm43.5 6.75c1.794925 0 3.25 1.45507 3.25 3.25 0 1.79493-1.455075 3.25-3.25 3.25-1.794925 0-3.25-1.45507-3.25-3.25 0-1.79493 1.455075-3.25 3.25-3.25zm213 0c1.79493 0 3.25 1.45507 3.25 3.25 0 1.79493-1.45507 3.25-3.25 3.25-1.79493 0-3.25-1.45507-3.25-3.25 0-1.79493 1.45507-3.25 3.25-3.25z" fill="#ececec" fill-rule="evenodd"/><path id="circle4279" d="m324.5 110c0 6.62742-5.37258 12-12 12-6.62742 0-12-5.37258-12-12 0-6.62742 5.37258-11.999997 12-11.999997 6.62742 0 12 5.372577 12 11.999997zm5.5 0c0 9.66498-7.83502 17.5-17.5 17.5-9.66498 0-17.5-7.83502-17.5-17.5 0-9.66498 7.83502-17.499997 17.5-17.499997 9.66498 0 17.5 7.835017 17.5 17.499997zm7 0c0 13.53098-10.96902 24.5-24.5 24.5-13.53098 0-24.5-10.96902-24.5-24.5 0-13.530973 10.96902-24.499997 24.5-24.499997 13.53098 0 24.5 10.969024 24.5 24.499997zm6.5 0c0 17.12083-13.87917 31-31 31-17.12083 0-31-13.87917-31-31 0-17.120824 13.87917-30.999997 31-30.999997 17.12083 0 31 13.879173 31 30.999997zm-179 0c0 6.62742-5.37258 12-12 12-6.62742 0-12-5.37258-12-12 0-6.62742 5.37258-11.999997 12-11.999997 6.62742 0 12 5.372577 12 11.999997zm5.5 0c0 9.66498-7.83502 17.5-17.5 17.5-9.66498 0-17.5-7.83502-17.5-17.5 0-9.66498 7.83502-17.499997 17.5-17.499997 9.66498 0 17.5 7.835017 17.5 17.499997zm7 0c0 13.53098-10.96902 24.5-24.5 24.5-13.53098 0-24.5-10.96902-24.5-24.5 0-13.530973 10.96902-24.499997 24.5-24.499997 13.53098 0 24.5 10.969024 24.5 24.499997zm6.5 0c0 17.12083-13.87917 31-31 31-17.12083 0-31-13.87917-31-31 0-17.120824 13.87917-30.999997 31-30.999997 17.12083 0 31 13.879173 31 30.999997zm61 0c0 6.62742-5.37258 12-12 12-6.62742 0-12-5.37258-12-12 0-6.62742 5.37258-11.999997 12-11.999997 6.62742 0 12 5.372577 12 11.999997zm5.5 0c0 9.66498-7.83502 17.5-17.5 17.5-9.66498 0-17.5-7.83502-17.5-17.5 0-9.66498 7.83502-17.499997 17.5-17.499997 9.66498 0 17.5 7.835017 17.5 17.499997zm7 0c0 13.53098-10.96902 24.5-24.5 24.5-13.53098 0-24.5-10.96902-24.5-24.5 0-13.530973 10.96902-24.499997 24.5-24.499997 13.53098 0 24.5 10.969024 24.5 24.499997zm6.5 0c0 17.12083-13.87917 31-31 31-17.12083 0-31-13.87917-31-31 0-17.120824 13.87917-30.999997 31-30.999997 17.12083 0 31 13.879173 31 30.999997zm-179 0c0 6.62742-5.372583 12-12 12-6.627417 0-12-5.37258-12-12 0-6.62742 5.372583-11.999997 12-11.999997 6.627417 0 12 5.372577 12 11.999997zm5.5 0c0 9.66498-7.835017 17.5-17.5 17.5-9.664983 0-17.5-7.83502-17.5-17.5 0-9.66498 7.835017-17.499997 17.5-17.499997 9.664983 0 17.5 7.835017 17.5 17.499997zm7 0c0 13.53098-10.969024 24.5-24.5 24.5-13.530976 0-24.5-10.96902-24.5-24.5 0-13.530973 10.969024-24.499997 24.5-24.499997 13.530976 0 24.5 10.969024 24.5 24.499997zm6.5 0c0 17.12083-13.879173 31-31 31-17.120827 0-31-13.87917-31-31 0-17.120824 13.879173-30.999997 31-30.999997 17.120827 0 31 13.879173 31 30.999997z" fill="none"/></g></svg>