<svg id="svg2" height="220.8" overflow="visible" viewBox="0 0 490.79999 220.8" width="490.79999" xmlns="http://www.w3.org/2000/svg"><g id="layer1" fill-rule="evenodd" stroke="#000" stroke-linecap="round" stroke-width=".80000001"><path id="rect4183" d="m0 .00000305v219.99999695h490v-219.99999695zm13.5 6.74999995a3.25 3.25 0 0 1 3.25 3.25 3.25 3.25 0 0 1 -3.25 3.25 3.25 3.25 0 0 1 -3.25-3.25 3.25 3.25 0 0 1  3.25-3.25zm135 0a3.25 3.25 0 0 1 3.25 3.25 3.25 3.25 0 0 1 -3.25 3.25 3.25 3.25 0 0 1 -3.25-3.25 3.25 3.25 0 0 1  3.25-3.25zm193 0a3.25 3.25 0 0 1 3.25 3.25 3.25 3.25 0 0 1 -3.25 3.25 3.25 3.25 0 0 1 -3.25-3.25 3.25 3.25 0 0 1  3.25-3.25zm135 0a3.25 3.25 0 0 1 3.25 3.25 3.25 3.25 0 0 1 -3.25 3.25 3.25 3.25 0 0 1 -3.25-3.25 3.25 3.25 0 0 1  3.25-3.25zm-463 199.999997a3.25 3.25 0 0 1 3.25 3.25 3.25 3.25 0 0 1 -3.25 3.25 3.25 3.25 0 0 1 -3.25-3.25 3.25 3.25 0 0 1  3.25-3.25zm135 0a3.25 3.25 0 0 1 3.25 3.25 3.25 3.25 0 0 1 -3.25 3.25 3.25 3.25 0 0 1 -3.25-3.25 3.25 3.25 0 0 1  3.25-3.25zm193 0a3.25 3.25 0 0 1 3.25 3.25 3.25 3.25 0 0 1 -3.25 3.25 3.25 3.25 0 0 1 -3.25-3.25 3.25 3.25 0 0 1  3.25-3.25zm135 0a3.25 3.25 0 0 1 3.25 3.25 3.25 3.25 0 0 1 -3.25 3.25 3.25 3.25 0 0 1 -3.25-3.25 3.25 3.25 0 0 1  3.25-3.25z" fill="#ccc"/><path id="circle4277" d="m463 65.000003a38 38 0 0 1 -38 37.999997 38 38 0 0 1 -38-37.999997 38 38 0 0 1  38-38 38 38 0 0 1  38 38zm-90 0a38 38 0 0 1 -38 37.999997 38 38 0 0 1 -38-37.999997 38 38 0 0 1  38-38 38 38 0 0 1  38 38zm-90 0a38 38 0 0 1 -38 37.999997 38 38 0 0 1 -38-37.999997 38 38 0 0 1  38-38 38 38 0 0 1  38 38zm-90 0a38 38 0 0 1 -38 37.999997 38 38 0 0 1 -38-37.999997 38 38 0 0 1  38-38 38 38 0 0 1  38 38zm270 89.999997a38 38 0 0 1 -38 38 38 38 0 0 1 -38-38 38 38 0 0 1  38-38 38 38 0 0 1  38 38zm-90 0a38 38 0 0 1 -38 38 38 38 0 0 1 -38-38 38 38 0 0 1  38-38 38 38 0 0 1  38 38zm-90 0a38 38 0 0 1 -38 38 38 38 0 0 1 -38-38 38 38 0 0 1  38-38 38 38 0 0 1  38 38zm-90 0a38 38 0 0 1 -38 38 38 38 0 0 1 -38-38 38 38 0 0 1  38-38 38 38 0 0 1  38 38zm-90 0a38 38 0 0 1 -38 38 38 38 0 0 1 -38-38 38 38 0 0 1  38-38 38 38 0 0 1  38 38zm0-89.999997a38 38 0 0 1 -38 37.999997 38 38 0 0 1 -38-37.999997 38 38 0 0 1  38-38 38 38 0 0 1  38 38z" fill="#6f7073"/><path id="circle4287" d="m432 34.000003a7 7 0 0 1 -7 7 7 7 0 0 1 -7-7 7 7 0 0 1  7-7 7 7 0 0 1  7 7zm7 7a14 14 0 0 1 -14 14 14 14 0 0 1 -14-14 14 14 0 0 1  14-14 14 14 0 0 1  14 14zm7 7a21 21 0 0 1 -21 21 21 21 0 0 1 -21-21 21 21 0 0 1  21-21 21 21 0 0 1  21 21zm7 7a28 28 0 0 1 -28 28 28 28 0 0 1 -28-28 28 28 0 0 1  28-28 28 28 0 0 1  28 28zm6 6a34 34 0 0 1 -34 34 34 34 0 0 1 -34-34 34 34 0 0 1  34-34 34 34 0 0 1  34 34zm-117-27a7 7 0 0 1 -7 7 7 7 0 0 1 -7-7 7 7 0 0 1  7-7 7 7 0 0 1  7 7zm7 7a14 14 0 0 1 -14 14 14 14 0 0 1 -14-14 14 14 0 0 1  14-14 14 14 0 0 1  14 14zm7 7a21 21 0 0 1 -21 21 21 21 0 0 1 -21-21 21 21 0 0 1  21-21 21 21 0 0 1  21 21zm7 7a28 28 0 0 1 -28 28 28 28 0 0 1 -28-28 28 28 0 0 1  28-28 28 28 0 0 1  28 28zm6 6a34 34 0 0 1 -34 34 34 34 0 0 1 -34-34 34 34 0 0 1  34-34 34 34 0 0 1  34 34zm-117-27a7 7 0 0 1 -7 7 7 7 0 0 1 -7-7 7 7 0 0 1  7-7 7 7 0 0 1  7 7zm7 7a14 14 0 0 1 -14 14 14 14 0 0 1 -14-14 14 14 0 0 1  14-14 14 14 0 0 1  14 14zm7 7a21 21 0 0 1 -21 21 21 21 0 0 1 -21-21 21 21 0 0 1  21-21 21 21 0 0 1  21 21zm7 7a28 28 0 0 1 -28 28 28 28 0 0 1 -28-28 28 28 0 0 1  28-28 28 28 0 0 1  28 28zm6 6a34 34 0 0 1 -34 34 34 34 0 0 1 -34-34 34 34 0 0 1  34-34 34 34 0 0 1  34 34zm-117-27a7 7 0 0 1 -7 7 7 7 0 0 1 -7-7 7 7 0 0 1  7-7 7 7 0 0 1  7 7zm7 7a14 14 0 0 1 -14 14 14 14 0 0 1 -14-14 14 14 0 0 1  14-14 14 14 0 0 1  14 14zm7 7a21 21 0 0 1 -21 21 21 21 0 0 1 -21-21 21 21 0 0 1  21-21 21 21 0 0 1  21 21zm7 7a28 28 0 0 1 -28 28 28 28 0 0 1 -28-28 28 28 0 0 1  28-28 28 28 0 0 1  28 28zm6 6a34 34 0 0 1 -34 34 34 34 0 0 1 -34-34 34 34 0 0 1  34-34 34 34 0 0 1  34 34zm243 62.999997a7 7 0 0 1 -7 7 7 7 0 0 1 -7-7 7 7 0 0 1  7-7 7 7 0 0 1  7 7zm7 7a14 14 0 0 1 -14 14 14 14 0 0 1 -14-14 14 14 0 0 1  14-14 14 14 0 0 1  14 14zm7 7a21 21 0 0 1 -21 21 21 21 0 0 1 -21-21 21 21 0 0 1  21-21 21 21 0 0 1  21 21zm7 7a28 28 0 0 1 -28 28 28 28 0 0 1 -28-28 28 28 0 0 1  28-28 28 28 0 0 1  28 28zm6 6a34 34 0 0 1 -34 34 34 34 0 0 1 -34-34 34 34 0 0 1  34-34 34 34 0 0 1  34 34zm-117-27a7 7 0 0 1 -7 7 7 7 0 0 1 -7-7 7 7 0 0 1  7-7 7 7 0 0 1  7 7zm7 7a14 14 0 0 1 -14 14 14 14 0 0 1 -14-14 14 14 0 0 1  14-14 14 14 0 0 1  14 14zm7 7a21 21 0 0 1 -21 21 21 21 0 0 1 -21-21 21 21 0 0 1  21-21 21 21 0 0 1  21 21zm7 7a28 28 0 0 1 -28 28 28 28 0 0 1 -28-28 28 28 0 0 1  28-28 28 28 0 0 1  28 28zm6 6a34 34 0 0 1 -34 34 34 34 0 0 1 -34-34 34 34 0 0 1  34-34 34 34 0 0 1  34 34zm-117-27a7 7 0 0 1 -7 7 7 7 0 0 1 -7-7 7 7 0 0 1  7-7 7 7 0 0 1  7 7zm7 7a14 14 0 0 1 -14 14 14 14 0 0 1 -14-14 14 14 0 0 1  14-14 14 14 0 0 1  14 14zm7 7a21 21 0 0 1 -21 21 21 21 0 0 1 -21-21 21 21 0 0 1  21-21 21 21 0 0 1  21 21zm7 7a28 28 0 0 1 -28 28 28 28 0 0 1 -28-28 28 28 0 0 1  28-28 28 28 0 0 1  28 28zm6 6a34 34 0 0 1 -34 34 34 34 0 0 1 -34-34 34 34 0 0 1  34-34 34 34 0 0 1  34 34zm-117-27a7 7 0 0 1 -7 7 7 7 0 0 1 -7-7 7 7 0 0 1  7-7 7 7 0 0 1  7 7zm7 7a14 14 0 0 1 -14 14 14 14 0 0 1 -14-14 14 14 0 0 1  14-14 14 14 0 0 1  14 14zm7 7a21 21 0 0 1 -21 21 21 21 0 0 1 -21-21 21 21 0 0 1  21-21 21 21 0 0 1  21 21zm7 7a28 28 0 0 1 -28 28 28 28 0 0 1 -28-28 28 28 0 0 1  28-28 28 28 0 0 1  28 28zm6 6a34 34 0 0 1 -34 34 34 34 0 0 1 -34-34 34 34 0 0 1  34-34 34 34 0 0 1  34 34zm-117-27a7 7 0 0 1 -7 7 7 7 0 0 1 -7-7 7 7 0 0 1  7-7 7 7 0 0 1  7 7zm7 7a14 14 0 0 1 -14 14 14 14 0 0 1 -14-14 14 14 0 0 1  14-14 14 14 0 0 1  14 14zm7 7a21 21 0 0 1 -21 21 21 21 0 0 1 -21-21 21 21 0 0 1  21-21 21 21 0 0 1  21 21zm7 7a28 28 0 0 1 -28 28 28 28 0 0 1 -28-28 28 28 0 0 1  28-28 28 28 0 0 1  28 28zm6 6a34 34 0 0 1 -34 34 34 34 0 0 1 -34-34 34 34 0 0 1  34-34 34 34 0 0 1  34 34zm-27-116.999997a7 7 0 0 1 -7 7 7 7 0 0 1 -7-7 7 7 0 0 1  7-7 7 7 0 0 1  7 7zm7 7a14 14 0 0 1 -14 14 14 14 0 0 1 -14-14 14 14 0 0 1  14-14 14 14 0 0 1  14 14zm7 7a21 21 0 0 1 -21 21 21 21 0 0 1 -21-21 21 21 0 0 1  21-21 21 21 0 0 1  21 21zm7 7a28 28 0 0 1 -28 28 28 28 0 0 1 -28-28 28 28 0 0 1  28-28 28 28 0 0 1  28 28zm6 6a34 34 0 0 1 -34 34 34 34 0 0 1 -34-34 34 34 0 0 1  34-34 34 34 0 0 1  34 34z" fill="#77797c"/></g></svg>