<svg id="svg2" height="147" overflow="visible" viewBox="0 0 223 147" width="223" xmlns="http://www.w3.org/2000/svg"><g id="layer1" fill="#ccc" stroke="#000" stroke-linecap="round"><g id="TZ103"><rect id="rect4540" fill-rule="evenodd" height="147" ry="10" stroke-linejoin="round" width="223"/><path id="circle4603" d="m172.5 105.5a12.5 12.5 0 0 1 -12.5 12.5 12.5 12.5 0 0 1 -12.5-12.5 12.5 12.5 0 0 1  12.5-12.5 12.5 12.5 0 0 1  12.5 12.5zm0-64a12.5 12.5 0 0 1 -12.5 12.5 12.5 12.5 0 0 1 -12.5-12.5 12.5 12.5 0 0 1  12.5-12.5 12.5 12.5 0 0 1  12.5 12.5zm29 72.5a10 10 0 0 1 -10 10 10 10 0 0 1 -10-10 10 10 0 0 1  10-10 10 10 0 0 1  10 10zm0-27a10 10 0 0 1 -10 10 10 10 0 0 1 -10-10 10 10 0 0 1  10-10 10 10 0 0 1  10 10zm0-27a10 10 0 0 1 -10 10 10 10 0 0 1 -10-10 10 10 0 0 1  10-10 10 10 0 0 1  10 10zm0-27a10 10 0 0 1 -10 10 10 10 0 0 1 -10-10 10 10 0 0 1  10-10 10 10 0 0 1  10 10zm-31.5 72.5a10 10 0 0 1 -10 10 10 10 0 0 1 -10-10 10 10 0 0 1  10-10 10 10 0 0 1  10 10zm0-32.5a10 10 0 0 1 -10 10 10 10 0 0 1 -10-10 10 10 0 0 1  10-10 10 10 0 0 1  10 10zm0-31.5a10 10 0 0 1 -10 10 10 10 0 0 1 -10-10 10 10 0 0 1  10-10 10 10 0 0 1  10 10zm-31.5 72.5a10 10 0 0 1 -10 10 10 10 0 0 1 -10-10 10 10 0 0 1  10-10 10 10 0 0 1  10 10zm0-27a10 10 0 0 1 -10 10 10 10 0 0 1 -10-10 10 10 0 0 1  10-10 10 10 0 0 1  10 10zm0-27a10 10 0 0 1 -10 10 10 10 0 0 1 -10-10 10 10 0 0 1  10-10 10 10 0 0 1  10 10zm0-27a10 10 0 0 1 -10 10 10 10 0 0 1 -10-10 10 10 0 0 1  10-10 10 10 0 0 1  10 10zm-63 72.5a12.5 12.5 0 0 1 -12.5 12.5 12.5 12.5 0 0 1 -12.5-12.5 12.5 12.5 0 0 1  12.5-12.5 12.5 12.5 0 0 1  12.5 12.5zm0-64a12.5 12.5 0 0 1 -12.5 12.5 12.5 12.5 0 0 1 -12.5-12.5 12.5 12.5 0 0 1  12.5-12.5 12.5 12.5 0 0 1  12.5 12.5zm29 72.5a10 10 0 0 1 -10 10 10 10 0 0 1 -10-10 10 10 0 0 1  10-10 10 10 0 0 1  10 10zm0-27a10 10 0 0 1 -10 10 10 10 0 0 1 -10-10 10 10 0 0 1  10-10 10 10 0 0 1  10 10zm0-27a10 10 0 0 1 -10 10 10 10 0 0 1 -10-10 10 10 0 0 1  10-10 10 10 0 0 1  10 10zm0-27a10 10 0 0 1 -10 10 10 10 0 0 1 -10-10 10 10 0 0 1  10-10 10 10 0 0 1  10 10zm-31.5 72.5a10 10 0 0 1 -10 10 10 10 0 0 1 -10-10 10 10 0 0 1  10-10 10 10 0 0 1  10 10zm0-32.5a10 10 0 0 1 -10 10 10 10 0 0 1 -10-10 10 10 0 0 1  10-10 10 10 0 0 1  10 10zm0-31.5a10 10 0 0 1 -10 10 10 10 0 0 1 -10-10 10 10 0 0 1  10-10 10 10 0 0 1  10 10zm-31.5 72.5a10 10 0 0 1 -10 10 10 10 0 0 1 -10-10 10 10 0 0 1  10-10 10 10 0 0 1  10 10zm0-27a10 10 0 0 1 -10 10 10 10 0 0 1 -10-10 10 10 0 0 1  10-10 10 10 0 0 1  10 10zm0-27a10 10 0 0 1 -10 10 10 10 0 0 1 -10-10 10 10 0 0 1  10-10 10 10 0 0 1  10 10zm0-27a10 10 0 0 1 -10 10 10 10 0 0 1 -10-10 10 10 0 0 1  10-10 10 10 0 0 1  10 10z" stroke-width=".40000001"/></g></g></svg>