<svg id="svg2" height="147" overflow="visible" viewBox="0 0 223 147" width="223" xmlns="http://www.w3.org/2000/svg"><g id="layer1" fill-rule="evenodd" stroke="#000" stroke-linecap="round"><g id="TZ105"><rect id="rect4365" fill="#ccc" height="147" ry="10" stroke-linejoin="round" width="223"/><path id="circle4173-6" d="m111.5 18a34 34 0 0 0 -34 34 34 34 0 0 0  34 34 34 34 0 0 0  34-34 34 34 0 0 0 -34-34zm-58 43a34 34 0 0 0 -34 34 34 34 0 0 0  34 34 34 34 0 0 0  34-34 34 34 0 0 0 -34-34zm116 0a34 34 0 0 0 -34 34 34 34 0 0 0  34 34 34 34 0 0 0  34-34 34 34 0 0 0 -34-34z" fill="#6f7073" stroke-width=".40000001"/><path id="circle4872-8" d="m111.5 18a7 7 0 0 0 -.49609.01758 22 22 0 0 1 -.002 0 7 7 0 0 0 -6.50191 6.98242 7 7 0 0 0  7 7 7 7 0 0 0  7-7 7 7 0 0 0 -6.29883-6.964844 28 28 0 0 1 -.002 0 7 7 0 0 0 -.69917-.035156zm.70117.03516a12 12 0 0 1  .4961.02539 22 22 0 0 1  .5.02344 17 17 0 0 0 -.9961-.04883zm.4961.02539a12 12 0 0 1 10.80273 11.93945 12 12 0 0 1 -12 12 12 12 0 0 1 -12-12 12 12 0 0 1  11.13867-11.96875 17 17 0 0 0 -16.13867 16.96875 17 17 0 0 0  17 17 17 17 0 0 0  17-17 17 17 0 0 0 -15.28906-16.914062 28 28 0 0 0 -.51367-.02539zm.51367.02539a28 28 0 0 1  .49804.02539 22 22 0 0 0 -.49804-.02539zm.49804.02539a22 22 0 0 1 19.79102 21.88867 22 22 0 0 1 -22 22 22 22 0 0 1 -22-22 22 22 0 0 1  20.4375-21.945312 28 28 0 0 0 -26.4375 27.945312 28 28 0 0 0  28 28 28 28 0 0 0  28-28 28 28 0 0 0 -25.79102-27.888672zm-2.70703-.09375a12 12 0 0 0 -.35156.01172 28 28 0 0 0 -.006 0 22 22 0 0 0 -.004.002 17 17 0 0 1  .36133-.01367zm-57.50195 42.98242a7 7 0 0 0 -.496094.01758 22 22 0 0 1 -.002 0 7 7 0 0 0 -6.501906 6.98242 7 7 0 0 0  7 7 7 7 0 0 0  7-7 7 7 0 0 0 -6.298828-6.964844 28 28 0 0 1 -.002 0 7 7 0 0 0 -.699172-.035156zm.701172.03516a12 12 0 0 1  .496094.02539 22 22 0 0 1  .5.02344 17 17 0 0 0 -.996094-.04883zm.496094.02539a12 12 0 0 1 10.802734 11.93945 12 12 0 0 1 -12 12 12 12 0 0 1 -12-12 12 12 0 0 1  11.138672-11.96875 17 17 0 0 0 -16.138672 16.96875 17 17 0 0 0  17 17 17 17 0 0 0  17-17 17 17 0 0 0 -15.289062-16.914062 28 28 0 0 0 -.513672-.02539zm.513672.02539a28 28 0 0 1  .498046.02539 22 22 0 0 0 -.498046-.02539zm.498046.02539a22 22 0 0 1 19.791016 21.88867 22 22 0 0 1 -22 22 22 22 0 0 1 -22-22 22 22 0 0 1  20.4375-21.945312 28 28 0 0 0 -26.4375 27.945312 28 28 0 0 0  28 28 28 28 0 0 0  28-28 28 28 0 0 0 -25.791016-27.888672zm-2.707031-.09375a12 12 0 0 0 -.351562.01172 28 28 0 0 0 -.0059 0 22 22 0 0 0 -.0039.002 17 17 0 0 1  .361328-.01367zm116.498047-.01758a7 7 0 0 0 -.49609.01758 22 22 0 0 1 -.002 0 7 7 0 0 0 -6.50191 6.98242 7 7 0 0 0  7 7 7 7 0 0 0  7-7 7 7 0 0 0 -6.29883-6.964844 28 28 0 0 1 -.002 0 7 7 0 0 0 -.69917-.035156zm.70117.03516a12 12 0 0 1  .4961.02539 22 22 0 0 1  .5.02344 17 17 0 0 0 -.9961-.04883zm.4961.02539a12 12 0 0 1 10.80273 11.93945 12 12 0 0 1 -12 12 12 12 0 0 1 -12-12 12 12 0 0 1  11.13867-11.96875 17 17 0 0 0 -16.13867 16.96875 17 17 0 0 0  17 17 17 17 0 0 0  17-17 17 17 0 0 0 -15.28906-16.914062 28 28 0 0 0 -.51367-.02539zm.51367.02539a28 28 0 0 1  .49804.02539 22 22 0 0 0 -.49804-.02539zm.49804.02539a22 22 0 0 1 19.79102 21.88867 22 22 0 0 1 -22 22 22 22 0 0 1 -22-22 22 22 0 0 1  20.4375-21.945312 28 28 0 0 0 -26.4375 27.945312 28 28 0 0 0  28 28 28 28 0 0 0  28-28 28 28 0 0 0 -25.79102-27.888672zm-2.70703-.09375a12 12 0 0 0 -.35156.01172 28 28 0 0 0 -.006 0 22 22 0 0 0 -.004.002 17 17 0 0 1  .36133-.01367z" fill="#77797c" stroke-width=".40000001"/></g></g></svg>