<svg id="svg2" height="147" overflow="visible" viewBox="0 0 223 147" width="223" xmlns="http://www.w3.org/2000/svg"><g id="layer1" fill-rule="evenodd" stroke="#000" stroke-linecap="round"><g id="TZ110"><rect id="rect3360" fill="#ccc" height="147" ry="10" stroke-linejoin="round" width="223"/><path id="circle3478" d="m194 104a20 20 0 0 1 -20 20 20 20 0 0 1 -20-20 20 20 0 0 1  20-20 20 20 0 0 1  20 20zm0-61a20 20 0 0 1 -20 20 20 20 0 0 1 -20-20 20 20 0 0 1  20-20 20 20 0 0 1  20 20zm-32 30.5a20 20 0 0 1 -20 20 20 20 0 0 1 -20-20 20 20 0 0 1  20-20 20 20 0 0 1  20 20zm-30.5 30.5a20 20 0 0 1 -20 20 20 20 0 0 1 -20-20 20 20 0 0 1  20-20 20 20 0 0 1  20 20zm0-61a20 20 0 0 1 -20 20 20 20 0 0 1 -20-20 20 20 0 0 1  20-20 20 20 0 0 1  20 20zm-31.501999 30.5a20 20 0 0 1 -20 20 20 20 0 0 1 -20-20 20 20 0 0 1  20-20 20 20 0 0 1  20 20zm-31 30.5a20 20 0 0 1 -20 20 20 20 0 0 1 -20-20 20 20 0 0 1  20-20 20 20 0 0 1  20 20zm0-61a20 20 0 0 1 -20 20 20 20 0 0 1 -20-20 20 20 0 0 1  20-20 20 20 0 0 1  20 20z" fill="#6f7073" stroke-width=".40000001"/><path id="circle3488" d="m180.5 104a6.5 6.5 0 0 1 -6.5 6.5 6.5 6.5 0 0 1 -6.5-6.5 6.5 6.5 0 0 1  6.5-6.5 6.5 6.5 0 0 1  6.5 6.5zm2.5 0a9 9 0 0 1 -9 9 9 9 0 0 1 -9-9 9 9 0 0 1  9-9 9 9 0 0 1  9 9zm3 0a12 12 0 0 1 -12 12 12 12 0 0 1 -12-12 12 12 0 0 1  12-12 12 12 0 0 1  12 12zm2.5 0a14.5 14.5 0 0 1 -14.5 14.5 14.5 14.5 0 0 1 -14.5-14.5 14.5 14.5 0 0 1  14.5-14.5 14.5 14.5 0 0 1  14.5 14.5zm2.5 0a17 17 0 0 1 -17 17 17 17 0 0 1 -17-17 17 17 0 0 1  17-17 17 17 0 0 1  17 17zm-10.5-61a6.5 6.5 0 0 1 -6.5 6.5 6.5 6.5 0 0 1 -6.5-6.5 6.5 6.5 0 0 1  6.5-6.5 6.5 6.5 0 0 1  6.5 6.5zm2.5 0a9 9 0 0 1 -9 9 9 9 0 0 1 -9-9 9 9 0 0 1  9-9 9 9 0 0 1  9 9zm3 0a12 12 0 0 1 -12 12 12 12 0 0 1 -12-12 12 12 0 0 1  12-12 12 12 0 0 1  12 12zm2.5 0a14.5 14.5 0 0 1 -14.5 14.5 14.5 14.5 0 0 1 -14.5-14.5 14.5 14.5 0 0 1  14.5-14.5 14.5 14.5 0 0 1  14.5 14.5zm2.5 0a17 17 0 0 1 -17 17 17 17 0 0 1 -17-17 17 17 0 0 1  17-17 17 17 0 0 1  17 17zm-73 0a6.5 6.5 0 0 1 -6.5 6.5 6.5 6.5 0 0 1 -6.5-6.5 6.5 6.5 0 0 1  6.5-6.5 6.5 6.5 0 0 1  6.5 6.5zm2.5 0a9 9 0 0 1 -9 9 9 9 0 0 1 -9-9 9 9 0 0 1  9-9 9 9 0 0 1  9 9zm3 0a12 12 0 0 1 -12 12 12 12 0 0 1 -12-12 12 12 0 0 1  12-12 12 12 0 0 1  12 12zm2.5 0a14.5 14.5 0 0 1 -14.5 14.5 14.5 14.5 0 0 1 -14.5-14.5 14.5 14.5 0 0 1  14.5-14.5 14.5 14.5 0 0 1  14.5 14.5zm2.5 0a17 17 0 0 1 -17 17 17 17 0 0 1 -17-17 17 17 0 0 1  17-17 17 17 0 0 1  17 17zm-73.001999 0a6.5 6.5 0 0 1 -6.5 6.5 6.5 6.5 0 0 1 -6.5-6.5 6.5 6.5 0 0 1  6.5-6.5 6.5 6.5 0 0 1  6.5 6.5zm2.5 0a9 9 0 0 1 -9 9 9 9 0 0 1 -9-9 9 9 0 0 1  9-9 9 9 0 0 1  9 9zm3 0a12 12 0 0 1 -12 12 12 12 0 0 1 -12-12 12 12 0 0 1  12-12 12 12 0 0 1  12 12zm2.5 0a14.5 14.5 0 0 1 -14.5 14.5 14.5 14.5 0 0 1 -14.5-14.5 14.5 14.5 0 0 1  14.5-14.5 14.5 14.5 0 0 1  14.5 14.5zm2.5 0a17 17 0 0 1 -17 17 17 17 0 0 1 -17-17 17 17 0 0 1  17-17 17 17 0 0 1  17 17zm20.5 30.5a6.5 6.5 0 0 1 -6.5 6.5 6.5 6.5 0 0 1 -6.5-6.5 6.5 6.5 0 0 1  6.5-6.5 6.5 6.5 0 0 1  6.5 6.5zm2.5 0a9 9 0 0 1 -9 9 9 9 0 0 1 -9-9 9 9 0 0 1  9-9 9 9 0 0 1  9 9zm3 0a12 12 0 0 1 -12 12 12 12 0 0 1 -12-12 12 12 0 0 1  12-12 12 12 0 0 1  12 12zm2.5 0a14.5 14.5 0 0 1 -14.5 14.5 14.5 14.5 0 0 1 -14.5-14.5 14.5 14.5 0 0 1  14.5-14.5 14.5 14.5 0 0 1  14.5 14.5zm2.5 0a17 17 0 0 1 -17 17 17 17 0 0 1 -17-17 17 17 0 0 1  17-17 17 17 0 0 1  17 17zm51.501999 0a6.5 6.5 0 0 1 -6.5 6.5 6.5 6.5 0 0 1 -6.5-6.5 6.5 6.5 0 0 1  6.5-6.5 6.5 6.5 0 0 1  6.5 6.5zm2.5 0a9 9 0 0 1 -9 9 9 9 0 0 1 -9-9 9 9 0 0 1  9-9 9 9 0 0 1  9 9zm3 0a12 12 0 0 1 -12 12 12 12 0 0 1 -12-12 12 12 0 0 1  12-12 12 12 0 0 1  12 12zm2.5 0a14.5 14.5 0 0 1 -14.5 14.5 14.5 14.5 0 0 1 -14.5-14.5 14.5 14.5 0 0 1  14.5-14.5 14.5 14.5 0 0 1  14.5 14.5zm2.5 0a17 17 0 0 1 -17 17 17 17 0 0 1 -17-17 17 17 0 0 1  17-17 17 17 0 0 1  17 17zm-41 30.5a6.5 6.5 0 0 1 -6.5 6.5 6.5 6.5 0 0 1 -6.5-6.5 6.5 6.5 0 0 1  6.5-6.5 6.5 6.5 0 0 1  6.5 6.5zm2.5 0a9 9 0 0 1 -9 9 9 9 0 0 1 -9-9 9 9 0 0 1  9-9 9 9 0 0 1  9 9zm3 0a12 12 0 0 1 -12 12 12 12 0 0 1 -12-12 12 12 0 0 1  12-12 12 12 0 0 1  12 12zm2.5 0a14.5 14.5 0 0 1 -14.5 14.5 14.5 14.5 0 0 1 -14.5-14.5 14.5 14.5 0 0 1  14.5-14.5 14.5 14.5 0 0 1  14.5 14.5zm2.5 0a17 17 0 0 1 -17 17 17 17 0 0 1 -17-17 17 17 0 0 1  17-17 17 17 0 0 1  17 17zm-73.001999 0a6.5 6.5 0 0 1 -6.5 6.5 6.5 6.5 0 0 1 -6.5-6.5 6.5 6.5 0 0 1  6.5-6.5 6.5 6.5 0 0 1  6.5 6.5zm2.5 0a9 9 0 0 1 -9 9 9 9 0 0 1 -9-9 9 9 0 0 1  9-9 9 9 0 0 1  9 9zm3 0a12 12 0 0 1 -12 12 12 12 0 0 1 -12-12 12 12 0 0 1  12-12 12 12 0 0 1  12 12zm2.5 0a14.5 14.5 0 0 1 -14.5 14.5 14.5 14.5 0 0 1 -14.5-14.5 14.5 14.5 0 0 1  14.5-14.5 14.5 14.5 0 0 1  14.5 14.5zm2.5 0a17 17 0 0 1 -17 17 17 17 0 0 1 -17-17 17 17 0 0 1  17-17 17 17 0 0 1  17 17z" fill="#77797c" stroke-width=".40000001"/></g></g></svg>