<svg id="svg2" height="147" overflow="visible" viewBox="0 0 223 147" width="223" xmlns="http://www.w3.org/2000/svg"><g id="layer1" fill="#ccc" stroke="#000" stroke-linecap="round"><g id="TZ102"><rect id="rect4636" fill-rule="evenodd" height="147" ry="10" stroke-linejoin="round" width="223"/><path id="circle4723" d="m90.028999 64.605003a12.5 12.5 0 0 1 -12.5 12.5 12.5 12.5 0 0 1 -12.5-12.5 12.5 12.5 0 0 1  12.5-12.5 12.5 12.5 0 0 1  12.5 12.5zm-2.5-27.667003a10 10 0 0 1 -10 10 10 10 0 0 1 -10-10 10 10 0 0 1  10-10 10 10 0 0 1  10 10zm6 61.562a16 16 0 0 1 -16 16 16 16 0 0 1 -16-16 16 16 0 0 1  16-16 16 16 0 0 1  16 16zm-6 0a10 10 0 0 1 -10 10 10 10 0 0 1 -10-10 10 10 0 0 1  10-10 10 10 0 0 1  10 10zm109.971001-40.062a31.5 31.5 0 0 1 -31.5 31.5 31.5 31.5 0 0 1 -31.5-31.5 31.5 31.5 0 0 1  31.5-31.5 31.5 31.5 0 0 1  31.5 31.5zm1.5 50.002a12.5 12.5 0 0 1 -12.5 12.5 12.5 12.5 0 0 1 -12.5-12.5 12.5 12.5 0 0 1  12.5-12.499998 12.5 12.5 0 0 1  12.5 12.499998zm-40.5 0a12.5 12.5 0 0 1 -12.5 12.5 12.5 12.5 0 0 1 -12.5-12.5 12.5 12.5 0 0 1  12.5-12.499998 12.5 12.5 0 0 1  12.5 12.499998zm32.5-50.002a25 25 0 0 1 -25 25 25 25 0 0 1 -25-25 25 25 0 0 1  25-25 25 25 0 0 1  25 25zm-135 15.062a16 16 0 0 1 -16 16 16 16 0 0 1 -16-16 16 16 0 0 1  16-16 16 16 0 0 1  16 16zm66 41.94a10 10 0 0 1 -10 10 10 10 0 0 1 -10-10 10 10 0 0 1  10-10 10 10 0 0 1  10 10zm0-27.666997a10 10 0 0 1 -10 10 10 10 0 0 1 -10-10 10 10 0 0 1  10-10 10 10 0 0 1  10 10zm0-27.668003a10 10 0 0 1 -10 10 10 10 0 0 1 -10-10 10 10 0 0 1  10-10 10 10 0 0 1  10 10zm0-27.667a10 10 0 0 1 -10 10 10 10 0 0 1 -10-10 10 10 0 0 1  10-10 10 10 0 0 1  10 10zm-72 41.062a10 10 0 0 1 -10 10 10 10 0 0 1 -10-10 10 10 0 0 1  10-10 10 10 0 0 1  10 10zm2.5 34.94a12.5 12.5 0 0 1 -12.5 12.5 12.5 12.5 0 0 1 -12.5-12.5 12.5 12.5 0 0 1  12.5-12.499998 12.5 12.5 0 0 1  12.5 12.499998zm0-69.002a12.5 12.5 0 0 1 -12.5 12.5 12.5 12.5 0 0 1 -12.5-12.5 12.5 12.5 0 0 1  12.5-12.5 12.5 12.5 0 0 1  12.5 12.5z" stroke-width=".40000001"/></g></g></svg>