<svg id="svg2" height="147" overflow="visible" viewBox="0 0 223 147" width="223" xmlns="http://www.w3.org/2000/svg"><g id="layer1" fill-rule="evenodd" stroke="#000" stroke-linecap="round"><g id="TZ111"><rect id="rect4489" fill="#ccc" height="147" ry="10" stroke-linejoin="round" width="223"/><path id="circle4766" d="m201.5 81.5a13 13 0 0 1 -13 13 13 13 0 0 1 -13-13 13 13 0 0 1  13-13 13 13 0 0 1  13 13zm-126 23a13 13 0 0 1 -13 13 13 13 0 0 1 -13-13 13 13 0 0 1  13-13 13 13 0 0 1  13 13zm29.5 10a13 13 0 0 1 -13 13 13 13 0 0 1 -13-13 13 13 0 0 1  13-13 13 13 0 0 1  13 13zm-59 0a13 13 0 0 1 -13 13 13 13 0 0 1 -13-13 13 13 0 0 1  13-13 13 13 0 0 1  13 13zm138.5-3a16 16 0 0 1 -16 16 16 16 0 0 1 -16-16 16 16 0 0 1  16-16 16 16 0 0 1  16 16zm-42 0a16 16 0 0 1 -16 16 16 16 0 0 1 -16-16 16 16 0 0 1  16-16 16 16 0 0 1  16 16zm-23-30a16 16 0 0 1 -16 16 16 16 0 0 1 -16-16 16 16 0 0 1  16-16 16 16 0 0 1  16 16zm48-8a20 20 0 0 1 -20 20 20 20 0 0 1 -20-20 20 20 0 0 1  20-20 20 20 0 0 1  20 20zm32.5-32a20 20 0 0 1 -20 20 20 20 0 0 1 -20-20 20 20 0 0 1  20-20 20 20 0 0 1  20 20zm-65 0a20 20 0 0 1 -20 20 20 20 0 0 1 -20-20 20 20 0 0 1  20-20 20 20 0 0 1  20 20zm-45 11a34 34 0 0 1 -34 34 34 34 0 0 1 -34-34 34 34 0 0 1  34-34 34 34 0 0 1  34 34z" fill="#6f7073" stroke-width=".40000001"/><path id="circle4772" d="m191.5 81.5a3 3 0 0 1 -3 3 3 3 0 0 1 -3-3 3 3 0 0 1  3-3 3 3 0 0 1  3 3zm3.5 0a6.5 6.5 0 0 1 -6.5 6.5 6.5 6.5 0 0 1 -6.5-6.5 6.5 6.5 0 0 1  6.5-6.5 6.5 6.5 0 0 1  6.5 6.5zm2.5 0a9 9 0 0 1 -9 9 9 9 0 0 1 -9-9 9 9 0 0 1  9-9 9 9 0 0 1  9 9zm-132 23a3 3 0 0 1 -3 3 3 3 0 0 1 -3-3 3 3 0 0 1  3-3 3 3 0 0 1  3 3zm3.5 0a6.5 6.5 0 0 1 -6.5 6.5 6.5 6.5 0 0 1 -6.5-6.5 6.5 6.5 0 0 1  6.5-6.5 6.5 6.5 0 0 1  6.5 6.5zm2.5 0a9 9 0 0 1 -9 9 9 9 0 0 1 -9-9 9 9 0 0 1  9-9 9 9 0 0 1  9 9zm23.5 10a3 3 0 0 1 -3 3 3 3 0 0 1 -3-3 3 3 0 0 1  3-3 3 3 0 0 1  3 3zm3.5 0a6.5 6.5 0 0 1 -6.5 6.5 6.5 6.5 0 0 1 -6.5-6.5 6.5 6.5 0 0 1  6.5-6.5 6.5 6.5 0 0 1  6.5 6.5zm2.5 0a9 9 0 0 1 -9 9 9 9 0 0 1 -9-9 9 9 0 0 1  9-9 9 9 0 0 1  9 9zm-65 0a3 3 0 0 1 -3 3 3 3 0 0 1 -3-3 3 3 0 0 1  3-3 3 3 0 0 1  3 3zm3.5 0a6.5 6.5 0 0 1 -6.5 6.5 6.5 6.5 0 0 1 -6.5-6.5 6.5 6.5 0 0 1  6.5-6.5 6.5 6.5 0 0 1  6.5 6.5zm2.5 0a9 9 0 0 1 -9 9 9 9 0 0 1 -9-9 9 9 0 0 1  9-9 9 9 0 0 1  9 9zm133-3a6.5 6.5 0 0 1 -6.5 6.5 6.5 6.5 0 0 1 -6.5-6.5 6.5 6.5 0 0 1  6.5-6.5 6.5 6.5 0 0 1  6.5 6.5zm2.5 0a9 9 0 0 1 -9 9 9 9 0 0 1 -9-9 9 9 0 0 1  9-9 9 9 0 0 1  9 9zm3 0a12 12 0 0 1 -12 12 12 12 0 0 1 -12-12 12 12 0 0 1  12-12 12 12 0 0 1  12 12zm-47.5 0a6.5 6.5 0 0 1 -6.5 6.5 6.5 6.5 0 0 1 -6.5-6.5 6.5 6.5 0 0 1  6.5-6.5 6.5 6.5 0 0 1  6.5 6.5zm2.5 0a9 9 0 0 1 -9 9 9 9 0 0 1 -9-9 9 9 0 0 1  9-9 9 9 0 0 1  9 9zm3 0a12 12 0 0 1 -12 12 12 12 0 0 1 -12-12 12 12 0 0 1  12-12 12 12 0 0 1  12 12zm-28.5-30a6.5 6.5 0 0 1 -6.5 6.5 6.5 6.5 0 0 1 -6.5-6.5 6.5 6.5 0 0 1  6.5-6.5 6.5 6.5 0 0 1  6.5 6.5zm2.5 0a9 9 0 0 1 -9 9 9 9 0 0 1 -9-9 9 9 0 0 1  9-9 9 9 0 0 1  9 9zm3 0a12 12 0 0 1 -12 12 12 12 0 0 1 -12-12 12 12 0 0 1  12-12 12 12 0 0 1  12 12zm38.5-8a6.5 6.5 0 0 1 -6.5 6.5 6.5 6.5 0 0 1 -6.5-6.5 6.5 6.5 0 0 1  6.5-6.5 6.5 6.5 0 0 1  6.5 6.5zm2.5 0a9 9 0 0 1 -9 9 9 9 0 0 1 -9-9 9 9 0 0 1  9-9 9 9 0 0 1  9 9zm3 0a12 12 0 0 1 -12 12 12 12 0 0 1 -12-12 12 12 0 0 1  12-12 12 12 0 0 1  12 12zm2.5 0a14.5 14.5 0 0 1 -14.5 14.5 14.5 14.5 0 0 1 -14.5-14.5 14.5 14.5 0 0 1  14.5-14.5 14.5 14.5 0 0 1  14.5 14.5zm2.5 0a17 17 0 0 1 -17 17 17 17 0 0 1 -17-17 17 17 0 0 1  17-17 17 17 0 0 1  17 17zm22-32a6.5 6.5 0 0 1 -6.5 6.5 6.5 6.5 0 0 1 -6.5-6.5 6.5 6.5 0 0 1  6.5-6.5 6.5 6.5 0 0 1  6.5 6.5zm2.5 0a9 9 0 0 1 -9 9 9 9 0 0 1 -9-9 9 9 0 0 1  9-9 9 9 0 0 1  9 9zm3 0a12 12 0 0 1 -12 12 12 12 0 0 1 -12-12 12 12 0 0 1  12-12 12 12 0 0 1  12 12zm2.5 0a14.5 14.5 0 0 1 -14.5 14.5 14.5 14.5 0 0 1 -14.5-14.5 14.5 14.5 0 0 1  14.5-14.5 14.5 14.5 0 0 1  14.5 14.5zm2.5 0a17 17 0 0 1 -17 17 17 17 0 0 1 -17-17 17 17 0 0 1  17-17 17 17 0 0 1  17 17zm-75.5 0a6.5 6.5 0 0 1 -6.5 6.5 6.5 6.5 0 0 1 -6.5-6.5 6.5 6.5 0 0 1  6.5-6.5 6.5 6.5 0 0 1  6.5 6.5zm2.5 0a9 9 0 0 1 -9 9 9 9 0 0 1 -9-9 9 9 0 0 1  9-9 9 9 0 0 1  9 9zm3 0a12 12 0 0 1 -12 12 12 12 0 0 1 -12-12 12 12 0 0 1  12-12 12 12 0 0 1  12 12zm2.5 0a14.5 14.5 0 0 1 -14.5 14.5 14.5 14.5 0 0 1 -14.5-14.5 14.5 14.5 0 0 1  14.5-14.5 14.5 14.5 0 0 1  14.5 14.5zm2.5 0a17 17 0 0 1 -17 17 17 17 0 0 1 -17-17 17 17 0 0 1  17-17 17 17 0 0 1  17 17zm-64-11a12 12 0 0 1 -12 12 12 12 0 0 1 -12-12 12 12 0 0 1  12-12 12 12 0 0 1  12 12zm-5-5a7 7 0 0 1 -7 7 7 7 0 0 1 -7-7 7 7 0 0 1  7-7 7 7 0 0 1  7 7zm10 10a17 17 0 0 1 -17 17 17 17 0 0 1 -17-17 17 17 0 0 1  17-17 17 17 0 0 1  17 17zm5 5a22 22 0 0 1 -22 22 22 22 0 0 1 -22-22 22 22 0 0 1  22-22 22 22 0 0 1  22 22zm6 6a28 28 0 0 1 -28 28 28 28 0 0 1 -28-28 28 28 0 0 1  28-28 28 28 0 0 1  28 28z" fill="#77797c" stroke-width=".40000001"/></g></g></svg>