<svg id="svg2" height="90.5" overflow="visible" viewBox="0 0 214.49999 90.499996" width="214.5" xmlns="http://www.w3.org/2000/svg"><g id="layer1" fill="#c5c7c4" stroke="#4d4d4d" stroke-linejoin="round" stroke-width=".49999994"><path id="EV0117" d="m5-.00001c-2.77 0-5 2.23-5 5v80c0 2.77 2.23 5 5 5h204c2.77 0 5-2.23 5-5v-80c0-2.77-2.23-5-5-5zm5.75 8a2.7500004 2.7500004 0 0 1 2.75 2.75 2.7500004 2.7500004 0 0 1 -2.75 2.75 2.7500004 2.7500004 0 0 1 -2.75-2.75 2.7500004 2.7500004 0 0 1  2.75-2.75zm192.5 0a2.7500004 2.7500004 0 0 1 2.75 2.75 2.7500004 2.7500004 0 0 1 -2.75 2.75 2.7500004 2.7500004 0 0 1 -2.75-2.75 2.7500004 2.7500004 0 0 1  2.75-2.75zm-176.25 3h160c2.77 0 5 2.23 5 5v58c0 2.77-2.23 5-5 5h-160c-2.77 0-5-2.23-5-5v-58c0-2.77 2.23-5 5-5zm-16.25 65.5a2.7500004 2.7500004 0 0 1 2.75 2.75 2.7500004 2.7500004 0 0 1 -2.75 2.75 2.7500004 2.7500004 0 0 1 -2.75-2.75 2.7500004 2.7500004 0 0 1  2.75-2.75zm192.5 0a2.7500004 2.7500004 0 0 1 2.75 2.75 2.7500004 2.7500004 0 0 1 -2.75 2.75 2.7500004 2.7500004 0 0 1 -2.75-2.75 2.7500004 2.7500004 0 0 1  2.75-2.75z" fill-rule="evenodd"/><path id="path4359" d="m116.02229 70a1.5225613 1.5225613 0 0 1 -1.52256 1.52256 1.5225613 1.5225613 0 0 1 -1.52256-1.52256 1.5225613 1.5225613 0 0 1  1.52256-1.52256 1.5225613 1.5225613 0 0 1  1.52256 1.52256zm2.0633-.00002a3.5858617 3.5858617 0 0 1 -3.58586 3.58586 3.5858617 3.5858617 0 0 1 -3.58586-3.58586 3.5858617 3.5858617 0 0 1  3.58586-3.58586 3.5858617 3.5858617 0 0 1  3.58586 3.58586zm-2.0633-12.49998a1.5225613 1.5225613 0 0 1 -1.52256 1.52257 1.5225613 1.5225613 0 0 1 -1.52256-1.52257 1.5225613 1.5225613 0 0 1  1.52256-1.52256 1.5225613 1.5225613 0 0 1  1.52256 1.52256zm2.0633-.00002a3.5858617 3.5858617 0 0 1 -3.58586 3.58586 3.5858617 3.5858617 0 0 1 -3.58586-3.58586 3.5858617 3.5858617 0 0 1  3.58586-3.58586 3.5858617 3.5858617 0 0 1  3.58586 3.58586zm-2.22704-13.32068a1.5225613 1.5225613 0 0 1 -1.52256 1.52256 1.5225613 1.5225613 0 0 1 -1.52256-1.52256 1.5225613 1.5225613 0 0 1  1.52256-1.52256 1.5225613 1.5225613 0 0 1  1.52256 1.52256zm2.0633 0a3.5858617 3.5858617 0 0 1 -3.58586 3.58586 3.5858617 3.5858617 0 0 1 -3.58587-3.58586 3.5858617 3.5858617 0 0 1  3.58587-3.58586 3.5858617 3.5858617 0 0 1  3.58586 3.58586zm-1.89956-11.6793a1.5225613 1.5225613 0 0 1 -1.52256 1.52257 1.5225613 1.5225613 0 0 1 -1.52256-1.52257 1.5225613 1.5225613 0 0 1  1.52256-1.52256 1.5225613 1.5225613 0 0 1  1.52256 1.52256zm2.0633-.00002a3.5858617 3.5858617 0 0 1 -3.58586 3.58586 3.5858617 3.5858617 0 0 1 -3.58586-3.58586 3.5858617 3.5858617 0 0 1  3.58586-3.58586 3.5858617 3.5858617 0 0 1  3.58586 3.58586zm-2.0633-12.49998a1.5225613 1.5225613 0 0 1 -1.52256 1.52257 1.5225613 1.5225613 0 0 1 -1.52256-1.52257 1.5225613 1.5225613 0 0 1  1.52256-1.52256 1.5225613 1.5225613 0 0 1  1.52256 1.52256zm2.0633-.00002a3.5858617 3.5858617 0 0 1 -3.58586 3.58586 3.5858617 3.5858617 0 0 1 -3.58586-3.58586 3.5858617 3.5858617 0 0 1  3.58586-3.58586 3.5858617 3.5858617 0 0 1  3.58586 3.58586zm-17.0633 50.00002a1.5225613 1.5225613 0 0 1 -1.522561 1.52256 1.5225613 1.5225613 0 0 1 -1.52256-1.52256 1.5225613 1.5225613 0 0 1  1.52256-1.52256 1.5225613 1.5225613 0 0 1  1.522561 1.52256zm2.0633-.00002a3.5858617 3.5858617 0 0 1 -3.585861 3.58586 3.5858617 3.5858617 0 0 1 -3.58586-3.58586 3.5858617 3.5858617 0 0 1  3.58586-3.58586 3.5858617 3.5858617 0 0 1  3.585861 3.58586zm-2.0633-12.49998a1.5225613 1.5225613 0 0 1 -1.522561 1.52257 1.5225613 1.5225613 0 0 1 -1.52256-1.52257 1.5225613 1.5225613 0 0 1  1.52256-1.52256 1.5225613 1.5225613 0 0 1  1.522561 1.52256zm2.0633-.00002a3.5858617 3.5858617 0 0 1 -3.585861 3.58586 3.5858617 3.5858617 0 0 1 -3.58586-3.58586 3.5858617 3.5858617 0 0 1  3.58586-3.58586 3.5858617 3.5858617 0 0 1  3.585861 3.58586zm-2.0633-12.49998a1.5225613 1.5225613 0 0 1 -1.522561 1.52257 1.5225613 1.5225613 0 0 1 -1.52256-1.52257 1.5225613 1.5225613 0 0 1  1.52256-1.52256 1.5225613 1.5225613 0 0 1  1.522561 1.52256zm2.0633-.00002a3.5858617 3.5858617 0 0 1 -3.585861 3.58586 3.5858617 3.5858617 0 0 1 -3.58586-3.58586 3.5858617 3.5858617 0 0 1  3.58586-3.58586 3.5858617 3.5858617 0 0 1  3.585861 3.58586zm-2.0633-12.49998a1.5225613 1.5225613 0 0 1 -1.522561 1.52257 1.5225613 1.5225613 0 0 1 -1.52256-1.52257 1.5225613 1.5225613 0 0 1  1.52256-1.52256 1.5225613 1.5225613 0 0 1  1.522561 1.52256zm2.0633-.00002a3.5858617 3.5858617 0 0 1 -3.585861 3.58586 3.5858617 3.5858617 0 0 1 -3.58586-3.58586 3.5858617 3.5858617 0 0 1  3.58586-3.58586 3.5858617 3.5858617 0 0 1  3.585861 3.58586zm-2.0633-12.49997a1.5225613 1.5225613 0 0 1 -1.522561 1.52256 1.5225613 1.5225613 0 0 1 -1.52256-1.52256 1.5225613 1.5225613 0 0 1  1.52256-1.52257 1.5225613 1.5225613 0 0 1  1.522561 1.52257zm2.0633-.00003a3.5858617 3.5858617 0 0 1 -3.585861 3.58586 3.5858617 3.5858617 0 0 1 -3.58586-3.58586 3.5858617 3.5858617 0 0 1  3.58586-3.58586 3.5858617 3.5858617 0 0 1  3.585861 3.58586zm-13.085861-9h34.000001v68h-34.000001zm-7.97744 59.00002a1.5225613 1.5225613 0 0 1 -1.52256 1.52256 1.5225613 1.5225613 0 0 1 -1.52256-1.52256 1.5225613 1.5225613 0 0 1  1.52256-1.52256 1.5225613 1.5225613 0 0 1  1.52256 1.52256zm2.0633-.00002a3.5858617 3.5858617 0 0 1 -3.58586 3.58586 3.5858617 3.5858617 0 0 1 -3.58586-3.58586 3.5858617 3.5858617 0 0 1  3.58586-3.58586 3.5858617 3.5858617 0 0 1  3.58586 3.58586zm-2.0633-12.49998a1.5225613 1.5225613 0 0 1 -1.52256 1.52257 1.5225613 1.5225613 0 0 1 -1.52256-1.52257 1.5225613 1.5225613 0 0 1  1.52256-1.52256 1.5225613 1.5225613 0 0 1  1.52256 1.52256zm2.0633-.00002a3.5858617 3.5858617 0 0 1 -3.58586 3.58586 3.5858617 3.5858617 0 0 1 -3.58586-3.58586 3.5858617 3.5858617 0 0 1  3.58586-3.58586 3.5858617 3.5858617 0 0 1  3.58586 3.58586zm-2.22704-13.32068a1.5225613 1.5225613 0 0 1 -1.52256 1.52256 1.5225613 1.5225613 0 0 1 -1.52256-1.52256 1.5225613 1.5225613 0 0 1  1.52256-1.52256 1.5225613 1.5225613 0 0 1  1.52256 1.52256zm2.0633 0a3.5858617 3.5858617 0 0 1 -3.58586 3.58586 3.5858617 3.5858617 0 0 1 -3.585862-3.58586 3.5858617 3.5858617 0 0 1  3.585862-3.58586 3.5858617 3.5858617 0 0 1  3.58586 3.58586zm-1.89956-11.6793a1.5225613 1.5225613 0 0 1 -1.52256 1.52257 1.5225613 1.5225613 0 0 1 -1.52256-1.52257 1.5225613 1.5225613 0 0 1  1.52256-1.52256 1.5225613 1.5225613 0 0 1  1.52256 1.52256zm2.0633-.00002a3.5858617 3.5858617 0 0 1 -3.58586 3.58586 3.5858617 3.5858617 0 0 1 -3.58586-3.58586 3.5858617 3.5858617 0 0 1  3.58586-3.58586 3.5858617 3.5858617 0 0 1  3.58586 3.58586zm-2.0633-12.49998a1.5225613 1.5225613 0 0 1 -1.52256 1.52257 1.5225613 1.5225613 0 0 1 -1.52256-1.52257 1.5225613 1.5225613 0 0 1  1.52256-1.52256 1.5225613 1.5225613 0 0 1  1.52256 1.52256zm2.0633-.00002a3.5858617 3.5858617 0 0 1 -3.58586 3.58586 3.5858617 3.5858617 0 0 1 -3.58586-3.58586 3.5858617 3.5858617 0 0 1  3.58586-3.58586 3.5858617 3.5858617 0 0 1  3.58586 3.58586zm-17.063297 50.00002a1.5225613 1.5225613 0 0 1 -1.522562 1.52256 1.5225613 1.5225613 0 0 1 -1.522561-1.52256 1.5225613 1.5225613 0 0 1  1.522561-1.52256 1.5225613 1.5225613 0 0 1  1.522562 1.52256zm2.0633-.00002a3.5858617 3.5858617 0 0 1 -3.585862 3.58586 3.5858617 3.5858617 0 0 1 -3.585861-3.58586 3.5858617 3.5858617 0 0 1  3.585861-3.58586 3.5858617 3.5858617 0 0 1  3.585862 3.58586zm-2.0633-12.49998a1.5225613 1.5225613 0 0 1 -1.522562 1.52257 1.5225613 1.5225613 0 0 1 -1.522561-1.52257 1.5225613 1.5225613 0 0 1  1.522561-1.52256 1.5225613 1.5225613 0 0 1  1.522562 1.52256zm2.0633-.00002a3.5858617 3.5858617 0 0 1 -3.585862 3.58586 3.5858617 3.5858617 0 0 1 -3.585861-3.58586 3.5858617 3.5858617 0 0 1  3.585861-3.58586 3.5858617 3.5858617 0 0 1  3.585862 3.58586zm-2.0633-12.49998a1.5225613 1.5225613 0 0 1 -1.522562 1.52257 1.5225613 1.5225613 0 0 1 -1.522561-1.52257 1.5225613 1.5225613 0 0 1  1.522561-1.52256 1.5225613 1.5225613 0 0 1  1.522562 1.52256zm2.0633-.00002a3.5858617 3.5858617 0 0 1 -3.585862 3.58586 3.5858617 3.5858617 0 0 1 -3.585861-3.58586 3.5858617 3.5858617 0 0 1  3.585861-3.58586 3.5858617 3.5858617 0 0 1  3.585862 3.58586zm-2.0633-12.49998a1.5225613 1.5225613 0 0 1 -1.522562 1.52257 1.5225613 1.5225613 0 0 1 -1.522561-1.52257 1.5225613 1.5225613 0 0 1  1.522561-1.52256 1.5225613 1.5225613 0 0 1  1.522562 1.52256zm2.0633-.00002a3.5858617 3.5858617 0 0 1 -3.585862 3.58586 3.5858617 3.5858617 0 0 1 -3.585861-3.58586 3.5858617 3.5858617 0 0 1  3.585861-3.58586 3.5858617 3.5858617 0 0 1  3.585862 3.58586zm-2.0633-12.49997a1.5225613 1.5225613 0 0 1 -1.522562 1.52256 1.5225613 1.5225613 0 0 1 -1.522561-1.52256 1.5225613 1.5225613 0 0 1  1.522561-1.52257 1.5225613 1.5225613 0 0 1  1.522562 1.52257zm2.0633-.00003a3.5858617 3.5858617 0 0 1 -3.585862 3.58586 3.5858617 3.5858617 0 0 1 -3.585861-3.58586 3.5858617 3.5858617 0 0 1  3.585861-3.58586 3.5858617 3.5858617 0 0 1  3.585862 3.58586zm-13.085862-9h33.999999v68h-33.999999zm-7.977171 59.00002a1.5225613 1.5225613 0 0 1 -1.522562 1.52256 1.5225613 1.5225613 0 0 1 -1.522561-1.52256 1.5225613 1.5225613 0 0 1  1.522561-1.52256 1.5225613 1.5225613 0 0 1  1.522562 1.52256zm2.0633-.00002a3.5858617 3.5858617 0 0 1 -3.585862 3.58586 3.5858617 3.5858617 0 0 1 -3.585861-3.58586 3.5858617 3.5858617 0 0 1  3.585861-3.58586 3.5858617 3.5858617 0 0 1  3.585862 3.58586zm-2.0633-12.49998a1.5225613 1.5225613 0 0 1 -1.522562 1.52257 1.5225613 1.5225613 0 0 1 -1.522561-1.52257 1.5225613 1.5225613 0 0 1  1.522561-1.52256 1.5225613 1.5225613 0 0 1  1.522562 1.52256zm2.0633-.00002a3.5858617 3.5858617 0 0 1 -3.585862 3.58586 3.5858617 3.5858617 0 0 1 -3.585861-3.58586 3.5858617 3.5858617 0 0 1  3.585861-3.58586 3.5858617 3.5858617 0 0 1  3.585862 3.58586zm-2.227042-13.32068a1.5225613 1.5225613 0 0 1 -1.522562 1.52256 1.5225613 1.5225613 0 0 1 -1.522561-1.52256 1.5225613 1.5225613 0 0 1  1.522561-1.52256 1.5225613 1.5225613 0 0 1  1.522562 1.52256zm2.0633 0a3.5858617 3.5858617 0 0 1 -3.585862 3.58586 3.5858617 3.5858617 0 0 1 -3.585861-3.58586 3.5858617 3.5858617 0 0 1  3.585861-3.58586 3.5858617 3.5858617 0 0 1  3.585862 3.58586zm-1.899558-11.6793a1.5225613 1.5225613 0 0 1 -1.522562 1.52257 1.5225613 1.5225613 0 0 1 -1.522561-1.52257 1.5225613 1.5225613 0 0 1  1.522561-1.52256 1.5225613 1.5225613 0 0 1  1.522562 1.52256zm2.0633-.00002a3.5858617 3.5858617 0 0 1 -3.585862 3.58586 3.5858617 3.5858617 0 0 1 -3.585861-3.58586 3.5858617 3.5858617 0 0 1  3.585861-3.58586 3.5858617 3.5858617 0 0 1  3.585862 3.58586zm-2.0633-12.49998a1.5225613 1.5225613 0 0 1 -1.522562 1.52257 1.5225613 1.5225613 0 0 1 -1.522561-1.52257 1.5225613 1.5225613 0 0 1  1.522561-1.52256 1.5225613 1.5225613 0 0 1  1.522562 1.52256zm2.0633-.00002a3.5858617 3.5858617 0 0 1 -3.585862 3.58586 3.5858617 3.5858617 0 0 1 -3.585861-3.58586 3.5858617 3.5858617 0 0 1  3.585861-3.58586 3.5858617 3.5858617 0 0 1  3.585862 3.58586zm-17.0633 50.00002a1.5225613 1.5225613 0 0 1 -1.522562 1.52256 1.5225613 1.5225613 0 0 1 -1.522561-1.52256 1.5225613 1.5225613 0 0 1  1.522561-1.52256 1.5225613 1.5225613 0 0 1  1.522562 1.52256zm2.0633-.00002a3.5858617 3.5858617 0 0 1 -3.585862 3.58586 3.5858617 3.5858617 0 0 1 -3.585861-3.58586 3.5858617 3.5858617 0 0 1  3.585861-3.58586 3.5858617 3.5858617 0 0 1  3.585862 3.58586zm-2.0633-12.49998a1.5225613 1.5225613 0 0 1 -1.522562 1.52257 1.5225613 1.5225613 0 0 1 -1.522561-1.52257 1.5225613 1.5225613 0 0 1  1.522561-1.52256 1.5225613 1.5225613 0 0 1  1.522562 1.52256zm2.0633-.00002a3.5858617 3.5858617 0 0 1 -3.585862 3.58586 3.5858617 3.5858617 0 0 1 -3.585861-3.58586 3.5858617 3.5858617 0 0 1  3.585861-3.58586 3.5858617 3.5858617 0 0 1  3.585862 3.58586zm-2.0633-12.49998a1.5225613 1.5225613 0 0 1 -1.522562 1.52257 1.5225613 1.5225613 0 0 1 -1.522561-1.52257 1.5225613 1.5225613 0 0 1  1.522561-1.52256 1.5225613 1.5225613 0 0 1  1.522562 1.52256zm2.0633-.00002a3.5858617 3.5858617 0 0 1 -3.585862 3.58586 3.5858617 3.5858617 0 0 1 -3.585861-3.58586 3.5858617 3.5858617 0 0 1  3.585861-3.58586 3.5858617 3.5858617 0 0 1  3.585862 3.58586zm-2.0633-12.49998a1.5225613 1.5225613 0 0 1 -1.522562 1.52257 1.5225613 1.5225613 0 0 1 -1.522561-1.52257 1.5225613 1.5225613 0 0 1  1.522561-1.52256 1.5225613 1.5225613 0 0 1  1.522562 1.52256zm2.0633-.00002a3.5858617 3.5858617 0 0 1 -3.585862 3.58586 3.5858617 3.5858617 0 0 1 -3.585861-3.58586 3.5858617 3.5858617 0 0 1  3.585861-3.58586 3.5858617 3.5858617 0 0 1  3.585862 3.58586zm-2.0633-12.49997a1.5225613 1.5225613 0 0 1 -1.522562 1.52256 1.5225613 1.5225613 0 0 1 -1.522561-1.52256 1.5225613 1.5225613 0 0 1  1.522561-1.52257 1.5225613 1.5225613 0 0 1  1.522562 1.52257zm2.0633-.00003a3.5858617 3.5858617 0 0 1 -3.585862 3.58586 3.5858617 3.5858617 0 0 1 -3.585861-3.58586 3.5858617 3.5858617 0 0 1  3.585861-3.58586 3.5858617 3.5858617 0 0 1  3.585862 3.58586zm-13.085862-9h34v68h-34zm155.327923 15.00001a2.828202 2.828202 0 0 1 -2.8282 2.8282 2.828202 2.828202 0 0 1 -2.8282-2.8282 2.828202 2.828202 0 0 1  2.8282-2.82821 2.828202 2.828202 0 0 1  2.8282 2.82821zm4.12222 0a6.950417 6.9402442 0 0 1 -6.95042 6.94024 6.950417 6.9402442 0 0 1 -6.95041-6.94024 6.950417 6.9402442 0 0 1  6.95041-6.94025 6.950417 6.9402442 0 0 1  6.95042 6.94025zm-37.12222 38a2.828202 2.828202 0 0 1 -2.8282 2.8282 2.828202 2.828202 0 0 1 -2.8282-2.8282 2.828202 2.828202 0 0 1  2.8282-2.82821 2.828202 2.828202 0 0 1  2.8282 2.82821zm4.12222 0a6.950417 6.9402442 0 0 1 -6.95042 6.94024 6.950417 6.9402442 0 0 1 -6.95041-6.94024 6.950417 6.9402442 0 0 1  6.95041-6.94025 6.950417 6.9402442 0 0 1  6.95042 6.94025zm30.61427 0a4.5646987 4.5646987 0 0 1 -4.5647 4.56469 4.5646987 4.5646987 0 0 1 -4.5647-4.56469 4.5646987 4.5646987 0 0 1  4.5647-4.5647 4.5646987 4.5646987 0 0 1  4.5647 4.5647zm6.19029 0a10.754996 10.754995 0 0 1 -10.75499 10.75499 10.754996 10.754995 0 0 1 -10.755-10.75499 10.754996 10.754995 0 0 1  10.755-10.755 10.754996 10.754995 0 0 1  10.75499 10.755zm-39.19029-38a4.5646987 4.5646987 0 0 1 -4.5647 4.56469 4.5646987 4.5646987 0 0 1 -4.5647-4.56469 4.5646987 4.5646987 0 0 1  4.5647-4.5647 4.5646987 4.5646987 0 0 1  4.5647 4.5647zm6.19029 0a10.754996 10.754995 0 0 1 -10.75499 10.75499 10.754996 10.754995 0 0 1 -10.755-10.75499 10.754996 10.754995 0 0 1  10.755-10.755 10.754996 10.754995 0 0 1  10.75499 10.755zm-28.25498-15h68v68h-68z"/></g></svg>