<svg id="svg2" height="147" overflow="visible" viewBox="0 0 223 147" width="223" xmlns="http://www.w3.org/2000/svg"><g id="layer1" fill-rule="evenodd" stroke="#000" stroke-linecap="round"><g id="TZ104"><rect id="rect4199" fill="#ccc" height="147" ry="10" stroke-linejoin="round" width="223"/><path id="path4170-1" d="m63 33.5a40 40 0 0 0 -40 40 40 40 0 0 0  40 40 40 40 0 0 0  40-40 40 40 0 0 0 -40-40zm97 0a40 40 0 0 0 -40 40 40 40 0 0 0  40 40 40 40 0 0 0  40-40 40 40 0 0 0 -40-40z" fill="#6f7073" stroke-width=".40000001"/><path id="circle4872-6" d="m62.501953 33.517578a12 12 0 0 0 -.351562.01172 28 28 0 0 0 -.0059 0 22 22 0 0 0 -.0059.002 12 12 0 0 0 -11.138591 11.968702 12 12 0 0 0  12 12 12 12 0 0 0  12-12 12 12 0 0 0 -10.802734-11.939453 28 28 0 0 1  .509765.02539 34 34 0 0 0 -.0098-.002 17 17 0 0 0 -.996094-.04883 7 7 0 0 1  6.298863 6.964893 7 7 0 0 1 -7 7 7 7 0 0 1 -7-7 7 7 0 0 1  6.501953-6.982422zm96.999997 0a12 12 0 0 0 -.35156.01172 28 28 0 0 0 -.006 0 22 22 0 0 0 -.006.002 12 12 0 0 0 -11.13839 11.968702 12 12 0 0 0  12 12 12 12 0 0 0  12-12 12 12 0 0 0 -10.80273-11.939453 28 28 0 0 1  .50976.02539 34 34 0 0 0 -.01-.002 17 17 0 0 0 -.9961-.04883 7 7 0 0 1  6.29907 6.964893 7 7 0 0 1 -7 7 7 7 0 0 1 -7-7 7 7 0 0 1  6.50195-6.982422zm-97.705075.02539a22 22 0 0 0 -.353516.01172 34 34 0 0 0 -.01172.002 22 22 0 0 0 -20.431639 21.943312 22 22 0 0 0  22 22 22 22 0 0 0  22-22 22 22 0 0 0 -19.791016-21.888672 28 28 0 0 0 -.498046-.02539 17 17 0 0 1  15.289062 16.914062 17 17 0 0 1 -17 17 17 17 0 0 1 -17-17 17 17 0 0 1  15.796875-16.957031zm97.000005 0a22 22 0 0 0 -.35352.01172 34 34 0 0 0 -.0117.002 22 22 0 0 0 -20.43166 21.943312 22 22 0 0 0  22 22 22 22 0 0 0  22-22 22 22 0 0 0 -19.79102-21.888672 28 28 0 0 0 -.49804-.02539 17 17 0 0 1  15.28906 16.914062 17 17 0 0 1 -17 17 17 17 0 0 1 -17-17 17 17 0 0 1  15.79688-16.957031zm-97.783208.02734a34 34 0 0 0 -32.013672 33.929692 34 34 0 0 0  34 34 34 34 0 0 0  34-34 34 34 0 0 0 -31.205078-33.859375 28 28 0 0 1  25.205078 27.859375 28 28 0 0 1 -28 28 28 28 0 0 1 -28-28 28 28 0 0 1  26.013672-27.929688zm96.999998 0a34 34 0 0 0 -32.01367 33.929692 34 34 0 0 0  34 34 34 34 0 0 0  34-34 34 34 0 0 0 -31.20508-33.859375 28 28 0 0 1  25.20508 27.859375 28 28 0 0 1 -28 28 28 28 0 0 1 -28-28 28 28 0 0 1  26.01367-27.929688z" fill="#77797c" stroke-width=".40000001"/></g></g></svg>