<svg id="svg2" height="90.500008" overflow="visible" viewBox="0 0 214.50002 90.500004" width="214.50003" xmlns="http://www.w3.org/2000/svg"><g id="layer1" fill="#c5c7c4" stroke="#4d4d4d" stroke-linejoin="round"><path id="flanges" d="m143.74997 26.500004a3.25 3.25 0 0 1 -3.25 3.25 3.25 3.25 0 0 1 -3.25-3.25 3.25 3.25 0 0 1  3.25-3.25 3.25 3.25 0 0 1  3.25 3.25zm4 0a7.25 7.25 0 0 1 -7.25 7.25 7.25 7.25 0 0 1 -7.25-7.25 7.25 7.25 0 0 1  7.25-7.25 7.25 7.25 0 0 1  7.25 7.25zm-4 36.999995a3.25 3.25 0 0 1 -3.25 3.25 3.25 3.25 0 0 1 -3.25-3.25 3.25 3.25 0 0 1  3.25-3.25 3.25 3.25 0 0 1  3.25 3.25zm4 0a7.25 7.25 0 0 1 -7.25 7.25 7.25 7.25 0 0 1 -7.25-7.25 7.25 7.25 0 0 1  7.25-7.25 7.25 7.25 0 0 1  7.25 7.25zm30.99999-36.999995a3.25 3.25 0 0 1 -3.25 3.25 3.25 3.25 0 0 1 -3.25-3.25 3.25 3.25 0 0 1  3.25-3.25 3.25 3.25 0 0 1  3.25 3.25zm4 0a7.25 7.25 0 0 1 -7.25 7.25 7.25 7.25 0 0 1 -7.25-7.25 7.25 7.25 0 0 1  7.25-7.25 7.25 7.25 0 0 1  7.25 7.25zm-4 36.999995a3.25 3.25 0 0 1 -3.25 3.25 3.25 3.25 0 0 1 -3.25-3.25 3.25 3.25 0 0 1  3.25-3.25 3.25 3.25 0 0 1  3.25 3.25zm4 0a7.25 7.25 0 0 1 -7.25 7.25 7.25 7.25 0 0 1 -7.25-7.25 7.25 7.25 0 0 1  7.25-7.25 7.25 7.25 0 0 1  7.25 7.25zm-58.74999-52.499996h67.99984v68h-67.99984zm-48.249985 15.500001a3.25 3.25 0 0 1 -3.25 3.25 3.25 3.25 0 0 1 -3.25-3.25 3.25 3.25 0 0 1  3.25-3.25 3.25 3.25 0 0 1  3.25 3.25zm4 0a7.25 7.25 0 0 1 -7.25 7.25 7.25 7.25 0 0 1 -7.25-7.25 7.25 7.25 0 0 1  7.25-7.25 7.25 7.25 0 0 1  7.25 7.25zm-4 36.999995a3.25 3.25 0 0 1 -3.25 3.25 3.25 3.25 0 0 1 -3.25-3.25 3.25 3.25 0 0 1  3.25-3.25 3.25 3.25 0 0 1  3.25 3.25zm4 0a7.25 7.25 0 0 1 -7.25 7.25 7.25 7.25 0 0 1 -7.25-7.25 7.25 7.25 0 0 1  7.25-7.25 7.25 7.25 0 0 1  7.25 7.25zm30.999985-36.999995a3.25 3.25 0 0 1 -3.25 3.25 3.25 3.25 0 0 1 -3.25-3.25 3.25 3.25 0 0 1  3.25-3.25 3.25 3.25 0 0 1  3.25 3.25zm4 0a7.25 7.25 0 0 1 -7.25 7.25 7.25 7.25 0 0 1 -7.25-7.25 7.25 7.25 0 0 1  7.25-7.25 7.25 7.25 0 0 1  7.25 7.25zm-4 36.999995a3.25 3.25 0 0 1 -3.25 3.25 3.25 3.25 0 0 1 -3.25-3.25 3.25 3.25 0 0 1  3.25-3.25 3.25 3.25 0 0 1  3.25 3.25zm4 0a7.25 7.25 0 0 1 -7.25 7.25 7.25 7.25 0 0 1 -7.25-7.25 7.25 7.25 0 0 1  7.25-7.25 7.25 7.25 0 0 1  7.25 7.25zm-58.749984-52.499996h67.999844v68h-67.999844zm-22.977435 9.000022a1.5225613 1.5225613 0 0 1 -1.522562 1.522561 1.5225613 1.5225613 0 0 1 -1.522561-1.522561 1.5225613 1.5225613 0 0 1  1.522561-1.522561 1.5225613 1.5225613 0 0 1  1.522562 1.522561zm2.0633-.000027a3.5858617 3.5858617 0 0 1 -3.585862 3.585862 3.5858617 3.5858617 0 0 1 -3.585861-3.585862 3.5858617 3.5858617 0 0 1  3.585861-3.585861 3.5858617 3.5858617 0 0 1  3.585862 3.585861zm-2.0633 12.500027a1.5225613 1.5225613 0 0 1 -1.522562 1.522561 1.5225613 1.5225613 0 0 1 -1.522561-1.522561 1.5225613 1.5225613 0 0 1  1.522561-1.522561 1.5225613 1.5225613 0 0 1  1.522562 1.522561zm2.0633-.000027a3.5858617 3.5858617 0 0 1 -3.585862 3.585862 3.5858617 3.5858617 0 0 1 -3.585861-3.585862 3.5858617 3.5858617 0 0 1  3.585861-3.585861 3.5858617 3.5858617 0 0 1  3.585862 3.585861zm-2.0633 12.500027a1.5225613 1.5225613 0 0 1 -1.522562 1.522561 1.5225613 1.5225613 0 0 1 -1.522561-1.522561 1.5225613 1.5225613 0 0 1  1.522561-1.522561 1.5225613 1.5225613 0 0 1  1.522562 1.522561zm2.0633-.000027a3.5858617 3.5858617 0 0 1 -3.585862 3.585862 3.5858617 3.5858617 0 0 1 -3.585861-3.585862 3.5858617 3.5858617 0 0 1  3.585861-3.585861 3.5858617 3.5858617 0 0 1  3.585862 3.585861zm-2.0633 12.500027a1.5225613 1.5225613 0 0 1 -1.522562 1.522561 1.5225613 1.5225613 0 0 1 -1.522561-1.522561 1.5225613 1.5225613 0 0 1  1.522561-1.522561 1.5225613 1.5225613 0 0 1  1.522562 1.522561zm2.0633-.000027a3.5858617 3.5858617 0 0 1 -3.585862 3.585862 3.5858617 3.5858617 0 0 1 -3.585861-3.585862 3.5858617 3.5858617 0 0 1  3.585861-3.585861 3.5858617 3.5858617 0 0 1  3.585862 3.585861zm-2.0633 12.500023a1.5225613 1.5225613 0 0 1 -1.522562 1.522562 1.5225613 1.5225613 0 0 1 -1.522561-1.522562 1.5225613 1.5225613 0 0 1  1.522561-1.522561 1.5225613 1.5225613 0 0 1  1.522562 1.522561zm2.0633-.000023a3.5858617 3.5858617 0 0 1 -3.585862 3.585862 3.5858617 3.5858617 0 0 1 -3.585861-3.585862 3.5858617 3.5858617 0 0 1  3.585861-3.585861 3.5858617 3.5858617 0 0 1  3.585862 3.585861zm12.9367-49.999973a1.5225613 1.5225613 0 0 1 -1.522562 1.522561 1.5225613 1.5225613 0 0 1 -1.522561-1.522561 1.5225613 1.5225613 0 0 1  1.522561-1.522561 1.5225613 1.5225613 0 0 1  1.522562 1.522561zm2.0633-.000027a3.5858617 3.5858617 0 0 1 -3.585862 3.585862 3.5858617 3.5858617 0 0 1 -3.585861-3.585862 3.5858617 3.5858617 0 0 1  3.585861-3.585861 3.5858617 3.5858617 0 0 1  3.585862 3.585861zm-2.0633 12.500027a1.5225613 1.5225613 0 0 1 -1.522562 1.522561 1.5225613 1.5225613 0 0 1 -1.522561-1.522561 1.5225613 1.5225613 0 0 1  1.522561-1.522561 1.5225613 1.5225613 0 0 1  1.522562 1.522561zm2.0633-.000027a3.5858617 3.5858617 0 0 1 -3.585862 3.585862 3.5858617 3.5858617 0 0 1 -3.585861-3.585862 3.5858617 3.5858617 0 0 1  3.585861-3.585861 3.5858617 3.5858617 0 0 1  3.585862 3.585861zm-2.227042 11.679326a1.5225613 1.5225613 0 0 1 -1.522562 1.522561 1.5225613 1.5225613 0 0 1 -1.522561-1.522561 1.5225613 1.5225613 0 0 1  1.522561-1.522562 1.5225613 1.5225613 0 0 1  1.522562 1.522562zm2.0633 0a3.5858617 3.5858617 0 0 1 -3.585862 3.585861 3.5858617 3.5858617 0 0 1 -3.585861-3.585861 3.5858617 3.5858617 0 0 1  3.585861-3.585862 3.5858617 3.5858617 0 0 1  3.585862 3.585862zm-1.899558 13.320701a1.5225613 1.5225613 0 0 1 -1.522562 1.522561 1.5225613 1.5225613 0 0 1 -1.522561-1.522561 1.5225613 1.5225613 0 0 1  1.522561-1.522561 1.5225613 1.5225613 0 0 1  1.522562 1.522561zm2.0633-.000027a3.5858617 3.5858617 0 0 1 -3.585862 3.585862 3.5858617 3.5858617 0 0 1 -3.585861-3.585862 3.5858617 3.5858617 0 0 1  3.585861-3.585861 3.5858617 3.5858617 0 0 1  3.585862 3.585861zm-2.0633 12.500023a1.5225613 1.5225613 0 0 1 -1.522562 1.522562 1.5225613 1.5225613 0 0 1 -1.522561-1.522562 1.5225613 1.5225613 0 0 1  1.522561-1.522561 1.5225613 1.5225613 0 0 1  1.522562 1.522561zm2.0633-.000023a3.5858617 3.5858617 0 0 1 -3.585862 3.585862 3.5858617 3.5858617 0 0 1 -3.585861-3.585862 3.5858617 3.5858617 0 0 1  3.585861-3.585861 3.5858617 3.5858617 0 0 1  3.585862 3.585861zm-28.085862-58.999995h34v68h-34z" stroke-width=".49999994"/><path id="EV0117" d="m4.9999924.00000763c-2.7700003 0-5.00000003 2.22999967-5.00000003 4.99999997v80.0000004c0 2.77 2.22999973 5 5.00000003 5h203.9999976c2.77 0 5-2.23 5-5v-80.0000004c0-2.7700003-2.23-4.99999997-5-4.99999997zm5.7499996 7.99999997a2.7500004 2.7500004 0 0 1 2.75 2.7500004 2.7500004 2.7500004 0 0 1 -2.75 2.75 2.7500004 2.7500004 0 0 1 -2.7499996-2.75 2.7500004 2.7500004 0 0 1  2.7499996-2.7500004zm192.499998 0a2.7500004 2.7500004 0 0 1 2.75 2.7500004 2.7500004 2.7500004 0 0 1 -2.75 2.75 2.7500004 2.7500004 0 0 1 -2.75-2.75 2.7500004 2.7500004 0 0 1  2.75-2.7500004zm-176.249998 3.0000004h159.999998c2.77 0 5 2.23 5 5v58c0 2.77-2.23 5-5 5h-159.999998c-2.77 0-5-2.23-5-5v-58c0-2.77 2.23-5 5-5zm-16.25 65.5a2.7500004 2.7500004 0 0 1 2.75 2.75 2.7500004 2.7500004 0 0 1 -2.75 2.75 2.7500004 2.7500004 0 0 1 -2.7499996-2.75 2.7500004 2.7500004 0 0 1  2.7499996-2.75zm192.499998 0a2.7500004 2.7500004 0 0 1 2.75 2.75 2.7500004 2.7500004 0 0 1 -2.75 2.75 2.7500004 2.7500004 0 0 1 -2.75-2.75 2.7500004 2.7500004 0 0 1  2.75-2.75z" fill-rule="evenodd" stroke-width=".5"/></g></svg>