<svg id="svg2" height="147" overflow="visible" viewBox="0 0 223 147" width="223" xmlns="http://www.w3.org/2000/svg"><g id="layer1" fill="#ccc" stroke="#000" stroke-linecap="round"><g id="TZ101"><rect id="rect5242" fill-rule="evenodd" height="147" ry="10" stroke-linejoin="round" width="223"/><path id="circle5590" d="m179 98.5a7.5 7.5 0 0 1 -7.5 7.5 7.5 7.5 0 0 1 -7.5-7.5 7.5 7.5 0 0 1  7.5-7.5 7.5 7.5 0 0 1  7.5 7.5zm-5.5 0a2 2 0 0 1 -2 2 2 2 0 0 1 -2-2 2 2 0 0 1  2-2 2 2 0 0 1  2 2zm-10.5-1.5a7.5 7.5 0 0 1 -7.5 7.5 7.5 7.5 0 0 1 -7.5-7.5 7.5 7.5 0 0 1  7.5-7.5 7.5 7.5 0 0 1  7.5 7.5zm-5.5 0a2 2 0 0 1 -2 2 2 2 0 0 1 -2-2 2 2 0 0 1  2-2 2 2 0 0 1  2 2zm4-16a7.5 7.5 0 0 1 -7.5 7.5 7.5 7.5 0 0 1 -7.5-7.5 7.5 7.5 0 0 1  7.5-7.5 7.5 7.5 0 0 1  7.5 7.5zm-5.5 0a2 2 0 0 1 -2 2 2 2 0 0 1 -2-2 2 2 0 0 1  2-2 2 2 0 0 1  2 2zm-10 3.5a7.5 7.5 0 0 1 -7.5 7.5 7.5 7.5 0 0 1 -7.5-7.5 7.5 7.5 0 0 1  7.5-7.5 7.5 7.5 0 0 1  7.5 7.5zm-5.5 0a2 2 0 0 1 -2 2 2 2 0 0 1 -2-2 2 2 0 0 1  2-2 2 2 0 0 1  2 2zm-8-7.5a7.5 7.5 0 0 1 -7.5 7.5 7.5 7.5 0 0 1 -7.5-7.5 7.5 7.5 0 0 1  7.5-7.5 7.5 7.5 0 0 1  7.5 7.5zm-5.5 0a2 2 0 0 1 -2 2 2 2 0 0 1 -2-2 2 2 0 0 1  2-2 2 2 0 0 1  2 2zm-21-.5a7.5 7.5 0 0 1 -7.5 7.5 7.5 7.5 0 0 1 -7.5-7.5 7.5 7.5 0 0 1  7.5-7.5 7.5 7.5 0 0 1  7.5 7.5zm-5.5 0a2 2 0 0 1 -2 2 2 2 0 0 1 -2-2 2 2 0 0 1  2-2 2 2 0 0 1  2 2zm-7.5 7.5a7.5 7.5 0 0 1 -7.5 7.5 7.5 7.5 0 0 1 -7.5-7.5 7.5 7.5 0 0 1  7.5-7.5 7.5 7.5 0 0 1  7.5 7.5zm-5.5 0a2 2 0 0 1 -2 2 2 2 0 0 1 -2-2 2 2 0 0 1  2-2 2 2 0 0 1  2 2zm-10-3a7.5 7.5 0 0 1 -7.5 7.5 7.5 7.5 0 0 1 -7.5-7.5 7.5 7.5 0 0 1  7.5-7.5 7.5 7.5 0 0 1  7.5 7.5zm-5.5 0a2 2 0 0 1 -2 2 2 2 0 0 1 -2-2 2 2 0 0 1  2-2 2 2 0 0 1  2 2zm3 16a7.5 7.5 0 0 1 -7.5 7.5 7.5 7.5 0 0 1 -7.5-7.5 7.5 7.5 0 0 1  7.5-7.5 7.5 7.5 0 0 1  7.5 7.5zm-5.5 0a2 2 0 0 1 -2 2 2 2 0 0 1 -2-2 2 2 0 0 1  2-2 2 2 0 0 1  2 2zm-10.5 1.5a7.5 7.5 0 0 1 -7.5 7.5 7.5 7.5 0 0 1 -7.5-7.5 7.5 7.5 0 0 1  7.5-7.5 7.5 7.5 0 0 1  7.5 7.5zm-5.5 0a2 2 0 0 1 -2 2 2 2 0 0 1 -2-2 2 2 0 0 1  2-2 2 2 0 0 1  2 2zm128.2-19a10 10 0 0 1 -10 10 10 10 0 0 1 -10-10 10 10 0 0 1  10-10 10 10 0 0 1  10 10zm-8 0a2 2 0 0 1 -2 2 2 2 0 0 1 -2-2 2 2 0 0 1  2-2 2 2 0 0 1  2 2zm-111.499999 1a10 10 0 0 1 -10 10 10 10 0 0 1 -10-10 10 10 0 0 1  10-10 10 10 0 0 1  10 10zm-8 0a2 2 0 0 1 -2 2 2 2 0 0 1 -2-2 2 2 0 0 1  2-2 2 2 0 0 1  2 2zm145.900009-37.5a8.5 8.5 0 0 1 -8.5 8.5 8.5 8.5 0 0 1 -8.5-8.5 8.5 8.5 0 0 1  8.5-8.5 8.5 8.5 0 0 1  8.5 8.5zm-6.5 0a2 2 0 0 1 -2 2 2 2 0 0 1 -2-2 2 2 0 0 1  2-2 2 2 0 0 1  2 2zm-74.60001 19a7.5 7.5 0 0 1 -7.5 7.5 7.5 7.5 0 0 1 -7.5-7.5 7.5 7.5 0 0 1  7.5-7.5 7.5 7.5 0 0 1  7.5 7.5zm-5.5 0a2 2 0 0 1 -2 2 2 2 0 0 1 -2-2 2 2 0 0 1  2-2 2 2 0 0 1  2 2zm21-.5a7.5 7.5 0 0 1 -7.5 7.5 7.5 7.5 0 0 1 -7.5-7.5 7.5 7.5 0 0 1  7.5-7.5 7.5 7.5 0 0 1  7.5 7.5zm-5.5 0a2 2 0 0 1 -2 2 2 2 0 0 1 -2-2 2 2 0 0 1  2-2 2 2 0 0 1  2 2zm70.89999 0a7.5 7.5 0 0 1 -7.5 7.5 7.5 7.5 0 0 1 -7.5-7.5 7.5 7.5 0 0 1  7.5-7.5 7.5 7.5 0 0 1  7.5 7.5zm-5.5 0a2 2 0 0 1 -2 2 2 2 0 0 1 -2-2 2 2 0 0 1  2-2 2 2 0 0 1  2 2zm-11.89999 0a7.5 7.5 0 0 1 -7.5 7.5 7.5 7.5 0 0 1 -7.5-7.5 7.5 7.5 0 0 1  7.5-7.5 7.5 7.5 0 0 1  7.5 7.5zm-5.5 0a2 2 0 0 1 -2 2 2 2 0 0 1 -2-2 2 2 0 0 1  2-2 2 2 0 0 1  2 2zm-10.60001 0a7.5 7.5 0 0 1 -7.5 7.5 7.5 7.5 0 0 1 -7.5-7.5 7.5 7.5 0 0 1  7.5-7.5 7.5 7.5 0 0 1  7.5 7.5zm-5.5 0a2 2 0 0 1 -2 2 2 2 0 0 1 -2-2 2 2 0 0 1  2-2 2 2 0 0 1  2 2zm-10.39999 0a7.5 7.5 0 0 1 -7.5 7.5 7.5 7.5 0 0 1 -7.5-7.5 7.5 7.5 0 0 1  7.5-7.5 7.5 7.5 0 0 1  7.5 7.5zm-5.5 0a2 2 0 0 1 -2 2 2 2 0 0 1 -2-2 2 2 0 0 1  2-2 2 2 0 0 1  2 2zm-107 0a7.5 7.5 0 0 1 -7.5 7.5 7.5 7.5 0 0 1 -7.5-7.5 7.5 7.5 0 0 1  7.5-7.5 7.5 7.5 0 0 1  7.5 7.5zm-5.5 0a2 2 0 0 1 -2 2 2 2 0 0 1 -2-2 2 2 0 0 1  2-2 2 2 0 0 1  2 2zm70.9 0a7.5 7.5 0 0 1 -7.499998 7.5 7.5 7.5 0 0 1 -7.5-7.5 7.5 7.5 0 0 1  7.5-7.5 7.5 7.5 0 0 1  7.499998 7.5zm-5.499998 0a2 2 0 0 1 -2 2 2 2 0 0 1 -2-2 2 2 0 0 1  2-2 2 2 0 0 1  2 2zm-10.400002 0a7.5 7.5 0 0 1 -7.5 7.5 7.5 7.5 0 0 1 -7.5-7.5 7.5 7.5 0 0 1  7.5-7.5 7.5 7.5 0 0 1  7.5 7.5zm-5.5 0a2 2 0 0 1 -2 2 2 2 0 0 1 -2-2 2 2 0 0 1  2-2 2 2 0 0 1  2 2zm-10.099998 0a7.5 7.5 0 0 1 -7.5 7.5 7.5 7.5 0 0 1 -7.5-7.5 7.5 7.5 0 0 1  7.5-7.5 7.5 7.5 0 0 1  7.5 7.5zm-5.5 0a2 2 0 0 1 -2 2 2 2 0 0 1 -2-2 2 2 0 0 1  2-2 2 2 0 0 1  2 2zm-10.900002 0a7.5 7.5 0 0 1 -7.5 7.5 7.5 7.5 0 0 1 -7.5-7.5 7.5 7.5 0 0 1  7.5-7.5 7.5 7.5 0 0 1  7.5 7.5zm-5.5 0a2 2 0 0 1 -2 2 2 2 0 0 1 -2-2 2 2 0 0 1  2-2 2 2 0 0 1  2 2zm83.5-35.5a7.5 7.5 0 0 1 -7.5 7.5 7.5 7.5 0 0 1 -7.5-7.5 7.5 7.5 0 0 1  7.5-7.5 7.5 7.5 0 0 1  7.5 7.5zm-5.5 0a2 2 0 0 1 -2 2 2 2 0 0 1 -2-2 2 2 0 0 1  2-2 2 2 0 0 1  2 2zm72.39999 0a7.5 7.5 0 0 1 -7.5 7.5 7.5 7.5 0 0 1 -7.5-7.5 7.5 7.5 0 0 1  7.5-7.5 7.5 7.5 0 0 1  7.5 7.5zm-5.5 0a2 2 0 0 1 -2 2 2 2 0 0 1 -2-2 2 2 0 0 1  2-2 2 2 0 0 1  2 2zm-11.89999 0a7.5 7.5 0 0 1 -7.5 7.5 7.5 7.5 0 0 1 -7.5-7.5 7.5 7.5 0 0 1  7.5-7.5 7.5 7.5 0 0 1  7.5 7.5zm-5.5 0a2 2 0 0 1 -2 2 2 2 0 0 1 -2-2 2 2 0 0 1  2-2 2 2 0 0 1  2 2zm-11.10001 0a7.5 7.5 0 0 1 -7.5 7.5 7.5 7.5 0 0 1 -7.5-7.5 7.5 7.5 0 0 1  7.5-7.5 7.5 7.5 0 0 1  7.5 7.5zm-5.5 0a2 2 0 0 1 -2 2 2 2 0 0 1 -2-2 2 2 0 0 1  2-2 2 2 0 0 1  2 2zm-10.89999 0a7.5 7.5 0 0 1 -7.5 7.5 7.5 7.5 0 0 1 -7.5-7.5 7.5 7.5 0 0 1  7.5-7.5 7.5 7.5 0 0 1  7.5 7.5zm-5.5 0a2 2 0 0 1 -2 2 2 2 0 0 1 -2-2 2 2 0 0 1  2-2 2 2 0 0 1  2 2zm-106.5 0a7.5 7.5 0 0 1 -7.5 7.5 7.5 7.5 0 0 1 -7.5-7.5 7.5 7.5 0 0 1  7.5-7.5 7.5 7.5 0 0 1  7.5 7.5zm-5.5 0a2 2 0 0 1 -2 2 2 2 0 0 1 -2-2 2 2 0 0 1  2-2 2 2 0 0 1  2 2zm71.9 0a7.5 7.5 0 0 1 -7.499998 7.5 7.5 7.5 0 0 1 -7.5-7.5 7.5 7.5 0 0 1  7.5-7.5 7.5 7.5 0 0 1  7.499998 7.5zm-5.499998 0a2 2 0 0 1 -2 2 2 2 0 0 1 -2-2 2 2 0 0 1  2-2 2 2 0 0 1  2 2zm-10.900002 0a7.5 7.5 0 0 1 -7.5 7.5 7.5 7.5 0 0 1 -7.5-7.5 7.5 7.5 0 0 1  7.5-7.5 7.5 7.5 0 0 1  7.5 7.5zm-5.5 0a2 2 0 0 1 -2 2 2 2 0 0 1 -2-2 2 2 0 0 1  2-2 2 2 0 0 1  2 2zm-10.599998 0a7.5 7.5 0 0 1 -7.5 7.5 7.5 7.5 0 0 1 -7.5-7.5 7.5 7.5 0 0 1  7.5-7.5 7.5 7.5 0 0 1  7.5 7.5zm-5.5 0a2 2 0 0 1 -2 2 2 2 0 0 1 -2-2 2 2 0 0 1  2-2 2 2 0 0 1  2 2zm116.299998 18a10 10 0 0 1 -10 10 10 10 0 0 1 -10-10 10 10 0 0 1  10-10 10 10 0 0 1  10 10zm-8 0a2 2 0 0 1 -2 2 2 2 0 0 1 -2-2 2 2 0 0 1  2-2 2 2 0 0 1  2 2zm-114.499999 0a10 10 0 0 1 -10 10 10 10 0 0 1 -10-10 10 10 0 0 1  10-10 10 10 0 0 1  10 10zm-8 0a2 2 0 0 1 -2 2 2 2 0 0 1 -2-2 2 2 0 0 1  2-2 2 2 0 0 1  2 2zm69.299999 44.5a10 10 0 0 1 -10 10 10 10 0 0 1 -10-10 10 10 0 0 1  10-10 10 10 0 0 1  10 10zm-8 0a2 2 0 0 1 -2 2 2 2 0 0 1 -2-2 2 2 0 0 1  2-2 2 2 0 0 1  2 2zm48.8-44.5a10 10 0 0 1 -10 10 10 10 0 0 1 -10-10 10 10 0 0 1  10-10 10 10 0 0 1  10 10zm-8 0a2 2 0 0 1 -2 2 2 2 0 0 1 -2-2 2 2 0 0 1  2-2 2 2 0 0 1  2 2zm-12.40001 0a10 10 0 0 1 -10 10 10 10 0 0 1 -10-10 10 10 0 0 1  10-10 10 10 0 0 1  10 10zm-8 0a2 2 0 0 1 -2 2 2 2 0 0 1 -2-2 2 2 0 0 1  2-2 2 2 0 0 1  2 2zm-12.39999 0a10 10 0 0 1 -10 10 10 10 0 0 1 -10-10 10 10 0 0 1  10-10 10 10 0 0 1  10 10zm-8 0a2 2 0 0 1 -2 2 2 2 0 0 1 -2-2 2 2 0 0 1  2-2 2 2 0 0 1  2 2zm-12.4 0a10 10 0 0 1 -10.000002 10 10 10 0 0 1 -10-10 10 10 0 0 1  10-10 10 10 0 0 1  10.000002 10zm-8.000002 0a2 2 0 0 1 -2 2 2 2 0 0 1 -2-2 2 2 0 0 1  2-2 2 2 0 0 1  2 2zm-12.400001 0a10 10 0 0 1 -10 10 10 10 0 0 1 -10-10 10 10 0 0 1  10-10 10 10 0 0 1  10 10zm-8 0a2 2 0 0 1 -2 2 2 2 0 0 1 -2-2 2 2 0 0 1  2-2 2 2 0 0 1  2 2zm133.300003 39a12 12 0 0 1 -12 12 12 12 0 0 1 -12-12 12 12 0 0 1  12-12 12 12 0 0 1  12 12zm-10 0a2 2 0 0 1 -2 2 2 2 0 0 1 -2-2 2 2 0 0 1  2-2 2 2 0 0 1  2 2zm-154.5 0a12 12 0 0 1 -12 12 12 12 0 0 1 -12-12 12 12 0 0 1  12-12 12 12 0 0 1  12 12zm-10 0a2 2 0 0 1 -2 2 2 2 0 0 1 -2-2 2 2 0 0 1  2-2 2 2 0 0 1  2 2zm143.5 33.5a12 12 0 0 1 -12 12 12 12 0 0 1 -12-12 12 12 0 0 1  12-12 12 12 0 0 1  12 12zm-10 0a2 2 0 0 1 -2 2 2 2 0 0 1 -2-2 2 2 0 0 1  2-2 2 2 0 0 1  2 2zm40.5-5.5a15 15 0 0 1 -15 15 15 15 0 0 1 -15-15 15 15 0 0 1  15-15 15 15 0 0 1  15 15zm-13 0a2 2 0 0 1 -2 2 2 2 0 0 1 -2-2 2 2 0 0 1  2-2 2 2 0 0 1  2 2zm-82-.5a19 19 0 0 1 -19 19 19 19 0 0 1 -19-19 19 19 0 0 1  19-19 19 19 0 0 1  19 19zm-17 0a2 2 0 0 1 -2 2 2 2 0 0 1 -2-2 2 2 0 0 1  2-2 2 2 0 0 1  2 2zm57 0a19 19 0 0 1 -19 19 19 19 0 0 1 -19-19 19 19 0 0 1  19-19 19 19 0 0 1  19 19zm-17 0a2 2 0 0 1 -2 2 2 2 0 0 1 -2-2 2 2 0 0 1  2-2 2 2 0 0 1  2 2zm-86 .5a15 15 0 0 1 -15 15 15 15 0 0 1 -15-15 15 15 0 0 1  15-15 15 15 0 0 1  15 15zm-13 0a2 2 0 0 1 -2 2 2 2 0 0 1 -2-2 2 2 0 0 1  2-2 2 2 0 0 1  2 2zm37.5 5.5a12 12 0 0 1 -12 12 12 12 0 0 1 -12-12 12 12 0 0 1  12-12 12 12 0 0 1  12 12zm-10 0a2 2 0 0 1 -2 2 2 2 0 0 1 -2-2 2 2 0 0 1  2-2 2 2 0 0 1  2 2zm-22-73.5a8.5 8.5 0 0 1 -8.5 8.5 8.5 8.5 0 0 1 -8.5-8.5 8.5 8.5 0 0 1  8.5-8.5 8.5 8.5 0 0 1  8.5 8.5zm-6.5 0a2 2 0 0 1 -2 2 2 2 0 0 1 -2-2 2 2 0 0 1  2-2 2 2 0 0 1  2 2zm22-17a7.5 7.5 0 0 1 -7.5 7.5 7.5 7.5 0 0 1 -7.5-7.5 7.5 7.5 0 0 1  7.5-7.5 7.5 7.5 0 0 1  7.5 7.5zm-5.5 0a2 2 0 0 1 -2 2 2 2 0 0 1 -2-2 2 2 0 0 1  2-2 2 2 0 0 1  2 2zm67.5 1.1a6 6 0 0 1 -6 6 6 6 0 0 1 -6-6 6 6 0 0 1  6-6 6 6 0 0 1  6 6zm-4 0a2 2 0 0 1 -2 2 2 2 0 0 1 -2-2 2 2 0 0 1  2-2 2 2 0 0 1  2 2z" stroke-width=".40000001"/></g></g></svg>