<svg id="svg2" height="147" overflow="visible" viewBox="0 0 223 147" width="223" xmlns="http://www.w3.org/2000/svg"><g id="layer1" fill-rule="evenodd" stroke="#000" stroke-linecap="round"><g id="TZ112"><rect id="rect4167" fill="#ccc" height="147" ry="10" stroke-linejoin="round" width="223"/><circle id="path4170" cx="111.5" cy="73.5" fill="#6f7073" r="40" stroke-width=".40000001"/><path id="circle4872" d="m123.5 45.5a12 12 0 0 1 -12 12 12 12 0 0 1 -12-12 12 12 0 0 1  12-12 12 12 0 0 1  12 12zm-5-5a7 7 0 0 1 -7 7 7 7 0 0 1 -7-7 7 7 0 0 1  7-7 7 7 0 0 1  7 7zm10 10a17 17 0 0 1 -17 17 17 17 0 0 1 -17-17 17 17 0 0 1  17-17 17 17 0 0 1  17 17zm5 5a22 22 0 0 1 -22 22 22 22 0 0 1 -22-22 22 22 0 0 1  22-22 22 22 0 0 1  22 22zm6 6a28 28 0 0 1 -28 28 28 28 0 0 1 -28-28 28 28 0 0 1  28-28 28 28 0 0 1  28 28zm6 6a34 34 0 0 1 -34 34 34 34 0 0 1 -34-34 34 34 0 0 1  34-34 34 34 0 0 1  34 34z" fill="#77797c" stroke-width=".40000001"/></g></g></svg>